<svg width="30" height="30" viewBox="0 0 30 30" fill="none" xmlns="http://www.w3.org/2000/svg">
<path d="M17.8711 15C17.8711 16.5857 16.5857 17.8711 15 17.8711C13.4143 17.8711 12.1289 16.5857 12.1289 15C12.1289 13.4143 13.4143 12.1289 15 12.1289C16.5857 12.1289 17.8711 13.4143 17.8711 15Z" fill="#5E5BDE"/>
<path d="M21.7145 9.92027C21.5765 9.54628 21.3563 9.20776 21.0702 8.9299C20.7924 8.6438 20.4541 8.42361 20.0799 8.2856C19.7764 8.16772 19.3204 8.02742 18.4807 7.9892C17.5722 7.94777 17.2999 7.93884 15.0001 7.93884C12.7 7.93884 12.4277 7.94754 11.5195 7.98897C10.6797 8.02742 10.2235 8.16772 9.92026 8.2856C9.54604 8.42361 9.20752 8.6438 8.92989 8.9299C8.64378 9.20776 8.4236 9.54605 8.28535 9.92027C8.16748 10.2238 8.02718 10.6799 7.98895 11.5197C7.94753 12.4279 7.9386 12.7003 7.9386 15.0003C7.9386 17.3001 7.94753 17.5725 7.98895 18.4809C8.02718 19.3207 8.16748 19.7766 8.28535 20.0801C8.4236 20.4543 8.64355 20.7926 8.92966 21.0705C9.20752 21.3566 9.54581 21.5768 9.92003 21.7148C10.2235 21.8329 10.6797 21.9732 11.5195 22.0114C12.4277 22.0528 12.6998 22.0615 14.9998 22.0615C17.3001 22.0615 17.5725 22.0528 18.4804 22.0114C19.3202 21.9732 19.7764 21.8329 20.0799 21.7148C20.8311 21.425 21.4248 20.8313 21.7145 20.0801C21.8324 19.7766 21.9727 19.3207 22.0112 18.4809C22.0526 17.5725 22.0613 17.3001 22.0613 15.0003C22.0613 12.7003 22.0526 12.4279 22.0112 11.5197C21.9729 10.6799 21.8326 10.2238 21.7145 9.92027ZM15.0001 19.423C12.5572 19.423 10.5769 17.4429 10.5769 15.0001C10.5769 12.5572 12.5572 10.5772 15.0001 10.5772C17.4427 10.5772 19.423 12.5572 19.423 15.0001C19.423 17.4429 17.4427 19.423 15.0001 19.423ZM19.5978 11.4359C19.027 11.4359 18.5642 10.9731 18.5642 10.4023C18.5642 9.83147 19.027 9.36867 19.5978 9.36867C20.1687 9.36867 20.6315 9.83147 20.6315 10.4023C20.6312 10.9731 20.1687 11.4359 19.5978 11.4359Z" fill="#5E5BDE"/>
<path d="M15 0C6.717 0 0 6.717 0 15C0 23.283 6.717 30 15 30C23.283 30 30 23.283 30 15C30 6.717 23.283 0 15 0ZM23.5613 18.5511C23.5197 19.468 23.3739 20.094 23.161 20.6419C22.7135 21.7989 21.7989 22.7135 20.6419 23.161C20.0942 23.3739 19.468 23.5194 18.5513 23.5613C17.6328 23.6032 17.3394 23.6133 15.0002 23.6133C12.6608 23.6133 12.3676 23.6032 11.4489 23.5613C10.5322 23.5194 9.90601 23.3739 9.35829 23.161C8.78334 22.9447 8.26286 22.6057 7.83257 22.1674C7.39449 21.7374 7.05551 21.2167 6.83922 20.6419C6.62636 20.0942 6.48056 19.468 6.4389 18.5513C6.39656 17.6326 6.38672 17.3392 6.38672 15C6.38672 12.6608 6.39656 12.3674 6.43867 11.4489C6.48033 10.532 6.6259 9.90601 6.83876 9.35806C7.05505 8.78334 7.39426 8.26263 7.83257 7.83257C8.26263 7.39426 8.78334 7.05528 9.35806 6.83899C9.90601 6.62613 10.532 6.48056 11.4489 6.43867C12.3674 6.39679 12.6608 6.38672 15 6.38672C17.3392 6.38672 17.6326 6.39679 18.5511 6.4389C19.468 6.48056 20.094 6.62613 20.6419 6.83876C21.2167 7.05505 21.7374 7.39426 22.1677 7.83257C22.6057 8.26286 22.9449 8.78334 23.161 9.35806C23.3741 9.90601 23.5197 10.532 23.5616 11.4489C23.6034 12.3674 23.6133 12.6608 23.6133 15C23.6133 17.3392 23.6034 17.6326 23.5613 18.5511Z" fill="#5E5BDE"/>
</svg>
