<svg width="30" height="30" viewBox="0 0 30 30" fill="none" xmlns="http://www.w3.org/2000/svg">
<path d="M16.6662 13.9313L14.6035 13.4736C13.8189 13.2948 12.9157 13.0586 12.9157 12.3189C12.9157 11.5775 13.5493 11.0596 14.693 11.0596C16.9981 11.0596 16.7875 12.6436 17.9319 12.6436C18.5341 12.6436 19.0612 12.2896 19.0612 11.6807C19.0612 10.2601 16.7875 9.19394 14.8587 9.19394C12.7649 9.19394 10.5351 10.0831 10.5351 12.4514C10.5351 13.5919 10.9425 14.8052 13.187 15.368L15.9738 16.0638C16.8172 16.2717 17.0283 16.7461 17.0283 17.1741C17.0283 17.886 16.3213 18.5813 15.0404 18.5813C12.5385 18.5813 12.8857 16.6559 11.545 16.6559C10.9425 16.6559 10.5054 17.0709 10.5054 17.663C10.5054 18.8175 11.907 20.3581 15.0404 20.3581C18.0216 20.3581 19.4988 18.9212 19.4988 16.9967C19.4988 15.7542 18.9259 14.4349 16.6662 13.9313Z" fill="#3DB4DA"/>
<path d="M15 0C6.717 0 0 6.717 0 15C0 23.283 6.717 30 15 30C23.283 30 30 23.283 30 15C30 6.717 23.283 0 15 0ZM22.8097 22.7875C21.8234 23.7742 20.5128 24.3164 19.1185 24.3164C18.2153 24.3164 17.3309 24.0816 16.5498 23.6396C16.0428 23.7296 15.5235 23.7769 15.0053 23.7769C13.8146 23.7769 12.6592 23.5435 11.5723 23.0827C10.5212 22.6396 9.57848 22.0031 8.76801 21.1931C7.95845 20.3833 7.32262 19.4405 6.87881 18.39C6.4183 17.3023 6.1853 16.1476 6.1853 14.9567C6.1853 14.4468 6.23108 13.9362 6.31805 13.4365C5.88936 12.6654 5.66116 11.7929 5.66116 10.9051C5.66116 9.5105 6.20453 8.19923 7.19032 7.21321C8.17657 6.22673 9.48784 5.68359 10.8824 5.68359C11.7366 5.68359 12.5807 5.89668 13.331 6.29562C13.3324 6.29539 13.334 6.29539 13.3351 6.29494C13.8821 6.19011 14.444 6.13724 15.0053 6.13724C16.1957 6.13724 17.3508 6.37047 18.4378 6.83029C19.4877 7.27455 20.4316 7.91039 21.2409 8.72017C22.0514 9.53018 22.687 10.4734 23.1313 11.5237C23.5918 12.6112 23.8248 13.7661 23.8248 14.9567C23.8248 15.4935 23.7742 16.0307 23.6778 16.5555C24.1095 17.3296 24.3391 18.205 24.3391 19.0958C24.3388 20.4904 23.7962 21.8019 22.8097 22.7875Z" fill="#3DB4DA"/>
</svg>
