<svg width="132" height="132" viewBox="0 0 132 132" fill="none" xmlns="http://www.w3.org/2000/svg">
<g filter="url(#filter0_d)">
<path d="M114.306 74.3253C115.794 71.5009 116.646 68.2899 116.646 64.8757C116.646 56.1981 111.195 48.8114 103.538 45.9005C103.538 45.8914 103.539 45.8822 103.539 45.8717C103.539 30.6711 91.2169 18.3486 76.0163 18.3486C63.1931 18.3486 52.45 27.1311 49.3936 39.0001C47.4591 38.3645 45.3975 38.008 43.2507 38.008C33.1694 38.008 24.8719 45.6004 23.7355 55.3763C16.9151 56.8193 11.7958 62.8692 11.7958 70.1182C11.7958 78.442 18.5442 85.1904 26.8679 85.1904C27.0999 85.1904 27.3293 85.1747 27.5573 85.1616C27.5521 85.3909 27.5232 85.615 27.5232 85.8457C27.5232 100.685 39.5521 112.713 54.391 112.713C62.8275 112.713 70.3478 108.818 75.2744 102.734C78.129 105.651 82.0975 107.471 86.5012 107.471C92.5956 107.471 97.8696 103.998 100.48 98.9283C101.859 99.3674 103.326 99.6072 104.85 99.6072C112.812 99.6072 119.267 93.1524 119.267 85.1904C119.267 80.8509 117.34 76.9689 114.306 74.3253Z" fill="#D1FAFF"/>
</g>
<path d="M43.0866 105.505C43.0866 105.505 47.8573 105.505 51.1142 105.505C54.3711 105.505 57.012 102.864 57.012 99.6074C57.012 96.5497 54.6764 94.0648 51.6974 93.7686C51.7262 93.5313 51.7695 93.2994 51.7695 93.0543C51.7695 89.7974 49.1286 87.1565 45.8717 87.1565C43.987 87.1565 42.3291 88.0556 41.2491 89.4317C41.0656 85.9769 38.232 83.2246 34.7314 83.2246C31.1127 83.2246 28.1783 86.1591 28.1783 89.7777C28.1783 90.3623 28.2792 90.918 28.4233 91.4579C27.5819 90.4396 26.325 89.7777 24.9017 89.7777C22.5675 89.7777 20.6632 91.5274 20.3735 93.7817C20.1363 93.7528 19.9043 93.7096 19.6592 93.7096C16.4023 93.7096 13.7614 96.3505 13.7614 99.6074C13.7614 102.864 16.4023 105.505 19.6592 105.505C22.9161 105.505 32.1101 105.505 32.1101 105.505H39.1547V106.16H43.0866V105.505Z" fill="#FDFCEF"/>
<path d="M34.7316 82.5693C30.7565 82.5693 27.5232 85.8026 27.5232 89.7778C27.5232 89.7987 27.5232 89.8184 27.5232 89.8394C26.7342 89.3741 25.8325 89.1224 24.9019 89.1224C22.5022 89.1224 20.4314 90.7751 19.8455 93.0609C19.7839 93.0569 19.7223 93.0543 19.6594 93.0543C16.046 93.0543 13.1063 95.994 13.1063 99.6074C13.1063 103.221 16.046 106.161 19.6594 106.161H39.1549C39.5167 106.161 39.8102 105.867 39.8102 105.505C39.8102 105.143 39.5167 104.85 39.1549 104.85H19.6594C16.7682 104.85 14.4169 102.499 14.4169 99.6074C14.4169 96.7162 16.7682 94.3649 19.6594 94.3649C19.8128 94.3649 19.9609 94.3872 20.109 94.4069L20.2938 94.4318C20.3213 94.4357 20.3475 94.437 20.375 94.437C20.6974 94.437 20.9805 94.1945 21.0238 93.8643C21.2741 91.9075 22.9412 90.4331 24.9019 90.4331C26.0618 90.4331 27.1601 90.9586 27.9177 91.8748C28.0461 92.0294 28.2335 92.1133 28.4236 92.1133C28.5258 92.1133 28.628 92.0897 28.7224 92.0399C28.9963 91.8997 29.1339 91.5864 29.0553 91.2889C28.9046 90.7188 28.8338 90.2391 28.8338 89.7778C28.8338 86.5261 31.4799 83.88 34.7316 83.88C37.8522 83.88 40.4289 86.3334 40.5953 89.4671C40.6097 89.7398 40.7919 89.9743 41.0527 90.0569C41.1182 90.0779 41.1851 90.0884 41.2519 90.0884C41.4485 90.0884 41.6399 89.9979 41.7657 89.8367C42.7762 88.5497 44.2716 87.8118 45.8719 87.8118C48.7631 87.8118 51.1144 90.1631 51.1144 93.0543C51.1144 93.2077 51.0921 93.3558 51.0724 93.5039L51.0475 93.6887C51.0266 93.8643 51.0764 94.0399 51.1864 94.1775C51.2965 94.3151 51.4577 94.4029 51.6321 94.42C54.3267 94.6887 56.3569 96.9193 56.3569 99.6074C56.3569 102.499 54.0056 104.85 51.1144 104.85H43.0868C42.7251 104.85 42.4315 105.143 42.4315 105.505C42.4315 105.867 42.7251 106.161 43.0868 106.161H51.1144C54.7277 106.161 57.6675 103.221 57.6675 99.6074C57.6675 96.4659 55.4538 93.8237 52.4211 93.2155C52.4237 93.1618 52.425 93.108 52.425 93.0543C52.425 89.4409 49.4853 86.5012 45.8719 86.5012C44.3306 86.5012 42.8666 87.0464 41.7002 88.0268C40.9164 84.876 38.0802 82.5693 34.7316 82.5693Z" fill="#472B29"/>
<path d="M32.7655 91.7437C30.9267 91.7437 29.3461 93.053 28.9476 94.8118C28.4666 94.5209 27.9175 94.3649 27.3592 94.3649C25.7838 94.3649 24.4784 95.5405 24.2753 97.0753C24.0092 97.015 23.7563 96.9861 23.5085 96.9861C21.5046 96.9861 19.8244 98.5589 19.6842 100.567C19.6724 100.748 19.8087 100.905 19.9882 100.918C19.9961 100.918 20.0039 100.918 20.0118 100.918C20.1822 100.918 20.3264 100.786 20.3382 100.614C20.4548 98.9481 21.8467 97.6415 23.5085 97.6415C23.8087 97.6415 24.1245 97.6952 24.4758 97.8079C24.5046 97.8171 24.5348 97.821 24.5636 97.821C24.6357 97.821 24.7078 97.7948 24.7681 97.7502C24.8519 97.6899 24.9017 97.5825 24.9017 97.4776C24.9017 96.1224 26.004 95.0202 27.3592 95.0202C27.945 95.0202 28.5191 95.2404 28.9725 95.6401C29.0341 95.6939 29.1115 95.7227 29.1888 95.7227C29.2307 95.7227 29.2714 95.7148 29.3107 95.6978C29.426 95.6519 29.5046 95.5445 29.5138 95.42C29.6501 93.7253 31.0774 92.399 32.7655 92.399C33.0381 92.399 33.3225 92.4435 33.6593 92.5392C33.6895 92.5484 33.7209 92.5523 33.7511 92.5523C33.8939 92.5523 34.0224 92.4566 34.0643 92.3138C34.1141 92.1395 34.0132 91.9586 33.8389 91.9088C33.4431 91.7961 33.101 91.7437 32.7655 91.7437Z" fill="#472B29"/>
<path d="M50.9608 93.7095C49.2229 93.7095 47.6738 94.8851 47.1941 96.5692C47.1443 96.7436 47.2452 96.9244 47.4195 96.9742C47.451 96.9821 47.4811 96.986 47.5099 96.986C47.6528 96.986 47.7839 96.8917 47.8245 96.7475C48.2242 95.3451 49.5139 94.3648 50.9608 94.3648C51.1142 94.3648 51.2623 94.3831 51.409 94.4028C51.4248 94.4054 51.4392 94.4067 51.4549 94.4067C51.6135 94.4067 51.755 94.2861 51.7773 94.1223C51.8022 93.9428 51.6764 93.7776 51.4969 93.754C51.3212 93.7304 51.143 93.7095 50.9608 93.7095Z" fill="#472B29"/>
<path d="M21.501 61.5992H8.51932C8.15759 61.5992 7.86401 61.3056 7.86401 60.9439C7.86401 60.5822 8.15759 60.2886 8.51932 60.2886H21.501C21.8628 60.2886 22.1563 60.5822 22.1563 60.9439C22.1563 61.3056 21.8641 61.5992 21.501 61.5992Z" fill="white"/>
<path d="M25.5572 61.5992H24.2466C23.8849 61.5992 23.5913 61.3056 23.5913 60.9439C23.5913 60.5822 23.8849 60.2886 24.2466 60.2886H25.5572C25.9189 60.2886 26.2125 60.5822 26.2125 60.9439C26.2125 61.3056 25.9203 61.5992 25.5572 61.5992Z" fill="white"/>
<path d="M32.0986 64.2205H20.3148C19.9531 64.2205 19.6595 63.927 19.6595 63.5652C19.6595 63.2035 19.9531 62.9099 20.3148 62.9099H32.0986C32.4604 62.9099 32.7539 63.2035 32.7539 63.5652C32.7539 63.927 32.4604 64.2205 32.0986 64.2205Z" fill="white"/>
<path d="M17.6935 64.2205H16.3829C16.0211 64.2205 15.7275 63.927 15.7275 63.5652C15.7275 63.2035 16.0211 62.9099 16.3829 62.9099H17.6935C18.0552 62.9099 18.3488 63.2035 18.3488 63.5652C18.3488 63.927 18.0565 64.2205 17.6935 64.2205Z" fill="white"/>
<path d="M13.7615 64.2205H11.1402C10.7785 64.2205 10.4849 63.927 10.4849 63.5652C10.4849 63.2035 10.7785 62.9099 11.1402 62.9099H13.7615C14.1232 62.9099 14.4168 63.2035 14.4168 63.5652C14.4168 63.927 14.1245 64.2205 13.7615 64.2205Z" fill="white"/>
<path d="M21.6255 66.8419H19.0042C18.6425 66.8419 18.3489 66.5483 18.3489 66.1866C18.3489 65.8248 18.6425 65.5312 19.0042 65.5312H21.6255C21.9872 65.5312 22.2808 65.8248 22.2808 66.1866C22.2808 66.5483 21.9872 66.8419 21.6255 66.8419Z" fill="white"/>
<path d="M25.5572 55.0461C25.3252 55.0461 24.4786 55.0461 24.2466 55.0461C23.8849 55.0461 23.5913 55.3397 23.5913 55.7015C23.5913 56.0632 23.8849 56.3568 24.2466 56.3568C24.4786 56.3568 25.3252 56.3568 25.5572 56.3568C25.9189 56.3568 26.2125 56.0632 26.2125 55.7015C26.2125 55.3397 25.9189 55.0461 25.5572 55.0461Z" fill="white"/>
<path d="M25.5574 57.6675C25.3254 57.6675 19.2362 57.6675 19.0042 57.6675C18.6425 57.6675 18.3489 57.9611 18.3489 58.3228C18.3489 58.6845 18.6425 58.9781 19.0042 58.9781C19.2362 58.9781 25.3254 58.9781 25.5574 58.9781C25.9191 58.9781 26.2127 58.6845 26.2127 58.3228C26.2127 57.9611 25.9191 57.6675 25.5574 57.6675Z" fill="white"/>
<path d="M32.1102 60.2886C31.8782 60.2886 28.4103 60.2886 28.1784 60.2886C27.8166 60.2886 27.523 60.5822 27.523 60.9439C27.523 61.3056 27.8166 61.5992 28.1784 61.5992C28.4103 61.5992 31.8782 61.5992 32.1102 61.5992C32.4719 61.5992 32.7655 61.3056 32.7655 60.9439C32.7655 60.5822 32.4719 60.2886 32.1102 60.2886Z" fill="white"/>
<path d="M113.369 87.8118H100.263C99.9013 87.8118 99.6077 87.5183 99.6077 87.1565C99.6077 86.7948 99.9013 86.5012 100.263 86.5012H113.369C113.731 86.5012 114.025 86.7948 114.025 87.1565C114.025 87.5183 113.731 87.8118 113.369 87.8118Z" fill="white"/>
<path d="M118.612 87.8118H115.99C115.629 87.8118 115.335 87.5183 115.335 87.1565C115.335 86.7948 115.629 86.5012 115.99 86.5012H118.612C118.973 86.5012 119.267 86.7948 119.267 87.1565C119.267 87.5183 118.973 87.8118 118.612 87.8118Z" fill="white"/>
<path d="M125.165 90.4329H112.059C111.697 90.4329 111.403 90.1394 111.403 89.7776C111.403 89.4159 111.697 89.1223 112.059 89.1223H125.165C125.527 89.1223 125.82 89.4159 125.82 89.7776C125.82 90.1394 125.528 90.4329 125.165 90.4329Z" fill="white"/>
<path d="M109.437 90.4329H108.127C107.765 90.4329 107.471 90.1394 107.471 89.7776C107.471 89.4159 107.765 89.1223 108.127 89.1223H109.437C109.799 89.1223 110.093 89.4159 110.093 89.7776C110.093 90.1394 109.799 90.4329 109.437 90.4329Z" fill="white"/>
<path d="M105.342 90.4329H102.884C102.523 90.4329 102.229 90.1394 102.229 89.7776C102.229 89.4159 102.523 89.1223 102.884 89.1223H105.342C105.704 89.1223 105.997 89.4159 105.997 89.7776C105.997 90.1394 105.704 90.4329 105.342 90.4329Z" fill="white"/>
<path d="M117.301 85.1905H110.748C110.386 85.1905 110.093 84.8969 110.093 84.5352C110.093 84.1735 110.386 83.8799 110.748 83.8799H117.301C117.663 83.8799 117.956 84.1735 117.956 84.5352C117.956 84.8969 117.664 85.1905 117.301 85.1905Z" fill="white"/>
<path d="M113.369 93.0543H110.748C110.386 93.0543 110.093 92.7607 110.093 92.399C110.093 92.0372 110.386 91.7437 110.748 91.7437H113.369C113.731 91.7437 114.025 92.0372 114.025 92.399C114.025 92.7607 113.731 93.0543 113.369 93.0543Z" fill="white"/>
<path d="M117.301 58.3225C117.301 58.3225 119.355 58.3225 121.888 58.3225C124.422 58.3225 126.475 56.2688 126.475 53.7353C126.475 51.4011 124.726 49.4968 122.472 49.2071C122.508 48.9725 122.544 48.7379 122.544 48.4928C122.544 45.9594 120.49 43.9057 117.956 43.9057C116.604 43.9057 115.401 44.502 114.562 45.4325C114.059 43.0629 111.958 41.2844 109.437 41.2844C106.542 41.2844 104.195 43.6317 104.195 46.5269C104.195 46.7772 104.234 47.0171 104.268 47.2582C103.707 46.8074 103.005 46.5269 102.229 46.5269C100.619 46.5269 99.2866 47.6894 99.0114 49.2202C98.7768 49.1835 98.5422 49.1482 98.2971 49.1482C95.7636 49.1482 93.7099 51.2019 93.7099 53.7353C93.7099 56.2688 95.7636 58.3225 98.2971 58.3225C100.831 58.3225 108.127 58.3225 108.127 58.3225V58.9778H117.301V58.3225Z" fill="#FDFCEF"/>
<path d="M119.594 52.4248C119.414 52.4248 119.267 52.278 119.267 52.0971C119.267 50.4943 120.571 49.1902 122.174 49.1902C122.218 49.202 123.14 49.1889 123.804 49.3684C123.979 49.4156 124.082 49.5952 124.035 49.7695C123.988 49.9451 123.808 50.0486 123.634 50.0001C123.052 49.8429 122.192 49.8429 122.175 49.8455C120.933 49.8455 119.922 50.856 119.922 52.0971C119.922 52.278 119.775 52.4248 119.594 52.4248Z" fill="#472B29"/>
<path d="M110.748 58.9779C111.11 58.9779 111.403 58.6845 111.403 58.3225C111.403 57.9606 111.11 57.6672 110.748 57.6672C110.386 57.6672 110.093 57.9606 110.093 58.3225C110.093 58.6845 110.386 58.9779 110.748 58.9779Z" fill="#472B29"/>
<path d="M121.888 58.9779H117.301C116.939 58.9779 116.645 58.6843 116.645 58.3225C116.645 57.9608 116.939 57.6672 117.301 57.6672H121.888C124.056 57.6672 125.82 55.9031 125.82 53.7354C125.82 51.7747 124.345 50.1076 122.389 49.8572C122.213 49.8336 122.054 49.7419 121.948 49.6004C121.842 49.4588 121.798 49.2806 121.825 49.1063C121.855 48.9044 121.888 48.7026 121.888 48.4929C121.888 46.3251 120.124 44.561 117.956 44.561C116.842 44.561 115.809 45.0263 115.048 45.8716C114.884 46.0538 114.627 46.1311 114.393 46.0656C114.154 46.0014 113.972 45.81 113.921 45.5689C113.474 43.4666 111.588 41.9398 109.437 41.9398C106.908 41.9398 104.85 43.9974 104.85 46.5269C104.85 46.7144 104.877 46.8939 104.904 47.0748C104.942 47.3408 104.821 47.6488 104.586 47.7825C104.352 47.9162 104.067 47.9372 103.858 47.7694C103.379 47.3854 102.817 47.1823 102.229 47.1823C100.963 47.1823 99.88 48.0879 99.6559 49.3369C99.593 49.6869 99.268 49.9215 98.9102 49.8677C98.7083 49.8363 98.5065 49.8035 98.2968 49.8035C96.129 49.8035 94.3649 51.5676 94.3649 53.7354C94.3649 55.9031 96.129 57.6672 98.2968 57.6672H108.126C108.488 57.6672 108.782 57.9608 108.782 58.3225C108.782 58.6843 108.488 58.9779 108.126 58.9779H98.2968C95.4055 58.9779 93.0543 56.6266 93.0543 53.7354C93.0543 50.8441 95.4055 48.4929 98.2968 48.4929C98.3741 48.4929 98.4488 48.4955 98.5248 48.5007C99.0674 46.9463 100.539 45.8716 102.229 45.8716C102.686 45.8716 103.132 45.9516 103.554 46.1076C103.77 43.0499 106.326 40.6292 109.437 40.6292C111.837 40.6292 113.98 42.1062 114.88 44.2648C115.771 43.6121 116.849 43.2504 117.956 43.2504C120.847 43.2504 123.199 45.6016 123.199 48.4929C123.199 48.5558 123.197 48.6174 123.193 48.679C125.478 49.2661 127.13 51.3356 127.13 53.7354C127.13 56.6266 124.779 58.9779 121.888 58.9779Z" fill="#472B29"/>
<path d="M114.68 57.6672C114.471 57.6672 113.577 57.6672 113.369 57.6672C113.007 57.6672 112.714 57.9608 112.714 58.3225C112.714 58.6843 113.007 58.9779 113.369 58.9779C113.577 58.9779 114.471 58.9779 114.68 58.9779C115.041 58.9779 115.335 58.6843 115.335 58.3225C115.335 57.9608 115.041 57.6672 114.68 57.6672Z" fill="#472B29"/>
<path d="M67.7591 96.0683V85.5834H54.6529V79.0303H40.2361V65.5308C40.2361 60.9777 43.9399 57.2739 48.493 57.2739C51.8062 57.2739 54.7879 59.2438 56.0893 62.2936L56.6123 63.5204L57.5703 62.5924C59.3685 60.8532 61.7303 59.8952 64.2204 59.8952C67.4197 59.8952 70.3948 61.4863 72.1772 64.1534L72.6753 64.8978L73.4315 64.4181C75.3909 63.1743 77.6438 62.5164 79.9479 62.5164C86.6688 62.5164 92.1367 67.9843 92.1367 74.7052V96.0683H67.7591Z" fill="#74ABF0"/>
<path d="M48.4931 58.1916C51.438 58.1916 54.0894 59.9426 55.2467 62.6542L56.2939 65.1077L58.21 63.2519C59.8352 61.6791 61.9702 60.8128 64.2205 60.8128C67.1131 60.8128 69.8025 62.2519 71.4159 64.6634L72.4119 66.1523L73.9244 65.1929C75.7357 64.0422 77.8196 63.4341 79.948 63.4341C86.163 63.4341 91.2194 68.4904 91.2194 74.7054V95.1511H68.6767V86.501V84.6661H66.8418H55.5704V79.9479V78.113H53.7356H41.1536V65.531C41.1536 61.4838 44.4459 58.1916 48.4931 58.1916ZM48.4931 56.3567C43.4262 56.3567 39.3187 60.4642 39.3187 65.531V79.6137C39.3187 79.7985 39.4681 79.9479 39.6529 79.9479H53.7356V86.2349C53.7356 86.3817 53.8548 86.501 54.0016 86.501H66.8418V96.986H93.0542V74.7054C93.0542 67.4668 87.1866 61.5992 79.948 61.5992C77.3674 61.5992 74.969 62.3554 72.9401 63.6438C71.0594 60.8312 67.8575 58.9779 64.2205 58.9779C61.387 58.9779 58.8208 60.1064 56.9335 61.9334C55.535 58.6555 52.2821 56.3567 48.4931 56.3567Z" fill="#472B29"/>
<path d="M81.2588 51.5073C85.0951 51.5073 88.2051 48.3974 88.2051 44.561C88.2051 40.7247 85.0951 37.6147 81.2588 37.6147C77.4225 37.6147 74.3125 40.7247 74.3125 44.561C74.3125 48.3974 77.4225 51.5073 81.2588 51.5073Z" fill="#FFA578"/>
<path d="M81.2587 38.5321C84.5824 38.5321 87.2876 41.236 87.2876 44.561C87.2876 47.8861 84.5824 50.5899 81.2587 50.5899C77.935 50.5899 75.2298 47.8861 75.2298 44.561C75.2298 41.236 77.935 38.5321 81.2587 38.5321ZM81.2587 36.6973C76.9153 36.6973 73.395 40.2189 73.395 44.561C73.395 48.9031 76.9153 52.4247 81.2587 52.4247C85.6021 52.4247 89.1224 48.9031 89.1224 44.561C89.1224 40.2189 85.6021 36.6973 81.2587 36.6973Z" fill="#472B29"/>
<path d="M62.9098 51.5074C66.0223 51.5074 68.5455 48.9843 68.5455 45.8718C68.5455 42.7593 66.0223 40.2361 62.9098 40.2361C59.7973 40.2361 57.2742 42.7593 57.2742 45.8718C57.2742 48.9843 59.7973 51.5074 62.9098 51.5074Z" fill="#FFA578"/>
<path d="M62.91 41.1535C65.5115 41.1535 67.6282 43.2701 67.6282 45.8717C67.6282 48.4733 65.5115 50.59 62.91 50.59C60.3084 50.59 58.1917 48.4733 58.1917 45.8717C58.1917 43.2701 60.3084 41.1535 62.91 41.1535ZM62.91 39.3186C59.2913 39.3186 56.3568 42.2531 56.3568 45.8717C56.3568 49.4903 59.2913 52.4248 62.91 52.4248C66.5286 52.4248 69.4631 49.4903 69.4631 45.8717C69.4631 42.2531 66.5286 39.3186 62.91 39.3186Z" fill="#472B29"/>
<path d="M47.1823 51.5073C49.571 51.5073 51.5073 49.5709 51.5073 47.1822C51.5073 44.7936 49.571 42.8572 47.1823 42.8572C44.7936 42.8572 42.8572 44.7936 42.8572 47.1822C42.8572 49.5709 44.7936 51.5073 47.1823 51.5073Z" fill="#FFA578"/>
<path d="M47.1826 43.7746C49.0621 43.7746 50.5903 45.3041 50.5903 47.1822C50.5903 49.0603 49.0621 50.5898 47.1826 50.5898C45.3032 50.5898 43.775 49.0603 43.775 47.1822C43.775 45.3041 45.3032 43.7746 47.1826 43.7746ZM47.1826 41.9397C44.2875 41.9397 41.9402 44.287 41.9402 47.1822C41.9402 50.0774 44.2875 52.4247 47.1826 52.4247C50.0778 52.4247 52.4251 50.0774 52.4251 47.1822C52.4251 44.287 50.0778 41.9397 47.1826 41.9397Z" fill="#472B29"/>
<path d="M71.4291 81.3673C71.2482 81.3673 71.1014 81.2205 71.1014 81.0396V74.6582C71.1014 74.4774 71.2482 74.3306 71.4291 74.3306C71.6099 74.3306 71.7567 74.4774 71.7567 74.6582V81.0396C71.7567 81.2205 71.6099 81.3673 71.4291 81.3673Z" fill="#472B29"/>
<path d="M71.678 72.9386C71.6518 72.9386 71.6256 72.936 71.5994 72.9294C71.4237 72.8862 71.3163 72.7079 71.3595 72.5323C71.5037 71.9491 71.7108 71.3777 71.9742 70.8338C73.4355 67.8115 76.547 65.8586 79.9008 65.8586H79.9939C80.1748 65.8586 80.3216 66.0054 80.3216 66.1863C80.3216 66.3672 80.1748 66.514 79.9939 66.514H79.9008C76.796 66.514 73.9165 68.3213 72.564 71.1182C72.3202 71.6214 72.1288 72.1509 71.9952 72.6896C71.9585 72.839 71.8248 72.9386 71.678 72.9386Z" fill="#472B29"/>
<path d="M71.4291 92.7265C71.2482 92.7265 71.1014 92.5797 71.1014 92.3988V83.771C71.1014 83.5901 71.2482 83.4434 71.4291 83.4434C71.6099 83.4434 71.7567 83.5901 71.7567 83.771V92.3988C71.7567 92.5797 71.6099 92.7265 71.4291 92.7265Z" fill="#472B29"/>
<path d="M59.0605 66.9308C59.0054 66.9308 58.9517 66.9177 58.9006 66.8902C58.742 66.8023 58.6857 66.6031 58.7735 66.4445C59.8731 64.4668 61.9596 63.2388 64.2191 63.2388C64.4 63.2388 64.5468 63.3856 64.5468 63.5664C64.5468 63.7473 64.4 63.8941 64.2191 63.8941C62.1968 63.8941 60.3292 64.9937 59.3462 66.763C59.2872 66.8692 59.1758 66.9308 59.0605 66.9308Z" fill="#472B29"/>
<path d="M58.3227 82.2415C58.1419 82.2415 57.9951 82.0947 57.9951 81.9138V69.4629C57.9951 69.282 58.1419 69.1353 58.3227 69.1353C58.5036 69.1353 58.6504 69.282 58.6504 69.4629V81.9138C58.6504 82.0947 58.5036 82.2415 58.3227 82.2415Z" fill="#472B29"/>
<path d="M43.906 75.6882C43.7252 75.6882 43.5784 75.5414 43.5784 75.3606V67.8245C43.5784 67.6436 43.7252 67.4968 43.906 67.4968C44.0869 67.4968 44.2337 67.6436 44.2337 67.8245V75.3606C44.2337 75.5414 44.0869 75.6882 43.906 75.6882Z" fill="#472B29"/>
<path d="M43.906 65.8587C43.7252 65.8587 43.5784 65.7119 43.5784 65.5311C43.5784 62.8207 45.7828 60.6162 48.4932 60.6162C48.6741 60.6162 48.8209 60.763 48.8209 60.9439C48.8209 61.1247 48.6741 61.2715 48.4932 61.2715C46.1446 61.2715 44.2337 63.1824 44.2337 65.5311C44.2337 65.7119 44.0869 65.8587 43.906 65.8587Z" fill="#472B29"/>
<defs>
<filter id="filter0_d" x="2.15936" y="11.9244" width="123.532" height="110.426" filterUnits="userSpaceOnUse" color-interpolation-filters="sRGB">
<feFlood flood-opacity="0" result="BackgroundImageFix"/>
<feColorMatrix in="SourceAlpha" type="matrix" values="0 0 0 0 0 0 0 0 0 0 0 0 0 0 0 0 0 0 127 0"/>
<feOffset dx="-1.60607" dy="1.60607"/>
<feGaussianBlur stdDeviation="4.01517"/>
<feColorMatrix type="matrix" values="0 0 0 0 0 0 0 0 0 0 0 0 0 0 0 0 0 0 0.2 0"/>
<feBlend mode="normal" in2="BackgroundImageFix" result="effect1_dropShadow"/>
<feBlend mode="normal" in="SourceGraphic" in2="effect1_dropShadow" result="shape"/>
</filter>
</defs>
</svg>
