<svg width="133" height="133" viewBox="0 0 133 133" fill="none" xmlns="http://www.w3.org/2000/svg">
<g clip-path="url(#clip0)">
<g filter="url(#filter0_d)">
<path d="M115.315 74.3258C115.714 73.5065 116.068 72.6446 116.374 71.7416C119.876 61.4075 114.58 49.0278 103.429 46.0393C102.224 30.8986 91.5838 20.5126 79.5673 18.7397C65.8138 16.7115 53.2147 25.4482 49.0225 39.3348C43.9698 37.5446 39.0462 37.7627 34.4058 40.4746C32.3004 41.4481 30.3746 42.8846 28.6469 44.7745C26.1106 47.5489 24.4614 51.0508 23.7897 54.7428C22.7949 54.8998 21.8173 55.0567 20.8957 55.3866C15.5225 57.3137 12.1323 61.2798 11.2026 67.2541C10.6241 70.9742 11.7918 74.6849 12.4435 76.1838C15.0171 82.1089 20.9848 85.4672 27.0482 84.5787C27.3501 84.5348 27.789 84.6705 28.0484 84.8886C28.3689 94.3582 32.9667 102.733 39.8641 107.517C50.931 115.194 65.17 112.829 74.1529 102.302C78.0019 106.239 82.5824 108.152 87.9636 107.457C93.3142 106.767 97.4691 103.815 100.5 99.0132C101.901 99.3896 103.228 99.9323 104.601 100.083C109.976 100.67 114.306 98.5078 117.544 93.6985C117.654 93.5336 117.814 93.4073 117.951 93.2623C118.414 92.201 118.877 91.1396 119.34 90.0783C119.546 88.4676 119.91 86.8557 119.929 85.2477C119.981 80.9186 118.21 76.9725 115.315 74.3258Z" fill="#D1FAFF"/>
</g>
<path d="M104.442 90.5237C104.442 90.5237 119.991 90.5237 120.086 90.5237C123.677 90.5237 126.587 87.6123 126.587 84.0213C126.587 80.8892 124.371 78.2744 121.421 77.6586C121.456 77.3846 121.478 77.1066 121.478 76.8234C121.478 73.1047 118.463 70.0896 114.745 70.0896C112.549 70.0896 110.604 71.1456 109.375 72.7722C109.062 68.6319 105.363 65.4386 101.036 65.9679C97.8722 66.3549 95.2561 68.8008 94.6736 71.9343C94.4874 72.9398 94.506 73.9146 94.6922 74.8297C93.8436 73.916 92.636 73.3414 91.2914 73.3414C88.8309 73.3414 86.8213 75.2579 86.663 77.6785C85.5458 77.4312 84.3302 77.4471 83.0494 77.9286C80.6022 78.8476 78.8599 81.1512 78.7575 83.7633C78.6125 87.4727 81.5771 90.5263 85.2545 90.5263C85.5338 90.5263 86.5153 90.5263 86.7414 90.5263H100.242" fill="#FDFCEF"/>
<path d="M120.086 91.1888H104.442C104.075 91.1888 103.777 90.8909 103.777 90.5238C103.777 90.1568 104.075 89.8588 104.442 89.8588H120.086C123.304 89.8588 125.923 87.2401 125.923 84.0215C125.923 81.2737 123.973 78.8704 121.287 78.3091C120.947 78.2386 120.72 77.9208 120.763 77.5776C120.793 77.3289 120.814 77.0789 120.814 76.8235C120.814 73.4772 118.092 70.7547 114.746 70.7547C112.833 70.7547 111.068 71.6365 109.907 73.1727C109.741 73.3934 109.456 73.4905 109.189 73.4094C108.924 73.3309 108.734 73.0982 108.714 72.8229C108.576 70.9915 107.678 69.2704 106.252 68.1027C104.813 66.923 102.99 66.3976 101.119 66.6277C98.2377 66.9802 95.857 69.2119 95.329 72.0555C95.1641 72.9426 95.1694 73.831 95.3463 74.6968C95.4048 74.9894 95.2639 75.2847 94.9979 75.4204C94.7319 75.556 94.4087 75.5002 94.2065 75.282C93.4418 74.4588 92.407 74.0066 91.2938 74.0066C89.207 74.0066 87.4661 75.6385 87.3291 77.7226C87.3158 77.9168 87.2187 78.095 87.0644 78.2107C86.9088 78.3264 86.708 78.369 86.5218 78.3277C85.4019 78.079 84.3432 78.1522 83.2859 78.5498C81.0661 79.3824 79.5153 81.4865 79.4249 83.7874C79.3624 85.3927 79.9396 86.9129 81.0501 88.0673C82.1607 89.2218 83.6543 89.8588 85.2569 89.8588H100.245C100.612 89.8588 100.91 90.1568 100.91 90.5238C100.91 90.8909 100.612 91.1888 100.245 91.1888H85.2556C83.2885 91.1888 81.4545 90.4081 80.0899 88.989C78.7266 87.5712 78.0177 85.7052 78.0949 83.7355C78.2053 80.9079 80.1032 78.3237 82.8164 77.305C83.8817 76.906 84.9816 76.7743 86.0988 76.9073C86.6002 74.4827 88.7562 72.6752 91.2925 72.6752C92.2022 72.6752 93.0933 72.9146 93.878 73.3535C93.878 72.8415 93.9246 72.3268 94.019 71.8121C94.6534 68.4046 97.5049 65.73 100.955 65.307C103.185 65.0344 105.369 65.6608 107.093 67.0733C108.428 68.1679 109.375 69.6681 109.803 71.32C111.149 70.1017 112.888 69.4247 114.743 69.4247C118.822 69.4247 122.142 72.7444 122.142 76.8235C122.142 76.9339 122.139 77.0443 122.133 77.1547C125.13 78.0498 127.25 80.8481 127.25 84.0228C127.252 87.9729 124.037 91.1888 120.086 91.1888Z" fill="#472B29"/>
<path d="M100.674 76.2009C98.2698 76.0426 96.199 77.7038 96.0514 79.9102C96.0328 80.1842 96.0448 80.4542 96.0847 80.7162C95.6205 80.1922 94.9342 79.8371 94.1455 79.7852C92.7025 79.6908 91.4563 80.6431 91.2754 81.9398C91.0134 81.868 90.7394 81.8201 90.4561 81.8015C88.352 81.6632 86.5406 83.1169 86.4102 85.048" fill="#FDFCEF"/>
<path d="M86.4102 85.3794C86.4022 85.3794 86.3943 85.3794 86.3876 85.3794C86.2041 85.3675 86.0657 85.2092 86.0777 85.0256C86.22 82.9163 88.1791 81.3243 90.4773 81.4706C90.6569 81.4825 90.8378 81.5051 91.02 81.541C91.3844 80.2536 92.6931 79.3652 94.1654 79.4556C94.732 79.4928 95.2614 79.6697 95.7136 79.9637C95.7136 79.9384 95.7162 79.9145 95.7175 79.8905C95.8785 77.5045 98.1049 75.7156 100.694 75.8712C100.878 75.8832 101.016 76.0415 101.004 76.225C100.992 76.4072 100.849 76.5456 100.651 76.5349C98.4374 76.3873 96.5169 77.9155 96.3812 79.9357C96.3653 80.1805 96.3759 80.4278 96.4118 80.6699C96.4344 80.8149 96.3573 80.9585 96.2243 81.021C96.0913 81.0835 95.9317 81.0503 95.8346 80.9399C95.4116 80.4624 94.7879 80.1632 94.1215 80.1193C92.8713 80.0368 91.7608 80.8588 91.6025 81.9879C91.5892 82.0824 91.536 82.1661 91.4562 82.2193C91.3764 82.2725 91.2793 82.2872 91.1849 82.2632C90.9335 82.1941 90.6795 82.1515 90.4321 82.1356C88.5209 81.9972 86.8571 83.3259 86.7401 85.0722C86.7307 85.2451 86.5844 85.3794 86.4102 85.3794Z" fill="#472B29"/>
<path d="M122.718 78.4207C120.458 77.3554 117.845 78.1095 116.881 80.1058C116.761 80.3532 116.672 80.6099 116.613 80.8692" fill="#FDFCEF"/>
<path d="M116.613 81.2003C116.589 81.2003 116.564 81.1977 116.539 81.1924C116.359 81.1511 116.248 80.9729 116.289 80.7947C116.354 80.5061 116.454 80.2254 116.581 79.9608C117.623 77.8035 120.441 76.9776 122.859 78.1201C123.025 78.1985 123.097 78.3967 123.019 78.5629C122.94 78.7305 122.741 78.7997 122.576 78.7225C120.484 77.737 118.062 78.4206 117.18 80.2507C117.073 80.4702 116.991 80.7029 116.936 80.9436C116.903 81.0966 116.766 81.2003 116.613 81.2003Z" fill="#472B29"/>
<path d="M31.359 84.8394H18.019C17.652 84.8394 17.354 84.5414 17.354 84.1744C17.354 83.8073 17.652 83.5094 18.019 83.5094H31.359C31.726 83.5094 32.024 83.8073 32.024 84.1744C32.024 84.5414 31.7274 84.8394 31.359 84.8394ZM35.192 84.8394H33.2688C32.9018 84.8394 32.6038 84.5414 32.6038 84.1744C32.6038 83.8073 32.9018 83.5094 33.2688 83.5094H35.192C35.5591 83.5094 35.857 83.8073 35.857 84.1744C35.857 84.5414 35.5591 84.8394 35.192 84.8394ZM40.5838 84.8394H37.199C36.8319 84.8394 36.534 84.5414 36.534 84.1744C36.534 83.8073 36.8319 83.5094 37.199 83.5094H40.5838C40.9509 83.5094 41.2488 83.8073 41.2488 84.1744C41.2488 84.5414 40.9509 84.8394 40.5838 84.8394ZM40.5838 87.3211H27.7946C27.4275 87.3211 27.1296 87.0232 27.1296 86.6561C27.1296 86.2891 27.4275 85.9911 27.7946 85.9911H40.5838C40.9509 85.9911 41.2488 86.2891 41.2488 86.6561C41.2488 87.0232 40.9509 87.3211 40.5838 87.3211ZM25.491 87.3211H24.7196C24.3525 87.3211 24.0546 87.0232 24.0546 86.6561C24.0546 86.2891 24.3525 85.9911 24.7196 85.9911H25.491C25.8581 85.9911 26.156 86.2891 26.156 86.6561C26.156 87.0232 25.8594 87.3211 25.491 87.3211ZM22.3296 87.3211H20.3931C20.026 87.3211 19.7281 87.0232 19.7281 86.6561C19.7281 86.2891 20.026 85.9911 20.3931 85.9911H22.3296C22.6967 85.9911 22.9946 86.2891 22.9946 86.6561C22.9946 87.0232 22.698 87.3211 22.3296 87.3211ZM34.4805 82.3602H27.7946C27.4275 82.3602 27.1296 82.0623 27.1296 81.6952C27.1296 81.3282 27.4275 81.0302 27.7946 81.0302H34.4805C34.8475 81.0302 35.1455 81.3282 35.1455 81.6952C35.1455 82.0623 34.8475 82.3602 34.4805 82.3602ZM34.4805 79.8798H32.8087C32.4416 79.8798 32.1437 79.5819 32.1437 79.2148C32.1437 78.8477 32.4416 78.5498 32.8087 78.5498H34.4805C34.8475 78.5498 35.1455 78.8477 35.1455 79.2148C35.1455 79.5819 34.8475 79.8798 34.4805 79.8798ZM30.1327 89.8003H27.7932C27.4261 89.8003 27.1282 89.5023 27.1282 89.1353C27.1282 88.7682 27.4261 88.4703 27.7932 88.4703H30.1327C30.4998 88.4703 30.7977 88.7682 30.7977 89.1353C30.7977 89.5023 30.5011 89.8003 30.1327 89.8003Z" fill="white"/>
<path d="M51.2544 70.7295C53.7588 70.7295 55.932 70.7295 55.9626 70.7295C58.7689 70.7295 61.0445 68.503 61.0445 65.7566C61.0445 63.3599 59.3128 61.3609 57.0079 60.8888C57.0345 60.6786 57.0532 60.4672 57.0532 60.2504C57.0532 57.4055 54.6964 55.0993 51.7904 55.0993C50.0747 55.0993 48.5545 55.9066 47.5942 57.1515C47.3482 53.9848 44.4581 51.5415 41.0772 51.9472C38.6047 52.2438 36.5592 54.1138 36.1043 56.5104C35.958 57.2792 35.974 58.0253 36.119 58.7249C35.4566 58.0266 34.5123 57.5864 33.4616 57.5864C31.5384 57.5864 29.9677 59.0521 29.844 60.9034C28.9702 60.7146 28.0206 60.7265 27.0204 61.0936C25.1079 61.7959 23.746 63.5581 23.6662 65.5571C23.5531 68.394 25.87 70.7295 28.7441 70.7295C28.9622 70.7295 29.7296 70.7295 29.9065 70.7295H40.4588H51.2544ZM42.64 70.7295H43.1188H42.64Z" fill="#FDFCEF"/>
<path d="M55.9625 71.3943H51.253C50.8859 71.3943 50.588 71.0964 50.588 70.7293C50.588 70.3622 50.8859 70.0643 51.253 70.0643H55.9625C58.3977 70.0643 60.3781 68.1318 60.3781 65.7564C60.3781 63.7295 58.9044 61.9566 56.8735 61.5403C56.5331 61.4712 56.303 61.1507 56.3469 60.8049C56.3708 60.6226 56.3854 60.4378 56.3854 60.2502C56.3854 57.7764 54.3226 55.7642 51.7876 55.7642C50.3353 55.7642 48.9973 56.4172 48.1181 57.557C47.9492 57.7751 47.6659 57.8656 47.4013 57.7871C47.1379 57.7086 46.9504 57.4759 46.9291 57.2019C46.8241 55.8466 46.1777 54.6164 45.107 53.7386C44.0058 52.8355 42.6013 52.4325 41.1529 52.6054C38.9638 52.8674 37.155 54.5233 36.7546 56.6326C36.6296 57.2897 36.6336 57.9467 36.7679 58.5891C36.8278 58.8803 36.6881 59.1756 36.4248 59.3126C36.1614 59.4509 35.8396 59.3964 35.6334 59.1809C35.0642 58.5798 34.2915 58.2499 33.4576 58.2499C31.9028 58.2499 30.6047 59.435 30.5036 60.9458C30.4903 61.1387 30.3946 61.3169 30.2403 61.4326C30.086 61.5483 29.8905 61.5909 29.699 61.551C28.8504 61.3661 28.0484 61.4206 27.2451 61.7159C25.5667 62.333 24.3936 63.8865 24.3258 65.5809C24.2792 66.7446 24.7022 67.8525 25.5161 68.6997C26.3607 69.5789 27.5058 70.0617 28.7387 70.0617H40.4534C40.8204 70.0617 41.1184 70.3596 41.1184 70.7267C41.1184 71.0937 40.8204 71.3917 40.4534 71.3917H28.7414C27.1653 71.3917 25.6411 70.7466 24.5585 69.6201C23.4919 68.5095 22.9386 67.0559 22.9998 65.5277C23.0875 63.3013 24.6104 61.2677 26.7889 60.467C27.6002 60.1691 28.4381 60.0614 29.2893 60.1412C29.7469 58.2845 31.4559 56.9173 33.4589 56.9173C34.1146 56.9173 34.7583 57.0676 35.3395 57.3469C35.3515 57.025 35.3887 56.7031 35.4499 56.3813C35.9566 53.7093 38.2389 51.6119 40.996 51.2821C42.8048 51.0679 44.567 51.572 45.9516 52.7078C46.9464 53.5231 47.6513 54.5818 48.0078 55.7695C49.0598 54.9076 50.3831 54.4302 51.7889 54.4302C55.0581 54.4302 57.7168 57.0383 57.7168 60.2463C57.7168 60.2915 57.7168 60.3367 57.7154 60.3819C60.0615 61.1201 61.7094 63.292 61.7094 65.7525C61.7094 68.8647 59.1319 71.3943 55.9625 71.3943ZM43.1173 71.3943H42.6399C42.2728 71.3943 41.9749 71.0964 41.9749 70.7293C41.9749 70.3622 42.2728 70.0643 42.6399 70.0643H43.1173C43.4844 70.0643 43.7823 70.3622 43.7823 70.7293C43.7823 71.0964 43.4858 71.3943 43.1173 71.3943Z" fill="#472B29"/>
<path d="M53.6909 63.6751C53.667 63.6751 53.6417 63.6724 53.6178 63.6671C53.4382 63.6272 53.3265 63.4476 53.3677 63.2694C53.4183 63.0473 53.4941 62.8345 53.5925 62.6323C54.3958 61.0044 56.6182 60.4046 58.5427 61.293C58.709 61.3702 58.7821 61.5683 58.705 61.7346C58.6265 61.9008 58.431 61.974 58.2634 61.8968C56.6661 61.1587 54.8347 61.6202 54.1897 62.9263C54.1125 63.0805 54.0553 63.2455 54.0167 63.4144C53.9808 63.5713 53.8439 63.6751 53.6909 63.6751Z" fill="#472B29"/>
<path d="M46.8308 71.3945H45.3585C44.9914 71.3945 44.6935 71.0965 44.6935 70.7295C44.6935 70.3624 44.9914 70.0645 45.3585 70.0645H46.8308C47.1979 70.0645 47.4958 70.3624 47.4958 70.7295C47.4958 71.0965 47.1979 71.3945 46.8308 71.3945Z" fill="#472B29"/>
<path d="M92.4964 28.7852H79.1565C78.7894 28.7852 78.4915 28.4873 78.4915 28.1202C78.4915 27.7531 78.7894 27.4552 79.1565 27.4552H92.4964C92.8635 27.4552 93.1614 27.7531 93.1614 28.1202C93.1614 28.4873 92.8635 28.7852 92.4964 28.7852ZM96.3281 28.7852H94.4049C94.0379 28.7852 93.7399 28.4873 93.7399 28.1202C93.7399 27.7531 94.0379 27.4552 94.4049 27.4552H96.3281C96.6952 27.4552 96.9931 27.7531 96.9931 28.1202C96.9931 28.4873 96.6965 28.7852 96.3281 28.7852ZM101.721 28.7852H98.3351C97.968 28.7852 97.6701 28.4873 97.6701 28.1202C97.6701 27.7531 97.968 27.4552 98.3351 27.4552H101.721C102.088 27.4552 102.386 27.7531 102.386 28.1202C102.386 28.4873 102.088 28.7852 101.721 28.7852ZM99.0267 23.8256H86.2374C85.8703 23.8256 85.5724 23.5277 85.5724 23.1606C85.5724 22.7935 85.8703 22.4956 86.2374 22.4956H99.028C99.3951 22.4956 99.693 22.7935 99.693 23.1606C99.693 23.5277 99.3951 23.8256 99.0267 23.8256ZM83.9339 23.8256H83.1625C82.7954 23.8256 82.4975 23.5277 82.4975 23.1606C82.4975 22.7935 82.7954 22.4956 83.1625 22.4956H83.9339C84.3009 22.4956 84.5989 22.7935 84.5989 23.1606C84.5989 23.5277 84.3009 23.8256 83.9339 23.8256ZM80.7724 23.8256H78.836C78.4689 23.8256 78.171 23.5277 78.171 23.1606C78.171 22.7935 78.4689 22.4956 78.836 22.4956H80.7724C81.1395 22.4956 81.4374 22.7935 81.4374 23.1606C81.4374 23.5277 81.1409 23.8256 80.7724 23.8256ZM95.6179 26.3047H88.932C88.5649 26.3047 88.267 26.0068 88.267 25.6397C88.267 25.2726 88.5649 24.9747 88.932 24.9747H95.6179C95.985 24.9747 96.2829 25.2726 96.2829 25.6397C96.2829 26.0068 95.985 26.3047 95.6179 26.3047Z" fill="white"/>
<path d="M95.6177 23.8256H93.9459C93.5788 23.8256 93.2809 23.5277 93.2809 23.1606C93.2809 22.7935 93.5788 22.4956 93.9459 22.4956H95.6177C95.9848 22.4956 96.2827 22.7935 96.2827 23.1606C96.2827 23.5277 95.9848 23.8256 95.6177 23.8256ZM86.9953 26.3047H84.6559C84.2888 26.3047 83.9909 26.0068 83.9909 25.6397C83.9909 25.2726 84.2888 24.9747 84.6559 24.9747H86.9953C87.3624 24.9747 87.6603 25.2726 87.6603 25.6397C87.6603 26.0068 87.3638 26.3047 86.9953 26.3047Z" fill="white"/>
<path d="M52.8504 36.2664H51.7931C47.7885 36.2664 44.5127 39.469 44.5127 43.3819V93.5229C44.5127 97.4371 47.7885 100.638 51.7931 100.638H88.0875C92.0921 100.638 95.3679 97.4357 95.3679 93.5229V52.765C88.803 46.3491 85.0524 42.6823 78.4875 36.2664H62.8534" fill="#EDF7F5"/>
<path d="M88.0872 101.571H51.7929C47.2656 101.571 43.5815 97.9612 43.5815 93.5243V43.3819C43.5815 38.9451 47.2656 35.3354 51.7929 35.3354H52.8489C53.3636 35.3354 53.7799 35.7517 53.7799 36.2664C53.7799 36.7812 53.3636 37.1974 52.8489 37.1974H51.7929C48.2923 37.1974 45.4448 39.9705 45.4448 43.3806V93.5229C45.4448 96.9331 48.2923 99.7075 51.7929 99.7075H88.0872C91.5878 99.7075 94.4353 96.9331 94.4353 93.5229V53.1561L78.1083 37.1974H62.8545C62.3398 37.1974 61.9235 36.7812 61.9235 36.2664C61.9235 35.7517 62.3398 35.3354 62.8545 35.3354H78.4873C78.7307 35.3354 78.9634 35.4312 79.1377 35.6014L96.0167 52.1001C96.1963 52.2757 96.2973 52.5151 96.2973 52.7651V93.5243C96.2987 97.9598 92.6146 101.571 88.0872 101.571Z" fill="#472B29"/>
<path d="M78.2772 36.6733V45.6242C78.2772 49.6648 81.4639 52.9698 85.3595 52.9698H94.7759" fill="#C5CCE4"/>
<path d="M94.776 53.47H85.3596C81.1794 53.47 77.7786 49.9508 77.7786 45.6257V36.6748C77.7786 36.3995 78.002 36.176 78.2773 36.176C78.5526 36.176 78.7761 36.3995 78.7761 36.6748V45.6257C78.7761 49.4002 81.73 52.4725 85.3596 52.4725H94.7773C95.0526 52.4725 95.2761 52.696 95.2761 52.9713C95.2761 53.2466 95.0526 53.47 94.776 53.47ZM90.782 68.1359C90.5067 68.1359 90.2833 67.9125 90.2833 67.6372V65.1926C90.2833 64.9173 90.5067 64.6939 90.782 64.6939C91.0573 64.6939 91.2808 64.9173 91.2808 65.1926V67.6372C91.2808 67.9125 91.0573 68.1359 90.782 68.1359ZM90.782 74.6556C90.5067 74.6556 90.2833 74.4321 90.2833 74.1568V69.2664C90.2833 68.9911 90.5067 68.7677 90.782 68.7677C91.0573 68.7677 91.2808 68.9911 91.2808 69.2664V74.1555C91.2808 74.4321 91.0573 74.6556 90.782 74.6556ZM84.8143 96.6564H55.0662C51.5004 96.6564 48.5997 93.8049 48.5997 90.299V47.3866C48.5997 45.2772 49.669 43.3062 51.4592 42.1171C51.688 41.9655 51.9979 42.0267 52.1508 42.2568C52.3024 42.4855 52.2399 42.7954 52.0112 42.9484C50.499 43.9525 49.5972 45.6124 49.5972 47.3866V90.299C49.5972 93.2543 52.0511 95.6589 55.0662 95.6589H84.8143C87.8294 95.6589 90.2833 93.2543 90.2833 90.299V75.7861C90.2833 75.5108 90.5067 75.2873 90.782 75.2873C91.0573 75.2873 91.2808 75.5108 91.2808 75.7861V90.299C91.2808 93.8049 88.38 96.6564 84.8143 96.6564Z" fill="#472B29"/>
<path d="M61.7043 37.8957L61.6285 47.3174C61.6285 49.1182 60.0245 50.5254 58.3979 50.5254C56.7714 50.5254 55.0344 49.0916 55.0344 47.2908L55.0596 37.3278C55.0596 36.2638 56.2527 35.3022 57.2488 35.3022C58.245 35.3022 59.2039 36.2385 59.2039 37.3025V45.8371C59.2039 45.8371 58.8063 46.6524 58.3833 46.6524C57.9604 46.6524 57.4297 46.3625 57.5361 45.9143V37.893H56.7022L56.6743 45.7613C56.6743 46.8852 57.2914 47.3906 58.4033 47.3906C59.5151 47.3906 60.0365 46.8094 60.0365 45.6842V37.373C60.0365 35.523 58.902 34.5215 57.1717 34.5215C55.4414 34.5215 54.2005 35.5496 54.2005 37.3996L54.2271 47.2669C54.2271 49.7433 55.9973 51.2649 58.3687 51.2649C60.7401 51.2649 62.5369 49.871 62.5369 47.3946V37.897H61.7043V37.8957ZM72.4414 68.9512H53.2668C52.9915 68.9512 52.7681 68.7278 52.7681 68.4524C52.7681 68.1771 52.9915 67.9537 53.2668 67.9537H72.4414C72.7167 67.9537 72.9402 68.1771 72.9402 68.4524C72.9402 68.7278 72.7167 68.9512 72.4414 68.9512ZM64.9376 74.6556H53.2668C52.9915 74.6556 52.7681 74.4321 52.7681 74.1568C52.7681 73.8815 52.9915 73.6581 53.2668 73.6581H64.9376C65.2129 73.6581 65.4363 73.8815 65.4363 74.1568C65.4363 74.4321 65.2129 74.6556 64.9376 74.6556ZM86.6139 74.6556H66.6054C66.3301 74.6556 66.1066 74.4321 66.1066 74.1568C66.1066 73.8815 66.3301 73.6581 66.6054 73.6581H86.6126C86.8879 73.6581 87.1113 73.8815 87.1113 74.1568C87.1113 74.4321 86.8892 74.6556 86.6139 74.6556Z" fill="#472B29"/>
<path d="M79.11 80.3586H69.9397C69.6644 80.3586 69.4409 80.1351 69.4409 79.8598C69.4409 79.5845 69.6644 79.3611 69.9397 79.3611H79.11C79.3853 79.3611 79.6088 79.5845 79.6088 79.8598C79.6088 80.1351 79.3853 80.3586 79.11 80.3586ZM87.4478 80.3586H80.7779C80.5025 80.3586 80.2791 80.1351 80.2791 79.8598C80.2791 79.5845 80.5025 79.3611 80.7779 79.3611H87.4478C87.7231 79.3611 87.9466 79.5845 87.9466 79.8598C87.9466 80.1351 87.7231 80.3586 87.4478 80.3586ZM68.2732 80.3586H53.2668C52.9915 80.3586 52.7681 80.1351 52.7681 79.8598C52.7681 79.5845 52.9915 79.3611 53.2668 79.3611H68.2732C68.5485 79.3611 68.7719 79.5845 68.7719 79.8598C68.7719 80.1351 68.5485 80.3586 68.2732 80.3586Z" fill="#472B29"/>
<path d="M86.6139 86.0629H75.7771C75.5017 86.0629 75.2783 85.8395 75.2783 85.5642C75.2783 85.2889 75.5017 85.0654 75.7771 85.0654H86.6139C86.8892 85.0654 87.1127 85.2889 87.1127 85.5642C87.1127 85.8395 86.8892 86.0629 86.6139 86.0629ZM73.274 86.0629H53.2668C52.9915 86.0629 52.7681 85.8395 52.7681 85.5642C52.7681 85.2889 52.9915 85.0654 53.2668 85.0654H73.274C73.5493 85.0654 73.7727 85.2889 73.7727 85.5642C73.7727 85.8395 73.5506 86.0629 73.274 86.0629Z" fill="#472B29"/>
<path d="M66.637 104.176C66.4668 104.176 66.2966 104.111 66.1662 103.982C65.9069 103.723 65.9069 103.301 66.1662 103.042L69.8703 99.3378C70.1296 99.0785 70.5512 99.0785 70.8106 99.3378C71.0699 99.5972 71.0699 100.019 70.8106 100.278L67.1065 103.982C66.9775 104.111 66.8073 104.176 66.637 104.176Z" fill="#472B29"/>
<path d="M50.8498 119.473L50.6756 119.298C49.2684 117.891 49.2684 115.588 50.6756 114.181L61.4326 103.424C62.8398 102.016 65.1433 102.016 66.5505 103.424L66.7247 103.598C68.1318 105.005 68.1318 107.308 66.7247 108.716L55.9677 119.473C54.5605 120.88 52.257 120.88 50.8498 119.473Z" fill="#FFA578"/>
<path d="M53.4075 121.192C52.261 121.192 51.1851 120.749 50.3791 119.942L50.2062 119.768C49.4002 118.963 48.9573 117.886 48.9573 116.739C48.9573 115.593 49.4002 114.517 50.2075 113.711L60.9632 102.954C62.6337 101.284 65.3509 101.284 67.0214 102.954L67.1943 103.127C68.0016 103.933 68.4445 105.01 68.4445 106.157C68.4445 107.304 68.0016 108.38 67.1943 109.186L56.4372 119.943C55.6312 120.749 54.5553 121.192 53.4075 121.192ZM51.3207 119.003C52.4738 120.154 54.3465 120.155 55.4982 119.003L66.2553 108.246C67.4071 107.094 67.4071 105.22 66.2553 104.069L66.0824 103.896C64.9306 102.744 63.0566 102.743 61.9035 103.896L51.1478 114.653C49.996 115.804 49.996 117.678 51.1478 118.83L51.3207 119.003Z" fill="#472B29"/>
<path d="M66.2434 103.89C65.0158 102.663 63.0859 102.582 61.9568 103.711L61.7519 103.916L62.1988 104.362L66.2181 108.382L66.4229 108.177C67.5521 107.048 67.4723 105.118 66.2434 103.89Z" fill="#D97EED"/>
<path d="M66.2259 109.418C66.0982 109.418 65.9705 109.369 65.8734 109.271L61.1107 104.509C60.9165 104.315 60.9165 103.998 61.1107 103.804C61.3049 103.61 61.6214 103.61 61.8156 103.804L66.5783 108.567C66.7725 108.761 66.7725 109.077 66.5783 109.271C66.4812 109.37 66.3536 109.418 66.2259 109.418Z" fill="#472B29"/>
<path opacity="0.74" d="M72.7549 78.8701C70.2989 81.3262 68.9192 84.6574 68.9192 88.1308C68.9193 91.6042 70.2991 94.9353 72.7553 97.3913C75.2114 99.8474 78.5425 101.227 82.016 101.227C85.4894 101.227 88.8205 99.8471 91.2765 97.391C93.7325 94.9349 95.1123 91.6037 95.1122 88.1303C95.1122 84.6569 93.7323 81.3258 91.2762 78.8697C88.8201 76.4137 85.4889 75.034 82.0155 75.034C78.5421 75.0341 75.211 76.414 72.7549 78.8701Z" fill="#4990EE"/>
<path d="M93.6242 76.5243C87.1949 70.0951 76.7704 70.0951 70.3412 76.5243C63.912 82.9535 63.912 93.3781 70.3412 99.8073C76.7704 106.236 87.1949 106.236 93.6242 99.8073C100.053 93.3781 100.053 82.9535 93.6242 76.5243ZM91.2435 97.4253C86.1296 102.539 77.8371 102.539 72.7232 97.4253C67.6094 92.3114 67.6094 84.0189 72.7232 78.905C77.8371 73.7912 86.1296 73.7912 91.2435 78.905C96.3573 84.0202 96.3573 92.3114 91.2435 97.4253Z" fill="#FDFCEF"/>
<path d="M81.9824 105.286C77.5961 105.286 73.2098 103.616 69.8715 100.277C66.6356 97.0422 64.8547 92.7397 64.8547 88.1658C64.8547 83.592 66.6369 79.2894 69.8715 76.0548C76.5494 69.3769 87.4155 69.3769 94.0947 76.0548C100.773 82.7328 100.773 93.5989 94.0947 100.278C90.7565 103.616 86.3688 105.286 81.9824 105.286ZM81.9824 72.3747C77.9366 72.3747 73.8907 73.9149 70.8118 76.9938C67.8273 79.9783 66.1847 83.9457 66.1847 88.1645C66.1847 92.3833 67.8286 96.352 70.8118 99.3352C76.9697 105.493 86.9939 105.494 93.1544 99.3352C99.3137 93.1759 99.3137 83.153 93.1544 76.9925C90.0742 73.9149 86.0283 72.3747 81.9824 72.3747ZM81.9824 101.921C78.4579 101.921 74.9348 100.579 72.2522 97.8961C66.8869 92.5309 66.8869 83.8008 72.2522 78.4355C77.6174 73.0703 86.3475 73.069 91.7127 78.4355C97.0779 83.8008 97.0779 92.5322 91.7127 97.8961C89.0301 100.579 85.5069 101.921 81.9824 101.921ZM81.9824 75.7396C78.7984 75.7396 75.6157 76.9513 73.1925 79.3745C68.346 84.2224 68.346 92.1079 73.1925 96.9545C78.0403 101.802 85.9259 101.801 90.7724 96.9545C95.6189 92.1079 95.6189 84.221 90.7724 79.3745C88.3491 76.9526 85.1651 75.7396 81.9824 75.7396ZM52.5815 120.595C52.511 120.595 52.4458 120.55 52.4232 120.48L50.5905 114.787C50.5625 114.701 50.6104 114.606 50.6982 114.578C50.7846 114.552 50.8791 114.598 50.907 114.686L52.7397 120.378C52.7677 120.465 52.7198 120.559 52.632 120.587C52.6147 120.593 52.5988 120.595 52.5815 120.595ZM53.7412 120.199C53.6694 120.199 53.6029 120.152 53.5816 120.081L51.5055 113.106C51.4789 113.018 51.5294 112.925 51.6172 112.9C51.7077 112.873 51.7981 112.925 51.8234 113.012L53.8995 119.986C53.9261 120.074 53.8756 120.167 53.7878 120.192C53.7731 120.198 53.7572 120.199 53.7412 120.199ZM54.4408 117.749C54.369 117.749 54.3025 117.702 54.2812 117.631L52.5429 111.793C52.5163 111.705 52.5668 111.612 52.6546 111.587C52.7437 111.558 52.8355 111.611 52.8608 111.699L54.5991 117.536C54.6257 117.624 54.5751 117.717 54.4874 117.742C54.4727 117.746 54.4568 117.749 54.4408 117.749ZM55.1484 115.189C55.0765 115.189 55.01 115.142 54.9888 115.07L53.7638 110.955C53.7372 110.868 53.7878 110.774 53.8756 110.749C53.962 110.723 54.0564 110.773 54.0817 110.861L55.3066 114.976C55.3332 115.064 55.2827 115.157 55.1949 115.182C55.1803 115.187 55.1643 115.189 55.1484 115.189Z" fill="#472B29"/>
</g>
<defs>
<filter id="filter0_d" x="-0.603194" y="10.6818" width="128.3" height="112.998" filterUnits="userSpaceOnUse" color-interpolation-filters="sRGB">
<feFlood flood-opacity="0" result="BackgroundImageFix"/>
<feColorMatrix in="SourceAlpha" type="matrix" values="0 0 0 0 0 0 0 0 0 0 0 0 0 0 0 0 0 0 127 0"/>
<feOffset dx="-1.94161" dy="1.94161"/>
<feGaussianBlur stdDeviation="4.85401"/>
<feColorMatrix type="matrix" values="0 0 0 0 0 0 0 0 0 0 0 0 0 0 0 0 0 0 0.2 0"/>
<feBlend mode="normal" in2="BackgroundImageFix" result="effect1_dropShadow"/>
<feBlend mode="normal" in="SourceGraphic" in2="effect1_dropShadow" result="shape"/>
</filter>
<clipPath id="clip0">
<rect width="133" height="133" fill="white"/>
</clipPath>
</defs>
</svg>
