<svg width="134" height="134" viewBox="0 0 134 134" fill="none" xmlns="http://www.w3.org/2000/svg">
<g filter="url(#filter0_d)">
<path d="M118.421 74.221C118.821 73.4015 119.174 72.5395 119.48 71.6362C122.983 61.2994 117.686 48.9166 106.532 45.9273C105.326 30.7841 94.6829 20.3941 82.6646 18.6221C68.9076 16.5934 56.3053 25.3324 52.112 39.2224C47.0581 37.4318 42.1332 37.65 37.4916 40.3625C35.3857 41.3363 33.4593 42.7731 31.7312 44.6635C29.1943 47.4386 27.5447 50.9414 26.8728 54.6344C25.8777 54.7914 24.8999 54.9484 23.978 55.2783C18.6034 57.206 15.2124 61.173 14.2825 67.1489C13.7038 70.8699 14.8718 74.5815 15.5237 76.0808C18.0979 82.0075 24.0671 85.3666 30.1322 84.4779C30.4342 84.434 30.8732 84.5697 31.1326 84.7879C31.4532 94.2599 36.0522 102.637 42.9513 107.422C54.0211 115.101 68.2637 112.736 77.2488 102.206C81.0988 106.144 85.6805 108.057 91.063 107.362C96.415 106.672 100.571 103.719 103.603 98.9161C105.004 99.2926 106.331 99.8354 107.704 99.9857C113.082 100.574 117.448 98.4358 120.651 93.6001C121.878 91.7496 123.036 89.3509 123.036 85.1471C123.038 80.8155 121.318 76.8684 118.421 74.221Z" fill="#D1FAFF"/>
</g>
<path d="M102.597 65.402C102.597 65.402 118.15 65.402 118.245 65.402C121.836 65.402 124.747 62.4899 124.747 58.898C124.747 55.765 122.531 53.1496 119.58 52.5336C119.615 52.2596 119.637 51.9816 119.637 51.6982C119.637 47.9786 116.621 44.9627 112.902 44.9627C110.705 44.9627 108.761 46.019 107.531 47.646C107.217 43.5046 103.518 40.3105 99.1901 40.84C96.0252 41.2271 93.4084 43.6736 92.8257 46.8079C92.6395 47.8136 92.6581 48.7887 92.8444 49.704C91.9956 48.7901 90.7876 48.2154 89.4427 48.2154C86.9815 48.2154 84.9714 50.1324 84.8131 52.5536C83.6956 52.3062 82.4797 52.3221 81.1986 52.8037C78.7507 53.723 77.008 56.0271 76.9056 58.6399C76.7605 62.3502 79.7259 65.4047 83.4043 65.4047C83.6836 65.4047 84.6654 65.4047 84.8916 65.4047H98.3959" fill="#FDFCEF"/>
<path d="M118.245 66.0673H102.597C102.23 66.0673 101.932 65.7693 101.932 65.4021C101.932 65.035 102.23 64.737 102.597 64.737H118.245C121.464 64.737 124.083 62.1175 124.083 58.8981C124.083 56.1496 122.133 53.7457 119.446 53.1843C119.108 53.1138 118.879 52.7958 118.922 52.4526C118.951 52.2052 118.974 51.9537 118.974 51.6983C118.974 48.3512 116.25 45.628 112.903 45.628C110.99 45.628 109.225 46.51 108.062 48.0465C107.896 48.2674 107.608 48.3605 107.345 48.2833C107.079 48.2048 106.89 47.972 106.869 47.6966C106.73 45.8648 105.834 44.1446 104.408 42.9753C102.967 41.7939 101.14 41.2711 99.2726 41.4999C96.3924 41.8525 94.0111 44.0848 93.4816 46.929C93.3166 47.8164 93.322 48.705 93.4989 49.5711C93.5574 49.8638 93.4164 50.1591 93.1504 50.2948C92.8883 50.4305 92.5623 50.3746 92.3588 50.1564C91.5939 49.333 90.5589 48.8806 89.4454 48.8806C87.3594 48.8806 85.6166 50.513 85.4809 52.5976C85.4676 52.7918 85.3719 52.9701 85.2162 53.0858C85.0619 53.2016 84.861 53.2428 84.6734 53.2029C83.5533 52.9541 82.4957 53.0273 81.4367 53.4251C79.2164 54.2579 77.6639 56.3638 77.5747 58.664C77.5122 60.2697 78.0896 61.7903 79.2004 62.945C80.3113 64.1011 81.8065 64.737 83.4083 64.737H98.4012C98.7684 64.737 99.0664 65.035 99.0664 65.4021C99.0664 65.7693 98.7684 66.0673 98.4012 66.0673H83.4083C81.4407 66.0673 79.6062 65.2864 78.2412 63.8682C76.8763 62.4501 76.1672 60.5836 76.2444 58.6121C76.3562 55.7838 78.2545 53.1989 80.9698 52.1799C82.0354 51.7808 83.1356 51.6504 84.253 51.7821C84.7546 49.3582 86.9097 47.549 89.4467 47.549C90.358 47.549 91.248 47.7884 92.0329 48.2274C92.0315 47.7153 92.0794 47.1991 92.1752 46.6856C92.8085 43.2772 95.6594 40.6006 99.1116 40.1789C101.34 39.9062 103.528 40.5328 105.251 41.9456C106.587 43.0404 107.535 44.5411 107.962 46.1934C109.31 44.9748 111.047 44.2963 112.903 44.2963C116.983 44.2963 120.304 47.6168 120.304 51.697C120.304 51.8074 120.301 51.9178 120.295 52.0282C123.293 52.9222 125.414 55.7226 125.414 58.8981C125.414 62.8519 122.198 66.0673 118.245 66.0673Z" fill="#472B29"/>
<path d="M98.8284 51.0771C96.4231 50.9188 94.3518 52.5804 94.2041 54.7874C94.1855 55.0614 94.1974 55.3315 94.2374 55.5936C93.7731 55.0694 93.0866 54.7142 92.2977 54.6623C90.8543 54.5679 89.6078 55.5204 89.4269 56.8175C89.1648 56.7457 88.8907 56.6978 88.6074 56.6791C86.5028 56.5408 84.6909 57.9948 84.5605 59.9265" fill="#FDFCEF"/>
<path d="M84.5615 60.2576C84.5549 60.2576 84.5469 60.2576 84.5389 60.2576C84.3553 60.2457 84.217 60.0874 84.2303 59.9038C84.37 57.7925 86.3229 56.1881 88.6297 56.3478C88.8107 56.3597 88.9916 56.3837 89.1738 56.4183C89.537 55.1305 90.8341 54.2445 92.3201 54.3323C92.8775 54.3682 93.4123 54.5491 93.8673 54.8431C93.8686 54.8179 93.8699 54.7913 93.8726 54.766C94.0322 52.3794 96.2712 50.5821 98.8507 50.7457C99.0343 50.7577 99.1727 50.916 99.1594 51.0996C99.1487 51.2818 99.0144 51.4348 98.8055 51.4095C96.5985 51.2619 94.6708 52.7904 94.5338 54.8112C94.5178 55.0587 94.5285 55.3061 94.5644 55.5442C94.587 55.6906 94.5112 55.8329 94.3768 55.8968C94.2424 55.958 94.0828 55.926 93.9857 55.8156C93.564 55.338 92.9387 55.04 92.2735 54.9961C91.0257 54.9137 89.9135 55.7345 89.7552 56.8653C89.7406 56.9597 89.6873 57.0435 89.6089 57.0967C89.529 57.15 89.4279 57.1646 89.3388 57.1406C89.0874 57.0728 88.8333 57.0289 88.5832 57.0129C86.6608 56.8852 85.0085 58.2049 84.8915 59.9503C84.8808 60.1233 84.7358 60.2576 84.5615 60.2576Z" fill="#472B29"/>
<path d="M120.878 53.2961C118.618 52.2305 116.004 52.9848 115.04 54.9816C114.92 55.229 114.831 55.4858 114.772 55.7452" fill="#FDFCEF"/>
<path d="M114.773 56.0777C114.749 56.0777 114.725 56.0751 114.699 56.0698C114.52 56.0299 114.407 55.8516 114.448 55.672C114.513 55.3833 114.612 55.1013 114.742 54.8365C115.784 52.6801 118.599 51.8539 121.021 52.9967C121.187 53.0752 121.259 53.2734 121.181 53.4397C121.101 53.6073 120.901 53.6765 120.738 53.5993C118.643 52.6136 116.224 53.2987 115.341 55.1279C115.233 55.3487 115.15 55.5802 115.097 55.8197C115.063 55.9727 114.924 56.0777 114.773 56.0777Z" fill="#472B29"/>
<path d="M24.8523 63.6261H11.509C11.1419 63.6261 10.8439 63.3281 10.8439 62.9609C10.8439 62.5937 11.1419 62.2957 11.509 62.2957H24.8523C25.2195 62.2957 25.5175 62.5937 25.5175 62.9609C25.5175 63.3281 25.2195 63.6261 24.8523 63.6261ZM28.6851 63.6261H26.7627C26.3955 63.6261 26.0975 63.3281 26.0975 62.9609C26.0975 62.5937 26.3955 62.2957 26.7627 62.2957H28.6851C29.0522 62.2957 29.3502 62.5937 29.3502 62.9609C29.3502 63.3281 29.0522 63.6261 28.6851 63.6261ZM34.0796 63.6261H30.6925C30.3254 63.6261 30.0274 63.3281 30.0274 62.9609C30.0274 62.5937 30.3254 62.2957 30.6925 62.2957H34.0796C34.4468 62.2957 34.7448 62.5937 34.7448 62.9609C34.7448 63.3281 34.4468 63.6261 34.0796 63.6261ZM34.0796 66.1071H21.2857C20.9185 66.1071 20.6205 65.8091 20.6205 65.442C20.6205 65.0748 20.9185 64.7768 21.2857 64.7768H34.0783C34.4454 64.7768 34.7434 65.0748 34.7434 65.442C34.7434 65.8091 34.4468 66.1071 34.0796 66.1071ZM18.9829 66.1071H18.2113C17.8441 66.1071 17.5461 65.8091 17.5461 65.442C17.5461 65.0748 17.8441 64.7768 18.2113 64.7768H18.9829C19.3501 64.7768 19.6481 65.0748 19.6481 65.442C19.6481 65.8091 19.3501 66.1071 18.9829 66.1071ZM15.8207 66.1071H13.8837C13.5165 66.1071 13.2185 65.8091 13.2185 65.442C13.2185 65.0748 13.5165 64.7768 13.8837 64.7768H15.8207C16.1878 64.7768 16.4858 65.0748 16.4858 65.442C16.4858 65.8091 16.1878 66.1071 15.8207 66.1071ZM27.9747 61.145H21.2857C20.9185 61.145 20.6205 60.847 20.6205 60.4798C20.6205 60.1126 20.9185 59.8146 21.2857 59.8146H27.9733C28.3405 59.8146 28.6385 60.1126 28.6385 60.4798C28.6385 60.847 28.3418 61.145 27.9747 61.145ZM27.9747 58.6639H26.3024C25.9352 58.6639 25.6372 58.3659 25.6372 57.9987C25.6372 57.6315 25.9352 57.3336 26.3024 57.3336H27.9747C28.3418 57.3336 28.6398 57.6315 28.6398 57.9987C28.6398 58.3659 28.3418 58.6639 27.9747 58.6639ZM23.6258 68.5869H21.2857C20.9185 68.5869 20.6205 68.2889 20.6205 67.9217C20.6205 67.5546 20.9185 67.2566 21.2857 67.2566H23.6258C23.993 67.2566 24.2909 67.5546 24.2909 67.9217C24.2909 68.2889 23.9943 68.5869 23.6258 68.5869ZM95.5972 28.6687H82.2538C81.8867 28.6687 81.5887 28.3707 81.5887 28.0036C81.5887 27.6364 81.8867 27.3384 82.2538 27.3384H95.5972C95.9643 27.3384 96.2623 27.6364 96.2623 28.0036C96.2623 28.3707 95.9643 28.6687 95.5972 28.6687ZM99.4299 28.6687H97.5075C97.1403 28.6687 96.8423 28.3707 96.8423 28.0036C96.8423 27.6364 97.1403 27.3384 97.5075 27.3384H99.4299C99.797 27.3384 100.095 27.6364 100.095 28.0036C100.095 28.3707 99.797 28.6687 99.4299 28.6687ZM104.823 28.6687H101.436C101.069 28.6687 100.771 28.3707 100.771 28.0036C100.771 27.6364 101.069 27.3384 101.436 27.3384H104.823C105.19 27.3384 105.488 27.6364 105.488 28.0036C105.488 28.3707 105.192 28.6687 104.823 28.6687ZM102.129 23.7066H89.3366C88.9694 23.7066 88.6714 23.4086 88.6714 23.0414C88.6714 22.6742 88.9694 22.3762 89.3366 22.3762H102.129C102.496 22.3762 102.794 22.6742 102.794 23.0414C102.794 23.4086 102.496 23.7066 102.129 23.7066ZM87.0324 23.7066H86.2608C85.8937 23.7066 85.5957 23.4086 85.5957 23.0414C85.5957 22.6742 85.8937 22.3762 86.2608 22.3762H87.0324C87.3996 22.3762 87.6976 22.6742 87.6976 23.0414C87.6976 23.4086 87.4009 23.7066 87.0324 23.7066ZM83.8702 23.7066H81.9332C81.5661 23.7066 81.2681 23.4086 81.2681 23.0414C81.2681 22.6742 81.5661 22.3762 81.9332 22.3762H83.8702C84.2374 22.3762 84.5354 22.6742 84.5354 23.0414C84.5354 23.4086 84.2387 23.7066 83.8702 23.7066ZM98.7181 26.1876H92.0305C91.6633 26.1876 91.3653 25.8896 91.3653 25.5225C91.3653 25.1553 91.6633 24.8573 92.0305 24.8573H98.7181C99.0853 24.8573 99.3833 25.1553 99.3833 25.5225C99.3833 25.8896 99.0866 26.1876 98.7181 26.1876Z" fill="white"/>
<path d="M98.7177 23.7066H97.0454C96.6783 23.7066 96.3803 23.4086 96.3803 23.0414C96.3803 22.6742 96.6783 22.3762 97.0454 22.3762H98.7177C99.0849 22.3762 99.3829 22.6742 99.3829 23.0414C99.3829 23.4086 99.0862 23.7066 98.7177 23.7066ZM90.0944 26.1876H87.7544C87.3872 26.1876 87.0892 25.8896 87.0892 25.5225C87.0892 25.1553 87.3872 24.8573 87.7544 24.8573H90.0944C90.4616 24.8573 90.7596 25.1553 90.7596 25.5225C90.7596 25.8896 90.4616 26.1876 90.0944 26.1876Z" fill="white"/>
<path d="M89.3015 96.7956H49.7731C44.7631 96.7956 40.6643 92.6968 40.6643 87.6868V48.1584C40.6643 43.1483 44.7631 39.0496 49.7731 39.0496H89.3015C94.3115 39.0496 98.4103 43.1483 98.4103 48.1584V87.6868C98.4103 92.6968 94.3115 96.7956 89.3015 96.7956Z" fill="#D97EED"/>
<path d="M89.3017 97.728H49.7733C44.2364 97.728 39.7319 93.2235 39.7319 87.6879V48.1582C39.7319 42.6214 44.2364 38.1182 49.7733 38.1182H89.3017C94.8372 38.1182 99.3417 42.6227 99.3417 48.1582V87.6866C99.3417 93.2235 94.8372 97.728 89.3017 97.728ZM49.7733 39.9806C45.2634 39.9806 41.5957 43.6484 41.5957 48.1582V87.6866C41.5957 92.1965 45.2648 95.8642 49.7733 95.8642H89.3017C93.8115 95.8642 97.4779 92.1965 97.4779 87.6866V48.1582C97.4779 43.6484 93.8102 39.9806 89.3017 39.9806H49.7733Z" fill="#472B29"/>
<path d="M86.9044 92.6713H52.1706C48.1104 92.6713 44.7886 89.3494 44.7886 85.2892V50.5554C44.7886 46.4952 48.1104 43.1733 52.1706 43.1733H86.9044C90.9646 43.1733 94.2865 46.4952 94.2865 50.5554V85.2892C94.2865 89.3494 90.9646 92.6713 86.9044 92.6713Z" fill="#F4FDFF"/>
<path d="M86.7648 93.1372H52.3116C47.9069 93.1372 44.3242 89.5532 44.3242 85.1498V50.6954C44.3242 46.2906 47.9069 42.708 52.3116 42.708H85.1204C85.3772 42.708 85.5861 42.9169 85.5861 43.1736C85.5861 43.4304 85.3785 43.6392 85.1204 43.6392H52.3116C48.4204 43.6392 45.2542 46.8041 45.2542 50.6954V85.1485C45.2542 89.0397 48.4204 92.2046 52.3116 92.2046H86.7648C90.6547 92.2046 93.8209 89.0397 93.8209 85.1485V66.0887C93.8209 65.832 94.0284 65.6231 94.2865 65.6231C94.5446 65.6231 94.7521 65.832 94.7521 66.0887V85.1485C94.7508 89.5532 91.1695 93.1372 86.7648 93.1372ZM94.2852 63.8059C94.0284 63.8059 93.8195 63.597 93.8195 63.3402V59.6738C93.8195 59.4171 94.0271 59.2082 94.2852 59.2082C94.5432 59.2082 94.7508 59.4171 94.7508 59.6738V63.3402C94.7508 63.597 94.5432 63.8059 94.2852 63.8059ZM94.2852 58.3049C94.0284 58.3049 93.8195 58.096 93.8195 57.8393V56.0061C93.8195 55.7493 94.0271 55.5405 94.2852 55.5405C94.5432 55.5405 94.7508 55.7493 94.7508 56.0061V57.8393C94.7508 58.0974 94.5432 58.3049 94.2852 58.3049Z" fill="#472B29"/>
<path d="M73.0873 75.6125C73.8722 75.1283 74.1982 74.0068 74.0239 73.4281L73.815 71.7545C76.9107 70.1994 79.1963 67.0637 79.1963 63.4199C79.1963 58.237 74.7463 54.0198 69.4568 54.0198C64.1674 54.0198 59.8797 58.2223 59.8797 63.4053C59.8797 67.0491 62.0029 70.2007 65.0986 71.7558L64.8898 73.4294C64.8898 74.4032 65.5377 75.2347 66.4303 75.5327" fill="#FBE159"/>
<path d="M73.0874 76.0448C72.9437 76.0448 72.8014 75.9717 72.7202 75.8386C72.5938 75.6364 72.6577 75.369 72.8599 75.244C73.4665 74.8702 73.7326 73.9615 73.6089 73.5531L73.3854 71.809C73.3614 71.6268 73.4572 71.4512 73.6209 71.3687C76.7445 69.7989 78.7626 66.6793 78.7626 63.4199C78.7626 58.475 74.5867 54.4521 69.4556 54.4521C64.4136 54.4521 60.3121 58.4684 60.3121 63.404C60.3121 66.7737 62.2212 69.8255 65.2916 71.3674C65.4552 71.4499 65.5497 71.6255 65.5271 71.8077L65.3182 73.4813C65.3222 74.1917 65.8224 74.8715 66.5661 75.1203C66.7936 75.1961 66.9159 75.4409 66.8401 75.667C66.763 75.8932 66.5195 76.0182 66.2933 75.9397C65.1945 75.5739 64.4561 74.5628 64.4561 73.4267L64.6331 71.9979C61.4256 70.2658 59.4474 67.0012 59.4474 63.4026C59.4474 57.9895 63.9373 53.5847 69.4556 53.5847C75.0643 53.5847 79.6273 57.9961 79.6273 63.4186C79.6273 66.9054 77.5387 70.2406 74.2794 71.9979L74.451 73.3722C74.6745 74.0919 74.2448 75.4036 73.3136 75.9783C73.243 76.0236 73.1646 76.0448 73.0874 76.0448Z" fill="#472B29"/>
<path d="M68.313 74.7065C68.305 74.7065 68.2971 74.7065 68.2891 74.7052C68.1427 74.6919 68.035 74.5628 68.0469 74.4165C68.2452 72.2228 68.0909 70.4614 67.5481 68.9368C66.9441 69.0792 66.3148 68.9847 65.8426 68.6482C65.4009 68.3355 65.1322 67.9072 65.1056 67.4721C65.0829 67.1063 65.2306 66.7697 65.5299 66.4983C65.6829 66.3586 65.8479 66.2735 66.0208 66.2456C66.4239 66.179 66.8377 66.4238 67.137 66.8948C67.4164 67.3338 67.6558 67.7874 67.8567 68.2624C67.9352 68.2238 68.0097 68.1785 68.0829 68.128C68.1959 68.0495 68.2984 67.963 68.3915 67.8712C68.0696 67.4455 68.0137 66.8628 68.2239 66.1405C68.3237 65.8039 68.6416 65.482 68.9649 65.3902C69.1871 65.3263 69.3986 65.3702 69.5609 65.5139C69.7897 65.7174 69.8482 66.0394 69.7338 66.4717C69.6301 66.8722 69.4465 67.3657 69.1325 67.8167C69.5289 68.0309 70.0544 68.0189 70.3019 67.9989C70.6797 67.9684 71.0429 67.8034 71.3276 67.5387C70.8207 67.1781 70.5932 66.6979 70.697 66.179C70.7688 65.8225 71.0788 65.458 71.4353 65.313C71.6761 65.2146 71.9169 65.2279 72.1085 65.3569C72.3679 65.5312 72.3985 65.8252 72.4211 66.038C72.469 66.493 72.3666 66.96 72.1351 67.3684C72.2428 67.4109 72.3546 67.4469 72.4663 67.4761C72.8215 66.8256 73.1887 66.3573 73.5373 66.2216C73.8472 66.1006 74.1585 66.2003 74.3807 66.501C74.8503 67.1289 74.6694 67.528 74.5204 67.7116C74.2038 68.0974 73.4641 68.1892 72.7324 68.0761C71.8238 69.9705 70.9444 73.2578 71.0562 74.2994C71.0721 74.4458 70.9657 74.5761 70.8194 74.5921C70.6651 74.6174 70.5427 74.5016 70.5254 74.3566C70.4123 73.2977 71.2318 70.029 72.2189 67.9604C72.0766 67.9178 71.9382 67.8686 71.8078 67.8114C71.4207 68.2264 70.8925 68.4859 70.3418 68.5324C69.7218 68.5816 69.1764 68.4765 68.784 68.2318C68.6629 68.3528 68.5299 68.4672 68.3795 68.5697C68.2731 68.6442 68.16 68.708 68.0456 68.7639C68.615 70.3603 68.7773 72.1948 68.5724 74.4697C68.5644 74.6027 68.45 74.7065 68.313 74.7065ZM66.1539 66.7657C66.1379 66.7657 66.1246 66.7657 66.1086 66.7684C66.0235 66.783 65.941 66.8429 65.8891 66.8908C65.7109 67.0531 65.6271 67.2367 65.639 67.4389C65.6563 67.7089 65.8466 67.9976 66.1512 68.2131C66.4771 68.4433 66.9215 68.5125 67.3525 68.4326C67.1663 67.9976 66.9454 67.5812 66.69 67.1795C66.5596 66.9733 66.3548 66.7657 66.1539 66.7657ZM72.9958 67.5706C73.5107 67.6251 73.963 67.5493 74.1106 67.371C74.229 67.2274 74.0641 66.9613 73.9563 66.8163C73.8459 66.6686 73.7821 66.6939 73.7328 66.7138C73.5067 66.803 73.2552 67.1156 72.9958 67.5706ZM69.1618 65.8917C69.1485 65.8917 69.1338 65.8944 69.1126 65.8997C68.9622 65.9422 68.7866 66.1245 68.7374 66.2881C68.5977 66.7697 68.6004 67.1542 68.748 67.4349C68.9915 67.0651 69.1352 66.6633 69.2216 66.3334C69.2775 66.1192 69.2735 65.9649 69.2097 65.9077C69.2017 65.9037 69.1897 65.8917 69.1618 65.8917ZM71.7466 65.7773C71.7174 65.7773 71.6801 65.7853 71.6389 65.8026C71.4526 65.8797 71.2571 66.1032 71.2225 66.2815C71.1466 66.6593 71.3981 66.9373 71.6655 67.1196C71.8504 66.8043 71.9315 66.4425 71.8943 66.0926C71.881 65.9689 71.8664 65.8318 71.8131 65.7946C71.7945 65.7839 71.7732 65.7773 71.7466 65.7773Z" fill="#472B29"/>
<path d="M72.0817 80.2661H67.3963C66.771 80.2661 66.2602 79.7539 66.2602 79.13C66.2602 78.5048 66.7723 77.9939 67.3963 77.9939H72.0817C72.707 77.9939 73.2178 78.5061 73.2178 79.13C73.2192 79.7539 72.707 80.2661 72.0817 80.2661Z" fill="#CBC9BC"/>
<path d="M72.0817 80.6985H67.3962C66.5315 80.6985 65.8264 79.9947 65.8264 79.1287C65.8264 78.2626 66.5302 77.5588 67.3962 77.5588H72.0817C72.9464 77.5588 73.6515 78.2626 73.6515 79.1287C73.6515 79.9947 72.9464 80.6985 72.0817 80.6985ZM67.3962 78.4249C67.0078 78.4249 66.6925 78.7402 66.6925 79.1287C66.6925 79.5171 67.0078 79.8324 67.3962 79.8324H72.0817C72.4701 79.8324 72.7854 79.5171 72.7854 79.1287C72.7854 78.7402 72.4701 78.4249 72.0817 78.4249H67.3962Z" fill="#472B29"/>
<path d="M71.9219 80.4389C71.9219 81.5125 70.2098 81.7852 69.7003 81.7852C68.499 81.7852 67.5265 81.1613 67.5265 80.3923" fill="#E1E0D8"/>
<path d="M69.7005 82.2176C68.2384 82.2176 67.093 81.4154 67.093 80.3911C67.093 80.1516 67.2872 79.9587 67.5254 79.9587C67.7635 79.9587 67.9577 80.1529 67.9577 80.3911C67.9577 80.8461 68.6735 81.3516 69.7005 81.3516C70.0796 81.3516 71.4898 81.1241 71.4898 80.4376C71.4898 80.1982 71.684 80.0053 71.9222 80.0053C72.1603 80.0053 72.3545 80.1995 72.3545 80.4376C72.3545 81.7826 70.5665 82.2176 69.7005 82.2176ZM77.0373 63.6514C76.9269 63.6514 76.8378 63.5623 76.8378 63.4519C76.8378 62.816 76.7486 62.188 76.5717 61.5814C76.5411 61.4763 76.5996 61.3646 76.7074 61.334C76.8138 61.306 76.9242 61.3646 76.9548 61.4697C77.1437 62.1109 77.2395 62.7787 77.2395 63.4519C77.2369 63.5623 77.1477 63.6514 77.0373 63.6514ZM76.2803 60.5224C76.2072 60.5224 76.1393 60.4825 76.1021 60.4147C75.1123 58.4897 73.2312 57.1314 71.0694 56.7802C70.6996 56.7203 70.3164 56.6884 69.932 56.6884C69.8215 56.6884 69.7324 56.5993 69.7324 56.4889C69.7324 56.3784 69.8215 56.2893 69.932 56.2893C70.3377 56.2893 70.7421 56.3212 71.1346 56.3864C73.4201 56.7576 75.4103 58.1944 76.4586 60.2311C76.5078 60.3296 76.4706 60.4506 76.3721 60.4998C76.3429 60.5145 76.3123 60.5224 76.2803 60.5224Z" fill="#472B29"/>
<path d="M72.0819 77.9925C72.0819 77.9925 73.4308 77.9925 73.4308 76.8563C73.4308 76.2311 72.9333 75.7202 72.3253 75.7202H66.7871C66.1792 75.7202 65.6816 76.2324 65.6816 76.8563C65.6816 77.4816 66.1792 77.9925 66.7871 77.9925H72.0593" fill="#E1E0D8"/>
<path d="M72.0818 78.4248C72.0738 78.4248 72.0659 78.4248 72.0579 78.4248H66.7857C65.937 78.4248 65.2479 77.721 65.2479 76.855C65.2479 75.9889 65.9383 75.2852 66.7857 75.2852H72.3239C73.1727 75.2852 73.8631 75.9889 73.8631 76.855C73.8645 78.0975 72.6978 78.4248 72.0818 78.4248ZM66.7871 76.1512C66.4159 76.1512 66.1139 76.4665 66.1139 76.855C66.1139 77.2434 66.4159 77.5587 66.7871 77.5587H72.0592C72.0672 77.5587 72.0738 77.56 72.0818 77.5587C72.2375 77.5574 72.9998 77.5148 72.9998 76.855C72.9998 76.4665 72.6964 76.1512 72.3253 76.1512H66.7871Z" fill="#472B29"/>
<path d="M54.4868 100.476C56.9918 100.476 59.1656 100.476 59.1962 100.476C62.0032 100.476 64.2795 98.2495 64.2795 95.5023C64.2795 93.105 62.5473 91.1055 60.2419 90.6333C60.2685 90.4231 60.2871 90.2116 60.2871 89.9947C60.2871 87.1491 57.9297 84.8423 55.0229 84.8423C53.3068 84.8423 51.7862 85.6498 50.8257 86.895C50.5796 83.7275 47.6888 81.2836 44.3071 81.6894C41.834 81.9861 39.7879 83.8565 39.3329 86.2538C39.1866 87.0227 39.2025 87.769 39.3475 88.4688C38.685 87.7704 37.7405 87.33 36.6895 87.33C34.7659 87.33 33.1947 88.7961 33.071 90.6479C32.197 90.459 31.2471 90.471 30.2467 90.8381C28.3337 91.5406 26.9714 93.3033 26.8916 95.3028C26.7785 98.1404 29.0959 100.476 31.9708 100.476C32.189 100.476 32.9566 100.476 33.1335 100.476H43.6884H54.4868ZM45.8702 100.476H46.3491H45.8702Z" fill="#FDFCEF"/>
<path d="M59.1962 101.143H54.4868C54.1197 101.143 53.8217 100.845 53.8217 100.478C53.8217 100.111 54.1197 99.8128 54.4868 99.8128H59.1962C61.6321 99.8128 63.6143 97.8798 63.6143 95.5038C63.6143 93.4764 62.1403 91.7031 60.1062 91.2867C59.7643 91.2175 59.5355 90.8955 59.5794 90.5497C59.6033 90.3674 59.6193 90.1838 59.6193 89.9962C59.6193 87.5218 57.5559 85.509 55.0203 85.509C53.5662 85.509 52.2279 86.1635 51.3486 87.3023C51.1809 87.5205 50.8936 87.6123 50.6328 87.5338C50.3694 87.4553 50.1805 87.2225 50.1606 86.9484C50.0555 85.5928 49.4089 84.3636 48.338 83.4855C47.2365 82.5809 45.829 82.1765 44.3829 82.3508C42.1932 82.6128 40.3839 84.2691 39.9835 86.379C39.8571 87.0362 39.8624 87.6934 39.9954 88.336C40.0566 88.6273 39.9156 88.9226 39.6522 89.0597C39.3915 89.198 39.0682 89.1448 38.8607 88.928C38.2913 88.3266 37.5184 87.9967 36.6856 87.9967C35.1291 87.9967 33.8307 89.1821 33.7309 90.6947C33.7176 90.8876 33.6218 91.0658 33.4675 91.1816C33.3145 91.2973 33.1163 91.3412 32.9274 91.3C32.0746 91.1137 31.2751 91.1696 30.4702 91.4649C28.7913 92.0822 27.618 93.636 27.5528 95.3309C27.5062 96.4949 27.9279 97.6031 28.7434 98.4505C29.5882 99.3299 30.7323 99.8128 31.9668 99.8128H43.6845C44.0517 99.8128 44.3497 100.111 44.3497 100.478C44.3497 100.845 44.0517 101.143 43.6845 101.143H31.9668C30.3904 101.143 28.8658 100.498 27.7843 99.3711C26.716 98.2603 26.1626 96.8062 26.2224 95.2763C26.3102 93.0494 27.8348 91.0153 30.0126 90.2144C30.8254 89.9151 31.6689 89.8073 32.5149 89.8885C32.9726 88.0313 34.6821 86.6637 36.6869 86.6637C37.3428 86.6637 37.9866 86.8141 38.5667 87.0934C38.5786 86.7715 38.6159 86.4495 38.6771 86.1276C39.1839 83.4549 41.4655 81.3583 44.2246 81.0271C46.0392 80.8102 47.7979 81.3171 49.1828 82.4545C50.1765 83.27 50.8816 84.329 51.2395 85.5156C52.2918 84.6536 53.6141 84.176 55.0216 84.176C58.2916 84.176 60.951 86.7861 60.951 89.9936C60.951 90.0388 60.9496 90.084 60.9483 90.1306C63.2963 90.8689 64.9446 93.0414 64.9446 95.5025C64.946 98.6128 62.3664 101.143 59.1962 101.143ZM46.3478 101.143H45.8702C45.5031 101.143 45.2051 100.845 45.2051 100.478C45.2051 100.111 45.5031 99.8128 45.8702 99.8128H46.3478C46.715 99.8128 47.013 100.111 47.013 100.478C47.013 100.845 46.7163 101.143 46.3478 101.143Z" fill="#472B29"/>
<path d="M56.9253 93.4218C56.9014 93.4218 56.8774 93.4191 56.8522 93.4138C56.6726 93.3739 56.5595 93.1956 56.6007 93.016C56.6513 92.7939 56.7271 92.5783 56.8269 92.3775C57.6304 90.7518 59.8494 90.1518 61.7771 91.0391C61.9447 91.1163 62.0179 91.3145 61.9394 91.4808C61.8622 91.6471 61.6627 91.7203 61.4991 91.6431C59.8947 90.9034 58.0668 91.3651 57.4242 92.6728C57.3471 92.8258 57.2885 92.9907 57.2513 93.161C57.2154 93.3167 57.0783 93.4218 56.9253 93.4218ZM50.0621 101.143H48.5894C48.2223 101.143 47.9243 100.845 47.9243 100.478C47.9243 100.111 48.2223 99.8127 48.5894 99.8127H50.0621C50.4293 99.8127 50.7273 100.111 50.7273 100.478C50.7273 100.845 50.4306 101.143 50.0621 101.143Z" fill="#472B29"/>
<defs>
<filter id="filter0_d" x="2.64134" y="10.6739" width="128.052" height="112.747" filterUnits="userSpaceOnUse" color-interpolation-filters="sRGB">
<feFlood flood-opacity="0" result="BackgroundImageFix"/>
<feColorMatrix in="SourceAlpha" type="matrix" values="0 0 0 0 0 0 0 0 0 0 0 0 0 0 0 0 0 0 127 0"/>
<feOffset dx="-1.91416" dy="1.91416"/>
<feGaussianBlur stdDeviation="4.78539"/>
<feColorMatrix type="matrix" values="0 0 0 0 0 0 0 0 0 0 0 0 0 0 0 0 0 0 0.2 0"/>
<feBlend mode="normal" in2="BackgroundImageFix" result="effect1_dropShadow"/>
<feBlend mode="normal" in="SourceGraphic" in2="effect1_dropShadow" result="shape"/>
</filter>
</defs>
</svg>
