<svg width="134" height="134" viewBox="0 0 134 134" fill="none" xmlns="http://www.w3.org/2000/svg">
<g filter="url(#filter0_d)">
<path d="M116.05 75.4608C117.56 72.5916 118.426 69.3327 118.426 65.8658C118.426 57.0556 112.893 49.5552 105.117 46.6003C105.117 46.5925 105.119 46.5821 105.119 46.5717C105.119 31.1396 92.6083 18.6287 77.1762 18.6287C64.1585 18.6287 53.251 27.5454 50.148 39.5964C48.1832 38.9492 46.0911 38.588 43.9107 38.588C33.6763 38.588 25.2508 46.2963 24.0969 56.2213C17.1735 57.6871 11.9757 63.8282 11.9757 71.1882C11.9757 79.6398 18.8264 86.4904 27.2779 86.4904C27.5144 86.4904 27.7457 86.4748 27.977 86.4618C27.9718 86.6931 27.9432 86.9218 27.9432 87.1557C27.9432 102.221 40.1553 114.433 55.221 114.433C63.7868 114.433 71.4223 110.478 76.4226 104.303C79.3203 107.263 83.3512 109.111 87.8212 109.111C94.0091 109.111 99.3628 105.584 102.014 100.439C103.414 100.883 104.904 101.127 106.45 101.127C114.532 101.127 121.087 94.5729 121.087 86.4904C121.087 82.0853 119.13 78.1428 116.05 75.4608Z" fill="#D1FAFF"/>
</g>
<path d="M41.9146 107.78H28.6084C28.2419 107.78 27.9431 107.481 27.9431 107.115C27.9431 106.749 28.2419 106.45 28.6084 106.45H41.9146C42.281 106.45 42.5799 106.749 42.5799 107.115C42.5799 107.481 42.2836 107.78 41.9146 107.78ZM45.9065 107.78H44.5759C44.2094 107.78 43.9105 107.481 43.9105 107.115C43.9105 106.749 44.2094 106.45 44.5759 106.45H45.9065C46.2729 106.45 46.5718 106.749 46.5718 107.115C46.5718 107.481 46.2755 107.78 45.9065 107.78ZM52.5466 110.442H40.584C40.2175 110.442 39.9187 110.143 39.9187 109.776C39.9187 109.41 40.2175 109.111 40.584 109.111H52.5466C52.9156 109.111 53.2119 109.41 53.2119 109.776C53.2119 110.143 52.9156 110.442 52.5466 110.442ZM37.9227 110.442H36.5921C36.2257 110.442 35.9268 110.143 35.9268 109.776C35.9268 109.41 36.2257 109.111 36.5921 109.111H37.9227C38.2892 109.111 38.5881 109.41 38.5881 109.776C38.5881 110.143 38.2918 110.442 37.9227 110.442ZM33.9309 110.442H31.2696C30.9032 110.442 30.6043 110.143 30.6043 109.776C30.6043 109.41 30.9032 109.111 31.2696 109.111H33.9309C34.2973 109.111 34.5962 109.41 34.5962 109.776C34.5962 110.143 34.2999 110.442 33.9309 110.442ZM41.9146 113.103H39.2534C38.8869 113.103 38.5881 112.804 38.5881 112.437C38.5881 112.071 38.8869 111.772 39.2534 111.772H41.9146C42.281 111.772 42.5799 112.071 42.5799 112.437C42.5799 112.804 42.281 113.103 41.9146 113.103ZM45.9065 101.127C45.67 101.127 44.8124 101.127 44.5759 101.127C44.2094 101.127 43.9105 101.426 43.9105 101.792C43.9105 102.159 44.2094 102.458 44.5759 102.458C44.8124 102.458 45.67 102.458 45.9065 102.458C46.2729 102.458 46.5718 102.159 46.5718 101.792C46.5718 101.426 46.2729 101.127 45.9065 101.127ZM45.9065 103.788C45.67 103.788 39.4899 103.788 39.2534 103.788C38.8869 103.788 38.5881 104.087 38.5881 104.454C38.5881 104.82 38.8869 105.119 39.2534 105.119C39.4899 105.119 45.67 105.119 45.9065 105.119C46.2729 105.119 46.5718 104.82 46.5718 104.454C46.5718 104.087 46.2729 103.788 45.9065 103.788ZM52.5596 106.45C52.3231 106.45 48.8042 106.45 48.5677 106.45C48.2013 106.45 47.9024 106.749 47.9024 107.115C47.9024 107.481 48.2013 107.78 48.5677 107.78C48.8042 107.78 52.3231 107.78 52.5596 107.78C52.926 107.78 53.2249 107.481 53.2249 107.115C53.2249 106.749 52.926 106.45 52.5596 106.45ZM116.429 82.4985H103.123C102.757 82.4985 102.458 82.1996 102.458 81.8331C102.458 81.4667 102.757 81.1678 103.123 81.1678H116.429C116.796 81.1678 117.095 81.4667 117.095 81.8331C117.095 82.1996 116.796 82.4985 116.429 82.4985ZM121.752 82.4985H119.091C118.724 82.4985 118.425 82.1996 118.425 81.8331C118.425 81.4667 118.724 81.1678 119.091 81.1678H121.752C122.118 81.1678 122.417 81.4667 122.417 81.8331C122.417 82.1996 122.118 82.4985 121.752 82.4985ZM128.405 85.1597H115.099C114.732 85.1597 114.434 84.8608 114.434 84.4944C114.434 84.128 114.732 83.8291 115.099 83.8291H128.405C128.772 83.8291 129.07 84.128 129.07 84.4944C129.07 84.8608 128.774 85.1597 128.405 85.1597ZM112.438 85.1597H111.107C110.741 85.1597 110.442 84.8608 110.442 84.4944C110.442 84.128 110.741 83.8291 111.107 83.8291H112.438C112.804 83.8291 113.103 84.128 113.103 84.4944C113.103 84.8608 112.804 85.1597 112.438 85.1597ZM108.407 85.1597H105.784C105.418 85.1597 105.119 84.8608 105.119 84.4944C105.119 84.128 105.418 83.8291 105.784 83.8291H108.407C108.773 83.8291 109.072 84.128 109.072 84.4944C109.072 84.8608 108.773 85.1597 108.407 85.1597ZM120.421 79.8372H113.768C113.402 79.8372 113.103 79.5383 113.103 79.1719C113.103 78.8055 113.402 78.5066 113.768 78.5066H120.421C120.788 78.5066 121.087 78.8055 121.087 79.1719C121.087 79.5383 120.79 79.8372 120.421 79.8372ZM116.429 87.8209H113.768C113.402 87.8209 113.103 87.5221 113.103 87.1556C113.103 86.7892 113.402 86.4903 113.768 86.4903H116.429C116.796 86.4903 117.095 86.7892 117.095 87.1556C117.095 87.5221 116.796 87.8209 116.429 87.8209Z" fill="white"/>
<path d="M95.1394 59.2126V59.8779H91.1475V59.2126C91.1475 59.2126 85.5027 59.2126 83.8291 59.2126C80.5233 59.2126 77.8413 56.5306 77.8413 53.2248C77.8413 50.1218 80.2114 47.5983 83.2365 47.2968C83.2079 47.0551 83.1638 46.8212 83.1638 46.5717C83.1638 43.2659 85.8458 40.5839 89.1516 40.5839C91.0643 40.5839 92.7484 41.4961 93.8451 42.8943C94.0322 39.3858 96.9066 36.592 100.462 36.592C104.137 36.592 107.115 39.5703 107.115 43.2452C107.115 43.8377 107.014 44.4017 106.865 44.95C107.72 43.9183 108.994 43.2452 110.442 43.2452C112.812 43.2452 114.745 45.0228 115.039 47.3098C115.281 47.2812 115.515 47.237 115.764 47.237C119.07 47.237 121.752 49.9191 121.752 53.2248C121.752 56.5306 119.07 59.2126 115.764 59.2126C112.458 59.2126 103.123 59.2126 103.123 59.2126H95.1394Z" fill="#FDFCEF"/>
<path d="M100.462 35.9268C104.498 35.9268 107.781 39.2091 107.781 43.2452C107.781 43.266 107.781 43.2868 107.781 43.3076C108.581 42.8346 109.496 42.5799 110.442 42.5799C112.877 42.5799 114.98 44.2587 115.575 46.5795C115.637 46.5743 115.699 46.5717 115.764 46.5717C119.434 46.5717 122.417 49.5552 122.417 53.2249C122.417 56.8945 119.434 59.878 115.764 59.878H95.1397C94.7733 59.878 94.4744 59.5791 94.4744 59.2127C94.4744 58.8462 94.7733 58.5473 95.1397 58.5473H115.764C118.699 58.5473 121.087 56.159 121.087 53.2249C121.087 50.2907 118.699 47.9024 115.764 47.9024C115.608 47.9024 115.458 47.9258 115.307 47.9439L115.12 47.9699C115.091 47.9751 115.065 47.9751 115.037 47.9751C114.709 47.9751 114.423 47.7282 114.379 47.393C114.124 45.4074 112.433 43.9105 110.442 43.9105C109.265 43.9105 108.15 44.4433 107.38 45.3737C107.25 45.5322 107.058 45.6154 106.866 45.6154C106.762 45.6154 106.658 45.592 106.564 45.5426C106.286 45.3996 106.146 45.0826 106.224 44.7785C106.377 44.2016 106.45 43.713 106.45 43.2452C106.45 39.9446 103.763 37.2574 100.462 37.2574C97.2942 37.2574 94.6771 39.7471 94.5082 42.9307C94.4952 43.2062 94.3107 43.4453 94.0456 43.5285C93.978 43.5493 93.9105 43.5596 93.8429 43.5596C93.6428 43.5596 93.4479 43.4687 93.3205 43.305C92.294 41.9977 90.7762 41.2492 89.1519 41.2492C86.2178 41.2492 83.8295 43.6376 83.8295 46.5717C83.8295 46.7277 83.8528 46.8784 83.871 47.0291L83.897 47.2163C83.9178 47.393 83.8684 47.5723 83.7567 47.7126C83.6449 47.853 83.4812 47.9413 83.3045 47.9595C80.5679 48.2298 78.507 50.496 78.507 53.2249C78.507 56.159 80.8953 58.5473 83.8295 58.5473H91.1479C91.5143 58.5473 91.8132 58.8462 91.8132 59.2127C91.8132 59.5791 91.5143 59.878 91.1479 59.878H83.8295C80.1598 59.878 77.1763 56.8945 77.1763 53.2249C77.1763 50.036 79.4244 47.354 82.504 46.7355C82.5014 46.6809 82.4988 46.6263 82.4988 46.5717C82.4988 42.9021 85.4823 39.9186 89.1519 39.9186C90.7165 39.9186 92.203 40.4722 93.3881 41.4676C94.1834 38.2683 97.0629 35.9268 100.462 35.9268Z" fill="#472B29"/>
<path d="M102.458 45.2412C104.324 45.2412 105.93 46.5692 106.333 48.3573C106.821 48.061 107.38 47.9025 107.947 47.9025C109.545 47.9025 110.87 49.0953 111.078 50.6547C111.349 50.5923 111.603 50.5637 111.855 50.5637C113.89 50.5637 115.595 52.1594 115.738 54.1995C115.751 54.3814 115.613 54.5426 115.429 54.5556C115.421 54.5556 115.413 54.5556 115.405 54.5556C115.234 54.5556 115.086 54.4204 115.075 54.2463C114.956 52.5544 113.542 51.229 111.855 51.229C111.551 51.229 111.232 51.2862 110.873 51.3979C110.844 51.4083 110.813 51.4109 110.785 51.4109C110.712 51.4109 110.639 51.3849 110.577 51.3382C110.491 51.2784 110.442 51.1692 110.442 51.0627C110.442 49.6879 109.321 48.5678 107.947 48.5678C107.352 48.5678 106.769 48.7913 106.309 49.1967C106.247 49.2513 106.166 49.2799 106.088 49.2799C106.047 49.2799 106.005 49.2721 105.966 49.2565C105.849 49.2097 105.769 49.1005 105.758 48.9732C105.621 47.2527 104.171 45.9065 102.458 45.9065C102.182 45.9065 101.891 45.9507 101.551 46.0495C101.52 46.0573 101.488 46.0625 101.457 46.0625C101.312 46.0625 101.182 45.9663 101.14 45.8208C101.088 45.644 101.192 45.4595 101.369 45.4101C101.769 45.2932 102.117 45.2412 102.458 45.2412ZM83.9851 47.2371C85.7497 47.2371 87.322 48.43 87.808 50.1401C87.86 50.3168 87.756 50.5013 87.5793 50.5507C87.5481 50.5585 87.5169 50.5637 87.4883 50.5637C87.3428 50.5637 87.2103 50.4675 87.1687 50.322C86.7633 48.8978 85.4534 47.9025 83.9851 47.9025C83.8291 47.9025 83.6784 47.9206 83.5303 47.9414C83.5147 47.944 83.4991 47.944 83.4835 47.944C83.3224 47.944 83.1794 47.8219 83.156 47.6556C83.13 47.4736 83.2574 47.3073 83.4393 47.2813C83.6186 47.2579 83.8006 47.2371 83.9851 47.2371Z" fill="#472B29"/>
<path d="M36.3997 96.2051C35.1834 96.2051 34.1959 95.1941 34.1959 93.9519V51.0861C34.1959 49.8438 35.1834 48.8354 36.3997 48.8354H95.3317C96.5454 48.8354 97.533 49.8464 97.533 51.0861V93.9545C97.533 95.1967 96.5454 96.2051 95.3317 96.2051H36.3997Z" fill="#FFA578"/>
<path d="M95.3318 49.7657C96.0205 49.7657 96.6026 50.3713 96.6026 51.086V93.9518C96.6026 94.6664 96.0205 95.272 95.3318 95.272H36.3998C35.7111 95.272 35.1289 94.6664 35.1289 93.9518V51.086C35.1289 50.3687 35.7111 49.7657 36.3998 49.7657H95.3318ZM95.3318 47.9023H36.3998C34.6767 47.9023 33.2655 49.3343 33.2655 51.086V93.9518C33.2655 95.7034 34.6767 97.1354 36.3998 97.1354H95.3318C97.0549 97.1354 98.466 95.7034 98.4686 93.9518V51.086C98.466 49.3343 97.0549 47.9023 95.3318 47.9023Z" fill="#472B29"/>
<path d="M61.7646 93.5517V46.7305H68.636V93.5517H61.7646Z" fill="#F5504B"/>
<path d="M91.943 87.1558H97.8008V91.8883C97.8008 95.3058 97.2602 96.387 94.0117 96.4701L88.4449 96.4285L88.4579 90.1289C88.4553 88.6969 90.5266 87.1558 91.943 87.1558Z" fill="#D2EDF1"/>
<path d="M94.03 97.1355L87.7797 97.0888L87.7927 90.1264C87.7927 88.289 90.1681 86.4932 91.9431 86.4932H98.4663V91.891C98.4663 95.4385 97.8269 97.0394 94.03 97.1355ZM89.1129 95.7685L94.017 95.8049C96.6964 95.7348 97.1357 95.1864 97.1357 91.8884V87.8212H91.9431C90.8698 87.8212 89.1233 89.1102 89.1233 90.1264L89.1129 95.7685Z" fill="#472B29"/>
<path d="M54.6569 46.6783C54.2983 43.3881 57.5339 39.2533 59.5662 39.2533H70.8999C72.9348 39.2533 75.7727 43.7988 75.8767 46.6783H78.5067C78.1611 41.1817 76.0274 35.2615 71.6561 35.2615H58.8099C55.5431 35.2615 52.24 41.1921 51.8943 46.6783H54.6569Z" fill="#74ABF0"/>
<path d="M79.2135 47.3437H75.232L75.2086 46.7044C75.1098 43.908 72.3343 39.9188 70.8971 39.9188H59.566C58.9994 39.9188 58.1626 40.4567 57.3855 41.3274C56.2109 42.6346 55.1193 44.7735 55.3168 46.6083L55.4 47.3463H51.1846L51.2288 46.6394C51.5797 41.0701 54.966 34.5989 58.8071 34.5989H71.6533C76.6432 34.5989 78.821 41.0857 79.1667 46.6394L79.2135 47.3437ZM76.4821 46.0131H77.7893C77.3215 40.8829 75.297 35.9269 71.6559 35.9269H58.8097C56.1719 35.9269 53.1728 40.9037 52.6218 46.0131H53.968C54.02 43.8561 55.2571 41.7094 56.3954 40.4385C57.0139 39.7472 58.251 38.5881 59.566 38.5881H70.8997C73.2179 38.5881 76.0324 42.8555 76.4821 46.0131Z" fill="#472B29"/>
<path d="M93.1436 90.4824C92.4081 90.4824 91.813 91.0776 91.813 91.813C91.813 92.5485 92.4081 93.1437 93.1436 93.1437C93.8791 93.1437 94.4742 92.5485 94.4742 91.813C94.4742 91.0776 93.8791 90.4824 93.1436 90.4824Z" fill="#472B29"/>
<path d="M43.2323 90.1289L43.2453 96.4285L37.6785 96.4701C34.4299 96.387 33.8894 95.3058 33.8894 91.8883V87.1558H39.7472C41.1636 87.1558 43.2323 88.6969 43.2323 90.1289Z" fill="#D2EDF1"/>
<path d="M37.681 97.1355C33.8633 97.0393 33.224 95.4384 33.224 91.8883V86.4905H39.7471C41.5196 86.4905 43.8949 88.2889 43.8975 90.1263L43.9105 97.0887L37.681 97.1355ZM34.5546 87.8211V91.8883C34.5546 95.1863 34.9964 95.7373 37.694 95.8048L42.5773 95.7685L42.5669 90.1289C42.5669 89.1101 40.8205 87.8237 39.7471 87.8237H34.5546V87.8211Z" fill="#472B29"/>
<path d="M38.5463 90.4824C37.8108 90.4824 37.2156 91.0776 37.2156 91.813C37.2156 92.5485 37.8108 93.1437 38.5463 93.1437C39.2817 93.1437 39.8769 92.5485 39.8769 91.813C39.8769 91.0776 39.2817 90.4824 38.5463 90.4824Z" fill="#472B29"/>
<path d="M57.513 48.6248H49.1031C48.8692 48.6248 48.6795 48.2999 48.6795 47.9049L48.6821 46.6262C48.6821 46.2312 48.8718 45.9089 49.1031 45.9089H57.5156C57.7495 45.9089 57.9392 46.2312 57.9392 46.6288V47.9049C57.9367 48.2999 57.7443 48.6248 57.513 48.6248Z" fill="#B8C0CD"/>
<path d="M57.5129 49.2903H49.103C48.4819 49.2903 48.0141 48.6925 48.0141 47.9025L48.0167 46.6238C48.0167 45.8364 48.4845 45.2412 49.103 45.2412H57.5155C58.1367 45.2412 58.6045 45.8364 58.6045 46.6264V47.9051C58.5993 48.6951 58.1315 49.2903 57.5129 49.2903ZM49.3473 47.9596H53.308H57.2687C57.2712 47.9414 57.2738 47.9232 57.2738 47.9025V46.6264C57.2738 46.6056 57.2712 46.59 57.2687 46.5718H53.308H49.3473C49.3473 46.59 49.3447 46.6056 49.3447 46.6238L49.3421 47.9051C49.3421 47.9232 49.3447 47.9414 49.3473 47.9596Z" fill="#472B29"/>
<path d="M81.4643 48.6248H73.0543C72.8204 48.6248 72.6307 48.2999 72.6307 47.9049L72.6333 46.6262C72.6333 46.2312 72.823 45.9089 73.0543 45.9089H81.4669C81.7008 45.9089 81.8905 46.2312 81.8905 46.6288V47.9049C81.8879 48.2999 81.6956 48.6248 81.4643 48.6248Z" fill="#B8C0CD"/>
<path d="M81.4642 49.2903H73.0542C72.4331 49.2903 71.9653 48.6925 71.9653 47.9025L71.9679 46.6238C71.9679 45.8364 72.4357 45.2412 73.0542 45.2412H81.4668C82.0879 45.2412 82.5557 45.8364 82.5557 46.6264V47.9051C82.5505 48.6951 82.0827 49.2903 81.4642 49.2903ZM73.2985 47.9596H81.2199C81.2225 47.9414 81.2251 47.9232 81.2251 47.9025V46.6264C81.2251 46.6056 81.2225 46.59 81.2199 46.5718H73.2985C73.2985 46.59 73.2959 46.6056 73.2959 46.6238L73.2933 47.9051C73.2933 47.9232 73.2959 47.9414 73.2985 47.9596Z" fill="#472B29"/>
<path d="M59.2127 74.5149H33.9308C33.5644 74.5149 33.2655 74.2161 33.2655 73.8496C33.2655 73.4832 33.5644 73.1843 33.9308 73.1843H59.2127C59.5791 73.1843 59.878 73.4832 59.878 73.8496C59.878 74.2161 59.5791 74.5149 59.2127 74.5149Z" fill="#472B29"/>
<path d="M68.527 55.7198C68.3424 55.7198 68.1943 55.5716 68.1943 55.3871V51.2289C68.1943 51.0444 68.3424 50.8962 68.527 50.8962C68.7115 50.8962 68.8596 51.0444 68.8596 51.2289V55.3871C68.8596 55.5716 68.7115 55.7198 68.527 55.7198Z" fill="#472B29"/>
<path d="M61.8742 95.4721C61.6897 95.4721 61.5415 95.324 61.5415 95.1395V91.1476C61.5415 90.9631 61.6897 90.8149 61.8742 90.8149C62.0587 90.8149 62.2068 90.9631 62.2068 91.1476V95.1395C62.2068 95.324 62.0587 95.4721 61.8742 95.4721Z" fill="#472B29"/>
<path d="M68.527 97.3589C68.3424 97.3589 68.1943 97.2081 68.1943 97.0262V57.8248C68.1943 57.6429 68.3424 57.4922 68.527 57.4922C68.7115 57.4922 68.8596 57.6429 68.8596 57.8248V97.0262C68.8596 97.2081 68.7115 97.3589 68.527 97.3589Z" fill="#472B29"/>
<path d="M61.8742 88.8191C61.6897 88.8191 61.5415 88.671 61.5415 88.4864V48.5678C61.5415 48.3832 61.6897 48.2351 61.8742 48.2351C62.0587 48.2351 62.2068 48.3832 62.2068 48.5678V88.4864C62.2068 88.671 62.0587 88.8191 61.8742 88.8191Z" fill="#472B29"/>
<path d="M97.8008 74.5149H72.5189C72.1525 74.5149 71.8536 74.2161 71.8536 73.8496C71.8536 73.4832 72.1525 73.1843 72.5189 73.1843H97.8008C98.1672 73.1843 98.4661 73.4832 98.4661 73.8496C98.4661 74.2161 98.1672 74.5149 97.8008 74.5149Z" fill="#472B29"/>
<path d="M64.2805 61.9701L66.1699 61.9571C68.197 61.9441 69.8577 63.6438 69.8707 65.7437L69.8993 70.2111C69.9123 72.3136 68.2724 74.0341 66.2453 74.0471L64.3559 74.0575C62.3288 74.073 60.6681 72.3734 60.6525 70.2709L60.6265 65.8034C60.6135 63.7009 62.2534 61.9805 64.2805 61.9701ZM66.2973 72.1733C67.2588 72.1681 68.0359 71.3546 68.0307 70.3619L67.9995 65.6163C67.9943 64.6235 67.2069 63.8205 66.2453 63.8257L64.2311 63.8387C63.2696 63.8465 62.4925 64.6599 62.4977 65.6527L62.5263 70.3982C62.5341 71.391 63.3215 72.1941 64.2831 72.1889L66.2973 72.1733Z" fill="#D2EDF1"/>
<path d="M64.3326 74.3902C63.2697 74.3902 62.2691 73.9639 61.5128 73.1895C60.7514 72.4124 60.3277 71.3755 60.3199 70.2736L60.294 65.8061C60.2784 63.5217 62.0664 61.6505 64.278 61.6375L66.1674 61.6245C66.1752 61.6245 66.1856 61.6245 66.1934 61.6245C67.2563 61.6245 68.2569 62.0507 69.0132 62.8252C69.7747 63.6049 70.1983 64.6392 70.2061 65.7411L70.2321 70.2086C70.2476 72.493 68.4596 74.3642 66.248 74.3772L64.3586 74.3902C64.3482 74.3902 64.3404 74.3902 64.3326 74.3902ZM64.2858 62.3002C62.4406 62.3132 60.9489 63.8829 60.9593 65.8009L60.9879 70.2658C60.9931 71.1962 61.3491 72.0668 61.9884 72.7243C62.6199 73.3688 63.4516 73.7249 64.3352 73.7249C64.343 73.7249 64.3482 73.7249 64.356 73.7249L66.2454 73.7119C68.0906 73.7015 69.5823 72.1317 69.5693 70.2138L69.5408 65.7463C69.5356 64.8185 69.1795 63.9453 68.5402 63.2904C67.9087 62.6433 67.077 62.2898 66.1934 62.2898C66.1856 62.2898 66.1804 62.2898 66.1726 62.2898L64.2858 62.3002ZM64.2728 72.5216C63.1345 72.5216 62.2015 71.5704 62.1937 70.3983L62.1651 65.6554C62.1599 64.4755 63.0851 63.5139 64.2287 63.5061L66.2428 63.4931C66.2454 63.4931 66.2506 63.4931 66.2558 63.4931C67.3941 63.4931 68.3271 64.4417 68.3349 65.6138L68.3635 70.3593C68.3713 71.5366 67.4461 72.4982 66.3 72.506L64.2858 72.5216C64.2806 72.5216 64.278 72.5216 64.2728 72.5216ZM66.2532 64.1584C66.2506 64.1584 66.248 64.1584 66.2454 64.1584L64.2338 64.1714C63.4542 64.1766 62.8253 64.8393 62.8305 65.6502L62.859 70.3931C62.8642 71.2013 63.4958 71.8563 64.2728 71.8563C64.2754 71.8563 64.278 71.8563 64.2806 71.8563L66.2948 71.8407C67.0718 71.8355 67.7007 71.1728 67.6981 70.3645L67.667 65.619C67.6618 64.8107 67.0276 64.1584 66.2532 64.1584Z" fill="#472B29"/>
<path d="M64.8083 70.5229H65.7205C65.8713 70.5229 65.9908 70.6503 65.9908 70.8062L65.9882 75.5622C65.9882 75.7181 65.8687 75.8454 65.7179 75.8454H64.8057C64.6576 75.8454 64.5355 75.7181 64.5355 75.5622L64.5381 70.8062C64.5381 70.6503 64.6602 70.5229 64.8083 70.5229Z" fill="#D2EDF1"/>
<path d="M65.7201 76.178H64.8053C64.4727 76.178 64.2024 75.9025 64.2024 75.5621L64.205 70.8061C64.205 70.4657 64.4753 70.1902 64.8053 70.1902H65.7201C66.0528 70.1902 66.323 70.4657 66.323 70.8061L66.3204 75.5621C66.3204 75.9025 66.0502 76.178 65.7201 76.178ZM64.8703 70.8503L64.8677 75.5621L65.7201 75.5127L65.6577 70.8061L64.8703 70.8503ZM64.8157 70.8555H64.8053C64.8105 70.8555 64.8131 70.8555 64.8157 70.8555Z" fill="#472B29"/>
<path d="M41.9147 80.5027C41.9147 80.5027 43.999 80.5027 46.5719 80.5027C49.1448 80.5027 51.2291 78.4184 51.2291 75.8455C51.2291 73.4753 49.4515 71.5418 47.1645 71.2481C47.2008 71.009 47.2372 70.7725 47.2372 70.523C47.2372 67.9501 45.1529 65.8658 42.58 65.8658C41.2078 65.8658 39.9864 66.4714 39.1339 67.4148C38.622 65.0108 36.4909 63.2046 33.931 63.2046C30.9917 63.2046 28.6085 65.5878 28.6085 68.5271C28.6085 68.7818 28.6475 69.0235 28.6839 69.2704C28.1147 68.813 27.4 68.5271 26.6126 68.5271C24.9779 68.5271 23.6265 69.707 23.3458 71.2611C23.1067 71.2247 22.8702 71.1883 22.6207 71.1883C20.0478 71.1883 17.9635 73.2726 17.9635 75.8455C17.9635 78.4184 20.0478 80.5027 22.6207 80.5027C25.1936 80.5027 32.6004 80.5027 32.6004 80.5027V81.168H41.9147V80.5027Z" fill="#FDFCEF"/>
<path d="M44.2431 74.5147C44.0586 74.5147 43.9105 74.3666 43.9105 74.1821C43.9105 72.5552 45.2333 71.2297 46.8628 71.2297C46.907 71.2427 47.8425 71.2297 48.5183 71.4117C48.695 71.4584 48.7989 71.643 48.7522 71.8197C48.7028 71.9964 48.5209 72.103 48.3441 72.0536C47.7542 71.8924 46.881 71.8924 46.8628 71.895C45.6023 71.895 44.5758 72.9216 44.5758 74.1821C44.5758 74.3666 44.4276 74.5147 44.2431 74.5147ZM35.2614 79.8372C34.895 79.8372 34.5961 80.1361 34.5961 80.5025C34.5961 80.869 34.895 81.1678 35.2614 81.1678C35.6278 81.1678 35.9267 80.869 35.9267 80.5025C35.9267 80.1361 35.6278 79.8372 35.2614 79.8372Z" fill="#472B29"/>
<path d="M46.5718 81.168H41.9146C41.5482 81.168 41.2493 80.8692 41.2493 80.5027C41.2493 80.1363 41.5482 79.8374 41.9146 79.8374H46.5718C48.7731 79.8374 50.5637 78.0468 50.5637 75.8455C50.5637 73.8548 49.0667 72.1629 47.0812 71.9082C46.9019 71.8849 46.7407 71.7913 46.6342 71.6484C46.525 71.5028 46.4809 71.3235 46.5068 71.1468C46.538 70.9415 46.5718 70.7361 46.5718 70.523C46.5718 68.3218 44.7812 66.5312 42.58 66.5312C41.4494 66.5312 40.3995 67.0042 39.6276 67.8618C39.4613 68.0463 39.2014 68.1243 38.9623 68.0593C38.7206 67.9943 38.5361 67.7994 38.4841 67.5551C38.0293 65.4189 36.114 63.8699 33.9309 63.8699C31.3632 63.8699 29.2737 65.9594 29.2737 68.5271C29.2737 68.7168 29.3023 68.8987 29.3283 69.0833C29.3673 69.3535 29.2451 69.6654 29.006 69.8006C28.7669 69.9383 28.4785 69.9591 28.2654 69.7876C27.782 69.3977 27.2102 69.1924 26.6125 69.1924C25.326 69.1924 24.2267 70.1124 24.0006 71.3807C23.9356 71.7341 23.6056 71.9732 23.2443 71.9186C23.039 71.8875 22.8337 71.8537 22.6206 71.8537C20.4194 71.8537 18.6287 73.6443 18.6287 75.8455C18.6287 78.0468 20.4194 79.8374 22.6206 79.8374H32.6003C32.9667 79.8374 33.2656 80.1363 33.2656 80.5027C33.2656 80.8692 32.9667 81.168 32.6003 81.168H22.6206C19.6865 81.168 17.2981 78.7797 17.2981 75.8455C17.2981 72.9114 19.6865 70.523 22.6206 70.523C22.6986 70.523 22.7739 70.5256 22.8519 70.5308C23.4029 68.9533 24.8972 67.8618 26.6125 67.8618C27.0777 67.8618 27.5299 67.9424 27.9587 68.1009C28.177 64.9978 30.7733 62.5393 33.9309 62.5393C36.366 62.5393 38.5439 64.0389 39.4561 66.2297C40.3605 65.567 41.4546 65.2006 42.58 65.2006C45.5141 65.2006 47.9024 67.5889 47.9024 70.523C47.9024 70.588 47.8998 70.6504 47.8972 70.7128C50.2154 71.3079 51.8943 73.4104 51.8943 75.8455C51.8943 78.7797 49.5059 81.168 46.5718 81.168Z" fill="#472B29"/>
<path d="M39.2534 79.8374C39.0429 79.8374 38.1333 79.8374 37.9228 79.8374C37.5563 79.8374 37.2575 80.1363 37.2575 80.5027C37.2575 80.8692 37.5563 81.168 37.9228 81.168C38.1333 81.168 39.0429 81.168 39.2534 81.168C39.6198 81.168 39.9187 80.8692 39.9187 80.5027C39.9187 80.1363 39.6198 79.8374 39.2534 79.8374Z" fill="#472B29"/>
<defs>
<filter id="filter0_d" x="0.320657" y="10.8586" width="128.536" height="115.23" filterUnits="userSpaceOnUse" color-interpolation-filters="sRGB">
<feFlood flood-opacity="0" result="BackgroundImageFix"/>
<feColorMatrix in="SourceAlpha" type="matrix" values="0 0 0 0 0 0 0 0 0 0 0 0 0 0 0 0 0 0 127 0"/>
<feOffset dx="-1.94251" dy="1.94251"/>
<feGaussianBlur stdDeviation="4.85629"/>
<feColorMatrix type="matrix" values="0 0 0 0 0 0 0 0 0 0 0 0 0 0 0 0 0 0 0.2 0"/>
<feBlend mode="normal" in2="BackgroundImageFix" result="effect1_dropShadow"/>
<feBlend mode="normal" in="SourceGraphic" in2="effect1_dropShadow" result="shape"/>
</filter>
</defs>
</svg>
