<svg width="87" height="87" viewBox="0 0 87 87" fill="none" xmlns="http://www.w3.org/2000/svg">
<g filter="url(#filter0_f)">
<circle cx="43.5" cy="43.5" r="13.5" fill="#4794EF"/>
</g>
<g clip-path="url(#clip0)">
<path d="M56.2184 62.1485C56.2184 60.6455 57.3555 59.4276 58.7586 59.4276H58.8151C60.2153 59.4276 61.3521 60.6406 61.3554 62.1409C61.3672 67.0494 61.3596 67.5311 61.3527 74.8623C61.3485 78.9787 58.2323 82.3126 54.39 82.3126H46.1401C43.6156 82.3126 41.2881 80.8481 40.058 78.4861L32.7026 64.3545L33.471 63.7171C35.0622 62.2545 37.4554 62.4345 38.8401 64.1197L40.8987 66.6258L40.9105 49.3854C40.9115 47.8832 42.0486 46.6659 43.4507 46.6659H43.4517C44.8548 46.6659 45.992 47.8848 45.992 49.3877V59.8217C46.0258 58.3506 47.1495 57.1711 48.5306 57.1711H48.5904C49.9935 57.1711 51.131 58.3893 51.131 59.8923V60.7683C51.131 59.2651 52.2681 58.0472 53.6719 58.0472H53.6778C55.0809 58.0472 56.2184 59.2651 56.2184 60.7683V62.1485Z" fill="white"/>
<path d="M58.785 58.7893H58.7285C57.9614 58.7857 57.2206 59.0677 56.6506 59.5807C56.1892 58.3026 55.0163 57.3832 53.6417 57.3832C52.7988 57.3891 51.9943 57.7355 51.4105 58.344C50.8743 57.2574 49.7985 56.5196 48.5602 56.5196H48.5005C47.8388 56.5084 47.1923 56.7202 46.6656 57.1212V49.3878C46.6656 47.5164 45.2086 45.9934 43.4364 45.9934C41.6658 45.9934 40.2167 47.5151 40.2157 49.3848L40.2013 64.7495L39.3314 63.6931C38.569 62.7442 37.4466 62.1551 36.2329 62.0661C35.0433 61.9843 33.8726 62.3984 32.9992 63.2101L32.2433 63.837C31.9993 64.0389 31.9297 64.384 32.0758 64.6651L39.4313 78.8043C40.7763 81.388 43.3356 82.9999 46.1096 82.9999H54.3596C58.5653 82.9999 61.9905 79.3491 61.9951 74.8705C61.9971 72.8402 61.9987 71.3313 62.0004 70.1124C62.0046 66.897 62.006 65.709 61.9974 62.159C61.9935 60.2922 60.5523 58.7893 58.785 58.7893ZM60.6557 70.1068C60.6541 71.3257 60.6521 72.8382 60.6501 74.8685C60.6462 78.6063 57.8245 81.6543 54.3599 81.6543H46.11C43.839 81.6543 41.7371 80.3198 40.6245 78.1827L33.5196 64.5292L33.87 64.2366C33.8785 64.2294 33.8874 64.2208 33.8959 64.2133C34.4992 63.6452 35.3112 63.3536 36.138 63.4081C36.9823 63.4725 37.7618 63.8852 38.2902 64.5469L40.3487 67.0527C40.529 67.2724 40.8275 67.3548 41.0951 67.2592C41.3624 67.1633 41.5407 66.9102 41.541 66.6261L41.5528 49.3858C41.5535 48.2569 42.4069 47.3384 43.437 47.3384C44.4671 47.3384 45.3206 48.2578 45.3206 49.3878V59.8158C45.3206 59.841 45.3189 59.866 45.3189 59.8916C45.3189 59.9025 45.3206 59.9133 45.3206 59.9241V64.3837C45.3206 64.7551 45.6217 65.0562 45.9931 65.0562C46.3644 65.0562 46.6656 64.7551 46.6656 64.3837V59.8335C46.6656 58.7361 47.4976 57.8646 48.5005 57.8646H48.5602C49.5903 57.8646 50.4484 58.7627 50.4484 59.8923V63.9591C50.4484 64.3308 50.7495 64.6316 51.1209 64.6316C51.4922 64.6316 51.7934 64.3308 51.7934 63.9591V60.7684C51.7934 59.6388 52.6097 58.7197 53.646 58.7197C54.6761 58.7197 55.4921 59.6388 55.4921 60.7684V63.7785C55.4921 64.1499 55.7932 64.451 56.1646 64.451C56.536 64.451 56.8371 64.1499 56.8371 63.7785V62.1485C56.8371 61.0189 57.6984 60.1343 58.7285 60.1343H58.785C59.8121 60.1343 60.6501 61.0334 60.6527 62.16C60.6613 65.7077 60.6596 66.8931 60.6557 70.1068Z" fill="#4794EF"/>
<path d="M38.0794 49.678C38.4507 49.678 38.7519 49.3769 38.7519 49.0055C38.7519 46.4315 40.8383 44.345 43.4124 44.345C45.9862 44.345 48.0726 46.4315 48.0726 49.0055C48.0726 49.3769 48.3737 49.678 48.7451 49.678C49.1168 49.678 49.4176 49.3769 49.4176 49.0055C49.4176 45.6887 46.7289 43 43.4124 43C40.0955 43 37.4069 45.6887 37.4069 49.0055C37.4069 49.3769 37.708 49.678 38.0794 49.678Z" fill="#4794EF"/>
</g>
<defs>
<filter id="filter0_f" x="0" y="0" width="87" height="87" filterUnits="userSpaceOnUse" color-interpolation-filters="sRGB">
<feFlood flood-opacity="0" result="BackgroundImageFix"/>
<feBlend mode="normal" in="SourceGraphic" in2="BackgroundImageFix" result="shape"/>
<feGaussianBlur stdDeviation="15" result="effect1_foregroundBlur"/>
</filter>
<clipPath id="clip0">
<rect width="40" height="40" fill="white" transform="translate(27 43)"/>
</clipPath>
</defs>
</svg>
