<svg width="50" height="50" viewBox="0 0 50 50" fill="none" xmlns="http://www.w3.org/2000/svg">
<path d="M25 49C38.2548 49 49 38.2548 49 25C49 11.7452 38.2548 1 25 1C11.7452 1 1 11.7452 1 25C1 38.2548 11.7452 49 25 49Z" stroke="#C4C4C4" stroke-width="2"/>
<path d="M25 49C38.2548 49 49 38.2548 49 25C49 11.7452 38.2548 1 25 1C11.7452 1 1 11.7452 1 25C1 38.2548 11.7452 49 25 49Z" stroke="url(#paint0_linear)" stroke-width="2"/>
<path d="M25 15V35" stroke="#27295A" stroke-width="2" stroke-linejoin="round"/>
<path d="M15 25H35" stroke="#27295A" stroke-width="2" stroke-linejoin="round"/>
<defs>
<linearGradient id="paint0_linear" x1="5.78947" y1="84.8039" x2="76.5208" y2="66.333" gradientUnits="userSpaceOnUse">
<stop stop-color="#34A99B"/>
<stop offset="1" stop-color="#87E2D9"/>
</linearGradient>
</defs>
</svg>
