<svg width="137" height="19" viewBox="0 0 137 19" fill="none" xmlns="http://www.w3.org/2000/svg">
<path d="M18.458 3.92L16.742 4.448V16.174L18.458 16.636V18H12.54V16.636L14.256 16.196V6.274L10.318 13.974L8.58 14.084L4.796 6.252V16.196L6.512 16.636V18H0.88V16.636L2.596 16.174V4.448L0.88 4.03V2.666L5.918 2.556L9.768 11.026L13.772 2.666L18.458 2.556V3.92ZM27.3512 18.154L27.0212 16.284C26.4345 16.944 25.7965 17.4353 25.1072 17.758C24.4178 18.0807 23.7432 18.242 23.0832 18.242C22.1738 18.242 21.4112 17.956 20.7952 17.384C20.1938 16.7973 19.8932 15.9467 19.8932 14.832C19.8932 13.5707 20.2892 12.698 21.0812 12.214C21.8878 11.7153 23.0025 11.466 24.4252 11.466H26.7572V10.036C26.7572 9.31733 26.5738 8.804 26.2072 8.496C25.8405 8.17333 25.3198 8.012 24.6452 8.012C24.0585 8.012 23.3912 8.122 22.6432 8.342L22.4012 9.97H20.7072L20.5312 6.89C22.4378 6.33267 24.0438 6.054 25.3492 6.054C26.6398 6.054 27.6372 6.34 28.3412 6.912C29.0452 7.46933 29.3972 8.34933 29.3972 9.552V16.174L30.9592 16.614V17.978L27.3512 18.154ZM22.5552 14.59C22.5552 15.1913 22.6945 15.6313 22.9732 15.91C23.2518 16.174 23.6112 16.306 24.0512 16.306C24.4472 16.306 24.8798 16.1887 25.3492 15.954C25.8332 15.7193 26.3025 15.3893 26.7572 14.964V12.984H24.8432C23.9778 12.984 23.3765 13.116 23.0392 13.38C22.7165 13.644 22.5552 14.0473 22.5552 14.59ZM31.6778 18V16.636L33.2178 16.218V2.864L31.6778 2.468V1.104L35.8578 0.927999V10.674H37.8598L39.5978 7.968L38.3218 7.726V6.384L43.4918 6.208V7.572L42.1278 7.858L39.8618 11.334L42.5238 16.262L43.9978 16.636V18H40.6978L37.8378 12.456H35.8578V16.196L37.3538 16.636V18H31.6778ZM49.4699 18.242C47.9153 18.242 46.6539 17.7433 45.6859 16.746C44.7179 15.734 44.2339 14.2673 44.2339 12.346C44.2339 11.0553 44.4613 9.94067 44.9159 9.002C45.3853 8.04867 46.0379 7.32267 46.8739 6.824C47.7246 6.31067 48.7293 6.054 49.8879 6.054C50.9879 6.054 51.8826 6.28133 52.5719 6.736C53.2759 7.176 53.7966 7.78467 54.1339 8.562C54.4713 9.33933 54.6399 10.2193 54.6399 11.202C54.6399 11.642 54.6033 12.104 54.5299 12.588H46.9619C47.0353 13.688 47.3213 14.5753 47.8199 15.25C48.3333 15.9247 49.0959 16.262 50.1079 16.262C50.6213 16.262 51.1786 16.1667 51.7799 15.976C52.3813 15.7853 53.0046 15.492 53.6499 15.096L54.5519 16.526C53.7159 17.098 52.8653 17.5307 51.9999 17.824C51.1346 18.1027 50.2913 18.242 49.4699 18.242ZM49.6679 7.99C48.8759 7.99 48.2673 8.26133 47.8419 8.804C47.4166 9.34667 47.1453 10.0507 47.0279 10.916H51.9119C51.9119 10.08 51.7359 9.38333 51.3839 8.826C51.0466 8.26867 50.4746 7.99 49.6679 7.99ZM65.2742 16.636V18H59.6422V16.636L61.0722 16.218L66.1762 2.6L68.9262 2.512L73.7442 16.218L75.1522 16.636V18H69.0362V16.636L70.7082 16.196L69.9602 13.776H64.3942L63.5362 16.218L65.2742 16.636ZM64.9882 11.884H69.4102L67.3422 5.02L64.9882 11.884ZM80.043 18.242C79.207 18.242 78.459 18.022 77.799 17.582C77.1537 17.1273 76.6404 16.4673 76.259 15.602C75.8777 14.722 75.687 13.6513 75.687 12.39C75.687 10.2633 76.2297 8.67933 77.315 7.638C78.4004 6.582 79.911 6.054 81.847 6.054C82.3457 6.054 82.8957 6.10533 83.497 6.208V2.93L81.825 2.446V1.104L86.137 0.927999V16.196L87.677 16.614V17.978L84.069 18.132L83.783 16.57C82.5657 17.6847 81.319 18.242 80.043 18.242ZM81.033 16.284C81.8104 16.284 82.6317 15.9173 83.497 15.184V8.21C82.8664 8.034 82.287 7.946 81.759 7.946C80.6297 7.946 79.7937 8.32 79.251 9.068C78.7084 9.816 78.437 10.8427 78.437 12.148C78.437 13.424 78.6717 14.436 79.141 15.184C79.625 15.9173 80.2557 16.284 81.033 16.284ZM96.194 6.406C96.194 6.87533 96.3406 7.264 96.634 7.572C96.9273 7.86533 97.3086 8.11467 97.778 8.32C98.262 8.52533 98.79 8.72333 99.362 8.914C99.934 9.09 100.506 9.288 101.078 9.508C101.65 9.728 102.171 10.0067 102.64 10.344C103.124 10.6813 103.513 11.114 103.806 11.642C104.099 12.1553 104.246 12.8007 104.246 13.578C104.246 14.6487 103.967 15.5287 103.41 16.218C102.867 16.9073 102.134 17.4207 101.21 17.758C100.301 18.0953 99.296 18.264 98.196 18.264C97.4333 18.264 96.6486 18.1833 95.842 18.022C95.05 17.8753 94.2726 17.648 93.51 17.34L93.62 13.336H95.204L95.578 15.668C96.458 16.0493 97.3746 16.24 98.328 16.24C98.9293 16.24 99.472 16.1593 99.956 15.998C100.455 15.822 100.851 15.5653 101.144 15.228C101.437 14.8907 101.584 14.458 101.584 13.93C101.584 13.4313 101.437 13.028 101.144 12.72C100.865 12.3973 100.484 12.1333 100 11.928C99.5306 11.708 99.01 11.5173 98.438 11.356C97.866 11.18 97.294 10.9893 96.722 10.784C96.15 10.564 95.622 10.2927 95.138 9.97C94.6686 9.64733 94.2873 9.22933 93.994 8.716C93.7153 8.20267 93.576 7.55 93.576 6.758C93.576 5.76067 93.818 4.932 94.302 4.272C94.786 3.612 95.446 3.12067 96.282 2.798C97.118 2.47533 98.0566 2.314 99.098 2.314C100.609 2.314 102.171 2.62933 103.784 3.26L103.564 6.978H101.936L101.562 4.712C100.799 4.448 100.022 4.316 99.23 4.316C98.702 4.316 98.2033 4.38933 97.734 4.536C97.2793 4.668 96.9053 4.888 96.612 5.196C96.3333 5.504 96.194 5.90733 96.194 6.406ZM113.289 18.154L112.959 16.284C112.372 16.944 111.734 17.4353 111.045 17.758C110.355 18.0807 109.681 18.242 109.021 18.242C108.111 18.242 107.349 17.956 106.733 17.384C106.131 16.7973 105.831 15.9467 105.831 14.832C105.831 13.5707 106.227 12.698 107.019 12.214C107.825 11.7153 108.94 11.466 110.363 11.466H112.695V10.036C112.695 9.31733 112.511 8.804 112.145 8.496C111.778 8.17333 111.257 8.012 110.583 8.012C109.996 8.012 109.329 8.122 108.581 8.342L108.339 9.97H106.645L106.469 6.89C108.375 6.33267 109.981 6.054 111.287 6.054C112.577 6.054 113.575 6.34 114.279 6.912C114.983 7.46933 115.335 8.34933 115.335 9.552V16.174L116.897 16.614V17.978L113.289 18.154ZM108.493 14.59C108.493 15.1913 108.632 15.6313 108.911 15.91C109.189 16.174 109.549 16.306 109.989 16.306C110.385 16.306 110.817 16.1887 111.287 15.954C111.771 15.7193 112.24 15.3893 112.695 14.964V12.984H110.781C109.915 12.984 109.314 13.116 108.977 13.38C108.654 13.644 108.493 14.0473 108.493 14.59ZM117.945 18V16.636L119.485 16.218V8.166H117.879V6.758L119.485 6.406V5.196C119.485 3.68533 119.881 2.57067 120.673 1.852C121.48 1.13333 122.543 0.773999 123.863 0.773999C124.259 0.773999 124.67 0.810665 125.095 0.883999C125.521 0.957332 125.968 1.06 126.437 1.192L126.063 2.952C125.755 2.864 125.455 2.798 125.161 2.754C124.868 2.69533 124.582 2.666 124.303 2.666C123.658 2.666 123.13 2.84933 122.719 3.216C122.323 3.568 122.125 4.15467 122.125 4.976V6.406H124.985L124.941 8.166H122.125V16.218L123.995 16.636V18H117.945ZM131.068 18.242C129.513 18.242 128.252 17.7433 127.284 16.746C126.316 15.734 125.832 14.2673 125.832 12.346C125.832 11.0553 126.059 9.94067 126.514 9.002C126.983 8.04867 127.636 7.32267 128.472 6.824C129.322 6.31067 130.327 6.054 131.486 6.054C132.586 6.054 133.48 6.28133 134.17 6.736C134.874 7.176 135.394 7.78467 135.732 8.562C136.069 9.33933 136.238 10.2193 136.238 11.202C136.238 11.642 136.201 12.104 136.128 12.588H128.56C128.633 13.688 128.919 14.5753 129.418 15.25C129.931 15.9247 130.694 16.262 131.706 16.262C132.219 16.262 132.776 16.1667 133.378 15.976C133.979 15.7853 134.602 15.492 135.248 15.096L136.15 16.526C135.314 17.098 134.463 17.5307 133.598 17.824C132.732 18.1027 131.889 18.242 131.068 18.242ZM131.266 7.99C130.474 7.99 129.865 8.26133 129.44 8.804C129.014 9.34667 128.743 10.0507 128.626 10.916H133.51C133.51 10.08 133.334 9.38333 132.982 8.826C132.644 8.26867 132.072 7.99 131.266 7.99Z" fill="#27295A"/>
</svg>
