<svg width="130" height="130" viewBox="0 0 130 130" fill="none" xmlns="http://www.w3.org/2000/svg">
<path d="M115.314 72.3763C115.704 71.5755 116.05 70.7331 116.349 69.8504C119.772 59.7494 114.595 47.649 103.696 44.7279C102.518 29.93 92.118 19.7783 80.3725 18.0454C66.9292 16.0629 54.6143 24.6026 50.5167 38.1759C45.578 36.4261 40.7654 36.6393 36.2297 39.29C34.1718 40.2416 32.2894 41.6456 30.6007 43.4929C28.1216 46.2047 26.5096 49.6276 25.8531 53.2364C24.8807 53.3898 23.9252 53.5432 23.0243 53.8656C17.7723 55.7493 14.4586 59.6259 13.5499 65.4655C12.9844 69.1016 14.1258 72.7286 14.7628 74.1937C17.2783 79.9852 23.1114 83.2677 29.0381 82.3993C29.3332 82.3564 29.7622 82.489 30.0157 82.7022C30.329 91.9582 34.8231 100.144 41.5649 104.82C52.3822 112.324 66.3 110.013 75.0802 99.7231C78.8424 103.571 83.3196 105.441 88.5794 104.762C93.8093 104.087 97.8705 101.201 100.833 96.5082C102.202 96.8761 103.499 97.4065 104.841 97.5534C110.096 98.128 114.362 96.0389 117.493 91.3134C118.691 89.5051 119.824 87.1612 119.824 83.0532C119.825 78.8204 118.144 74.9633 115.314 72.3763Z" fill="#3DB4DA" fill-opacity="0.3"/>
<path d="M23.8798 62.0244H10.8395C10.4807 62.0244 10.1895 61.7332 10.1895 61.3744C10.1895 61.0156 10.4807 60.7244 10.8395 60.7244H23.8785C24.2373 60.7244 24.5285 61.0156 24.5285 61.3744C24.5285 61.7332 24.2386 62.0244 23.8798 62.0244ZM27.6238 62.0244H25.7453C25.3865 62.0244 25.0953 61.7332 25.0953 61.3744C25.0953 61.0156 25.3865 60.7244 25.7453 60.7244H27.6238C27.9826 60.7244 28.2738 61.0156 28.2738 61.3744C28.2738 61.7332 27.9839 62.0244 27.6238 62.0244ZM32.8953 62.0244H29.5855C29.2267 62.0244 28.9355 61.7332 28.9355 61.3744C28.9355 61.0156 29.2267 60.7244 29.5855 60.7244H32.8953C33.2541 60.7244 33.5453 61.0156 33.5453 61.3744C33.5453 61.7332 33.2541 62.0244 32.8953 62.0244ZM32.8953 64.4476H20.3945C20.0357 64.4476 19.7445 64.1564 19.7445 63.7976C19.7445 63.4388 20.0357 63.1476 20.3945 63.1476H32.8953C33.2541 63.1476 33.5453 63.4388 33.5453 63.7976C33.5453 64.1564 33.2541 64.4476 32.8953 64.4476ZM18.1429 64.4476H17.3889C17.0301 64.4476 16.7389 64.1564 16.7389 63.7976C16.7389 63.4388 17.0301 63.1476 17.3889 63.1476H18.1429C18.5017 63.1476 18.7929 63.4388 18.7929 63.7976C18.7929 64.1564 18.503 64.4476 18.1429 64.4476ZM15.0528 64.4476H13.16C12.8012 64.4476 12.51 64.1564 12.51 63.7976C12.51 63.4388 12.8012 63.1476 13.16 63.1476H15.0528C15.4116 63.1476 15.7028 63.4388 15.7028 63.7976C15.7028 64.1564 15.4129 64.4476 15.0528 64.4476ZM26.9296 59.5986H20.3945C20.0357 59.5986 19.7445 59.3074 19.7445 58.9486C19.7445 58.5898 20.0357 58.2986 20.3945 58.2986H26.9296C27.2884 58.2986 27.5796 58.5898 27.5796 58.9486C27.5796 59.3074 27.2897 59.5986 26.9296 59.5986ZM26.9296 57.1741H25.2955C24.9367 57.1741 24.6455 56.8829 24.6455 56.5241C24.6455 56.1653 24.9367 55.8741 25.2955 55.8741H26.9296C27.2884 55.8741 27.5796 56.1653 27.5796 56.5241C27.5796 56.8829 27.2897 57.1741 26.9296 57.1741ZM22.6812 66.8721H20.3945C20.0357 66.8721 19.7445 66.5809 19.7445 66.2221C19.7445 65.8633 20.0357 65.5721 20.3945 65.5721H22.6812C23.04 65.5721 23.3312 65.8633 23.3312 66.2221C23.3312 66.5809 23.04 66.8721 22.6812 66.8721ZM93.0098 27.863H79.9708C79.612 27.863 79.3208 27.5718 79.3208 27.213C79.3208 26.8542 79.612 26.563 79.9708 26.563H93.0098C93.3686 26.563 93.6598 26.8542 93.6598 27.213C93.6598 27.5718 93.3699 27.863 93.0098 27.863ZM96.7551 27.863H94.8766C94.5178 27.863 94.2266 27.5718 94.2266 27.213C94.2266 26.8542 94.5178 26.563 94.8766 26.563H96.7551C97.1139 26.563 97.4052 26.8542 97.4052 27.213C97.4052 27.5718 97.1139 27.863 96.7551 27.863ZM102.027 27.863H98.7168C98.358 27.863 98.0668 27.5718 98.0668 27.213C98.0668 26.8542 98.358 26.563 98.7168 26.563H102.027C102.385 26.563 102.677 26.8542 102.677 27.213C102.677 27.5718 102.385 27.863 102.027 27.863ZM99.3928 23.0153H86.892C86.5332 23.0153 86.242 22.7241 86.242 22.3653C86.242 22.0065 86.5332 21.7153 86.892 21.7153H99.3928C99.7516 21.7153 100.043 22.0065 100.043 22.3653C100.043 22.7241 99.7529 23.0153 99.3928 23.0153ZM84.6417 23.0153H83.8877C83.5289 23.0153 83.2377 22.7241 83.2377 22.3653C83.2377 22.0065 83.5289 21.7153 83.8877 21.7153H84.6417C85.0005 21.7153 85.2917 22.0065 85.2917 22.3653C85.2917 22.7241 85.0005 23.0153 84.6417 23.0153ZM81.5516 23.0153H79.6588C79.3 23.0153 79.0088 22.7241 79.0088 22.3653C79.0088 22.0065 79.3 21.7153 79.6588 21.7153H81.5516C81.9104 21.7153 82.2016 22.0065 82.2016 22.3653C82.2016 22.7241 81.9104 23.0153 81.5516 23.0153ZM96.0609 25.4385H89.5258C89.167 25.4385 88.8758 25.1473 88.8758 24.7885C88.8758 24.4297 89.167 24.1385 89.5258 24.1385H96.0609C96.4197 24.1385 96.7109 24.4297 96.7109 24.7885C96.7109 25.1473 96.4197 25.4385 96.0609 25.4385Z" fill="white"/>
<path d="M96.0608 23.0153H94.4267C94.0679 23.0153 93.7767 22.7241 93.7767 22.3653C93.7767 22.0065 94.0679 21.7153 94.4267 21.7153H96.0608C96.4196 21.7153 96.7108 22.0065 96.7108 22.3653C96.7108 22.7241 96.4196 23.0153 96.0608 23.0153ZM87.6342 25.4385H85.3475C84.9887 25.4385 84.6975 25.1473 84.6975 24.7885C84.6975 24.4297 84.9887 24.1385 85.3475 24.1385H87.6342C87.993 24.1385 88.2842 24.4297 88.2842 24.7885C88.2842 25.1473 87.993 25.4385 87.6342 25.4385Z" fill="white"/>
<path d="M45.6378 83.8811C45.279 83.8811 44.9878 83.5899 44.9878 83.2311V61.3794C44.9878 58.1918 42.3943 55.5983 39.2067 55.5983H35.932C35.5732 55.5983 35.282 55.3071 35.282 54.9483C35.282 54.5895 35.5732 54.2983 35.932 54.2983H39.2067C43.1119 54.2983 46.2878 57.4742 46.2878 61.3794V83.2311C46.2878 83.5899 45.9966 83.8811 45.6378 83.8811Z" fill="#002950"/>
<path d="M33.1864 58.5039C31.5432 58.5039 30.2068 57.1675 30.2068 55.5243C30.2068 53.8811 31.5432 52.5447 33.1864 52.5447C34.8296 52.5447 36.166 53.8811 36.166 55.5243C36.166 57.1675 34.8283 58.5039 33.1864 58.5039ZM33.1864 53.8447C32.2595 53.8447 31.5068 54.5974 31.5068 55.5243C31.5068 56.4512 32.2595 57.2039 33.1864 57.2039C34.1133 57.2039 34.866 56.4512 34.866 55.5243C34.866 54.5974 34.1133 53.8447 33.1864 53.8447ZM74.854 91.0871C74.4952 91.0871 74.204 90.7959 74.204 90.4371V75.1556C74.204 74.7968 74.4952 74.5056 74.854 74.5056C75.2128 74.5056 75.504 74.7968 75.504 75.1556V90.4371C75.504 90.7959 75.2141 91.0871 74.854 91.0871Z" fill="#002950"/>
<path d="M91.4797 91.0872H59.0057C58.6469 91.0872 58.3557 90.796 58.3557 90.4372C58.3557 90.0784 58.6469 89.7872 59.0057 89.7872H91.4784C92.4196 89.7872 93.184 89.0227 93.184 88.0828V66.2416C93.184 65.8828 93.4752 65.5916 93.834 65.5916C94.1928 65.5916 94.484 65.8828 94.484 66.2416V88.0842C94.484 89.7404 93.1359 91.0872 91.4797 91.0872Z" fill="#002950"/>
<path d="M74.7655 87.572C74.1322 87.572 73.5248 87.8236 73.0769 88.2715C72.629 88.7193 72.3774 89.3268 72.3774 89.9601C72.3774 90.5935 72.629 91.2009 73.0769 91.6488C73.5248 92.0966 74.1322 92.3482 74.7655 92.3482C75.3989 92.3482 76.0063 92.0966 76.4542 91.6488C76.902 91.2009 77.1536 90.5935 77.1536 89.9601C77.1536 89.3268 76.902 88.7193 76.4542 88.2715C76.0063 87.8236 75.3989 87.572 74.7655 87.572Z" fill="#E63946"/>
<path d="M74.7655 92.8357C73.1795 92.8357 71.8899 91.5461 71.8899 89.9601C71.8899 88.3741 73.1795 87.0845 74.7655 87.0845C76.3515 87.0845 77.6411 88.3741 77.6411 89.9601C77.6411 91.5461 76.3515 92.8357 74.7655 92.8357ZM74.7655 88.0595C73.7177 88.0595 72.8649 88.9123 72.8649 89.9601C72.8649 91.0079 73.7177 91.8607 74.7655 91.8607C75.8133 91.8607 76.6661 91.0079 76.6661 89.9601C76.6661 88.9123 75.8133 88.0595 74.7655 88.0595Z" fill="#2F005F"/>
<path d="M72.9443 76.1112L72.9742 78.8009C72.9443 79.7655 73.723 80.4168 74.9047 80.4168C76.0864 80.4168 76.7676 79.5874 76.765 78.8048V76.1099H72.9443V76.1112Z" fill="#1D4681"/>
<path d="M74.906 81.0668C74.0844 81.0668 73.3746 80.8003 72.9066 80.318C72.5075 79.9085 72.3073 79.3755 72.3255 78.7814L72.2969 76.1177C72.2956 75.9435 72.3632 75.7758 72.4854 75.6536C72.6076 75.5314 72.774 75.4612 72.9469 75.4612H76.7663C77.1251 75.4612 77.4163 75.7524 77.4163 76.1112V78.8061C77.4176 79.3638 77.181 79.9215 76.7676 80.3388C76.297 80.8081 75.6366 81.0668 74.906 81.0668ZM73.6034 76.7599L73.6255 78.7918C73.6177 79.0583 73.6905 79.2559 73.84 79.4119C74.061 79.6407 74.4406 79.7655 74.906 79.7655C75.3974 79.7655 75.6886 79.5757 75.8459 79.4184C76.0188 79.2455 76.1176 79.0219 76.1163 78.8061V76.7586H73.6034V76.7599Z" fill="#002950"/>
<path d="M86.3525 39.3211C80.2269 39.3211 75.2271 35.8657 74.8293 31.499H74.7825H74.7487H74.7019C74.3041 35.8657 69.3043 39.3211 63.1787 39.3211C60.9323 39.3211 58.8419 38.8492 57.0674 38.0445V62.1699C57.0674 69.5214 74.7474 77.0302 74.7669 77.0224C74.7851 77.0302 92.4651 69.5201 92.4651 62.1699V38.0445C90.6893 38.8492 88.5989 39.3211 86.3525 39.3211Z" fill="#FDFCEE"/>
<path d="M74.9542 77.8921C74.8957 77.8921 74.8268 77.8843 74.7501 77.8713C74.598 77.8947 74.4823 77.8921 74.4082 77.8596L74.4355 77.7959C72.3074 77.181 66.3248 73.7646 64.1109 72.267C58.8329 68.6933 56.1575 65.2964 56.1575 62.1686V38.0445C56.1575 37.7351 56.3148 37.4478 56.5735 37.2801C56.8348 37.1111 57.1598 37.0877 57.4432 37.2151C59.1696 37.9977 61.1534 38.4098 63.1801 38.4098C68.7766 38.4098 73.4397 35.3379 73.7959 31.4145C73.8388 30.9465 74.2314 30.5864 74.702 30.5864C75.1726 30.5864 75.6939 30.9452 75.7368 31.4145C76.093 35.3379 80.7574 38.4098 86.3539 38.4098C88.3806 38.4098 90.3631 37.9977 92.0895 37.2151C92.3755 37.0877 92.7005 37.1124 92.9592 37.2801C93.2179 37.4478 93.3752 37.7351 93.3752 38.0445V62.1699C93.3752 65.3926 90.536 68.8987 84.9382 72.5907C83.3145 73.6619 77.2344 77.1914 75.0764 77.7985L75.1037 77.87C75.066 77.8843 75.014 77.8921 74.9542 77.8921ZM57.9762 39.3835V62.1699C57.9762 67.9016 71.3259 74.5823 74.767 76.0396C78.6332 74.4211 91.5539 67.8899 91.5539 62.1699V39.3835C89.9237 39.9412 88.1505 40.2311 86.3526 40.2311C81.1357 40.2311 76.6026 37.8053 74.7657 34.3551C72.9288 37.804 68.3957 40.2311 63.1788 40.2311C61.3796 40.2311 59.6064 39.9399 57.9762 39.3835Z" fill="#002950"/>
<path d="M84.4767 43.1587C79.3586 43.1587 75.1829 40.3481 74.8501 36.7952H74.8111H74.7825H74.7435C74.412 40.3468 70.1181 42.757 65 42.757C63.1228 42.757 61.4302 42.1746 59.9482 41.5207L60.0119 61.7461C60.0119 67.7261 74.7825 73.8348 74.7981 73.8283C74.8137 73.8348 89.5844 67.7261 89.5844 61.7461V42.12C88.1011 42.7739 86.3539 43.1587 84.4767 43.1587Z" fill="#37AFD6"/>
<path d="M74.7656 57.048H59.9482C59.6973 57.048 59.4932 56.8452 59.4932 56.593C59.4932 56.3408 59.696 56.138 59.9482 56.138H74.3119V39.3498C72.761 41.6287 69.3888 43.0392 65.0832 43.0392C63.453 43.0392 61.8501 42.7506 60.4019 42.2007V44.2287C60.4019 44.4796 60.1991 44.6837 59.9469 44.6837C59.6947 44.6837 59.4919 44.4809 59.4919 44.2287V41.5208C59.4919 41.3661 59.5699 41.2231 59.6986 41.1386C59.8299 41.0554 59.9924 41.0424 60.1328 41.1061C61.6226 41.7769 63.3347 42.1305 65.0819 42.1305C70.3079 42.1305 74.0168 39.9699 74.3119 36.7524C74.3353 36.5106 74.5394 36.3468 74.7851 36.3403C75.0295 36.352 75.2193 36.5509 75.2193 36.7953V56.5943C75.2206 56.8452 75.0165 57.048 74.7656 57.048Z" fill="#002950"/>
<path d="M89.583 54.1386C89.3321 54.1386 89.128 53.9358 89.128 53.6836V42.371C87.7019 42.9144 86.1224 43.1991 84.513 43.1991C80.73 43.1991 76.5739 42.4581 74.4263 36.9591C74.3353 36.7251 74.451 36.4612 74.685 36.3702C74.9177 36.2792 75.1829 36.3949 75.2739 36.6289C77.2161 41.6027 80.8626 42.2891 84.5117 42.2891C86.2368 42.2891 87.9255 41.9368 89.3932 41.2738C89.5349 41.2114 89.7 41.2231 89.8274 41.3063C89.9587 41.3895 90.0354 41.5338 90.0354 41.6885V53.6836C90.0367 53.9358 89.8339 54.1386 89.583 54.1386ZM77.7114 73.0419C77.545 73.0419 77.3851 72.9509 77.3058 72.7923C77.1927 72.5674 77.2824 72.2944 77.5073 72.1813C81.0017 70.425 89.128 65.8828 89.128 61.6266V56.5943C89.128 56.3434 89.3308 56.1393 89.583 56.1393C89.8352 56.1393 90.038 56.3421 90.038 56.5943V61.6266C90.038 66.2182 82.4434 70.7201 77.9168 72.9938C77.8492 73.0263 77.779 73.0419 77.7114 73.0419ZM59.9482 54.1386C59.6973 54.1386 59.4932 53.9358 59.4932 53.6836V52.9556C59.4932 52.7047 59.696 52.5006 59.9482 52.5006C60.2004 52.5006 60.4032 52.7034 60.4032 52.9556V53.6836C60.4019 53.9358 60.1991 54.1386 59.9482 54.1386ZM59.9547 51.9507C59.8897 51.9507 59.8247 51.9377 59.7727 51.9247C59.7207 51.8974 59.6687 51.8584 59.6297 51.8207C59.54 51.7414 59.4997 51.6257 59.4997 51.4957C59.4997 51.4437 59.4997 51.3774 59.5257 51.3267C59.553 51.2747 59.5777 51.2227 59.6297 51.1837C59.748 51.0524 59.9547 51.0147 60.1237 51.0797C60.1757 51.1057 60.2277 51.1447 60.2667 51.1837C60.3577 51.2617 60.398 51.3774 60.398 51.4957C60.398 51.6257 60.359 51.7414 60.2667 51.8207C60.2277 51.8584 60.1757 51.8987 60.1237 51.9247C60.0717 51.939 60.0067 51.9507 59.9547 51.9507Z" fill="#002950"/>
<path d="M74.7656 74.2832C74.6863 74.2832 74.607 74.2624 74.5355 74.2221L73.502 73.6189C69.3173 71.6962 59.4932 66.6106 59.4932 61.33V55.1381C59.4932 54.8872 59.696 54.6831 59.9482 54.6831C60.2004 54.6831 60.4032 54.8859 60.4032 55.1381V61.33C60.4032 65.2144 67.3868 69.8073 73.9232 72.8116L74.3119 73.0378V56.5941C74.3119 56.3432 74.5147 56.1391 74.7669 56.1391H89.583C89.8339 56.1391 90.038 56.3419 90.038 56.5941C90.038 56.8463 89.8352 57.0491 89.583 57.0491H75.2206V73.8295C75.2206 73.992 75.1348 74.1428 74.9918 74.2247C74.9216 74.265 74.8449 74.2832 74.7656 74.2832Z" fill="#002950"/>
<path d="M60.1497 61.1533C60.1042 61.1533 60.0574 61.1364 60.0197 61.1039C59.9391 61.0324 59.9326 60.9102 60.0028 60.8283L63.7052 56.6436C63.7754 56.563 63.9002 56.5552 63.9808 56.6267C64.0614 56.6982 64.0679 56.8204 63.9977 56.9023L60.2953 61.087C60.2576 61.1299 60.203 61.1533 60.1497 61.1533ZM61.2833 64.0783C61.2378 64.0783 61.191 64.0614 61.1533 64.0289C61.0727 63.9574 61.0662 63.8352 61.1364 63.7533L67.5831 56.4655C67.6533 56.3849 67.7781 56.3784 67.8587 56.4486C67.9393 56.5188 67.9458 56.6423 67.8756 56.7242L61.4289 64.012C61.3912 64.0549 61.3366 64.0783 61.2833 64.0783ZM63.1215 66.547C63.076 66.547 63.0292 66.5301 62.9915 66.4976C62.9109 66.4261 62.9044 66.3039 62.9746 66.222L71.4545 56.6358C71.526 56.5552 71.6482 56.5474 71.7301 56.6189C71.8107 56.6904 71.8172 56.8126 71.747 56.8945L63.2671 66.4807C63.2294 66.5236 63.1748 66.547 63.1215 66.547ZM65.338 68.4567C65.2925 68.4567 65.2457 68.4398 65.208 68.4073C65.1274 68.3358 65.1209 68.2136 65.1911 68.1317L74.6369 57.4548C74.7071 57.3742 74.8319 57.3677 74.9125 57.4379C74.9931 57.5081 74.9996 57.6316 74.9294 57.7135L65.4836 68.3904C65.4459 68.4333 65.3913 68.4567 65.338 68.4567ZM67.6936 70.1246C67.6481 70.1246 67.6013 70.1077 67.5636 70.0752C67.483 70.0037 67.4765 69.8815 67.5467 69.7996L74.6187 61.8059C74.6889 61.7253 74.8137 61.7175 74.8943 61.789C74.9749 61.8605 74.9814 61.9827 74.9112 62.0646L67.8392 70.0583C67.8015 70.1012 67.7469 70.1246 67.6936 70.1246ZM70.4171 71.6859C70.3716 71.6859 70.3248 71.669 70.2871 71.6365C70.2065 71.565 70.2 71.4428 70.2702 71.3609L74.6187 66.4469C74.6889 66.3663 74.8137 66.3585 74.8943 66.43C74.9749 66.5015 74.9814 66.6237 74.9112 66.7056L70.5627 71.6196C70.525 71.6638 70.4704 71.6859 70.4171 71.6859ZM72.7389 72.9391C72.6934 72.9391 72.6466 72.9222 72.6089 72.8897C72.5283 72.8182 72.5218 72.696 72.592 72.6141L74.6187 70.3235C74.6889 70.2429 74.8137 70.2351 74.8943 70.3066C74.9749 70.3781 74.9814 70.5003 74.9112 70.5822L72.8845 72.8728C72.8481 72.9157 72.7935 72.9391 72.7389 72.9391ZM85.696 56.6111C85.6505 56.6111 85.6037 56.5942 85.566 56.5617C85.4854 56.4902 85.4789 56.368 85.5491 56.2861L89.2515 52.1014C89.323 52.0208 89.4452 52.013 89.5271 52.0845C89.6077 52.156 89.6142 52.2782 89.544 52.3601L85.8416 56.5448C85.8039 56.589 85.7493 56.6111 85.696 56.6111ZM81.8194 56.7892C81.7752 56.7892 81.7297 56.7723 81.692 56.7424C81.6114 56.6722 81.601 56.55 81.6699 56.4668L89.5804 47.2212C89.6519 47.1406 89.7741 47.1328 89.856 47.1991C89.9366 47.2693 89.947 47.3915 89.8781 47.4747L81.9676 56.7203C81.9286 56.7658 81.874 56.7892 81.8194 56.7892ZM77.9454 56.6189C77.8999 56.6189 77.8531 56.602 77.8154 56.5695C77.7348 56.498 77.7283 56.3758 77.7985 56.2939L89.4348 43.1392C89.505 43.0586 89.6298 43.0508 89.7104 43.1223C89.791 43.1938 89.7975 43.316 89.7273 43.3979L78.091 56.5526C78.0533 56.5968 77.9987 56.6189 77.9454 56.6189ZM74.7656 55.7999C74.7201 55.7999 74.6733 55.783 74.6356 55.7505C74.555 55.679 74.5485 55.5568 74.6187 55.4749L86.0951 42.5009C86.1653 42.4203 86.2888 42.4138 86.3707 42.484C86.4513 42.5555 86.4578 42.6777 86.3876 42.7596L74.9112 55.7336C74.8735 55.7778 74.8189 55.7999 74.7656 55.7999ZM74.7838 51.4501C74.7383 51.4501 74.6915 51.4332 74.6538 51.4007C74.5732 51.3279 74.5667 51.2057 74.6369 51.1251L82.3121 42.5256C82.3849 42.445 82.5071 42.4372 82.5877 42.5087C82.6683 42.5815 82.6748 42.7037 82.6046 42.7843L74.9294 51.3838C74.8904 51.4267 74.8371 51.4501 74.7838 51.4501ZM74.7838 46.8078C74.7383 46.8078 74.6915 46.7909 74.6538 46.7584C74.5732 46.6869 74.5667 46.5647 74.6369 46.4828L78.9841 41.5675C79.0556 41.4869 79.1778 41.4791 79.2597 41.5506C79.3403 41.6221 79.3468 41.7443 79.2766 41.8262L74.9294 46.7415C74.8917 46.7857 74.8371 46.8078 74.7838 46.8078ZM74.7838 42.9312C74.7383 42.9312 74.6915 42.9143 74.6538 42.8818C74.5732 42.8103 74.5667 42.6881 74.6369 42.6062L76.6623 40.3156C76.7325 40.235 76.8573 40.2272 76.9379 40.2987C77.0185 40.3702 77.025 40.4924 76.9548 40.5743L74.9294 42.8649C74.8917 42.9078 74.8371 42.9312 74.7838 42.9312Z" fill="#002950"/>
<path d="M110.237 71.9095C112.685 71.9095 114.809 71.9095 114.839 71.9095C117.582 71.9095 119.807 69.7333 119.807 67.0488C119.807 64.7062 118.114 62.7523 115.861 62.2908C115.887 62.0854 115.905 61.8787 115.905 61.6668C115.905 58.8861 113.602 56.6319 110.761 56.6319C109.084 56.6319 107.598 57.421 106.66 58.6378C106.419 55.5425 103.594 53.1544 100.29 53.5509C97.8731 53.8408 95.8737 55.6686 95.4291 58.0112C95.2861 58.7626 95.3017 59.4919 95.4434 60.1757C94.796 59.4932 93.873 59.0629 92.846 59.0629C90.9662 59.0629 89.4309 60.4955 89.31 62.3051C88.4559 62.1205 87.5277 62.1322 86.5501 62.491C84.6807 63.1774 83.3495 64.8999 83.2715 66.8538C83.161 69.6267 85.4256 71.9095 88.2349 71.9095C88.4481 71.9095 89.1982 71.9095 89.3711 71.9095H99.6853H110.237ZM101.816 71.9095H102.284H101.816Z" fill="#FDFCEF"/>
<path d="M114.839 72.5594H110.236C109.877 72.5594 109.586 72.2682 109.586 71.9094C109.586 71.5506 109.877 71.2594 110.236 71.2594H114.839C117.22 71.2594 119.155 69.3705 119.155 67.0487C119.155 65.0675 117.715 63.3346 115.73 62.929C115.397 62.8601 115.172 62.5481 115.215 62.2114C115.237 62.032 115.253 61.8526 115.253 61.6667C115.253 59.2487 113.236 57.2818 110.759 57.2818C109.339 57.2818 108.031 57.9201 107.171 59.0342C107.006 59.2474 106.73 59.3332 106.47 59.2604C106.214 59.1824 106.029 58.9562 106.01 58.6884C105.907 57.3624 105.275 56.1612 104.23 55.3032C103.151 54.4192 101.774 54.0266 100.364 54.1943C98.2241 54.4504 96.4561 56.0689 96.0648 58.1294C95.9413 58.7716 95.9465 59.4151 96.0765 60.043C96.1363 60.3277 95.9985 60.6163 95.7411 60.7515C95.4863 60.8854 95.1704 60.8334 94.9676 60.6215C94.4112 60.0352 93.6559 59.7115 92.8421 59.7115C91.3211 59.7115 90.0523 60.8698 89.9548 62.3479C89.9418 62.5377 89.8482 62.7093 89.6974 62.8237C89.5466 62.9368 89.3529 62.981 89.1683 62.9394C88.3389 62.76 87.5537 62.8094 86.7711 63.1006C85.1292 63.7025 83.9813 65.2209 83.9176 66.8771C83.8721 68.0159 84.2842 69.0988 85.0811 69.9269C85.9066 70.7862 87.0246 71.2581 88.231 71.2581H99.6814C100.04 71.2581 100.331 71.5493 100.331 71.9081C100.331 72.2669 100.04 72.5581 99.6814 72.5581H88.231C86.6905 72.5581 85.2007 71.9276 84.1438 70.8278C83.0999 69.7423 82.5591 68.3201 82.6176 66.8264C82.7034 64.6489 84.1932 62.6612 86.3226 61.8786C87.1143 61.5874 87.9346 61.4795 88.7666 61.5627C89.2151 59.7479 90.8843 58.4102 92.8434 58.4102C93.4843 58.4102 94.1135 58.5571 94.6803 58.8301C94.692 58.5155 94.7284 58.2009 94.7882 57.885C95.2835 55.2746 97.513 53.2245 100.209 52.9021C101.982 52.6837 103.701 53.1855 105.054 54.2944C106.027 55.0913 106.716 56.1261 107.065 57.2883C108.094 56.4459 109.386 55.9792 110.76 55.9792C113.955 55.9792 116.554 58.5298 116.554 61.6641C116.554 61.7083 116.553 61.7525 116.551 61.7967C118.846 62.5182 120.457 64.6411 120.457 67.0461C120.457 70.0881 117.936 72.5594 114.839 72.5594ZM102.284 72.5594H101.817C101.458 72.5594 101.167 72.2682 101.167 71.9094C101.167 71.5506 101.458 71.2594 101.817 71.2594H102.284C102.643 71.2594 102.934 71.5506 102.934 71.9094C102.934 72.2682 102.643 72.5594 102.284 72.5594Z" fill="#472B29"/>
<path d="M112.619 65.0155C112.596 65.0155 112.572 65.0129 112.547 65.0077C112.372 64.9687 112.261 64.7945 112.302 64.619C112.349 64.4071 112.424 64.1978 112.521 63.9963C113.307 62.4025 115.478 61.8149 117.361 62.6885C117.524 62.7639 117.595 62.9563 117.519 63.1201C117.443 63.2826 117.252 63.3515 117.087 63.2774C115.527 62.5546 113.737 63.0031 113.105 64.2823C113.03 64.437 112.973 64.5969 112.937 64.7607C112.902 64.9128 112.768 65.0155 112.619 65.0155ZM105.912 72.5594H104.474C104.116 72.5594 103.824 72.2682 103.824 71.9094C103.824 71.5506 104.116 71.2594 104.474 71.2594H105.912C106.271 71.2594 106.562 71.5506 106.562 71.9094C106.562 72.2682 106.271 72.5594 105.912 72.5594Z" fill="#472B29"/>
<path d="M48.2534 93.5063C48.2534 93.5063 63.4517 93.5063 63.544 93.5063C67.054 93.5063 69.8984 90.6606 69.8984 87.1506C69.8984 84.0891 67.7326 81.5333 64.8492 80.9314C64.883 80.6636 64.9051 80.3919 64.9051 80.115C64.9051 76.4802 61.958 73.5331 58.3232 73.5331C56.1769 73.5331 54.2763 74.5653 53.0751 76.1552C52.7683 72.1083 49.153 68.987 44.9241 69.5044C41.8314 69.8827 39.2743 72.2734 38.7049 75.3362C38.5229 76.319 38.5411 77.2719 38.7231 78.1663C37.8937 77.2732 36.7133 76.7116 35.399 76.7116C32.994 76.7116 31.0297 78.5849 30.875 80.9509C29.783 80.7091 28.5948 80.7247 27.3429 81.1953C24.9509 82.0936 23.2479 84.3452 23.1478 86.8984C23.0061 90.5241 25.9038 93.5089 29.4983 93.5089C29.7713 93.5089 30.7307 93.5089 30.9517 93.5089H44.148" fill="#FDFCEF"/>
<path d="M63.544 94.1563H48.2534C47.8946 94.1563 47.6034 93.8651 47.6034 93.5063C47.6034 93.1475 47.8946 92.8563 48.2534 92.8563H63.544C66.6887 92.8563 69.2484 90.2966 69.2484 87.1506C69.2484 84.4648 67.3426 82.117 64.7166 81.5671C64.3864 81.4982 64.1628 81.1875 64.2044 80.8508C64.233 80.609 64.2551 80.3646 64.2551 80.115C64.2551 76.8429 61.594 74.1831 58.3245 74.1831C56.4538 74.1831 54.7287 75.045 53.5951 76.5465C53.4313 76.761 53.1492 76.8546 52.8931 76.7779C52.6331 76.7012 52.4485 76.4737 52.4277 76.2046C52.2925 74.4145 51.4163 72.7323 50.0227 71.5909C48.6148 70.4365 46.8286 69.9243 45.0047 70.1492C42.1889 70.495 39.8619 72.6751 39.3445 75.4545C39.1833 76.3229 39.1898 77.1913 39.3627 78.035C39.4212 78.321 39.2821 78.6096 39.0221 78.7435C38.766 78.8774 38.4488 78.8228 38.2486 78.6083C37.5011 77.8049 36.4897 77.3616 35.4016 77.3616C33.3619 77.3616 31.6589 78.9567 31.5263 80.9925C31.5133 81.1823 31.4197 81.3565 31.2676 81.4696C31.1168 81.584 30.9166 81.6243 30.7385 81.5853C29.6413 81.3422 28.6078 81.4137 27.5743 81.8024C25.4046 82.6188 23.8875 84.6767 23.8017 86.9231C23.7393 88.4922 24.3035 89.9781 25.389 91.1065C26.4745 92.2349 27.9344 92.8576 29.5009 92.8576H44.1519C44.5107 92.8576 44.8019 93.1488 44.8019 93.5076C44.8019 93.8664 44.5107 94.1576 44.1519 94.1576H29.5009C27.5782 94.1576 25.7855 93.3945 24.4517 92.0087C23.1179 90.6229 22.4263 88.799 22.5017 86.8737C22.6096 84.1099 24.4647 81.584 27.118 80.5869C28.1593 80.1956 29.2344 80.0695 30.3264 80.1982C30.8165 77.8296 32.9225 76.0616 35.4029 76.0616C36.2921 76.0616 37.1631 76.2956 37.9288 76.7246C37.9275 76.2228 37.9743 75.721 38.0679 75.2179C38.6867 71.8873 41.4739 69.273 44.8474 68.8596C47.0236 68.5944 49.1634 69.2054 50.8469 70.586C52.1521 71.6559 53.0777 73.121 53.4963 74.7356C54.8119 73.5461 56.511 72.8831 58.3245 72.8831C62.3116 72.8831 65.5551 76.1279 65.5551 80.115C65.5551 80.2229 65.5525 80.3308 65.546 80.4374C68.4762 81.3136 70.5484 84.0475 70.5484 87.1506C70.5484 91.0142 67.4063 94.1563 63.544 94.1563Z" fill="#472B29"/>
<path d="M44.5704 79.508C42.22 79.3533 40.1959 80.977 40.0516 83.1337C40.0334 83.4015 40.0451 83.6654 40.0841 83.9215C39.6304 83.4093 38.9596 83.0622 38.1887 83.0115C36.7782 82.9192 35.5601 83.85 35.3833 85.1175C35.1272 85.0473 34.8594 85.0005 34.5825 84.9823C32.5259 84.8471 30.7553 86.268 30.6279 88.1556" fill="#FDFCEF"/>
<path d="M30.628 88.4793C30.6202 88.4793 30.6137 88.4793 30.6059 88.478C30.4265 88.4663 30.2913 88.3116 30.3043 88.1322C30.4408 86.0704 32.3414 84.5143 34.6047 84.656C34.7815 84.6677 34.9583 84.6898 35.1351 84.7249C35.49 83.4665 36.7575 82.5773 38.2096 82.6878C38.7634 82.7229 39.2808 82.8958 39.7215 83.1844C39.7228 83.1597 39.7241 83.1363 39.7267 83.1116C39.884 80.7781 42.0706 79.0192 44.5913 79.1843C44.7707 79.196 44.9059 79.3507 44.8929 79.5301C44.8825 79.7017 44.7395 79.833 44.5692 79.833C44.5627 79.833 44.5549 79.833 44.5471 79.8317C42.3735 79.6796 40.5067 81.1785 40.3728 83.1558C40.3572 83.3924 40.3676 83.6342 40.4027 83.8747C40.4248 84.0177 40.3494 84.1568 40.2181 84.2179C40.0868 84.2764 39.9334 84.2452 39.8372 84.1386C39.4199 83.6654 38.8258 83.3807 38.1641 83.3365C36.9252 83.2832 35.8566 84.0593 35.7032 85.1617C35.6889 85.254 35.6369 85.3372 35.5602 85.3892C35.4809 85.4399 35.3834 85.4555 35.2963 85.4308C35.0532 85.3645 34.8049 85.3229 34.5579 85.3047C32.6807 85.1916 31.0648 86.4708 30.9504 88.1764C30.94 88.348 30.7983 88.4793 30.628 88.4793Z" fill="#472B29"/>
<path d="M66.1167 81.6764C63.908 80.6351 61.3535 81.3722 60.411 83.3235C60.294 83.5653 60.2069 83.8162 60.1497 84.0697" fill="#FDFCEF"/>
<path d="M60.1498 84.3946C60.1251 84.3946 60.1017 84.392 60.077 84.3855C59.9015 84.3465 59.7923 84.171 59.8326 83.9968C59.8963 83.716 59.9925 83.4417 60.1173 83.183C61.1352 81.0757 63.8873 80.2671 66.2546 81.3825C66.4171 81.4605 66.4873 81.6529 66.4106 81.8154C66.3326 81.9792 66.1376 82.0455 65.9777 81.9714C63.9315 81.0055 61.5668 81.6776 60.7036 83.4638C60.5996 83.6796 60.519 83.9084 60.4644 84.1411C60.4319 84.2919 60.298 84.3946 60.1498 84.3946Z" fill="#472B29"/>
</svg>
