<svg width="100" height="100" viewBox="0 0 100 100" fill="none" xmlns="http://www.w3.org/2000/svg">
<path d="M51.075 8.96106C40.5989 8.96106 30.5519 13.1227 23.1442 20.5303C15.7365 27.938 11.575 37.985 11.575 48.4611C11.575 58.9371 15.7365 68.9841 23.1442 76.3918C30.5519 83.7995 40.5989 87.9611 51.075 87.9611C61.551 87.9611 71.598 83.7995 79.0057 76.3918C86.4134 68.9841 90.575 58.9371 90.575 48.4611C90.575 37.985 86.4134 27.938 79.0057 20.5303C71.598 13.1227 61.551 8.96106 51.075 8.96106Z" fill="#3AA9D1"/>
<path d="M51.075 88.9611C28.743 88.9611 10.575 70.7931 10.575 48.4611C10.575 26.1291 28.743 7.96106 51.075 7.96106C73.407 7.96106 91.575 26.1291 91.575 48.4611C91.575 70.7931 73.407 88.9611 51.075 88.9611ZM51.075 9.96106C29.846 9.96106 12.575 27.2321 12.575 48.4611C12.575 69.6901 29.846 86.9611 51.075 86.9611C72.304 86.9611 89.575 69.6901 89.575 48.4611C89.575 27.2321 72.303 9.96106 51.075 9.96106Z" fill="#002950"/>
<path d="M84.897 45.542C85.516 52.702 83.891 60.093 79.77 66.594C69.742 82.416 48.728 86.976 32.835 76.779C16.942 66.582 12.188 45.491 22.216 29.669C32.244 13.847 53.258 9.28802 69.151 19.485C74.8 23.11 79.042 28.111 81.713 33.763" fill="#EFF9FE"/>
<path d="M51.248 82.726C44.691 82.726 38.247 80.845 32.566 77.2C16.467 66.871 11.635 45.429 21.795 29.402C26.689 21.68 34.307 16.339 43.243 14.362C52.283 12.362 61.579 14.033 69.421 19.065C74.96 22.619 79.367 27.627 82.166 33.55C82.284 33.8 82.177 34.098 81.928 34.216C81.679 34.334 81.382 34.228 81.262 33.978C78.543 28.225 74.262 23.359 68.882 19.907C61.264 15.021 52.237 13.396 43.459 15.339C34.784 17.258 27.39 22.443 22.639 29.938C12.774 45.503 17.469 66.327 33.106 76.359C40.723 81.246 49.75 82.868 58.529 80.927C67.204 79.008 74.598 73.823 79.349 66.328C83.288 60.113 85.035 52.941 84.4 45.586C84.377 45.311 84.58 45.068 84.855 45.045C85.123 45.016 85.373 45.224 85.396 45.5C86.05 53.074 84.25 60.461 80.193 66.863C75.299 74.585 67.681 79.926 58.745 81.903C56.253 82.454 53.742 82.726 51.248 82.726Z" fill="#002950"/>
<path d="M83.7 40.012C83.896 40.813 84.063 41.62 84.201 42.433L83.7 40.012Z" fill="#FEFDEF"/>
<path d="M84.2 42.934C83.961 42.934 83.75 42.762 83.708 42.517C83.573 41.718 83.407 40.915 83.215 40.131C83.149 39.863 83.313 39.592 83.581 39.526C83.853 39.46 84.121 39.625 84.185 39.893C84.383 40.701 84.554 41.527 84.694 42.35C84.74 42.622 84.556 42.88 84.284 42.927C84.256 42.931 84.228 42.934 84.2 42.934Z" fill="#002950"/>
<path d="M55.314 41.623L34.419 62.645C33.897 63.171 33.263 64.03 33.786 64.556C34.308 65.082 35.163 64.445 35.686 63.919L56.58 42.897C57.475 43.132 59.096 43.01 59.793 42.308L61.693 40.397C62.738 39.346 62.738 37.626 61.693 36.575C60.648 35.524 58.939 35.524 57.894 36.575L55.994 38.486C55.297 39.188 55.08 40.723 55.314 41.623Z" fill="#E63946"/>
<path d="M34.257 65.2531C33.941 65.2531 33.6539 65.1341 33.431 64.9091C33.135 64.6111 32.6059 63.7601 34.0649 62.2931L54.77 41.4611C54.5989 40.3911 54.881 38.8981 55.6399 38.1331L57.539 36.2221C58.738 35.0151 60.8479 35.0151 62.047 36.2221C63.288 37.4701 63.288 39.5011 62.047 40.7491L60.1479 42.6601C59.3569 43.4561 57.769 43.6151 56.7439 43.4421L36.041 64.2721C35.595 64.7191 34.924 65.2531 34.257 65.2531ZM59.7939 36.2861C59.209 36.2861 58.66 36.5141 58.249 36.9271L56.3499 38.8381C55.8039 39.3871 55.602 40.7421 55.798 41.4971C55.8429 41.6681 55.7939 41.8501 55.6689 41.9761L34.7739 62.9981C34.2519 63.5231 33.9789 64.0421 34.1409 64.2051C34.1759 64.2411 34.2059 64.2531 34.257 64.2531C34.438 64.2531 34.827 64.0731 35.331 63.5671L56.226 42.5461C56.35 42.4201 56.533 42.3681 56.707 42.4151C57.524 42.6311 58.9259 42.4741 59.438 41.9571L61.337 40.0461C62.191 39.1871 62.191 37.7881 61.337 36.9291C60.927 36.5141 60.3789 36.2861 59.7939 36.2861ZM50.075 17.9611C49.799 17.9611 49.575 17.7371 49.575 17.4611V14.4611C49.575 14.1851 49.799 13.9611 50.075 13.9611C50.351 13.9611 50.575 14.1851 50.575 14.4611V17.4611C50.575 17.7371 50.351 17.9611 50.075 17.9611ZM50.075 82.9611C49.799 82.9611 49.575 82.7371 49.575 82.4611V78.4611C49.575 78.1851 49.799 77.9611 50.075 77.9611C50.351 77.9611 50.575 78.1851 50.575 78.4611V82.4611C50.575 82.7371 50.351 82.9611 50.075 82.9611ZM85.075 47.9611H80.0749C79.7989 47.9611 79.5749 47.7371 79.5749 47.4611C79.5749 47.1851 79.7989 46.9611 80.0749 46.9611H85.075C85.351 46.9611 85.575 47.1851 85.575 47.4611C85.575 47.7371 85.351 47.9611 85.075 47.9611ZM20.075 47.9611H18.075C17.799 47.9611 17.575 47.7371 17.575 47.4611C17.575 47.1851 17.799 46.9611 18.075 46.9611H20.075C20.351 46.9611 20.575 47.1851 20.575 47.4611C20.575 47.7371 20.351 47.9611 20.075 47.9611Z" fill="#002950"/>
<path d="M74.4531 24.064L71.6531 26.881L74.4531 24.064Z" fill="#F37E98"/>
<path d="M71.653 27.381C71.525 27.381 71.398 27.333 71.3 27.235C71.105 27.041 71.104 26.724 71.298 26.528L74.098 23.711C74.292 23.515 74.609 23.514 74.805 23.709C75 23.903 75.001 24.22 74.807 24.416L72.007 27.233C71.91 27.332 71.782 27.381 71.653 27.381Z" fill="#002950"/>
<path d="M29.6669 69.026L26.8669 71.843L29.6669 69.026Z" fill="#F37E98"/>
<path d="M26.868 72.343C26.74 72.343 26.613 72.295 26.515 72.197C26.32 72.003 26.319 71.686 26.513 71.49L29.313 68.673C29.507 68.477 29.824 68.476 30.02 68.671C30.215 68.865 30.216 69.182 30.022 69.378L27.222 72.195C27.125 72.294 26.997 72.343 26.868 72.343Z" fill="#1F212B"/>
<path d="M75.3039 72.155L72.5039 69.338L75.3039 72.155Z" fill="#F37E98"/>
<path d="M75.304 72.655C75.175 72.655 75.047 72.606 74.95 72.508L72.15 69.691C71.956 69.495 71.957 69.178 72.152 68.984C72.349 68.788 72.666 68.791 72.859 68.986L75.659 71.803C75.853 71.999 75.852 72.316 75.657 72.51C75.559 72.607 75.431 72.655 75.304 72.655Z" fill="#1F212B"/>
<path d="M29.9799 26.4599L27.1809 23.6429L29.9799 26.4599Z" fill="#F37E98"/>
<path d="M29.98 26.9601C29.851 26.9601 29.723 26.9111 29.626 26.8131L26.826 23.9961C26.632 23.8001 26.633 23.4831 26.828 23.2891C27.023 23.0941 27.34 23.0961 27.535 23.2911L30.335 26.1081C30.529 26.3041 30.528 26.6211 30.333 26.8151C30.235 26.9121 30.108 26.9601 29.98 26.9601ZM68.575 48.9611H54.575C54.022 48.9611 53.575 48.5131 53.575 47.9611C53.575 47.4091 54.022 46.9611 54.575 46.9611H68.575C69.128 46.9611 69.575 47.4091 69.575 47.9611C69.575 48.5131 69.128 48.9611 68.575 48.9611ZM50.575 45.9611C50.022 45.9611 49.575 45.5131 49.575 44.9611V21.9611C49.575 21.4091 50.022 20.9611 50.575 20.9611C51.128 20.9611 51.575 21.4091 51.575 21.9611V44.9611C51.575 45.5131 51.128 45.9611 50.575 45.9611Z" fill="#002950"/>
<path d="M50.575 44.4609C49.6467 44.4609 48.7565 44.8297 48.1001 45.4861C47.4437 46.1424 47.075 47.0327 47.075 47.9609C47.075 48.8892 47.4437 49.7794 48.1001 50.4358C48.7565 51.0922 49.6467 51.4609 50.575 51.4609C51.5032 51.4609 52.3934 51.0922 53.0498 50.4358C53.7062 49.7794 54.075 48.8892 54.075 47.9609C54.075 47.0327 53.7062 46.1424 53.0498 45.4861C52.3934 44.8297 51.5032 44.4609 50.575 44.4609Z" fill="#FFEC00"/>
<path d="M50.575 51.9609C48.369 51.9609 46.575 50.1669 46.575 47.9609C46.575 45.7549 48.369 43.9609 50.575 43.9609C52.781 43.9609 54.575 45.7549 54.575 47.9609C54.575 50.1669 52.781 51.9609 50.575 51.9609ZM50.575 44.9609C48.921 44.9609 47.575 46.3069 47.575 47.9609C47.575 49.6149 48.921 50.9609 50.575 50.9609C52.229 50.9609 53.575 49.6149 53.575 47.9609C53.575 46.3069 52.229 44.9609 50.575 44.9609Z" fill="#002950"/>
</svg>
