<svg width="100" height="100" viewBox="0 0 100 100" fill="none" xmlns="http://www.w3.org/2000/svg">
<path d="M14.8359 68.727L7.12892 38.114C6.54792 35.8 7.96392 33.436 10.2769 32.855L72.8979 17.13C75.2109 16.55 77.5779 17.964 78.1599 20.273L85.8669 50.886C86.4519 53.2 85.0319 55.564 82.7189 56.145L20.1019 71.87C17.7849 72.451 15.4169 71.037 14.8359 68.727Z" fill="#A8E3D9"/>
<path d="M16.307 72.237C15.082 71.505 14.216 70.344 13.869 68.969L6.16201 38.355C5.44401 35.504 7.18401 32.602 10.035 31.885L72.656 16.16C75.503 15.447 78.413 17.184 79.131 20.028L86.838 50.645C87.185 52.02 86.971 53.454 86.237 54.677C85.503 55.9 84.341 56.765 82.965 57.112L20.344 72.836C19.915 72.945 19.478 73 19.045 73C18.089 73 17.149 72.743 16.307 72.237ZM82.477 55.179C83.335 54.961 84.064 54.419 84.525 53.656C84.985 52.889 85.118 51.993 84.899 51.132L77.192 20.519C76.74 18.735 74.918 17.652 73.139 18.096L10.522 33.821C9.66002 34.039 8.93501 34.577 8.47401 35.344C8.01401 36.111 7.88101 37.007 8.09601 37.868L15.807 68.481C16.022 69.342 16.564 70.066 17.332 70.526C18.1 70.986 18.997 71.122 19.856 70.904L82.477 55.179Z" fill="#002950"/>
<path d="M21.284 36.217L16.522 37.413C17.134 39.855 15.789 42.294 13.519 42.863L18.215 61.518C20.485 60.949 22.829 62.465 23.442 64.903L76.476 51.585C75.864 49.147 77.209 46.704 79.479 46.135L74.782 27.48C72.512 28.049 70.172 26.533 69.555 24.095L30.165 33.989L30.044 33.506L21.163 35.734L21.284 36.217Z" fill="#45AEA8"/>
<path d="M22.9571 65.026C22.6921 63.966 22.0601 63.071 21.1781 62.502C20.3081 61.937 19.2981 61.762 18.3381 62.003C18.2091 62.034 18.0731 62.015 17.9601 61.945C17.8431 61.879 17.7611 61.77 17.7301 61.641L13.0341 42.986C12.9991 42.857 13.0221 42.721 13.0891 42.608C13.1591 42.491 13.2681 42.409 13.3971 42.378C15.3981 41.876 16.5841 39.702 16.0381 37.536C15.9721 37.267 16.1321 36.995 16.4011 36.928L21.1631 35.732C21.4361 35.666 21.7011 35.829 21.7711 36.094C21.8371 36.363 21.6731 36.632 21.4081 36.702L17.1061 37.781C17.4731 40.138 16.2171 42.413 14.1181 43.195L18.5841 60.938C19.6641 60.794 20.7601 61.039 21.7241 61.663C22.6801 62.282 23.3971 63.206 23.7831 64.3L75.8931 51.216C75.7141 50.071 75.9091 48.914 76.4591 47.917C77.0091 46.916 77.8591 46.18 78.8811 45.798L74.4151 28.055C72.2031 28.351 70.0111 26.945 69.2161 24.693L30.2861 34.47C30.0211 34.536 29.7481 34.373 29.6811 34.108C29.6151 33.843 29.7751 33.57 30.0441 33.504L69.4381 23.61C69.7031 23.544 69.9761 23.707 70.0431 23.972C70.5891 26.142 72.6681 27.497 74.6611 26.991C74.9301 26.929 75.1991 27.088 75.2691 27.353L79.9651 46.011C79.9961 46.14 79.9771 46.272 79.9061 46.389C79.8401 46.502 79.7301 46.584 79.6021 46.615C78.6391 46.857 77.8311 47.488 77.3321 48.395C76.8291 49.314 76.6921 50.401 76.9611 51.461C76.9921 51.59 76.9731 51.726 76.9021 51.839C76.8361 51.952 76.7261 52.034 76.5981 52.069L23.5611 65.385C23.5221 65.397 23.4791 65.401 23.4401 65.401C23.2181 65.4 23.0151 65.252 22.9571 65.026Z" fill="#002950"/>
<path d="M27.0129 34.779C26.9469 34.51 27.1109 34.238 27.3759 34.171L28.2649 33.949C28.5379 33.883 28.8029 34.046 28.8729 34.311C28.9389 34.576 28.7749 34.849 28.5099 34.915L27.6209 35.141C27.5779 35.149 27.5389 35.153 27.4999 35.153C27.2749 35.153 27.0719 35.005 27.0129 34.779Z" fill="#002950"/>
<path d="M44.927 36.76C40.377 37.905 37.615 42.522 38.76 47.074C39.905 51.626 44.521 54.387 49.072 53.243C53.622 52.098 56.384 47.481 55.239 42.929C54.094 38.377 49.477 35.615 44.927 36.76Z" fill="#A8E3D9"/>
<path d="M38.2751 47.1909C37.6891 44.8629 38.0451 42.4409 39.2791 40.3779C40.5131 38.3149 42.4781 36.8579 44.8061 36.2719C49.6181 35.0649 54.5161 37.9949 55.7271 42.8039C56.9381 47.6169 54.0081 52.5159 49.1961 53.7269C48.4621 53.9099 47.7281 53.9999 47.0011 53.9999C42.9781 53.9999 39.3031 51.2689 38.2751 47.1909ZM45.0521 37.2399C42.9821 37.7599 41.2361 39.0569 40.1381 40.8929C39.0401 42.7249 38.7241 44.8779 39.2471 46.9479C40.3211 51.2259 44.6761 53.8319 48.9491 52.7529C53.2301 51.6789 55.8311 47.3229 54.7571 43.0489C53.8471 39.4239 50.5781 36.9979 47.0001 36.9979C46.3571 36.9979 45.7041 37.0759 45.0521 37.2399Z" fill="#002950"/>
<path d="M61.765 37.595C60.16 37.997 59.187 39.63 59.59 41.235C59.996 42.84 61.625 43.817 63.23 43.41C64.835 43.008 65.812 41.375 65.405 39.77C65.003 38.165 63.374 37.193 61.765 37.595Z" fill="#A8E3D9"/>
<path d="M59.1051 41.3521C58.6361 39.4811 59.7771 37.579 61.6481 37.107C63.5231 36.634 65.4251 37.7751 65.8941 39.6461C66.1211 40.5521 65.9841 41.4931 65.5031 42.2981C65.0231 43.0991 64.2611 43.6651 63.3551 43.8951C63.0701 43.9651 62.7811 44.0001 62.4991 44.0001C60.9331 44.0001 59.5081 42.9381 59.1051 41.3521ZM61.8901 38.079C60.5541 38.415 59.7421 39.7741 60.0781 41.1101C60.2381 41.7581 60.6441 42.3011 61.2181 42.6451C61.7921 42.9891 62.4641 43.0861 63.1081 42.9221C63.7561 42.7621 64.3031 42.3561 64.6431 41.7821C64.9871 41.2121 65.0841 40.54 64.9241 39.892C64.6391 38.759 63.6161 38.002 62.4991 38.002C62.3001 38.001 62.0931 38.025 61.8901 38.079ZM59.5821 41.231H59.5941H59.5821Z" fill="#002950"/>
<path d="M29.7729 45.591C28.1639 45.993 27.1909 47.622 27.5939 49.231C27.9999 50.836 29.6289 51.809 31.2339 51.406C32.8389 51.003 33.8159 49.375 33.4089 47.766C33.0069 46.161 31.3779 45.189 29.7729 45.591Z" fill="#A8E3D9"/>
<path d="M27.1051 49.3521C26.6361 47.4811 27.7771 45.579 29.6481 45.107C31.5231 44.634 33.4251 45.7751 33.8931 47.6461C34.3661 49.5171 33.2251 51.4231 31.3541 51.8951C31.0691 51.9651 30.7801 52.0001 30.4991 52.0001C28.9331 52.0001 27.5081 50.9381 27.1051 49.3521ZM29.8901 46.079C28.5541 46.415 27.7421 47.7741 28.0781 49.1101C28.2381 49.7581 28.6441 50.3011 29.2181 50.6451C29.7881 50.9851 30.4641 51.0861 31.1081 50.9221C32.4441 50.5861 33.2601 49.227 32.9241 47.891C32.6391 46.758 31.6161 46.001 30.4991 46.001C30.3001 46.001 30.0931 46.025 29.8901 46.079ZM27.5821 49.231H27.5941H27.5821Z" fill="#002950"/>
<path d="M67 55C67 62.18 72.82 68 80 68C87.18 68 93 62.18 93 55C93 47.82 87.18 42 80 42C72.82 42 67 47.82 67 55Z" fill="#FFEC00"/>
<path d="M71.5 55C71.5 59.695 75.305 63.5 80 63.5C84.695 63.5 88.5 59.695 88.5 55C88.5 50.305 84.695 46.5 80 46.5C75.305 46.5 71.5 50.305 71.5 55Z" fill="#FFAD00"/>
<path d="M66 55C66 47.277 72.281 41 80 41C87.723 41 94 47.277 94 55C94 62.719 87.723 69 80 69C72.281 69 66 62.719 66 55ZM68 55C68 61.617 73.383 67 80 67C86.617 67 92 61.617 92 55C92 48.383 86.617 43 80 43C73.383 43 68 48.383 68 55Z" fill="#002950"/>
<path d="M71 55C71 50.035 75.039 46 80 46C84.965 46 89 50.035 89 55C89 59.961 84.965 64 80 64C75.039 64 71 59.961 71 55ZM72 55C72 59.41 75.59 63 80 63C84.41 63 88 59.41 88 55C88 50.59 84.41 47 80 47C75.59 47 72 50.59 72 55Z" fill="#002950"/>
<path d="M76.865 58.563C76.865 58.406 76.92 58.255 77.032 58.109C77.143 57.962 77.266 57.888 77.402 57.888C77.479 57.888 77.584 57.947 77.719 58.065C77.853 58.182 77.99 58.311 78.13 58.453C78.269 58.595 78.491 58.727 78.795 58.849C79.099 58.972 79.443 59.042 79.825 59.062V55.16L79.038 54.867C78.854 54.798 78.618 54.681 78.331 54.515C78.044 54.348 77.83 54.18 77.689 54.008C77.548 53.838 77.42 53.607 77.303 53.319C77.186 53.03 77.128 52.705 77.128 52.344C77.128 51.904 77.206 51.516 77.362 51.18C77.517 50.845 77.729 50.579 77.996 50.384C78.264 50.19 78.548 50.041 78.849 49.94C79.15 49.838 79.476 49.772 79.826 49.743V49.305C79.826 49.228 79.863 49.158 79.935 49.093C80.007 49.031 80.097 49 80.204 49C80.301 49 80.388 49.031 80.466 49.094C80.544 49.158 80.583 49.228 80.583 49.306V49.714C81.166 49.744 81.696 49.844 82.173 50.014C82.649 50.184 82.887 50.405 82.887 50.678C82.887 50.814 82.838 50.96 82.74 51.115C82.642 51.271 82.514 51.349 82.358 51.349C82.309 51.349 82.106 51.263 81.748 51.093C81.39 50.923 81.002 50.828 80.584 50.809V54.149C80.961 54.287 81.273 54.421 81.519 54.553C81.765 54.685 82.026 54.866 82.302 55.095C82.578 55.325 82.785 55.617 82.926 55.974C83.066 56.331 83.136 56.75 83.136 57.229C83.136 58.075 82.906 58.742 82.447 59.232C81.988 59.722 81.367 60.021 80.584 60.126V60.678C80.584 60.76 80.545 60.834 80.467 60.9C80.389 60.967 80.302 61 80.205 61C80.098 61 80.008 60.967 79.935 60.9C79.862 60.833 79.826 60.758 79.826 60.676V60.168C78.99 60.16 78.288 59.974 77.72 59.614C77.149 59.255 76.865 58.904 76.865 58.563ZM78.279 52.227C78.279 52.687 78.412 53.032 78.677 53.262C78.942 53.492 79.344 53.704 79.884 53.9V50.828C78.814 50.934 78.279 51.401 78.279 52.227ZM80.525 59.032C81.497 58.876 81.983 58.314 81.983 57.345C81.983 56.837 81.857 56.441 81.604 56.158C81.351 55.874 80.991 55.635 80.525 55.438V59.032Z" fill="#002950"/>
<path d="M44 73C44 80.18 49.82 86 57 86C64.18 86 70 80.18 70 73C70 65.82 64.18 60 57 60C49.82 60 44 65.82 44 73Z" fill="#FFEC00"/>
<path d="M48.5 73C48.5 77.695 52.305 81.5 57 81.5C61.695 81.5 65.5 77.695 65.5 73C65.5 68.305 61.695 64.5 57 64.5C52.305 64.5 48.5 68.305 48.5 73Z" fill="#FFAD00"/>
<path d="M43 73C43 65.277 49.281 59 57 59C64.723 59 71 65.277 71 73C71 80.719 64.723 87 57 87C49.281 87 43 80.719 43 73ZM45 73C45 79.617 50.383 85 57 85C63.617 85 69 79.617 69 73C69 66.383 63.617 61 57 61C50.383 61 45 66.383 45 73Z" fill="#002950"/>
<path d="M48 73C48 68.035 52.039 64 57 64C61.965 64 66 68.035 66 73C66 77.961 61.965 82 57 82C52.039 82 48 77.961 48 73ZM49 73C49 77.41 52.59 81 57 81C61.41 81 65 77.41 65 73C65 68.59 61.41 65 57 65C52.59 65 49 68.59 49 73Z" fill="#002950"/>
<path d="M53.865 76.563C53.865 76.406 53.92 76.255 54.032 76.109C54.143 75.962 54.266 75.888 54.402 75.888C54.479 75.888 54.584 75.947 54.719 76.065C54.853 76.182 54.99 76.311 55.13 76.453C55.269 76.595 55.491 76.727 55.795 76.849C56.099 76.972 56.443 77.042 56.825 77.062V73.16L56.038 72.867C55.854 72.798 55.618 72.681 55.331 72.515C55.044 72.349 54.83 72.18 54.689 72.008C54.548 71.838 54.42 71.607 54.303 71.319C54.186 71.03 54.128 70.705 54.128 70.344C54.128 69.904 54.206 69.516 54.362 69.18C54.517 68.845 54.729 68.579 54.996 68.384C55.264 68.19 55.548 68.041 55.849 67.94C56.15 67.838 56.476 67.772 56.826 67.743V67.305C56.826 67.228 56.863 67.158 56.935 67.093C57.007 67.031 57.097 67 57.204 67C57.301 67 57.388 67.031 57.466 67.094C57.544 67.158 57.583 67.228 57.583 67.306V67.714C58.166 67.744 58.696 67.844 59.173 68.014C59.649 68.184 59.887 68.405 59.887 68.678C59.887 68.814 59.838 68.96 59.74 69.115C59.642 69.271 59.514 69.349 59.358 69.349C59.309 69.349 59.106 69.263 58.748 69.093C58.39 68.923 58.002 68.828 57.584 68.809V72.149C57.961 72.287 58.273 72.421 58.519 72.553C58.765 72.685 59.026 72.866 59.302 73.095C59.578 73.325 59.785 73.617 59.926 73.974C60.066 74.331 60.136 74.749 60.136 75.229C60.136 76.075 59.906 76.742 59.447 77.232C58.988 77.722 58.367 78.021 57.584 78.126V78.678C57.584 78.76 57.545 78.834 57.467 78.9C57.389 78.967 57.302 79 57.205 79C57.098 79 57.008 78.967 56.935 78.9C56.862 78.833 56.826 78.758 56.826 78.676V78.168C55.99 78.16 55.288 77.974 54.72 77.614C54.149 77.255 53.865 76.904 53.865 76.563ZM55.279 70.227C55.279 70.687 55.412 71.032 55.677 71.262C55.942 71.492 56.344 71.704 56.884 71.9V68.828C55.814 68.934 55.279 69.401 55.279 70.227ZM57.525 77.032C58.497 76.876 58.983 76.314 58.983 75.345C58.983 74.837 58.857 74.441 58.604 74.158C58.351 73.874 57.991 73.635 57.525 73.438V77.032Z" fill="#002950"/>
</svg>
