<svg width="105" height="110" viewBox="0 0 105 110" fill="none" xmlns="http://www.w3.org/2000/svg">
<path d="M71.3999 80.3C66.8587 78.5158 63.8525 77.3751 62.0476 76.703C61.7473 76.5908 61.4806 76.4929 61.2454 76.406C60.4043 76.0958 59.8499 75.2664 59.8499 74.3325V70.9951C64.514 67.8172 68.25 62.6978 68.25 60.4989C68.25 59.3989 68.25 56.0989 68.25 56.0989C70.3499 56.0989 70.75 54.0111 71.3999 51.6989C71.9984 49.5704 72.4499 47.2989 72.4499 46.1989C72.4499 44.1364 69.0301 43.4489 69.0301 43.4489H68.903C68.8705 41.5239 68.5618 32.5512 65.8885 26.9489C65.8885 26.9489 59.326 24.7489 52.501 24.7489C45.676 24.7489 39.1135 26.9489 39.1135 26.9489C36.4328 32.5666 36.0349 41.5613 35.9751 43.4643C35.1834 43.5721 32.55 44.3047 32.55 46.2C32.55 47.3 33.0015 49.5715 33.6 51.7C34.2499 54.0122 34.65 56.1 36.75 56.1C36.75 56.1 36.75 59.4 36.75 60.5C36.75 62.6989 40.4859 67.8183 45.15 70.9962V74.3336C45.15 75.2675 44.5956 76.0958 43.7545 76.406C43.5193 76.4929 43.2526 76.5919 42.9523 76.703C41.1474 77.374 38.1412 78.5158 33.6 80.3C25.2 83.6 25.2 92.4 25.2 92.4H79.7999C79.7999 92.4 79.7999 83.6 71.3999 80.3Z" fill="#EAD6C7"/>
<path d="M71.3999 80.3C66.8587 78.5158 63.8525 77.3751 62.0476 76.703C61.7861 76.6051 61.5604 76.5226 61.3483 76.4434C60.0368 77.0627 57.1504 78.1 52.5 78.1C47.8736 78.1 44.9757 77.0616 43.6558 76.4423C43.4426 76.5215 43.2159 76.6051 42.9523 76.703C41.1474 77.3751 38.1412 78.5158 33.6 80.3C25.2 83.6 25.2 92.4 25.2 92.4H79.7999C79.7999 92.4 79.7999 83.6 71.3999 80.3Z" fill="#3DB4DA"/>
<path d="M53.0249 17.05C43.5749 17.05 39.8999 22.2739 39.3749 23.6489C35.218 25.4991 32.0249 30.249 32.0249 35.7489C32.0249 44.549 36.2249 47.8489 36.2249 47.8489C36.2249 37.9489 41.4749 32.4489 41.4749 29.1489C43.3681 32.2905 48.5446 34.649 54.0749 34.649C59.4562 34.649 62.0812 33.9615 64.5749 32.4489C67.7249 36.8489 68.7749 47.8489 68.7749 47.8489C68.7749 47.8489 71.9249 44.549 71.9249 37.9489C71.9249 32.7372 70.4518 32.1212 68.7749 29.1489C70.3499 28.0489 70.8749 26.124 70.8749 24.7489C66.1499 24.75 63.5249 17.05 53.0249 17.05Z" fill="#B07454"/>
<path d="M60.375 62.15C60.375 62.15 58.275 66.55 52.5 66.55C46.725 66.55 44.625 62.15 44.625 62.15H60.375Z" fill="white"/>
<path d="M36.225 48.4C36.1137 48.4 36.0024 48.3626 35.91 48.29C35.7294 48.1481 31.5 44.7216 31.5 35.75C31.5 30.3281 34.4967 25.3264 38.9792 23.2309C39.8864 21.2674 43.9981 16.5 53.025 16.5C59.4856 16.5 63.0262 19.3193 65.8717 21.5853C67.7061 23.0461 69.1551 24.2 70.875 24.2C71.1648 24.2 71.4 24.4464 71.4 24.75C71.4 26.1811 70.8844 28.0621 69.4722 29.2908C69.7641 29.7759 70.0476 30.1983 70.3237 30.6086C71.5113 32.3774 72.45 33.7733 72.45 37.95C72.45 44.7007 69.2811 48.0975 69.1467 48.2394C69.0039 48.389 68.7886 48.4385 68.5996 48.3681C68.4086 48.2977 68.2741 48.1162 68.2531 47.905C68.2426 47.7994 67.243 37.6354 64.4196 33.1716C61.7799 34.6632 58.9921 35.2 54.075 35.2C49.0413 35.2 44.2249 33.3124 41.7973 30.4953C41.5191 31.515 40.9804 32.6656 40.3515 34.0076C38.8311 37.2548 36.75 41.701 36.75 47.85C36.75 48.0579 36.6376 48.2482 36.4602 48.3417C36.3856 48.3802 36.3048 48.4 36.225 48.4ZM53.025 17.6C42.714 17.6 39.8864 23.7919 39.8622 23.8546C39.8097 23.991 39.7089 24.0999 39.5797 24.156C35.3755 26.0271 32.55 30.6856 32.55 35.75C32.55 41.7318 34.5628 45.0989 35.7294 46.5476C35.9929 40.8188 37.9512 36.6355 39.4075 33.5225C40.2696 31.6844 40.95 30.2302 40.95 29.15C40.95 28.9047 41.1044 28.6902 41.3291 28.622C41.5569 28.5593 41.7942 28.6484 41.9192 28.8574C43.7503 31.8945 48.8628 34.1 54.075 34.1C59.7051 34.1 62.0917 33.3201 64.3125 31.9737C64.5445 31.834 64.8375 31.8989 64.995 32.12C67.5644 35.7093 68.754 43.3444 69.1446 46.4519C70.0318 45.0527 71.4 42.2059 71.4 37.95C71.4 34.1231 70.5883 32.9142 69.4648 31.2422C69.1173 30.7241 68.7225 30.1378 68.3235 29.4305C68.1817 29.1786 68.2521 28.8552 68.4841 28.6924C69.6811 27.8564 70.2072 26.4583 70.3237 25.2692C68.5009 25.0624 66.9763 23.8469 65.2355 22.4609C62.517 20.295 59.1318 17.6 53.025 17.6ZM52.5 73.7C50.2887 73.7 47.7466 72.765 45.15 70.9962L45.7222 70.0744C48.1477 71.7266 50.4913 72.6 52.5 72.6C54.5086 72.6 56.8523 71.7266 59.2778 70.0744L59.85 70.9962C57.2533 72.765 54.7113 73.7 52.5 73.7Z" fill="#002950"/>
<path d="M79.7999 93.5H25.1999C24.6203 93.5 24.1499 93.0083 24.1499 92.4C24.1499 92.3043 24.2539 82.797 33.2314 79.2693C37.9175 77.4279 40.9153 76.2927 42.6047 75.6657L43.3975 75.3709C43.7429 75.2444 43.997 74.943 44.0705 74.5811C44.0905 74.4821 44.0999 74.4062 44.0999 74.3369V71.5803C39.6458 68.376 35.6999 63.2104 35.6999 60.5V57.0559C33.8299 56.4971 33.2545 54.4115 32.7389 52.5393L32.593 52.0124C32.089 50.2216 31.4999 47.6256 31.4999 46.2C31.4999 45.1352 32.1898 44.2585 33.5506 43.5963L34.4368 45.5906C33.6955 45.9525 33.5989 46.211 33.5989 46.2143C33.5999 47.1361 34.0241 49.3174 34.6069 51.3887L34.757 51.9288C35.4122 54.3081 35.7535 55 36.7499 55C37.3295 55 37.7999 55.4917 37.7999 56.1V60.5C37.7999 62.1401 41.2019 66.9878 45.7221 70.0711C46.0203 70.2746 46.1999 70.6211 46.1999 70.9929V74.3369C46.1999 74.5624 46.1758 74.7846 46.1254 75.0387C45.9007 76.1486 45.1237 77.0704 44.0999 77.4455L43.3082 77.7403C41.6261 78.3651 38.641 79.4959 33.9685 81.3318C28.0475 83.6572 26.6678 88.9911 26.3465 91.3011H78.6607C78.3562 88.9889 77.0059 83.6781 71.0303 81.3318C66.3578 79.4959 63.3737 78.3662 61.6916 77.7403L60.8905 77.44C59.8762 77.0693 59.1202 76.1794 58.8776 75.0651C58.8251 74.8055 58.7999 74.5646 58.7999 74.3369V70.9929C58.7999 70.6211 58.9795 70.2746 59.2777 70.0711C63.7979 66.9878 67.1999 62.1401 67.1999 60.5V56.1C67.1999 55.4917 67.6703 55 68.2499 55C69.2463 55 69.5876 54.3081 70.2428 51.9288L70.393 51.3887C70.9767 49.3174 71.3999 47.1361 71.3999 46.2C71.3968 46.2 71.2781 45.9184 70.4518 45.5367L71.298 43.5237C72.7586 44.198 73.4999 45.0978 73.4999 46.2C73.4999 47.6256 72.9109 50.2216 72.4068 52.0113L72.2609 52.5382C71.7453 54.4104 71.1699 56.4971 69.2999 57.0548V60.5C69.2999 63.2104 65.354 68.376 60.8999 71.5803V74.3369C60.8999 74.4095 60.9104 74.4975 60.9293 74.591C61.007 74.9485 61.2569 75.2444 61.5929 75.3665L62.3972 75.6646C64.0856 76.2916 67.0823 77.4279 71.7695 79.2682C80.7459 82.797 80.8499 92.3043 80.8499 92.4C80.8499 93.0083 80.3795 93.5 79.7999 93.5Z" fill="#002950"/>
<path d="M45.1499 44C44.311 44 43.5938 44.6479 43.2568 45.5785C43.4468 45.2958 43.745 45.1 44.0999 45.1C44.6795 45.1 45.1499 45.5928 45.1499 46.2C45.1499 46.8072 44.6795 47.3 44.0999 47.3C43.5728 47.3 43.156 46.8864 43.0804 46.3573C43.0657 46.486 43.0499 46.6147 43.0499 46.75C43.0499 48.2691 43.9897 49.5 45.1499 49.5C46.3102 49.5 47.2499 48.2691 47.2499 46.75C47.2499 45.2309 46.3102 44 45.1499 44ZM59.8499 44C59.011 44 58.2938 44.6479 57.9567 45.5785C58.1468 45.2958 58.445 45.1 58.7999 45.1C59.3795 45.1 59.8499 45.5928 59.8499 46.2C59.8499 46.8072 59.3795 47.3 58.7999 47.3C58.2728 47.3 57.8559 46.8864 57.7803 46.3573C57.7657 46.486 57.7499 46.6147 57.7499 46.75C57.7499 48.2691 58.6897 49.5 59.8499 49.5C61.0102 49.5 61.9499 48.2691 61.9499 46.75C61.9499 45.2309 61.0102 44 59.8499 44ZM63.3296 41.5261L64.0499 40.0851C62.709 39.7573 61.2779 39.5978 59.8499 39.6C58.0334 39.6033 56.2211 39.8717 54.5999 40.3953L55.5082 41.8C56.8396 41.3413 58.3432 41.1158 59.8499 41.1125C61.0343 41.1092 62.2219 41.2401 63.3296 41.5261ZM45.1499 41.1125C46.6567 41.1158 48.1602 41.3413 49.4916 41.8L50.3999 40.3953C48.7787 39.8717 46.9664 39.6044 45.1499 39.6C43.7219 39.5967 42.2908 39.7573 40.9499 40.0851L41.6702 41.5261C42.778 41.2401 43.9655 41.1092 45.1499 41.1125ZM79.7999 93.5H25.1999C24.6203 93.5 24.1499 93.0083 24.1499 92.4C24.1499 92.3043 24.2539 82.797 33.2314 79.2693C37.8598 77.451 40.8806 76.307 42.6005 75.6668L43.4048 75.3687C43.8206 75.2158 44.0999 74.8 44.0999 74.3336V70.9962C44.0999 70.3879 44.5703 69.8962 45.1499 69.8962C45.7295 69.8962 46.1999 70.3879 46.1999 70.9962V74.3336C46.1999 75.7317 45.3568 76.9813 44.102 77.4433L43.303 77.7403C41.5915 78.3772 38.5811 79.5168 33.9674 81.3307C28.0465 83.6561 26.6668 88.99 26.3455 91.3H78.6596C78.3551 88.9878 77.0048 83.677 71.0293 81.3307C66.4156 79.5179 63.4062 78.3772 61.6937 77.7403L60.8936 77.4433C59.6431 76.9813 58.7999 75.7328 58.7999 74.3336V70.9962C58.7999 70.3879 59.2703 69.8962 59.8499 69.8962C60.4295 69.8962 60.8999 70.3879 60.8999 70.9962V74.3336C60.8999 74.8 61.1792 75.2158 61.5939 75.3676L62.4004 75.6657C64.1203 76.3059 67.1411 77.4499 71.7695 79.2682C80.7459 82.797 80.8499 92.3043 80.8499 92.4C80.8499 93.0083 80.3795 93.5 79.7999 93.5Z" fill="#002950"/>
<path d="M52.4999 79.2C45.5951 79.2 42.3674 77.0011 42.2341 76.9076C41.9936 76.7393 41.9285 76.3994 42.0881 76.1475C42.2467 75.8945 42.5722 75.8252 42.8147 75.9913C42.8452 76.0133 45.9479 78.1 52.4999 78.1C53.0428 78.1 53.5531 78.0813 54.0487 78.056C54.3364 78.0296 54.5852 78.2727 54.5999 78.5774C54.6146 78.8799 54.392 79.1395 54.1022 79.1538C53.5898 79.1813 53.0606 79.2 52.4999 79.2ZM56.1749 78.9657C55.9145 78.9657 55.6888 78.7622 55.6541 78.4839C55.6174 78.1836 55.8211 77.9086 56.1088 77.869C56.806 77.7766 57.478 77.6556 58.1636 77.5005C58.4482 77.4367 58.7264 77.6248 58.7883 77.9218C58.8503 78.2188 58.6697 78.5114 58.3862 78.5752C57.6701 78.738 56.9687 78.8645 56.2411 78.9613C56.219 78.9646 56.197 78.9657 56.1749 78.9657Z" fill="#002950"/>
<path d="M25.7249 39.6H19.4249C19.1351 39.6 18.8999 39.3536 18.8999 39.05C18.8999 38.7464 19.1351 38.5 19.4249 38.5H25.7249C26.0147 38.5 26.2499 38.7464 26.2499 39.05C26.2499 39.3536 26.0147 39.6 25.7249 39.6Z" fill="#002950"/>
<path d="M27.3398 30.0059C27.2799 30.0059 27.219 29.9949 27.1602 29.9729L21.2403 27.7157C20.9673 27.6112 20.8266 27.2966 20.9264 27.0106C21.0251 26.7246 21.3275 26.5772 21.5994 26.6817L27.5193 28.9389C27.7923 29.0434 27.933 29.358 27.8333 29.644C27.7556 29.8673 27.554 30.0059 27.3398 30.0059Z" fill="#002950"/>
<path d="M31.9882 21.57C31.8695 21.57 31.7498 21.5282 31.6511 21.4413L26.8253 17.1986C26.6038 17.0028 26.5744 16.6563 26.7602 16.4242C26.9461 16.191 27.2779 16.1602 27.4994 16.356L32.3252 20.5987C32.5468 20.7945 32.5762 21.141 32.3903 21.3731C32.2874 21.504 32.1383 21.57 31.9882 21.57Z" fill="#002950"/>
<path d="M73.0115 21.5699C72.8614 21.5699 72.7123 21.5028 72.6094 21.373C72.4225 21.1409 72.4519 20.7944 72.6745 20.5986L77.5003 16.3559C77.7229 16.159 78.0547 16.1909 78.2395 16.4241C78.4264 16.6562 78.397 17.0027 78.1744 17.1985L73.3486 21.4412C73.2499 21.5281 73.1302 21.5699 73.0115 21.5699Z" fill="#002950"/>
<path d="M77.6601 30.0059C77.4459 30.0059 77.2443 29.8673 77.1666 29.644C77.0668 29.358 77.2076 29.0434 77.4806 28.9389L83.4005 26.6817C83.6724 26.5772 83.9748 26.7246 84.0735 27.0106C84.1732 27.2966 84.0326 27.6112 83.7596 27.7157L77.8397 29.9729C77.7809 29.996 77.7199 30.0059 77.6601 30.0059Z" fill="#002950"/>
<path d="M85.575 39.6H79.275C78.9852 39.6 78.75 39.3536 78.75 39.05C78.75 38.7464 78.9852 38.5 79.275 38.5H85.575C85.8648 38.5 86.1 38.7464 86.1 39.05C86.1 39.3536 85.8648 39.6 85.575 39.6Z" fill="#002950"/>
<path d="M52.5 67.1C46.4698 67.1 44.247 62.5878 44.1557 62.3964C44.0738 62.2259 44.0832 62.0235 44.1788 61.8618C44.2743 61.7001 44.4433 61.6 44.625 61.6H60.375C60.5567 61.6 60.7257 61.699 60.8212 61.8607C60.9168 62.0224 60.9262 62.2248 60.8443 62.3953C60.753 62.5878 58.5302 67.1 52.5 67.1ZM45.5941 62.7C46.472 63.8946 48.5761 66 52.5 66C56.4239 66 58.5281 63.8946 59.4059 62.7H45.5941Z" fill="#002950"/>
<path d="M52.4998 58.3001C50.424 58.3001 49.4937 57.034 49.4548 56.9801C49.2805 56.737 49.3278 56.3927 49.5598 56.2101C49.7908 56.0286 50.1174 56.077 50.2917 56.3168C50.3263 56.3608 50.9826 57.2001 52.4998 57.2001C54.0265 57.2001 54.6807 56.352 54.709 56.3146C54.8865 56.0781 55.2162 56.0319 55.443 56.2156C55.6708 56.3993 55.7181 56.7392 55.5459 56.979C55.506 57.034 54.5767 58.3001 52.4998 58.3001Z" fill="#002950"/>
</svg>
