<svg width="130" height="130" viewBox="0 0 130 130" fill="none" xmlns="http://www.w3.org/2000/svg">
<path d="M113.38 73.723C114.855 70.9215 115.7 67.7365 115.7 64.35C115.7 55.7427 110.293 48.4159 102.699 45.5286C102.699 45.5195 102.7 45.5104 102.7 45.5C102.7 30.4226 90.4774 18.2 75.4 18.2C62.6808 18.2 52.0247 26.9113 48.9931 38.6841C47.0743 38.0536 45.0294 37.7 42.9 37.7C32.9004 37.7 24.6701 45.2309 23.543 54.9276C16.7778 56.3589 11.7 62.3597 11.7 69.55C11.7 77.8063 18.3937 84.5 26.65 84.5C26.8801 84.5 27.1076 84.4844 27.3338 84.4714C27.3286 84.6989 27.3 84.9212 27.3 85.15C27.3 99.8686 39.2314 111.8 53.95 111.8C62.3181 111.8 69.7775 107.936 74.6642 101.902C77.4956 104.794 81.432 106.6 85.8 106.6C91.845 106.6 97.0762 103.155 99.6658 98.1266C101.033 98.5621 102.488 98.8 104 98.8C111.898 98.8 118.3 92.3975 118.3 84.5C118.3 80.1957 116.389 76.3451 113.38 73.723Z" fill="#8053EC" fill-opacity="0.29"/>
<path d="M102.05 78.6501V79.3001H105.95V78.6501C105.95 78.6501 111.465 78.6501 113.1 78.6501C116.33 78.6501 118.95 76.0306 118.95 72.8001C118.95 69.7672 116.633 67.3023 113.678 67.0085C113.707 66.7732 113.75 66.5431 113.75 66.3001C113.75 63.0696 111.13 60.45 107.9 60.45C106.031 60.45 104.386 61.3418 103.315 62.7068C103.133 59.28 100.322 56.55 96.85 56.55C93.2607 56.55 90.35 59.4607 90.35 63.05C90.35 63.6298 90.4501 64.1811 90.5931 64.7167C89.7585 63.7066 88.5118 63.05 87.1 63.05C84.7847 63.05 82.8958 64.7856 82.6085 67.0216C82.3732 66.993 82.1431 66.9501 81.9 66.9501C78.6695 66.9501 76.05 69.5696 76.05 72.8001C76.05 76.0306 78.6695 78.6501 81.9 78.6501C85.1305 78.6501 94.25 78.6501 94.25 78.6501H102.05Z" fill="#FDFCEF"/>
<path d="M96.85 55.8999C92.9071 55.8999 89.7 59.107 89.7 63.0499C89.7 63.0707 89.7 63.0902 89.7 63.111C88.9174 62.6495 88.023 62.3999 87.1 62.3999C84.7197 62.3999 82.6657 64.0392 82.0846 66.3064C82.0235 66.3025 81.9624 66.2999 81.9 66.2999C78.3159 66.2999 75.4 69.2158 75.4 72.7999C75.4 76.384 78.3159 79.2999 81.9 79.2999H102.05C102.409 79.2999 102.7 79.0087 102.7 78.6499C102.7 78.2911 102.409 77.9999 102.05 77.9999H81.9C79.0322 77.9999 76.7 75.6677 76.7 72.7999C76.7 69.9321 79.0322 67.5999 81.9 67.5999C82.0521 67.5999 82.199 67.622 82.3459 67.6415L82.5292 67.6662C82.5565 67.6701 82.5825 67.6714 82.6098 67.6714C82.9296 67.6714 83.2104 67.4309 83.2533 67.1033C83.5016 65.1624 85.1552 63.6999 87.1 63.6999C88.2505 63.6999 89.3399 64.2212 90.0913 65.1299C90.2187 65.2833 90.4046 65.3665 90.5931 65.3665C90.6945 65.3665 90.7959 65.3431 90.8895 65.2937C91.1612 65.1546 91.2977 64.8439 91.2197 64.5488C91.0702 63.9833 91 63.5075 91 63.0499C91 59.8246 93.6247 57.1999 96.85 57.1999C99.9453 57.1999 102.501 59.6335 102.666 62.7418C102.681 63.0122 102.861 63.2449 103.12 63.3268C103.185 63.3476 103.251 63.358 103.318 63.358C103.513 63.358 103.702 63.2683 103.827 63.1084C104.829 61.8318 106.313 61.0999 107.9 61.0999C110.768 61.0999 113.1 63.4321 113.1 66.2999C113.1 66.452 113.078 66.5989 113.058 66.7458L113.034 66.9291C113.013 67.1033 113.062 67.2775 113.172 67.414C113.281 67.5505 113.441 67.6376 113.614 67.6545C116.286 67.921 118.3 70.1336 118.3 72.7999C118.3 75.6677 115.968 77.9999 113.1 77.9999H105.95C105.591 77.9999 105.3 78.2911 105.3 78.6499C105.3 79.0087 105.591 79.2999 105.95 79.2999H113.1C116.684 79.2999 119.6 76.384 119.6 72.7999C119.6 69.6838 117.404 67.063 114.396 66.4598C114.399 66.4065 114.4 66.3532 114.4 66.2999C114.4 62.7158 111.484 59.7999 107.9 59.7999C106.371 59.7999 104.919 60.3407 103.762 61.3131C102.985 58.1879 100.172 55.8999 96.85 55.8999Z" fill="#472B29"/>
<path d="M94.9 65C93.0761 65 91.5083 66.2987 91.1131 68.0433C90.636 67.7547 90.0913 67.6 89.5375 67.6C87.9749 67.6 86.6801 68.7661 86.4786 70.2884C86.2147 70.2286 85.9638 70.2 85.7194 70.2C83.7317 70.2 82.0651 71.76 81.926 73.7516C81.913 73.931 82.0482 74.087 82.2263 74.1C82.2341 74.1 82.2419 74.1 82.2497 74.1C82.4187 74.1 82.5617 73.9687 82.5734 73.7984C82.6891 72.1461 84.0697 70.85 85.7181 70.85C86.0158 70.85 86.3291 70.9046 86.6775 71.0151C86.7061 71.0242 86.736 71.0281 86.7646 71.0281C86.8361 71.0281 86.9076 71.0021 86.9674 70.9579C87.0506 70.8981 87.1 70.7915 87.1 70.6875C87.1 69.3433 88.1933 68.25 89.5375 68.25C90.1186 68.25 90.688 68.4684 91.1378 68.8649C91.1989 68.9182 91.2756 68.9468 91.3523 68.9468C91.3939 68.9468 91.4342 68.939 91.4732 68.9221C91.5876 68.8766 91.6656 68.77 91.6747 68.6465C91.8099 66.9656 93.2256 65.65 94.9 65.65C95.1704 65.65 95.4525 65.6942 95.7866 65.7891C95.8165 65.7982 95.8477 65.8021 95.8776 65.8021C96.0193 65.8021 96.1467 65.7072 96.1883 65.5655C96.2377 65.3926 96.1376 65.2132 95.9647 65.1638C95.5721 65.052 95.2328 65 94.9 65Z" fill="#472B29"/>
<path d="M112.948 66.95C111.224 66.95 109.688 68.1161 109.212 69.7866C109.162 69.9595 109.262 70.1389 109.435 70.1883C109.467 70.1961 109.496 70.2 109.525 70.2C109.667 70.2 109.797 70.1064 109.837 69.9634C110.234 68.5724 111.513 67.6 112.948 67.6C113.1 67.6 113.247 67.6182 113.393 67.6377C113.408 67.6403 113.422 67.6416 113.438 67.6416C113.595 67.6416 113.736 67.522 113.758 67.3595C113.783 67.1813 113.658 67.0176 113.48 66.9942C113.305 66.9708 113.129 66.95 112.948 66.95Z" fill="#472B29"/>
<path d="M20.15 66.3H7.15C6.7912 66.3 6.5 66.0088 6.5 65.65C6.5 65.2912 6.7912 65 7.15 65H20.15C20.5088 65 20.8 65.2912 20.8 65.65C20.8 66.0088 20.5101 66.3 20.15 66.3Z" fill="white"/>
<path d="M24.05 66.3H22.75C22.3912 66.3 22.1 66.0088 22.1 65.65C22.1 65.2912 22.3912 65 22.75 65H24.05C24.4088 65 24.7 65.2912 24.7 65.65C24.7 66.0088 24.4101 66.3 24.05 66.3Z" fill="white"/>
<path d="M30.5383 68.9001H18.85C18.4912 68.9001 18.2 68.6089 18.2 68.2501C18.2 67.8913 18.4912 67.6001 18.85 67.6001H30.5383C30.8971 67.6001 31.1883 67.8913 31.1883 68.2501C31.1883 68.6089 30.8971 68.9001 30.5383 68.9001Z" fill="white"/>
<path d="M16.25 68.9001H14.95C14.5912 68.9001 14.3 68.6089 14.3 68.2501C14.3 67.8913 14.5912 67.6001 14.95 67.6001H16.25C16.6088 67.6001 16.9 67.8913 16.9 68.2501C16.9 68.6089 16.6101 68.9001 16.25 68.9001Z" fill="white"/>
<path d="M12.35 68.9001H9.74998C9.39118 68.9001 9.09998 68.6089 9.09998 68.2501C9.09998 67.8913 9.39118 67.6001 9.74998 67.6001H12.35C12.7088 67.6001 13 67.8913 13 68.2501C13 68.6089 12.7101 68.9001 12.35 68.9001Z" fill="white"/>
<path d="M20.15 71.5H17.55C17.1912 71.5 16.9 71.2088 16.9 70.85C16.9 70.4912 17.1912 70.2 17.55 70.2H20.15C20.5088 70.2 20.8 70.4912 20.8 70.85C20.8 71.2088 20.5088 71.5 20.15 71.5Z" fill="white"/>
<path d="M24.05 59.8C23.8199 59.8 22.9801 59.8 22.75 59.8C22.3912 59.8 22.1 60.0912 22.1 60.45C22.1 60.8088 22.3912 61.1 22.75 61.1C22.9801 61.1 23.8199 61.1 24.05 61.1C24.4088 61.1 24.7 60.8088 24.7 60.45C24.7 60.0912 24.4088 59.8 24.05 59.8Z" fill="white"/>
<path d="M24.05 62.3999C23.8199 62.3999 17.7801 62.3999 17.55 62.3999C17.1912 62.3999 16.9 62.6911 16.9 63.0499C16.9 63.4087 17.1912 63.6999 17.55 63.6999C17.7801 63.6999 23.8199 63.6999 24.05 63.6999C24.4088 63.6999 24.7 63.4087 24.7 63.0499C24.7 62.6911 24.4088 62.3999 24.05 62.3999Z" fill="white"/>
<path d="M30.55 65C30.3199 65 26.8801 65 26.65 65C26.2912 65 26 65.2912 26 65.65C26 66.0088 26.2912 66.3 26.65 66.3C26.8801 66.3 30.3199 66.3 30.55 66.3C30.9088 66.3 31.2 66.0088 31.2 65.65C31.2 65.2912 30.9088 65 30.55 65Z" fill="white"/>
<path d="M94.25 31.2001H81.25C80.8912 31.2001 80.6 30.9089 80.6 30.5501C80.6 30.1913 80.8912 29.9001 81.25 29.9001H94.25C94.6088 29.9001 94.9 30.1913 94.9 30.5501C94.9 30.9089 94.6088 31.2001 94.25 31.2001Z" fill="white"/>
<path d="M99.45 31.2001H96.85C96.4912 31.2001 96.2 30.9089 96.2 30.5501C96.2 30.1913 96.4912 29.9001 96.85 29.9001H99.45C99.8088 29.9001 100.1 30.1913 100.1 30.5501C100.1 30.9089 99.8088 31.2001 99.45 31.2001Z" fill="white"/>
<path d="M105.95 33.8H92.95C92.5912 33.8 92.3 33.5088 92.3 33.15C92.3 32.7912 92.5912 32.5 92.95 32.5H105.95C106.309 32.5 106.6 32.7912 106.6 33.15C106.6 33.5088 106.31 33.8 105.95 33.8Z" fill="white"/>
<path d="M90.35 33.8H89.05C88.6912 33.8 88.4 33.5088 88.4 33.15C88.4 32.7912 88.6912 32.5 89.05 32.5H90.35C90.7088 32.5 91 32.7912 91 33.15C91 33.5088 90.7088 33.8 90.35 33.8Z" fill="white"/>
<path d="M86.411 33.8H83.85C83.4912 33.8 83.2 33.5088 83.2 33.15C83.2 32.7912 83.4912 32.5 83.85 32.5H86.411C86.7698 32.5 87.061 32.7912 87.061 33.15C87.061 33.5088 86.7698 33.8 86.411 33.8Z" fill="white"/>
<path d="M98.15 28.6H91.65C91.2912 28.6 91 28.3088 91 27.95C91 27.5912 91.2912 27.3 91.65 27.3H98.15C98.5088 27.3 98.8 27.5912 98.8 27.95C98.8 28.3088 98.5101 28.6 98.15 28.6Z" fill="white"/>
<path d="M94.25 36.4001H91.65C91.2912 36.4001 91 36.1089 91 35.7501C91 35.3913 91.2912 35.1001 91.65 35.1001H94.25C94.6088 35.1001 94.9 35.3913 94.9 35.7501C94.9 36.1089 94.6088 36.4001 94.25 36.4001Z" fill="white"/>
<path d="M67.6 95.2249C84.2928 95.2249 97.825 81.6927 97.825 64.9999C97.825 48.3071 84.2928 34.7749 67.6 34.7749C50.9072 34.7749 37.375 48.3071 37.375 64.9999C37.375 81.6927 50.9072 95.2249 67.6 95.2249Z" fill="#BB6DF3"/>
<path d="M67.6 96.135C50.4322 96.135 36.465 82.1678 36.465 65C36.465 47.8322 50.4322 33.865 67.6 33.865C84.7678 33.865 98.735 47.8322 98.735 65C98.735 82.1678 84.7678 96.135 67.6 96.135ZM67.6 35.685C51.4345 35.685 38.285 48.8358 38.285 65C38.285 81.1642 51.4345 94.315 67.6 94.315C83.7655 94.315 96.915 81.1642 96.915 65C96.915 48.8358 83.7655 35.685 67.6 35.685Z" fill="#2F005F"/>
<path d="M67.522 90.5515C81.5906 90.5515 92.9955 79.1815 92.9955 65.156C92.9955 51.1305 81.5906 39.7605 67.522 39.7605C53.4534 39.7605 42.0485 51.1305 42.0485 65.156C42.0485 79.1815 53.4534 90.5515 67.522 90.5515Z" fill="#D0F3FB"/>
<path d="M91.8099 58.4831C91.5317 58.4831 91.2743 58.3037 91.1885 58.0242C91.078 57.6667 90.961 57.3131 90.8349 56.9621C90.3474 55.601 89.7312 54.2737 89.0058 53.0166C88.8251 52.7059 88.9317 52.3081 89.2437 52.1287C89.5479 51.9493 89.9496 52.0546 90.1316 52.3666C90.8973 53.6913 91.546 55.0888 92.0595 56.5227C92.1921 56.8919 92.3156 57.265 92.4313 57.642C92.5379 57.9852 92.3455 58.3492 92.0023 58.4545C91.9373 58.474 91.8736 58.4831 91.8099 58.4831Z" fill="#2F005F"/>
<path d="M83.4171 83.5875C83.2598 80.279 82.9829 78.3537 82.9829 78.3537C82.6657 76.6728 81.9806 75.6874 80.3647 75.1999C80.2945 75.1791 80.2009 75.144 80.0943 75.1037C79.9721 75.0504 79.8174 74.988 79.6354 74.9178C78.6565 74.5044 72.8416 72.3581 72.8416 72.3581C72.3619 72.2359 72.0499 71.8953 71.8705 71.5105C71.6625 71.0672 71.656 70.139 71.6716 69.6138C72.6206 68.8949 73.3382 68.2033 73.541 68.007C74.4757 67.1035 75.3285 66.044 75.6353 64.7986C75.7185 64.4619 75.777 64.2084 76.0799 63.9835C76.6272 63.5766 77.1602 63.4895 77.5021 62.8603C78.1131 61.7332 78.4901 58.8719 78.5928 58.8108C78.4498 58.1582 77.779 57.6304 76.9509 57.5745C76.8599 57.568 76.7663 57.568 76.6688 57.568C75.9122 57.5316 75.9772 57.8163 76.011 57.3483C76.0721 56.5176 75.6769 53.1649 75.6769 52.9959C75.6769 49.5041 72.8871 45.335 68.3332 45.1764C68.3332 45.1764 65.4394 45.0126 65.4082 45.0139C61.1832 46.6389 58.6651 49.5665 58.6651 53.0583C58.6651 53.2286 58.5234 56.5345 58.5832 57.3652C58.617 57.8332 58.8601 57.5316 58.1035 57.5693C58.0073 57.5693 57.9137 57.5706 57.8214 57.5758C56.992 57.6304 56.3212 58.1582 56.1795 58.8121C56.2809 58.8745 56.6579 61.7345 57.2702 62.8616C57.6108 63.4908 58.1438 63.5792 58.6924 63.9848C58.9953 64.2097 59.0538 64.4632 59.137 64.7999C59.4438 66.0453 60.2966 67.1048 61.2313 68.0083C61.4289 68.1981 62.1023 68.904 63.011 69.6359C62.9798 70.3418 62.9317 71.1829 62.8771 71.4728C62.7978 71.8875 62.3506 72.2385 61.8709 72.3607L56.29 74.3848C55.6725 74.546 55.0797 74.7761 54.5597 75.0985C53.1557 75.9656 52.4433 77.2669 52.0819 78.3576C52.0819 78.3576 51.714 80.955 51.7296 81.0486C51.6945 81.4126 51.6581 81.8117 51.623 82.2329C51.6477 82.2498 51.6724 82.2641 51.6971 82.281C51.6815 83.1065 51.6659 84.1725 51.6503 84.9174C56.0768 88.2246 61.5628 90.1928 67.522 90.1928C73.4435 90.1928 78.9009 88.2506 83.3131 84.9798C83.2923 84.5482 83.2715 84.1088 83.2494 83.672C83.3001 83.6408 83.3664 83.6135 83.4171 83.5875Z" fill="#F9EAB5"/>
<path d="M67.4778 71.877C65.767 71.877 62.933 69.8074 62.8069 69.7164C62.6626 69.6098 62.6314 69.407 62.738 69.2627C62.8459 69.1171 63.0487 69.0885 63.193 69.1938C64.0224 69.8035 66.4651 71.3544 67.6143 71.2218C69.0807 71.0554 71.4571 69.3823 71.4818 69.3654C71.6287 69.2614 71.8315 69.2965 71.9355 69.4421C72.0395 69.5877 72.0044 69.7918 71.8575 69.8958C71.7548 69.9686 69.3212 71.6833 67.6884 71.8679C67.6208 71.8731 67.5506 71.877 67.4778 71.877Z" fill="#2F005F"/>
<path d="M83.3677 85.5543C83.0219 85.5543 82.7359 85.284 82.719 84.9356C82.5604 81.6492 82.3342 78.5396 82.3342 78.5396C82.0521 77.0693 81.4658 76.3503 80.1775 75.9616C80.0956 75.9369 79.9877 75.898 79.8642 75.8512C79.7212 75.7901 79.573 75.7302 79.4014 75.6639C78.4303 75.2531 72.6752 73.129 72.618 73.1082C72.0694 72.9729 71.5715 72.5465 71.2816 71.9264C71.2101 71.7717 70.9904 71.3037 71.019 69.84C71.0229 69.6346 71.1243 69.4422 71.292 69.3226C72.2449 68.644 72.9534 68.0564 73.0886 67.9251C74.1637 66.872 74.7734 65.9399 75.0061 64.9922C75.101 64.597 75.205 64.1654 75.6912 63.8014C75.8914 63.6506 76.0916 63.5363 76.2827 63.4284C76.6246 63.236 76.7949 63.132 76.9301 62.8785C77.4839 61.8463 77.909 59.8755 77.9402 59.1657C77.8245 58.8082 77.3942 58.5222 76.9067 58.4884C76.8274 58.4832 76.7494 58.4831 76.6675 58.4831L76.3373 58.4662C75.9928 58.4454 75.725 58.162 75.725 57.8175V53.95C75.725 49.3805 72.0083 45.6625 67.4375 45.6625H67.275C62.7042 45.6625 58.9875 49.3805 58.9875 53.95V57.8397C58.9875 58.0178 58.9147 58.188 58.786 58.3102C58.6573 58.4324 58.5039 58.4988 58.3063 58.4884C58.3076 58.4897 58.1126 58.4793 58.1022 58.4793C58.0203 58.4793 57.9423 58.4792 57.8643 58.4844C57.3755 58.5169 56.9452 58.8029 56.8295 59.1617C56.8607 59.8806 57.3066 61.8788 57.8396 62.8746C57.9748 63.1268 58.1451 63.2307 58.487 63.4244C58.6781 63.5323 58.8783 63.6468 59.0785 63.7976C59.5647 64.1616 59.6687 64.5931 59.761 64.974C59.9963 65.936 60.6047 66.8695 61.6824 67.9225C61.8033 68.0395 62.4455 68.5542 63.3828 69.2081C63.5661 69.3356 63.6701 69.5474 63.6597 69.7697C63.5908 71.3232 63.5323 71.6287 63.5141 71.7288C63.3711 72.4698 62.6652 72.9639 62.0282 73.125L56.511 75.1297C55.8532 75.3052 55.3306 75.5197 54.9003 75.7849C53.6471 76.5571 53.1284 77.1082 52.7072 78.6604C52.3614 79.9357 52.3094 82.7373 52.2886 83.9346C52.2821 84.2843 52.2756 84.5313 52.2678 84.6223C52.2392 84.9811 51.9233 85.245 51.5658 85.2151C51.2083 85.1852 50.9431 84.8706 50.973 84.5131C50.9795 84.4338 50.9821 84.2179 50.9886 83.9111C51.0146 82.5617 51.0666 79.7525 51.4527 78.3212C51.9883 76.3439 52.7709 75.5716 54.2165 74.6786C54.7573 74.3444 55.3982 74.0793 56.1236 73.8895L61.646 71.8835C61.9996 71.7899 62.2154 71.5897 62.2362 71.4844C62.2531 71.3999 62.2934 71.097 62.3441 70.0661C61.5823 69.5227 60.9635 69.0379 60.775 68.852C59.5153 67.6196 58.7938 66.4899 58.5026 65.2952C58.4207 64.9572 58.3999 64.9117 58.2998 64.8363C58.1464 64.7219 57.9943 64.6374 57.8487 64.5555C57.4574 64.3345 57.0141 64.0849 56.6943 63.4882C56.0092 62.209 55.5282 59.8664 55.5282 59.0851C55.5282 59.0396 55.5334 58.9928 55.5425 58.9486C55.744 58.0126 56.6202 57.3014 57.6875 57.1948V53.95C57.6875 48.6642 61.9892 44.3625 67.275 44.3625H67.4375C72.7233 44.3625 77.025 48.6629 77.025 53.95V57.1922C78.117 57.278 79.0205 57.9983 79.2259 58.9511C79.235 58.9966 79.2402 59.0421 79.2402 59.0876C79.2402 59.9638 78.7397 62.248 78.0741 63.4908C77.7543 64.0875 77.311 64.337 76.9197 64.5581C76.7754 64.6399 76.622 64.7244 76.4686 64.8389C76.3685 64.9142 76.3477 64.9597 76.271 65.2808C75.9746 66.4911 75.2531 67.6222 73.9947 68.8533C73.801 69.0418 73.1549 69.5747 72.3164 70.1844C72.3229 70.8435 72.3905 71.2283 72.4581 71.374C72.5842 71.6418 72.7662 71.8069 73.0015 71.8667C73.3044 71.9746 78.9074 74.0429 79.8889 74.4576C80.0605 74.5239 80.223 74.5901 80.3504 74.6447C80.4154 74.6681 80.4947 74.698 80.5532 74.7162C82.3199 75.2492 83.2364 76.3426 83.6199 78.3706C83.6303 78.4446 83.8565 81.5699 84.0151 84.8719C84.0333 85.2307 83.7564 85.5348 83.3976 85.5518C83.3885 85.5543 83.3781 85.5543 83.3677 85.5543Z" fill="#2F005F"/>
<path d="M67.6 91.0456C53.2376 91.0456 41.5545 79.3963 41.5545 65.0781C41.5545 50.7599 53.2376 39.1106 67.6 39.1106C75.0529 39.1106 82.1639 42.3047 87.1091 47.8726C87.4822 48.2938 87.8436 48.7267 88.1881 49.1713C88.4091 49.4547 88.3571 49.8629 88.0737 50.0839C87.7916 50.3023 87.3821 50.2529 87.1611 49.9682C86.8335 49.5457 86.4916 49.1349 86.1367 48.7345C81.4398 43.4435 74.6824 40.4093 67.6 40.4093C53.9552 40.4093 42.8545 51.4749 42.8545 65.0768C42.8545 78.6787 53.9552 89.7443 67.6 89.7443C81.2448 89.7443 92.3455 78.6787 92.3455 65.0768C92.3455 63.8418 92.2532 62.5964 92.0686 61.3757C92.0153 61.0208 92.2584 60.6893 92.6146 60.636C92.9669 60.584 93.301 60.8258 93.353 61.182C93.5467 62.4664 93.6455 63.7768 93.6455 65.0768C93.6455 79.3963 81.9624 91.0456 67.6 91.0456Z" fill="#2F005F"/>
<path d="M48.75 94.2499C48.75 94.2499 50.7871 94.2499 53.3 94.2499C55.8129 94.2499 57.85 92.2128 57.85 89.6999C57.85 87.3846 56.1145 85.4957 53.8785 85.2084C53.9149 84.9757 53.95 84.743 53.95 84.4999C53.95 81.987 51.9129 79.9499 49.4 79.9499C48.0584 79.9499 46.865 80.5414 46.033 81.4644C45.5338 79.114 43.4499 77.3499 40.95 77.3499C38.0783 77.3499 35.75 79.6782 35.75 82.5499C35.75 82.7982 35.789 83.0361 35.8228 83.2753C35.2664 82.8281 34.5696 82.5499 33.8 82.5499C32.2036 82.5499 30.8815 83.703 30.6085 85.2214C30.3758 85.185 30.1431 85.1499 29.9 85.1499C27.3871 85.1499 25.35 87.187 25.35 89.6999C25.35 92.2128 27.3871 94.2499 29.9 94.2499C32.4129 94.2499 39.65 94.2499 39.65 94.2499V94.8999H48.75V94.2499Z" fill="#FDFCEF"/>
<path d="M51.025 88.4001C50.8456 88.4001 50.7 88.2545 50.7 88.0751C50.7 86.4852 51.9935 85.1917 53.5834 85.1917C53.6276 85.2034 54.5415 85.1904 55.2006 85.3685C55.3735 85.4153 55.4762 85.5934 55.4294 85.7663C55.3826 85.9405 55.2045 86.0432 55.0316 85.9951C54.4544 85.8391 53.6016 85.8391 53.5847 85.8417C52.3523 85.8417 51.35 86.844 51.35 88.0751C51.35 88.2545 51.2044 88.4001 51.025 88.4001Z" fill="#472B29"/>
<path d="M42.25 94.8999C42.609 94.8999 42.9 94.6088 42.9 94.2499C42.9 93.8909 42.609 93.5999 42.25 93.5999C41.891 93.5999 41.6 93.8909 41.6 94.2499C41.6 94.6088 41.891 94.8999 42.25 94.8999Z" fill="#472B29"/>
<path d="M53.3 94.8999H48.75C48.3912 94.8999 48.1 94.6087 48.1 94.2499C48.1 93.8911 48.3912 93.5999 48.75 93.5999H53.3C55.4502 93.5999 57.2 91.8501 57.2 89.6999C57.2 87.7551 55.7375 86.1016 53.7966 85.8533C53.6224 85.8299 53.4651 85.7389 53.3598 85.5985C53.2545 85.4581 53.2103 85.2813 53.2376 85.1084C53.2675 84.9082 53.3 84.708 53.3 84.5C53.3 82.3498 51.5502 80.6 49.4 80.6C48.295 80.6 47.2706 81.0615 46.5153 81.9C46.3528 82.0807 46.098 82.1573 45.8653 82.0923C45.6287 82.0286 45.448 81.8389 45.3973 81.5997C44.954 79.5145 43.0833 78 40.95 78C38.441 78 36.4 80.041 36.4 82.55C36.4 82.7359 36.4273 82.9139 36.4533 83.0933C36.491 83.3572 36.3714 83.6628 36.1387 83.7954C35.906 83.928 35.6239 83.9487 35.4159 83.7823C34.9414 83.4014 34.3837 83.2 33.8 83.2C32.5442 83.2 31.4704 84.0982 31.2481 85.3371C31.1857 85.6842 30.8633 85.917 30.5084 85.8637C30.3082 85.8325 30.108 85.7999 29.9 85.7999C27.7498 85.7999 26 87.5497 26 89.6999C26 91.8501 27.7498 93.5999 29.9 93.5999H39.65C40.0088 93.5999 40.3 93.8911 40.3 94.2499C40.3 94.6087 40.0088 94.8999 39.65 94.8999H29.9C27.0322 94.8999 24.7 92.5677 24.7 89.6999C24.7 86.8321 27.0322 84.5 29.9 84.5C29.9767 84.5 30.0508 84.5025 30.1262 84.5077C30.6644 82.9659 32.1243 81.9 33.8 81.9C34.2537 81.9 34.6957 81.9793 35.1143 82.134C35.3288 79.1011 37.8638 76.7 40.95 76.7C43.3303 76.7 45.4558 78.165 46.3489 80.3061C47.2329 79.6587 48.3015 79.3 49.4 79.3C52.2678 79.3 54.6 81.6322 54.6 84.5C54.6 84.5624 54.5987 84.6234 54.5948 84.6845C56.8607 85.2669 58.5 87.3196 58.5 89.6999C58.5 92.5677 56.1678 94.8999 53.3 94.8999Z" fill="#472B29"/>
<path d="M46.15 93.5999C45.9433 93.5999 45.0567 93.5999 44.85 93.5999C44.4912 93.5999 44.2 93.8911 44.2 94.2499C44.2 94.6087 44.4912 94.8999 44.85 94.8999C45.0567 94.8999 45.9433 94.8999 46.15 94.8999C46.5088 94.8999 46.8 94.6087 46.8 94.2499C46.8 93.8911 46.5088 93.5999 46.15 93.5999Z" fill="#472B29"/>
</svg>
