<svg width="130" height="130" viewBox="0 0 130 130" fill="none" xmlns="http://www.w3.org/2000/svg">
<path d="M113.379 73.723C114.855 70.9215 115.7 67.7365 115.7 64.35C115.7 55.7427 110.293 48.4159 102.699 45.5286C102.699 45.5195 102.7 45.5104 102.7 45.5C102.7 30.4226 90.4774 18.2 75.4 18.2C62.6808 18.2 52.0247 26.9113 48.9931 38.6841C47.0743 38.0536 45.0294 37.7 42.9 37.7C32.9004 37.7 24.6701 45.2309 23.543 54.9276C16.7778 56.3589 11.7 62.3597 11.7 69.55C11.7 77.8063 18.3937 84.5 26.65 84.5C26.8801 84.5 27.1076 84.4844 27.3338 84.4714C27.3286 84.6989 27.3 84.9212 27.3 85.15C27.3 99.8686 39.2314 111.8 53.95 111.8C62.3181 111.8 69.7775 107.936 74.6642 101.902C77.4956 104.794 81.432 106.6 85.8 106.6C91.845 106.6 97.0762 103.155 99.6658 98.1266C101.033 98.5621 102.488 98.8 104 98.8C111.897 98.8 118.3 92.3975 118.3 84.5C118.3 80.1957 116.389 76.3451 113.379 73.723Z" fill="#DACDF9"/>
<path d="M25.35 61.1H12.35C11.9912 61.1 11.7 60.8088 11.7 60.45C11.7 60.0912 11.9912 59.8 12.35 59.8H25.35C25.7088 59.8 26 60.0912 26 60.45C26 60.8088 25.7101 61.1 25.35 61.1Z" fill="white"/>
<path d="M29.25 61.1H27.95C27.5912 61.1 27.3 60.8088 27.3 60.45C27.3 60.0912 27.5912 59.8 27.95 59.8H29.25C29.6088 59.8 29.9 60.0912 29.9 60.45C29.9 60.8088 29.6101 61.1 29.25 61.1Z" fill="white"/>
<path d="M35.7383 63.6999H24.05C23.6912 63.6999 23.4 63.4087 23.4 63.0499C23.4 62.6911 23.6912 62.3999 24.05 62.3999H35.7383C36.0971 62.3999 36.3883 62.6911 36.3883 63.0499C36.3883 63.4087 36.0971 63.6999 35.7383 63.6999Z" fill="white"/>
<path d="M21.45 63.6999H20.15C19.7912 63.6999 19.5 63.4087 19.5 63.0499C19.5 62.6911 19.7912 62.3999 20.15 62.3999H21.45C21.8088 62.3999 22.1 62.6911 22.1 63.0499C22.1 63.4087 21.8101 63.6999 21.45 63.6999Z" fill="white"/>
<path d="M17.55 63.6999H14.95C14.5912 63.6999 14.3 63.4087 14.3 63.0499C14.3 62.6911 14.5912 62.3999 14.95 62.3999H17.55C17.9088 62.3999 18.2 62.6911 18.2 63.0499C18.2 63.4087 17.9101 63.6999 17.55 63.6999Z" fill="white"/>
<path d="M25.35 66.3H22.75C22.3912 66.3 22.1 66.0088 22.1 65.65C22.1 65.2912 22.3912 65 22.75 65H25.35C25.7088 65 26 65.2912 26 65.65C26 66.0088 25.7088 66.3 25.35 66.3Z" fill="white"/>
<path d="M29.25 54.6001C29.0199 54.6001 28.1801 54.6001 27.95 54.6001C27.5912 54.6001 27.3 54.8913 27.3 55.2501C27.3 55.6089 27.5912 55.9001 27.95 55.9001C28.1801 55.9001 29.0199 55.9001 29.25 55.9001C29.6088 55.9001 29.9 55.6089 29.9 55.2501C29.9 54.8913 29.6088 54.6001 29.25 54.6001Z" fill="white"/>
<path d="M29.25 57.2C29.0199 57.2 22.9801 57.2 22.75 57.2C22.3912 57.2 22.1 57.4912 22.1 57.85C22.1 58.2088 22.3912 58.5 22.75 58.5C22.9801 58.5 29.0199 58.5 29.25 58.5C29.6088 58.5 29.9 58.2088 29.9 57.85C29.9 57.4912 29.6088 57.2 29.25 57.2Z" fill="white"/>
<path d="M35.75 59.8C35.5199 59.8 32.0801 59.8 31.85 59.8C31.4912 59.8 31.2 60.0912 31.2 60.45C31.2 60.8088 31.4912 61.1 31.85 61.1C32.0801 61.1 35.5199 61.1 35.75 61.1C36.1087 61.1 36.4 60.8088 36.4 60.45C36.4 60.0912 36.1087 59.8 35.75 59.8Z" fill="white"/>
<path d="M113.75 85.8H100.75C100.391 85.8 100.1 85.5088 100.1 85.15C100.1 84.7912 100.391 84.5 100.75 84.5H113.75C114.109 84.5 114.4 84.7912 114.4 85.15C114.4 85.5088 114.109 85.8 113.75 85.8Z" fill="white"/>
<path d="M118.95 85.8H116.35C115.991 85.8 115.7 85.5088 115.7 85.15C115.7 84.7912 115.991 84.5 116.35 84.5H118.95C119.309 84.5 119.6 84.7912 119.6 85.15C119.6 85.5088 119.309 85.8 118.95 85.8Z" fill="white"/>
<path d="M125.45 88.4001H112.45C112.091 88.4001 111.8 88.1089 111.8 87.7501C111.8 87.3913 112.091 87.1001 112.45 87.1001H125.45C125.809 87.1001 126.1 87.3913 126.1 87.7501C126.1 88.1089 125.81 88.4001 125.45 88.4001Z" fill="white"/>
<path d="M109.85 88.4001H108.55C108.191 88.4001 107.9 88.1089 107.9 87.7501C107.9 87.3913 108.191 87.1001 108.55 87.1001H109.85C110.209 87.1001 110.5 87.3913 110.5 87.7501C110.5 88.1089 110.209 88.4001 109.85 88.4001Z" fill="white"/>
<path d="M105.911 88.4001H103.35C102.991 88.4001 102.7 88.1089 102.7 87.7501C102.7 87.3913 102.991 87.1001 103.35 87.1001H105.911C106.27 87.1001 106.561 87.3913 106.561 87.7501C106.561 88.1089 106.27 88.4001 105.911 88.4001Z" fill="white"/>
<path d="M117.65 83.1999H111.15C110.791 83.1999 110.5 82.9087 110.5 82.5499C110.5 82.1911 110.791 81.8999 111.15 81.8999H117.65C118.009 81.8999 118.3 82.1911 118.3 82.5499C118.3 82.9087 118.01 83.1999 117.65 83.1999Z" fill="white"/>
<path d="M113.75 91H111.15C110.791 91 110.5 90.7088 110.5 90.35C110.5 89.9912 110.791 89.7 111.15 89.7H113.75C114.109 89.7 114.4 89.9912 114.4 90.35C114.4 90.7088 114.109 91 113.75 91Z" fill="white"/>
<path d="M52.65 45.9875V46.6375H56.55V45.9875C56.55 45.9875 62.0646 45.9875 63.7 45.9875C66.9305 45.9875 69.55 43.368 69.55 40.1375C69.55 37.1046 67.2334 34.6398 64.2785 34.346C64.3071 34.1107 64.35 33.8806 64.35 33.6375C64.35 30.407 61.7305 27.7875 58.5 27.7875C56.6306 27.7875 54.9861 28.6793 53.9149 30.0443C53.7329 26.6175 50.9223 23.8875 47.45 23.8875C43.8607 23.8875 40.95 26.7982 40.95 30.3875C40.95 30.9673 41.0501 31.5185 41.1931 32.0541C40.3585 31.044 39.1131 30.3875 37.7 30.3875C35.3847 30.3875 33.4958 32.123 33.2085 34.359C32.9732 34.3304 32.7431 34.2875 32.5 34.2875C29.2695 34.2875 26.65 36.907 26.65 40.1375C26.65 43.368 29.2695 45.9875 32.5 45.9875C35.7305 45.9875 44.85 45.9875 44.85 45.9875H52.65Z" fill="#FDFCEF"/>
<path d="M47.45 23.2375C43.5071 23.2375 40.3 26.4446 40.3 30.3875C40.3 30.4083 40.3 30.4279 40.3 30.4487C39.5174 29.9885 38.623 29.7375 37.7 29.7375C35.3197 29.7375 33.2657 31.3768 32.6846 33.644C32.6235 33.6401 32.5624 33.6376 32.5 33.6376C28.9159 33.6376 26 36.5535 26 40.1376C26 43.7217 28.9159 46.6376 32.5 46.6376H52.65C53.0088 46.6376 53.3 46.3464 53.3 45.9876C53.3 45.6288 53.0088 45.3376 52.65 45.3376H32.5C29.6322 45.3376 27.3 43.0054 27.3 40.1376C27.3 37.2698 29.6322 34.9376 32.5 34.9376C32.6521 34.9376 32.799 34.9597 32.9459 34.9791L33.1292 35.0039C33.1565 35.0078 33.1825 35.0091 33.2098 35.0091C33.5296 35.0091 33.8104 34.7686 33.8533 34.441C34.1016 32.5001 35.7552 31.0375 37.7 31.0375C38.8505 31.0375 39.9399 31.5589 40.6913 32.4676C40.8187 32.621 41.0046 32.7041 41.1931 32.7041C41.2945 32.7041 41.3959 32.6807 41.4895 32.6313C41.7612 32.4923 41.8977 32.1816 41.8197 31.8864C41.6702 31.3209 41.6 30.8451 41.6 30.3875C41.6 27.1622 44.2247 24.5375 47.45 24.5375C50.5453 24.5375 53.1011 26.9711 53.2662 30.0795C53.2805 30.3499 53.4612 30.5825 53.7199 30.6644C53.7849 30.6852 53.8512 30.6956 53.9175 30.6956C54.1125 30.6956 54.3023 30.6059 54.4271 30.4461C55.4294 29.1707 56.914 28.4388 58.5 28.4388C61.3678 28.4388 63.7 30.771 63.7 33.6388C63.7 33.7909 63.6779 33.9378 63.6584 34.0848L63.6337 34.2681C63.6129 34.4423 63.6623 34.6165 63.7715 34.753C63.8807 34.8895 64.0406 34.9765 64.2135 34.9934C66.8863 35.2586 68.9 37.4713 68.9 40.1376C68.9 43.0054 66.5678 45.3376 63.7 45.3376H56.55C56.1912 45.3376 55.9 45.6288 55.9 45.9876C55.9 46.3464 56.1912 46.6376 56.55 46.6376H63.7C67.2841 46.6376 70.2 43.7217 70.2 40.1376C70.2 37.0215 68.0043 34.4006 64.9961 33.7974C64.9987 33.7441 65 33.6909 65 33.6376C65 30.0534 62.0841 27.1375 58.5 27.1375C56.9712 27.1375 55.5191 27.6783 54.3621 28.6507C53.5847 25.5255 50.7715 23.2375 47.45 23.2375Z" fill="#472B29"/>
<path d="M45.4999 32.3374C43.676 32.3374 42.1082 33.6361 41.713 35.3807C41.2359 35.0921 40.6912 34.9374 40.1374 34.9374C38.5748 34.9374 37.28 36.1035 37.0785 37.6258C36.8146 37.5673 36.5637 37.5374 36.318 37.5374C34.3303 37.5374 32.6637 39.0974 32.5246 41.089C32.5129 41.2684 32.6468 41.4231 32.8262 41.4361C32.834 41.4361 32.8418 41.4361 32.8496 41.4361C33.0186 41.4361 33.1616 41.3048 33.1733 41.1345C33.289 39.4822 34.6696 38.1861 36.318 38.1861C36.6157 38.1861 36.929 38.2407 37.2774 38.3512C37.306 38.3603 37.3359 38.3642 37.3645 38.3642C37.436 38.3642 37.5075 38.3382 37.5673 38.294C37.6505 38.2355 37.6999 38.1289 37.6999 38.0249C37.6999 36.6807 38.7932 35.5874 40.1374 35.5874C40.7185 35.5874 41.2879 35.8058 41.7377 36.2023C41.7988 36.2556 41.8755 36.2842 41.9522 36.2842C41.9938 36.2842 42.0341 36.2764 42.0731 36.2595C42.1875 36.214 42.2655 36.1074 42.2746 35.9839C42.4072 34.3043 43.8229 32.9874 45.4973 32.9874C45.7677 32.9874 46.0498 33.0316 46.3839 33.1265C46.4138 33.1356 46.445 33.1395 46.4749 33.1395C46.6166 33.1395 46.744 33.0446 46.7856 32.9029C46.835 32.73 46.7349 32.5506 46.562 32.5012C46.172 32.3894 45.8327 32.3374 45.4999 32.3374Z" fill="#472B29"/>
<path d="M63.5479 34.2876C61.8241 34.2876 60.2875 35.4537 59.8117 37.1242C59.7623 37.2971 59.8624 37.4765 60.0353 37.5259C60.0652 37.535 60.0951 37.5389 60.1237 37.5389C60.2654 37.5389 60.3954 37.4453 60.4357 37.3023C60.8322 35.91 62.1114 34.9389 63.5466 34.9389C63.6987 34.9389 63.8456 34.9571 63.9912 34.9766C64.0068 34.9792 64.0211 34.9805 64.0367 34.9805C64.194 34.9805 64.3344 34.8609 64.3565 34.6984C64.3812 34.5203 64.2564 34.3565 64.0783 34.3331C63.9054 34.3084 63.7286 34.2876 63.5479 34.2876Z" fill="#472B29"/>
<path d="M79.95 69.55H60.45V50.05H79.95V69.55ZM61.75 68.25H78.65V51.35H61.75V68.25Z" fill="#2F005F"/>
<path d="M42.575 92.6899L42.51 90.0249C42.51 88.9134 43.4135 88.0099 44.525 88.0099H47.5137L56.4278 72.4099H60.19V88.0099H63.375C64.4852 88.0099 65.39 88.9134 65.39 90.0249V92.6249L65.325 92.6899H42.575Z" fill="#6BBDE8"/>
<path d="M59.28 73.32V87.1V88.92H61.1H63.375C63.9847 88.92 64.48 89.4153 64.48 90.025V91.78H43.42V90.025C43.42 89.4153 43.9153 88.92 44.525 88.92H46.9859H48.0415L48.5654 88.0035L56.9556 73.32H59.28ZM61.1 71.5H55.9L46.9859 87.1H44.525C42.9091 87.1 41.6 88.4091 41.6 90.025V92.625C41.6 93.1632 42.0368 93.6 42.575 93.6H65.325C65.8632 93.6 66.3 93.1632 66.3 92.625V90.025C66.3 88.4091 64.9909 87.1 63.375 87.1H61.1V71.5Z" fill="#2F005F"/>
<path d="M74.1001 82.2898C59.5492 82.2898 47.7101 70.4507 47.7101 55.8998C47.7101 49.4401 50.0605 43.2742 54.3479 38.4343L91.5643 75.652C86.7257 79.9394 80.5598 82.2898 74.1001 82.2898Z" fill="#6BBDE8"/>
<path d="M54.4011 39.7747L90.2253 75.5988C85.6713 79.3402 80.0138 81.3799 74.1 81.3799C60.0509 81.3799 48.6201 69.9503 48.6201 55.8999C48.6201 49.9875 50.661 44.3286 54.4011 39.7747ZM54.3192 37.1201C49.6704 42.0146 46.8 48.616 46.8 55.8999C46.8 70.9773 59.0226 83.1999 74.1 83.1999C81.3839 83.1999 87.9854 80.3295 92.8798 75.6807L54.3192 37.1201Z" fill="#2F005F"/>
<path d="M73.9037 79.2285C67.496 79.2285 61.3197 76.5349 56.9582 71.838C56.836 71.7067 56.8438 71.5013 56.9751 71.3791C57.1051 71.2569 57.3118 71.2647 57.434 71.396C61.6733 75.9603 67.6767 78.5785 73.9037 78.5785C77.558 78.5785 81.0446 77.7231 84.2686 76.0357C84.4272 75.9525 84.6235 76.0136 84.7067 76.1722C84.7899 76.3308 84.7288 76.5271 84.5689 76.6103C81.2513 78.3484 77.6633 79.2285 73.9037 79.2285Z" fill="#2F005F"/>
<path d="M55.5243 69.9217C55.4242 69.9217 55.3267 69.8762 55.2617 69.7891C52.8853 66.5573 51.389 62.747 50.9327 58.7703C50.9119 58.5922 51.0406 58.431 51.2187 58.4102C51.3799 58.3868 51.558 58.5168 51.5788 58.6962C52.0221 62.5611 53.4768 66.2635 55.7856 69.4043C55.8922 69.5486 55.8611 69.7527 55.7155 69.8593C55.6583 69.9022 55.5919 69.9217 55.5243 69.9217Z" fill="#2F005F"/>
<path d="M51.1069 56.4316C50.9275 56.4316 50.7819 56.286 50.7819 56.1066C50.7819 52.6798 51.519 49.3778 52.9737 46.2942C53.0504 46.1317 53.2467 46.0628 53.4066 46.1395C53.5691 46.2162 53.6393 46.4099 53.5626 46.5724C52.1495 49.5676 51.4332 52.776 51.4332 56.1066C51.4319 56.286 51.2863 56.4316 51.1069 56.4316Z" fill="#2F005F"/>
<path d="M79.3 54.5998C81.4539 54.5998 83.2 52.8537 83.2 50.6998C83.2 48.5459 81.4539 46.7998 79.3 46.7998C77.1461 46.7998 75.4 48.5459 75.4 50.6998C75.4 52.8537 77.1461 54.5998 79.3 54.5998Z" fill="#87DCED"/>
<path d="M79.3 55.2499C76.791 55.2499 74.75 53.2089 74.75 50.6999C74.75 48.1909 76.791 46.1499 79.3 46.1499C81.809 46.1499 83.85 48.1909 83.85 50.6999C83.85 53.2089 81.809 55.2499 79.3 55.2499ZM79.3 47.4499C77.5086 47.4499 76.05 48.9085 76.05 50.6999C76.05 52.4913 77.5086 53.9499 79.3 53.9499C81.0914 53.9499 82.55 52.4913 82.55 50.6999C82.55 48.9085 81.0914 47.4499 79.3 47.4499Z" fill="#2F005F"/>
<path d="M89.05 52.65C87.9723 52.65 87.1 51.7764 87.1 50.7C87.1 46.3996 83.6017 42.9 79.3 42.9C78.2223 42.9 77.35 42.0264 77.35 40.95C77.35 39.8736 78.2223 39 79.3 39C85.7506 39 91 44.2481 91 50.7C91 51.7764 90.1277 52.65 89.05 52.65Z" fill="#A56EFF"/>
<path d="M89.05 52.9751C87.7955 52.9751 86.775 51.9546 86.775 50.7001C86.775 46.5778 83.421 43.225 79.3 43.225C78.0455 43.225 77.025 42.2045 77.025 40.95C77.025 39.6955 78.0455 38.675 79.3 38.675C85.9313 38.675 91.325 44.0688 91.325 50.7001C91.325 51.9546 90.3045 52.9751 89.05 52.9751ZM79.3 39.325C78.4043 39.325 77.675 40.0543 77.675 40.95C77.675 41.8457 78.4043 42.575 79.3 42.575C83.7798 42.575 87.425 46.2203 87.425 50.7001C87.425 51.5958 88.1543 52.3251 89.05 52.3251C89.9457 52.3251 90.675 51.5958 90.675 50.7001C90.675 44.4276 85.5725 39.325 79.3 39.325Z" fill="#472B29"/>
<path d="M95.55 52.65C94.4723 52.65 93.6 51.7764 93.6 50.7C93.6 43.9361 88.7991 38.0445 82.1834 36.6899C81.2422 36.4975 80.2724 36.4 79.3 36.4C78.2223 36.4 77.35 35.5264 77.35 34.45C77.35 33.3736 78.2223 32.5 79.3 32.5C80.5337 32.5 81.7674 32.6248 82.966 32.8692C91.3874 34.593 97.5 42.0914 97.5 50.7C97.5 51.7764 96.6277 52.65 95.55 52.65Z" fill="#A56EFF"/>
<path d="M95.55 52.975C94.2955 52.975 93.275 51.9545 93.275 50.7C93.275 44.0895 88.5833 38.3318 82.1184 37.0084C81.198 36.8199 80.2503 36.725 79.3 36.725C78.0455 36.725 77.025 35.7045 77.025 34.45C77.025 33.1955 78.0455 32.175 79.3 32.175C80.5558 32.175 81.8116 32.3011 83.031 32.552C91.6032 34.3057 97.825 41.938 97.825 50.7C97.825 51.9545 96.8045 52.975 95.55 52.975ZM79.3 32.825C78.4043 32.825 77.675 33.5543 77.675 34.45C77.675 35.3457 78.4043 36.075 79.3 36.075C80.2945 36.075 81.2864 36.1751 82.2497 36.3727C89.0149 37.7572 93.925 43.7827 93.925 50.7C93.925 51.5957 94.6543 52.325 95.55 52.325C96.4457 52.325 97.175 51.5957 97.175 50.7C97.175 42.2448 91.1716 34.8803 82.901 33.1877C81.7232 32.9472 80.5116 32.825 79.3 32.825Z" fill="#472B29"/>
<path d="M51.2954 88.9147H46.0954C45.7366 88.9147 45.4454 88.6235 45.4454 88.2647C45.4454 87.9059 45.7366 87.6147 46.0954 87.6147H51.2954C51.6542 87.6147 51.9454 87.9059 51.9454 88.2647C51.9454 88.6235 51.6555 88.9147 51.2954 88.9147Z" fill="#2F005F"/>
<path d="M60.3954 88.9147H53.8954C53.5366 88.9147 53.2454 88.6235 53.2454 88.2647C53.2454 87.9059 53.5366 87.6147 53.8954 87.6147H60.3954C60.7542 87.6147 61.0454 87.9059 61.0454 88.2647C61.0454 88.6235 60.7555 88.9147 60.3954 88.9147Z" fill="#2F005F"/>
<path d="M79.95 93.6001H38.35C37.9912 93.6001 37.7 93.3089 37.7 92.9501C37.7 92.5912 37.9912 92.3 38.35 92.3H79.95C80.3088 92.3 80.5999 92.5912 80.5999 92.9501C80.5999 93.3089 80.3088 93.6001 79.95 93.6001Z" fill="#2F005F"/>
<path d="M94.25 93.6001H83.85C83.4912 93.6001 83.2 93.3089 83.2 92.9501C83.2 92.5912 83.4912 92.3 83.85 92.3H94.25C94.6088 92.3 94.9 92.5912 94.9 92.9501C94.9 93.3089 94.6088 93.6001 94.25 93.6001Z" fill="#2F005F"/>
<path d="M112.45 69.5499C112.45 69.5499 114.487 69.5499 117 69.5499C119.513 69.5499 121.55 67.5128 121.55 64.9999C121.55 62.6846 119.815 60.7957 117.579 60.5084C117.615 60.2757 117.65 60.043 117.65 59.7999C117.65 57.287 115.613 55.2499 113.1 55.2499C111.758 55.2499 110.565 55.8414 109.733 56.7644C109.234 54.414 107.15 52.6499 104.65 52.6499C101.778 52.6499 99.45 54.9782 99.45 57.8499C99.45 58.0982 99.489 58.3361 99.5228 58.5753C98.9664 58.1281 98.2696 57.8499 97.5 57.8499C95.9036 57.8499 94.5815 59.003 94.3085 60.5214C94.0758 60.485 93.8431 60.4499 93.6 60.4499C91.0871 60.4499 89.05 62.487 89.05 64.9999C89.05 67.5128 91.0871 69.5499 93.6 69.5499C96.1129 69.5499 103.35 69.5499 103.35 69.5499V70.1999H112.45V69.5499Z" fill="#FDFCEF"/>
<path d="M114.725 63.7001C114.546 63.7001 114.4 63.5545 114.4 63.3751C114.4 61.7852 115.694 60.4917 117.283 60.4917C117.328 60.5034 118.242 60.4904 118.901 60.6685C119.074 60.7153 119.176 60.8934 119.129 61.0663C119.083 61.2405 118.905 61.3432 118.732 61.2951C118.154 61.1391 117.302 61.1391 117.285 61.1417C116.052 61.1417 115.05 62.144 115.05 63.3751C115.05 63.5545 114.904 63.7001 114.725 63.7001Z" fill="#472B29"/>
<path d="M105.95 70.1999C106.309 70.1999 106.6 69.9089 106.6 69.5499C106.6 69.1909 106.309 68.8999 105.95 68.8999C105.591 68.8999 105.3 69.1909 105.3 69.5499C105.3 69.9089 105.591 70.1999 105.95 70.1999Z" fill="#472B29"/>
<path d="M117 70.2H112.45C112.091 70.2 111.8 69.9088 111.8 69.55C111.8 69.1912 112.091 68.9 112.45 68.9H117C119.15 68.9 120.9 67.1502 120.9 65C120.9 63.0552 119.438 61.4016 117.497 61.1533C117.322 61.1299 117.165 61.0389 117.06 60.8985C116.955 60.7581 116.91 60.5813 116.938 60.4084C116.968 60.2082 117 60.008 117 59.8C117 57.6498 115.25 55.9 113.1 55.9C111.995 55.9 110.971 56.3615 110.215 57.2C110.053 57.3807 109.798 57.4574 109.565 57.3924C109.329 57.3287 109.148 57.1389 109.097 56.8997C108.654 54.8145 106.783 53.3 104.65 53.3C102.141 53.3 100.1 55.341 100.1 57.85C100.1 58.0359 100.127 58.214 100.153 58.3934C100.191 58.6573 100.071 58.9628 99.8387 59.0954C99.606 59.228 99.3239 59.2488 99.1159 59.0824C98.6414 58.7015 98.0837 58.5 97.5 58.5C96.2442 58.5 95.1704 59.3983 94.9481 60.6372C94.8857 60.9843 94.5633 61.217 94.2084 61.1637C94.0082 61.1325 93.808 61.1 93.6 61.1C91.4498 61.1 89.7 62.8498 89.7 65C89.7 67.1502 91.4498 68.9 93.6 68.9H103.35C103.709 68.9 104 69.1912 104 69.55C104 69.9088 103.709 70.2 103.35 70.2H93.6C90.7322 70.2 88.4 67.8678 88.4 65C88.4 62.1322 90.7322 59.8 93.6 59.8C93.6767 59.8 93.7508 59.8026 93.8262 59.8078C94.3644 58.266 95.8243 57.2 97.5 57.2C97.9537 57.2 98.3957 57.2793 98.8143 57.434C99.0288 54.4011 101.564 52 104.65 52C107.03 52 109.156 53.4651 110.049 55.6062C110.933 54.9588 112.002 54.6 113.1 54.6C115.968 54.6 118.3 56.9322 118.3 59.8C118.3 59.8624 118.299 59.9235 118.295 59.9846C120.561 60.567 122.2 62.6197 122.2 65C122.2 67.8678 119.868 70.2 117 70.2Z" fill="#472B29"/>
<path d="M109.85 68.8999C109.643 68.8999 108.757 68.8999 108.55 68.8999C108.191 68.8999 107.9 69.1911 107.9 69.5499C107.9 69.9087 108.191 70.1999 108.55 70.1999C108.757 70.1999 109.643 70.1999 109.85 70.1999C110.209 70.1999 110.5 69.9087 110.5 69.5499C110.5 69.1911 110.209 68.8999 109.85 68.8999Z" fill="#472B29"/>
</svg>
