<svg width="130" height="130" viewBox="0 0 130 130" fill="none" xmlns="http://www.w3.org/2000/svg">
<path d="M113.379 73.723C114.855 70.9215 115.7 67.7365 115.7 64.35C115.7 55.7427 110.293 48.4159 102.699 45.5286C102.699 45.5195 102.7 45.5104 102.7 45.5C102.7 30.4226 90.4773 18.2 75.3999 18.2C62.6807 18.2 52.0247 26.9113 48.993 38.6841C47.0742 38.0536 45.0294 37.7 42.9 37.7C32.9004 37.7 24.6701 45.2309 23.543 54.9276C16.7778 56.3589 11.7 62.3597 11.7 69.55C11.7 77.8063 18.3937 84.5 26.65 84.5C26.8801 84.5 27.1075 84.4844 27.3337 84.4714C27.3285 84.6989 27.3 84.9212 27.3 85.15C27.3 99.8686 39.2313 111.8 53.95 111.8C62.3181 111.8 69.7774 107.936 74.6641 101.902C77.4955 104.794 81.4319 106.6 85.7999 106.6C91.8449 106.6 97.0761 103.155 99.6657 98.1266C101.033 98.5621 102.488 98.8 104 98.8C111.897 98.8 118.3 92.3975 118.3 84.5C118.3 80.1957 116.389 76.3451 113.379 73.723Z" fill="#8053EC" fill-opacity="0.29"/>
<path d="M92.3 93.6001H84.825C81.5945 94.5751 78.975 91.9556 78.975 88.7251C78.975 85.6922 81.2916 83.2274 84.2465 82.9336C84.2179 82.6983 84.175 82.4682 84.175 82.2251C84.175 78.9946 86.7945 76.3751 90.025 76.3751C91.8944 76.3751 93.5389 77.2669 94.6101 78.6319C94.7921 75.2051 97.6027 72.4751 101.075 72.4751C104.664 72.4751 107.575 75.3858 107.575 78.9751C107.575 79.5549 107.475 80.1061 107.332 80.6417C108.166 79.6316 109.412 78.9751 110.825 78.9751C113.14 78.9751 115.029 80.7106 115.316 82.9466C115.552 82.918 115.782 82.8751 116.025 82.8751C119.255 82.8751 121.875 85.4946 121.875 88.7251C121.875 91.9556 119.255 94.5751 116.025 93.6001H103.675H96.2V94.9001H92.3V93.6001Z" fill="#F8FDFF"/>
<path d="M100.75 71.5C104.693 71.5 107.9 74.7071 107.9 78.65C107.9 78.6708 107.9 78.6903 107.9 78.7111C108.683 78.2496 109.577 78 110.5 78C112.88 78 114.934 79.6393 115.515 81.9065C115.576 81.9026 115.638 81.9 115.7 81.9C119.729 81.9 122.914 85.5842 122.061 89.7611C121.437 92.8174 118.565 94.9 115.445 94.9H96.3624C96.0036 94.9 95.7124 94.6088 95.7124 94.25C95.7124 93.8912 96.0036 93.6 96.3624 93.6H115.496C117.992 93.6 120.289 91.9334 120.788 89.4881C121.471 86.1471 118.923 83.2 115.7 83.2C115.548 83.2 115.401 83.2221 115.254 83.2416L115.071 83.2663C115.043 83.2702 115.017 83.2715 114.99 83.2715C114.67 83.2715 114.39 83.031 114.347 82.7034C114.098 80.7625 112.445 79.3 110.5 79.3C109.349 79.3 108.26 79.8213 107.509 80.73C107.381 80.8834 107.195 80.9666 107.007 80.9666C106.905 80.9666 106.804 80.9432 106.71 80.8938C106.439 80.7547 106.302 80.444 106.38 80.1489C106.588 79.3689 106.643 78.7592 106.571 78.1352C106.259 75.3701 104.025 73.0535 101.252 72.8208C97.9354 72.5413 95.1092 75.0672 94.935 78.3406C94.9207 78.611 94.74 78.8437 94.4813 78.9256C94.4163 78.9464 94.35 78.9568 94.2837 78.9568C94.0887 78.9568 93.8989 78.8671 93.7741 78.7072C92.7705 77.4319 91.2872 76.7 89.6999 76.7C86.8321 76.7 84.4999 79.0322 84.4999 81.9C84.4999 82.0521 84.522 82.199 84.5415 82.3459L84.5662 82.5292C84.587 82.7034 84.5376 82.8776 84.4284 83.0141C84.3192 83.1506 84.1594 83.2377 83.9865 83.2546C80.9289 83.5588 78.7318 86.4123 79.4312 89.5791C79.9616 91.988 82.2574 93.6 84.7248 93.6H92.4624C92.8212 93.6 93.1124 93.8912 93.1124 94.25C93.1124 94.6088 92.8212 94.9 92.4624 94.9H84.743C81.5359 94.9 78.6226 92.6848 78.0935 89.5206C77.4929 85.9287 79.8407 82.7346 83.2038 82.0586C83.2012 82.0066 83.1999 81.9533 83.1999 81.9C83.1999 78.3159 86.1158 75.4 89.6999 75.4C91.2287 75.4 92.6808 75.9408 93.8378 76.9132C94.6152 73.788 97.4284 71.5 100.75 71.5Z" fill="#472B29"/>
<path d="M103.025 80.925C104.849 80.925 106.417 82.2238 106.812 83.9684C107.289 83.6798 107.834 83.5251 108.388 83.5251C109.95 83.5251 111.245 84.6912 111.446 86.2135C111.71 86.155 111.961 86.1251 112.207 86.1251C114.195 86.1251 115.861 87.6851 116 89.6767C116.012 89.8561 115.878 90.0108 115.699 90.0238C115.691 90.0238 115.683 90.0238 115.675 90.0238C115.506 90.0238 115.363 89.8925 115.352 89.7222C115.236 88.0699 113.855 86.7738 112.207 86.7738C111.909 86.7738 111.596 86.8284 111.248 86.9389C111.219 86.948 111.189 86.9519 111.16 86.9519C111.089 86.9519 111.017 86.9259 110.958 86.8817C110.874 86.8206 110.825 86.714 110.825 86.61C110.825 85.2658 109.732 84.1725 108.388 84.1725C107.806 84.1725 107.237 84.3909 106.787 84.7874C106.726 84.8407 106.649 84.8692 106.573 84.8692C106.531 84.8692 106.491 84.8615 106.452 84.8446C106.337 84.7991 106.259 84.6925 106.25 84.569C106.118 82.8894 104.702 81.5725 103.028 81.5725C102.757 81.5725 102.475 81.6166 102.141 81.7115C102.111 81.7206 102.08 81.7246 102.05 81.7246C101.908 81.7246 101.781 81.6296 101.739 81.4879C101.69 81.315 101.79 81.1356 101.963 81.0862C102.353 80.977 102.692 80.925 103.025 80.925ZM84.9771 82.8751C86.7009 82.8751 88.2375 84.0412 88.7133 85.7117C88.7627 85.8846 88.6626 86.064 88.4897 86.1133C88.4598 86.1224 88.4299 86.1264 88.4013 86.1264C88.2596 86.1264 88.1296 86.0328 88.0893 85.8898C87.6928 84.4975 86.4136 83.5264 84.9784 83.5264C84.8263 83.5264 84.6794 83.5445 84.5338 83.564C84.5182 83.5666 84.5039 83.5679 84.4883 83.5679C84.331 83.5679 84.1906 83.4484 84.1685 83.2859C84.1438 83.1078 84.2686 82.944 84.4467 82.9206C84.6196 82.8959 84.7964 82.8751 84.9771 82.8751Z" fill="#472B29"/>
<path d="M108.427 62.3999H95.55C95.1912 62.3999 94.9 62.1087 94.9 61.7499C94.9 61.3911 95.1912 61.0999 95.55 61.0999H108.427C108.785 61.0999 109.077 61.3911 109.077 61.7499C109.077 62.1087 108.787 62.3999 108.427 62.3999ZM112.45 62.3999H111.15C110.791 62.3999 110.5 62.1087 110.5 61.7499C110.5 61.3911 110.791 61.0999 111.15 61.0999H112.45C112.809 61.0999 113.1 61.3911 113.1 61.7499C113.1 62.1087 112.81 62.3999 112.45 62.3999ZM118.938 64.9999H107.25C106.891 64.9999 106.6 64.7087 106.6 64.3499C106.6 63.9911 106.891 63.6999 107.25 63.6999H118.938C119.297 63.6999 119.588 63.9911 119.588 64.3499C119.588 64.7087 119.297 64.9999 118.938 64.9999ZM104.65 64.9999H103.35C102.991 64.9999 102.7 64.7087 102.7 64.3499C102.7 63.9911 102.991 63.6999 103.35 63.6999H104.65C105.009 63.6999 105.3 63.9911 105.3 64.3499C105.3 64.7087 105.01 64.9999 104.65 64.9999ZM100.75 64.9999H98.15C97.7912 64.9999 97.5 64.7087 97.5 64.3499C97.5 63.9911 97.7912 63.6999 98.15 63.6999H100.75C101.109 63.6999 101.4 63.9911 101.4 64.3499C101.4 64.7087 101.11 64.9999 100.75 64.9999ZM108.55 67.5999H105.95C105.591 67.5999 105.3 67.3087 105.3 66.9499C105.3 66.5911 105.591 66.2999 105.95 66.2999H108.55C108.909 66.2999 109.2 66.5911 109.2 66.9499C109.2 67.3087 108.909 67.5999 108.55 67.5999ZM112.45 55.8999C112.22 55.8999 111.38 55.8999 111.15 55.8999C110.791 55.8999 110.5 56.1911 110.5 56.5499C110.5 56.9087 110.791 57.1999 111.15 57.1999C111.38 57.1999 112.22 57.1999 112.45 57.1999C112.809 57.1999 113.1 56.9087 113.1 56.5499C113.1 56.1911 112.809 55.8999 112.45 55.8999ZM112.45 58.4999C112.22 58.4999 106.18 58.4999 105.95 58.4999C105.591 58.4999 105.3 58.7911 105.3 59.1499C105.3 59.5087 105.591 59.7999 105.95 59.7999C106.18 59.7999 112.22 59.7999 112.45 59.7999C112.809 59.7999 113.1 59.5087 113.1 59.1499C113.1 58.7911 112.809 58.4999 112.45 58.4999ZM118.95 61.0999C118.72 61.0999 115.28 61.0999 115.05 61.0999C114.691 61.0999 114.4 61.3911 114.4 61.7499C114.4 62.1087 114.691 62.3999 115.05 62.3999C115.28 62.3999 118.72 62.3999 118.95 62.3999C119.309 62.3999 119.6 62.1087 119.6 61.7499C119.6 61.3911 119.309 61.0999 118.95 61.0999ZM46.8 104H33.8C33.4412 104 33.15 103.709 33.15 103.35C33.15 102.991 33.4412 102.7 33.8 102.7H46.8C47.1588 102.7 47.45 102.991 47.45 103.35C47.45 103.709 47.1588 104 46.8 104ZM52 104H49.4C49.0412 104 48.75 103.709 48.75 103.35C48.75 102.991 49.0412 102.7 49.4 102.7H52C52.3588 102.7 52.65 102.991 52.65 103.35C52.65 103.709 52.3588 104 52 104ZM58.5 106.6H45.5C45.1412 106.6 44.85 106.309 44.85 105.95C44.85 105.591 45.1412 105.3 45.5 105.3H58.5C58.8588 105.3 59.15 105.591 59.15 105.95C59.15 106.309 58.8601 106.6 58.5 106.6ZM42.9 106.6H41.6C41.2412 106.6 40.95 106.309 40.95 105.95C40.95 105.591 41.2412 105.3 41.6 105.3H42.9C43.2588 105.3 43.55 105.591 43.55 105.95C43.55 106.309 43.2588 106.6 42.9 106.6ZM38.8375 106.6H36.4C36.0412 106.6 35.75 106.309 35.75 105.95C35.75 105.591 36.0412 105.3 36.4 105.3H38.8375C39.1963 105.3 39.4875 105.591 39.4875 105.95C39.4875 106.309 39.1963 106.6 38.8375 106.6ZM50.7 101.4H44.2C43.8412 101.4 43.55 101.109 43.55 100.75C43.55 100.391 43.8412 100.1 44.2 100.1H50.7C51.0588 100.1 51.35 100.391 51.35 100.75C51.35 101.109 51.0601 101.4 50.7 101.4ZM46.8 109.2H44.2C43.8412 109.2 43.55 108.909 43.55 108.55C43.55 108.191 43.8412 107.9 44.2 107.9H46.8C47.1588 107.9 47.45 108.191 47.45 108.55C47.45 108.909 47.1588 109.2 46.8 109.2Z" fill="white"/>
<path d="M35.1 48.1C35.1 48.1 32.7379 48.1 30.225 48.1C27.7121 48.1 25.675 46.0629 25.675 43.55C25.675 41.2347 27.4105 39.3458 29.6465 39.0585C29.6101 38.8258 29.575 38.5931 29.575 38.35C29.575 35.8371 31.6121 33.8 34.125 33.8C35.4666 33.8 36.66 34.3915 37.492 35.3145C37.9925 32.9641 40.0764 31.2 42.575 31.2C45.4467 31.2 47.775 33.5283 47.775 36.4C47.775 36.6483 47.736 36.8862 47.7022 37.1254C48.2586 36.6782 48.9554 36.4 49.725 36.4C51.3214 36.4 52.6436 37.5531 52.9165 39.0715C53.1493 39.0351 53.3819 39 53.625 39C56.1379 39 58.175 41.0371 58.175 43.55C58.175 46.0629 56.1379 48.1 53.625 48.1C51.1121 48.1 44.2 48.1 44.2 48.1V49.4H35.1V48.1Z" fill="#F8FDFF"/>
<path d="M32.4999 42.2499C32.6793 42.2499 32.8249 42.1043 32.8249 41.9249C32.8249 40.335 31.5314 39.0415 29.9415 39.0415C29.8973 39.0532 28.9834 39.0402 28.3243 39.2183C28.1514 39.2651 28.0487 39.4432 28.0955 39.6161C28.1423 39.7903 28.3204 39.893 28.4933 39.8449C29.0705 39.6889 29.9233 39.6889 29.9402 39.6915C31.1726 39.6915 32.1749 40.6938 32.1749 41.9249C32.1749 42.1043 32.3205 42.2499 32.4999 42.2499ZM40.9499 48.0999C40.7776 48.0999 40.6122 48.1684 40.4903 48.2903C40.3684 48.4122 40.2999 48.5775 40.2999 48.7499C40.2999 48.9223 40.3684 49.0876 40.4903 49.2095C40.6122 49.3314 40.7776 49.3999 40.9499 49.3999C41.1223 49.3999 41.2877 49.3314 41.4096 49.2095C41.5315 49.0876 41.5999 48.9223 41.5999 48.7499C41.5999 48.5775 41.5315 48.4122 41.4096 48.2903C41.2877 48.1684 41.1223 48.0999 40.9499 48.0999Z" fill="#472B29"/>
<path d="M25.2434 45.7041C25.8999 47.9557 28.1086 49.4 30.4538 49.4H34.775C35.1338 49.4 35.425 49.1088 35.425 48.75C35.425 48.3912 35.1338 48.1 34.775 48.1H30.3615C28.7456 48.1 27.196 47.1887 26.6097 45.6833C25.6282 43.1625 27.3065 40.664 29.7284 40.3533C29.9026 40.3299 30.0599 40.2389 30.1652 40.0985C30.2705 39.9581 30.3147 39.7813 30.2874 39.6084C30.2575 39.4082 30.225 39.208 30.225 39C30.225 36.8498 31.9748 35.1 34.125 35.1C35.23 35.1 36.2544 35.5615 37.0097 36.4C37.1722 36.5807 37.427 36.6574 37.6597 36.5924C37.8963 36.5287 38.077 36.3389 38.1277 36.0997C38.571 34.0145 40.4417 32.5 42.575 32.5C45.084 32.5 47.125 34.541 47.125 37.05C47.125 37.2359 47.0977 37.414 47.0717 37.5934C47.034 37.8573 47.1536 38.1628 47.3863 38.2954C47.619 38.428 47.9011 38.4488 48.1091 38.2824C48.5836 37.9015 49.1413 37.7 49.725 37.7C50.9808 37.7 52.0546 38.5983 52.2769 39.8372C52.3393 40.1843 52.6617 40.417 53.0166 40.3637C53.2168 40.3325 53.417 40.3 53.625 40.3C56.186 40.3 58.1789 42.7804 57.3248 45.4662C56.81 47.0834 55.198 48.1 53.5002 48.1H43.875C43.5162 48.1 43.225 48.3912 43.225 48.75C43.225 49.1088 43.5162 49.4 43.875 49.4H53.4209C55.9169 49.4 58.214 47.7334 58.7132 45.2881C59.3957 41.9471 56.8477 39 53.625 39C53.5483 39 53.4742 39.0026 53.3988 39.0078C52.8606 37.466 51.4007 36.4 49.725 36.4C49.2713 36.4 48.8293 36.4793 48.4107 36.634C48.1962 33.6011 45.6612 31.2 42.575 31.2C40.1947 31.2 38.0692 32.6651 37.1761 34.8062C36.2921 34.1588 35.2235 33.8 34.125 33.8C31.2572 33.8 28.925 36.1322 28.925 39C28.925 39.0624 28.9263 39.1235 28.9302 39.1846C26.1976 39.8866 24.375 42.7297 25.2434 45.7041Z" fill="#472B29"/>
<path d="M37.375 48.1001C37.5817 48.1001 38.4683 48.1001 38.675 48.1001C39.0338 48.1001 39.325 48.3913 39.325 48.7501C39.325 49.1089 39.0338 49.4001 38.675 49.4001C38.4683 49.4001 37.5817 49.4001 37.375 49.4001C37.0162 49.4001 36.725 49.1089 36.725 48.7501C36.725 48.3913 37.0162 48.1001 37.375 48.1001Z" fill="#472B29"/>
<path d="M82.4291 60.4163C81.8792 60.4163 81.3306 60.3812 80.7911 60.3123C80.7183 58.8173 79.8707 57.5862 78.4849 56.9999L78.3146 56.9271H78.286C77.9025 56.7919 77.5034 56.7243 77.0991 56.7243C76.1839 56.7243 75.2973 57.0727 74.5719 57.7136C73.7191 57.0532 72.9586 56.2953 72.3008 55.4529C73.6216 53.9579 73.4188 52.4733 72.9898 51.4619C72.3905 50.0709 71.2608 49.2948 69.7086 49.2025C69.5695 48.1417 69.5669 47.0653 69.7021 46.0006C71.3154 45.9135 72.4711 45.101 73.0574 43.6359C73.4474 42.6245 73.6008 41.162 72.2826 39.7177C72.9391 38.8649 73.697 38.1031 74.5407 37.444C75.3064 38.1551 76.1514 38.5178 77.0575 38.5178C77.5502 38.5178 78.0598 38.4073 78.572 38.1902C79.5912 37.7664 80.7768 36.8395 80.8509 34.8219C81.3696 34.7569 81.9013 34.7244 82.4304 34.7244C82.966 34.7244 83.5093 34.7569 84.0527 34.8258C84.1307 37.0163 85.4724 37.9393 86.6268 38.3267C87.0324 38.4619 87.438 38.5308 87.8332 38.5308C88.7549 38.5308 89.605 38.1694 90.3681 37.4557C91.2118 38.1109 91.9659 38.8714 92.6224 39.7268C91.2418 41.214 91.4251 42.722 91.8476 43.7542C92.4482 45.2011 93.6077 45.9902 95.2119 46.05C95.325 46.8573 95.312 48.4173 95.1885 49.2519C93.1241 49.3546 92.2063 50.5831 91.7994 51.6205C91.4107 52.6111 91.2508 54.0606 92.5417 55.5153C91.8761 56.3577 91.1104 57.113 90.2589 57.763C89.492 57.0831 88.6547 56.7334 87.7694 56.7334C87.1961 56.7334 86.6047 56.8829 86.0106 57.178C84.7613 57.8124 84.0878 58.8693 83.9994 60.3227C83.4768 60.3838 82.9491 60.4163 82.4291 60.4163ZM82.433 44.8735C80.9484 44.8735 79.742 46.0812 79.742 47.5645C79.742 49.0478 80.9497 50.2555 82.433 50.2555C83.9163 50.2555 85.124 49.0478 85.124 47.5645C85.124 46.0812 83.9176 44.8735 82.433 44.8735Z" fill="#A56EFF"/>
<path d="M82.4304 35.6318C82.693 35.6318 82.9569 35.6409 83.226 35.6591C83.5276 37.3738 84.6014 38.6049 86.3369 39.1873C86.8361 39.355 87.3392 39.4395 87.8332 39.4395C88.5053 39.4395 89.4166 39.2783 90.3591 38.627C90.7465 38.9676 91.1118 39.3368 91.4537 39.7307C90.5411 41.0502 90.3773 42.5647 91.0078 44.1052C91.6383 45.6236 92.8122 46.5804 94.3683 46.8677C94.3878 47.3578 94.3839 47.9428 94.3566 48.4316C92.755 48.7371 91.5655 49.7238 90.9506 51.2864C90.3786 52.7489 90.532 54.201 91.377 55.4841C91.0247 55.8806 90.6464 56.2537 90.2434 56.5995C89.4712 56.0821 88.6431 55.8208 87.7682 55.8208C87.0532 55.8208 86.3252 56.0015 85.5907 56.3668C84.6339 56.853 83.5328 57.776 83.1883 59.4803C82.9348 59.4959 82.68 59.5037 82.4291 59.5037C82.1496 59.5037 81.8701 59.4933 81.5932 59.4751C81.2734 57.9905 80.2802 56.7698 78.8372 56.1588L78.4966 56.0145H78.4277C77.9948 55.8793 77.5476 55.8104 77.0939 55.8104C76.2047 55.8104 75.3428 56.0704 74.5901 56.5527C74.1871 56.2017 73.8088 55.826 73.4578 55.4269C74.3262 54.1113 74.4601 52.6098 73.8192 51.0914C73.19 49.6302 72.046 48.6981 70.5367 48.39C70.5003 47.8661 70.499 47.3396 70.5341 46.8066C72.1045 46.4959 73.2797 45.5118 73.905 43.9479C74.4796 42.4594 74.3106 40.9943 73.4448 39.7229C73.7854 39.3316 74.152 38.9624 74.5472 38.614C75.3207 39.1509 76.1592 39.4213 77.0523 39.4213C77.6672 39.4213 78.2964 39.2874 78.91 39.0274C80.4349 38.393 81.3852 37.2178 81.6686 35.6526C81.926 35.6409 82.1782 35.6318 82.4304 35.6318ZM82.433 51.1655C84.4181 51.1655 86.034 49.5496 86.034 47.5645C86.034 45.5794 84.4181 43.9635 82.433 43.9635C80.4479 43.9635 78.832 45.5794 78.832 47.5645C78.832 49.5496 80.4479 51.1655 82.433 51.1655ZM82.4304 33.8118C81.7024 33.8118 80.9796 33.8703 80.2659 33.986C80.0683 34.0198 79.9305 34.1927 79.9396 34.3903C80.0085 35.8697 79.4404 36.8421 78.2184 37.3504C77.8167 37.5207 77.4306 37.6052 77.0588 37.6052C76.2814 37.6052 75.5612 37.2347 74.88 36.4898C74.8007 36.4066 74.6941 36.3624 74.5888 36.3624C74.5095 36.3624 74.4302 36.3871 74.3639 36.4391C73.177 37.2997 72.1357 38.3488 71.2842 39.537C71.1724 39.6917 71.1893 39.9153 71.3362 40.0531C72.3944 41.0346 72.6778 42.0928 72.2137 43.2966C71.7314 44.5017 70.8149 45.0971 69.4109 45.0971C69.3615 45.0971 69.3121 45.0958 69.2614 45.0945C69.2562 45.0945 69.251 45.0945 69.2445 45.0945C69.0534 45.0945 68.8909 45.2375 68.8649 45.4299C68.6322 46.8586 68.6322 48.3211 68.874 49.7745C68.9078 49.9643 69.0716 50.1008 69.2614 50.1008C69.303 50.0995 69.3433 50.0995 69.3836 50.0995C70.7603 50.0995 71.6586 50.6676 72.1526 51.8129C72.6687 53.0349 72.4022 54.1191 71.3518 55.1253C71.214 55.254 71.188 55.4776 71.2998 55.6336C72.1604 56.8205 73.2017 57.854 74.3795 58.7055C74.3964 58.7224 74.4224 58.7315 74.4484 58.7393C74.4939 58.7601 74.5446 58.7692 74.5966 58.7692C74.6993 58.7692 74.8072 58.7315 74.8878 58.6626C74.9216 58.6366 74.9476 58.6106 74.9658 58.5937C75.5703 57.9658 76.3321 57.633 77.0991 57.633C77.4358 57.633 77.7725 57.6967 78.0975 57.828C78.1066 57.828 78.1235 57.8371 78.1313 57.8371C79.2493 58.3103 79.9032 59.3347 79.8863 60.5814C79.8863 60.8141 79.9721 61.1066 80.4024 61.1755C81.0758 61.2769 81.7531 61.3263 82.4317 61.3263C83.0791 61.3263 83.7265 61.2808 84.37 61.1924C84.422 61.1755 84.4818 61.1664 84.5338 61.1586L84.5858 61.1495C84.7665 61.1157 84.9043 60.9428 84.9043 60.753C84.8783 59.4192 85.3684 58.5248 86.4188 57.9905C86.8855 57.7591 87.3366 57.6421 87.7721 57.6421C88.5326 57.6421 89.2489 57.997 89.9379 58.7133C90.0146 58.79 90.116 58.8303 90.2187 58.8303C90.298 58.8303 90.3786 58.8056 90.4462 58.7575C91.6422 57.906 92.6835 56.8738 93.5441 55.7025C93.6559 55.5478 93.639 55.3242 93.4921 55.1864C92.4599 54.1971 92.1843 53.1389 92.6484 51.9507C93.1255 50.7378 94.0576 50.1515 95.4772 50.1515C95.5175 50.1515 95.5591 50.1515 95.5994 50.1528C95.6059 50.1528 95.6111 50.1528 95.6176 50.1528C95.7905 50.1528 95.9374 50.0345 95.9868 49.8772C96.2624 48.9737 96.2793 46.2125 96.0037 45.4026C95.9543 45.2453 95.7996 45.1348 95.6345 45.1348C95.628 45.1348 95.6228 45.1348 95.6163 45.1348C95.5461 45.1374 95.4785 45.1387 95.4109 45.1387C94.0706 45.1387 93.1749 44.568 92.6913 43.4045C92.1843 42.1656 92.4677 41.0814 93.5688 40.0661C93.7157 39.9283 93.7404 39.7047 93.6286 39.55C92.768 38.3449 91.7267 37.2958 90.5398 36.4443C90.4709 36.3936 90.3903 36.3689 90.3123 36.3689C90.2044 36.3689 90.0978 36.4157 90.0237 36.5041C89.3607 37.2425 88.6275 37.6169 87.8345 37.6169C87.5368 37.6169 87.2313 37.5649 86.918 37.4596C85.5322 36.9955 84.8965 35.9971 84.9654 34.3877C84.9745 34.181 84.8276 34.0094 84.63 33.9834C83.8916 33.8703 83.1584 33.8118 82.4304 33.8118ZM82.433 49.3455C81.4476 49.3455 80.652 48.5499 80.652 47.5645C80.652 46.5791 81.4476 45.7835 82.433 45.7835C83.4184 45.7835 84.214 46.5791 84.214 47.5645C84.214 48.5499 83.4184 49.3455 82.433 49.3455Z" fill="#2F005F"/>
<path d="M82.4342 41.0918C78.867 41.0918 75.9615 43.996 75.9615 47.5645C75.9615 51.133 78.8657 54.0372 82.4342 54.0372C86.0015 54.0372 88.907 51.133 88.907 47.5645C88.907 46.2255 88.4975 44.9801 87.7981 43.9466C87.5316 43.5527 87.2222 43.1887 86.8764 42.8624C86.4604 42.4685 85.991 42.1292 85.4827 41.8562C85.0238 41.6105 84.5324 41.4181 84.0176 41.2881C83.5093 41.1594 82.9803 41.0918 82.4342 41.0918ZM82.4342 44.5862C84.0723 44.5862 85.4126 45.9265 85.4126 47.5645C85.4126 49.2025 84.0723 50.5428 82.4342 50.5428C80.7962 50.5428 79.4559 49.2025 79.4559 47.5645C79.4559 45.9265 80.7962 44.5862 82.4342 44.5862Z" fill="#DFDFFF"/>
<path d="M50.2723 93.8328C48.5381 93.4038 46.7844 92.6914 45.1412 91.7255C46.0018 89.5142 45.6287 87.6058 44.0336 86.0419C43.0313 85.0747 41.8938 84.5859 40.6484 84.5859C39.9399 84.5859 39.1859 84.7471 38.4033 85.0656C37.4361 83.4575 36.7081 81.7337 36.2505 79.954C38.4839 78.992 39.5824 77.354 39.5304 75.0764C39.4784 72.8807 38.3539 71.3233 36.1868 70.4445C36.6301 68.6258 37.3295 66.9007 38.272 65.2926C39.0819 65.6293 39.858 65.7996 40.5847 65.7996C41.8769 65.7996 43.043 65.277 44.0466 64.2461C45.6261 62.6484 45.942 60.7153 44.9878 58.5053C46.5764 57.5433 48.2963 56.8218 50.115 56.3499C51.0328 58.5989 52.6266 59.7442 54.8496 59.7442C55.0069 59.7442 55.1668 59.7377 55.3319 59.726C57.3794 59.5713 58.8796 58.3974 59.6908 56.3252C61.4549 56.7646 63.1969 57.4822 64.8245 58.4546C63.8846 60.7062 64.2252 62.651 65.8359 64.2409C66.8408 65.2341 67.99 65.7359 69.251 65.7359C69.9855 65.7359 70.7681 65.5604 71.5806 65.2172C72.267 66.2104 73.45 69.0795 73.6879 70.3483C71.4389 71.309 70.3261 72.9496 70.3677 75.2311C70.4197 77.3956 71.5286 78.9517 73.6645 79.8656C73.2108 81.6596 72.4958 83.3808 71.5338 84.9824C70.7538 84.6795 70.0024 84.5235 69.3004 84.5235C67.8756 84.5235 66.6224 85.1449 65.5759 86.3682C64.2759 87.8749 64.0289 89.6585 64.8414 91.6709C63.1995 92.6446 61.4835 93.3531 59.6921 93.8094C58.8861 91.7775 57.0973 90.5477 54.9354 90.5477H54.7209L54.6871 90.562C52.7306 90.6556 51.0588 91.8919 50.2723 93.8328ZM54.9276 70.5771C52.4498 70.5771 50.4335 72.5934 50.4335 75.0712C50.4335 77.549 52.4498 79.5653 54.9276 79.5653C57.4054 79.5653 59.4217 77.549 59.4217 75.0712C59.4217 72.5934 57.4054 70.5771 54.9276 70.5771Z" fill="#A56EFF"/>
<path d="M60.19 57.412C61.4042 57.7682 62.5794 58.2531 63.7065 58.8654C62.8238 61.7137 63.9834 63.691 65.1963 64.8896C66.378 66.0557 67.7417 66.6472 69.2497 66.6472C69.8711 66.6472 70.5159 66.5432 71.1815 66.3326C71.6677 67.2595 72.306 68.7883 72.6245 69.8491C69.9803 71.2739 69.4252 73.5255 69.4564 75.2584C69.4954 76.8756 70.0934 78.9829 72.5855 80.3518C72.2215 81.579 71.7275 82.762 71.1139 83.8839C70.4886 83.7058 69.8815 83.6161 69.2991 83.6161C67.5961 83.6161 66.1102 84.3441 64.8895 85.7728C63.9093 86.909 62.9863 88.7459 63.7299 91.2614C62.6041 91.8711 61.4198 92.3625 60.1913 92.7291C59.1058 90.8038 57.1571 89.639 54.9328 89.639L54.444 89.6481L54.3998 89.6702C52.442 89.8431 50.7546 90.978 49.7783 92.7473C48.5537 92.3911 47.3668 91.9062 46.2397 91.303C47.0314 88.5106 45.8666 86.5697 44.6576 85.3841C43.4863 84.2505 42.1356 83.6759 40.6445 83.6759C40.053 83.6759 39.4394 83.7695 38.8128 83.9554C38.1927 82.827 37.6974 81.6531 37.3295 80.4402C39.936 79.0128 40.4768 76.7729 40.4378 75.0543C40.3988 73.4046 39.7891 71.27 37.258 69.9401C37.6077 68.7194 38.0861 67.5377 38.6867 66.4106C39.3367 66.6095 39.9711 66.7096 40.5834 66.7096C42.1304 66.7096 43.5149 66.0947 44.6888 64.8896C45.8809 63.6819 47.0106 61.7033 46.1097 58.9057C47.216 58.2973 48.3873 57.8059 49.6145 57.4341C50.9938 60.064 53.1726 60.6529 54.847 60.6529C55.0251 60.6529 55.2071 60.6464 55.4021 60.6321C57.5146 60.4735 59.176 59.3542 60.19 57.412ZM54.9276 80.4753C57.9072 80.4753 60.3317 78.0508 60.3317 75.0712C60.3317 72.0916 57.9072 69.6671 54.9276 69.6671C51.948 69.6671 49.5235 72.0916 49.5235 75.0712C49.5235 78.0508 51.948 80.4753 54.9276 80.4753ZM59.4672 55.3606C59.228 55.3606 59.0083 55.5127 58.9329 55.7532C58.2699 57.6525 57.0427 58.6834 55.2682 58.8173C55.1252 58.8277 54.9861 58.8329 54.8496 58.8329C52.9295 58.8329 51.6295 57.828 50.8599 55.7532C50.7702 55.5218 50.5557 55.3775 50.3217 55.3775C50.2749 55.3775 50.2268 55.3827 50.18 55.3957C48.048 55.9157 46.059 56.7581 44.2572 57.8865C44.0063 58.0386 43.9166 58.3519 44.0427 58.621C44.9748 60.5827 44.7681 62.2233 43.3979 63.6117C42.5646 64.4671 41.6325 64.8909 40.5873 64.8909C39.9022 64.8909 39.1677 64.7089 38.3799 64.3475C38.3006 64.3111 38.2187 64.2929 38.1368 64.2929C37.9405 64.2929 37.7533 64.3943 37.6454 64.5711C36.5248 66.4171 35.7097 68.4243 35.2352 70.5199C35.1637 70.7981 35.3158 71.0932 35.594 71.192C37.5921 71.9174 38.5775 73.1992 38.6217 75.0985C38.6659 77.0784 37.6987 78.4226 35.6473 79.2195C35.3782 79.3183 35.2261 79.6134 35.2976 79.8916C35.7994 81.9703 36.6418 83.9502 37.7793 85.7871C37.895 85.96 38.0835 86.0601 38.2772 86.0601C38.3539 86.0601 38.4319 86.0445 38.506 86.0107C39.2717 85.6675 39.9841 85.4959 40.6497 85.4959C41.6663 85.4959 42.575 85.8963 43.3979 86.6919C44.7863 88.0543 45.0463 89.6663 44.1948 91.6371C44.0778 91.8971 44.1766 92.2013 44.4184 92.3534C46.2644 93.474 48.2534 94.2891 50.3412 94.7727C50.3776 94.7818 50.4127 94.7818 50.4491 94.7818C50.6727 94.7818 50.9067 94.6297 51.0042 94.423C51.0406 94.3697 51.0575 94.3242 51.0757 94.28C51.7296 92.5601 53.1908 91.485 54.8834 91.4668C54.9016 91.4577 54.9198 91.4577 54.9367 91.4577C56.7281 91.4577 58.1893 92.4795 58.8783 94.1812C58.9901 94.4412 59.2059 94.7324 59.6284 94.7324C59.7155 94.7324 59.8117 94.7194 59.917 94.6921C61.8163 94.2085 63.6259 93.4558 65.3016 92.4613C65.3731 92.4171 65.4446 92.3625 65.5083 92.3274L65.5707 92.2832C65.8034 92.1311 65.8931 91.8256 65.7852 91.5669C64.9883 89.7755 65.1404 88.2701 66.2688 86.9623C67.1411 85.9418 68.1434 85.4374 69.3004 85.4374C69.9634 85.4374 70.6771 85.6025 71.4467 85.9327C71.5169 85.9626 71.591 85.9756 71.6651 85.9756C71.8614 85.9756 72.0525 85.8755 72.1643 85.6987C73.3018 83.8618 74.126 81.8728 74.6187 79.7941C74.6811 79.5159 74.5381 79.2299 74.269 79.1311C72.2982 78.3693 71.3219 77.0888 71.2764 75.2155C71.24 73.2447 72.2176 71.8914 74.269 71.0945C74.5108 71.0048 74.6538 70.7539 74.6278 70.503C74.4939 69.1146 72.9339 65.3602 72.1097 64.419C71.9979 64.2955 71.8393 64.2292 71.6807 64.2292C71.5975 64.2292 71.5143 64.2474 71.4376 64.2838C70.6576 64.6452 69.9296 64.8272 69.2484 64.8272C68.2253 64.8272 67.3075 64.4177 66.4729 63.5948C65.0754 62.2155 64.8518 60.5671 65.7657 58.569C65.8905 58.2999 65.8021 57.9866 65.5512 57.8345C63.6961 56.6879 61.698 55.8637 59.6024 55.3801C59.5582 55.3658 59.5127 55.3606 59.4672 55.3606ZM54.9276 78.6553C52.9477 78.6553 51.3435 77.0511 51.3435 75.0712C51.3435 73.0913 52.9477 71.4871 54.9276 71.4871C56.9075 71.4871 58.5117 73.0913 58.5117 75.0712C58.5117 77.0511 56.9075 78.6553 54.9276 78.6553Z" fill="#2F005F"/>
<path d="M54.9276 63.7441C48.6824 63.7441 43.6007 68.8245 43.6007 75.071C43.6007 81.3175 48.6811 86.3979 54.9276 86.3979C61.1741 86.3979 66.2545 81.3175 66.2545 75.071C66.2545 68.8245 61.1728 63.7441 54.9276 63.7441ZM54.9276 82.3523C50.9145 82.3523 47.6463 79.0841 47.6463 75.071C47.6463 71.0579 50.9145 67.7897 54.9276 67.7897C58.9407 67.7897 62.2089 71.0579 62.2089 75.071C62.2089 79.0841 58.9394 82.3523 54.9276 82.3523Z" fill="#DFDFFF"/>
<path d="M55.5749 86.7035C55.4033 86.7035 55.2603 86.5696 55.2499 86.398C55.2395 86.2173 55.3773 86.0639 55.5554 86.0535C57.6575 85.9339 59.6699 85.2163 61.3781 83.9774C61.5211 83.8721 61.7252 83.9033 61.8318 84.0502C61.9371 84.1945 61.9059 84.3986 61.759 84.5039C59.9507 85.8169 57.82 86.5774 55.5944 86.7035C55.5879 86.7035 55.5814 86.7035 55.5749 86.7035ZM53.907 86.6775C53.8979 86.6775 53.8875 86.6775 53.8784 86.6762C48.8279 86.2212 44.6822 82.5916 43.5616 77.6451C43.5226 77.4696 43.6331 77.2954 43.806 77.2551C43.9945 77.2174 44.157 77.3266 44.196 77.5008C45.2529 82.173 49.1672 85.5985 53.9356 86.0288C54.115 86.0457 54.2463 86.203 54.2307 86.3811C54.2151 86.5501 54.0734 86.6775 53.907 86.6775ZM63.1578 83.1701C63.0772 83.1701 62.9979 83.1415 62.9342 83.0817C62.8029 82.9582 62.799 82.7528 62.9212 82.6215C63.6024 81.9 64.1874 81.0875 64.6541 80.2087C64.7373 80.0488 64.9375 79.9929 65.0935 80.0735C65.2521 80.1567 65.3119 80.3543 65.2287 80.5129C64.7334 81.445 64.1172 82.3043 63.3944 83.0687C63.3307 83.135 63.2436 83.1701 63.1578 83.1701ZM54.9275 82.6774C50.7324 82.6774 47.3199 79.2649 47.3199 75.0711C47.3199 70.876 50.7324 67.4635 54.9275 67.4635C59.1213 67.4635 62.5338 70.876 62.5338 75.0711C62.5338 79.2649 59.1213 82.6774 54.9275 82.6774ZM54.9275 68.1148C51.0912 68.1148 47.9699 71.2348 47.9699 75.0724C47.9699 78.9074 51.0899 82.0287 54.9275 82.0287C58.7625 82.0287 61.8838 78.9087 61.8838 75.0724C61.8838 71.2348 58.7625 68.1148 54.9275 68.1148ZM65.7552 78.7228C65.724 78.7228 65.6915 78.7176 65.6603 78.7085C65.4887 78.6552 65.3925 78.4732 65.4445 78.3016C65.7656 77.259 65.9281 76.1709 65.9281 75.0711C65.9281 71.1815 63.8364 67.5415 60.4694 65.5694C60.3147 65.4797 60.2627 65.2795 60.3524 65.1248C60.4434 64.9675 60.6436 64.9168 60.797 65.0078C64.3629 67.0943 66.5781 70.9501 66.5781 75.0698C66.5781 76.2346 66.4052 77.3864 66.0659 78.4914C66.023 78.6318 65.8943 78.7228 65.7552 78.7228ZM43.6006 75.3961C43.4212 75.3961 43.2756 75.2505 43.2756 75.0711C43.2756 68.6465 48.5029 63.4192 54.9275 63.4192C55.6737 63.4192 56.4238 63.492 57.1596 63.6337C57.3351 63.6675 57.4508 63.8378 57.4157 64.0146C57.3819 64.1901 57.2181 64.3136 57.0348 64.2707C56.3419 64.1368 55.6321 64.0692 54.9275 64.0692C48.8617 64.0692 43.9256 69.0053 43.9256 75.0711C43.9256 75.2505 43.78 75.3961 43.6006 75.3961ZM59.5399 65.052C59.4957 65.052 59.4502 65.0429 59.406 65.0247C59.0355 64.857 58.6494 64.7101 58.2607 64.5866C58.0904 64.532 57.9955 64.3487 58.0501 64.1784C58.1047 64.0081 58.2867 63.9132 58.4583 63.9678C58.8691 64.0991 59.2786 64.2551 59.6725 64.4306C59.8363 64.5047 59.9091 64.6971 59.8363 64.8609C59.7817 64.9805 59.6647 65.052 59.5399 65.052Z" fill="#2F005F"/>
<path d="M66.1895 75.7706C66.1674 75.7706 66.1453 75.768 66.1219 75.7641L62.1075 74.9191C61.932 74.8814 61.8189 74.7098 61.8566 74.533C61.8943 74.3575 62.0594 74.2522 62.2427 74.2821L66.2571 75.1271C66.4326 75.1648 66.5457 75.3364 66.508 75.5132C66.4755 75.6653 66.3403 75.7706 66.1895 75.7706ZM61.8319 73.0094C61.6525 73.0094 61.5069 72.8651 61.5069 72.6857C61.5069 72.505 61.6512 72.3594 61.8306 72.3594L65.9321 72.3451H65.9334C66.1128 72.3451 66.2584 72.4894 66.2584 72.6688C66.2584 72.8495 66.1141 72.9951 65.9347 72.9951L61.8319 73.0094ZM88.686 49.1037C88.6548 49.1037 88.621 49.0985 88.5885 49.0881L84.8471 47.9103C84.6755 47.857 84.5806 47.6737 84.6352 47.5034C84.6885 47.3331 84.8666 47.2369 85.0421 47.2915L88.7835 48.4693C88.9551 48.5226 89.05 48.7059 88.9954 48.8762C88.9525 49.0153 88.8238 49.1037 88.686 49.1037ZM80.4154 54.0255C80.3569 54.0255 80.2971 54.0099 80.2451 53.9774C80.0917 53.8838 80.0449 53.6823 80.1385 53.5302L82.459 49.7693C82.5539 49.6146 82.7567 49.5678 82.9062 49.6627C83.0596 49.7563 83.1064 49.9578 83.0128 50.1099L80.6923 53.8708C80.6299 53.9709 80.5246 54.0255 80.4154 54.0255ZM77.9831 52.2861C77.8843 52.2861 77.7868 52.2406 77.7231 52.1548C77.6152 52.0105 77.6451 51.8064 77.7894 51.6998L80.9887 49.3221C81.1343 49.2168 81.3371 49.2454 81.4437 49.3897C81.5516 49.534 81.5217 49.7381 81.3774 49.8447L78.1781 52.2224C78.1196 52.2653 78.0507 52.2861 77.9831 52.2861ZM80.4349 46.4296C80.2828 46.4296 80.1476 46.323 80.1164 46.1696L79.2558 41.9225C79.2207 41.7457 79.3351 41.5741 79.5093 41.539C79.6835 41.5052 79.8564 41.6183 79.8928 41.7925L80.7534 46.0396C80.7885 46.2164 80.6741 46.388 80.4999 46.4231C80.4778 46.427 80.457 46.4296 80.4349 46.4296ZM82.0664 45.3922C82.056 45.3922 82.0443 45.3922 82.0339 45.3909C81.8558 45.3727 81.7258 45.2128 81.7427 45.0347L82.1327 41.1516C82.1522 40.9735 82.2874 40.8435 82.4889 40.8604C82.667 40.8786 82.797 41.0385 82.7801 41.2166L82.3901 45.0997C82.3719 45.2674 82.2315 45.3922 82.0664 45.3922ZM54.5246 68.1435C54.5012 68.1435 54.4778 68.1409 54.4531 68.1357C54.2776 68.0954 54.1671 67.9212 54.2074 67.747L55.1122 63.7456C55.1512 63.5714 55.3202 63.457 55.5009 63.4999C55.6764 63.5402 55.7869 63.7144 55.7466 63.8886L54.8418 67.89C54.808 68.0408 54.6741 68.1435 54.5246 68.1435ZM50.5336 69.398C50.3724 69.398 50.2333 69.2784 50.2112 69.1159L49.6704 65.0495C49.647 64.8714 49.7718 64.7076 49.9499 64.6842C50.1423 64.666 50.2918 64.7856 50.3152 64.9637L50.856 69.0301C50.8794 69.2082 50.7546 69.372 50.5765 69.3954C50.5622 69.3967 50.5479 69.398 50.5336 69.398ZM52.494 68.4685C52.4927 68.4685 52.4927 68.4685 52.4914 68.4685C52.312 68.4672 52.1677 68.3216 52.169 68.1409L52.1976 64.0394C52.1989 63.86 52.3432 63.717 52.5226 63.717C52.5239 63.717 52.5239 63.717 52.5252 63.717C52.7046 63.7183 52.8489 63.8639 52.8476 64.0446L52.819 68.1461C52.8177 68.3255 52.6734 68.4685 52.494 68.4685ZM60.7464 70.9723C60.5813 70.9723 60.4409 70.8475 60.4227 70.6811C60.4045 70.5017 60.5345 70.3418 60.7126 70.3236L64.7933 69.8946C64.9779 69.8764 65.1326 70.0064 65.1508 70.1845C65.169 70.3639 65.039 70.5238 64.8609 70.542L60.7802 70.971C60.7685 70.9723 60.7568 70.9723 60.7464 70.9723ZM51.7647 86.1979C51.7114 86.1979 51.6568 86.1849 51.6074 86.1576C51.4501 86.0718 51.3942 85.8729 51.48 85.7156L53.4651 82.1263C53.5522 81.9703 53.7524 81.9118 53.9071 81.9989C54.0644 82.0847 54.1203 82.2836 54.0345 82.4409L52.0494 86.0302C51.9896 86.1368 51.8791 86.1979 51.7647 86.1979ZM48.737 84.6886C48.6356 84.6886 48.5355 84.6405 48.4718 84.5521C48.3678 84.4052 48.4029 84.2011 48.5498 84.0984L51.8999 81.7324C52.0468 81.6284 52.2509 81.6648 52.3536 81.8104C52.4576 81.9573 52.4225 82.1614 52.2756 82.2641L48.9255 84.6301C48.8683 84.6691 48.802 84.6886 48.737 84.6886ZM46.5283 82.892C46.4087 82.892 46.293 82.8257 46.2358 82.71C46.1565 82.5501 46.2228 82.3551 46.384 82.2745L50.0617 80.4584C50.2203 80.3791 50.4166 80.4441 50.4972 80.6066C50.5765 80.7665 50.5102 80.9615 50.349 81.0421L46.6713 82.8582C46.6258 82.8816 46.5764 82.892 46.5283 82.892Z" fill="#2F005F"/>
<path d="M45.0983 80.8859C44.963 80.8859 44.8356 80.8001 44.7901 80.6636C44.7329 80.4933 44.8252 80.31 44.9955 80.2528L48.8877 78.9554C49.0567 78.9008 49.2414 78.9905 49.2986 79.1608C49.3558 79.3311 49.2634 79.5144 49.0931 79.5716L45.2009 80.869C45.1671 80.8807 45.1334 80.8859 45.0983 80.8859Z" fill="#2F005F"/>
<path d="M82.4343 54.3609C78.6851 54.3609 75.6366 51.3111 75.6366 47.5632C75.6366 47.3838 75.7822 47.2382 75.9616 47.2382C76.141 47.2382 76.2866 47.3838 76.2866 47.5632C76.2866 50.9523 79.0452 53.7109 82.4343 53.7109C83.4028 53.7109 84.3297 53.4912 85.1916 53.0557C85.3515 52.979 85.5465 53.0388 85.6284 53.2C85.709 53.3599 85.6453 53.5549 85.4841 53.6368C84.5442 54.1113 83.4912 54.3609 82.4343 54.3609ZM86.8647 52.602C86.7789 52.602 86.6918 52.5682 86.6268 52.4993C86.5046 52.368 86.5111 52.1626 86.6424 52.0391C87.8735 50.8808 88.5807 49.2493 88.5807 47.5645C88.5807 46.0721 88.0347 44.6291 87.0441 43.5046C86.9245 43.3694 86.9388 43.164 87.0727 43.0457C87.2053 42.9261 87.412 42.9391 87.5316 43.0743C88.6275 44.3171 89.2307 45.9122 89.2307 47.5632C89.2307 49.4274 88.4494 51.2305 87.087 52.5136C87.0246 52.5721 86.9453 52.602 86.8647 52.602ZM82.4343 50.8665C80.613 50.8665 79.131 49.3845 79.131 47.5645C79.131 45.7432 80.613 44.2612 82.4343 44.2612C84.2543 44.2612 85.7363 45.7432 85.7363 47.5645C85.7363 49.3845 84.2556 50.8665 82.4343 50.8665ZM82.4343 44.9112C80.9718 44.9112 79.781 46.102 79.781 47.5645C79.781 49.027 80.9718 50.2165 82.4343 50.2165C83.8968 50.2165 85.0863 49.027 85.0863 47.5645C85.0863 46.102 83.8968 44.9112 82.4343 44.9112ZM76.9249 44.4965C76.8664 44.4965 76.8066 44.4809 76.7533 44.4484C76.6012 44.3535 76.5544 44.1533 76.648 43.9999C77.8999 41.9758 80.0631 40.7681 82.4343 40.7681C83.0024 40.7681 83.5666 40.8396 84.1152 40.9787C84.2894 41.0229 84.3947 41.1997 84.3505 41.3739C84.3076 41.5481 84.1282 41.6508 83.9553 41.6092C83.4587 41.4818 82.9478 41.4194 82.4343 41.4194C80.2906 41.4194 78.3341 42.5127 77.2018 44.3444C77.1394 44.4419 77.0341 44.4965 76.9249 44.4965ZM86.4006 42.7792C86.3304 42.7792 86.2615 42.7558 86.2017 42.7103C85.865 42.449 85.5062 42.2241 85.1331 42.0408C84.9719 41.9615 84.9043 41.7678 84.9836 41.6066C85.0616 41.4441 85.2566 41.3752 85.4178 41.4571C85.8312 41.6586 86.2303 41.9095 86.6008 42.1968C86.7425 42.3073 86.7685 42.5114 86.658 42.6531C86.593 42.7363 86.4968 42.7792 86.4006 42.7792Z" fill="#2F005F"/>
</svg>
