<svg width="130" height="130" viewBox="0 0 130 130" fill="none" xmlns="http://www.w3.org/2000/svg">
<path d="M115.315 72.3763C115.705 71.5755 116.051 70.7331 116.35 69.8504C119.773 59.7494 114.596 47.649 103.697 44.7279C102.518 29.93 92.1179 19.7783 80.3737 18.0454C66.9304 16.0629 54.6155 24.6026 50.5179 38.1759C45.5792 36.4261 40.7666 36.6393 36.2309 39.29C34.173 40.2416 32.2906 41.6456 30.6019 43.4929C28.1228 46.2047 26.5108 49.6276 25.8543 53.2364C24.8819 53.3898 23.9264 53.5432 23.0255 53.8656C17.7735 55.7493 14.4598 59.6259 13.5511 65.4655C12.9856 69.1016 14.127 72.7286 14.764 74.1937C17.2795 79.9852 23.1126 83.2677 29.0393 82.3993C29.3344 82.3564 29.7634 82.489 30.0169 82.7022C30.3302 91.9582 34.8243 100.144 41.5661 104.82C52.3834 112.324 66.3012 110.013 75.0814 99.7231C78.8436 103.571 83.3208 105.441 88.5806 104.762C93.8105 104.087 97.8717 101.201 100.834 96.5082C102.203 96.8761 103.501 97.4065 104.842 97.5534C110.097 98.128 114.363 96.0389 117.494 91.3134C118.692 89.5051 119.825 87.1612 119.825 83.0532C119.826 78.8204 118.145 74.9633 115.315 72.3763Z" fill="#3DB4DA" fill-opacity="0.3"/>
<path d="M96.1584 63.4958C96.1584 63.4958 111.357 63.4958 111.449 63.4958C114.959 63.4958 117.803 60.6501 117.803 57.1401C117.803 54.0786 115.638 51.5228 112.754 50.9209C112.788 50.6531 112.81 50.3814 112.81 50.1045C112.81 46.4697 109.863 43.5226 106.228 43.5226C104.082 43.5226 102.181 44.5548 100.98 46.1447C100.673 42.0978 97.058 38.9765 92.8291 39.4939C89.7364 39.8722 87.1793 42.2629 86.6099 45.3257C86.4279 46.3085 86.4461 47.2614 86.6281 48.1558C85.7987 47.2627 84.6183 46.7011 83.304 46.7011C80.899 46.7011 78.9347 48.5744 78.78 50.9404C77.688 50.6986 76.4998 50.7142 75.2479 51.1848C72.8559 52.0831 71.1529 54.3347 71.0528 56.8879C70.9111 60.5136 73.8088 63.4984 77.4033 63.4984C77.6763 63.4984 78.6357 63.4984 78.8567 63.4984H92.053" fill="#FDFCEF"/>
<path d="M111.449 64.146H96.1583C95.7995 64.146 95.5083 63.8548 95.5083 63.496C95.5083 63.1372 95.7995 62.846 96.1583 62.846H111.449C114.594 62.846 117.153 60.2863 117.153 57.1403C117.153 54.4545 115.248 52.1067 112.622 51.5568C112.291 51.4879 112.069 51.1772 112.109 50.8405C112.139 50.5987 112.16 50.3543 112.16 50.1047C112.16 46.8326 109.499 44.1728 106.228 44.1728C104.359 44.1728 102.634 45.0347 101.499 46.5362C101.336 46.752 101.059 46.8443 100.797 46.7676C100.538 46.6909 100.352 46.4634 100.333 46.1943C100.197 44.4042 99.3199 42.722 97.9276 41.5806C96.5197 40.4262 94.7361 39.914 92.9096 40.1389C90.0938 40.4847 87.7668 42.6648 87.2507 45.4442C87.0882 46.3126 87.0947 47.181 87.2663 48.026C87.3248 48.312 87.1857 48.5993 86.927 48.7332C86.6696 48.8684 86.3511 48.8125 86.1535 48.598C85.406 47.7946 84.3946 47.3513 83.3065 47.3513C81.2668 47.3513 79.5651 48.9464 79.4312 50.9822C79.4182 51.172 79.3246 51.3462 79.1725 51.4593C79.0204 51.5737 78.8254 51.6127 78.6421 51.575C77.5501 51.3345 76.514 51.4034 75.4792 51.7921C73.3095 52.6085 71.7924 54.6664 71.7053 56.9128C71.6442 58.4819 72.2084 59.9678 73.2939 61.0962C74.3794 62.2246 75.8393 62.8473 77.4071 62.8473H92.0568C92.4156 62.8473 92.7068 63.1385 92.7068 63.4973C92.7068 63.8561 92.4156 64.1473 92.0568 64.1473H77.4045C75.4818 64.1473 73.6878 63.3842 72.354 61.9984C71.0215 60.6126 70.3286 58.7887 70.404 56.8634C70.5119 54.0996 72.367 51.5737 75.0203 50.5766C76.0603 50.1866 77.1367 50.0579 78.2287 50.1879C78.7175 47.8193 80.8248 46.0513 83.3052 46.0513C84.1944 46.0513 85.0654 46.2853 85.8324 46.7143C85.8324 46.2125 85.8779 45.7107 85.9715 45.2076C86.5903 41.877 89.3775 39.2627 92.751 38.8493C94.935 38.5815 97.067 39.1951 98.7518 40.5757C100.056 41.6456 100.983 43.112 101.401 44.7266C102.717 43.5358 104.416 42.8728 106.229 42.8728C110.216 42.8728 113.461 46.1176 113.461 50.1047C113.461 50.2126 113.459 50.3205 113.452 50.4271C116.382 51.3033 118.455 54.0372 118.455 57.1403C118.453 61.0039 115.311 64.146 111.449 64.146Z" fill="#472B29"/>
<path d="M92.4755 49.4975C90.1251 49.3428 88.101 50.9665 87.9567 53.1232C87.9385 53.391 87.9502 53.6549 87.9892 53.911C87.5355 53.3988 86.8647 53.0517 86.0938 53.001C84.6833 52.9087 83.4652 53.8395 83.2884 55.107C83.0323 55.0368 82.7645 54.99 82.4876 54.9718C80.431 54.8366 78.6604 56.2575 78.533 58.1451" fill="#FDFCEF"/>
<path d="M78.5342 58.4689C78.5264 58.4689 78.5186 58.4689 78.5121 58.4676C78.3327 58.4559 78.1975 58.3012 78.2092 58.1218C78.347 56.0587 80.2671 54.4974 82.5083 54.6456C82.6864 54.6573 82.8632 54.6794 83.04 54.7145C83.3949 53.4561 84.678 52.5656 86.1145 52.6774C86.6683 52.7125 87.1857 52.8854 87.6277 53.174C87.6277 53.1493 87.6303 53.1259 87.6316 53.1012C87.7889 50.7677 89.9521 49.0023 92.4975 49.1739C92.6769 49.1856 92.8121 49.3403 92.8004 49.5197C92.7887 49.6978 92.6379 49.8499 92.4546 49.8213C90.2979 49.6744 88.4142 51.1694 88.2816 53.1454C88.266 53.3846 88.2764 53.6264 88.3115 53.8643C88.3336 54.006 88.2582 54.1464 88.1282 54.2075C87.9969 54.2686 87.8435 54.2361 87.7473 54.1282C87.33 53.655 86.7359 53.3703 86.0742 53.3261C84.8678 53.2754 83.7667 54.0476 83.6133 55.1513C83.6003 55.2436 83.5483 55.3268 83.4703 55.3788C83.391 55.4308 83.2974 55.4464 83.2051 55.4204C82.962 55.3541 82.715 55.3125 82.4667 55.2943C80.5921 55.1786 78.9736 56.4604 78.8592 58.166C78.8462 58.3376 78.7032 58.4689 78.5342 58.4689Z" fill="#472B29"/>
<path d="M114.022 51.6659C111.813 50.6246 109.258 51.3617 108.316 53.313C108.199 53.5548 108.112 53.8057 108.055 54.0592" fill="#FDFCEF"/>
<path d="M108.055 54.3843C108.031 54.3843 108.007 54.3817 107.982 54.3765C107.808 54.3362 107.697 54.162 107.738 53.9865C107.8 53.7083 107.897 53.434 108.024 53.1727C109.04 51.0654 111.794 50.2581 114.161 51.3722C114.323 51.4502 114.392 51.6426 114.316 51.8051C114.238 51.9689 114.045 52.0339 113.883 51.9611C111.839 50.9952 109.472 51.6647 108.609 53.4535C108.503 53.6719 108.424 53.8994 108.371 54.1308C108.337 54.2816 108.203 54.3843 108.055 54.3843Z" fill="#472B29"/>
<path d="M23.8798 62.0243H10.8395C10.4807 62.0243 10.1895 61.7331 10.1895 61.3743C10.1895 61.0155 10.4807 60.7243 10.8395 60.7243H23.8798C24.2386 60.7243 24.5298 61.0155 24.5298 61.3743C24.5298 61.7331 24.2386 62.0243 23.8798 62.0243ZM27.6251 62.0243H25.7453C25.3865 62.0243 25.0953 61.7331 25.0953 61.3743C25.0953 61.0155 25.3865 60.7243 25.7453 60.7243H27.6251C27.9839 60.7243 28.2751 61.0155 28.2751 61.3743C28.2751 61.7331 27.9839 62.0243 27.6251 62.0243ZM32.8953 62.0243H29.5855C29.2267 62.0243 28.9355 61.7331 28.9355 61.3743C28.9355 61.0155 29.2267 60.7243 29.5855 60.7243H32.8953C33.2541 60.7243 33.5453 61.0155 33.5453 61.3743C33.5453 61.7331 33.2554 62.0243 32.8953 62.0243ZM32.8953 64.4475H20.3945C20.0357 64.4475 19.7445 64.1563 19.7445 63.7975C19.7445 63.4387 20.0357 63.1475 20.3945 63.1475H32.8953C33.2541 63.1475 33.5453 63.4387 33.5453 63.7975C33.5453 64.1563 33.2554 64.4475 32.8953 64.4475ZM18.1442 64.4475H17.3902C17.0314 64.4475 16.7402 64.1563 16.7402 63.7975C16.7402 63.4387 17.0314 63.1475 17.3902 63.1475H18.1442C18.503 63.1475 18.7942 63.4387 18.7942 63.7975C18.7942 64.1563 18.503 64.4475 18.1442 64.4475ZM15.0541 64.4475H13.16C12.8012 64.4475 12.51 64.1563 12.51 63.7975C12.51 63.4387 12.8012 63.1475 13.16 63.1475H15.0541C15.4129 63.1475 15.7041 63.4387 15.7041 63.7975C15.7041 64.1563 15.4129 64.4475 15.0541 64.4475ZM26.9296 59.5985H20.3945C20.0357 59.5985 19.7445 59.3073 19.7445 58.9485C19.7445 58.5897 20.0357 58.2985 20.3945 58.2985H26.9296C27.2884 58.2985 27.5796 58.5897 27.5796 58.9485C27.5796 59.3073 27.2897 59.5985 26.9296 59.5985ZM26.9296 57.174H25.2955C24.9367 57.174 24.6455 56.8828 24.6455 56.524C24.6455 56.1652 24.9367 55.874 25.2955 55.874H26.9296C27.2884 55.874 27.5796 56.1652 27.5796 56.524C27.5796 56.8828 27.2897 57.174 26.9296 57.174ZM22.6812 66.872H20.3945C20.0357 66.872 19.7445 66.5808 19.7445 66.222C19.7445 65.8632 20.0357 65.572 20.3945 65.572H22.6812C23.04 65.572 23.3312 65.8632 23.3312 66.222C23.3312 66.5808 23.04 66.872 22.6812 66.872Z" fill="white"/>
<path d="M54.596 94.8871C57.0439 94.8871 59.1681 94.8871 59.198 94.8871C61.941 94.8871 64.1653 92.7109 64.1653 90.0264C64.1653 87.6838 62.4727 85.7299 60.2198 85.2684C60.2458 85.063 60.264 84.8563 60.264 84.6444C60.264 81.8637 57.9604 79.6095 55.1199 79.6095C53.4429 79.6095 51.957 80.3986 51.0184 81.6154C50.7779 78.5201 47.953 76.132 44.6484 76.5285C42.2317 76.8184 40.2323 78.6462 39.7877 80.9888C39.6447 81.7402 39.6603 82.4695 39.802 83.1533C39.1546 82.4708 38.2316 82.0405 37.2046 82.0405C35.3248 82.0405 33.7895 83.4731 33.6686 85.2827C32.8145 85.0981 31.8863 85.1098 30.9087 85.4686C29.0393 86.155 27.7081 87.8775 27.6301 89.8314C27.5196 92.6043 29.7842 94.8871 32.5935 94.8871C32.8067 94.8871 33.5568 94.8871 33.7297 94.8871H44.0439H54.596ZM46.1759 94.8871H46.6439H46.1759Z" fill="#FDFCEF"/>
<path d="M59.1994 95.537H54.5961C54.2373 95.537 53.9461 95.2458 53.9461 94.887C53.9461 94.5282 54.2373 94.237 54.5961 94.237H59.1994C61.5797 94.237 63.5154 92.3481 63.5154 90.0263C63.5154 88.0451 62.075 86.3122 60.0899 85.9066C59.7571 85.8377 59.5335 85.5257 59.5751 85.189C59.5972 85.0096 59.6128 84.8302 59.6128 84.6443C59.6128 82.2263 57.5965 80.2594 55.1187 80.2594C53.6991 80.2594 52.3913 80.8977 51.532 82.0131C51.3669 82.2263 51.0887 82.3134 50.8313 82.2393C50.5739 82.1613 50.3906 81.9351 50.3698 81.6673C50.2671 80.3413 49.6353 79.1401 48.5888 78.2821C47.5111 77.3981 46.1448 77.0068 44.7239 77.1719C42.5841 77.428 40.8174 79.0465 40.4248 81.1096C40.3026 81.7505 40.3078 82.3927 40.4378 83.0206C40.4963 83.3053 40.3598 83.5939 40.1024 83.7291C39.8463 83.8643 39.5304 83.811 39.3289 83.5991C38.7725 83.0128 38.0172 82.6904 37.2021 82.6904C35.6824 82.6904 34.4136 83.8487 34.3148 85.3255C34.3018 85.5153 34.2082 85.6882 34.0574 85.8013C33.9066 85.9144 33.7155 85.9599 33.5283 85.917C32.7015 85.7402 31.9176 85.7909 31.1298 86.0795C29.4892 86.6814 28.3426 88.1998 28.2763 89.856C28.2308 90.9935 28.6442 92.0764 29.4398 92.9045C30.2653 93.7625 31.3846 94.2357 32.5897 94.2357H44.0401C44.3989 94.2357 44.6901 94.5269 44.6901 94.8857C44.6901 95.2445 44.3989 95.5357 44.0401 95.5357H32.591C31.0505 95.5357 29.5607 94.9052 28.5025 93.8041C27.4599 92.7199 26.9178 91.299 26.9776 89.8053C27.0647 87.6278 28.5532 85.6401 30.6826 84.8575C31.4769 84.5663 32.2998 84.4558 33.1266 84.5403C33.5738 82.7255 35.2443 81.3891 37.2021 81.3891C37.843 81.3891 38.4722 81.536 39.0403 81.8077C39.052 81.4944 39.0884 81.1798 39.1482 80.8639C39.6435 78.2522 41.8743 76.2021 44.5692 75.8797C46.3385 75.6613 48.061 76.1631 49.413 77.2733C50.3854 78.0702 51.0744 79.105 51.4228 80.2659C52.4511 79.4235 53.7446 78.9568 55.1174 78.9568C58.3128 78.9568 60.9115 81.5074 60.9115 84.6417C60.9115 84.6859 60.9115 84.7301 60.9102 84.7756C63.2034 85.4958 64.8141 87.62 64.8141 90.0237C64.8154 93.0644 62.296 95.537 59.1994 95.537ZM46.6427 95.537H46.176C45.8172 95.537 45.526 95.2458 45.526 94.887C45.526 94.5282 45.8172 94.237 46.176 94.237H46.6427C47.0015 94.237 47.2927 94.5282 47.2927 94.887C47.2927 95.2458 47.0028 95.537 46.6427 95.537Z" fill="#472B29"/>
<path d="M56.9789 87.9932C56.9555 87.9932 56.9308 87.9906 56.9074 87.9854C56.7319 87.9451 56.6227 87.7709 56.663 87.5954C56.7124 87.3796 56.7865 87.1703 56.8827 86.9727C57.6679 85.3815 59.8389 84.7965 61.7213 85.6649C61.8838 85.7403 61.9553 85.9327 61.8799 86.0952C61.8032 86.259 61.6121 86.3279 61.4483 86.2538C59.887 85.531 58.0982 85.9834 57.4664 87.26C57.391 87.4108 57.3351 87.5707 57.2974 87.7384C57.261 87.8905 57.1271 87.9932 56.9789 87.9932ZM50.2722 95.5371H48.8331C48.4743 95.5371 48.1831 95.2459 48.1831 94.8871C48.1831 94.5283 48.4743 94.2371 48.8331 94.2371H50.2722C50.631 94.2371 50.9222 94.5283 50.9222 94.8871C50.9222 95.2459 50.631 95.5371 50.2722 95.5371Z" fill="#472B29"/>
<path d="M93.0099 27.863H79.9709C79.6121 27.863 79.3209 27.5718 79.3209 27.213C79.3209 26.8542 79.6121 26.563 79.9709 26.563H93.0099C93.3687 26.563 93.6599 26.8542 93.6599 27.213C93.6599 27.5718 93.37 27.863 93.0099 27.863ZM96.7565 27.863H94.8767C94.5179 27.863 94.2267 27.5718 94.2267 27.213C94.2267 26.8542 94.5179 26.563 94.8767 26.563H96.7565C97.1153 26.563 97.4065 26.8542 97.4065 27.213C97.4065 27.5718 97.1153 27.863 96.7565 27.863ZM102.027 27.863H98.7169C98.3581 27.863 98.0669 27.5718 98.0669 27.213C98.0669 26.8542 98.3581 26.563 98.7169 26.563H102.027C102.385 26.563 102.677 26.8542 102.677 27.213C102.677 27.5718 102.385 27.863 102.027 27.863ZM99.3942 23.0153H86.8921C86.5333 23.0153 86.2421 22.7241 86.2421 22.3653C86.2421 22.0065 86.5333 21.7153 86.8921 21.7153H99.3942C99.753 21.7153 100.044 22.0065 100.044 22.3653C100.044 22.7241 99.753 23.0153 99.3942 23.0153ZM84.6405 23.0153H83.8865C83.5277 23.0153 83.2365 22.7241 83.2365 22.3653C83.2365 22.0065 83.5277 21.7153 83.8865 21.7153H84.6405C84.9993 21.7153 85.2905 22.0065 85.2905 22.3653C85.2905 22.7241 85.0006 23.0153 84.6405 23.0153ZM81.5504 23.0153H79.6576C79.2988 23.0153 79.0076 22.7241 79.0076 22.3653C79.0076 22.0065 79.2988 21.7153 79.6576 21.7153H81.5504C81.9092 21.7153 82.2004 22.0065 82.2004 22.3653C82.2004 22.7241 81.9105 23.0153 81.5504 23.0153ZM96.061 25.4385H89.5259C89.1671 25.4385 88.8759 25.1473 88.8759 24.7885C88.8759 24.4297 89.1671 24.1385 89.5259 24.1385H96.061C96.4198 24.1385 96.711 24.4297 96.711 24.7885C96.711 25.1473 96.4198 25.4385 96.061 25.4385Z" fill="white"/>
<path d="M96.0608 23.0153H94.4267C94.0679 23.0153 93.7767 22.7241 93.7767 22.3653C93.7767 22.0065 94.0679 21.7153 94.4267 21.7153H96.0608C96.4196 21.7153 96.7108 22.0065 96.7108 22.3653C96.7108 22.7241 96.4196 23.0153 96.0608 23.0153ZM87.6342 25.4385H85.3475C84.9887 25.4385 84.6975 25.1473 84.6975 24.7885C84.6975 24.4297 84.9887 24.1385 85.3475 24.1385H87.6342C87.993 24.1385 88.2842 24.4297 88.2842 24.7885C88.2842 25.1473 87.993 25.4385 87.6342 25.4385Z" fill="white"/>
<path d="M45.3107 54.3746C42.388 60.9268 42.1878 68.3717 44.7543 75.0716C47.3207 81.7714 52.4435 87.1773 58.9958 90.1C65.548 93.0227 72.993 93.2229 79.6928 90.6564C86.3926 88.09 91.7985 82.9671 94.7212 76.4149C97.644 69.8626 97.8441 62.4177 95.2777 55.7179C92.7112 49.0181 87.5884 43.6122 81.0361 40.6895C74.4839 37.7667 67.039 37.5666 60.3391 40.133C53.6393 42.6995 48.2334 47.8223 45.3107 54.3746Z" fill="#88BBED"/>
<path d="M70.0051 93.379C66.1324 93.379 62.2675 92.5639 58.6249 90.9389C44.5433 84.656 38.1993 68.0914 44.4809 54.0111C47.5229 47.19 53.0401 41.9614 60.0146 39.2899C66.9917 36.6197 74.5889 36.8251 81.4087 39.8658C88.2298 42.9091 93.4571 48.425 96.1286 55.3995C98.8001 62.374 98.596 69.9725 95.5527 76.7936C92.5107 83.6147 86.9935 88.842 80.019 91.5135C76.7677 92.7576 73.3825 93.379 70.0051 93.379ZM70.0246 39.2457C66.8669 39.2457 63.7027 39.8255 60.6646 40.989C54.1438 43.4876 48.9867 48.3756 46.141 54.7521C40.2689 67.9159 46.2008 83.4028 59.3646 89.2762C72.5271 95.1483 88.0166 89.2164 93.8887 76.0526C96.7331 69.6761 96.9242 62.5716 94.4269 56.0508C91.9296 49.53 87.0416 44.3729 80.6651 41.5285C77.2604 40.0088 73.6464 39.2457 70.0246 39.2457Z" fill="#002950"/>
<path d="M44.7329 62.9369C44.69 62.7263 44.7927 62.2219 44.8746 61.8163C44.9552 61.4185 45.0319 61.0415 45.0319 60.7542C45.0319 60.4773 45.4414 59.8468 45.7131 59.4282C45.9198 59.111 46.0979 58.8367 46.1798 58.6287C46.3046 58.3128 46.7843 57.577 47.2081 56.9283C47.3927 56.6449 47.5708 56.3719 47.7151 56.1405C47.8386 55.9429 48.0947 55.5308 47.8321 55.263C47.7476 55.1759 47.6475 55.1486 47.5331 55.1421C47.5669 55.1096 47.5955 55.0836 47.6202 55.0667C47.914 54.8704 49.5793 53.6952 49.6235 53.6601C49.6534 53.6289 50.3684 52.8853 49.5819 51.4189C49.2998 50.8989 49.3765 50.7572 49.4753 50.5791C49.5403 50.4608 49.6209 50.3139 49.6209 50.1098C49.6209 49.9733 49.5338 49.8498 49.4038 49.8043C49.3869 49.7978 49.2946 49.7666 49.1646 49.7484C49.0489 49.7354 48.9293 49.7822 48.8591 49.8784C45.6572 54.223 43.8957 59.3645 43.7657 64.7465C43.7618 64.9025 43.871 65.0403 44.0231 65.0715C44.0452 65.0767 44.0686 65.0793 44.0907 65.0793C44.2207 65.0793 44.339 65.0013 44.391 64.8791C44.5639 64.4631 44.82 63.3841 44.7329 62.9369ZM54.2359 78.2977C54.0513 78.2613 53.6847 77.9935 53.4169 77.7972C52.997 77.4904 52.7474 77.3162 52.5121 77.3162C52.3093 77.3162 51.8829 77.1563 51.6203 76.9821C51.5124 76.908 51.3694 76.8365 51.2173 76.7598C51.0067 76.6532 50.7194 76.5102 50.6362 76.3854C50.5088 76.1956 50.1916 75.6977 49.9836 75.1738L49.9069 74.9697C49.7782 74.6122 49.7015 74.4497 49.045 73.7139L48.9189 73.5722C48.3885 72.9729 48.356 72.9365 48.0102 72.774L47.7762 72.6609C47.5175 72.5322 47.342 72.4035 47.1704 72.2787C46.9754 72.137 46.7739 71.9888 46.484 71.8731C46.0342 71.6898 45.8483 71.5481 45.5025 71.2478C45.2399 71.0164 45.0124 70.8812 44.807 70.8292C44.6965 70.8045 44.5821 70.8331 44.5002 70.9111C44.4196 70.9904 44.3858 71.1048 44.4105 71.2153C45.5753 76.3204 48.2338 80.9289 52.1013 84.5416C52.1403 84.578 52.1884 84.6053 52.2404 84.6196C52.3444 84.6469 52.4354 84.656 52.5186 84.656C52.6993 84.656 52.8358 84.6066 52.945 84.5663C53.0386 84.5325 53.1062 84.5078 53.1998 84.5078C53.6795 84.5078 54.2684 84.0372 54.3828 83.9423C54.4855 83.8565 54.5258 83.7161 54.4829 83.59L54.1228 82.5123L54.4855 81.1577L54.9678 79.8031C54.9808 79.768 54.9873 79.7303 54.9873 79.6939C54.986 79.5665 54.9652 78.4472 54.2359 78.2977ZM60.0313 42.3345C60.1223 42.3345 60.2094 42.2968 60.2705 42.2292C60.2705 42.2292 60.6475 41.8197 60.9595 41.4206C61.0492 41.3049 61.0518 41.1437 60.9647 41.0267C60.8789 40.9084 60.7242 40.8668 60.5864 40.9162C57.4833 42.1109 54.6649 43.8659 52.2105 46.1305C52.1754 46.163 52.1468 46.2046 52.1299 46.2488C52.0792 46.3749 52.035 46.4945 52.0012 46.6141C51.9544 46.8039 52.0012 46.9781 52.1312 47.0938C52.3405 47.2823 52.6928 47.2342 52.9879 47.1406L53.7471 47.4786C53.7887 47.4981 53.8342 47.5059 53.8797 47.5059C53.9174 47.5059 53.9551 47.4994 53.9902 47.4864L55.0653 47.0964C55.1433 47.0678 55.207 47.0106 55.2447 46.9365C55.2473 46.9313 55.5164 46.4113 56.1196 45.9823C56.6305 45.6157 56.7592 45.435 56.91 45.1815C56.9516 45.1113 56.9971 45.0333 57.0712 44.9358C57.1999 44.7629 57.1999 44.7629 57.3078 44.655C57.4313 44.5315 57.677 44.2858 58.3166 43.5981C59.4333 42.3956 60.0378 42.3345 60.0313 42.3345ZM87.9995 75.9512C87.8721 75.9447 87.7369 76.0019 87.6732 76.1202L86.9439 77.4852C86.5071 77.6776 85.7076 78.0858 85.5906 78.5382C85.5061 78.8775 85.4216 79.3546 85.3969 79.4976C85.2994 79.7134 84.9081 80.5974 84.8093 80.9783C84.7092 81.3748 84.8236 82.0482 85.1213 82.3238C85.2227 82.4174 85.3423 82.4668 85.4671 82.4668C85.5191 82.4668 85.5698 82.4577 85.6205 82.4408C85.8623 82.3602 86.1184 82.1145 86.3901 81.8571C86.5305 81.7219 86.6644 81.5932 86.7697 81.5217C87.1467 81.2695 87.6667 80.4154 87.7811 79.963C87.8409 79.7251 87.9358 79.3767 88.0229 79.0543L88.1711 78.5044C88.1711 78.5031 88.1711 78.5018 88.1724 78.5005C88.2738 78.0949 88.3778 77.2915 88.3843 76.9574C88.3843 76.6298 88.2816 76.2125 88.2764 76.1943C88.2426 76.0643 88.1321 75.9681 87.9995 75.9512Z" fill="#DCE751"/>
<path d="M83.8565 43.1352C83.7564 43.0716 83.6303 43.0703 83.5263 43.1262L83.3209 43.2457C83.1363 43.3549 82.6397 43.6409 82.5266 43.6228C82.3316 43.429 81.9845 43.1574 81.7505 42.9793C81.7622 42.9208 81.7635 42.8675 81.7596 42.8272C81.718 42.302 80.8145 41.8158 80.2802 41.5714C80.2451 41.5545 80.2061 41.5454 80.1671 41.5441L78.0988 41.4062H76.6376C76.5011 41.4062 76.3048 41.4244 76.0838 41.4439C75.8264 41.4699 75.5313 41.4972 75.2674 41.4972C74.9203 41.4972 74.4393 41.7273 73.7958 42.0523C73.5423 42.181 73.255 42.3267 73.1393 42.3553C72.9586 42.3995 72.7259 42.5021 72.4542 42.6217C72.163 42.7491 71.7249 42.9416 71.5598 42.9416C71.0541 42.9416 70.4899 43.5994 70.2975 43.8464C69.7307 44.8838 69.9595 45.1568 70.0336 45.2465C70.0934 45.318 70.2676 45.4688 70.5926 45.3648C71.0827 45.1984 71.5754 45.2243 71.6404 45.249C71.6911 45.3959 71.7639 45.591 71.838 45.786C71.8887 45.9212 71.9407 46.0577 71.9823 46.1747C71.9381 46.1721 71.8874 46.1733 71.8393 46.1889C71.2283 46.393 70.7239 46.6972 70.6394 46.7583C70.0739 47.3264 69.5006 47.8296 69.3381 47.9713C69.1652 48.0337 68.6816 48.2209 68.3306 48.4861C68.1993 48.5836 67.9588 48.6615 67.7248 48.7343C67.3621 48.8513 66.9864 48.9709 66.794 49.24C66.4092 49.7795 66.5535 50.297 66.8148 50.6285L66.4196 51.1433L66.0946 51.3707L64.7452 51.649L63.8859 51.7933C63.7936 51.8089 63.713 51.8674 63.6649 51.9467C63.6155 52.0273 63.6051 52.1274 63.6324 52.2158C63.6675 52.3328 63.6181 52.8242 63.518 53.3338V54.9874C63.518 55.133 63.6155 55.2617 63.7572 55.3007C64.0991 55.3943 65.2392 55.7036 65.5525 55.7036L65.6929 55.7076C66.0699 55.7232 66.7641 55.7505 67.2009 55.3149C67.6104 54.9016 68.2578 54.0072 68.4593 53.7056C68.6179 53.4677 68.835 53.2246 69.3472 53.053C69.7476 52.9191 69.9595 52.741 70.1129 52.6097C70.2052 52.5304 70.2572 52.4888 70.3183 52.4693C70.4951 52.4095 71.1581 52.286 71.6105 52.208L72.2787 52.6565C72.2488 52.7384 72.2371 52.8384 72.2774 52.9515C72.3619 53.1907 72.6024 53.365 73.5254 53.5223V54.0162C73.5254 54.1072 73.5631 54.1944 73.6307 54.2555C73.6983 54.3179 73.7906 54.353 73.8777 54.3399L75.0737 54.2424C75.1959 54.232 75.3025 54.1541 75.348 54.0397C75.3935 53.9253 75.3714 53.7953 75.2895 53.703L74.5966 52.9216C74.5537 52.8736 74.4965 52.8398 74.4341 52.8229L73.4357 51.8205L73.4227 51.6775C73.7971 51.8868 74.2664 52.1469 74.4913 52.2574C74.7877 52.4056 75.3844 52.8125 75.595 52.958L76.1371 54.2399C76.1488 54.2671 76.1657 54.2945 76.1852 54.3192L76.9652 55.272C77.0783 55.4111 77.285 55.4307 77.4215 55.3189C77.5606 55.2058 77.5827 55.003 77.4709 54.8626C77.1602 54.4752 77.0848 54.2191 77.0861 54.1827C77.0861 54.1814 77.1368 54.1449 77.2863 54.1436C77.5203 54.1683 78.3094 54.2399 78.6409 54.1281C78.8827 54.0488 79.0907 53.9747 79.3312 53.8668C79.1856 54.0397 79.0933 54.2724 79.1518 54.5649C79.2428 55.0264 79.56 55.5997 80.0943 56.2666C80.1762 56.3719 80.2555 56.4811 80.3296 56.5864C80.6338 57.0115 81.0147 57.5406 81.5009 57.2143C81.6322 57.1285 81.8974 56.9647 82.1509 56.81C82.1366 57.0024 82.1379 57.2091 82.1769 57.3976C82.2289 57.6472 82.251 57.9604 82.2614 58.1879C81.7492 58.2217 81.601 58.3465 81.5451 58.5286C81.5256 58.591 81.4827 58.8054 81.731 58.9731C81.8233 59.0342 81.9624 59.2189 82.0937 59.41C81.9195 59.215 81.6595 59.0681 81.3683 58.9238C81.1746 58.8289 80.9731 58.7301 80.834 58.6248C80.4297 58.3232 78.5811 57.9293 77.9311 57.7966C77.5073 57.538 76.9574 57.3001 76.6337 57.5575C75.8225 58.2023 73.7607 57.8136 73.2459 57.6069C72.8481 57.4496 72.6661 57.2481 72.6661 57.1285C72.6661 56.8113 72.3177 55.666 72.2111 55.3228C72.1617 55.1668 72.0096 55.0679 71.8432 55.0991C71.4857 55.1628 70.8448 55.2643 70.6537 55.2643C70.512 55.2643 70.0557 55.1173 69.7125 54.9809C69.6657 54.9614 69.615 54.9536 69.5617 54.9588C69.4551 54.9692 68.5152 55.0627 68.0823 55.2811C67.7274 55.4605 66.9721 55.744 66.6666 55.8467C66.4768 55.9104 65.9932 55.9819 65.7423 56.017C64.7465 55.6426 63.9613 56.5617 63.648 57.1818C63.5908 57.3001 63.5011 57.4028 63.4062 57.512C63.2385 57.7044 63.0292 57.9462 63.0292 58.3011C63.0292 58.4636 62.5859 58.9433 62.1946 59.202C62.14 59.2384 62.0568 59.289 61.9554 59.3514C61.3288 59.7362 60.6944 60.1484 60.4409 60.5722C60.1744 61.0155 59.8312 61.6642 59.7155 62.24C59.6128 62.7587 59.6128 63.1761 59.6128 63.8638C59.6128 64.1004 59.6011 64.3006 59.5894 64.4865C59.5673 64.8362 59.5478 65.1651 59.6167 65.5798C59.7324 66.2961 60.853 67.9003 61.1455 68.2682C61.5706 68.7986 62.0698 69.3913 62.6028 69.7073C63.0032 69.9503 63.5661 70.4171 63.7 70.5302C63.9093 70.8084 64.4553 71.1932 65.221 70.9046C65.5239 70.7915 65.8398 70.7226 66.144 70.6563C66.6016 70.5575 67.0735 70.4535 67.5168 70.2013C68.1863 69.8243 68.6192 69.6891 68.7908 69.6813C68.8051 70.0778 68.9637 70.4132 69.2341 70.6082C69.4967 70.798 69.836 70.8396 70.1935 70.7186C70.2871 70.6875 70.3911 70.6485 70.4977 70.6082C70.6849 70.538 71.045 70.4028 71.2257 70.3846C71.1633 70.8655 71.2647 71.4025 71.3453 71.8341C71.3856 72.0486 71.4233 72.2514 71.4233 72.3632C71.4233 72.436 71.4194 72.5075 71.4168 72.5803C71.3999 72.9131 71.3791 73.3291 71.7145 73.6658C71.812 73.7633 71.9615 73.8842 72.1214 74.0116C72.3086 74.1598 72.657 74.4367 72.6973 74.5121C72.6973 74.7565 72.7792 75.8277 73.0236 76.3178C73.2537 76.7754 73.3317 77.1875 73.2277 77.3942C73.0249 77.7972 72.6544 78.8515 72.6271 78.9412C72.5829 79.166 72.4477 79.9292 72.5647 80.2724C72.696 80.6689 72.9989 81.107 73.4682 81.5737C73.7048 81.8103 73.8023 82.0781 73.905 82.3589C73.9843 82.5786 74.0675 82.8048 74.2157 83.0011C74.4393 83.3014 74.8709 84.1893 75.0282 84.5273L75.5274 85.4295V86.2225C75.5274 86.3187 75.5703 86.4097 75.6431 86.4708C75.7016 86.5202 75.7757 86.5475 75.8524 86.5475C75.8706 86.5475 75.8901 86.5462 75.9083 86.5423C75.9772 86.5306 77.584 86.2485 77.9805 86.1484C78.4394 86.0301 79.5249 85.3099 79.9435 84.8926C80.1541 84.6807 80.2516 84.4921 80.3374 84.327C80.4284 84.1502 80.5012 84.0125 80.7131 83.8409C81.2019 83.4521 82.0872 82.7696 82.0872 82.7696C82.173 82.7034 82.2198 82.5981 82.2133 82.4915L82.1275 81.1512L83.2013 79.7173L84.1126 78.8008C84.3752 78.442 84.9732 77.5541 84.8484 77.0705C84.7847 76.8105 84.6521 75.6366 84.5728 74.8579C84.7028 74.5758 84.9849 73.9986 85.1877 73.7282C85.3112 73.5566 85.3879 73.3811 85.462 73.2121C85.5803 72.9391 85.6934 72.6817 86.0106 72.4178C86.5423 71.9758 86.9219 71.4558 87.1988 71.0775L87.4354 70.7577C87.7487 70.3404 88.2388 69.6878 88.4143 69.4252V69.4239C88.5846 69.1704 88.7302 68.6504 88.8537 68.1628C88.881 68.077 88.8732 67.9796 88.8264 67.8977C88.7575 67.7807 88.6236 67.7183 88.4923 67.7404L86.9466 67.9978C86.5683 67.4037 85.93 66.5314 85.4061 65.8151C85.0109 65.2756 84.6378 64.7647 84.5234 64.5749C84.2712 64.1537 83.9943 63.2671 83.8786 62.8069C83.8097 62.5352 83.5926 62.0178 83.4002 61.5602C83.3027 61.3262 83.2169 61.1247 83.1831 61.0272C83.1792 61.0142 83.1675 60.996 83.1623 60.9817C84.214 62.4962 85.5699 64.519 85.7077 64.7933C85.7662 64.9142 85.7922 65.0858 85.8208 65.2652C85.8676 65.5681 85.9196 65.9125 86.1601 66.1504C86.8894 66.8797 88.179 66.287 88.6145 65.9984C88.7029 65.9399 88.8563 65.8554 89.0318 65.754C89.5778 65.4459 90.012 65.1924 90.233 64.9727C90.4267 64.7829 90.4267 64.7829 90.6373 64.6464L90.9623 64.4345C91.4966 64.077 91.8489 63.8144 91.8853 63.4491C91.897 63.3243 91.8749 63.1384 91.6942 62.9577C91.5057 62.7679 91.0897 62.0633 90.8726 61.6655C90.8037 61.5381 90.6594 61.4744 90.5164 61.503C89.8404 61.6538 89.2164 61.3132 89.1527 61.2352C89.1527 61.0389 88.985 60.6852 88.7666 60.3095C88.9681 60.4382 89.167 60.6047 89.3607 60.7659C89.7936 61.1247 90.2018 61.4652 90.6854 61.4652C91.1391 61.4652 91.3731 61.6005 91.936 61.9242L92.0842 62.01C92.4287 62.2037 92.6679 62.4312 92.8798 62.6327C93.0696 62.8121 93.249 62.9811 93.4661 63.0916C93.7001 63.2086 94.1187 63.6935 94.289 63.9054C94.4502 64.2785 94.8818 65.3133 94.9546 65.6136C94.9546 65.6149 94.9546 65.6161 94.9546 65.6174C95.0053 65.8125 95.1405 66.1283 95.2965 66.4923C95.3654 66.6535 95.4356 66.8187 95.4967 66.9682C95.5474 67.093 95.667 67.1709 95.797 67.1709C95.8139 67.1709 95.8321 67.1697 95.8503 67.1671C96.0011 67.1411 96.1129 67.0163 96.122 66.8655L96.1454 66.4936C96.1753 66.1218 96.2 65.7462 96.2 65.3692C96.2 56.3004 91.5863 47.9895 83.8565 43.1352ZM79.9253 52.8241C79.885 52.5628 79.8694 52.3939 79.9695 52.2665C80.2984 51.8609 80.7222 51.6866 81.0121 51.5891C81.2747 51.5033 81.9689 51.1654 82.2367 51.0328L82.5487 51.0899C82.0274 51.6034 82.1171 51.7842 82.1743 51.9012C82.2068 51.9662 82.3368 52.1689 82.6683 52.0844C82.8711 52.0467 83.6017 52.3705 84.0541 52.7124C84.1399 52.7761 84.1373 52.9373 84.1113 53.079C83.7525 53.0439 83.1038 52.9776 82.6371 52.9087C81.9078 52.8099 80.8197 53.0023 80.7742 53.0101C80.7391 53.0166 80.7053 53.0296 80.6741 53.0452L79.872 53.4963C79.9955 53.2883 79.9552 53.0217 79.9253 52.8241ZM73.7828 46.9208C73.9167 46.9364 74.0519 46.8506 74.1065 46.7206C74.1078 46.7167 74.2963 46.2631 74.5589 45.9134C74.6577 45.7795 74.7552 45.6365 74.8436 45.5052C74.9775 45.786 75.114 46.0823 75.1569 46.2084C75.1842 46.3124 75.1088 46.7025 74.997 47.0678C74.5576 47.3408 74.0402 47.6215 73.9492 47.6423C73.8023 47.5955 73.3083 47.2211 72.7831 46.7856C73.0249 46.8428 73.3486 46.8922 73.7828 46.9208Z" fill="#DCE751"/>
<path d="M70.8915 92.01C70.7121 92.01 70.5665 91.8657 70.5665 91.685L70.4924 50.6934C70.4924 50.514 70.6367 50.3684 70.8174 50.3684C70.9968 50.3684 71.1424 50.5127 71.1424 50.6934L71.2165 91.685C71.2165 91.8644 71.0709 92.01 70.8915 92.01Z" fill="#002950"/>
<path d="M43.3863 65.7736C43.2069 65.7736 43.0613 65.6293 43.0613 65.4486C43.0613 65.2692 43.2056 65.1236 43.3863 65.1236L89.6975 65.0417C89.8769 65.0417 90.0225 65.186 90.0225 65.3667C90.0225 65.5461 89.8782 65.6917 89.6975 65.6917L43.3863 65.7736ZM50.7924 84.5703C50.7144 84.5703 50.6377 84.543 50.5753 84.4884C50.4414 84.3675 50.431 84.1621 50.5506 84.0282C55.5257 78.4785 62.6276 75.2896 70.0324 75.2766C70.0467 75.2766 70.061 75.2766 70.0753 75.2766C77.4671 75.2766 84.5612 78.4395 89.5467 83.958C89.6663 84.0919 89.6559 84.2973 89.5233 84.4182C89.3894 84.5365 89.184 84.5287 89.0644 84.3948C84.2024 79.0115 77.2838 75.9266 70.0753 75.9266C70.061 75.9266 70.048 75.9266 70.0337 75.9266C62.8109 75.9396 55.8871 79.0505 51.0342 84.4624C50.9705 84.5339 50.8821 84.5703 50.7924 84.5703ZM69.9518 55.5257C62.5626 55.5257 55.4698 52.3628 50.4843 46.8443C50.3647 46.7104 50.3751 46.505 50.5077 46.3841C50.6403 46.2645 50.8457 46.2723 50.9666 46.4075C55.8299 51.7908 62.7472 54.8757 69.9518 54.8757C69.9674 54.8757 69.983 54.8757 69.9986 54.8757C77.2201 54.8627 84.1452 51.7518 88.9981 46.3412C89.119 46.2073 89.3231 46.1995 89.457 46.3152C89.5909 46.4361 89.6013 46.6415 89.4817 46.7754C84.5053 52.3238 77.4047 55.5127 69.9999 55.5257C69.983 55.5257 69.9661 55.5257 69.9518 55.5257Z" fill="#002950"/>
<path d="M71.2048 92.3118C71.1073 92.3118 71.0111 92.2689 70.9474 92.1844C70.8382 92.0427 70.8655 91.8372 71.0072 91.728C79.7822 84.9992 84.8054 75.4312 84.7885 65.4732C84.7716 55.5152 79.7133 45.9642 70.9123 39.2705C70.7693 39.1613 70.742 38.9585 70.8512 38.8142C70.9591 38.6725 71.1632 38.6439 71.3062 38.7518C80.2697 45.5703 85.4203 55.3098 85.4385 65.4732C85.4567 75.634 80.3412 85.3918 71.4037 92.2441C71.3439 92.2909 71.2737 92.3118 71.2048 92.3118ZM70.0855 92.2129C70.0166 92.2129 69.9477 92.1909 69.8892 92.1467C60.9257 85.3282 55.7751 75.5886 55.7569 65.4251C55.7387 55.2644 60.8542 45.5066 69.793 38.6556C69.9321 38.5451 70.1388 38.575 70.248 38.7154C70.3572 38.8571 70.3299 39.0625 70.1882 39.1717C61.4119 45.8992 56.3887 55.4672 56.4069 65.4251C56.4251 75.3819 61.4821 84.9329 70.2831 91.6279C70.4261 91.7371 70.4534 91.9399 70.3442 92.0842C70.2805 92.1687 70.183 92.2129 70.0855 92.2129ZM93.6883 66.0349C93.687 66.0349 93.6857 66.0349 93.6844 66.0349L92.0451 66.0153C91.8657 66.0127 91.7214 65.8659 91.724 65.6865C91.7253 65.5084 91.8709 65.3653 92.049 65.3653C92.0503 65.3653 92.0516 65.3653 92.0529 65.3653L93.6922 65.3849C93.8716 65.3875 94.0159 65.5344 94.0133 65.7138C94.0107 65.8918 93.8664 66.0349 93.6883 66.0349Z" fill="#002950"/>
<path d="M70.6927 48.3106C70.6914 48.3106 70.6901 48.3106 70.6888 48.3106C70.5094 48.308 70.3651 48.1624 70.3677 47.9817L70.3976 45.2504C70.3989 45.0723 70.5445 44.9293 70.7226 44.9293C70.7239 44.9293 70.7252 44.9293 70.7265 44.9293C70.9059 44.9319 71.0502 45.0775 71.0476 45.2582L71.0177 47.9895C71.0151 48.1663 70.8708 48.3106 70.6927 48.3106ZM70.7993 43.5292C70.798 43.5292 70.798 43.5292 70.7967 43.5292C70.6173 43.5279 70.473 43.381 70.4743 43.2003L70.4808 42.5178C70.4821 42.3384 70.629 42.1603 70.8084 42.1967C70.9878 42.198 71.1321 42.3449 71.1308 42.5256L71.1243 43.2081C71.123 43.3862 70.9774 43.5292 70.7993 43.5292Z" fill="#472B29"/>
<path d="M105.222 48.1637C105.222 44.6797 103.783 41.5363 101.473 39.2808C101.248 39.0546 101.007 38.8414 100.76 38.6334C100.736 38.6126 100.714 38.5905 100.689 38.571C100.441 38.3669 100.181 38.1745 99.9114 37.9899C99.8386 37.9392 99.7671 37.8833 99.693 37.8339C99.5799 37.7598 99.4616 37.6935 99.3459 37.6233C97.444 36.4403 95.2067 35.6096 92.8017 35.6096C92.738 35.6096 92.4689 35.6239 92.5001 35.6252C85.7817 35.7877 80.3828 41.34 80.3828 48.0974C80.3828 55.3865 92.9252 69.6449 92.9252 69.6449C92.9252 69.6449 105.222 55.4892 105.222 48.1637Z" fill="#E63946"/>
<path d="M92.9266 70.1962C92.768 70.1962 92.6172 70.1273 92.5119 70.0077C91.9945 69.4201 79.833 55.5075 79.833 48.0962C79.833 41.0827 85.5101 35.2405 92.4885 35.0715V35.0728C92.6055 35.0559 92.7186 35.0559 92.8044 35.0559C95.1028 35.0559 97.4025 35.7618 99.6398 37.1528C99.8205 37.2594 99.9102 37.314 99.9973 37.3712L100.156 37.483C100.508 37.7287 100.782 37.9315 101.042 38.1447C101.377 38.4294 101.628 38.6543 101.864 38.8909C104.384 41.3505 105.774 44.6447 105.774 48.1638C105.774 55.6102 93.8509 69.4214 93.3439 70.0051C93.2386 70.126 93.0878 70.1949 92.9292 70.1949H92.9266V70.1962ZM92.5665 36.1726C92.5496 36.1752 92.5314 36.1765 92.5145 36.1765C86.1302 36.3312 80.9367 41.6781 80.9367 48.0962C80.9367 54.3531 90.7595 66.2494 92.924 68.7935C95.056 66.2533 104.671 54.4519 104.671 48.1651C104.671 44.9463 103.398 41.9316 101.088 39.6774C100.87 39.4577 100.641 39.2562 100.407 39.0573C100.105 38.8038 99.8556 38.6218 99.6008 38.445L99.1679 38.1577C96.9969 36.8109 94.8935 36.1609 92.8044 36.1609C92.7589 36.1609 92.6211 36.1687 92.5665 36.1726Z" fill="#002950"/>
<path d="M92.8031 41.0735C91.1592 41.0735 89.5826 41.7265 88.4202 42.889C87.2578 44.0514 86.6047 45.628 86.6047 47.2719C86.6047 48.9158 87.2578 50.4924 88.4202 51.6548C89.5826 52.8172 91.1592 53.4703 92.8031 53.4703C94.447 53.4703 96.0236 52.8172 97.1861 51.6548C98.3485 50.4924 99.0015 48.9158 99.0015 47.2719C99.0015 45.628 98.3485 44.0514 97.1861 42.889C96.0236 41.7265 94.447 41.0735 92.8031 41.0735Z" fill="#D6213F"/>
<path d="M92.8031 53.9578C89.1163 53.9578 86.1172 50.9587 86.1172 47.2719C86.1172 43.5851 89.1163 40.5847 92.8031 40.5847C96.4899 40.5847 99.489 43.5851 99.489 47.2719C99.489 50.9587 96.4899 53.9578 92.8031 53.9578ZM92.8031 41.561C89.6545 41.561 87.0922 44.1233 87.0922 47.2732C87.0922 50.4218 89.6545 52.9841 92.8031 52.9841C95.9517 52.9841 98.514 50.4218 98.514 47.2732C98.514 44.1233 95.953 41.561 92.8031 41.561Z" fill="#002950"/>
<path d="M92.8032 43.6711C91.8481 43.6711 90.9322 44.0505 90.2569 44.7259C89.5815 45.4012 89.2021 46.3171 89.2021 47.2721C89.2021 48.2272 89.5815 49.1431 90.2569 49.8184C90.9322 50.4938 91.8481 50.8731 92.8032 50.8731C93.7582 50.8731 94.6741 50.4938 95.3494 49.8184C96.0248 49.1431 96.4041 48.2272 96.4041 47.2721C96.4041 46.3171 96.0248 45.4012 95.3494 44.7259C94.6741 44.0505 93.7582 43.6711 92.8032 43.6711Z" fill="#FDFCEE"/>
<path d="M92.8032 51.198C90.6387 51.198 88.8772 49.4378 88.8772 47.272C88.8772 45.1062 90.6387 43.3447 92.8032 43.3447C94.9677 43.3447 96.7292 45.1062 96.7292 47.272C96.7292 49.4378 94.9677 51.198 92.8032 51.198ZM92.8032 43.996C90.9962 43.996 89.5272 45.4663 89.5272 47.2733C89.5272 49.0803 90.9962 50.5493 92.8032 50.5493C94.6102 50.5493 96.0792 49.0803 96.0792 47.2733C96.0792 45.4663 94.6102 43.996 92.8032 43.996Z" fill="#002950"/>
<path d="M68.5594 46.9405L67.5129 45.6886L66.9435 44.5836C66.8967 44.4926 66.8096 44.4289 66.7095 44.412C66.6081 44.3886 66.5054 44.4237 66.4313 44.4952L65.8996 44.9957C65.8346 45.0568 65.7969 45.1413 65.7969 45.2323V46.5986L64.8453 46.3295C64.6867 46.2814 64.5242 46.362 64.4592 46.5115L64.0614 47.4163C64.0172 47.5164 64.0276 47.6334 64.0874 47.7244L64.4839 48.3289C64.5333 48.4056 64.6126 48.4576 64.7023 48.4719C64.7205 48.4745 64.7374 48.4758 64.7556 48.4758C64.8271 48.4758 64.8973 48.4511 64.9558 48.4069L65.7956 47.7517V48.1508C65.7956 48.2496 65.8411 48.3432 65.9178 48.4043C65.9958 48.4667 66.0946 48.4914 66.1934 48.4667L67.9419 48.0637C68.0186 48.0468 68.0849 48.0026 68.1317 47.9389L68.5711 47.337C68.6595 47.2187 68.6543 47.0549 68.5594 46.9405Z" fill="#DCE751"/>
</svg>
