<svg width="131" height="131" viewBox="0 0 131 131" fill="none" xmlns="http://www.w3.org/2000/svg">
<path d="M115.927 73.0862C116.319 72.2819 116.665 71.4369 116.965 70.5514C120.4 60.4133 115.206 48.2709 104.267 45.3404C103.084 30.4876 92.6473 20.2998 80.8613 18.5614C67.3709 16.5715 55.011 25.1415 50.899 38.7642C45.9419 37.0088 41.1119 37.2224 36.561 39.8817C34.4964 40.8366 32.6074 42.2462 30.9123 44.0999C28.4233 46.8207 26.8067 50.2569 26.1478 53.879C25.1719 54.0323 24.2129 54.1869 23.309 54.5104C18.0389 56.4008 14.7128 60.2915 13.8011 66.1511C13.2325 69.7994 14.3788 73.4399 15.0181 74.9111C17.5424 80.7222 23.3968 84.0182 29.3442 83.1457C29.6403 83.1025 30.07 83.2361 30.3254 83.4496C30.6398 92.7388 35.1501 100.954 41.9163 105.646C52.7723 113.176 66.7395 110.856 75.5505 100.531C79.326 104.393 83.8206 106.269 89.0986 105.587C94.3464 104.91 98.4218 102.014 101.396 97.3055C102.768 97.6749 104.072 98.2081 105.419 98.3548C110.691 98.9312 114.974 96.8339 118.115 92.093C119.318 90.2787 120.455 87.9259 120.455 83.8033C120.455 79.5524 118.767 75.6813 115.927 73.0862Z" fill="#3DB4DA" fill-opacity="0.3"/>
<path d="M104.33 84.5054C104.33 84.5054 119.582 84.5054 119.675 84.5054C123.198 84.5054 126.052 81.6496 126.052 78.127C126.052 75.0538 123.879 72.4901 120.985 71.8849C121.018 71.6163 121.042 71.3439 121.042 71.0661C121.042 67.4178 118.085 64.4611 114.437 64.4611C112.283 64.4611 110.376 65.4973 109.17 67.0916C108.862 63.0306 105.235 59.8984 100.991 60.4171C97.8873 60.797 95.321 63.1957 94.7499 66.2689C94.5665 67.254 94.5861 68.2116 94.7682 69.109C93.9364 68.213 92.7521 67.6483 91.4329 67.6483C89.0186 67.6483 87.0484 69.5282 86.8925 71.9032C85.796 71.6609 84.6039 71.6766 83.3476 72.1482C80.9477 73.0495 79.2381 75.3092 79.1373 77.8716C78.9958 81.5108 81.9027 84.5054 85.5091 84.5054C85.7829 84.5054 86.7458 84.5054 86.9685 84.5054H100.211" fill="#FDFCEF"/>
<path d="M119.675 85.1591H104.33C103.968 85.1591 103.675 84.8657 103.675 84.5041C103.675 84.1426 103.968 83.8491 104.33 83.8491H119.675C122.83 83.8491 125.397 81.2815 125.397 78.1271C125.397 75.4324 123.485 73.0783 120.85 72.5268C120.517 72.4574 120.292 72.143 120.334 71.805C120.363 71.5626 120.385 71.3177 120.385 71.0662C120.385 67.7846 117.717 65.1161 114.435 65.1161C112.558 65.1161 110.829 65.9807 109.692 67.4885C109.527 67.706 109.241 67.7977 108.984 67.7217C108.722 67.6444 108.536 67.4152 108.515 67.144C108.379 65.3467 107.5 63.6607 106.102 62.5145C104.69 61.3577 102.908 60.8442 101.068 61.0682C98.2448 61.4141 95.9091 63.6031 95.3904 66.3908C95.2292 67.2593 95.2358 68.1318 95.4087 68.9806C95.4676 69.2688 95.3275 69.5596 95.0655 69.6933C94.8074 69.8295 94.4864 69.7732 94.286 69.557C93.538 68.7514 92.5228 68.3073 91.4302 68.3073C89.384 68.3073 87.6771 69.9068 87.5435 71.9478C87.5304 72.139 87.436 72.3146 87.2841 72.4286C87.1295 72.5451 86.9304 72.5831 86.7496 72.5451C85.6479 72.3015 84.613 72.3748 83.5755 72.7639C81.3996 73.58 79.8786 75.6446 79.7896 77.8991C79.728 79.4724 80.2939 80.9632 81.3825 82.095C82.4711 83.2269 83.937 83.8518 85.5077 83.8518H100.21C100.571 83.8518 100.865 84.1452 100.865 84.5068C100.865 84.8683 100.571 85.1618 100.21 85.1618H85.5103C83.5794 85.1618 81.7781 84.3954 80.4406 83.0042C79.1031 81.613 78.4062 79.7816 78.4822 77.848C78.5922 75.0734 80.455 72.5373 83.117 71.5391C84.161 71.1461 85.2418 71.0177 86.3356 71.1474C86.8282 68.771 88.9412 66.9973 91.4328 66.9973C92.3249 66.9973 93.1974 67.2305 93.9664 67.6601C93.9651 67.1584 94.0122 66.6554 94.1052 66.1537C94.7275 62.8092 97.5256 60.184 100.911 59.77C103.1 59.5002 105.243 60.1172 106.934 61.5018C108.243 62.5747 109.173 64.0459 109.593 65.6663C110.914 64.4729 112.618 63.8087 114.436 63.8087C118.44 63.8087 121.696 67.0654 121.696 71.0688C121.696 71.1775 121.694 71.2849 121.687 71.391C124.628 72.2714 126.707 75.0171 126.707 78.131C126.707 82.0046 123.553 85.1591 119.675 85.1591Z" fill="#472B29"/>
<path d="M100.634 70.4557C98.2749 70.3011 96.2444 71.9308 96.099 74.0949C96.0806 74.3634 96.0924 74.628 96.1317 74.8861C95.6772 74.3726 95.0025 74.0228 94.2296 73.973C92.8148 73.88 91.5926 74.8154 91.4144 76.0861C91.1563 76.0153 90.8891 75.9682 90.6101 75.9498C88.5455 75.8149 86.7692 77.2402 86.6421 79.1344" fill="#FDFCEF"/>
<path d="M86.642 79.4606C86.6341 79.4606 86.6276 79.4606 86.6197 79.4593C86.439 79.4475 86.3027 79.2916 86.3158 79.1108C86.4534 77.041 88.366 75.4861 90.6323 75.6223C90.8104 75.6341 90.9873 75.6564 91.1628 75.6917C91.5204 74.4289 92.8029 73.546 94.2505 73.6455C94.7968 73.6809 95.3208 73.8564 95.7648 74.1459C95.7662 74.1211 95.7675 74.0975 95.7701 74.0726C95.926 71.7316 98.0927 69.9448 100.655 70.1282C100.836 70.14 100.972 70.2959 100.959 70.4766C100.949 70.6561 100.823 70.8212 100.611 70.7806C98.4372 70.6587 96.5561 72.1351 96.4225 74.1158C96.4068 74.3529 96.4172 74.5953 96.4526 74.8363C96.4749 74.9791 96.3989 75.1206 96.2666 75.1822C96.133 75.2411 95.9784 75.211 95.8827 75.1009C95.4714 74.6346 94.8596 74.3411 94.2059 74.2979C92.9667 74.2167 91.8912 75.0223 91.7366 76.1293C91.7222 76.2223 91.6698 76.3061 91.5925 76.3585C91.5152 76.4109 91.417 76.424 91.3253 76.4005C91.0816 76.3336 90.834 76.2917 90.5864 76.2734C88.7053 76.1594 87.0822 77.4432 86.9669 79.1528C86.9577 79.327 86.8136 79.4606 86.642 79.4606Z" fill="#472B29"/>
<path d="M122.257 72.633C120.041 71.5877 117.477 72.3278 116.531 74.2863C116.413 74.5299 116.327 74.7801 116.269 75.0343" fill="#FDFCEF"/>
<path d="M116.27 75.3618C116.247 75.3618 116.223 75.3592 116.198 75.354C116.021 75.3147 115.91 75.1378 115.951 74.9623C116.015 74.6819 116.111 74.4068 116.236 74.1435C117.259 72.0292 120.022 71.2157 122.397 72.3357C122.561 72.4143 122.632 72.6082 122.554 72.7719C122.476 72.937 122.278 73.0025 122.118 72.9291C120.068 71.9597 117.693 72.6331 116.826 74.4278C116.722 74.6466 116.642 74.8745 116.59 75.1064C116.555 75.2583 116.42 75.3618 116.27 75.3618Z" fill="#472B29"/>
<path d="M24.1669 62.6978H11.0813C10.7197 62.6978 10.4263 62.4043 10.4263 62.0428C10.4263 61.6812 10.7197 61.3878 11.0813 61.3878H24.1669C24.5284 61.3878 24.8219 61.6812 24.8219 62.0428C24.8219 62.4043 24.5284 62.6978 24.1669 62.6978ZM27.9253 62.6978H26.0402C25.6786 62.6978 25.3852 62.4043 25.3852 62.0428C25.3852 61.6812 25.6786 61.3878 26.0402 61.3878H27.9253C28.2868 61.3878 28.5802 61.6812 28.5802 62.0428C28.5802 62.4043 28.2868 62.6978 27.9253 62.6978ZM33.215 62.6978H29.8929C29.5313 62.6978 29.2379 62.4043 29.2379 62.0428C29.2379 61.6812 29.5313 61.3878 29.8929 61.3878H33.215C33.5766 61.3878 33.87 61.6812 33.87 62.0428C33.87 62.4043 33.5766 62.6978 33.215 62.6978ZM33.215 65.1304H20.6692C20.3076 65.1304 20.0142 64.837 20.0142 64.4754C20.0142 64.1139 20.3076 63.8204 20.6692 63.8204H33.215C33.5766 63.8204 33.87 64.1139 33.87 64.4754C33.87 64.837 33.5766 65.1304 33.215 65.1304ZM18.4094 65.1304H17.6535C17.292 65.1304 16.9985 64.837 16.9985 64.4754C16.9985 64.1139 17.292 63.8204 17.6535 63.8204H18.4094C18.771 63.8204 19.0644 64.1139 19.0644 64.4754C19.0644 64.837 18.7723 65.1304 18.4094 65.1304ZM15.3086 65.1304H13.4091C13.0476 65.1304 12.7541 64.837 12.7541 64.4754C12.7541 64.1139 13.0476 63.8204 13.4091 63.8204H15.3086C15.6702 63.8204 15.9636 64.1139 15.9636 64.4754C15.9636 64.837 15.6715 65.1304 15.3086 65.1304ZM27.2283 60.2651H20.6692C20.3076 60.2651 20.0142 59.9717 20.0142 59.6101C20.0142 59.2486 20.3076 58.9551 20.6692 58.9551H27.2283C27.5899 58.9551 27.8833 59.2486 27.8833 59.6101C27.8833 59.9717 27.5899 60.2651 27.2283 60.2651ZM27.2283 57.8311H25.5882C25.2267 57.8311 24.9332 57.5377 24.9332 57.1761C24.9332 56.8146 25.2267 56.5211 25.5882 56.5211H27.2283C27.5899 56.5211 27.8833 56.8146 27.8833 57.1761C27.8833 57.5377 27.5899 57.8311 27.2283 57.8311ZM22.9643 67.5644H20.6692C20.3076 67.5644 20.0142 67.271 20.0142 66.9094C20.0142 66.5479 20.3076 66.2544 20.6692 66.2544H22.9643C23.3258 66.2544 23.6193 66.5479 23.6193 66.9094C23.6193 67.271 23.3258 67.5644 22.9643 67.5644ZM93.5445 28.4164H80.4589C80.0973 28.4164 79.8039 28.123 79.8039 27.7614C79.8039 27.3998 80.0973 27.1064 80.4589 27.1064H93.5445C93.906 27.1064 94.1995 27.3998 94.1995 27.7614C94.1995 28.123 93.906 28.4164 93.5445 28.4164ZM97.3029 28.4164H95.4165C95.0549 28.4164 94.7615 28.123 94.7615 27.7614C94.7615 27.3998 95.0549 27.1064 95.4165 27.1064H97.3029C97.6644 27.1064 97.9579 27.3998 97.9579 27.7614C97.9579 28.123 97.6644 28.4164 97.3029 28.4164ZM102.593 28.4164H99.2705C98.9089 28.4164 98.6155 28.123 98.6155 27.7614C98.6155 27.3998 98.9089 27.1064 99.2705 27.1064H102.593C102.954 27.1064 103.248 27.3998 103.248 27.7614C103.248 28.123 102.954 28.4164 102.593 28.4164ZM99.9504 23.5497H87.4032C87.0416 23.5497 86.7482 23.2563 86.7482 22.8947C86.7482 22.5332 87.0416 22.2397 87.4032 22.2397H99.9491C100.311 22.2397 100.604 22.5332 100.604 22.8947C100.604 23.2563 100.312 23.5497 99.9504 23.5497ZM85.1447 23.5497H84.3889C84.0273 23.5497 83.7339 23.2563 83.7339 22.8947C83.7339 22.5332 84.0273 22.2397 84.3889 22.2397H85.1447C85.5063 22.2397 85.7997 22.5332 85.7997 22.8947C85.7997 23.2563 85.5063 23.5497 85.1447 23.5497ZM82.044 23.5497H80.1445C79.7829 23.5497 79.4895 23.2563 79.4895 22.8947C79.4895 22.5332 79.7829 22.2397 80.1445 22.2397H82.044C82.4055 22.2397 82.699 22.5332 82.699 22.8947C82.699 23.2563 82.4055 23.5497 82.044 23.5497ZM96.6059 25.9837H90.0468C89.6852 25.9837 89.3918 25.6903 89.3918 25.3287C89.3918 24.9672 89.6852 24.6737 90.0468 24.6737H96.6059C96.9675 24.6737 97.2609 24.9672 97.2609 25.3287C97.2609 25.6903 96.9675 25.9837 96.6059 25.9837Z" fill="white"/>
<path d="M96.6057 23.5497H94.9656C94.604 23.5497 94.3106 23.2563 94.3106 22.8947C94.3106 22.5332 94.604 22.2397 94.9656 22.2397H96.6057C96.9673 22.2397 97.2607 22.5332 97.2607 22.8947C97.2607 23.2563 96.9673 23.5497 96.6057 23.5497ZM88.1484 25.9837H85.8532C85.4917 25.9837 85.1982 25.6903 85.1982 25.3287C85.1982 24.9672 85.4917 24.6737 85.8532 24.6737H88.1484C88.5099 24.6737 88.8034 24.9672 88.8034 25.3287C88.8034 25.6903 88.5099 25.9837 88.1484 25.9837Z" fill="white"/>
<path d="M44.8361 92.8567C47.2937 92.8567 49.4237 92.8567 49.4552 92.8567C52.2075 92.8567 54.4397 90.6729 54.4397 87.9782C54.4397 85.6281 52.7406 83.6657 50.4796 83.2033C50.5058 82.9976 50.5228 82.7893 50.5228 82.5771C50.5228 79.7868 48.212 77.5244 45.3601 77.5244C43.6768 77.5244 42.186 78.317 41.2441 79.5366C41.003 76.4306 38.1682 74.0346 34.8513 74.4315C32.4265 74.7223 30.4196 76.5563 29.9742 78.9078C29.8314 79.6623 29.8458 80.3933 29.9886 81.0811C29.3388 80.3959 28.4126 79.9636 27.3817 79.9636C25.4953 79.9636 23.9547 81.4007 23.8329 83.2177C22.9761 83.0317 22.0447 83.0448 21.0622 83.405C19.1863 84.0941 17.8501 85.8233 17.7715 87.783C17.6602 90.5668 19.933 92.8567 22.7521 92.8567C22.9657 92.8567 23.7189 92.8567 23.8918 92.8567H34.2421H44.8361ZM36.3853 92.8567H36.8543H36.3853Z" fill="#FDFCEF"/>
<path d="M49.4553 93.5103H44.8375C44.476 93.5103 44.1825 93.2169 44.1825 92.8553C44.1825 92.4938 44.476 92.2003 44.8375 92.2003H49.4553C51.8421 92.2003 53.7848 90.3061 53.7848 87.9769C53.7848 85.9883 52.3399 84.2512 50.35 83.8451C50.0146 83.7757 49.788 83.4613 49.8312 83.122C49.8535 82.9425 49.8692 82.7618 49.8692 82.5757C49.8692 80.1496 47.8479 78.1781 45.3628 78.1781C43.9402 78.1781 42.6276 78.8187 41.7643 79.9361C41.5979 80.1509 41.3202 80.2374 41.0582 80.164C40.7988 80.0854 40.6141 79.8575 40.5944 79.5876C40.4909 78.258 39.8569 77.0528 38.8089 76.1934C37.7295 75.3065 36.3566 74.9109 34.9326 75.0812C32.7855 75.338 31.0131 76.9624 30.6201 79.0309C30.497 79.6728 30.5022 80.3173 30.6319 80.9474C30.6922 81.2343 30.5533 81.5251 30.2939 81.6614C30.0372 81.7963 29.7188 81.7439 29.5145 81.5304C28.9564 80.9422 28.2005 80.6186 27.3844 80.6186C25.8596 80.6186 24.5876 81.7806 24.4893 83.2622C24.4762 83.4534 24.3819 83.6264 24.2299 83.7416C24.0767 83.8556 23.8854 83.9015 23.6981 83.8582C22.8662 83.6788 22.0789 83.7299 21.2929 84.0207C19.6462 84.6246 18.4961 86.1468 18.4306 87.8092C18.3847 88.9502 18.7987 90.0362 19.5965 90.8667C20.4244 91.7274 21.5457 92.2029 22.7562 92.2029H34.2462C34.6077 92.2029 34.9012 92.4964 34.9012 92.8579C34.9012 93.2195 34.6077 93.5129 34.2462 93.5129H22.7562C21.2091 93.5129 19.713 92.8802 18.6519 91.7746C17.6039 90.686 17.0616 89.2594 17.1206 87.7594C17.207 85.573 18.703 83.5779 20.8396 82.7919C21.6361 82.4998 22.4575 82.3963 23.292 82.4736C23.7426 80.6527 25.4181 79.3112 27.3844 79.3112C28.0263 79.3112 28.6564 79.4579 29.225 79.7304C29.2367 79.4173 29.2721 79.1029 29.3324 78.7872C29.8302 76.1659 32.069 74.1079 34.7754 73.7843C36.557 73.5656 38.2797 74.0673 39.6381 75.1821C40.5971 75.9694 41.2979 77.0226 41.6516 78.1859C42.6852 77.3397 43.9834 76.8707 45.3628 76.8707C48.5697 76.8707 51.1792 79.4317 51.1792 82.5784C51.1792 82.6216 51.1779 82.6661 51.1779 82.7107C53.4796 83.4351 55.0948 85.5665 55.0948 87.9795C55.0935 91.0292 52.5652 93.5103 49.4553 93.5103ZM36.8544 93.5103H36.3854C36.0239 93.5103 35.7304 93.2169 35.7304 92.8553C35.7304 92.4938 36.0239 92.2003 36.3854 92.2003H36.8544C37.216 92.2003 37.5094 92.4938 37.5094 92.8553C37.5094 93.2169 37.2173 93.5103 36.8544 93.5103Z" fill="#472B29"/>
<path d="M47.2269 85.9387C47.2033 85.9387 47.1797 85.9361 47.1548 85.9308C46.978 85.8915 46.8666 85.716 46.9072 85.5391C46.9557 85.323 47.0304 85.1134 47.1273 84.9143C47.9185 83.3161 50.0997 82.7239 51.9848 83.6003C52.1498 83.6763 52.2219 83.8702 52.1446 84.0339C52.0686 84.199 51.8708 84.2697 51.711 84.1938C50.1416 83.4706 48.3495 83.92 47.7155 85.2038C47.6395 85.3557 47.5832 85.5156 47.5465 85.6819C47.5124 85.8352 47.3775 85.9387 47.2269 85.9387ZM40.4974 93.5105H39.0525C38.6909 93.5105 38.3975 93.2171 38.3975 92.8555C38.3975 92.4939 38.6909 92.2005 39.0525 92.2005H40.4974C40.8589 92.2005 41.1524 92.4939 41.1524 92.8555C41.1524 93.2171 40.8589 93.5105 40.4974 93.5105Z" fill="#472B29"/>
<path d="M98.4204 80.5059V45.4385C98.4204 42.4478 96.4227 40.0007 93.9808 40.0007H43.6598C41.218 40.0007 39.2202 42.4478 39.2202 45.4385V80.5059" fill="#FDFCEE"/>
<path d="M39.2202 81.4243C38.7133 81.4243 38.3032 81.0143 38.3032 80.5073V45.4386C38.3032 41.9344 40.7058 39.0825 43.6598 39.0825H93.9795C96.9336 39.0825 99.3374 41.9344 99.3374 45.4386V48.4896C99.3374 48.9966 98.9274 49.4066 98.4204 49.4066C97.9135 49.4066 97.5034 48.9966 97.5034 48.4896V45.4386C97.5034 42.9457 95.9236 40.9178 93.9808 40.9178H43.6598C41.7184 40.9178 40.1385 42.9457 40.1385 45.4386V80.5073C40.1372 81.013 39.7272 81.4243 39.2202 81.4243Z" fill="#002950"/>
<path d="M95.3038 49.0596V77.3909H43.1147V73.7845V62.4517V45.4531H94.1851H95.3038V49.0596Z" fill="#C0E5E4"/>
<path d="M36.1035 80.5061V82.8431C36.1035 84.985 38.3122 86.7378 41.0108 86.7378H96.6281C99.3267 86.7378 101.535 84.985 101.535 82.8431V80.5061H36.1035Z" fill="#3DB4DA"/>
<path d="M96.6281 87.6559H41.0108C37.8 87.6559 35.1865 85.4971 35.1865 82.843V80.5073C35.1865 80.0003 35.5966 79.5903 36.1035 79.5903H101.535C102.042 79.5903 102.452 80.0003 102.452 80.5073V82.843C102.454 85.4957 99.8403 87.6559 96.6281 87.6559ZM37.0205 81.4243V82.843C37.0205 84.4569 38.848 85.8206 41.0108 85.8206H96.6281C98.791 85.8206 100.618 84.4569 100.618 82.843V81.4243H37.0205ZM94.9147 77.4589H42.7256C42.4727 77.4589 42.2671 77.2545 42.2671 77.0004V73.8839C42.2671 73.6311 42.4714 73.4254 42.7256 73.4254C42.9797 73.4254 43.1841 73.6298 43.1841 73.8839V76.5419H94.4575V53.7086C94.4575 53.4558 94.6618 53.2501 94.916 53.2501C95.1701 53.2501 95.3745 53.4545 95.3745 53.7086V77.0017C95.3718 77.2545 95.1675 77.4589 94.9147 77.4589ZM42.7256 66.5532C42.4727 66.5532 42.2671 66.3488 42.2671 66.0946V45.0639C42.2671 44.8111 42.4714 44.6054 42.7256 44.6054H94.9147C95.1675 44.6054 95.3732 44.8098 95.3732 45.0639C95.3732 45.3181 95.1688 45.5224 94.9147 45.5224H43.1841V66.096C43.1841 66.3488 42.9784 66.5532 42.7256 66.5532ZM42.7256 72.0054C42.4727 72.0054 42.2671 71.801 42.2671 71.5469V68.4317C42.2671 68.1789 42.4714 67.9732 42.7256 67.9732C42.9797 67.9732 43.1841 68.1775 43.1841 68.4317V71.5469C43.1841 71.801 42.9784 72.0054 42.7256 72.0054ZM69.0644 43.1173H67.5068C67.292 43.1173 67.1178 42.9417 67.1178 42.7282C67.1178 42.5133 67.2933 42.3391 67.5068 42.3391H69.0644C69.2793 42.3391 69.4535 42.5147 69.4535 42.7282C69.4535 42.9417 69.278 43.1173 69.0644 43.1173Z" fill="#002950"/>
<path d="M71.4013 84.4007H65.9491C65.7343 84.4007 65.5601 84.2252 65.5601 84.0116C65.5601 83.7968 65.7356 83.6226 65.9491 83.6226H71.4013C71.6162 83.6226 71.7904 83.7981 71.7904 84.0116C71.7904 84.2252 71.6149 84.4007 71.4013 84.4007Z" fill="#472B29"/>
<path d="M80.4417 49.9792C81.2801 49.767 82.1394 50.2792 82.2626 50.7665L85.6633 64.2098C85.9646 65.3992 85.4511 66.2586 84.614 66.4708L57.8376 73.2435C57.3477 73.368 56.8512 73.2435 56.4805 72.9527" fill="#45AE82"/>
<path d="M57.4516 73.6194C57.0324 73.6194 56.6211 73.4793 56.2778 73.2107C56.1364 73.0981 56.1102 72.8937 56.2215 72.7496C56.3329 72.6081 56.5372 72.5832 56.6826 72.6933C56.9905 72.9356 57.3822 73.0208 57.7568 72.9251L84.5319 66.1524C85.2537 65.969 85.5812 65.221 85.3454 64.2896L81.9447 50.8464C81.9211 50.7547 81.8124 50.5988 81.5831 50.4612C81.2622 50.27 80.8639 50.2084 80.522 50.2949C80.3465 50.3433 80.167 50.2333 80.1238 50.0578C80.0792 49.8822 80.1853 49.7041 80.3609 49.6595C80.8744 49.5298 81.4442 49.6163 81.9172 49.8979C82.2643 50.1036 82.504 50.3918 82.5787 50.6853L85.9795 64.1285C86.3057 65.4188 85.7777 66.5114 84.693 66.7865L57.918 73.5592C57.7634 73.5998 57.6062 73.6194 57.4516 73.6194Z" fill="#002950"/>
<path d="M81.5278 65.2695L56.2946 71.6518C55.0422 71.9688 53.7571 71.2025 53.4401 69.9501L50.448 58.1221C50.131 56.8697 50.8974 55.5846 52.1497 55.2676L77.3829 48.8853C78.6353 48.5683 79.9204 49.3346 80.2374 50.587L83.2295 62.415C83.5465 63.6686 82.7801 64.9524 81.5278 65.2695Z" fill="#95D8B8"/>
<path d="M55.7182 72.1508C55.2243 72.1508 54.7357 72.0159 54.2981 71.7552C53.6602 71.3753 53.2082 70.7701 53.0274 70.0535L50.0354 58.2282C49.8546 57.5116 49.9633 56.7649 50.3445 56.1269C50.7258 55.489 51.3297 55.0383 52.0462 54.8562L77.2781 48.4739C78.7676 48.0966 80.2741 49.0005 80.6501 50.4834L83.6421 62.3114C83.8229 63.028 83.7129 63.7734 83.333 64.4127C82.9517 65.0506 82.3478 65.5013 81.6326 65.6834L56.3981 72.067C56.174 72.122 55.9448 72.1508 55.7182 72.1508ZM77.958 49.2403C77.8021 49.2403 77.6449 49.2586 77.4877 49.2992L52.2545 55.6815C51.758 55.806 51.3401 56.1191 51.0768 56.5618C50.8122 57.0046 50.7362 57.5221 50.862 58.0172L53.854 69.8439C53.9785 70.3404 54.2916 70.7583 54.7344 71.0229C55.1784 71.2889 55.6933 71.3635 56.1898 71.2378L81.423 64.8541H81.4243C81.9195 64.7297 82.3374 64.4166 82.6007 63.9738C82.864 63.531 82.9413 63.0149 82.8155 62.5184L79.8235 50.6917C79.6034 49.8219 78.8187 49.2403 77.958 49.2403Z" fill="#002950"/>
<path d="M70.7782 53.1322L54.2578 57.3111C54.5158 58.3355 53.9538 59.3612 53.0015 59.6023L54.9835 67.4361C55.9372 67.195 56.9197 67.8304 57.1777 68.8548L79.4189 63.2297C79.1595 62.2052 79.7228 61.1795 80.6752 60.9385L78.6932 53.1047C77.7408 53.3457 76.7583 52.7104 76.4989 51.6873L74.5012 52.1929" fill="#45AE82"/>
<path d="M57.1778 69.0514C57.1437 69.0514 57.107 69.0409 57.0769 69.0239C57.0324 68.9964 56.9996 68.9532 56.9878 68.9034C56.8752 68.4554 56.6079 68.0768 56.2359 67.837C55.8678 67.596 55.4381 67.5239 55.0333 67.6274C54.9193 67.6523 54.8211 67.5894 54.7936 67.486L52.8115 59.6535C52.784 59.5474 52.8482 59.4412 52.953 59.4137C53.7993 59.1989 54.2984 58.278 54.0678 57.3623C54.0416 57.2562 54.1045 57.1501 54.2093 57.1225L70.7284 52.945C70.8372 52.9174 70.9406 52.9829 70.9682 53.0864C70.9957 53.1925 70.9315 53.2987 70.8267 53.3262L54.4884 57.4579C54.6482 58.4509 54.1215 59.4098 53.2386 59.736L55.1276 67.2082C55.5901 67.144 56.0446 67.2475 56.4481 67.5082C56.8503 67.7676 57.1516 68.158 57.3114 68.6204L79.1884 63.0857C79.1072 62.58 79.2015 62.0599 79.457 61.6329C79.6875 61.2438 80.0307 60.9556 80.4381 60.8076L78.5491 53.3353C77.6085 53.4637 76.6955 52.8742 76.364 51.9245L74.5497 52.3843C74.4331 52.4092 74.3375 52.345 74.31 52.2428C74.2824 52.1367 74.3466 52.0306 74.4514 52.0031L76.4479 51.4974C76.5566 51.4673 76.6601 51.5354 76.6876 51.6389C76.9195 52.5559 77.8037 53.1336 78.6434 52.9161C78.7535 52.8886 78.8544 52.9541 78.8832 53.0576L80.8652 60.8901C80.8783 60.9412 80.8704 60.9949 80.8429 61.0394C80.8154 61.084 80.7722 61.1167 80.7224 61.1285C80.3347 61.2255 80.0045 61.477 79.7923 61.832C79.5578 62.2263 79.491 62.7176 79.6076 63.18C79.6207 63.2311 79.6128 63.2848 79.5853 63.3293C79.5578 63.3739 79.5146 63.4066 79.4648 63.4184L57.2223 69.0449C57.2105 69.0488 57.1948 69.0514 57.1778 69.0514Z" fill="#002950"/>
<path d="M71.8955 52.8494L71.5234 52.9437L71.8955 52.8494Z" fill="#88AE45"/>
<path d="M71.5218 53.1401C71.4341 53.1401 71.3542 53.0798 71.3306 52.9907C71.3031 52.8859 71.3673 52.7798 71.4734 52.7523L71.8454 52.6593C71.945 52.6305 72.0563 52.6973 72.0838 52.8021C72.1114 52.9069 72.0472 53.013 71.941 53.0405L71.569 53.1335C71.5546 53.1375 71.5376 53.1401 71.5218 53.1401Z" fill="#002950"/>
<path d="M65.9437 56.7339C65.0057 56.9711 64.2003 57.5713 63.7047 58.4024C63.2091 59.2334 63.064 60.2273 63.3013 61.1654C63.5385 62.1035 64.1387 62.9089 64.9698 63.4044C65.8008 63.9 66.7947 64.0451 67.7328 63.8079C68.6709 63.5706 69.4763 62.9704 69.9718 62.1394C70.4674 61.3083 70.6125 60.3144 70.3752 59.3763C70.138 58.4383 69.5378 57.6329 68.7067 57.1373C67.8757 56.6418 66.8818 56.4966 65.9437 56.7339Z" fill="#95D8B8"/>
<path d="M66.8323 64.1166C66.1472 64.1166 65.4726 63.9319 64.8686 63.5716C63.987 63.0463 63.3634 62.2079 63.1106 61.2123C62.5919 59.1569 63.8403 57.0609 65.8944 56.5422C66.8926 56.2907 67.9262 56.4413 68.8078 56.9666C69.6908 57.4919 70.3143 58.3303 70.5671 59.3259C71.0859 61.3813 69.8362 63.4773 67.7821 63.9974C67.4677 64.0773 67.148 64.1166 66.8323 64.1166ZM66.8454 56.816C66.5612 56.816 66.2743 56.8513 65.9926 56.9234C65.0979 57.15 64.3459 57.7107 63.8743 58.5019C63.4027 59.2932 63.2665 60.222 63.4931 61.1154C63.9595 62.9625 65.8433 64.0799 67.6851 63.6162C69.5309 63.1498 70.6536 61.2673 70.1859 59.4229C69.9593 58.5281 69.3986 57.7762 68.6074 57.3046C68.0664 56.981 67.4611 56.816 66.8454 56.816Z" fill="#002950"/>
<path d="M59.6201 60.7093C59.3236 60.7843 59.0692 60.9739 58.9126 61.2365C58.756 61.4991 58.7101 61.8131 58.7851 62.1096C58.8601 62.406 59.0497 62.6605 59.3123 62.817C59.5749 62.9736 59.889 63.0195 60.1854 62.9445C60.4818 62.8695 60.7363 62.6799 60.8928 62.4173C61.0494 62.1547 61.0953 61.8407 61.0203 61.5442C60.9454 61.2478 60.7557 60.9934 60.4931 60.8368C60.2305 60.6802 59.9165 60.6343 59.6201 60.7093Z" fill="#95D8B8"/>
<path d="M59.9026 63.1735C59.3 63.1735 58.7498 62.7661 58.5952 62.157C58.5074 61.8072 58.5598 61.4443 58.7445 61.1352C58.9292 60.826 59.2227 60.6072 59.5724 60.5182C60.2995 60.3321 61.0278 60.7736 61.2112 61.4941C61.299 61.8439 61.2466 62.2067 61.0619 62.5159C60.8772 62.8251 60.5838 63.0438 60.234 63.1329C60.1226 63.1604 60.0113 63.1735 59.9026 63.1735ZM59.9039 60.8692C59.8253 60.8692 59.748 60.8784 59.6694 60.8981C59.4218 60.9609 59.2122 61.1155 59.0825 61.3356C58.9502 61.5544 58.9135 61.8111 58.9764 62.0587C59.1048 62.5709 59.6327 62.884 60.137 62.7504C60.3846 62.6875 60.5942 62.5329 60.7239 62.3129C60.8562 62.0941 60.8929 61.8373 60.83 61.5897C60.7213 61.1587 60.3309 60.8692 59.9039 60.8692Z" fill="#002950"/>
<path d="M73.3974 57.2249C73.101 57.2999 72.8465 57.4895 72.6899 57.7521C72.5333 58.0147 72.4875 58.3288 72.5624 58.6252C72.6374 58.9216 72.827 59.1761 73.0896 59.3327C73.3522 59.4892 73.6663 59.5351 73.9627 59.4601C74.2591 59.3852 74.5136 59.1955 74.6702 58.9329C74.8268 58.6703 74.8726 58.3563 74.7977 58.0599C74.7227 57.7635 74.5331 57.509 74.2705 57.3524C74.0079 57.1958 73.6938 57.15 73.3974 57.2249Z" fill="#95D8B8"/>
<path d="M73.6811 59.6889C73.0785 59.6889 72.5283 59.2814 72.3737 58.6723C72.1903 57.9505 72.6292 57.2169 73.3497 57.0335C74.0793 56.8462 74.8051 57.2889 74.9885 58.0094C75.1719 58.7312 74.733 59.4648 74.0125 59.6482C73.9012 59.6758 73.7911 59.6889 73.6811 59.6889ZM73.6811 57.3846C73.6025 57.3846 73.5252 57.3937 73.4466 57.4134C72.9344 57.5431 72.6252 58.0631 72.7549 58.574C72.8846 59.0863 73.4099 59.4007 73.9156 59.2657C74.4278 59.136 74.737 58.616 74.6073 58.1051C74.4985 57.6741 74.1082 57.3846 73.6811 57.3846Z" fill="#002950"/>
<path d="M89.3105 85.9307V89.8305C89.3105 90.9021 94.489 91.772 100.877 91.772C107.264 91.772 112.443 90.9034 112.443 89.8305V85.9307H89.3105Z" fill="#FFAD00"/>
<path d="M100.878 92.262C99.6439 92.262 88.8193 92.1939 88.8193 89.8307V85.9295C88.8193 85.6583 89.0394 85.4382 89.3106 85.4382H112.444C112.715 85.4382 112.935 85.6583 112.935 85.9295V89.8307C112.935 92.1952 102.112 92.262 100.878 92.262ZM89.8005 86.4207V89.8307C90.0782 90.2839 93.7344 91.2795 100.877 91.2795C108.017 91.2795 111.674 90.2826 111.963 89.7743L111.953 86.4207H89.8005Z" fill="#002950"/>
<path d="M100.877 83.9973C97.809 83.9973 94.8672 84.2019 92.6981 84.5659C90.5291 84.93 89.3105 85.4238 89.3105 85.9387C89.3105 86.4536 90.5291 86.9474 92.6981 87.3115C94.8672 87.6756 97.809 87.8801 100.877 87.8801C103.944 87.8801 106.886 87.6756 109.055 87.3115C111.224 86.9474 112.443 86.4536 112.443 85.9387C112.443 85.4238 111.224 84.93 109.055 84.5659C106.886 84.2019 103.944 83.9973 100.877 83.9973Z" fill="#FFEC00"/>
<path d="M100.878 88.3726C99.6439 88.3726 88.8193 88.3044 88.8193 85.9399C88.8193 83.5753 99.6439 83.5085 100.878 83.5085C102.112 83.5085 112.935 83.5767 112.935 85.9399C112.935 88.3044 102.112 88.3726 100.878 88.3726ZM100.878 84.4897C93.7358 84.4897 90.0796 85.4866 89.79 85.9949C90.0796 86.3918 93.7358 87.3888 100.878 87.3888C107.765 87.3888 111.41 86.4613 111.921 85.9386C111.41 85.4172 107.763 84.4897 100.878 84.4897ZM111.963 85.9949H111.976H111.963Z" fill="#002950"/>
<path d="M89.3105 79.4844V83.3842C89.3105 84.4558 94.489 85.3257 100.877 85.3257C107.264 85.3257 112.443 84.4571 112.443 83.3842V79.4844H89.3105Z" fill="#FFAD00"/>
<path d="M100.878 85.8154C99.6439 85.8154 88.8193 85.7473 88.8193 83.384V79.4842C88.8193 79.213 89.0394 78.9929 89.3106 78.9929H112.444C112.715 78.9929 112.935 79.213 112.935 79.4842V83.384C112.935 85.7486 102.112 85.8154 100.878 85.8154ZM89.8005 79.9754V83.384C90.0782 83.8373 93.7344 84.8329 100.877 84.8329C108.017 84.8329 111.674 83.836 111.963 83.3277L111.953 79.9754H89.8005Z" fill="#002950"/>
<path d="M100.877 77.552C97.809 77.552 94.8672 77.7565 92.6981 78.1206C90.5291 78.4847 89.3105 78.9785 89.3105 79.4934C89.3105 80.0083 90.5291 80.5021 92.6981 80.8662C94.8672 81.2303 97.809 81.4348 100.877 81.4348C103.944 81.4348 106.886 81.2303 109.055 80.8662C111.224 80.5021 112.443 80.0083 112.443 79.4934C112.443 78.9785 111.224 78.4847 109.055 78.1206C106.886 77.7565 103.944 77.552 100.877 77.552Z" fill="#FFEC00"/>
<path d="M100.878 81.926C99.6439 81.926 88.8193 81.8579 88.8193 79.4934C88.8193 77.1288 99.6439 77.062 100.878 77.062C102.112 77.062 112.935 77.1301 112.935 79.4934C112.935 81.8579 102.112 81.926 100.878 81.926ZM100.878 78.0432C93.7358 78.0432 90.0796 79.0401 89.79 79.5484C90.0796 79.9453 93.7358 80.9422 100.878 80.9422C107.765 80.9422 111.41 80.0148 111.921 79.4921C111.41 78.9707 107.763 78.0432 100.878 78.0432ZM111.963 79.5484H111.976H111.963Z" fill="#002950"/>
<path d="M89.3105 73.0378V76.9377C89.3105 78.0093 94.489 78.8791 100.877 78.8791C107.264 78.8791 112.443 78.0106 112.443 76.9377V73.0378H89.3105Z" fill="#FFAD00"/>
<path d="M100.878 79.3702C99.6439 79.3702 88.8193 79.3021 88.8193 76.9375V73.0376C88.8193 72.7665 89.0394 72.5464 89.3106 72.5464H112.444C112.715 72.5464 112.935 72.7665 112.935 73.0376V76.9375C112.935 79.3034 102.112 79.3702 100.878 79.3702ZM89.8005 73.5289V76.9375C90.0782 77.3908 93.7344 78.3877 100.877 78.3877C108.017 78.3877 111.674 77.3895 111.963 76.8812L111.953 73.5289H89.8005Z" fill="#002950"/>
<path d="M100.877 71.1055C97.809 71.1055 94.8672 71.31 92.6981 71.6741C90.5291 72.0382 89.3105 72.532 89.3105 73.0469C89.3105 73.5618 90.5291 74.0556 92.6981 74.4197C94.8672 74.7838 97.809 74.9883 100.877 74.9883C103.944 74.9883 106.886 74.7838 109.055 74.4197C111.224 74.0556 112.443 73.5618 112.443 73.0469C112.443 72.532 111.224 72.0382 109.055 71.6741C106.886 71.31 103.944 71.1055 100.877 71.1055Z" fill="#FFEC00"/>
<path d="M100.878 75.4795C99.6439 75.4795 88.8193 75.4114 88.8193 73.0482C88.8193 70.6823 99.6439 70.6155 100.878 70.6155C102.112 70.6155 112.935 70.6836 112.935 73.0482C112.935 75.4114 102.112 75.4795 100.878 75.4795ZM100.878 71.5967C93.7358 71.5967 90.0796 72.5949 89.79 73.1032C90.0796 73.5001 93.7358 74.4957 100.878 74.4957C107.765 74.4957 111.41 73.5682 111.921 73.0468C111.41 72.5242 107.763 71.5967 100.878 71.5967ZM111.963 73.1032H111.976H111.963Z" fill="#002950"/>
<path d="M89.3105 66.5925V70.4924C89.3105 71.564 94.489 72.4338 100.877 72.4338C107.264 72.4338 112.443 71.5653 112.443 70.4924V66.5925H89.3105Z" fill="#F1BC19"/>
<path d="M100.878 72.9251C99.6439 72.9251 88.8193 72.857 88.8193 70.4924V66.5926C88.8193 66.3214 89.0394 66.1013 89.3106 66.1013H112.444C112.715 66.1013 112.935 66.3214 112.935 66.5926V70.4924C112.935 72.857 102.112 72.9251 100.878 72.9251ZM89.8005 67.0838V70.4924C90.0782 70.9457 93.7344 71.9426 100.877 71.9426C108.017 71.9426 111.674 70.9444 111.963 70.4361L111.953 67.0838H89.8005Z" fill="#002950"/>
<path d="M100.877 64.6589C97.809 64.6589 94.8672 64.8635 92.6981 65.2276C90.5291 65.5917 89.3105 66.0855 89.3105 66.6004C89.3105 67.1153 90.5291 67.6091 92.6981 67.9732C94.8672 68.3372 97.809 68.5418 100.877 68.5418C103.944 68.5418 106.886 68.3372 109.055 67.9732C111.224 67.6091 112.443 67.1153 112.443 66.6004C112.443 66.0855 111.224 65.5917 109.055 65.2276C106.886 64.8635 103.944 64.6589 100.877 64.6589Z" fill="#FFEC00"/>
<path d="M100.878 69.033C99.6439 69.033 88.8193 68.9648 88.8193 66.6016C88.8193 64.2358 99.6439 64.1689 100.878 64.1689C102.112 64.1689 112.935 64.2371 112.935 66.6016C112.935 68.9648 102.112 69.033 100.878 69.033ZM100.878 65.1501C93.7358 65.1501 90.0796 66.1484 89.79 66.6566C90.0796 67.0536 93.7358 68.0492 100.878 68.0492C107.765 68.0492 111.41 67.1217 111.921 66.6003C111.41 66.0776 107.763 65.1501 100.878 65.1501ZM111.963 66.6566H111.976H111.963Z" fill="#002950"/>
<path d="M78.3892 88.45V92.3498C78.3892 93.4214 83.5676 94.2913 89.9552 94.2913C96.3427 94.2913 101.521 93.4227 101.521 92.3498V88.45H78.3892Z" fill="#FFAD00"/>
<path d="M89.9567 94.7811C88.7226 94.7811 77.8994 94.713 77.8994 92.3497V88.4485C77.8994 88.1774 78.1195 87.9573 78.3907 87.9573H101.523C101.794 87.9573 102.014 88.1774 102.014 88.4485V92.3497C102.014 94.713 91.1907 94.7811 89.9567 94.7811ZM78.8819 88.9398V92.3497C79.1596 92.803 82.8158 93.7986 89.9567 93.7986C97.0975 93.7986 100.754 92.8017 101.043 92.2934L101.033 88.9398H78.8819Z" fill="#002950"/>
<path d="M89.9566 86.5164C86.8891 86.5164 83.9473 86.7209 81.7782 87.085C79.6092 87.4491 78.3906 87.9429 78.3906 88.4578C78.3906 88.9727 79.6092 89.4665 81.7782 89.8306C83.9473 90.1946 86.8891 90.3992 89.9566 90.3992C93.0241 90.3992 95.966 90.1946 98.135 89.8306C100.304 89.4665 101.523 88.9727 101.523 88.4578C101.523 87.9429 100.304 87.4491 98.135 87.085C95.966 86.7209 93.0241 86.5164 89.9566 86.5164Z" fill="#FFEC00"/>
<path d="M89.9567 90.8904C88.7226 90.8904 77.8994 90.8223 77.8994 88.4577C77.8994 86.0932 88.7226 86.0264 89.9567 86.0264C91.1907 86.0264 102.014 86.0945 102.014 88.4577C102.014 90.8236 91.1907 90.8904 89.9567 90.8904ZM89.9567 87.0089C82.8158 87.0089 79.1596 88.0058 78.8701 88.5141C79.1596 88.911 82.8158 89.9079 89.9567 89.9079C96.8433 89.9079 100.489 88.9804 101 88.4577C100.489 87.9363 96.842 87.0089 89.9567 87.0089ZM101.043 88.5141H101.056H101.043Z" fill="#002950"/>
<path d="M78.3892 82.002V85.9018C78.3892 86.9734 83.5676 87.8432 89.9552 87.8432C96.3427 87.8432 101.521 86.9747 101.521 85.9018V82.002H78.3892Z" fill="#FFAD00"/>
<path d="M89.9567 88.3333C88.7226 88.3333 77.8994 88.2652 77.8994 85.9019V82.0008C77.8994 81.7296 78.1195 81.5095 78.3907 81.5095H101.523C101.794 81.5095 102.014 81.7296 102.014 82.0008V85.9019C102.014 88.2665 91.1907 88.3333 89.9567 88.3333ZM78.8819 82.492V85.9019C79.1596 86.3552 82.8158 87.3508 89.9567 87.3508C97.0975 87.3508 100.754 86.3539 101.043 85.8456L101.033 82.492H78.8819Z" fill="#002950"/>
<path d="M89.9566 80.0684C86.8891 80.0684 83.9473 80.2729 81.7782 80.637C79.6092 81.0011 78.3906 81.4949 78.3906 82.0098C78.3906 82.5247 79.6092 83.0185 81.7782 83.3826C83.9473 83.7467 86.8891 83.9512 89.9566 83.9512C93.0241 83.9512 95.966 83.7467 98.135 83.3826C100.304 83.0185 101.523 82.5247 101.523 82.0098C101.523 81.4949 100.304 81.0011 98.135 80.637C95.966 80.2729 93.0241 80.0684 89.9566 80.0684Z" fill="#FFEC00"/>
<path d="M89.9567 84.4439C88.7226 84.4439 77.8994 84.3757 77.8994 82.0112C77.8994 79.6466 88.7226 79.5798 89.9567 79.5798C91.1907 79.5798 102.014 79.648 102.014 82.0112C102.014 84.3757 91.1907 84.4439 89.9567 84.4439ZM89.9567 80.561C82.8158 80.561 79.1596 81.5579 78.8701 82.0662C79.1596 82.4631 82.8158 83.4601 89.9567 83.4601C96.8433 83.4601 100.489 82.5326 101 82.0099C100.489 81.4885 96.842 80.561 89.9567 80.561ZM101.043 82.0662H101.056H101.043Z" fill="#002950"/>
<path d="M78.3892 75.8557V79.7556C78.3892 80.8272 83.5676 81.697 89.9552 81.697C96.3427 81.697 101.521 80.8285 101.521 79.7556V75.8557H78.3892Z" fill="#FFAD00"/>
<path d="M89.9567 82.1881C88.7226 82.1881 77.8994 82.1199 77.8994 79.7554V75.8555C77.8994 75.5843 78.1195 75.3643 78.3907 75.3643H101.523C101.794 75.3643 102.014 75.5843 102.014 75.8555V79.7554C102.014 82.1199 91.1907 82.1881 89.9567 82.1881ZM78.8819 76.3468V79.7554C79.1596 80.2086 82.8158 81.2056 89.9567 81.2056C97.0975 81.2056 100.754 80.2073 101.043 79.6991L101.033 76.3468H78.8819Z" fill="#002950"/>
<path d="M89.9566 73.9221C86.8891 73.9221 83.9473 74.1267 81.7782 74.4907C79.6092 74.8548 78.3906 75.3486 78.3906 75.8635C78.3906 76.3784 79.6092 76.8722 81.7782 77.2363C83.9473 77.6004 86.8891 77.805 89.9566 77.805C93.0241 77.805 95.966 77.6004 98.135 77.2363C100.304 76.8722 101.523 76.3784 101.523 75.8635C101.523 75.3486 100.304 74.8548 98.135 74.4907C95.966 74.1267 93.0241 73.9221 89.9566 73.9221Z" fill="#FFEC00"/>
<path d="M89.9567 78.2962C88.7226 78.2962 77.8994 78.228 77.8994 75.8648C77.8994 73.4989 88.7226 73.4321 89.9567 73.4321C91.1907 73.4321 102.014 73.5002 102.014 75.8648C102.014 78.228 91.1907 78.2962 89.9567 78.2962ZM89.9567 74.4133C82.8145 74.4133 79.1596 75.4115 78.8701 75.9198C79.1596 76.3167 82.8158 77.3123 89.9567 77.3123C96.8446 77.3123 100.489 76.3849 101 75.8635C100.49 75.3408 96.8446 74.4133 89.9567 74.4133ZM101.043 75.9211H101.055H101.043Z" fill="#002950"/>
<path d="M89.3105 60.146V64.0459C89.3105 65.1174 94.489 65.9873 100.877 65.9873C107.264 65.9873 112.443 65.1188 112.443 64.0459V60.146H89.3105Z" fill="#FFAD00"/>
<path d="M100.878 66.4786C99.6439 66.4786 88.8193 66.4105 88.8193 64.0472V60.146C88.8193 59.8749 89.0394 59.6548 89.3106 59.6548H112.444C112.715 59.6548 112.935 59.8749 112.935 60.146V64.0472C112.935 66.4105 102.112 66.4786 100.878 66.4786ZM89.8005 60.6373V64.0472C90.0782 64.5005 93.7344 65.4961 100.877 65.4961C108.017 65.4961 111.674 64.4992 111.963 63.9909L111.953 60.6373H89.8005Z" fill="#002950"/>
<path d="M100.877 58.2124C97.809 58.2124 94.8672 58.4169 92.6981 58.781C90.5291 59.1451 89.3105 59.6389 89.3105 60.1538C89.3105 60.6687 90.5291 61.1625 92.6981 61.5266C94.8672 61.8907 97.809 62.0952 100.877 62.0952C103.944 62.0952 106.886 61.8907 109.055 61.5266C111.224 61.1625 112.443 60.6687 112.443 60.1538C112.443 59.6389 111.224 59.1451 109.055 58.781C106.886 58.4169 103.944 58.2124 100.877 58.2124Z" fill="#FFEC00"/>
<path d="M100.878 62.5866C99.6439 62.5866 88.8193 62.5185 88.8193 60.1552C88.8193 57.792 99.6439 57.7239 100.878 57.7239C102.112 57.7239 112.935 57.792 112.935 60.1552C112.935 62.5185 102.112 62.5866 100.878 62.5866ZM100.878 58.7051C93.7358 58.7051 90.0796 59.702 89.79 60.2103C90.0796 60.6072 93.7358 61.6028 100.878 61.6028C107.765 61.6028 111.41 60.6753 111.921 60.1539C111.41 59.6325 107.763 58.7051 100.878 58.7051ZM111.963 60.2103H111.976H111.963Z" fill="#002950"/>
<path d="M89.3105 53.6995V57.5993C89.3105 58.6709 94.489 59.5408 100.877 59.5408C107.264 59.5408 112.443 58.6722 112.443 57.5993V53.6995H89.3105Z" fill="#FFAD00"/>
<path d="M100.878 60.032C99.6439 60.032 88.8193 59.9639 88.8193 57.6007V53.6995C88.8193 53.4283 89.0394 53.2083 89.3106 53.2083H112.444C112.715 53.2083 112.935 53.4283 112.935 53.6995V57.6007C112.935 59.9639 102.112 60.032 100.878 60.032ZM89.8005 54.1908V57.6007C90.0782 58.0539 93.7344 59.0495 100.877 59.0495C108.017 59.0495 111.674 58.0526 111.963 57.5444L111.953 54.1908H89.8005Z" fill="#002950"/>
<path d="M100.877 51.7673C97.809 51.7673 94.8672 51.9719 92.6981 52.336C90.5291 52.7001 89.3105 53.1939 89.3105 53.7088C89.3105 54.2237 90.5291 54.7175 92.6981 55.0815C94.8672 55.4456 97.809 55.6502 100.877 55.6502C103.944 55.6502 106.886 55.4456 109.055 55.0815C111.224 54.7175 112.443 54.2237 112.443 53.7088C112.443 53.1939 111.224 52.7001 109.055 52.336C106.886 51.9719 103.944 51.7673 100.877 51.7673Z" fill="#FFEC00"/>
<path d="M100.878 56.1414C99.6439 56.1414 88.8193 56.0733 88.8193 53.7087C88.8193 51.3442 99.6439 51.2773 100.878 51.2773C102.112 51.2773 112.935 51.3455 112.935 53.7087C112.935 56.0733 102.112 56.1414 100.878 56.1414ZM100.878 52.2585C93.7358 52.2585 90.0796 53.2554 89.79 53.7637C90.0796 54.1607 93.7358 55.1576 100.878 55.1576C107.765 55.1576 111.41 54.2301 111.921 53.7074C111.41 53.186 107.763 52.2585 100.878 52.2585ZM111.963 53.765H111.976H111.963Z" fill="#002950"/>
</svg>
