<svg width="37" height="38" viewBox="0 0 37 38" fill="none" xmlns="http://www.w3.org/2000/svg">
<g clip-path="url(#clip0)">
<path d="M37 18.5013C37 16.2384 36.593 14.0706 35.8493 12.0665L18.5 11.2621L1.15069 12.0665C0.407072 14.0706 0 16.2384 0 18.5013C0 20.7642 0.407072 22.9319 1.15069 24.936L18.5 25.7404L35.8493 24.9361C36.593 22.9319 37 20.7642 37 18.5013Z" fill="#0052B4"/>
<path d="M18.4999 37.0015C26.4542 37.0015 33.2353 31.981 35.8492 24.9362H1.15057C3.76449 31.981 10.5455 37.0015 18.4999 37.0015Z" fill="#FF9811"/>
<path d="M1.15057 12.0667H35.8493C33.2353 5.0219 26.4542 0.00146484 18.4999 0.00146484C10.5455 0.00146484 3.76449 5.0219 1.15057 12.0667Z" fill="#D80027"/>
</g>
<defs>
<clipPath id="clip0">
<rect width="37" height="37" fill="white" transform="translate(0 0.00146484)"/>
</clipPath>
</defs>
</svg>
