<svg width="37" height="37" viewBox="0 0 37 37" fill="none" xmlns="http://www.w3.org/2000/svg">
<g clip-path="url(#clip0)">
<path d="M18.5 37.0005C28.7173 37.0005 37 28.7178 37 18.5005C37 8.28322 28.7173 0.000488281 18.5 0.000488281C8.28273 0.000488281 0 8.28322 0 18.5005C0 28.7178 8.28273 37.0005 18.5 37.0005Z" fill="#F0F0F0"/>
<path d="M7.64123 17.1599L5.63037 13.5117L7.64123 9.92078L9.65209 13.5117L7.64123 17.1599Z" fill="#D80027"/>
<path d="M3.61963 17.1599L1.60876 13.5117L3.61963 9.92078L5.63049 13.5117L3.61963 17.1599Z" fill="#D80027"/>
<path d="M7.64123 27.0804L5.63037 23.4322L7.64123 19.8412L9.65209 23.4322L7.64123 27.0804Z" fill="#D80027"/>
<path d="M3.61963 27.0804L1.60876 23.4322L3.61963 19.8412L5.63049 23.4322L3.61963 27.0804Z" fill="#D80027"/>
<path d="M9.65215 3.59146L9.08284 2.57483C8.06173 3.17984 7.10399 3.88031 6.22156 4.66396L7.64129 7.23958L9.65215 3.59146Z" fill="#D80027"/>
<path d="M7.6413 29.7612L6.20654 32.3234C7.08818 33.1081 8.04527 33.8096 9.06594 34.4159L9.65223 33.3522L7.6413 29.7612Z" fill="#D80027"/>
<path d="M11.261 24.9353V35.5294C13.4845 36.4759 15.9309 37.0003 18.5001 37.0003C26.4545 37.0003 33.2355 31.9799 35.8494 24.9351L11.261 24.9353Z" fill="#3EB851"/>
<path d="M35.8494 24.9352C36.5931 22.9311 37.0001 20.7634 37.0001 18.5005C37.0001 8.28329 28.7173 0.000488281 18.5001 0.000488281C15.9312 0.000488281 13.4845 0.524631 11.261 1.47095V24.9353H35.8494V24.9352Z" fill="#D80027"/>
</g>
<defs>
<clipPath id="clip0">
<rect width="37" height="37" fill="white" transform="translate(0 0.000488281)"/>
</clipPath>
</defs>
</svg>
