<svg width="37" height="38" viewBox="0 0 37 38" fill="none" xmlns="http://www.w3.org/2000/svg">
<g clip-path="url(#clip0)">
<path d="M18.5 37.0015C28.7173 37.0015 37 28.7187 37 18.5015C37 8.2842 28.7173 0.00146484 18.5 0.00146484C8.28273 0.00146484 0 8.2842 0 18.5015C0 28.7187 8.28273 37.0015 18.5 37.0015Z" fill="#D80027"/>
<path d="M10.1244 11.2606L11.7215 16.1747H16.8885L12.7115 19.2171L14.3086 24.1311L10.1244 21.096L5.94023 24.1311L7.54453 19.2171L3.36035 16.1747H8.52734L10.1244 11.2606Z" fill="#FFDA44"/>
<path d="M21.9327 28.6549L20.7114 27.1517L18.9048 27.8527L19.9526 26.2267L18.7313 24.7164L20.603 25.215L21.6581 23.5891L21.7592 25.5258L23.6381 26.0244L21.8243 26.7182L21.9327 28.6549Z" fill="#FFDA44"/>
<path d="M24.3608 24.2467L24.9389 22.3967L23.3563 21.2766L25.293 21.2476L25.8639 19.3976L26.4927 21.2332L28.4294 21.2115L26.8757 22.3678L27.4971 24.2033L25.9145 23.0832L24.3608 24.2467Z" fill="#FFDA44"/>
<path d="M27.6343 13.5804L26.7816 15.322L28.1691 16.6734L26.254 16.3988L25.4013 18.1332L25.0689 16.2254L23.1466 15.9507L24.8665 15.0474L24.5341 13.1324L25.9216 14.4838L27.6343 13.5804Z" fill="#FFDA44"/>
<path d="M21.9832 8.30487L21.8387 10.2344L23.6381 10.9642L21.752 11.4267L21.6147 13.3635L20.5957 11.7158L18.7096 12.1783L19.9598 10.6969L18.9336 9.05643L20.733 9.78632L21.9832 8.30487Z" fill="#FFDA44"/>
</g>
<defs>
<clipPath id="clip0">
<rect width="37" height="37" fill="white" transform="translate(0 0.00146484)"/>
</clipPath>
</defs>
</svg>
