<svg width="37" height="38" viewBox="0 0 37 38" fill="none" xmlns="http://www.w3.org/2000/svg">
<g clip-path="url(#clip0)">
<path d="M18.5 37.0015C28.7173 37.0015 37 28.7187 37 18.5015C37 8.2842 28.7173 0.00146484 18.5 0.00146484C8.28273 0.00146484 0 8.2842 0 18.5015C0 28.7187 8.28273 37.0015 18.5 37.0015Z" fill="#F0F0F0"/>
<path d="M36.8434 16.0885H14.4783H14.4783V0.441223C12.7686 0.820329 11.1478 1.4348 9.65216 2.2509V16.0883V16.0884H0.1566C0.0536211 16.8783 0 17.6837 0 18.5015C0 19.3193 0.0536211 20.1246 0.1566 20.9145H9.65209H9.65216V34.752C11.1478 35.568 12.7686 36.1826 14.4783 36.5617V20.9147V20.9146H36.8434C36.9462 20.1246 37 19.3193 37 18.5015C37 17.6837 36.9462 16.8783 36.8434 16.0885Z" fill="#0052B4"/>
</g>
<defs>
<clipPath id="clip0">
<rect width="37" height="37" fill="white" transform="translate(0 0.00146484)"/>
</clipPath>
</defs>
</svg>
