<svg width="37" height="38" viewBox="0 0 37 38" fill="none" xmlns="http://www.w3.org/2000/svg">
<g clip-path="url(#clip0)">
<path d="M18.5 37.0015C28.7173 37.0015 37 28.7187 37 18.5015C37 8.2842 28.7173 0.00146484 18.5 0.00146484C8.28273 0.00146484 0 8.2842 0 18.5015C0 28.7187 8.28273 37.0015 18.5 37.0015Z" fill="#F0F0F0"/>
<path d="M37.0001 18.5016C37.0001 10.5472 31.9796 3.7662 24.9348 1.15228V35.851C31.9796 33.237 37.0001 26.4559 37.0001 18.5016Z" fill="#D80027"/>
<path d="M0 18.5016C0 26.4559 5.02051 33.237 12.0653 35.8509V1.15228C5.02051 3.7662 0 10.5472 0 18.5016Z" fill="#0052B4"/>
</g>
<defs>
<clipPath id="clip0">
<rect width="37" height="37" fill="white" transform="translate(0 0.00146484)"/>
</clipPath>
</defs>
</svg>
