<svg width="37" height="38" viewBox="0 0 37 38" fill="none" xmlns="http://www.w3.org/2000/svg">
<g clip-path="url(#clip0)">
<path d="M1.15063 24.936C3.76455 31.9808 10.5456 37.0013 18.5 37.0013C26.4543 37.0013 33.2353 31.9808 35.8493 24.936L18.5 23.3274L1.15063 24.936Z" fill="#FFDA44"/>
<path d="M18.5 0.00146484C10.5456 0.00146484 3.76455 5.0219 1.15063 12.0667L18.5 13.6753L35.8493 12.0666C33.2353 5.0219 26.4543 0.00146484 18.5 0.00146484Z" fill="black"/>
<path d="M1.15069 12.0667C0.407072 14.0709 0 16.2385 0 18.5015C0 20.7644 0.407072 22.9321 1.15069 24.9362H35.8494C36.593 22.9321 37 20.7644 37 18.5015C37 16.2385 36.593 14.0709 35.8493 12.0667H1.15069Z" fill="#D80027"/>
</g>
<defs>
<clipPath id="clip0">
<rect width="37" height="37" fill="white" transform="translate(0 0.00146484)"/>
</clipPath>
</defs>
</svg>
