<svg width="37" height="37" viewBox="0 0 37 37" fill="none" xmlns="http://www.w3.org/2000/svg">
<g clip-path="url(#clip0)">
<path d="M18.5 37C28.7173 37 37 28.7173 37 18.5C37 8.28273 28.7173 0 18.5 0C8.28273 0 0 8.28273 0 18.5C0 28.7173 8.28273 37 18.5 37Z" fill="#F0F0F0"/>
<path d="M37 18.5001C37 10.5458 31.9796 3.76474 24.9348 1.15082V35.8495C31.9796 33.2355 37 26.4545 37 18.5001Z" fill="#D80027"/>
<path d="M0 18.5001C0 26.4545 5.02044 33.2355 12.0653 35.8494V1.15082C5.02044 3.76474 0 10.5458 0 18.5001Z" fill="#6DA544"/>
</g>
<defs>
<clipPath id="clip0">
<rect width="37" height="37" fill="white"/>
</clipPath>
</defs>
</svg>
