<svg width="37" height="37" viewBox="0 0 37 37" fill="none" xmlns="http://www.w3.org/2000/svg">
<g clip-path="url(#clip0)">
<path d="M18.5 36.9995C28.7173 36.9995 37 28.7168 37 18.4995C37 8.28224 28.7173 -0.000488281 18.5 -0.000488281C8.28273 -0.000488281 0 8.28224 0 18.4995C0 28.7168 8.28273 36.9995 18.5 36.9995Z" fill="#338AF3"/>
<path d="M28.9566 18.7004H8.04346C8.04346 20.1442 9.30095 21.3146 10.7446 21.3146H10.6576C10.6576 22.7584 11.8279 23.9287 13.2717 23.9287C13.2717 25.3725 14.4421 26.5429 15.8859 26.5429H21.1141C22.5579 26.5429 23.7283 25.3725 23.7283 23.9287C25.1721 23.9287 26.3424 22.7584 26.3424 21.3146H26.2554C27.6989 21.3146 28.9566 20.1442 28.9566 18.7004Z" fill="#FFDA44"/>
<path d="M25.7391 15.282C25.7391 19.2801 22.498 22.5212 18.5 22.5212C14.5019 22.5212 11.2609 19.2801 11.2609 15.282" fill="#338AF3"/>
<path d="M24.0293 15.2821L21.7699 16.345L22.973 18.5332L20.5196 18.0638L20.2087 20.5422L18.4999 18.7193L16.7909 20.5422L16.4801 18.0638L14.0267 18.533L15.2298 16.3449L12.9705 15.2821L15.2298 14.2194L14.0267 12.0313L16.48 12.5006L16.791 10.0222L18.4999 11.8451L20.2088 10.0222L20.5196 12.5006L22.9731 12.0313L21.7699 14.2195L24.0293 15.2821Z" fill="#FFDA44"/>
</g>
<defs>
<clipPath id="clip0">
<rect width="37" height="37" fill="white" transform="translate(0 -0.000488281)"/>
</clipPath>
</defs>
</svg>
