<svg width="37" height="37" viewBox="0 0 37 37" fill="none" xmlns="http://www.w3.org/2000/svg">
<g clip-path="url(#clip0)">
<path d="M18.5 37.0005C28.7173 37.0005 37 28.7178 37 18.5005C37 8.28322 28.7173 0.000488281 18.5 0.000488281C8.28273 0.000488281 0 8.28322 0 18.5005C0 28.7178 8.28273 37.0005 18.5 37.0005Z" fill="#F0F0F0"/>
<path d="M35.8493 24.9352C36.593 22.9311 37 20.7634 37 18.5005C37 16.2376 36.593 14.0699 35.8493 12.0657H1.15069C0.407072 14.0699 0 16.2376 0 18.5005C0 20.7634 0.407072 22.9311 1.15069 24.9352L18.5 26.5439L35.8493 24.9352Z" fill="#0052B4"/>
<path d="M18.5 37.0005C26.4543 37.0005 33.2353 31.9801 35.8493 24.9352H1.15063C3.76455 31.9801 10.5456 37.0005 18.5 37.0005Z" fill="#D80027"/>
</g>
<defs>
<clipPath id="clip0">
<rect width="37" height="37" fill="white" transform="translate(0 0.000488281)"/>
</clipPath>
</defs>
</svg>
