<svg width="37" height="38" viewBox="0 0 37 38" fill="none" xmlns="http://www.w3.org/2000/svg">
<g clip-path="url(#clip0)">
<path d="M0 18.5017C0 20.7646 0.407072 22.9323 1.15069 24.9364L18.5 26.5451L35.8493 24.9364C36.5929 22.9323 37 20.7646 37 18.5017C37 16.2387 36.5929 14.071 35.8493 12.0669L18.5 10.4582L1.15069 12.0669C0.407072 14.071 0 16.2387 0 18.5017Z" fill="#FFDA44"/>
<path d="M35.8493 12.0667C33.2353 5.02197 26.4543 0.00146484 18.4999 0.00146484C10.5456 0.00146484 3.76455 5.02197 1.15063 12.0667H35.8493Z" fill="#D80027"/>
<path d="M1.15063 24.9362C3.76455 31.981 10.5456 37.0015 18.4999 37.0015C26.4543 37.0015 33.2353 31.981 35.8493 24.9362H1.15063Z" fill="#D80027"/>
</g>
<defs>
<clipPath id="clip0">
<rect width="37" height="37" fill="white" transform="translate(0 0.00146484)"/>
</clipPath>
</defs>
</svg>
