<svg width="37" height="37" viewBox="0 0 37 37" fill="none" xmlns="http://www.w3.org/2000/svg">
<path d="M18.5 37C28.7173 37 37 28.7173 37 18.5C37 8.28273 28.7173 0 18.5 0C8.28273 0 0 8.28273 0 18.5C0 28.7173 8.28273 37 18.5 37Z" fill="#F0F0F0"/>
<path d="M3.82419 7.23718C2.371 9.12787 1.27524 11.307 0.637207 13.6744H10.2614L3.82419 7.23718Z" fill="#0052B4"/>
<path d="M36.3626 13.674C35.7245 11.3067 34.6287 9.12756 33.1756 7.23688L26.7385 13.674H36.3626Z" fill="#0052B4"/>
<path d="M0.637207 23.3265C1.27531 25.6938 2.37108 27.8729 3.82419 29.7635L10.2612 23.3265H0.637207Z" fill="#0052B4"/>
<path d="M29.7629 3.82451C27.8723 2.37132 25.6932 1.27556 23.3258 0.637451V10.2616L29.7629 3.82451Z" fill="#0052B4"/>
<path d="M7.23669 33.1758C9.12738 34.6289 11.3066 35.7247 13.6738 36.3628V26.7388L7.23669 33.1758Z" fill="#0052B4"/>
<path d="M13.6738 0.637451C11.3065 1.27556 9.12731 2.37132 7.23669 3.82444L13.6738 10.2615V0.637451Z" fill="#0052B4"/>
<path d="M23.3259 36.3628C25.6932 35.7247 27.8724 34.6289 29.763 33.1758L23.3259 26.7388V36.3628Z" fill="#0052B4"/>
<path d="M26.7385 23.3265L33.1756 29.7636C34.6287 27.873 35.7245 25.6938 36.3626 23.3265H26.7385Z" fill="#0052B4"/>
<path d="M36.8434 16.087H20.9132H20.9131V0.1566C20.1232 0.0537656 19.3178 0 18.5 0C17.682 0 16.8768 0.0537656 16.087 0.1566V16.0868V16.0869H0.1566C0.0537656 16.8768 0 17.6822 0 18.5C0 19.318 0.0537656 20.1232 0.1566 20.913H16.0868H16.0869V36.8434C16.8768 36.9462 17.682 37 18.5 37C19.3178 37 20.1232 36.9463 20.913 36.8434V20.9132V20.9131H36.8434C36.9462 20.1232 37 19.318 37 18.5C37 17.6822 36.9462 16.8768 36.8434 16.087Z" fill="#D80027"/>
<path d="M23.3261 23.326L31.5814 31.5813C31.9611 31.2018 32.3233 30.805 32.6689 30.3936L25.6012 23.3259H23.3261V23.326Z" fill="#D80027"/>
<path d="M13.6739 23.326H13.6738L5.41852 31.5813C5.79806 31.961 6.19487 32.3232 6.6062 32.6688L13.6739 25.6009V23.326Z" fill="#D80027"/>
<path d="M13.6738 13.6741V13.6739L5.41845 5.41852C5.03876 5.79806 4.67657 6.19487 4.33099 6.6062L11.3988 13.674H13.6738V13.6741Z" fill="#D80027"/>
<path d="M23.3261 13.674L31.5815 5.4185C31.202 5.03881 30.8052 4.67662 30.3938 4.33112L23.3261 11.3989V13.674Z" fill="#D80027"/>
</svg>
