<svg width="37" height="37" viewBox="0 0 37 37" fill="none" xmlns="http://www.w3.org/2000/svg">
<g clip-path="url(#clip0)">
<path d="M18.5 37C28.7173 37 37 28.7173 37 18.5C37 8.28273 28.7173 0 18.5 0C8.28273 0 0 8.28273 0 18.5C0 28.7173 8.28273 37 18.5 37Z" fill="#F0F0F0"/>
<path d="M17.6956 18.5002H36.9999C36.9999 16.8304 36.7773 15.2128 36.3626 13.6741H17.6956V18.5002Z" fill="#D80027"/>
<path d="M17.6956 8.84797H34.2846C33.1521 6.99999 31.7041 5.36657 30.0158 4.02185H17.6956V8.84797Z" fill="#D80027"/>
<path d="M18.4999 37.0003C22.8538 37.0003 26.8557 35.4954 30.0159 32.9786H6.98395C10.1441 35.4954 14.146 37.0003 18.4999 37.0003Z" fill="#D80027"/>
<path d="M2.7152 28.1524H34.2846C35.1938 26.6689 35.8989 25.0472 36.3626 23.3263H0.637207C1.10094 25.0472 1.80603 26.6689 2.7152 28.1524Z" fill="#D80027"/>
<path d="M8.56955 2.88904H10.2554L8.68727 4.0283L9.28628 5.87173L7.71819 4.73246L6.15009 5.87173L6.66752 4.27921C5.28681 5.42932 4.07665 6.77678 3.07938 8.27817H3.61957L2.62136 9.00336C2.46585 9.26279 2.31669 9.52634 2.17375 9.7938L2.65041 11.2609L1.76111 10.6147C1.54005 11.0831 1.33785 11.562 1.15611 12.0509L1.68126 13.6673H3.61957L2.0514 14.8066L2.65041 16.65L1.08232 15.5107L0.143014 16.1932C0.0489961 16.949 0 17.7187 0 18.5H18.5C18.5 8.2828 18.5 7.07827 18.5 0C14.8454 0 11.4386 1.06014 8.56955 2.88904ZM9.28628 16.65L7.71819 15.5107L6.15009 16.65L6.7491 14.8066L5.18094 13.6673H7.11925L7.71819 11.8239L8.31712 13.6673H10.2554L8.68727 14.8066L9.28628 16.65ZM8.68727 9.41744L9.28628 11.2609L7.71819 10.1216L6.15009 11.2609L6.7491 9.41744L5.18094 8.27817H7.11925L7.71819 6.43475L8.31712 8.27817H10.2554L8.68727 9.41744ZM15.9221 16.65L14.354 15.5107L12.786 16.65L13.385 14.8066L11.8168 13.6673H13.7551L14.354 11.8239L14.953 13.6673H16.8913L15.3231 14.8066L15.9221 16.65ZM15.3231 9.41744L15.9221 11.2609L14.354 10.1216L12.786 11.2609L13.385 9.41744L11.8168 8.27817H13.7551L14.354 6.43475L14.953 8.27817H16.8913L15.3231 9.41744ZM15.3231 4.0283L15.9221 5.87173L14.354 4.73246L12.786 5.87173L13.385 4.0283L11.8168 2.88904H13.7551L14.354 1.04561L14.953 2.88904H16.8913L15.3231 4.0283Z" fill="#0052B4"/>
</g>
<defs>
<clipPath id="clip0">
<rect width="37" height="37" fill="white"/>
</clipPath>
</defs>
</svg>
