<svg width="165" height="154" viewBox="0 0 165 154" fill="none" xmlns="http://www.w3.org/2000/svg">
<g clip-path="url(#clip0)">
<path d="M137.413 74.676C140.349 74.676 142.987 72.8894 143.977 70.2305C144.121 69.8421 143.911 69.4144 143.507 69.2752C143.104 69.1362 142.659 69.3382 142.515 69.7265C141.745 71.7932 139.695 73.1818 137.413 73.1818C134.426 73.1818 131.995 70.843 131.995 67.968C131.995 65.0931 134.426 62.7543 137.413 62.7543C139.893 62.7543 142.052 64.3672 142.664 66.6765C142.769 67.0763 143.192 67.318 143.608 67.2161C144.023 67.1142 144.274 66.7076 144.168 66.3076C143.382 63.3358 140.604 61.2601 137.413 61.2601C133.57 61.2601 130.442 64.2692 130.442 67.968C130.442 71.6668 133.569 74.676 137.413 74.676Z" fill="#4794EF"/>
<path d="M137.413 64.1956C135.251 64.1956 133.492 65.888 133.492 67.9683C133.492 70.0485 135.251 71.741 137.413 71.741C139.575 71.741 141.334 70.0485 141.334 67.9683C141.334 65.888 139.575 64.1956 137.413 64.1956ZM137.413 70.2468C136.107 70.2468 135.045 69.2246 135.045 67.9683C135.045 66.7119 136.107 65.6897 137.413 65.6897C138.719 65.6897 139.781 66.7119 139.781 67.9683C139.781 69.2246 138.719 70.2468 137.413 70.2468Z" fill="#4794EF"/>
<path d="M158.995 67.2692L156.641 67.2302C156.634 67.2301 156.626 67.23 156.618 67.23C155.905 67.23 155.313 67.7816 155.292 68.4697C155.158 72.9771 153.22 77.1928 149.835 80.3404C146.476 83.4644 142.07 85.18 137.413 85.18C137.367 85.18 137.32 85.1799 137.273 85.1795C127.707 85.1089 119.839 77.674 119.535 68.5196C119.746 68.5734 119.968 68.6024 120.196 68.6024H120.207L120.662 70.6341C120.891 71.6527 121.843 72.392 122.926 72.392H124.879C125.835 72.392 126.684 71.8199 127.03 70.9875H127.305C127.496 71.5822 127.745 72.1613 128.046 72.7111L125.974 74.7056C125.47 75.1896 125.417 75.9629 125.849 76.5043C126.625 77.4767 127.531 78.3485 128.542 79.0956C129.104 79.5114 129.908 79.4599 130.411 78.9758L132.484 76.9814C133.055 77.2709 133.657 77.5107 134.275 77.695V80.5168C134.275 81.2016 134.805 81.7847 135.509 81.8732C136.138 81.9524 136.778 81.9926 137.413 81.9926C138.048 81.9926 138.688 81.9525 139.317 81.8732C140.02 81.7846 140.551 81.2015 140.551 80.5168V77.695C141.169 77.5107 141.771 77.271 142.342 76.9814L144.415 78.9758C144.918 79.4599 145.721 79.5114 146.284 79.0956C147.295 78.3485 148.201 77.4767 148.977 76.5043C149.409 75.963 149.356 75.1897 148.852 74.7057L146.78 72.7111C147.081 72.1612 147.33 71.5821 147.521 70.9875H150.454C151.165 70.9875 151.771 70.4772 151.863 69.8004C151.946 69.1955 151.987 68.579 151.987 67.9679C151.987 67.3568 151.946 66.7403 151.863 66.1354C151.771 65.4588 151.165 64.9485 150.454 64.9485H147.521C147.33 64.3538 147.081 63.7749 146.78 63.2249L148.852 61.2303C149.356 60.7462 149.409 59.973 148.977 59.4317C148.201 58.4592 147.295 57.5873 146.284 56.8403C145.721 56.4246 144.918 56.476 144.415 56.9601L142.342 58.9546C141.771 58.6649 141.169 58.4252 140.551 58.241V55.4191C140.551 54.7345 140.021 54.1513 139.317 54.0627C138.06 53.9044 136.766 53.9044 135.508 54.0627C134.805 54.1514 134.275 54.7345 134.275 55.4191V58.241C133.657 58.4251 133.055 58.6648 132.484 58.9546L130.901 57.4316C132.948 55.7663 134.26 53.4788 134.636 50.9628C135.546 50.8264 136.474 50.756 137.413 50.756H152.535V51.7082C152.535 52.1069 152.762 52.4716 153.127 52.6598C153.492 52.8481 153.933 52.8279 154.278 52.607L159.53 49.245C159.843 49.0444 160.03 48.7083 160.03 48.3462C160.03 47.984 159.843 47.6479 159.53 47.4473L154.278 44.0852C153.933 43.8643 153.492 43.8441 153.127 44.0325C152.762 44.2207 152.535 44.5854 152.535 44.984V45.9362H137.604C136.458 45.9362 135.323 46.0198 134.207 46.1797C133.675 44.6205 132.761 43.1948 131.509 42.0078C129.421 40.0277 126.655 38.9608 123.722 39.0011C120.922 39.0404 118.272 40.1148 116.26 42.0265C114.248 43.9385 113.099 46.4746 113.024 49.1677C112.932 52.4785 114.495 55.663 117.208 57.6994C115.452 60.8326 114.519 64.3323 114.517 67.9571C114.514 73.8352 116.897 79.368 121.227 83.5363C125.556 87.7045 131.305 90 137.413 90C142.67 90 147.809 88.2346 151.883 85.029C152.215 84.7678 152.264 84.2972 151.993 83.9777C151.722 83.6584 151.232 83.6112 150.9 83.8722C147.103 86.8602 142.313 88.5059 137.413 88.5059C131.72 88.5059 126.361 86.3659 122.325 82.4801C118.288 78.5942 116.067 73.4368 116.07 67.9579C116.072 64.8016 116.835 61.7475 118.272 58.9771C118.338 59.1141 118.397 59.2557 118.445 59.403L118.824 60.5564C118.1 60.9962 117.618 61.7721 117.618 62.6547C117.618 63.319 117.891 63.9228 118.335 64.3685C118.331 64.3854 118.328 64.402 118.324 64.4188C117.887 64.8635 117.618 65.4629 117.618 66.122C117.618 66.5866 117.752 67.0217 117.984 67.3939C117.976 67.6332 117.972 67.8732 117.974 68.114C118.013 73.0358 120.04 77.6763 123.682 81.1808C127.324 84.6853 132.147 86.636 137.262 86.6739C137.312 86.6742 137.363 86.6744 137.414 86.6744C142.475 86.6743 147.264 84.8098 150.915 81.4149C154.538 78.0447 156.636 73.5466 156.837 68.7279L158.741 68.7594C158.553 73.4629 156.669 77.993 153.42 81.5375C153.136 81.8469 153.167 82.319 153.488 82.592C153.81 82.865 154.301 82.8353 154.584 82.5259C158.124 78.6647 160.154 73.7127 160.3 68.5821C160.31 68.2386 160.179 67.9125 159.932 67.664C159.685 67.4153 159.352 67.2751 158.995 67.2692ZM119.171 62.6547C119.171 62.1108 119.631 61.6682 120.196 61.6682H127.572C128.137 61.6682 128.597 62.1108 128.597 62.6547C128.597 63.1987 128.137 63.6413 127.572 63.6413H120.196C119.631 63.6413 119.171 63.1987 119.171 62.6547ZM123.884 51.1597C122.906 51.1597 122.111 50.3945 122.111 49.454C122.111 48.5135 122.906 47.7483 123.884 47.7483C124.861 47.7483 125.656 48.5135 125.656 49.454C125.656 50.3945 124.861 51.1597 123.884 51.1597ZM128.597 66.122C128.597 66.6659 128.137 67.1085 127.571 67.1085H120.196C119.631 67.1085 119.171 66.6659 119.171 66.122C119.171 65.578 119.631 65.1354 120.196 65.1354H127.571C128.137 65.1354 128.597 65.578 128.597 66.122ZM124.879 70.8979H122.926C122.569 70.8979 122.255 70.6544 122.18 70.3189L121.795 68.6025H125.995L125.626 70.3133C125.553 70.6521 125.239 70.8979 124.879 70.8979ZM133.136 60.3133C133.668 60.0376 134.232 59.813 134.812 59.6456C135.42 59.4704 135.828 58.9442 135.828 58.3361V55.5302C136.876 55.4076 137.95 55.4076 138.998 55.5302V58.3361C138.998 58.9442 139.406 59.4704 140.014 59.6456C140.594 59.813 141.158 60.0376 141.69 60.3132C142.248 60.6027 142.924 60.5083 143.37 60.0784L145.431 58.0951C146.266 58.724 147.02 59.4487 147.673 60.2524L145.612 62.2356C145.165 62.6654 145.067 63.3153 145.368 63.8528C145.654 64.3648 145.888 64.9074 146.062 65.4655C146.244 66.05 146.791 66.4428 147.423 66.4428H150.339C150.402 66.9472 150.435 67.4597 150.435 67.9681C150.435 68.4765 150.402 68.9891 150.339 69.4934H147.423C146.791 69.4934 146.244 69.8862 146.062 70.4706C145.888 71.0287 145.654 71.5714 145.368 72.0836C145.067 72.621 145.165 73.2708 145.612 73.7006L147.673 75.684C147.02 76.4874 146.266 77.2123 145.431 77.8412L143.37 75.8579C142.924 75.4281 142.248 75.3335 141.69 75.6229C141.158 75.8985 140.594 76.1231 140.014 76.2906C139.406 76.4659 138.998 76.9921 138.998 77.6001V80.406C137.949 80.5288 136.877 80.5288 135.828 80.406V77.6001C135.828 76.9921 135.42 76.4659 134.812 76.2906C134.232 76.1231 133.668 75.8985 133.136 75.6229C132.578 75.3336 131.902 75.4281 131.455 75.8579L129.394 77.8411C128.559 77.2123 127.806 76.4874 127.153 75.684L129.214 73.7006C129.66 73.2708 129.759 72.621 129.458 72.0835C129.171 71.5716 128.938 71.0289 128.764 70.4706C128.582 69.8861 128.035 69.4934 127.403 69.4934H127.389L127.581 68.6022C128.998 68.597 130.149 67.4864 130.149 66.1219C130.149 65.4477 129.868 64.8358 129.413 64.3883C129.868 63.9407 130.149 63.3288 130.149 62.6546C130.149 61.772 129.667 60.9961 128.944 60.5563L129.33 59.3796C129.435 59.06 129.592 58.7577 129.794 58.4791L131.456 60.0782C131.902 60.5083 132.578 60.6027 133.136 60.3133ZM137.604 47.4304H153.081C153.636 47.4304 154.088 46.9959 154.088 46.4616V45.7578L158.131 48.3463L154.088 50.9347V50.2308C154.088 49.6966 153.636 49.262 153.081 49.262H137.413C136.514 49.262 135.624 49.3215 134.748 49.437C134.746 48.8267 134.692 48.2247 134.585 47.636C135.578 47.5009 136.586 47.4304 137.604 47.4304ZM114.576 49.2077C114.64 46.9021 115.626 44.7293 117.351 43.0897C119.077 41.4502 121.347 40.5287 123.744 40.495C126.259 40.4627 128.63 41.3749 130.419 43.072C132.209 44.7696 133.195 47.036 133.195 49.4541C133.195 52.2275 131.891 54.8002 129.617 56.5125C128.771 57.1497 128.16 57.9856 127.85 58.9296L127.441 60.1742H124.66V55.7857C127.232 55.4986 129.405 53.7999 130.201 51.3776C130.33 50.9842 130.104 50.5645 129.695 50.44C129.286 50.3154 128.85 50.5338 128.721 50.9271C128.13 52.7241 126.549 54.0006 124.66 54.2779V52.5649C126.12 52.2274 127.209 50.9612 127.209 49.454C127.209 47.6896 125.717 46.2542 123.884 46.2542C122.05 46.2542 120.558 47.6896 120.558 49.454C120.558 50.9611 121.647 52.2273 123.107 52.5648V54.2777C120.678 53.917 118.811 51.8914 118.811 49.454C118.811 46.7627 121.087 44.5731 123.884 44.5731C126.067 44.5731 128 45.9114 128.693 47.9032C128.829 48.2945 129.269 48.5052 129.676 48.3742C130.082 48.2432 130.302 47.8198 130.165 47.4286C129.26 44.8269 126.735 43.0789 123.884 43.0789C120.231 43.0789 117.259 45.9388 117.259 49.454C117.259 52.7163 119.819 55.4125 123.107 55.7838V60.174H120.326L119.925 58.9528C119.606 57.9814 119.011 57.1512 118.204 56.5522C115.853 54.8079 114.496 52.0623 114.576 49.2077Z" fill="#4794EF"/>
<path d="M163.799 59.0137L161.317 54.876C161.076 54.4745 160.627 54.2252 160.145 54.2252H155.18C154.699 54.2252 154.25 54.4745 154.009 54.8759L151.526 59.0136C151.285 59.4151 151.285 59.9137 151.526 60.315L154.009 64.4529C154.25 64.8542 154.699 65.1036 155.18 65.1036H160.145C160.627 65.1036 161.076 64.8542 161.317 64.4528L163.799 60.315C164.04 59.9137 164.04 59.4151 163.799 59.0137ZM160.03 63.6095H155.296L152.929 59.6645L155.296 55.7195H160.03L162.397 59.6645L160.03 63.6095Z" fill="#4794EF"/>
<path d="M157.663 56.8292C156.038 56.8292 154.717 58.101 154.717 59.6643C154.717 61.2276 156.038 62.4994 157.663 62.4994C159.287 62.4994 160.609 61.2276 160.609 59.6643C160.609 58.101 159.287 56.8292 157.663 56.8292ZM157.663 61.0052C156.894 61.0052 156.269 60.4037 156.269 59.6643C156.269 58.9249 156.894 58.3234 157.663 58.3234C158.431 58.3234 159.056 58.9249 159.056 59.6643C159.056 60.4037 158.431 61.0052 157.663 61.0052Z" fill="#4794EF"/>
</g>
<path d="M111.459 138.353H136.541V99.5294" stroke="black" stroke-width="0.881657" stroke-dasharray="2.64 4.41"/>
<ellipse cx="137.081" cy="100.081" rx="4" ry="4.08088" fill="#EA8E70"/>
<ellipse cx="112" cy="138.022" rx="4" ry="4.08088" fill="#EA8E70"/>
<path d="M102.874 63.2V38.1201L64.8064 38.1201" stroke="black" stroke-width="0.881657" stroke-dasharray="2.64 4.41"/>
<ellipse cx="65.0071" cy="37.92" rx="4" ry="4.00712" transform="rotate(-90 65.0071 37.92)" fill="#EA8E70"/>
<ellipse cx="103.075" cy="63" rx="4" ry="4.00712" transform="rotate(-90 103.075 63)" fill="#EA8E70"/>
<g clip-path="url(#clip1)">
<path d="M33.5781 16.4062C33.5781 17.0395 34.0933 17.5547 34.7266 17.5547H38.4453C39.0786 17.5547 39.5938 17.0395 39.5938 16.4062V12.6875C39.5938 12.0542 39.0786 11.5391 38.4453 11.5391H34.7266C34.0933 11.5391 33.5781 12.0542 33.5781 12.6875V16.4062ZM35.2188 13.1797H37.9531V15.9141H35.2188V13.1797Z" fill="#4794EF"/>
<path d="M24.3566 7.53882H9.65918C9.20615 7.53882 8.83887 7.9061 8.83887 8.35913C8.83887 8.81216 9.20615 9.17944 9.65918 9.17944H24.3566C24.8096 9.17944 25.1769 8.81216 25.1769 8.35913C25.1769 7.9061 24.8096 7.53882 24.3566 7.53882Z" fill="#4794EF"/>
<path d="M24.3566 12.1H9.65918C9.20615 12.1 8.83887 12.4673 8.83887 12.9203C8.83887 13.3733 9.20615 13.7406 9.65918 13.7406H24.3566C24.8096 13.7406 25.1769 13.3733 25.1769 12.9203C25.1769 12.4673 24.8096 12.1 24.3566 12.1Z" fill="#4794EF"/>
<path d="M24.3566 16.6613H9.65918C9.20615 16.6613 8.83887 17.0285 8.83887 17.4816C8.83887 17.9346 9.20615 18.3019 9.65918 18.3019H24.3566C24.8096 18.3019 25.1769 17.9346 25.1769 17.4816C25.1769 17.0285 24.8096 16.6613 24.3566 16.6613Z" fill="#4794EF"/>
<path d="M16.2476 27.4244C16.7006 27.4244 17.0679 27.0572 17.0679 26.6041C17.0679 26.1511 16.7006 25.7838 16.2476 25.7838H9.65918C9.20615 25.7838 8.83887 26.1511 8.83887 26.6041C8.83887 27.0572 9.20615 27.4244 9.65918 27.4244H16.2476Z" fill="#4794EF"/>
<path d="M42.8203 13.1797H47.6328C48.2661 13.1797 48.7812 12.6645 48.7812 12.0312V7.21875C48.7812 6.58547 48.2661 6.07031 47.6328 6.07031H42.8203C42.187 6.07031 41.6719 6.58547 41.6719 7.21875V12.0312C41.6719 12.6645 42.187 13.1797 42.8203 13.1797ZM43.3125 7.71094H47.1406V11.5391H43.3125V7.71094Z" fill="#4794EF"/>
<path d="M30.2553 23.7651H24.3862C23.9332 23.7651 23.5659 24.1324 23.5659 24.5854C23.5659 25.0385 23.9332 25.4058 24.3862 25.4058H30.2553C30.7083 25.4058 31.0756 25.0385 31.0756 24.5854C31.0756 24.1324 30.7083 23.7651 30.2553 23.7651Z" fill="#4794EF"/>
<path d="M47.7244 25.4058C48.1774 25.4058 48.5447 25.0385 48.5447 24.5854C48.5447 24.1324 48.1774 23.7651 47.7244 23.7651C47.2713 23.7651 46.9041 24.1324 46.9041 24.5854C46.9041 25.0385 47.2713 25.4058 47.7244 25.4058Z" fill="#4794EF"/>
<path d="M45.4275 25.4058C45.8805 25.4058 46.2478 25.0385 46.2478 24.5854C46.2478 24.1324 45.8805 23.7651 45.4275 23.7651C44.9744 23.7651 44.6072 24.1324 44.6072 24.5854C44.6072 25.0385 44.9744 25.4058 45.4275 25.4058Z" fill="#4794EF"/>
<path d="M43.1306 25.4058C43.5837 25.4058 43.9509 25.0385 43.9509 24.5854C43.9509 24.1324 43.5837 23.7651 43.1306 23.7651C42.6776 23.7651 42.3103 24.1324 42.3103 24.5854C42.3103 25.0385 42.6776 25.4058 43.1306 25.4058Z" fill="#4794EF"/>
<path d="M24.3862 32.5065C23.9332 32.5065 23.5659 32.8737 23.5659 33.3268C23.5659 33.7798 23.9332 34.1471 24.3862 34.1471H30.2553C30.7083 34.1471 31.0756 33.7798 31.0756 33.3268C31.0756 32.8737 30.7083 32.5065 30.2553 32.5065H24.3862Z" fill="#4794EF"/>
<path d="M47.7244 34.1471C48.1774 34.1471 48.5447 33.7798 48.5447 33.3268C48.5447 32.8737 48.1774 32.5065 47.7244 32.5065C47.2713 32.5065 46.9041 32.8737 46.9041 33.3268C46.9041 33.7798 47.2713 34.1471 47.7244 34.1471Z" fill="#4794EF"/>
<path d="M45.4275 34.1471C45.8805 34.1471 46.2478 33.7798 46.2478 33.3268C46.2478 32.8737 45.8805 32.5065 45.4275 32.5065C44.9744 32.5065 44.6072 32.8737 44.6072 33.3268C44.6072 33.7798 44.9744 34.1471 45.4275 34.1471Z" fill="#4794EF"/>
<path d="M43.1306 34.1471C43.5837 34.1471 43.9509 33.7798 43.9509 33.3268C43.9509 32.8737 43.5837 32.5065 43.1306 32.5065C42.6776 32.5065 42.3103 32.8737 42.3103 33.3268C42.3103 33.7798 42.6776 34.1471 43.1306 34.1471Z" fill="#4794EF"/>
<path d="M24.3862 42.8883H30.2553C30.7083 42.8883 31.0756 42.521 31.0756 42.068C31.0756 41.615 30.7083 41.2477 30.2553 41.2477H24.3862C23.9332 41.2477 23.5659 41.615 23.5659 42.068C23.5659 42.521 23.9332 42.8883 24.3862 42.8883Z" fill="#4794EF"/>
<path d="M47.7244 42.8883C48.1774 42.8883 48.5447 42.521 48.5447 42.068C48.5447 41.6149 48.1774 41.2477 47.7244 41.2477C47.2713 41.2477 46.9041 41.6149 46.9041 42.068C46.9041 42.521 47.2713 42.8883 47.7244 42.8883Z" fill="#4794EF"/>
<path d="M45.4275 42.8883C45.8805 42.8883 46.2478 42.521 46.2478 42.068C46.2478 41.6149 45.8805 41.2477 45.4275 41.2477C44.9744 41.2477 44.6072 41.6149 44.6072 42.068C44.6072 42.521 44.9744 42.8883 45.4275 42.8883Z" fill="#4794EF"/>
<path d="M43.1306 42.8883C43.5837 42.8883 43.9509 42.521 43.9509 42.068C43.9509 41.6149 43.5837 41.2477 43.1306 41.2477C42.6776 41.2477 42.3103 41.6149 42.3103 42.068C42.3103 42.521 42.6776 42.8883 43.1306 42.8883Z" fill="#4794EF"/>
<path d="M52.6094 20.7618C52.6094 20.0079 51.9961 19.3946 51.2422 19.3946H30.625V16.625C30.625 16.172 30.2577 15.8047 29.8047 15.8047C29.3517 15.8047 28.9844 16.172 28.9844 16.625V19.3946H21.069C20.3151 19.3946 19.7018 20.0079 19.7018 20.7618V21.2226H9.65912C9.20609 21.2226 8.83881 21.5899 8.83881 22.0429C8.83881 22.4959 9.20609 22.8632 9.65912 22.8632H19.7018V28.4093C19.7018 28.6038 19.7433 28.7885 19.8168 28.9562C19.7433 29.1238 19.7018 29.3086 19.7018 29.503V32.0556H5.03125V6.35491L9.74553 1.64062H28.9844V3.44531H27.7266C27.0933 3.44531 26.5781 3.96047 26.5781 4.59375V9.40625C26.5781 10.0395 27.0933 10.5547 27.7266 10.5547H28.9844V12.7969C28.9844 13.2499 29.3517 13.6172 29.8047 13.6172C30.2577 13.6172 30.625 13.2499 30.625 12.7969V10.5547H32.5391C33.1723 10.5547 33.6875 10.0395 33.6875 9.40625V4.59375C33.6875 3.96047 33.1723 3.44531 32.5391 3.44531H30.625V1.37517C30.625 0.616875 30.0081 0 29.2498 0H9.63561C9.26811 0 8.9227 0.143063 8.66316 0.402828L3.79345 5.27253C3.53369 5.5323 3.39062 5.87759 3.39062 6.24487V32.321C3.39062 33.0793 4.0075 33.6961 4.7658 33.6961H19.7018V37.1504C19.7018 37.3449 19.7433 37.5296 19.8168 37.6973C19.7433 37.865 19.7018 38.0497 19.7018 38.2442V45.8917C19.7018 46.0861 19.7433 46.2709 19.8168 46.4385C19.7433 46.6062 19.7018 46.791 19.7018 46.9854V54.6329C19.7018 55.3868 20.3151 56.0001 21.069 56.0001H51.2422C51.9961 56.0001 52.6094 55.3868 52.6094 54.6329V46.9854C52.6094 46.791 52.5679 46.6062 52.4944 46.4385C52.5679 46.2709 52.6094 46.0861 52.6094 45.8917V38.2442C52.6094 38.0497 52.5679 37.865 52.4944 37.6973C52.5679 37.5296 52.6094 37.3449 52.6094 37.1504V35.3281C52.6094 34.8751 52.2421 34.5078 51.7891 34.5078C51.336 34.5078 50.9688 34.8751 50.9688 35.3281V36.877H21.3425V29.7765H50.9688V31.5C50.9688 31.953 51.336 32.3203 51.7891 32.3203C52.2421 32.3203 52.6094 31.953 52.6094 31.5V29.5029C52.6094 29.3085 52.5679 29.1237 52.4944 28.956C52.5679 28.7884 52.6094 28.6036 52.6094 28.4092V20.7618ZM32.0469 8.91406H28.2188V5.08594H32.0469V8.91406ZM50.9688 38.5176V45.6181H44.9531C44.5001 45.6181 44.1328 45.9854 44.1328 46.4384C44.1328 46.8915 44.5001 47.2587 44.9531 47.2587H50.9688V54.3594H21.3425V47.2587H41.125C41.578 47.2587 41.9453 46.8915 41.9453 46.4384C41.9453 45.9854 41.578 45.6181 41.125 45.6181H21.3425V38.5176H50.9688ZM21.3425 28.1357V21.0352H50.9688V28.1357H21.3425Z" fill="#4794EF"/>
<path d="M30.2553 49.9888H24.3862C23.9332 49.9888 23.5659 50.3561 23.5659 50.8091C23.5659 51.2621 23.9332 51.6294 24.3862 51.6294H30.2553C30.7083 51.6294 31.0756 51.2621 31.0756 50.8091C31.0756 50.3561 30.7083 49.9888 30.2553 49.9888Z" fill="#4794EF"/>
<path d="M47.7244 51.6294C48.1774 51.6294 48.5447 51.2621 48.5447 50.8091C48.5447 50.356 48.1774 49.9888 47.7244 49.9888C47.2713 49.9888 46.9041 50.356 46.9041 50.8091C46.9041 51.2621 47.2713 51.6294 47.7244 51.6294Z" fill="#4794EF"/>
<path d="M45.4275 51.6294C45.8805 51.6294 46.2478 51.2621 46.2478 50.8091C46.2478 50.356 45.8805 49.9888 45.4275 49.9888C44.9744 49.9888 44.6072 50.356 44.6072 50.8091C44.6072 51.2621 44.9744 51.6294 45.4275 51.6294Z" fill="#4794EF"/>
<path d="M43.1306 51.6294C43.5837 51.6294 43.9509 51.2621 43.9509 50.8091C43.9509 50.356 43.5837 49.9888 43.1306 49.9888C42.6776 49.9888 42.3103 50.356 42.3103 50.8091C42.3103 51.2621 42.6776 51.6294 43.1306 51.6294Z" fill="#4794EF"/>
<path d="M16.8438 35.3828H12.0312C11.398 35.3828 10.8828 35.898 10.8828 36.5312V41.3438C10.8828 41.977 11.398 42.4922 12.0312 42.4922H16.8438C17.477 42.4922 17.9922 41.977 17.9922 41.3438V36.5312C17.9922 35.898 17.477 35.3828 16.8438 35.3828ZM16.3516 40.8516H12.5234V37.0234H16.3516V40.8516Z" fill="#4794EF"/>
</g>
<g clip-path="url(#clip2)">
<path d="M107.51 121.089L99.8616 115.461C99.4946 115.191 99.0141 115.151 98.6074 115.357C98.2008 115.562 97.9482 115.973 97.9482 116.429V118.68H92.5975C91.9984 115.454 90.4255 112.493 88.0307 110.153C85.4 107.583 82.0419 106.023 78.4314 105.662C77.4889 102.274 74.3788 99.7804 70.6951 99.7804C68.3952 99.7804 66.2645 100.733 64.7437 102.418C63.8896 102.041 62.9618 101.844 62.0224 101.844C59.709 101.844 57.6656 103.016 56.4503 104.796C55.6771 104.423 54.8105 104.214 53.8959 104.214C50.6448 104.214 47.9998 106.859 47.9998 110.11C47.9998 111.591 48.5498 112.946 49.4549 113.982C49.3468 114.419 49.2874 114.874 49.2874 115.343C49.2874 118.48 51.8394 121.032 54.9763 121.032H60.7491C60.7453 121.132 60.7397 121.233 60.7378 121.334C60.6857 124.074 61.3404 126.748 62.5846 129.117H58.0513V126.966C58.0513 126.513 57.8004 126.103 57.3967 125.897C56.993 125.69 56.5138 125.727 56.1459 125.993L48.4972 131.524C48.1873 131.748 48.0014 132.11 47.9998 132.492C47.9982 132.875 48.1812 133.238 48.4891 133.465L56.1381 139.092C56.3493 139.248 56.5982 139.327 56.8487 139.327C57.0336 139.327 57.2196 139.284 57.3921 139.197C57.7986 138.991 58.0512 138.58 58.0512 138.125V135.873H60.3045C60.7898 135.873 61.1834 135.48 61.1834 134.994C61.1834 134.509 60.7898 134.115 60.3045 134.115H57.4948C56.8323 134.115 56.2934 134.654 56.2934 135.317V137.025L50.1454 132.501L56.2934 128.055V129.673C56.2934 130.336 56.8323 130.875 57.4948 130.875H63.6574C64.5006 132.078 65.5118 133.171 66.6718 134.115H64.406C63.9206 134.115 63.5271 134.509 63.5271 134.994C63.5271 135.48 63.9206 135.873 64.406 135.873H68.2287C68.3632 136.216 68.4362 136.582 68.4362 136.954V141.539H67.3357C66.205 141.539 65.2849 142.459 65.2849 143.59V146.168C65.2849 147.299 66.205 148.219 67.3357 148.219H78.3513C78.8367 148.219 79.2302 147.826 79.2302 147.34C79.2302 146.855 78.8367 146.461 78.3513 146.461H67.3357C67.1742 146.461 67.0427 146.33 67.0427 146.168V143.59C67.0427 143.429 67.1742 143.297 67.3357 143.297H85.3826C85.5441 143.297 85.6755 143.429 85.6755 143.59V146.168C85.6755 146.33 85.5441 146.461 85.3826 146.461H82.4529C81.9675 146.461 81.574 146.855 81.574 147.34C81.574 147.826 81.9675 148.219 82.4529 148.219H85.3826C86.5133 148.219 87.4334 147.299 87.4334 146.168V143.59C87.4334 142.459 86.5133 141.539 85.3826 141.539H83.3147V139.23C83.3147 139.18 83.355 139.14 83.4046 139.14H86.3568C89.1618 139.14 91.4439 136.858 91.4439 134.053V130.958C91.4439 130.909 91.4842 130.868 91.5337 130.868H93.9739C95.3312 130.868 96.4353 129.764 96.4353 128.407C96.4353 127.986 96.3262 127.569 96.1199 127.201L95.1285 125.437H97.9484V127.587C97.9484 128.041 98.1993 128.451 98.603 128.657C98.7765 128.746 98.9639 128.79 99.1505 128.79C99.398 128.79 99.6439 128.712 99.8537 128.561L107.502 123.03C107.812 122.806 107.998 122.444 108 122.061C108.001 121.679 107.818 121.315 107.51 121.089ZM49.7576 110.11C49.7576 107.828 51.6141 105.972 53.8961 105.972C56.178 105.972 58.0345 107.828 58.0345 110.11C58.0345 112.392 56.178 114.249 53.8961 114.249C51.6141 114.249 49.7576 112.392 49.7576 110.11ZM93.9738 129.111H91.5336C90.5148 129.111 89.6859 129.94 89.6859 130.958V134.053C89.6859 135.889 88.1924 137.382 86.3566 137.382H83.4044C82.3856 137.382 81.5568 138.211 81.5568 139.23V141.539H70.1939V136.954C70.1939 135.461 69.4697 134.029 68.2567 133.125C64.5614 130.369 62.4075 125.973 62.4953 121.367C62.4974 121.255 62.5012 121.143 62.5061 121.032H71.4373C71.9227 121.032 72.3162 120.638 72.3162 120.153C72.3162 119.667 71.9227 119.274 71.4373 119.274H54.9764C52.8088 119.274 51.0454 117.51 51.0454 115.343C51.0454 115.319 51.0473 115.295 51.0477 115.271C51.8926 115.739 52.8635 116.007 53.8961 116.007C57.1473 116.007 59.7923 113.362 59.7923 110.11C59.7923 108.404 59.063 106.865 57.9004 105.788C58.7987 104.47 60.3108 103.603 62.0224 103.603C62.9038 103.603 63.771 103.837 64.5305 104.28C64.9158 104.505 65.4082 104.405 65.6761 104.048C66.8743 102.453 68.7036 101.538 70.6952 101.538C74.1541 101.538 76.968 104.352 76.968 107.811C76.968 108.636 76.8095 109.439 76.4968 110.198C76.3852 110.469 76.4161 110.778 76.5792 111.022C76.7423 111.265 77.0162 111.411 77.3095 111.411H79.0266C81.1942 111.411 82.9576 113.175 82.9576 115.343C82.9576 117.51 81.1942 119.274 79.0266 119.274H75.5388C75.0534 119.274 74.6599 119.667 74.6599 120.153C74.6599 120.638 75.0534 121.032 75.5388 121.032H79.0264C82.1633 121.032 84.7153 118.48 84.7153 115.343C84.7153 112.206 82.1633 109.654 79.0264 109.654H78.5128C78.6545 109.053 78.7259 108.437 78.7259 107.811C78.7259 107.695 78.722 107.579 78.7171 107.464C81.756 107.868 84.5728 109.232 86.8023 111.411C89.5195 114.066 91.0494 117.618 91.1102 121.412C91.1153 121.722 91.1968 122.027 91.3464 122.293L94.5874 128.062C94.6464 128.167 94.6777 128.287 94.6777 128.407C94.6774 128.795 94.3618 129.111 93.9738 129.111ZM99.7062 126.498V124.88C99.7062 124.218 99.1672 123.679 98.5049 123.679H94.1409L92.8791 121.433C92.8721 121.42 92.8682 121.403 92.8678 121.384C92.8628 121.067 92.8474 120.752 92.8242 120.438H98.5049C99.1673 120.438 99.7062 119.899 99.7062 119.237V117.529L105.854 122.052L99.7062 126.498Z" fill="#4794EF"/>
<path d="M56.785 109.564C57.1282 109.221 57.1282 108.665 56.785 108.321C56.4417 107.978 55.8852 107.978 55.5421 108.321L53.5771 110.286L52.2496 108.959C51.9065 108.616 51.3499 108.616 51.0067 108.959C50.6635 109.302 50.6635 109.859 51.0067 110.202L52.9556 112.151C53.1204 112.316 53.344 112.408 53.5771 112.408C53.8102 112.408 54.0338 112.316 54.1985 112.151L56.785 109.564Z" fill="#4794EF"/>
<path d="M73.532 108.168H61.9092C61.4238 108.168 61.0303 108.562 61.0303 109.047C61.0303 109.533 61.4238 109.926 61.9092 109.926H73.532C74.0173 109.926 74.4109 109.533 74.4109 109.047C74.4109 108.562 74.0173 108.168 73.532 108.168Z" fill="#4794EF"/>
<path d="M73.532 111.284H61.9092C61.4238 111.284 61.0303 111.677 61.0303 112.162C61.0303 112.648 61.4238 113.041 61.9092 113.041H73.532C74.0173 113.041 74.4109 112.648 74.4109 112.162C74.4109 111.677 74.0173 111.284 73.532 111.284Z" fill="#4794EF"/>
<path d="M70.72 114.399H61.9092C61.4238 114.399 61.0303 114.792 61.0303 115.278C61.0303 115.763 61.4238 116.157 61.9092 116.157H70.72C71.2054 116.157 71.5989 115.763 71.5989 115.278C71.5989 114.792 71.2054 114.399 70.72 114.399Z" fill="#4794EF"/>
</g>
<defs>
<clipPath id="clip0">
<rect width="53" height="51" fill="white" transform="translate(112 39)"/>
</clipPath>
<clipPath id="clip1">
<rect width="56" height="56" fill="white"/>
</clipPath>
<clipPath id="clip2">
<rect width="60" height="60" fill="white" transform="translate(48 94)"/>
</clipPath>
</defs>
</svg>
