<svg width="168" height="164" viewBox="0 0 168 164" fill="none" xmlns="http://www.w3.org/2000/svg">
<path d="M57.5431 37.6469L32.462 37.6463L32.4609 76.4698" stroke="black" stroke-width="0.881657" stroke-dasharray="2.64 4.41"/>
<ellipse cx="31.9205" cy="75.918" rx="4" ry="4.08088" transform="rotate(-179.998 31.9205 75.918)" fill="#EA8E70"/>
<ellipse cx="57.0026" cy="36.9776" rx="4" ry="4.08088" transform="rotate(-179.998 57.0026 36.9776)" fill="#EA8E70"/>
<path d="M66.1269 112.8L66.1262 137.88L104.194 137.881" stroke="black" stroke-width="0.881657" stroke-dasharray="2.64 4.41"/>
<ellipse cx="103.993" cy="138.081" rx="4" ry="4.00712" transform="rotate(90.0016 103.993 138.081)" fill="#EA8E70"/>
<ellipse cx="64.9259" cy="113" rx="4" ry="4.00712" transform="rotate(90.0016 64.9259 113)" fill="#EA8E70"/>
<path d="M13.6539 107.257C13.8049 107.408 14.0037 107.485 14.203 107.485C14.3849 107.485 14.5672 107.421 14.714 107.293C15.1937 106.873 15.744 106.569 16.3493 106.389C16.6785 106.291 16.9042 105.988 16.9042 105.645V100.243C16.9042 100.018 16.8067 99.8039 16.6369 99.6564C16.4671 99.509 16.2422 99.4427 16.0191 99.4738C13.7308 99.7973 11.6241 100.808 9.92701 102.396C9.77339 102.54 9.68478 102.74 9.68126 102.95C9.67774 103.161 9.75983 103.363 9.90858 103.512L13.6539 107.257ZM15.3514 101.178V105.096C14.9711 105.251 14.6097 105.445 14.2695 105.677L11.5971 103.005C12.7065 102.124 13.9816 101.504 15.3514 101.178Z" fill="#4794EF"/>
<path d="M21.6096 120.176C21.6823 120.389 21.8439 120.56 22.0524 120.645C22.1462 120.683 22.2454 120.702 22.3444 120.702C22.4655 120.702 22.5864 120.674 22.6968 120.617C25.9634 118.953 28.2187 115.801 28.7299 112.185C28.7614 111.962 28.6948 111.737 28.5473 111.567C28.3999 111.397 28.1861 111.3 27.9612 111.3H22.5591C22.2156 111.3 21.9129 111.525 21.815 111.855C21.5379 112.786 20.9466 113.611 20.1499 114.179C19.8707 114.378 19.7551 114.737 19.8658 115.062L21.6096 120.176ZM23.107 112.853H27.0248C26.4404 115.302 24.9131 117.436 22.7765 118.787L21.5121 115.079C22.2081 114.47 22.7567 113.704 23.107 112.853V112.853Z" fill="#4794EF"/>
<path d="M33.3625 97.5774H22.1999C21.5435 97.5774 21.0095 98.1114 21.0095 98.7678V99.8915C20.4221 99.7037 19.8148 99.562 19.1907 99.4738C18.9679 99.4424 18.7426 99.509 18.5729 99.6564C18.4032 99.8038 18.3057 100.018 18.3057 100.243V105.645C18.3057 105.988 18.5313 106.291 18.8605 106.389C20.2861 106.813 21.3907 107.918 21.8152 109.343C21.9131 109.673 22.2158 109.898 22.5592 109.898H27.9615C28.1863 109.898 28.4002 109.801 28.5476 109.631C28.6951 109.461 28.7617 109.236 28.7302 109.013C28.4833 107.267 27.828 105.649 26.8679 104.254H33.3624C34.0188 104.254 34.5529 103.72 34.5529 103.064V98.7678C34.553 98.1114 34.0189 97.5774 33.3625 97.5774V97.5774ZM27.0248 108.346H23.1082C22.5049 106.867 21.3374 105.699 19.8584 105.096V101.179C20.252 101.273 20.6359 101.392 21.0095 101.534V103.064C21.0095 103.72 21.5435 104.254 22.1999 104.254H24.9121C25.9192 105.412 26.6573 106.809 27.0248 108.346V108.346ZM33.0002 102.702H22.5622V99.1301H33.0002V102.702Z" fill="#4794EF"/>
<path d="M24.0449 101.692H25.6089C26.0377 101.692 26.3853 101.345 26.3853 100.916C26.3853 100.487 26.0377 100.14 25.6089 100.14H24.0449C23.6162 100.14 23.2686 100.487 23.2686 100.916C23.2686 101.345 23.6162 101.692 24.0449 101.692Z" fill="#4794EF"/>
<path d="M27.6387 101.692H31.5173C31.9461 101.692 32.2937 101.345 32.2937 100.916C32.2937 100.487 31.9461 100.14 31.5173 100.14H27.6387C27.2099 100.14 26.8623 100.487 26.8623 100.916C26.8623 101.345 27.2099 101.692 27.6387 101.692Z" fill="#4794EF"/>
<path d="M2.99023 120.3H6.10761C6.53637 120.3 6.88398 119.953 6.88398 119.524C6.88398 119.095 6.53637 118.748 6.10761 118.748H2.99023C2.56147 118.748 2.21387 119.095 2.21387 119.524C2.21387 119.953 2.56147 120.3 2.99023 120.3Z" fill="#4794EF"/>
<path d="M8.1875 120.3H9.63123C10.06 120.3 10.4076 119.953 10.4076 119.524C10.4076 119.095 10.06 118.748 9.63123 118.748H8.1875C7.75874 118.748 7.41113 119.095 7.41113 119.524C7.41113 119.953 7.75874 120.3 8.1875 120.3Z" fill="#4794EF"/>
<path d="M31.4038 113.067H31.0093C30.5805 113.067 30.2329 113.414 30.2329 113.843C30.2329 114.272 30.5805 114.62 31.0093 114.62H31.4038C31.8325 114.62 32.1801 114.272 32.1801 113.843C32.1801 113.414 31.8325 113.067 31.4038 113.067Z" fill="#4794EF"/>
<path d="M31.4038 115.834H31.0093C30.5805 115.834 30.2329 116.182 30.2329 116.611C30.2329 117.039 30.5805 117.387 31.0093 117.387H31.4038C31.8325 117.387 32.1801 117.039 32.1801 116.611C32.1801 116.182 31.8325 115.834 31.4038 115.834Z" fill="#4794EF"/>
<path d="M31.4038 118.601H31.0093C30.5805 118.601 30.2329 118.949 30.2329 119.378C30.2329 119.806 30.5805 120.154 31.0093 120.154H31.4038C31.8325 120.154 32.1801 119.806 32.1801 119.378C32.1801 118.949 31.8325 118.601 31.4038 118.601Z" fill="#4794EF"/>
<path d="M31.4038 121.368H31.0093C30.5805 121.368 30.2329 121.716 30.2329 122.145C30.2329 122.573 30.5805 122.921 31.0093 122.921H31.4038C31.8325 122.921 32.1801 122.573 32.1801 122.145C32.1801 121.716 31.8325 121.368 31.4038 121.368Z" fill="#4794EF"/>
<path d="M43.7173 113.067H33.7368C33.3081 113.067 32.9604 113.414 32.9604 113.843C32.9604 114.272 33.3081 114.62 33.7368 114.62H43.7173C44.146 114.62 44.4936 114.272 44.4936 113.843C44.4936 113.414 44.146 113.067 43.7173 113.067Z" fill="#4794EF"/>
<path d="M43.7173 115.834H33.7368C33.3081 115.834 32.9604 116.182 32.9604 116.611C32.9604 117.039 33.3081 117.387 33.7368 117.387H43.7173C44.146 117.387 44.4936 117.039 44.4936 116.611C44.4936 116.182 44.146 115.834 43.7173 115.834Z" fill="#4794EF"/>
<path d="M44.4936 119.378C44.4936 118.949 44.146 118.601 43.7173 118.601H33.7368C33.3081 118.601 32.9604 118.949 32.9604 119.378C32.9604 119.806 33.3081 120.154 33.7368 120.154H43.7173C44.146 120.154 44.4936 119.807 44.4936 119.378Z" fill="#4794EF"/>
<path d="M33.7368 121.368C33.3081 121.368 32.9604 121.716 32.9604 122.145C32.9604 122.573 33.3081 122.921 33.7368 122.921H39.2545C39.6833 122.921 40.0309 122.573 40.0309 122.145C40.0309 121.716 39.6833 121.368 39.2545 121.368H33.7368Z" fill="#4794EF"/>
<path d="M32.188 107.462C31.0464 107.462 30.1177 108.39 30.1177 109.532C30.1177 110.674 31.0464 111.602 32.188 111.602C33.3296 111.602 34.2583 110.674 34.2583 109.532C34.2583 109.339 34.2298 109.153 34.1801 108.976L36.6072 107.103C36.9493 107.353 37.3694 107.503 37.8246 107.503C38.1881 107.503 38.5296 107.408 38.8268 107.243L41.4045 109.097C41.3961 109.173 41.3909 109.249 41.3909 109.327C41.3909 110.469 42.3197 111.397 43.4612 111.397C44.6028 111.397 45.5316 110.469 45.5316 109.327C45.5316 109.097 45.4921 108.876 45.4225 108.669L46.6974 107.394C46.9045 107.464 47.1254 107.503 47.3556 107.503C48.4972 107.503 49.4259 106.574 49.4259 105.433C49.4259 104.291 48.4972 103.362 47.3556 103.362C46.214 103.362 45.2853 104.291 45.2853 105.433C45.2853 105.774 45.3697 106.095 45.5163 106.379L44.4075 107.488C44.1235 107.341 43.8022 107.257 43.4612 107.257C42.9658 107.257 42.5108 107.432 42.1539 107.723L39.8052 106.034C39.8632 105.843 39.8949 105.642 39.8949 105.433C39.8949 104.291 38.9662 103.362 37.8246 103.362C36.683 103.362 35.7543 104.291 35.7543 105.433C35.7543 105.55 35.7664 105.664 35.7853 105.776L33.2311 107.747C32.9244 107.567 32.5686 107.462 32.188 107.462V107.462ZM32.188 110.05C31.9026 110.05 31.6704 109.817 31.6704 109.532C31.6704 109.247 31.9026 109.014 32.188 109.014C32.4734 109.014 32.7056 109.247 32.7056 109.532C32.7056 109.817 32.4734 110.05 32.188 110.05ZM47.3557 104.915C47.6411 104.915 47.8733 105.147 47.8733 105.433C47.8733 105.718 47.6411 105.95 47.3557 105.95C47.0703 105.95 46.8381 105.718 46.8381 105.433C46.8381 105.147 47.0703 104.915 47.3557 104.915ZM43.4613 108.809C43.7467 108.809 43.9789 109.042 43.9789 109.327C43.9789 109.612 43.7467 109.845 43.4613 109.845C43.176 109.845 42.9438 109.612 42.9438 109.327C42.9438 109.042 43.176 108.809 43.4613 108.809ZM37.8246 104.915C38.11 104.915 38.3422 105.147 38.3422 105.433C38.3422 105.718 38.11 105.95 37.8246 105.95C37.5392 105.95 37.307 105.718 37.307 105.433C37.307 105.147 37.5393 104.915 37.8246 104.915Z" fill="#4794EF"/>
<path d="M48.5342 99.1301C48.9629 99.1301 49.3105 98.7825 49.3105 98.3538C49.3105 97.925 48.9629 97.5774 48.5342 97.5774H44.6006C44.1718 97.5774 43.8242 97.925 43.8242 98.3538C43.8242 98.7825 44.1718 99.1301 44.6006 99.1301H48.5342Z" fill="#4794EF"/>
<path d="M41.9238 99.1301C42.3526 99.1301 42.7002 98.7825 42.7002 98.3538C42.7002 97.925 42.3526 97.5774 41.9238 97.5774H37.9902C37.5615 97.5774 37.2139 97.925 37.2139 98.3538C37.2139 98.7825 37.5615 99.1301 37.9902 99.1301H41.9238Z" fill="#4794EF"/>
<path d="M11.8525 98.3538C11.8525 97.925 11.5049 97.5774 11.0762 97.5774H7.14258C6.71382 97.5774 6.36621 97.925 6.36621 98.3538C6.36621 98.7825 6.71382 99.1301 7.14258 99.1301H11.0762C11.5049 99.1301 11.8525 98.7825 11.8525 98.3538Z" fill="#4794EF"/>
<path d="M48.5339 113.067H46.0742C45.6455 113.067 45.2979 113.414 45.2979 113.843C45.2979 114.272 45.6455 114.62 46.0742 114.62H48.5339C48.9626 114.62 49.3102 114.272 49.3102 113.843C49.3102 113.414 48.9626 113.067 48.5339 113.067Z" fill="#4794EF"/>
<path d="M48.5339 115.834H46.0742C45.6455 115.834 45.2979 116.182 45.2979 116.611C45.2979 117.039 45.6455 117.387 46.0742 117.387H48.5339C48.9626 117.387 49.3102 117.039 49.3102 116.611C49.3102 116.182 48.9626 115.834 48.5339 115.834Z" fill="#4794EF"/>
<path d="M48.5339 118.601H46.0742C45.6455 118.601 45.2979 118.949 45.2979 119.378C45.2979 119.806 45.6455 120.154 46.0742 120.154H48.5339C48.9626 120.154 49.3102 119.806 49.3102 119.378C49.3102 118.949 48.9626 118.601 48.5339 118.601Z" fill="#4794EF"/>
<path d="M48.5339 121.368H46.0742C45.6455 121.368 45.2979 121.716 45.2979 122.145C45.2979 122.573 45.6455 122.921 46.0742 122.921H48.5339C48.9626 122.921 49.3102 122.573 49.3102 122.145C49.3102 121.716 48.9626 121.368 48.5339 121.368Z" fill="#4794EF"/>
<path d="M51.1885 88.6614H46.2715C45.8427 88.6614 45.4951 89.009 45.4951 89.4377C45.4951 89.8665 45.8427 90.2141 46.2715 90.2141H51.1885C51.3311 90.2141 51.4473 90.3303 51.4473 90.4729V93.2878H12.1631V90.2141H42.6484C43.0772 90.2141 43.4248 89.8665 43.4248 89.4377C43.4248 89.009 43.0772 88.6614 42.6484 88.6614H4.20304C3.20422 88.6614 2.39152 89.4741 2.39152 90.4729V116.186H1.19043C0.534037 116.186 0 116.72 0 117.376V121.672C0 122.329 0.534037 122.863 1.19043 122.863H2.39152V127.044C2.39152 127.758 2.97193 128.338 3.68547 128.338H15.5273C15.9561 128.338 16.3037 127.991 16.3037 127.562C16.3037 127.133 15.9561 126.786 15.5273 126.786H3.94426V122.863H11.4306C12.087 122.863 12.621 122.329 12.621 121.672V120.662C14.0208 121.361 15.5824 121.778 17.2304 121.832C17.3544 121.836 17.4784 121.838 17.6024 121.838C18.305 121.838 19.0065 121.773 19.6926 121.644C19.9139 121.602 20.1063 121.467 20.2197 121.272C20.3332 121.078 20.3567 120.843 20.284 120.63L18.5409 115.518C18.4336 115.204 18.1383 114.992 17.806 114.992C17.806 114.992 17.8059 114.992 17.8058 114.992H17.6048C16.8368 114.992 16.0799 114.79 15.416 114.407C15.0443 114.193 14.5697 114.321 14.3557 114.693C14.1416 115.064 14.2692 115.539 14.6407 115.753C15.4367 116.212 16.331 116.479 17.2468 116.534L18.5114 120.243C18.1034 120.281 17.6922 120.293 17.2811 120.28C15.5844 120.224 13.9938 119.723 12.621 118.892V117.376C12.621 116.72 12.087 116.186 11.4306 116.186H9.70883C8.66001 114.712 8.00973 112.938 7.92805 111.023C7.86222 109.479 8.16003 107.96 8.79396 106.575L11.7546 109.536C11.6912 109.886 11.6591 110.242 11.6591 110.599C11.6591 111.255 11.7667 111.902 11.9789 112.523C12.1175 112.928 12.559 113.145 12.9646 113.006C13.3703 112.867 13.5868 112.426 13.4481 112.02C13.2913 111.562 13.2118 111.083 13.2118 110.599C13.2118 110.223 13.26 109.847 13.3552 109.484C13.425 109.217 13.3481 108.933 13.1531 108.738L9.14561 104.731C8.97605 104.561 8.73703 104.479 8.49956 104.51C8.26158 104.54 8.05082 104.678 7.92857 104.884C6.82013 106.756 6.2835 108.902 6.37677 111.089C6.45555 112.936 6.98906 114.671 7.8647 116.186H3.94426V94.8405H51.4473V126.786H19.1504C18.7216 126.786 18.374 127.133 18.374 127.562C18.374 127.991 18.7216 128.338 19.1504 128.338H51.7061C52.4196 128.338 53 127.758 53 127.044V90.4729C53 89.474 52.1873 88.6614 51.1885 88.6614V88.6614ZM11.0683 117.738V121.31H1.55273V117.738H11.0683ZM10.6104 93.2878H3.94426V90.4729C3.94426 90.3303 4.0604 90.2141 4.20304 90.2141H10.6104V93.2878Z" fill="#4794EF"/>
<g clip-path="url(#clip0)">
<path d="M167.299 138.456L160.505 134.533C160.066 134.28 159.541 134.28 159.102 134.533C158.662 134.787 158.4 135.241 158.4 135.748V136.412H153.586C156.389 133.118 157.914 128.998 157.914 124.617C157.914 122.531 157.561 120.525 156.912 118.656C159.527 117.782 161.646 115.669 162.444 112.933C162.573 112.491 162.319 112.027 161.876 111.898C161.433 111.769 160.97 112.023 160.841 112.465C159.989 115.385 157.268 117.425 154.224 117.425C150.423 117.425 147.33 114.332 147.33 110.531C147.33 106.729 150.422 103.636 154.224 103.636C157.46 103.636 160.223 105.837 160.943 108.989C161.045 109.438 161.493 109.72 161.943 109.617C162.392 109.514 162.673 109.066 162.571 108.617C162.146 106.757 161.09 105.069 159.599 103.864C158.084 102.64 156.175 101.967 154.224 101.967C150.547 101.967 147.404 104.297 146.193 107.558C144.117 106.75 141.86 106.304 139.5 106.304H126.92C126.459 106.304 126.085 106.678 126.085 107.139C126.085 107.6 126.459 107.974 126.92 107.974H139.5C141.715 107.974 143.83 108.405 145.767 109.185C145.697 109.623 145.66 110.073 145.66 110.531C145.66 110.895 145.686 111.253 145.73 111.606C143.843 110.697 141.73 110.186 139.5 110.186C137.673 110.186 135.924 110.529 134.314 111.152H119.765C119.304 111.152 118.93 111.526 118.93 111.987V113.023L112.937 109.563L118.93 106.103V107.139C118.93 107.6 119.304 107.974 119.765 107.974H123.023C123.485 107.974 123.858 107.6 123.858 107.139C123.858 106.678 123.485 106.304 123.023 106.304H120.6V105.641C120.6 105.133 120.338 104.679 119.898 104.425C119.459 104.172 118.934 104.172 118.495 104.425L111.702 108.348C111.262 108.601 111 109.056 111 109.563C111 110.07 111.262 110.524 111.701 110.778L118.495 114.7C118.715 114.827 118.956 114.89 119.197 114.89C119.438 114.89 119.679 114.827 119.898 114.7C120.338 114.447 120.6 113.992 120.6 113.485V112.822H125.412C122.61 116.115 121.086 120.235 121.086 124.617C121.086 126.621 121.413 128.551 122.014 130.357C118.632 131.503 116.19 134.705 116.19 138.469C116.19 143.192 120.032 147.034 124.754 147.034C128.358 147.034 131.446 144.796 132.708 141.637C134.811 142.47 137.102 142.929 139.5 142.929H148.406C148.868 142.929 149.241 142.556 149.241 142.094C149.241 141.633 148.868 141.259 148.406 141.259H139.5C137.263 141.259 135.127 140.82 133.174 140.025C133.267 139.52 133.318 139.001 133.318 138.469C133.318 138.167 133.302 137.869 133.272 137.575C135.158 138.484 137.27 138.994 139.5 138.994C141.274 138.994 142.974 138.671 144.545 138.082H159.235C159.696 138.082 160.07 137.708 160.07 137.247V136.211L166.063 139.671L160.07 143.131V142.095C160.07 141.633 159.696 141.26 159.235 141.26H152.303C151.842 141.26 151.468 141.633 151.468 142.095C151.468 142.556 151.842 142.93 152.303 142.93H158.4V143.593C158.4 144.1 158.662 144.554 159.102 144.808C159.322 144.935 159.562 144.998 159.803 144.998C160.044 144.998 160.285 144.935 160.505 144.808L167.299 140.886C167.738 140.632 168 140.178 168 139.671C168 139.163 167.738 138.709 167.299 138.456V138.456ZM155.271 119.029C155.81 120.527 156.14 122.123 156.223 123.782H153.881C153.786 122.082 153.395 120.46 152.759 118.967C153.236 119.049 153.725 119.095 154.224 119.095C154.577 119.095 154.927 119.072 155.271 119.029V119.029ZM122.756 124.617C122.756 120.143 124.506 115.968 127.689 112.822H131.203C127.511 115.432 125.096 119.734 125.096 124.59C125.096 126.512 125.476 128.346 126.162 130.023C125.704 129.947 125.234 129.905 124.754 129.905C124.38 129.905 124.011 129.932 123.649 129.979C123.071 128.296 122.756 126.492 122.756 124.617V124.617ZM124.754 145.364C120.953 145.364 117.86 142.271 117.86 138.469C117.86 134.668 120.953 131.575 124.754 131.575C128.556 131.575 131.648 134.668 131.648 138.469C131.648 142.271 128.556 145.364 124.754 145.364ZM132.737 135.375C131.93 133.3 130.338 131.616 128.326 130.689C127.333 128.876 126.766 126.799 126.766 124.59C126.766 117.568 132.478 111.856 139.5 111.856C142.011 111.856 144.354 112.587 146.329 113.847C147.146 115.785 148.657 117.362 150.549 118.264C151.621 120.129 152.234 122.289 152.234 124.59C152.234 131.612 146.522 137.324 139.5 137.324C137.017 137.324 134.698 136.609 132.737 135.375ZM153.878 125.452H156.223C156.02 129.609 154.296 133.462 151.311 136.412H147.72C151.234 133.961 153.609 129.985 153.878 125.452Z" fill="#4794EF"/>
<path d="M139.5 114.24C133.793 114.24 129.15 118.883 129.15 124.59C129.15 130.297 133.793 134.94 139.5 134.94C145.207 134.94 149.85 130.297 149.85 124.59C149.85 118.883 145.207 114.24 139.5 114.24ZM139.5 133.27C134.714 133.27 130.82 129.376 130.82 124.59C130.82 119.804 134.714 115.91 139.5 115.91C144.286 115.91 148.18 119.804 148.18 124.59C148.18 129.376 144.286 133.27 139.5 133.27Z" fill="#4794EF"/>
<path d="M140.593 123.755H138.406C137.776 123.755 137.263 123.242 137.263 122.611C137.263 121.981 137.776 121.468 138.406 121.468H142.26C142.721 121.468 143.095 121.094 143.095 120.633C143.095 120.172 142.721 119.798 142.26 119.798H140.335V118.602C140.335 118.141 139.961 117.767 139.5 117.767C139.039 117.767 138.665 118.141 138.665 118.602V119.798H138.406C136.855 119.798 135.593 121.06 135.593 122.611C135.593 124.163 136.855 125.425 138.406 125.425H140.593C141.224 125.425 141.737 125.938 141.737 126.569C141.737 127.199 141.224 127.712 140.593 127.712H136.74C136.279 127.712 135.905 128.086 135.905 128.547C135.905 129.008 136.279 129.382 136.74 129.382H138.665V130.578C138.665 131.039 139.039 131.413 139.5 131.413C139.961 131.413 140.335 131.039 140.335 130.578V129.382H140.593C142.145 129.382 143.407 128.12 143.407 126.569C143.407 125.017 142.145 123.755 140.593 123.755Z" fill="#4794EF"/>
<path d="M154.224 116.23C154.685 116.23 155.059 115.856 155.059 115.395V114.58H155.112C156.459 114.58 157.555 113.484 157.555 112.138C157.555 110.791 156.459 109.696 155.112 109.696H153.336C152.91 109.696 152.564 109.349 152.564 108.923C152.564 108.497 152.91 108.151 153.336 108.151H156.466C156.927 108.151 157.301 107.777 157.301 107.316C157.301 106.855 156.927 106.481 156.466 106.481H155.059V105.667C155.059 105.205 154.685 104.832 154.224 104.832C153.763 104.832 153.389 105.205 153.389 105.667V106.481H153.336C151.989 106.481 150.894 107.577 150.894 108.923C150.894 110.27 151.989 111.366 153.336 111.366H155.112C155.538 111.366 155.885 111.712 155.885 112.138C155.885 112.564 155.538 112.91 155.112 112.91H151.982C151.521 112.91 151.147 113.284 151.147 113.745C151.147 114.206 151.521 114.58 151.982 114.58H153.389V115.395C153.389 115.856 153.763 116.23 154.224 116.23V116.23Z" fill="#4794EF"/>
<path d="M125.642 137.635H123.866C123.44 137.635 123.094 137.288 123.094 136.862C123.094 136.436 123.44 136.09 123.866 136.09H126.996C127.457 136.09 127.831 135.716 127.831 135.255C127.831 134.794 127.457 134.42 126.996 134.42H125.589V133.605C125.589 133.144 125.215 132.771 124.754 132.771C124.293 132.771 123.919 133.144 123.919 133.605V134.42H123.866C122.519 134.42 121.424 135.516 121.424 136.862C121.424 138.209 122.519 139.304 123.866 139.304H125.642C126.068 139.304 126.415 139.651 126.415 140.077C126.415 140.503 126.068 140.849 125.642 140.849H122.513C122.051 140.849 121.678 141.223 121.678 141.684C121.678 142.145 122.051 142.519 122.513 142.519H123.919V143.334C123.919 143.795 124.293 144.169 124.754 144.169C125.215 144.169 125.589 143.795 125.589 143.334V142.519H125.642C126.989 142.519 128.085 141.423 128.085 140.077C128.085 138.73 126.989 137.635 125.642 137.635V137.635Z" fill="#4794EF"/>
<path d="M124.248 104.294H135.826C136.287 104.294 136.661 103.92 136.661 103.459C136.661 102.998 136.287 102.624 135.826 102.624H124.248C123.787 102.624 123.413 102.998 123.413 103.459C123.413 103.92 123.787 104.294 124.248 104.294Z" fill="#4794EF"/>
<path d="M153.416 144.706H141.838C141.377 144.706 141.003 145.08 141.003 145.541C141.003 146.002 141.377 146.376 141.838 146.376H153.416C153.877 146.376 154.251 146.002 154.251 145.541C154.251 145.08 153.877 144.706 153.416 144.706Z" fill="#4794EF"/>
</g>
<g clip-path="url(#clip1)">
<path d="M109.071 12.896V13.0522C109.071 13.4809 109.418 13.8285 109.847 13.8285C110.276 13.8285 110.623 13.4809 110.623 13.0522V12.896C110.623 12.3481 110.429 11.8157 110.077 11.3969C109.801 11.0689 109.311 11.0266 108.983 11.3027C108.655 11.5787 108.613 12.0685 108.889 12.3966C108.972 12.4953 109.071 12.6619 109.071 12.896Z" fill="#4794EF"/>
<path d="M109.847 18.6938C109.418 18.6938 109.071 19.0415 109.071 19.4702V20.7124C109.071 21.1412 109.418 21.4888 109.847 21.4888C110.276 21.4888 110.624 21.1412 110.624 20.7124V19.4702C110.624 19.0415 110.276 18.6938 109.847 18.6938Z" fill="#4794EF"/>
<path d="M110.624 15.6401C110.624 15.2114 110.276 14.8638 109.847 14.8638C109.418 14.8638 109.071 15.2114 109.071 15.6401V16.8823C109.071 17.3111 109.418 17.6587 109.847 17.6587C110.276 17.6587 110.624 17.3111 110.624 16.8823V15.6401Z" fill="#4794EF"/>
<path d="M97.2266 47.9688H95.9844C95.5555 47.9688 95.208 48.3164 95.208 48.7451C95.208 49.1739 95.5555 49.5215 95.9844 49.5215H97.2266C97.6554 49.5215 98.0029 49.1739 98.0029 48.7451C98.0029 48.3164 97.6554 47.9688 97.2266 47.9688Z" fill="#4794EF"/>
<path d="M93.3965 47.9688H92.1543C91.7255 47.9688 91.3779 48.3164 91.3779 48.7451C91.3779 49.1739 91.7255 49.5215 92.1543 49.5215H93.3965C93.8253 49.5215 94.1729 49.1739 94.1729 48.7451C94.1729 48.3164 93.8253 47.9688 93.3965 47.9688Z" fill="#4794EF"/>
<path d="M89.5664 47.9688H88.3242C87.8955 47.9688 87.5479 48.3164 87.5479 48.7451C87.5479 49.1739 87.8955 49.5215 88.3242 49.5215H89.5664C89.9952 49.5215 90.3428 49.1739 90.3428 48.7451C90.3428 48.3164 89.9952 47.9688 89.5664 47.9688Z" fill="#4794EF"/>
<path d="M85.7363 47.9688H84.4941C84.0654 47.9688 83.7178 48.3164 83.7178 48.7451C83.7178 49.1739 84.0654 49.5215 84.4941 49.5215H85.7363C86.1651 49.5215 86.5127 49.1739 86.5127 48.7451C86.5127 48.3164 86.1651 47.9688 85.7363 47.9688Z" fill="#4794EF"/>
<path d="M82.2276 47.9071C82.0355 47.8252 81.882 47.6666 81.8069 47.4719C81.6521 47.0719 81.2026 46.8733 80.8028 47.0277C80.4029 47.1824 80.2039 47.6318 80.3586 48.0318C80.5841 48.615 81.0434 49.0902 81.6187 49.3354C81.718 49.3777 81.8213 49.3978 81.9228 49.3978C82.2246 49.3978 82.5116 49.2208 82.6374 48.9257C82.8055 48.5312 82.6221 48.0752 82.2276 47.9071V47.9071Z" fill="#4794EF"/>
<path d="M80.9785 45.9534C81.4073 45.9534 81.7549 45.6058 81.7549 45.177V43.9348C81.7549 43.5061 81.4073 43.1584 80.9785 43.1584C80.5498 43.1584 80.2021 43.5061 80.2021 43.9348V45.177C80.2021 45.6059 80.5498 45.9534 80.9785 45.9534Z" fill="#4794EF"/>
<path d="M84.5165 17.8301H73.749C73.3203 17.8301 72.9727 18.1777 72.9727 18.6064C72.9727 19.0352 73.3203 19.3828 73.749 19.3828H84.5165C84.9453 19.3828 85.2929 19.0352 85.2929 18.6064C85.2929 18.1777 84.9453 17.8301 84.5165 17.8301Z" fill="#4794EF"/>
<path d="M84.5165 21.5916H73.749C73.3203 21.5916 72.9727 21.9392 72.9727 22.3679C72.9727 22.7967 73.3203 23.1443 73.749 23.1443H84.5165C84.9453 23.1443 85.2929 22.7967 85.2929 22.3679C85.2929 21.9392 84.9453 21.5916 84.5165 21.5916Z" fill="#4794EF"/>
<path d="M84.5165 25.3362H73.749C73.3203 25.3362 72.9727 25.6838 72.9727 26.1126C72.9727 26.5413 73.3203 26.8889 73.749 26.8889H84.5165C84.9453 26.8889 85.2929 26.5413 85.2929 26.1126C85.2929 25.6838 84.9453 25.3362 84.5165 25.3362V25.3362Z" fill="#4794EF"/>
<path d="M85.2929 29.8909C85.2929 29.4621 84.9453 29.1145 84.5165 29.1145H73.749C73.3203 29.1145 72.9727 29.4621 72.9727 29.8909C72.9727 30.3196 73.3203 30.6672 73.749 30.6672H84.5165C84.9453 30.6672 85.2929 30.3196 85.2929 29.8909Z" fill="#4794EF"/>
<path d="M73.749 32.876C73.3203 32.876 72.9727 33.2236 72.9727 33.6523C72.9727 34.0811 73.3203 34.4287 73.749 34.4287H78.5759C79.0046 34.4287 79.3522 34.0811 79.3522 33.6523C79.3522 33.2236 79.0046 32.876 78.5759 32.876H73.749Z" fill="#4794EF"/>
<path d="M89.5342 40.9658C89.6858 41.1174 89.8845 41.1932 90.0832 41.1932C90.2818 41.1932 90.4806 41.1175 90.6321 40.9658L93.766 37.8319C94.0692 37.5287 94.0692 37.0371 93.766 36.734C93.4627 36.4308 92.9712 36.4308 92.6682 36.734L90.0832 39.319L88.2706 37.5064C87.9674 37.2032 87.4758 37.2032 87.1727 37.5064C86.8695 37.8096 86.8695 38.3012 87.1727 38.6043L89.5342 40.9658Z" fill="#4794EF"/>
<path d="M101.885 20.2833C102.607 19.7185 103.259 19.0663 103.824 18.3444C104.249 17.8009 104.201 17.0214 103.711 16.5314L102.296 15.1163C102.481 14.749 102.639 14.3662 102.768 13.9749H104.77C105.463 13.9749 106.049 13.4584 106.132 12.7733C106.159 12.5569 106.178 12.3385 106.192 12.1197H107.061C107.489 12.1197 107.837 11.7721 107.837 11.3434C107.837 10.9146 107.489 10.567 107.061 10.567H106.183C106.17 10.3876 106.154 10.2086 106.133 10.031C106.049 9.34593 105.464 8.82939 104.77 8.82939H102.768C102.64 8.43831 102.481 8.0555 102.296 7.68802L103.711 6.27286C104.201 5.78272 104.25 5.00324 103.824 4.45979C103.259 3.73818 102.607 3.08593 101.886 2.52104C101.342 2.09549 100.563 2.14404 100.073 2.63439L98.6573 4.04945C98.2902 3.86395 97.9074 3.70547 97.516 3.577V1.57481C97.516 0.881665 96.9994 0.295974 96.3145 0.212644C95.409 0.102296 94.4777 0.102296 93.572 0.212644C92.887 0.296077 92.3704 0.881562 92.3704 1.57481V3.5769C91.9791 3.70536 91.5962 3.86385 91.2291 4.04945L89.814 2.63439C89.3239 2.14414 88.5443 2.09539 88.0009 2.52083C87.2792 3.08572 86.627 3.73797 86.0622 4.45958C85.6366 5.00314 85.6854 5.78261 86.1755 6.27276L87.5906 7.68782C87.4051 8.05499 87.2465 8.43799 87.1181 8.82918H85.116C84.4228 8.82918 83.8372 9.34572 83.7538 10.0307C83.7322 10.2083 83.7159 10.3873 83.7028 10.5668H72.8152C72.3314 10.5668 71.8764 10.7552 71.5342 11.0974L67.5305 15.1013C67.1884 15.4434 67 15.8983 67 16.3822V38.7558C67 39.7546 67.8127 40.5673 68.8115 40.5673H80.2024V41.3471C80.2024 41.7758 80.55 42.1234 80.9787 42.1234C81.4075 42.1234 81.7551 41.7758 81.7551 41.3471V40.5673H83.8748C84.6909 43.4415 87.3373 45.5536 90.4695 45.5536C94.2499 45.5536 97.3253 42.4781 97.3253 38.6978C97.3253 35.187 94.6721 32.2857 91.2657 31.8897V28.3633C91.2657 27.9345 90.9181 27.5869 90.4894 27.5869C90.0606 27.5869 89.713 27.9345 89.713 28.3633V31.8846C86.2873 32.2624 83.6135 35.1732 83.6135 38.6978C83.6135 38.804 83.6167 38.9095 83.6216 39.0146H68.8115C68.6689 39.0146 68.5527 38.8985 68.5527 38.7559V16.3822C68.5527 16.3141 68.5804 16.2474 68.6285 16.1992L72.6322 12.1955C72.6811 12.1466 72.746 12.1197 72.8152 12.1197H83.6936C83.7074 12.3386 83.7272 12.557 83.7535 12.7733C83.8369 13.4584 84.4224 13.9749 85.1156 13.9749H87.1177C87.2462 14.3662 87.4047 14.7491 87.5903 15.1163L86.1752 16.5314C85.6851 17.0214 85.6362 17.801 86.0618 18.3445C86.6268 19.0663 87.279 19.7185 88.0005 20.2833C88.5082 20.6806 89.2217 20.664 89.7129 20.2607V24.7402C89.7129 25.1689 90.0605 25.5165 90.4892 25.5165C90.918 25.5165 91.2656 25.1689 91.2656 24.7402V18.7726C91.6217 18.9503 91.9919 19.1031 92.37 19.2272V21.2293C92.37 21.9225 92.8866 22.5081 93.5716 22.5916C94.0245 22.6467 94.486 22.6746 94.9428 22.6746C95.3997 22.6746 95.8611 22.6467 96.314 22.5915C96.999 22.5081 97.5156 21.9225 97.5156 21.2293V19.2272C97.9069 19.0988 98.2898 18.9403 98.6569 18.7548L100.072 20.1698C100.562 20.6599 101.342 20.7086 101.885 20.2833V20.2833ZM90.4695 33.3945C93.3937 33.3945 95.7726 35.7735 95.7726 38.6976C95.7726 41.6217 93.3936 44.0007 90.4695 44.0007C87.5454 44.0007 85.1664 41.6217 85.1664 38.6976C85.1664 35.7735 87.5453 33.3945 90.4695 33.3945V33.3945ZM98.0483 17.3217C97.6924 17.5086 97.3171 17.6639 96.9328 17.7834C96.3527 17.9638 95.9631 18.4906 95.9631 19.0943V21.0686C95.287 21.1393 94.5992 21.1393 93.923 21.0686V19.0943C93.923 18.4906 93.5332 17.9638 92.953 17.7833C92.5688 17.6638 92.1934 17.5086 91.8376 17.3216C91.2998 17.0391 90.6516 17.136 90.2247 17.5628L88.8293 18.9582C88.2999 18.5292 87.8157 18.0451 87.3867 17.5156L88.782 16.1202C89.2089 15.6933 89.3058 15.0452 89.0233 14.5073C88.8364 14.1515 88.681 13.7763 88.5615 13.3918C88.381 12.8117 87.8542 12.422 87.2506 12.422H85.2763C85.241 12.084 85.2231 11.7416 85.2231 11.402C85.2231 11.0623 85.241 10.72 85.2763 10.3819H87.2506C87.8543 10.3819 88.381 9.99218 88.5615 9.41208C88.681 9.02772 88.8364 8.65238 89.0232 8.2967C89.3058 7.75873 89.2088 7.11061 88.782 6.68372L87.3867 5.28833C87.8156 4.75895 88.2998 4.2747 88.8293 3.84573L90.2247 5.24102C90.6515 5.66781 91.2996 5.76481 91.8376 5.48231C92.1934 5.29547 92.5688 5.14009 92.953 5.02053C93.5331 4.84021 93.923 4.31331 93.923 3.70961V1.73546C94.5988 1.66476 95.287 1.66476 95.9631 1.73546V3.70971C95.9631 4.31352 96.3529 4.84031 96.9328 5.02063C97.3172 5.14019 97.6926 5.29557 98.0483 5.48242C98.5862 5.76491 99.2346 5.66792 99.6611 5.24112L101.057 3.84594C101.586 4.27491 102.07 4.75905 102.499 5.28853L101.104 6.68392C101.104 6.68392 101.104 6.68392 101.104 6.68392C100.677 7.11082 100.58 7.75904 100.863 8.2968C101.05 8.65289 101.205 9.02824 101.324 9.41218C101.505 9.99239 102.032 10.3822 102.635 10.3822H104.61C104.645 10.7205 104.663 11.0629 104.663 11.4023C104.663 11.7416 104.645 12.084 104.61 12.4223H102.635C102.031 12.4223 101.505 12.8122 101.324 13.3921C101.205 13.7764 101.049 14.1517 100.863 14.5075C100.58 15.0454 100.677 15.6936 101.104 16.1206L102.499 17.516C102.07 18.0455 101.586 18.5296 101.057 18.9586L99.6612 17.5632C99.2345 17.1361 98.5863 17.0392 98.0483 17.3217V17.3217Z" fill="#4794EF"/>
<path d="M98.9309 8.78651C98.539 8.96041 98.3623 9.41909 98.5362 9.811C98.7596 10.3144 98.8728 10.8497 98.8728 11.4019C98.8728 13.5688 97.1099 15.3317 94.9429 15.3317C92.776 15.3317 91.0132 13.5688 91.0132 11.4019C91.0132 9.23504 92.776 7.47217 94.9429 7.47217C95.4224 7.47217 95.8923 7.5584 96.3395 7.72847C96.7401 7.88054 97.1886 7.67961 97.3411 7.2788C97.4936 6.87799 97.2922 6.42956 96.8914 6.27718C96.2673 6.03982 95.6118 5.91943 94.9429 5.91943C91.9199 5.91943 89.4604 8.37886 89.4604 11.4019C89.4604 14.425 91.9199 16.8844 94.9429 16.8844C97.966 16.8844 100.426 14.425 100.426 11.4019C100.426 10.6314 100.267 9.88418 99.9555 9.18121C99.7816 8.7893 99.3227 8.6127 98.9309 8.78651V8.78651Z" fill="#4794EF"/>
<path d="M94.943 8.9917C93.6139 8.9917 92.5327 10.0729 92.5327 11.402C92.5327 12.731 93.6139 13.8122 94.943 13.8122C96.272 13.8122 97.3532 12.731 97.3532 11.402C97.3532 10.0729 96.272 8.9917 94.943 8.9917ZM94.943 12.2595C94.4701 12.2595 94.0855 11.8748 94.0855 11.402C94.0855 10.9291 94.4701 10.5444 94.943 10.5444C95.4158 10.5444 95.8005 10.9291 95.8005 11.402C95.8005 11.8748 95.4159 12.2595 94.943 12.2595Z" fill="#4794EF"/>
<path d="M118.706 33.2561C119.42 33.2561 120 32.6757 120 31.9622V26.2999C120 25.5863 119.42 25.0059 118.706 25.0059H110.469C110.566 24.8765 110.624 24.7164 110.624 24.5425V23.3003C110.624 22.8715 110.276 22.5239 109.847 22.5239C109.418 22.5239 109.071 22.8715 109.071 23.3003V24.5425C109.071 24.7164 109.129 24.8765 109.225 25.0059H100.988C100.275 25.0059 99.6944 25.5863 99.6944 26.2999V31.9622C99.6944 32.6757 100.275 33.2561 100.988 33.2561H109.071V34.8129H100.988C100.275 34.8129 99.6944 35.3933 99.6944 36.1068V41.7691C99.6944 42.4827 100.275 43.0631 100.988 43.0631H109.071V44.62H100.988C100.275 44.62 99.6944 45.2004 99.6944 45.9139V47.9789C99.3228 48.0368 99.0381 48.3573 99.0381 48.7451C99.0381 49.1328 99.3228 49.4533 99.6944 49.5112V51.5762C99.6944 52.2897 100.275 52.8702 100.988 52.8702H118.706C119.42 52.8702 120 52.2897 120 51.5762V45.9139C120 45.2004 119.42 44.62 118.706 44.62H110.624V43.0631H112.65C113.079 43.0631 113.427 42.7155 113.427 42.2867C113.427 41.858 113.079 41.5104 112.65 41.5104H101.247V36.3656H118.447V41.5104H116.273C115.845 41.5104 115.497 41.858 115.497 42.2867C115.497 42.7155 115.845 43.0631 116.273 43.0631H118.706C119.42 43.0631 120 42.4827 120 41.7691V36.1068C120 35.3933 119.42 34.8129 118.706 34.8129H110.624V33.2561H118.706ZM118.447 46.1727V51.3174H101.247V46.1727H118.447ZM101.247 31.7034V26.5587H118.447V31.7034H101.247Z" fill="#4794EF"/>
<path d="M115.54 28.3545H104.154C103.725 28.3545 103.378 28.7021 103.378 29.1309C103.378 29.5596 103.725 29.9072 104.154 29.9072H115.54C115.969 29.9072 116.316 29.5596 116.316 29.1309C116.316 28.7021 115.969 28.3545 115.54 28.3545Z" fill="#4794EF"/>
<path d="M116.316 38.938C116.316 38.5092 115.969 38.1616 115.54 38.1616H104.154C103.725 38.1616 103.378 38.5092 103.378 38.938C103.378 39.3668 103.725 39.7144 104.154 39.7144H115.54C115.969 39.7144 116.316 39.3668 116.316 38.938Z" fill="#4794EF"/>
<path d="M104.154 49.5215H115.54C115.969 49.5215 116.316 49.1739 116.316 48.7451C116.316 48.3164 115.969 47.9688 115.54 47.9688H104.154C103.725 47.9688 103.378 48.3164 103.378 48.7451C103.378 49.1739 103.725 49.5215 104.154 49.5215Z" fill="#4794EF"/>
</g>
<defs>
<clipPath id="clip0">
<rect width="57" height="57" fill="white" transform="translate(111 96)"/>
</clipPath>
<clipPath id="clip1">
<rect width="53" height="53" fill="white" transform="translate(67)"/>
</clipPath>
</defs>
</svg>
