<svg width="166" height="155" viewBox="0 0 166 155" fill="none" xmlns="http://www.w3.org/2000/svg">
<g clip-path="url(#clip0)">
<path d="M66.2326 139.831H66.2327C65.222 139.722 64.2302 139.517 63.2679 139.224C63.3356 139.092 63.3829 138.948 63.403 138.794C63.4582 138.373 63.4862 137.943 63.4862 137.517C63.4862 137.091 63.4582 136.662 63.403 136.24C63.3172 135.585 62.7532 135.091 62.0912 135.091H60.5011C60.4208 134.866 60.3294 134.645 60.2273 134.43L61.3513 133.306C61.8192 132.838 61.8686 132.09 61.4664 131.566C60.9457 130.888 60.338 130.28 59.66 129.759C59.136 129.357 58.388 129.407 57.92 129.875L56.7962 130.999C56.5805 130.897 56.3596 130.805 56.1349 130.725V129.135C56.1349 128.473 55.641 127.909 54.9859 127.823C54.1425 127.712 53.2751 127.712 52.4312 127.823C52.3902 127.828 52.3497 127.836 52.31 127.845C52.1046 127.067 51.9555 126.273 51.8679 125.467C51.7974 124.818 51.2541 124.329 50.604 124.329H46.2903C45.9345 124.329 45.5927 124.48 45.3522 124.742C45.1125 125.003 44.9927 125.355 45.0231 125.708C45.1883 127.616 45.5866 129.475 46.2023 131.253C46.1167 131.356 46.0324 131.459 45.951 131.565C45.5484 132.089 45.5978 132.837 46.066 133.306L47.1899 134.43C47.0878 134.645 46.9964 134.866 46.9161 135.091H45.3263C44.6641 135.091 44.1002 135.585 44.0145 136.24C43.9592 136.661 43.9312 137.091 43.9312 137.517C43.9312 137.943 43.9591 138.373 44.0145 138.794C44.1002 139.449 44.6641 139.943 45.3263 139.943H46.9164C46.9966 140.168 47.0879 140.389 47.1901 140.605L46.0663 141.729C45.5981 142.197 45.5487 142.945 45.9511 143.469C46.4718 144.146 47.0796 144.754 47.7574 145.275C48.2812 145.677 49.0293 145.628 49.4973 145.16L50.6213 144.036C50.8369 144.138 51.0579 144.229 51.2826 144.309V145.9C51.2826 146.561 51.7765 147.125 52.4316 147.211C52.8532 147.267 53.283 147.295 53.7087 147.295C54.1345 147.295 54.5643 147.267 54.9862 147.211C55.641 147.125 56.1349 146.562 56.1349 145.9V144.309C56.3596 144.229 56.5806 144.138 56.7962 144.036L57.9201 145.16C58.3882 145.628 59.1362 145.677 59.6601 145.275C59.6792 145.26 59.6976 145.245 59.7163 145.23C61.7134 145.998 63.8202 146.488 65.9918 146.676C66.0279 146.679 66.0641 146.681 66.1 146.681C66.4154 146.681 66.7229 146.562 66.9572 146.347C67.2195 146.107 67.3699 145.765 67.3699 145.409V141.095C67.3701 140.445 66.8811 139.902 66.2326 139.831V139.831ZM50.1213 126.146C50.3253 127.646 50.7174 129.104 51.2826 130.493V130.725C51.0579 130.805 50.8369 130.897 50.6213 130.999L49.4975 129.875C49.0296 129.407 48.2814 129.357 47.7574 129.76C47.7236 129.786 47.6906 129.813 47.6572 129.839C47.2957 128.64 47.0373 127.406 46.8927 126.146H50.1213ZM55.2627 142.685C54.698 142.854 54.3185 143.363 54.3185 143.951V145.455C53.9124 145.486 53.5049 145.486 53.0989 145.455V143.951C53.0989 143.363 52.7194 142.854 52.1545 142.685C51.8083 142.581 51.4714 142.441 51.1535 142.27C50.6344 141.991 50.0059 142.082 49.59 142.498L48.5271 143.561C48.2184 143.296 47.9299 143.008 47.6648 142.699L48.7274 141.636C49.1435 141.22 49.2351 140.592 48.9555 140.072C48.7845 139.755 48.6451 139.418 48.5412 139.072C48.3719 138.507 47.8628 138.127 47.2744 138.127H45.7709C45.7556 137.924 45.7477 137.72 45.7477 137.517C45.7477 137.314 45.7554 137.11 45.7709 136.907H47.2746C47.8629 136.907 48.372 136.528 48.5412 135.963C48.6452 135.616 48.7846 135.28 48.9556 134.962C49.2352 134.443 49.1436 133.814 48.7277 133.398L47.665 132.336C47.93 132.027 48.2185 131.738 48.5273 131.473L49.5901 132.536C50.0059 132.952 50.6342 133.043 51.1537 132.764C51.4715 132.593 51.8083 132.453 52.1547 132.35C52.7197 132.18 53.099 131.671 53.099 131.083V129.579C53.5052 129.548 53.9125 129.548 54.3186 129.579V131.083C54.3186 131.671 54.6981 132.18 55.263 132.35C55.6093 132.453 55.9461 132.593 56.2639 132.764C56.7833 133.043 57.4117 132.952 57.8275 132.536L58.8903 131.473C59.1993 131.738 59.4876 132.027 59.7527 132.335L58.6898 133.398C58.6898 133.398 58.6897 133.398 58.6897 133.398C58.274 133.814 58.1824 134.443 58.462 134.962C58.6331 135.28 58.7725 135.616 58.8763 135.963C59.0457 136.528 59.5548 136.907 60.1429 136.907H61.6466C61.6619 137.11 61.6698 137.314 61.6698 137.517C61.6698 137.72 61.6621 137.924 61.6466 138.127H60.1429C59.5548 138.127 59.0457 138.506 58.8763 139.071C58.7725 139.417 58.633 139.754 58.4619 140.072C58.1823 140.591 58.274 141.22 58.6898 141.636L59.7527 142.698C59.4876 143.007 59.1991 143.296 58.8903 143.561L57.8275 142.498C57.4115 142.082 56.7832 141.99 56.2639 142.27C55.946 142.441 55.6093 142.581 55.2627 142.685V142.685ZM65.5536 144.807C64.0525 144.635 62.589 144.302 61.1785 143.824C61.2769 143.707 61.3735 143.589 61.4664 143.469C61.8688 142.945 61.8194 142.197 61.3512 141.729L60.2273 140.605C60.3075 140.435 60.3791 140.262 60.4459 140.087C62.0586 140.832 63.7772 141.337 65.5536 141.578V144.807Z" fill="#4794EF"/>
<path d="M95.8452 123.186C94.3246 120.929 92.4142 119.023 90.2382 117.53C89.181 113.721 87.1507 110.212 84.3195 107.38C80.4843 103.545 75.4063 101.176 70.0209 100.71C69.6692 100.68 69.3167 100.8 69.0555 101.039C68.7932 101.28 68.6428 101.622 68.6428 101.977V106.291C68.6428 106.941 69.1317 107.485 69.7801 107.555H69.78C73.4308 107.951 76.8778 109.606 79.4858 112.214C80.0442 112.773 80.5577 113.37 81.0255 113.999C80.1128 113.879 79.187 113.816 78.2523 113.816C71.1883 113.816 64.6116 117.319 60.6594 123.186C60.4527 123.493 60.4527 123.894 60.6594 124.201C64.6116 130.068 71.1883 133.57 78.2523 133.57C79.187 133.57 80.1128 133.507 81.0255 133.387C80.5577 134.016 80.0442 134.614 79.4858 135.173C76.8778 137.781 73.4309 139.435 69.7801 139.832C69.1317 139.902 68.6428 140.445 68.6428 141.095V145.409C68.6428 145.765 68.7932 146.107 69.0555 146.347C69.2899 146.562 69.5974 146.681 69.9127 146.681C69.9486 146.681 69.9849 146.679 70.0211 146.676C74.8979 146.254 79.4337 144.328 83.1379 141.107C83.5165 140.778 83.5564 140.204 83.2273 139.826C82.8982 139.447 82.3244 139.407 81.946 139.736C78.6848 142.572 74.7243 144.318 70.4593 144.807V141.578C74.3405 141.048 77.9859 139.241 80.7703 136.457C81.8388 135.388 82.7607 134.191 83.5242 132.905C85.0334 132.518 86.4892 131.966 87.8682 131.264C87.1162 133.237 86.0697 135.099 84.7469 136.788C84.4376 137.182 84.507 137.753 84.9018 138.063C85.2968 138.372 85.8675 138.302 86.1768 137.908C88.0649 135.497 89.4382 132.764 90.2426 129.853C92.4168 128.361 94.3254 126.456 95.845 124.2C96.0519 123.894 96.0519 123.493 95.8452 123.186V123.186ZM80.7702 110.93C77.9858 108.145 74.3405 106.338 70.4593 105.808V102.58C75.1973 103.126 79.6437 105.273 83.0351 108.665C85.1671 110.797 86.8061 113.346 87.8658 116.121C86.4875 115.42 85.0326 114.869 83.5242 114.482C82.7607 113.195 81.8387 111.998 80.7702 110.93V110.93ZM62.5197 123.693C64.5543 120.869 67.2716 118.688 70.3627 117.31C68.7737 118.862 67.389 120.893 66.3077 123.324C66.2032 123.559 66.2032 123.827 66.3077 124.062C67.3888 126.494 68.7737 128.525 70.3627 130.077C67.2716 128.699 64.5542 126.517 62.5197 123.693V123.693ZM78.2524 131.754C74.2553 131.754 70.4953 128.749 68.1355 123.693C70.4953 118.637 74.2553 115.633 78.2524 115.633C82.2495 115.633 86.0096 118.637 88.3692 123.693C86.0096 128.749 82.2495 131.754 78.2524 131.754ZM86.1422 130.077C87.7311 128.524 89.1159 126.494 90.197 124.062C90.3015 123.828 90.3015 123.559 90.197 123.324C89.1159 120.893 87.731 118.862 86.142 117.31C89.2331 118.688 91.9504 120.869 93.985 123.693C91.9505 126.517 89.2332 128.699 86.1422 130.077V130.077Z" fill="#4794EF"/>
<path d="M82.3349 122.143C82.5131 122.612 83.0376 122.848 83.5065 122.669C83.9754 122.491 84.211 121.967 84.0329 121.498C83.1266 119.113 80.8036 117.51 78.2523 117.51C74.8427 117.51 72.0688 120.284 72.0688 123.693C72.0688 127.103 74.8427 129.877 78.2523 129.877C80.6035 129.877 82.721 128.57 83.7784 126.467C84.0037 126.019 83.8231 125.473 83.3749 125.247C82.9268 125.022 82.3808 125.203 82.1556 125.651C81.4084 127.137 79.9128 128.06 78.2523 128.06C75.8443 128.06 73.8853 126.101 73.8853 123.693C73.8853 121.285 75.8443 119.326 78.2523 119.326C80.054 119.326 81.6948 120.458 82.3349 122.143V122.143Z" fill="#4794EF"/>
<path d="M75.5229 123.693C75.5229 125.198 76.7472 126.423 78.2522 126.423C79.7571 126.423 80.9814 125.198 80.9814 123.693C80.9814 122.188 79.7571 120.964 78.2522 120.964C76.7472 120.964 75.5229 122.188 75.5229 123.693V123.693ZM79.165 123.693C79.165 124.197 78.7555 124.606 78.2522 124.606C77.7488 124.606 77.3394 124.197 77.3394 123.693C77.3394 123.19 77.7488 122.781 78.2522 122.781C78.7555 122.781 79.165 123.19 79.165 123.693V123.693Z" fill="#4794EF"/>
<path d="M47.3135 113.493C46.0565 116.041 45.2712 118.817 45.0234 121.679C44.9929 122.031 45.1128 122.383 45.3523 122.644C45.5928 122.907 45.9349 123.057 46.2907 123.057H50.6044C51.2544 123.057 51.7976 122.568 51.8682 121.92C52.0237 120.488 52.3658 119.101 52.8807 117.783L54.3922 118.947C54.2629 119.289 54.1914 119.659 54.1914 120.046C54.1914 121.763 55.5888 123.161 57.3063 123.161C59.0238 123.161 60.4212 121.763 60.4212 120.046C60.4212 119.499 60.2792 118.985 60.0306 118.538L62.6175 115.866C63.0435 116.085 63.5257 116.21 64.0367 116.21C65.7543 116.21 67.1516 114.812 67.1516 113.095C67.1516 111.377 65.7542 109.98 64.0367 109.98C62.3192 109.98 60.9218 111.377 60.9218 113.095C60.9218 113.642 61.0638 114.156 61.3125 114.603L58.7255 117.275C58.2995 117.055 57.8173 116.931 57.3063 116.931C56.6341 116.931 56.0116 117.146 55.502 117.509L53.6584 116.089C54.2443 114.987 54.9605 113.948 55.8 112.991C56.1309 112.614 56.0934 112.04 55.7165 111.709C55.3395 111.378 54.7656 111.416 54.4348 111.793C53.5706 112.778 52.8244 113.841 52.2012 114.966L49.643 112.995C50.5581 111.425 51.6759 109.967 52.9781 108.665C56.3695 105.273 60.8158 103.126 65.5539 102.58V105.808C62.7715 106.188 60.0912 107.225 57.7741 108.822C57.361 109.107 57.257 109.672 57.5417 110.085C57.8264 110.498 58.3919 110.602 58.805 110.318C61.0086 108.799 63.5773 107.843 66.233 107.555C66.8813 107.485 67.3703 106.941 67.3703 106.291V101.977C67.3703 101.622 67.2199 101.28 66.9576 101.039C66.6964 100.8 66.3444 100.679 65.9921 100.71C60.6067 101.177 55.5288 103.545 51.6936 107.38C50.3364 108.738 49.164 110.251 48.1934 111.878L46.7596 110.773C46.889 110.431 46.9604 110.061 46.9604 109.675C46.9604 107.957 45.563 106.56 43.8455 106.56C42.1281 106.56 40.7306 107.957 40.7306 109.675C40.7306 110.185 40.8549 110.667 41.0734 111.092L38.6246 113.461C38.1771 113.212 37.6625 113.07 37.1151 113.07C35.3974 113.069 34 114.467 34 116.184C34 117.902 35.3974 119.299 37.1149 119.299C38.8324 119.299 40.2298 117.902 40.2298 116.184C40.2298 115.674 40.1055 115.192 39.887 114.766L42.3359 112.398C42.7833 112.647 43.2979 112.789 43.8453 112.789C44.5175 112.789 45.14 112.575 45.6496 112.211L47.3135 113.493ZM64.0368 111.796C64.7528 111.796 65.3353 112.379 65.3353 113.095C65.3353 113.811 64.7527 114.393 64.0368 114.393C63.3209 114.393 62.7383 113.811 62.7383 113.095C62.7383 112.379 63.3208 111.796 64.0368 111.796ZM57.3063 118.747C58.0223 118.747 58.6048 119.33 58.6048 120.046C58.6048 120.762 58.0222 121.344 57.3063 121.344C56.5904 121.344 56.0078 120.762 56.0078 120.046C56.0078 119.33 56.5903 118.747 57.3063 118.747ZM48.7845 114.626L51.3889 116.633C50.7669 118.096 50.3383 119.642 50.1215 121.241H46.8932C47.1588 118.938 47.8035 116.704 48.7845 114.626ZM37.1149 117.483C36.3989 117.483 35.8164 116.9 35.8164 116.184C35.8164 115.468 36.399 114.886 37.1149 114.886C37.8308 114.886 38.4134 115.468 38.4134 116.184C38.4134 116.9 37.8309 117.483 37.1149 117.483ZM43.8454 110.973C43.1294 110.973 42.5469 110.39 42.5469 109.674C42.5469 108.959 43.1295 108.376 43.8454 108.376C44.5613 108.376 45.1439 108.959 45.1439 109.674C45.1439 110.39 44.5613 110.973 43.8454 110.973Z" fill="#4794EF"/>
<path d="M57.3418 137.517C57.3418 135.514 55.7121 133.885 53.709 133.885C51.7059 133.885 50.0762 135.514 50.0762 137.517C50.0762 139.52 51.7059 141.15 53.709 141.15C55.7121 141.15 57.3418 139.52 57.3418 137.517ZM53.709 139.334C52.7074 139.334 51.8926 138.519 51.8926 137.517C51.8926 136.516 52.7074 135.701 53.709 135.701C54.7106 135.701 55.5254 136.516 55.5254 137.517C55.5254 138.519 54.7106 139.334 53.709 139.334Z" fill="#4794EF"/>
</g>
<path d="M46.8969 25.5201C47.2933 25.5201 47.6147 25.1988 47.6147 24.8023V1.19629C47.6147 0.536607 47.078 0 46.4184 0H12.3627C11.703 0 11.1664 0.536607 11.1664 1.19629V22.8869H8.58109C7.97557 22.8869 7.43341 23.2 7.13061 23.7243C6.8279 24.2487 6.8279 24.8748 7.13061 25.3991L8.55907 27.8732C7.74273 27.9846 7.11099 28.6844 7.11099 29.5308V30.9199C7.11099 31.2527 7.20975 31.5624 7.3779 31.8235C6.24009 32.3809 5.20621 33.1041 4.32718 33.9715C2.43034 35.8431 1.38574 38.2532 1.38574 40.7578C1.38574 43.7821 2.9034 46.6356 5.5494 48.5868C5.91078 48.8532 6.36154 49 6.81862 49H12.3628H16.7813H46.4185C47.0781 49 47.6147 48.4634 47.6147 47.8037V28.1519C47.6147 27.7554 47.2934 27.4342 46.897 27.4342C46.5006 27.4342 46.1792 27.7554 46.1792 28.1519V47.5645H18.7988C20.2919 46.1021 21.2744 44.2961 21.621 42.3297C21.6898 41.9393 21.4291 41.567 21.0388 41.4982C20.6486 41.4292 20.2761 41.6902 20.2073 42.0805C19.8273 44.2357 18.5346 46.1757 16.5584 47.5645H6.81852C6.66587 47.5645 6.51773 47.5172 6.40135 47.4313C4.12611 45.7537 2.8211 43.3212 2.8211 40.7578C2.8211 38.6402 3.71401 36.593 5.33531 34.9934C6.41255 33.9305 7.75938 33.1134 9.25474 32.5948H13.8976C17.049 33.688 19.4329 36.0788 20.1219 39.0193C20.2124 39.4053 20.5982 39.6452 20.9846 39.5544C21.3706 39.464 21.6101 39.0778 21.5197 38.6918C20.8249 35.727 18.6754 33.2484 15.767 31.8229C15.9349 31.562 16.0336 31.2525 16.0336 30.92V29.5309C16.0336 28.6845 15.4018 27.9845 14.5855 27.8733L16.014 25.3992C16.3168 24.8749 16.3168 24.2488 16.014 23.7244C15.7112 23.2001 15.169 22.887 14.5635 22.887H12.6021V1.43555H46.1792V24.8023C46.1791 25.1988 46.5005 25.5201 46.8969 25.5201V25.5201ZM14.5979 29.5308V30.9199C14.5979 31.0518 14.4906 31.1591 14.3587 31.1591H8.78579C8.65392 31.1591 8.54654 31.0518 8.54654 30.9199V29.5308C8.54654 29.3989 8.65392 29.2916 8.78579 29.2916H14.3587C14.4907 29.2916 14.5979 29.3989 14.5979 29.5308ZM14.5634 24.3225C14.6836 24.3225 14.7448 24.3974 14.7706 24.4421C14.7963 24.4868 14.8307 24.5772 14.7706 24.6814L12.9377 27.8561H10.2067L8.37379 24.6814C8.31379 24.5773 8.34805 24.4868 8.37379 24.4421C8.39954 24.3974 8.46079 24.3225 8.58099 24.3225H14.5634Z" fill="#4794EF"/>
<path d="M11.5724 44.993C11.9688 44.993 12.2902 44.6717 12.2902 44.2752V43.4646H12.3954C13.6124 43.4646 14.6024 42.4745 14.6024 41.2576C14.6024 40.0406 13.6124 39.0506 12.3954 39.0506H10.7495C10.3241 39.0506 9.97803 38.7045 9.97803 38.2791C9.97803 37.8537 10.3241 37.5076 10.7495 37.5076H13.6495C14.0459 37.5076 14.3673 37.1864 14.3673 36.7899C14.3673 36.3934 14.0459 36.0721 13.6495 36.0721H12.2902V35.2615C12.2902 34.865 11.9688 34.5437 11.5724 34.5437C11.176 34.5437 10.8547 34.865 10.8547 35.2615V36.0721H10.7495C9.53253 36.0721 8.54248 37.0621 8.54248 38.2791C8.54248 39.4961 9.53253 40.4861 10.7495 40.4861H12.3954C12.8208 40.4861 13.1669 40.8322 13.1669 41.2576C13.1669 41.683 12.8208 42.029 12.3954 42.029H9.4954C9.09899 42.029 8.77762 42.3503 8.77762 42.7468C8.77762 43.1433 9.09899 43.4646 9.4954 43.4646H10.8547V44.2752C10.8547 44.6716 11.1759 44.993 11.5724 44.993Z" fill="#4794EF"/>
<path d="M44.0252 20.6325V13.6658C44.0252 13.1117 43.5745 12.661 43.0203 12.661H41.202C40.6479 12.661 40.1971 13.1117 40.1971 13.6658V20.2018H38.937V10.7752C38.937 10.2211 38.4862 9.77034 37.9321 9.77034H36.1137C35.5596 9.77034 35.1088 10.2211 35.1088 10.7752V20.2018H33.8487V8.27173C33.8487 7.71761 33.398 7.26685 32.8438 7.26685H31.0255C30.4714 7.26685 30.0206 7.71761 30.0206 8.27173V20.2018H28.7605V16.2695C28.7605 15.873 28.4391 15.5518 28.0427 15.5518C27.6463 15.5518 27.3249 15.873 27.3249 16.2695V20.2018H26.3679V10.7886H27.3249V12.9199C27.3249 13.3164 27.6463 13.6377 28.0427 13.6377C28.4391 13.6377 28.7605 13.3164 28.7605 12.9199V10.358C28.7605 9.80384 28.3097 9.35308 27.7556 9.35308H25.9372C25.3831 9.35308 24.9324 9.80384 24.9324 10.358V20.2017H23.6722V12.7224C23.6722 12.1683 23.2215 11.7175 22.6673 11.7175H20.849C20.2949 11.7175 19.8441 12.1683 19.8441 12.7224V20.2017H18.584V15.1389C18.584 14.5848 18.1332 14.134 17.5791 14.134H15.7607C15.2066 14.134 14.7559 14.5848 14.7559 15.1389V20.6324C14.7559 21.1865 15.2066 21.6372 15.7607 21.6372H43.0204C43.5745 21.6373 44.0252 21.1866 44.0252 20.6325V20.6325ZM17.1483 20.2018H16.9672H16.1913V15.5697H17.1483V20.2018ZM22.2366 20.2018H21.2796V13.1532H22.2366V20.2018ZM32.4132 20.2018H31.4561V8.70239H32.4132V20.2018ZM37.5014 20.2018H36.5444V11.2059H37.5014V20.2018ZM42.5897 20.2018H41.8505H41.6326V14.0965H42.5897V20.2018Z" fill="#4794EF"/>
<path d="M42.813 30.0439H42.4603C42.1058 27.2192 39.6908 25.0264 36.7715 25.0264C35.4472 25.0264 34.2273 25.4789 33.2553 26.2356L33.004 25.9845C32.8694 25.8502 32.6869 25.7747 32.4968 25.7747C32.4967 25.7747 32.4965 25.7747 32.4963 25.7747C32.3059 25.7748 32.1234 25.8506 31.9889 25.9852C30.7327 27.243 30.0122 28.984 30.0122 30.7616C30.0122 34.4886 33.0444 37.5209 36.7714 37.5209C40.4985 37.5209 43.5307 34.4886 43.5307 30.7616C43.5308 30.3652 43.2094 30.0439 42.813 30.0439ZM36.7715 26.4619C38.8978 26.4619 40.6674 28.0136 41.0102 30.0439H37.0685L34.281 27.26C34.9844 26.7583 35.8437 26.4619 36.7715 26.4619V26.4619ZM36.7715 36.0854C33.836 36.0854 31.4478 33.6972 31.4478 30.7617C31.4478 29.6023 31.837 28.4628 32.5325 27.5426L36.2643 31.2695C36.3989 31.4038 36.5814 31.4793 36.7715 31.4793H42.0471C41.6956 34.0768 39.4637 36.0854 36.7715 36.0854Z" fill="#4794EF"/>
<path d="M20.1602 27.3506H28.1977C28.5941 27.3506 28.9155 27.0293 28.9155 26.6328C28.9155 26.2363 28.5941 25.915 28.1977 25.915H20.1602C19.7638 25.915 19.4424 26.2363 19.4424 26.6328C19.4424 27.0293 19.7638 27.3506 20.1602 27.3506Z" fill="#4794EF"/>
<path d="M20.1602 30.103H28.1977C28.5941 30.103 28.9155 29.7818 28.9155 29.3853C28.9155 28.9888 28.5941 28.6675 28.1977 28.6675H20.1602C19.7638 28.6675 19.4424 28.9888 19.4424 29.3853C19.4424 29.7818 19.7638 30.103 20.1602 30.103Z" fill="#4794EF"/>
<path d="M21.2612 32.8557H28.1977C28.5941 32.8557 28.9155 32.5344 28.9155 32.1379C28.9155 31.7414 28.5941 31.4202 28.1977 31.4202H21.2612C20.8648 31.4202 20.5435 31.7414 20.5435 32.1379C20.5435 32.5344 20.8648 32.8557 21.2612 32.8557V32.8557Z" fill="#4794EF"/>
<path d="M23.4634 35.6082H28.1978C28.5942 35.6082 28.9156 35.2869 28.9156 34.8904C28.9156 34.4939 28.5942 34.1726 28.1978 34.1726H23.4634C23.067 34.1726 22.7456 34.4939 22.7456 34.8904C22.7456 35.2869 23.0669 35.6082 23.4634 35.6082Z" fill="#4794EF"/>
<path d="M23.5732 4.95874C23.9696 4.95874 24.291 4.63746 24.291 4.24097C24.291 3.84447 23.9696 3.52319 23.5732 3.52319H15.5132C15.1168 3.52319 14.7954 3.84447 14.7954 4.24097C14.7954 4.63746 15.1168 4.95874 15.5132 4.95874H23.5732Z" fill="#4794EF"/>
<path d="M38.8408 4.95874H43.2675C43.6639 4.95874 43.9852 4.63746 43.9852 4.24097C43.9852 3.84447 43.6639 3.52319 43.2675 3.52319H38.8408C38.4444 3.52319 38.123 3.84447 38.123 4.24097C38.123 4.63746 38.4444 4.95874 38.8408 4.95874Z" fill="#4794EF"/>
<path d="M38.8408 7.49121H43.2675C43.6639 7.49121 43.9852 7.16994 43.9852 6.77344C43.9852 6.37694 43.6639 6.05566 43.2675 6.05566H38.8408C38.4444 6.05566 38.123 6.37694 38.123 6.77344C38.123 7.16994 38.4444 7.49121 38.8408 7.49121Z" fill="#4794EF"/>
<path d="M25.736 44.4012H41.3138C42.5362 44.4012 43.5308 43.4067 43.5308 42.1842C43.5308 40.9618 42.5362 39.9673 41.3138 39.9673H25.736C24.5136 39.9673 23.519 40.9618 23.519 42.1842C23.519 43.4067 24.5136 44.4012 25.736 44.4012ZM37.6136 41.4028H41.3139C41.7447 41.4028 42.0953 41.7534 42.0953 42.1842C42.0953 42.6151 41.7447 42.9657 41.3139 42.9657H37.6136V41.4028ZM25.736 41.4028H36.1781V42.9657H25.736C25.3052 42.9657 24.9546 42.6151 24.9546 42.1842C24.9546 41.7534 25.3052 41.4028 25.736 41.4028V41.4028Z" fill="#4794EF"/>
<path d="M165.241 74.8929L163.693 73.3449C163.355 73.0075 162.808 73.0074 162.47 73.3449C162.133 73.6824 162.133 74.2297 162.47 74.5672L164.018 76.1152C164.182 76.2785 164.271 76.4955 164.271 76.7263C164.271 76.9571 164.182 77.1741 164.018 77.3374L161.904 79.4518C161.567 79.7888 161.019 79.7888 160.682 79.4518L151.644 70.4139L154.98 67.0772L159.618 71.7152C159.956 72.0528 160.503 72.0528 160.841 71.7152C161.178 71.3777 161.178 70.8305 160.841 70.4931L156.085 65.7378C155.79 65.4426 155.398 65.2801 154.98 65.2801C154.622 65.2801 154.283 65.4005 154.007 65.621L151.203 62.8168C152.713 60.5669 153.595 57.862 153.595 54.9549C153.595 47.1542 147.248 40.8079 139.448 40.8079C137.674 40.8079 135.977 41.1374 134.411 41.7361V40.802C134.411 40.1348 133.869 39.592 133.202 39.592H111.422C110.755 39.592 110.212 40.1348 110.212 40.802V48.69C110.212 49.3572 110.755 49.9 111.422 49.9H126.236C125.633 51.4706 125.301 53.1744 125.301 54.9549C125.301 61.5705 129.866 67.1392 136.011 68.6788V84.6798H134.082V71.422C134.082 70.7143 133.506 70.1386 132.798 70.1386H128.695C127.987 70.1386 127.411 70.7143 127.411 71.422V84.6796H125.482V78.211C125.482 77.7337 125.096 77.3467 124.618 77.3467C124.141 77.3467 123.754 77.7337 123.754 78.211V84.6796H120.54V64.4428H123.754V74.1778C123.754 74.6551 124.141 75.0421 124.618 75.0421C125.096 75.0421 125.482 74.6551 125.482 74.1778V63.9976C125.482 63.29 124.907 62.7143 124.199 62.7143H120.095C119.387 62.7143 118.812 63.29 118.812 63.9976V84.6796H116.883V55.607C116.883 54.8993 116.307 54.3236 115.6 54.3236H111.496C110.788 54.3236 110.212 54.8993 110.212 55.607V84.6797H107.864C107.387 84.6797 107 85.0666 107 85.5439C107 86.0212 107.387 86.4082 107.864 86.4082H145.03C145.507 86.4082 145.894 86.0212 145.894 85.5439C145.894 85.0666 145.507 84.6797 145.03 84.6797H142.681V68.7278C144.358 68.3341 145.921 67.6424 147.31 66.7103L150.125 69.5257C149.704 70.1343 149.763 70.9774 150.304 71.5191L159.459 80.6743C159.965 81.1797 160.629 81.4324 161.293 81.4324C161.957 81.4324 162.621 81.1797 163.126 80.6743L165.24 78.5598C165.73 78.0701 166 77.419 166 76.7264C166 76.0336 165.73 75.3826 165.241 74.8929V74.8929ZM115.155 84.6796H111.941V56.0521H115.155V84.6796ZM132.354 84.6796H129.14V71.8671H132.354V84.6796ZM111.941 48.1714V41.3206H132.683V48.1715H111.941V48.1714ZM140.953 84.6796H137.739V68.9982C138.299 69.066 138.869 69.1017 139.448 69.1017C139.956 69.1017 140.458 69.0731 140.953 69.0206V84.6796ZM139.448 67.3732C132.6 67.3732 127.029 61.8023 127.029 54.9547C127.029 53.1555 127.415 51.4451 128.107 49.8999H130.095C129.278 51.4044 128.813 53.126 128.813 54.9547C128.813 60.819 133.583 65.59 139.448 65.59C144.49 65.59 148.874 62.0042 149.872 57.0639C149.967 56.596 149.664 56.14 149.196 56.0456C148.728 55.9512 148.272 56.2538 148.178 56.7215C147.342 60.8587 143.67 63.8614 139.448 63.8614C134.537 63.8614 130.541 59.8659 130.541 54.9547C130.541 53.0782 131.127 51.337 132.122 49.8999H133.202C133.869 49.8999 134.412 49.3571 134.412 48.6899V47.616C135.845 46.6286 137.579 46.048 139.448 46.048C143.598 46.048 147.256 48.9906 148.146 53.0446C148.248 53.5109 148.709 53.8057 149.175 53.7035C149.641 53.6012 149.936 53.1404 149.834 52.6741C149.323 50.344 148.016 48.2251 146.155 46.7078C144.265 45.1677 141.884 44.3195 139.448 44.3195C137.626 44.3195 135.912 44.7813 134.412 45.5916V43.6053C135.952 42.9191 137.656 42.5363 139.448 42.5363C146.295 42.5363 151.866 48.1072 151.866 54.9547C151.866 61.8023 146.295 67.3732 139.448 67.3732V67.3732ZM148.696 65.6518C149.213 65.2043 149.697 64.7199 150.145 64.203L152.777 66.8356L151.328 68.2845L148.696 65.6518Z" fill="#4794EF"/>
<path d="M139.448 48.2129C135.73 48.2129 132.706 51.2373 132.706 54.9548C132.706 58.6723 135.73 61.6967 139.448 61.6967C143.165 61.6967 146.19 58.6723 146.19 54.9548C146.19 51.2373 143.165 48.2129 139.448 48.2129V48.2129ZM139.448 59.9682C136.684 59.9682 134.435 57.7192 134.435 54.9548C134.435 53.8853 134.772 52.8937 135.345 52.0789L138.837 55.5663C138.999 55.7281 139.219 55.8191 139.448 55.8191H144.385C143.974 58.1728 141.918 59.9682 139.448 59.9682V59.9682ZM139.806 54.0905L136.567 50.8559C137.383 50.2808 138.376 49.9415 139.448 49.9415C141.918 49.9415 143.974 51.7369 144.385 54.0907H139.806V54.0905Z" fill="#4794EF"/>
<path d="M117.752 43.8818H114.879C114.402 43.8818 114.015 44.2688 114.015 44.7461C114.015 45.2234 114.402 45.6104 114.879 45.6104H117.752C118.229 45.6104 118.616 45.2234 118.616 44.7461C118.616 44.2688 118.229 43.8818 117.752 43.8818Z" fill="#4794EF"/>
<path d="M129.745 43.8818H120.411C119.933 43.8818 119.546 44.2688 119.546 44.7461C119.546 45.2234 119.933 45.6104 120.411 45.6104H129.745C130.222 45.6104 130.609 45.2234 130.609 44.7461C130.609 44.2688 130.222 43.8818 129.745 43.8818Z" fill="#4794EF"/>
<path d="M104.459 138.353H129.541V99.5293" stroke="black" stroke-width="0.881657" stroke-dasharray="2.64 4.41"/>
<ellipse cx="130.081" cy="100.081" rx="4" ry="4.08088" fill="#EA8E70"/>
<ellipse cx="105" cy="138.022" rx="4" ry="4.08088" fill="#EA8E70"/>
<path d="M95.8741 63.2V38.1201L57.8066 38.1201" stroke="black" stroke-width="0.881657" stroke-dasharray="2.64 4.41"/>
<ellipse cx="58.0071" cy="37.9199" rx="4" ry="4.00712" transform="rotate(-90 58.0071 37.9199)" fill="#EA8E70"/>
<ellipse cx="96.0745" cy="63" rx="4" ry="4.00712" transform="rotate(-90 96.0745 63)" fill="#EA8E70"/>
<defs>
<clipPath id="clip0">
<rect width="62" height="62" fill="white" transform="translate(34 93)"/>
</clipPath>
</defs>
</svg>
