<svg width="164" height="151" viewBox="0 0 164 151" fill="none" xmlns="http://www.w3.org/2000/svg">
<path d="M55.544 40.6469L30.463 40.6463L30.4619 79.4698" stroke="black" stroke-width="0.881657" stroke-dasharray="2.64 4.41"/>
<ellipse cx="29.921" cy="78.918" rx="4" ry="4.08088" transform="rotate(-179.998 29.921 78.918)" fill="#EA8E70"/>
<ellipse cx="55.003" cy="39.9776" rx="4" ry="4.08088" transform="rotate(-179.998 55.003 39.9776)" fill="#EA8E70"/>
<path d="M64.1269 115.8L64.1262 140.88L102.194 140.881" stroke="black" stroke-width="0.881657" stroke-dasharray="2.64 4.41"/>
<ellipse cx="101.993" cy="141.081" rx="4" ry="4.00712" transform="rotate(90.0016 101.993 141.081)" fill="#EA8E70"/>
<ellipse cx="62.9264" cy="116" rx="4" ry="4.00712" transform="rotate(90.0016 62.9264 116)" fill="#EA8E70"/>
<g clip-path="url(#clip0)">
<path d="M48.383 112.893V101.651H49.4969C49.9074 101.651 50.2783 101.423 50.465 101.058C50.6516 100.692 50.6181 100.259 50.3776 99.9267L46.7797 94.9514C46.5771 94.671 46.2494 94.5027 45.9035 94.5013C45.9019 94.5013 45.9005 94.5013 45.8989 94.5013C45.5546 94.5013 45.2276 94.6666 45.0234 94.9441L41.363 99.9195C41.1186 100.252 41.0823 100.686 41.2684 101.054C41.4544 101.422 41.8261 101.651 42.2383 101.651H43.4192V104.529C43.4192 104.958 43.7667 105.306 44.1956 105.306C44.6244 105.306 44.972 104.958 44.972 104.529V101.185C44.972 100.585 44.4844 100.098 43.885 100.098H43.1593L45.8956 96.3785L48.5852 100.098H47.9172C47.3178 100.098 46.8303 100.585 46.8303 101.185V111.84C46.2397 111.503 45.6186 111.213 44.972 110.977V108.152C44.972 107.724 44.6244 107.376 44.1956 107.376C43.7667 107.376 43.4192 107.724 43.4192 108.152V110.526C42.5735 110.339 41.6955 110.241 40.7947 110.241C40.6167 110.241 40.4399 110.245 40.2637 110.253V93.3395C40.2637 92.3407 39.451 91.528 38.4522 91.528H35.4541V91.125C35.4541 90.6962 35.1066 90.3486 34.6777 90.3486C34.2489 90.3486 33.9014 90.6962 33.9014 91.125V91.528H31.2982V91.125C31.2982 90.6962 30.9507 90.3486 30.5218 90.3486C30.0929 90.3486 29.7454 90.6962 29.7454 91.125V91.528H27.1422V91.125C27.1422 90.6962 26.7947 90.3486 26.3658 90.3486C25.937 90.3486 25.5895 90.6962 25.5895 91.125V91.528H22.9864V91.125C22.9864 90.6962 22.6389 90.3486 22.21 90.3486C21.7811 90.3486 21.4336 90.6962 21.4336 91.125V91.528H18.8304V91.125C18.8304 90.6962 18.4829 90.3486 18.0541 90.3486C17.6252 90.3486 17.2777 90.6962 17.2777 91.125V91.528H14.6745V91.125C14.6745 90.6962 14.327 90.3486 13.8981 90.3486C13.4692 90.3486 13.1217 90.6962 13.1217 91.125V91.528H10.5182V91.125C10.5182 90.6962 10.1707 90.3486 9.74186 90.3486C9.31299 90.3486 8.96549 90.6962 8.96549 91.125V91.528H6.36238V91.125C6.36238 90.6962 6.01488 90.3486 5.58601 90.3486C5.15715 90.3486 4.80965 90.6962 4.80965 91.125V91.528H1.81152C0.812701 91.528 0 92.3407 0 93.3395V129.296C0 130.294 0.812701 131.107 1.81152 131.107H32.2039C34.4112 133.296 37.4475 134.651 40.7947 134.651C43.3976 134.651 45.8822 133.842 47.9801 132.312C48.3266 132.059 48.4025 131.574 48.1499 131.227C47.8971 130.881 47.4113 130.805 47.0651 131.057C45.2347 132.393 43.0664 133.098 40.7948 133.098C34.9209 133.098 30.1422 128.32 30.1422 122.446C30.1422 116.572 34.9209 111.793 40.7948 111.793C46.6687 111.793 51.4473 116.572 51.4473 122.446C51.4473 124.693 50.7554 126.843 49.4464 128.661C49.1959 129.009 49.275 129.495 49.6229 129.745C49.971 129.996 50.4562 129.917 50.7066 129.568C52.207 127.484 53 125.021 53 122.446C53 118.581 51.1944 115.131 48.383 112.893V112.893ZM1.55273 129.296V99.041H8.07422C8.50308 99.041 8.85059 98.6934 8.85059 98.2647C8.85059 97.8359 8.50308 97.4883 8.07422 97.4883H1.55273V93.3395C1.55273 93.1969 1.66878 93.0807 1.81152 93.0807H4.80965V94.3935C4.80965 94.8223 5.15715 95.1699 5.58601 95.1699C6.01488 95.1699 6.36238 94.8223 6.36238 94.3935V93.0807H8.96549V94.3935C8.96549 94.8223 9.31299 95.1699 9.74186 95.1699C10.1707 95.1699 10.5182 94.8223 10.5182 94.3935V93.0807H13.1214V94.3935C13.1214 94.8223 13.4689 95.1699 13.8978 95.1699C14.3267 95.1699 14.6742 94.8223 14.6742 94.3935V93.0807H17.2774V94.3935C17.2774 94.8223 17.6249 95.1699 18.0537 95.1699C18.4826 95.1699 18.8301 94.8223 18.8301 94.3935V93.0807H21.4333V94.3935C21.4333 94.8223 21.7808 95.1699 22.2097 95.1699C22.6386 95.1699 22.9861 94.8223 22.9861 94.3935V93.0807H25.5892V94.3935C25.5892 94.8223 25.9367 95.1699 26.3655 95.1699C26.7944 95.1699 27.1419 94.8223 27.1419 94.3935V93.0807H29.7451V94.3935C29.7451 94.8223 30.0926 95.1699 30.5215 95.1699C30.9503 95.1699 31.2978 94.8223 31.2978 94.3935V93.0807H33.9014V94.3935C33.9014 94.8223 34.2489 95.1699 34.6777 95.1699C35.1066 95.1699 35.4541 94.8223 35.4541 94.3935V93.0807H38.4522C38.595 93.0807 38.711 93.1969 38.711 93.3395V97.4883H11.6973C11.2684 97.4883 10.9209 97.8359 10.9209 98.2647C10.9209 98.6934 11.2684 99.041 11.6973 99.041H38.711V110.421C38.1929 110.51 37.6852 110.631 37.1914 110.784V101.906C37.1914 101.164 36.588 100.561 35.8463 100.561H4.41732C3.67574 100.561 3.07234 101.164 3.07234 101.906V119.694C3.07234 120.435 3.67574 121.039 4.41732 121.039H28.6709C28.6176 121.501 28.5894 121.97 28.5894 122.446C28.5894 123.062 28.6357 123.667 28.7241 124.259H27.2657C26.9593 123.294 26.0553 122.593 24.9904 122.593C23.9256 122.593 23.0215 123.294 22.7152 124.259H17.5488C17.2424 123.294 16.3384 122.593 15.2735 122.593C14.2087 122.593 13.3046 123.294 12.9983 124.259H7.73448C7.42807 123.294 6.52407 122.593 5.45921 122.593C4.14311 122.593 3.07234 123.663 3.07234 124.98C3.07234 126.296 4.14311 127.366 5.45921 127.366C6.48277 127.366 7.35779 126.719 7.69618 125.812H13.0363C13.3748 126.719 14.2498 127.366 15.2733 127.366C16.2969 127.366 17.1719 126.719 17.5103 125.812H22.7534C23.0919 126.719 23.9668 127.366 24.9903 127.366C26.0139 127.366 26.8889 126.719 27.2273 125.812H29.0615C29.452 127.171 30.0729 128.433 30.879 129.554H1.81152C1.66878 129.554 1.55273 129.438 1.55273 129.296ZM31.4924 110.023V106.66H35.6388V110.023H31.4924ZM19.3555 110.023H15.6162V106.66H19.3555V110.023ZM20.9082 106.66H24.6475V110.023H20.9082V106.66ZM14.0634 110.023H10.3241V106.66H14.0634V110.023ZM8.7714 110.023H4.62508V106.66H8.7715V110.023H8.7714ZM4.62508 111.576H8.7715V114.939H4.62508V111.576ZM10.3241 111.576H14.0634V114.939H10.3241V111.576ZM15.6162 111.576H19.3555V114.939H15.6162V111.576ZM20.9082 111.576H24.6475V114.939H20.9082V111.576ZM26.2002 111.576H29.9395V114.939H26.2002V111.576ZM26.2002 110.023V106.66H29.9395V110.023H26.2002ZM35.6387 105.108H31.4922V102.113H35.6387V105.108ZM29.9396 105.108H26.2003V102.113H29.9396V105.108ZM24.6475 105.108H20.9082V102.113H24.6475V105.108ZM19.3555 105.108H15.6162V102.113H19.3555V105.108ZM14.0634 105.108H10.3241V102.113H14.0634V105.108ZM8.7714 105.108H4.62508V102.113H8.7715V105.108H8.7714ZM4.62508 116.492H8.7715V119.486H4.62508V116.492ZM10.3241 116.492H14.0634V119.486H10.3241V116.492ZM15.6162 116.492H19.3555V119.486H15.6162V116.492ZM20.9082 116.492H24.6475V119.486H20.9082V116.492ZM26.2002 116.492H29.9395V116.872C29.5158 117.694 29.1822 118.569 28.9529 119.486H26.2001V116.492H26.2002ZM31.4924 114.555V111.576H35.2505C33.8085 112.314 32.5322 113.331 31.4924 114.555ZM25.8245 124.98C25.8245 125.439 25.4504 125.814 24.9903 125.814C24.5303 125.814 24.1562 125.439 24.1562 124.98C24.1562 124.52 24.5303 124.145 24.9903 124.145C25.4504 124.145 25.8245 124.52 25.8245 124.98ZM16.1074 124.98C16.1074 125.439 15.7333 125.814 15.2733 125.814C14.8133 125.814 14.4392 125.439 14.4392 124.98C14.4392 124.52 14.8133 124.145 15.2733 124.145C15.7333 124.145 16.1074 124.52 16.1074 124.98ZM6.29323 124.98C6.29323 125.439 5.91913 125.814 5.4591 125.814C4.99908 125.814 4.62508 125.439 4.62508 124.98C4.62508 124.52 4.99918 124.145 5.45921 124.145C5.91923 124.145 6.29323 124.52 6.29323 124.98Z" fill="#4794EF"/>
<path d="M40.7942 113.398C35.805 113.398 31.7461 117.457 31.7461 122.446C31.7461 127.435 35.805 131.494 40.7942 131.494C45.7833 131.494 49.8423 127.435 49.8423 122.446C49.8423 117.457 45.7833 113.398 40.7942 113.398ZM40.7942 129.941C36.6612 129.941 33.2988 126.579 33.2988 122.446C33.2988 118.313 36.6612 114.95 40.7942 114.95C44.9272 114.95 48.2895 118.313 48.2895 122.446C48.2895 126.579 44.9272 129.941 40.7942 129.941Z" fill="#4794EF"/>
<path d="M45.2366 121.669H41.5713V116.823C41.5713 116.394 41.2238 116.046 40.7949 116.046C40.3661 116.046 40.0186 116.394 40.0186 116.823V122.446C40.0186 122.874 40.3661 123.222 40.7949 123.222H45.2366C45.6654 123.222 46.0129 122.874 46.0129 122.446C46.0129 122.017 45.6654 121.669 45.2366 121.669Z" fill="#4794EF"/>
</g>
<g clip-path="url(#clip1)">
<path d="M130.262 110.249C131.887 110.249 133.208 108.902 133.208 107.247C133.208 106.718 133.073 106.22 132.836 105.788L136.089 102.582C136.529 102.849 137.043 103.003 137.591 103.003C138.257 103.003 138.873 102.776 139.367 102.394L148.101 109.251C147.959 109.603 147.879 109.987 147.879 110.391C147.879 112.046 149.201 113.392 150.825 113.392C152.45 113.392 153.771 112.046 153.771 110.391C153.771 109.833 153.621 109.31 153.359 108.862L156.024 106.058C156.445 106.294 156.929 106.429 157.443 106.429C159.067 106.429 160.389 105.083 160.389 103.428C160.389 101.773 159.067 100.426 157.443 100.426C155.818 100.426 154.497 101.773 154.497 103.428C154.497 103.986 154.647 104.509 154.909 104.957L152.244 107.761C151.823 107.525 151.339 107.389 150.825 107.389C150.159 107.389 149.544 107.616 149.049 107.998L140.315 101.142C140.458 100.79 140.537 100.405 140.537 100.002C140.537 98.3465 139.215 97 137.591 97C135.967 97 134.645 98.3465 134.645 100.002C134.645 100.525 134.777 101.017 135.009 101.445L131.749 104.658C131.312 104.396 130.804 104.246 130.262 104.246C128.638 104.246 127.316 105.592 127.316 107.247C127.316 108.902 128.638 110.249 130.262 110.249V110.249ZM157.443 102.008C158.211 102.008 158.836 102.645 158.836 103.428C158.836 104.21 158.211 104.847 157.443 104.847C156.674 104.847 156.049 104.21 156.049 103.428C156.049 102.645 156.674 102.008 157.443 102.008ZM150.825 108.971C151.594 108.971 152.219 109.608 152.219 110.391C152.219 111.174 151.594 111.81 150.825 111.81C150.057 111.81 149.432 111.174 149.432 110.391C149.432 109.608 150.057 108.971 150.825 108.971ZM137.591 98.582C138.359 98.582 138.984 99.2189 138.984 100.002C138.984 100.784 138.359 101.421 137.591 101.421C136.823 101.421 136.198 100.784 136.198 100.002C136.198 99.2189 136.823 98.582 137.591 98.582ZM130.262 105.828C131.031 105.828 131.656 106.465 131.656 107.247C131.656 108.03 131.031 108.667 130.262 108.667C129.494 108.667 128.869 108.03 128.869 107.247C128.869 106.465 129.494 105.828 130.262 105.828Z" fill="#4794EF"/>
<path d="M161.782 134.449H160.389V128.008C160.389 127.571 160.041 127.217 159.612 127.217C159.183 127.217 158.836 127.571 158.836 128.008V134.449H156.049V113.282H158.836V124.316C158.836 124.753 159.183 125.107 159.612 125.107C160.041 125.107 160.389 124.753 160.389 124.316V112.846C160.389 112.214 159.884 111.7 159.264 111.7H155.621C155.001 111.7 154.497 112.214 154.497 112.846V134.449H153.771V117.709C153.771 117.077 153.267 116.563 152.647 116.563H149.004C148.384 116.563 147.879 117.077 147.879 117.709V134.449H147.154V113.399C147.154 112.767 146.649 112.253 146.029 112.253H142.387C141.767 112.253 141.262 112.767 141.262 113.399V124.286C141.029 124.015 140.787 123.752 140.537 123.498V116.195C140.537 115.759 140.189 115.404 139.76 115.404C139.332 115.404 138.984 115.759 138.984 116.195V122.11C138.121 121.434 137.188 120.848 136.198 120.363V110.077H138.984V112.504C138.984 112.941 139.332 113.295 139.76 113.295C140.189 113.295 140.537 112.941 140.537 112.504V109.641C140.537 109.009 140.032 108.495 139.412 108.495H135.77C135.149 108.495 134.645 109.009 134.645 109.641V119.704C134.262 119.565 133.873 119.442 133.477 119.334C133.248 118.913 132.807 118.632 132.308 118.632H130.461C130.345 118.277 130.204 117.931 130.041 117.597L131.346 116.267C131.823 115.781 131.87 115.008 131.456 114.469C130.923 113.775 130.308 113.148 129.627 112.605C129.098 112.183 128.339 112.231 127.862 112.718L126.557 114.047C126.229 113.88 125.889 113.737 125.541 113.619V111.738C125.541 111.05 125.038 110.469 124.371 110.386C123.516 110.28 122.638 110.28 121.784 110.386C121.117 110.469 120.614 111.05 120.614 111.738V113.619C120.266 113.737 119.926 113.88 119.598 114.047L118.293 112.718C117.816 112.231 117.057 112.183 116.528 112.605C115.847 113.148 115.232 113.775 114.699 114.469C114.284 115.008 114.332 115.781 114.809 116.268L116.114 117.597C115.95 117.931 115.809 118.278 115.693 118.632H113.847C113.172 118.632 112.602 119.144 112.521 119.824C112.469 120.259 112.442 120.703 112.442 121.142C112.442 121.582 112.469 122.025 112.521 122.46C112.602 123.14 113.172 123.652 113.847 123.652H115.693C115.809 124.006 115.95 124.353 116.114 124.687L114.809 126.017C114.332 126.503 114.284 127.276 114.699 127.815C114.795 127.941 114.896 128.064 114.998 128.185C114.076 130.228 113.56 132.499 113.56 134.891C113.56 143.773 120.653 151 129.371 151C132.854 151 136.158 149.868 138.926 147.726C139.267 147.461 139.334 146.965 139.074 146.617C138.815 146.27 138.328 146.202 137.987 146.466C135.491 148.397 132.512 149.418 129.371 149.418C121.509 149.418 115.113 142.901 115.113 134.891C115.113 132.943 115.491 131.084 116.177 129.385C116.292 129.485 116.408 129.584 116.528 129.679C116.963 130.026 117.554 130.054 118.015 129.783C117.335 131.346 116.955 133.074 116.955 134.891C116.955 141.866 122.525 147.541 129.371 147.541C136.218 147.541 141.788 141.866 141.788 134.891C141.788 129.38 138.311 124.684 133.476 122.953C133.557 122.804 133.613 122.638 133.634 122.46C133.686 122.024 133.712 121.581 133.712 121.142C133.712 121.112 133.711 121.082 133.711 121.052C139.458 122.927 143.63 128.421 143.63 134.89C143.63 138.209 142.502 141.454 140.455 144.028C140.185 144.368 140.236 144.866 140.569 145.141C140.902 145.416 141.391 145.364 141.661 145.024C143.697 142.465 144.912 139.308 145.142 136.031H146.378H161.782C162.211 136.031 162.558 135.676 162.558 135.24C162.558 134.803 162.211 134.449 161.782 134.449V134.449ZM117.332 128.308C116.861 127.916 116.429 127.476 116.044 126.996L117.324 125.691C117.74 125.268 117.834 124.625 117.559 124.091C117.385 123.754 117.24 123.397 117.129 123.032C116.953 122.457 116.44 122.07 115.852 122.07H114.041C114.01 121.762 113.995 121.451 113.995 121.142C113.995 120.833 114.01 120.522 114.041 120.214H115.852C116.44 120.214 116.953 119.827 117.129 119.252C117.24 118.887 117.385 118.531 117.559 118.193C117.834 117.659 117.74 117.016 117.324 116.593L116.044 115.288C116.429 114.808 116.861 114.368 117.332 113.976L118.612 115.28C119.028 115.704 119.659 115.8 120.183 115.52C120.514 115.342 120.864 115.195 121.222 115.081C121.787 114.902 122.166 114.38 122.166 113.781V111.935C122.771 111.873 123.384 111.873 123.988 111.935V113.781C123.988 114.38 124.368 114.902 124.932 115.081C125.291 115.195 125.641 115.342 125.972 115.52C126.496 115.8 127.127 115.704 127.542 115.28L128.823 113.976C129.294 114.368 129.726 114.808 130.111 115.288L128.831 116.593C128.415 117.016 128.321 117.659 128.596 118.193C128.77 118.53 128.915 118.887 129.026 119.252C129.202 119.827 129.714 120.214 130.302 120.214H132.114C132.144 120.522 132.16 120.833 132.16 121.142C132.16 121.451 132.144 121.762 132.114 122.07H130.302C129.714 122.07 129.202 122.457 129.026 123.032C128.915 123.397 128.77 123.754 128.596 124.091C128.321 124.625 128.415 125.268 128.831 125.691L130.111 126.996C129.726 127.476 129.294 127.916 128.823 128.309L127.542 127.004C127.127 126.58 126.496 126.484 125.972 126.765C125.641 126.942 125.291 127.09 124.933 127.203C124.368 127.382 123.988 127.905 123.988 128.504V130.349C123.384 130.411 122.771 130.411 122.167 130.349V128.503C122.167 127.904 121.787 127.382 121.222 127.203C120.864 127.089 120.514 126.942 120.183 126.764C119.659 126.484 119.028 126.58 118.612 127.004L117.332 128.308ZM134.116 124.936L134.077 125.004C133.862 125.383 133.99 125.866 134.361 126.085C134.483 126.157 134.617 126.191 134.748 126.191C135.017 126.191 135.278 126.049 135.421 125.795L135.459 125.729C136.601 126.519 137.588 127.524 138.363 128.687L138.298 128.726C137.927 128.944 137.799 129.428 138.014 129.806C138.158 130.06 138.418 130.202 138.687 130.202C138.818 130.202 138.952 130.168 139.074 130.096L139.142 130.056C139.734 131.293 140.106 132.659 140.207 134.099H138.121C137.693 134.099 137.345 134.454 137.345 134.89C137.345 135.327 137.693 135.681 138.121 135.681H140.207C140.106 137.122 139.734 138.488 139.142 139.725L139.074 139.685C138.703 139.466 138.228 139.596 138.014 139.974C137.799 140.353 137.926 140.836 138.298 141.055L138.364 141.094C137.588 142.257 136.601 143.263 135.459 144.053L135.421 143.986C135.207 143.607 134.732 143.478 134.361 143.696C133.99 143.915 133.862 144.398 134.077 144.777L134.116 144.846C132.902 145.449 131.562 145.829 130.147 145.931V143.828C130.147 143.391 129.8 143.037 129.371 143.037C128.942 143.037 128.595 143.391 128.595 143.828V145.931C127.18 145.829 125.84 145.449 124.626 144.846L124.665 144.777C124.88 144.399 124.753 143.915 124.381 143.696C124.01 143.478 123.535 143.608 123.321 143.986L123.283 144.053C122.141 143.263 121.154 142.257 120.378 141.094L120.444 141.055C120.816 140.837 120.943 140.353 120.728 139.974C120.514 139.596 120.039 139.467 119.668 139.685L119.6 139.725C119.008 138.488 118.636 137.122 118.535 135.682H120.627C121.056 135.682 121.404 135.327 121.404 134.891C121.404 134.454 121.056 134.1 120.627 134.1H118.537C118.679 132.067 119.361 130.185 120.438 128.602C120.496 128.623 120.555 128.645 120.614 128.665V130.546C120.614 131.234 121.117 131.815 121.784 131.898C122.211 131.951 122.646 131.978 123.077 131.978C123.509 131.978 123.944 131.951 124.371 131.898C125.038 131.815 125.541 131.234 125.541 130.546V128.665C125.889 128.547 126.229 128.403 126.557 128.237L127.862 129.566C128.339 130.053 129.098 130.101 129.627 129.679C130.308 129.136 130.924 128.509 131.456 127.815C131.871 127.276 131.823 126.503 131.346 126.017L130.041 124.687C130.171 124.422 130.286 124.149 130.386 123.871C131.712 123.996 132.97 124.367 134.116 124.936V124.936ZM145.601 134.449H145.176C145.098 131.51 144.243 128.766 142.815 126.421V113.835H145.601V134.449ZM152.219 134.449H149.432V118.145H152.219V134.449Z" fill="#4794EF"/>
<path d="M128.703 134.487L125.475 140.027C125.256 140.403 125.378 140.888 125.746 141.111C125.871 141.187 126.007 141.222 126.142 141.222C126.407 141.222 126.665 141.084 126.81 140.835L129.646 135.967L132.918 137.897C133.289 138.116 133.764 137.987 133.979 137.609C134.194 137.231 134.067 136.747 133.696 136.528L129.76 134.206C129.391 133.989 128.92 134.114 128.703 134.487V134.487Z" fill="#4794EF"/>
<path d="M123.078 126.437C125.943 126.437 128.274 124.061 128.274 121.142C128.274 118.222 125.943 115.847 123.078 115.847C120.212 115.847 117.881 118.222 117.881 121.142C117.881 124.061 120.212 126.437 123.078 126.437V126.437ZM123.078 117.429C125.087 117.429 126.722 119.095 126.722 121.142C126.722 123.189 125.087 124.855 123.078 124.855C121.068 124.855 119.434 123.189 119.434 121.142C119.434 119.095 121.068 117.429 123.078 117.429V117.429Z" fill="#4794EF"/>
<path d="M123.078 123.497C124.352 123.497 125.389 122.44 125.389 121.142C125.389 119.844 124.352 118.787 123.078 118.787C121.803 118.787 120.767 119.844 120.767 121.142C120.767 122.44 121.803 123.497 123.078 123.497V123.497ZM123.078 120.369C123.496 120.369 123.836 120.716 123.836 121.142C123.836 121.568 123.496 121.915 123.078 121.915C122.659 121.915 122.319 121.568 122.319 121.142C122.319 120.716 122.66 120.369 123.078 120.369Z" fill="#4794EF"/>
<path d="M148.446 137.849C148.143 137.54 147.652 137.54 147.348 137.849C147.045 138.158 147.045 138.659 147.348 138.967L149.343 140.999L147.348 143.031C147.045 143.34 147.045 143.841 147.348 144.15C147.5 144.304 147.699 144.381 147.897 144.381C148.096 144.381 148.295 144.304 148.446 144.15L150.989 141.559C151.293 141.25 151.293 140.749 150.989 140.44L148.446 137.849Z" fill="#4794EF"/>
<path d="M153.85 137.849C153.547 137.54 153.055 137.54 152.752 137.849C152.449 138.158 152.449 138.659 152.752 138.968L154.746 140.999L152.752 143.031C152.449 143.34 152.449 143.841 152.752 144.15C152.903 144.304 153.102 144.381 153.301 144.381C153.499 144.381 153.698 144.304 153.85 144.15L156.393 141.559C156.696 141.25 156.696 140.749 156.393 140.44L153.85 137.849Z" fill="#4794EF"/>
<path d="M159.254 137.849C158.951 137.54 158.459 137.54 158.156 137.849C157.853 138.158 157.853 138.659 158.156 138.967L160.15 140.999L158.156 143.031C157.853 143.34 157.853 143.841 158.156 144.15C158.308 144.304 158.506 144.381 158.705 144.381C158.904 144.381 159.102 144.304 159.254 144.15L161.797 141.559C162.1 141.25 162.1 140.749 161.797 140.44L159.254 137.849Z" fill="#4794EF"/>
</g>
<g clip-path="url(#clip2)">
<path d="M115.078 28.9197H88.5151C87.8541 28.9197 87.3164 29.4574 87.3164 30.1183V45.3348C87.3164 45.9957 87.8541 46.5333 88.5151 46.5333H115.078C115.739 46.5333 116.276 45.9956 116.276 45.3348V41.9707C116.276 41.5096 115.903 41.1357 115.441 41.1357C114.98 41.1357 114.606 41.5096 114.606 41.9707V44.8633H88.9864V30.5896H114.606V38.0742C114.606 38.5353 114.98 38.9091 115.441 38.9091C115.903 38.9091 116.276 38.5353 116.276 38.0742V30.1182C116.276 29.4574 115.738 28.9197 115.078 28.9197Z" fill="#4794EF"/>
<path d="M90.9932 33.1584C91.4543 33.1584 91.8281 32.7846 91.8281 32.3235C91.8281 31.8624 91.4543 31.4885 90.9932 31.4885C90.532 31.4885 90.1582 31.8624 90.1582 32.3235C90.1582 32.7846 90.532 33.1584 90.9932 33.1584Z" fill="#4794EF"/>
<path d="M93.4424 33.1584C93.9035 33.1584 94.2773 32.7846 94.2773 32.3235C94.2773 31.8624 93.9035 31.4885 93.4424 31.4885C92.9812 31.4885 92.6074 31.8624 92.6074 32.3235C92.6074 32.7846 92.9812 33.1584 93.4424 33.1584Z" fill="#4794EF"/>
<path d="M95.8916 33.1584C96.3527 33.1584 96.7266 32.7846 96.7266 32.3235C96.7266 31.8624 96.3527 31.4885 95.8916 31.4885C95.4305 31.4885 95.0566 31.8624 95.0566 32.3235C95.0566 32.7846 95.4305 33.1584 95.8916 33.1584Z" fill="#4794EF"/>
<path d="M121.559 47.8936H119.306V27.9363C119.306 26.8076 118.388 25.8892 117.259 25.8892H104.397V17.1444C104.397 16.6833 104.023 16.3094 103.562 16.3094C103.101 16.3094 102.727 16.6833 102.727 17.1444V25.8892H86.333C85.2471 25.8892 84.3583 26.7398 84.2923 27.8094H67.6699V9.49293C67.6699 9.28497 67.8391 9.11575 68.0471 9.11575H85.906V22.4152H84.4913V14.1978C84.4913 13.5532 83.9669 13.0288 83.3223 13.0288H80.2058C79.5612 13.0288 79.0369 13.5532 79.0369 14.1978V22.4152H77.6221V18.4811C77.6221 17.8365 77.0977 17.3122 76.4532 17.3122H73.3365C72.6919 17.3122 72.1676 17.8365 72.1676 18.4811V22.4152H70.6758C70.2147 22.4152 69.8408 22.7891 69.8408 23.2502C69.8408 23.7113 70.2147 24.0852 70.6758 24.0852H97.0605C97.7051 24.0852 98.2295 23.5608 98.2295 22.9162V12.4661C98.2295 11.8215 97.7051 11.2971 97.0605 11.2971H93.944C93.2994 11.2971 92.7751 11.8215 92.7751 12.4661V22.4152H91.3603V9.11575H102.35C102.558 9.11575 102.727 9.28497 102.727 9.49293V13.2479C102.727 13.709 103.101 14.0829 103.562 14.0829C104.023 14.0829 104.397 13.709 104.397 13.2479V9.49293C104.397 8.36418 103.479 7.44583 102.35 7.44583H91.3603V4.7085C91.3603 4.06391 90.836 3.53955 90.1914 3.53955H87.0749C86.4303 3.53955 85.9059 4.06391 85.9059 4.7085V7.44583H68.0471C66.9183 7.44583 66 8.36418 66 9.49293V32.0383C66 33.1671 66.9183 34.0854 68.0471 34.0854H73.6816C74.1428 34.0854 74.5166 33.7116 74.5166 33.2505C74.5166 32.7893 74.1428 32.4155 73.6816 32.4155H68.0471C67.8391 32.4155 67.6699 32.2463 67.6699 32.0383V29.4793H84.2859V32.4155H77.5781C77.117 32.4155 76.7432 32.7893 76.7432 33.2505C76.7432 33.7116 77.117 34.0854 77.5781 34.0854H79.5757V39.0822H75.0774C73.6144 39.0822 72.4242 40.2724 72.4242 41.7353V43.1898C72.4242 43.9844 73.0707 44.6309 73.8652 44.6309H84.2859V47.8936H82.0331C81.2386 47.8936 80.5921 48.54 80.5921 49.3346V52.019C80.5921 52.8137 81.2386 53.4601 82.0331 53.4601H121.559C122.354 53.4601 123 52.8136 123 52.019V49.3346C123 48.54 122.354 47.8936 121.559 47.8936V47.8936ZM75.9522 22.4152H73.8375V18.9821H75.9521V22.4152H75.9522ZM82.8212 22.4152H80.7067V14.6987H82.8212V22.4152ZM94.445 12.9671H96.5596V22.4153H94.445V12.9671ZM87.5758 5.20947H89.6904V22.4152H87.5758V5.20947ZM85.9558 27.9363C85.9558 27.7284 86.125 27.5591 86.333 27.5591H117.259C117.467 27.5591 117.636 27.7284 117.636 27.9363V47.8936H85.9558V27.9363ZM81.2456 34.0854H84.2859V39.0822H81.2456V34.0854ZM74.0942 42.9609V41.7353C74.0942 41.1932 74.5353 40.7521 75.0775 40.7521H84.286V42.9609H74.0942ZM82.262 51.7903V49.5636H96.1647L96.9723 51.7903H82.262ZM104.874 51.7903H98.7486L97.941 49.5636H105.661L104.874 51.7903ZM121.33 51.7903H106.645L107.432 49.5636H121.33V51.7903Z" fill="#4794EF"/>
<path d="M111.36 41.8689C112.662 41.8689 113.722 40.8094 113.722 39.5071C113.722 38.2048 112.662 37.1453 111.36 37.1453C111.027 37.1453 110.711 37.2152 110.424 37.3398L108.838 35.7017C108.982 35.3964 109.065 35.0569 109.065 34.6975C109.065 33.3952 108.005 32.3357 106.703 32.3357C105.401 32.3357 104.341 33.3952 104.341 34.6975C104.341 34.9363 104.378 35.1668 104.444 35.3842L98.6271 39.8659C98.2666 39.6429 97.8435 39.5118 97.3894 39.5118C97.0296 39.5118 96.6896 39.5951 96.384 39.7396L94.3944 37.8152C94.5219 37.5251 94.5938 37.2054 94.5938 36.8689C94.5938 35.5666 93.5343 34.507 92.2319 34.507C90.9296 34.507 89.8701 35.5666 89.8701 36.8689C89.8701 38.1712 90.9296 39.2307 92.2319 39.2307C92.5873 39.2307 92.9233 39.1495 93.226 39.0084L95.2217 40.9386C95.0973 41.2256 95.0277 41.5415 95.0277 41.8737C95.0277 43.1761 96.0872 44.2356 97.3896 44.2356C98.6919 44.2356 99.7514 43.1761 99.7514 41.8737C99.7514 41.6349 99.7151 41.4045 99.6488 41.187L105.466 36.7052C105.826 36.9282 106.249 37.0593 106.703 37.0593C107.036 37.0593 107.352 36.9894 107.64 36.8649L109.226 38.5029C109.082 38.8082 108.998 39.1478 108.998 39.5071C108.998 40.8094 110.058 41.8689 111.36 41.8689V41.8689ZM111.36 38.8153C111.741 38.8153 112.052 39.1257 112.052 39.5072C112.052 39.8888 111.741 40.1991 111.36 40.1991C110.978 40.1991 110.668 39.8888 110.668 39.5072C110.668 39.1257 110.978 38.8153 111.36 38.8153ZM92.2318 37.5609C91.8503 37.5609 91.5399 37.2505 91.5399 36.869C91.5399 36.4875 91.8503 36.1771 92.2318 36.1771C92.6134 36.1771 92.9237 36.4875 92.9237 36.869C92.9237 37.2505 92.6134 37.5609 92.2318 37.5609ZM97.3893 42.5656C97.0078 42.5656 96.6974 42.2553 96.6974 41.8737C96.6974 41.4922 97.0078 41.1818 97.3893 41.1818C97.7708 41.1818 98.0812 41.4922 98.0812 41.8737C98.0812 42.2553 97.7708 42.5656 97.3893 42.5656ZM106.703 35.3895C106.322 35.3895 106.011 35.0792 106.011 34.6976C106.011 34.3161 106.322 34.0057 106.703 34.0057C107.085 34.0057 107.395 34.3161 107.395 34.6976C107.395 35.0792 107.085 35.3895 106.703 35.3895Z" fill="#4794EF"/>
<path d="M70.8984 12.5071H75.0176C75.4787 12.5071 75.8525 12.1332 75.8525 11.6721C75.8525 11.211 75.4787 10.8372 75.0176 10.8372H70.8984C70.4373 10.8372 70.0635 11.211 70.0635 11.6721C70.0635 12.1332 70.4373 12.5071 70.8984 12.5071Z" fill="#4794EF"/>
<path d="M70.8984 15.0676H75.0176C75.4787 15.0676 75.8525 14.6938 75.8525 14.2327C75.8525 13.7715 75.4787 13.3977 75.0176 13.3977H70.8984C70.4373 13.3977 70.0635 13.7715 70.0635 14.2327C70.0635 14.6938 70.4373 15.0676 70.8984 15.0676Z" fill="#4794EF"/>
</g>
<defs>
<clipPath id="clip0">
<rect width="53" height="53" fill="white" transform="translate(0 86)"/>
</clipPath>
<clipPath id="clip1">
<rect width="53" height="54" fill="white" transform="translate(111 97)"/>
</clipPath>
<clipPath id="clip2">
<rect width="57" height="57" fill="white" transform="translate(66)"/>
</clipPath>
</defs>
</svg>
