<svg width="158" height="149" viewBox="0 0 158 149" fill="none" xmlns="http://www.w3.org/2000/svg">
<g clip-path="url(#clip0)">
<path d="M48.4063 52.4179H46.5301V36.914C46.5301 36.4772 46.1957 36.123 45.783 36.123C45.3703 36.123 45.036 36.4772 45.036 36.914V52.4179H41.2835V30.563H45.036V33.2226C45.036 33.6595 45.3703 34.0136 45.783 34.0136C46.1957 34.0136 46.5301 33.6595 46.5301 33.2226V30.194C46.5301 29.5252 46.0162 28.9811 45.3846 28.9811H40.9348C40.3032 28.9811 39.7893 29.5252 39.7893 30.194V52.4179H38.529V40.1593C38.529 39.4905 38.0151 38.9464 37.3835 38.9464H32.9337C32.3021 38.9464 31.7882 39.4905 31.7882 40.1593V52.4179H30.5279V34.7429C30.5279 34.0742 30.0141 33.53 29.3824 33.53H24.9327C24.3011 33.53 23.7872 34.0742 23.7872 34.7429V52.4179H22.5268V48.1992C22.5268 47.7623 22.1924 47.4082 21.7798 47.4082C21.3671 47.4082 21.0327 47.7623 21.0327 48.1992V52.4179H17.2802V30.3901H21.0327V44.5078C21.0327 44.9446 21.3671 45.2988 21.7798 45.2988C22.1924 45.2988 22.5268 44.9446 22.5268 44.5078V30.021C22.5268 29.3522 22.0129 28.8081 21.3813 28.8081H16.9316C16.2999 28.8081 15.7861 29.3522 15.7861 30.021V52.4179H14.5258V40.0223C14.5258 39.3535 14.0119 38.8094 13.3803 38.8094H8.93044C8.29882 38.8094 7.78493 39.3535 7.78493 40.0223V52.4179H5.90869C5.49601 52.4179 5.16162 52.7721 5.16162 53.2089C5.16162 53.6458 5.49601 54 5.90869 54H48.4063C48.819 54 49.1534 53.6458 49.1534 53.2089C49.1534 52.7721 48.8189 52.4179 48.4063 52.4179ZM13.0316 52.4179H9.27907V40.3914H13.0316V52.4179ZM29.0337 52.4179H25.2812V35.1121H29.0337V52.4179ZM37.0348 52.4179H33.2823V40.5284H37.0348V52.4179Z" fill="#C4C4C4"/>
<path d="M48.4063 52.4179H46.5301V36.914C46.5301 36.4772 46.1957 36.123 45.783 36.123C45.3703 36.123 45.036 36.4772 45.036 36.914V52.4179H41.2835V30.563H45.036V33.2226C45.036 33.6595 45.3703 34.0136 45.783 34.0136C46.1957 34.0136 46.5301 33.6595 46.5301 33.2226V30.194C46.5301 29.5252 46.0162 28.9811 45.3846 28.9811H40.9348C40.3032 28.9811 39.7893 29.5252 39.7893 30.194V52.4179H38.529V40.1593C38.529 39.4905 38.0151 38.9464 37.3835 38.9464H32.9337C32.3021 38.9464 31.7882 39.4905 31.7882 40.1593V52.4179H30.5279V34.7429C30.5279 34.0742 30.0141 33.53 29.3824 33.53H24.9327C24.3011 33.53 23.7872 34.0742 23.7872 34.7429V52.4179H22.5268V48.1992C22.5268 47.7623 22.1924 47.4082 21.7798 47.4082C21.3671 47.4082 21.0327 47.7623 21.0327 48.1992V52.4179H17.2802V30.3901H21.0327V44.5078C21.0327 44.9446 21.3671 45.2988 21.7798 45.2988C22.1924 45.2988 22.5268 44.9446 22.5268 44.5078V30.021C22.5268 29.3522 22.0129 28.8081 21.3813 28.8081H16.9316C16.2999 28.8081 15.7861 29.3522 15.7861 30.021V52.4179H14.5258V40.0223C14.5258 39.3535 14.0119 38.8094 13.3803 38.8094H8.93044C8.29882 38.8094 7.78493 39.3535 7.78493 40.0223V52.4179H5.90869C5.49601 52.4179 5.16162 52.7721 5.16162 53.2089C5.16162 53.6458 5.49601 54 5.90869 54H48.4063C48.819 54 49.1534 53.6458 49.1534 53.2089C49.1534 52.7721 48.8189 52.4179 48.4063 52.4179ZM13.0316 52.4179H9.27907V40.3914H13.0316V52.4179ZM29.0337 52.4179H25.2812V35.1121H29.0337V52.4179ZM37.0348 52.4179H33.2823V40.5284H37.0348V52.4179Z" fill="#4794EF"/>
<path d="M12.2157 17.9333C12.2157 19.6312 12.7638 21.1951 13.6804 22.4406L12.9967 23.1407C12.4669 22.7732 11.8344 22.5587 11.1551 22.5587C9.29666 22.5587 7.78469 24.1596 7.78469 26.1273C7.78469 28.095 9.29666 29.6959 11.1551 29.6959C13.0135 29.6959 14.5255 28.095 14.5255 26.1273C14.5255 25.4504 14.3466 24.817 14.0362 24.2772L14.7184 23.5785C15.9224 24.6414 17.4697 25.2821 19.1561 25.2821C21.1219 25.2821 22.8979 24.4109 24.162 23.0158L32.0997 29.4915C31.9001 29.9471 31.7879 30.4538 31.7879 30.9882C31.7879 32.9559 33.2998 34.5568 35.1582 34.5568C37.0167 34.5568 38.5286 32.9559 38.5286 30.9882C38.5286 30.2696 38.3263 29.6004 37.9798 29.0398L41.4105 25.2882C41.9207 25.6175 42.5195 25.8073 43.1594 25.8073C45.0178 25.8073 46.5297 24.2064 46.5297 22.2387C46.5297 20.2709 45.0178 18.67 43.1594 18.67C41.301 18.67 39.789 20.2709 39.789 22.2387C39.789 22.9572 39.9913 23.6264 40.3378 24.187L36.9071 27.9385C36.3969 27.6094 35.7981 27.4194 35.1582 27.4194C34.3435 27.4194 33.5955 27.7272 33.0121 28.2386L25.0762 21.7644C25.7229 20.6481 26.0966 19.3361 26.0966 17.9332C26.0966 16.9693 25.9216 16.03 25.5765 15.1412C25.4196 14.7371 24.9834 14.5445 24.6015 14.7103C24.2199 14.8764 24.0378 15.3386 24.1946 15.7427C24.4652 16.4398 24.6024 17.1768 24.6024 17.9333C24.6024 18.9729 24.34 19.9483 23.8835 20.7914L22.2146 19.4299C22.4142 18.9744 22.5265 18.4675 22.5265 17.9332C22.5265 15.9655 21.0145 14.3646 19.1561 14.3646C17.2977 14.3646 15.7857 15.9655 15.7857 17.9332C15.7857 18.6101 15.9646 19.2436 16.275 19.7834L14.7611 21.3336C14.1008 20.3795 13.7098 19.204 13.7098 17.9332C13.7098 17.1637 13.8537 16.4296 14.1133 15.7578H14.5232C15.1976 15.7578 15.7462 15.1769 15.7462 14.4628V13.4436C16.6802 12.6462 17.8657 12.1665 19.1561 12.1665C20.2727 12.1665 21.3467 12.5229 22.262 13.1971C22.6007 13.4467 23.0662 13.3582 23.3018 12.9996C23.5375 12.641 23.4539 12.1481 23.1153 11.8985C21.9483 11.0388 20.5793 10.5844 19.1561 10.5844C17.9174 10.5844 16.7539 10.9308 15.7462 11.5356V9.23353C15.7462 8.5194 15.1975 7.93848 14.5232 7.93848H1.69029C1.01583 7.93848 0.467285 8.5194 0.467285 9.23353V14.463C0.467285 15.1771 1.01593 15.758 1.69029 15.758H12.5294C12.327 16.4458 12.2157 17.1757 12.2157 17.9333V17.9333ZM11.1551 28.1139C10.1205 28.1139 9.27883 27.2227 9.27883 26.1273C9.27883 25.0319 10.1205 24.1407 11.1551 24.1407C12.1896 24.1407 13.0313 25.0319 13.0313 26.1273C13.0313 27.2227 12.1896 28.1139 11.1551 28.1139V28.1139ZM43.1595 20.2521C44.194 20.2521 45.0357 21.1433 45.0357 22.2387C45.0357 23.3341 44.194 24.2253 43.1595 24.2253C42.1249 24.2253 41.2832 23.3341 41.2832 22.2387C41.2832 21.1433 42.1249 20.2521 43.1595 20.2521V20.2521ZM35.1583 29.0015C36.1929 29.0015 37.0346 29.8928 37.0346 30.9882C37.0346 32.0835 36.1929 32.9748 35.1583 32.9748C34.1238 32.9748 33.2821 32.0835 33.2821 30.9882C33.2821 29.8928 34.1238 29.0015 35.1583 29.0015ZM19.1561 15.9467C20.1906 15.9467 21.0323 16.8379 21.0323 17.9333C21.0323 19.0287 20.1906 19.9199 19.1561 19.9199C18.1216 19.9199 17.2799 19.0287 17.2799 17.9333C17.2799 16.8379 18.1217 15.9467 19.1561 15.9467V15.9467ZM17.3145 20.9198C17.8443 21.2873 18.4769 21.5019 19.1562 21.5019C19.9709 21.5019 20.719 21.1941 21.3024 20.6827L22.9709 22.044C21.9875 23.0672 20.6406 23.6999 19.1562 23.6999C17.891 23.6999 16.7261 23.2395 15.8006 22.4703L17.3145 20.9198ZM1.96133 14.1759V9.5204H14.252V14.1759H1.96133Z" fill="#C4C4C4"/>
<path d="M12.2157 17.9333C12.2157 19.6312 12.7638 21.1951 13.6804 22.4406L12.9967 23.1407C12.4669 22.7732 11.8344 22.5587 11.1551 22.5587C9.29666 22.5587 7.78469 24.1596 7.78469 26.1273C7.78469 28.095 9.29666 29.6959 11.1551 29.6959C13.0135 29.6959 14.5255 28.095 14.5255 26.1273C14.5255 25.4504 14.3466 24.817 14.0362 24.2772L14.7184 23.5785C15.9224 24.6414 17.4697 25.2821 19.1561 25.2821C21.1219 25.2821 22.8979 24.4109 24.162 23.0158L32.0997 29.4915C31.9001 29.9471 31.7879 30.4538 31.7879 30.9882C31.7879 32.9559 33.2998 34.5568 35.1582 34.5568C37.0167 34.5568 38.5286 32.9559 38.5286 30.9882C38.5286 30.2696 38.3263 29.6004 37.9798 29.0398L41.4105 25.2882C41.9207 25.6175 42.5195 25.8073 43.1594 25.8073C45.0178 25.8073 46.5297 24.2064 46.5297 22.2387C46.5297 20.2709 45.0178 18.67 43.1594 18.67C41.301 18.67 39.789 20.2709 39.789 22.2387C39.789 22.9572 39.9913 23.6264 40.3378 24.187L36.9071 27.9385C36.3969 27.6094 35.7981 27.4194 35.1582 27.4194C34.3435 27.4194 33.5955 27.7272 33.0121 28.2386L25.0762 21.7644C25.7229 20.6481 26.0966 19.3361 26.0966 17.9332C26.0966 16.9693 25.9216 16.03 25.5765 15.1412C25.4196 14.7371 24.9834 14.5445 24.6015 14.7103C24.2199 14.8764 24.0378 15.3386 24.1946 15.7427C24.4652 16.4398 24.6024 17.1768 24.6024 17.9333C24.6024 18.9729 24.34 19.9483 23.8835 20.7914L22.2146 19.4299C22.4142 18.9744 22.5265 18.4675 22.5265 17.9332C22.5265 15.9655 21.0145 14.3646 19.1561 14.3646C17.2977 14.3646 15.7857 15.9655 15.7857 17.9332C15.7857 18.6101 15.9646 19.2436 16.275 19.7834L14.7611 21.3336C14.1008 20.3795 13.7098 19.204 13.7098 17.9332C13.7098 17.1637 13.8537 16.4296 14.1133 15.7578H14.5232C15.1976 15.7578 15.7462 15.1769 15.7462 14.4628V13.4436C16.6802 12.6462 17.8657 12.1665 19.1561 12.1665C20.2727 12.1665 21.3467 12.5229 22.262 13.1971C22.6007 13.4467 23.0662 13.3582 23.3018 12.9996C23.5375 12.641 23.4539 12.1481 23.1153 11.8985C21.9483 11.0388 20.5793 10.5844 19.1561 10.5844C17.9174 10.5844 16.7539 10.9308 15.7462 11.5356V9.23353C15.7462 8.5194 15.1975 7.93848 14.5232 7.93848H1.69029C1.01583 7.93848 0.467285 8.5194 0.467285 9.23353V14.463C0.467285 15.1771 1.01593 15.758 1.69029 15.758H12.5294C12.327 16.4458 12.2157 17.1757 12.2157 17.9333V17.9333ZM11.1551 28.1139C10.1205 28.1139 9.27883 27.2227 9.27883 26.1273C9.27883 25.0319 10.1205 24.1407 11.1551 24.1407C12.1896 24.1407 13.0313 25.0319 13.0313 26.1273C13.0313 27.2227 12.1896 28.1139 11.1551 28.1139V28.1139ZM43.1595 20.2521C44.194 20.2521 45.0357 21.1433 45.0357 22.2387C45.0357 23.3341 44.194 24.2253 43.1595 24.2253C42.1249 24.2253 41.2832 23.3341 41.2832 22.2387C41.2832 21.1433 42.1249 20.2521 43.1595 20.2521V20.2521ZM35.1583 29.0015C36.1929 29.0015 37.0346 29.8928 37.0346 30.9882C37.0346 32.0835 36.1929 32.9748 35.1583 32.9748C34.1238 32.9748 33.2821 32.0835 33.2821 30.9882C33.2821 29.8928 34.1238 29.0015 35.1583 29.0015ZM19.1561 15.9467C20.1906 15.9467 21.0323 16.8379 21.0323 17.9333C21.0323 19.0287 20.1906 19.9199 19.1561 19.9199C18.1216 19.9199 17.2799 19.0287 17.2799 17.9333C17.2799 16.8379 18.1217 15.9467 19.1561 15.9467V15.9467ZM17.3145 20.9198C17.8443 21.2873 18.4769 21.5019 19.1562 21.5019C19.9709 21.5019 20.719 21.1941 21.3024 20.6827L22.9709 22.044C21.9875 23.0672 20.6406 23.6999 19.1562 23.6999C17.891 23.6999 16.7261 23.2395 15.8006 22.4703L17.3145 20.9198ZM1.96133 14.1759V9.5204H14.252V14.1759H1.96133Z" fill="#4794EF"/>
<path d="M5.60947 11.0571H3.81152C3.39884 11.0571 3.06445 11.4113 3.06445 11.8481C3.06445 12.285 3.39884 12.6392 3.81152 12.6392H5.60957C6.02225 12.6392 6.35664 12.285 6.35664 11.8481C6.35664 11.4113 6.02215 11.0571 5.60947 11.0571V11.0571Z" fill="#C4C4C4"/>
<path d="M5.60947 11.0571H3.81152C3.39884 11.0571 3.06445 11.4113 3.06445 11.8481C3.06445 12.285 3.39884 12.6392 3.81152 12.6392H5.60957C6.02225 12.6392 6.35664 12.285 6.35664 11.8481C6.35664 11.4113 6.02215 11.0571 5.60947 11.0571V11.0571Z" fill="#4794EF"/>
<path d="M12.4019 11.0571H7.94287C7.53019 11.0571 7.1958 11.4113 7.1958 11.8481C7.1958 12.285 7.53019 12.6392 7.94287 12.6392H12.4019C12.8146 12.6392 13.149 12.285 13.149 11.8481C13.149 11.4113 12.8145 11.0571 12.4019 11.0571Z" fill="#C4C4C4"/>
<path d="M12.4019 11.0571H7.94287C7.53019 11.0571 7.1958 11.4113 7.1958 11.8481C7.1958 12.285 7.53019 12.6392 7.94287 12.6392H12.4019C12.8146 12.6392 13.149 12.285 13.149 11.8481C13.149 11.4113 12.8145 11.0571 12.4019 11.0571Z" fill="#4794EF"/>
<path d="M41.5315 15.391C41.5404 15.4104 41.5499 15.4294 41.5602 15.448L42.5278 17.194C42.662 17.4359 42.9072 17.5846 43.1722 17.5846C43.4372 17.5846 43.6824 17.4359 43.8165 17.1939L44.7841 15.4477C44.7945 15.4292 44.804 15.4102 44.8127 15.3909C48.132 14.5899 50.5327 11.4088 50.5327 7.79343C50.5327 5.64356 49.7238 3.64155 48.2549 2.15644C46.7868 0.672076 44.8581 -0.0899359 42.8246 0.00846643C41.0062 0.0972711 39.2873 0.902103 37.9847 2.27467C36.6819 3.64745 35.9135 5.46352 35.8213 7.38833C35.6387 11.1972 38.0359 14.5491 41.5315 15.391V15.391ZM37.3134 7.46869C37.4645 4.31697 39.9155 1.73425 42.8934 1.58892C44.5156 1.5095 46.0529 2.11753 47.223 3.30067C48.3938 4.48446 49.0385 6.08009 49.0385 7.79354C49.0385 10.698 47.0951 13.2508 44.4175 13.8634C43.9905 13.961 43.6329 14.2785 43.4649 14.7022L43.1722 15.2307L42.8793 14.7022C42.7112 14.2786 42.3528 13.961 41.9246 13.8628C39.1061 13.2167 37.1669 10.5276 37.3134 7.46869V7.46869Z" fill="#C4C4C4"/>
<path d="M41.5315 15.391C41.5404 15.4104 41.5499 15.4294 41.5602 15.448L42.5278 17.194C42.662 17.4359 42.9072 17.5846 43.1722 17.5846C43.4372 17.5846 43.6824 17.4359 43.8165 17.1939L44.7841 15.4477C44.7945 15.4292 44.804 15.4102 44.8127 15.3909C48.132 14.5899 50.5327 11.4088 50.5327 7.79343C50.5327 5.64356 49.7238 3.64155 48.2549 2.15644C46.7868 0.672076 44.8581 -0.0899359 42.8246 0.00846643C41.0062 0.0972711 39.2873 0.902103 37.9847 2.27467C36.6819 3.64745 35.9135 5.46352 35.8213 7.38833C35.6387 11.1972 38.0359 14.5491 41.5315 15.391V15.391ZM37.3134 7.46869C37.4645 4.31697 39.9155 1.73425 42.8934 1.58892C44.5156 1.5095 46.0529 2.11753 47.223 3.30067C48.3938 4.48446 49.0385 6.08009 49.0385 7.79354C49.0385 10.698 47.0951 13.2508 44.4175 13.8634C43.9905 13.961 43.6329 14.2785 43.4649 14.7022L43.1722 15.2307L42.8793 14.7022C42.7112 14.2786 42.3528 13.961 41.9246 13.8628C39.1061 13.2167 37.1669 10.5276 37.3134 7.46869V7.46869Z" fill="#4794EF"/>
<path d="M42.4119 8.58467H43.932C44.2783 8.58467 44.5601 8.88304 44.5601 9.24976C44.5601 9.61658 44.2783 9.91495 43.932 9.91495H41.2539C40.8412 9.91495 40.5068 10.2691 40.5068 10.706C40.5068 11.1428 40.8412 11.497 41.2539 11.497H42.4249V12.2004C42.4249 12.6372 42.7593 12.9914 43.1719 12.9914C43.5846 12.9914 43.919 12.6372 43.919 12.2004V11.497H43.932C45.1022 11.497 46.0542 10.4889 46.0542 9.24976C46.0542 8.01071 45.1022 7.00264 43.932 7.00264H42.4119C42.0655 7.00264 41.7837 6.70427 41.7837 6.33745C41.7837 5.97074 42.0655 5.67237 42.4119 5.67237H45.09C45.5027 5.67237 45.8371 5.3182 45.8371 4.88135C45.8371 4.4445 45.5027 4.09033 45.09 4.09033H43.919V3.38696C43.919 2.95011 43.5846 2.59595 43.1719 2.59595C42.7593 2.59595 42.4249 2.95011 42.4249 3.38696V4.09033H42.4119C41.2417 4.09033 40.2896 5.0984 40.2896 6.33756C40.2896 7.5766 41.2417 8.58467 42.4119 8.58467V8.58467Z" fill="#C4C4C4"/>
<path d="M42.4119 8.58467H43.932C44.2783 8.58467 44.5601 8.88304 44.5601 9.24976C44.5601 9.61658 44.2783 9.91495 43.932 9.91495H41.2539C40.8412 9.91495 40.5068 10.2691 40.5068 10.706C40.5068 11.1428 40.8412 11.497 41.2539 11.497H42.4249V12.2004C42.4249 12.6372 42.7593 12.9914 43.1719 12.9914C43.5846 12.9914 43.919 12.6372 43.919 12.2004V11.497H43.932C45.1022 11.497 46.0542 10.4889 46.0542 9.24976C46.0542 8.01071 45.1022 7.00264 43.932 7.00264H42.4119C42.0655 7.00264 41.7837 6.70427 41.7837 6.33745C41.7837 5.97074 42.0655 5.67237 42.4119 5.67237H45.09C45.5027 5.67237 45.8371 5.3182 45.8371 4.88135C45.8371 4.4445 45.5027 4.09033 45.09 4.09033H43.919V3.38696C43.919 2.95011 43.5846 2.59595 43.1719 2.59595C42.7593 2.59595 42.4249 2.95011 42.4249 3.38696V4.09033H42.4119C41.2417 4.09033 40.2896 5.0984 40.2896 6.33756C40.2896 7.5766 41.2417 8.58467 42.4119 8.58467V8.58467Z" fill="#4794EF"/>
</g>
<path d="M74.1222 99.5725C74.5867 99.5725 74.9631 99.2018 74.9631 98.7445V94.6888C74.9631 94.2316 74.5867 93.8608 74.1222 93.8608C73.6578 93.8608 73.2812 94.2316 73.2812 94.6888V98.7445C73.2812 99.2018 73.6578 99.5725 74.1222 99.5725Z" fill="#C4C4C4"/>
<path d="M74.1222 99.5725C74.5867 99.5725 74.9631 99.2018 74.9631 98.7445V94.6888C74.9631 94.2316 74.5867 93.8608 74.1222 93.8608C73.6578 93.8608 73.2812 94.2316 73.2812 94.6888V98.7445C73.2812 99.2018 73.6578 99.5725 74.1222 99.5725Z" fill="#4794EF"/>
<path d="M54.65 114.689H58.7691C59.2335 114.689 59.61 114.318 59.61 113.861C59.61 113.404 59.2335 113.033 58.7691 113.033H54.65C54.1856 113.033 53.8091 113.404 53.8091 113.861C53.8091 114.318 54.1856 114.689 54.65 114.689Z" fill="#C4C4C4"/>
<path d="M54.65 114.689H58.7691C59.2335 114.689 59.61 114.318 59.61 113.861C59.61 113.404 59.2335 113.033 58.7691 113.033H54.65C54.1856 113.033 53.8091 113.404 53.8091 113.861C53.8091 114.318 54.1856 114.689 54.65 114.689Z" fill="#4794EF"/>
<path d="M89.4752 114.689H93.5942C94.0588 114.689 94.4352 114.318 94.4352 113.861C94.4352 113.404 94.0588 113.033 93.5942 113.033H89.4752C89.0107 113.033 88.6343 113.404 88.6343 113.861C88.6343 114.318 89.0107 114.689 89.4752 114.689Z" fill="#C4C4C4"/>
<path d="M89.4752 114.689H93.5942C94.0588 114.689 94.4352 114.318 94.4352 113.861C94.4352 113.404 94.0588 113.033 93.5942 113.033H89.4752C89.0107 113.033 88.6343 113.404 88.6343 113.861C88.6343 114.318 89.0107 114.689 89.4752 114.689Z" fill="#4794EF"/>
<path d="M84.9781 104C85.1933 104 85.4086 103.919 85.5728 103.758L88.4854 100.89C88.8138 100.566 88.8138 100.042 88.4853 99.7189C88.157 99.3954 87.6245 99.3955 87.2961 99.7189L84.3835 102.587C84.0551 102.91 84.0551 103.434 84.3836 103.758C84.5477 103.919 84.7629 104 84.9781 104Z" fill="#C4C4C4"/>
<path d="M84.9781 104C85.1933 104 85.4086 103.919 85.5728 103.758L88.4854 100.89C88.8138 100.566 88.8138 100.042 88.4853 99.7189C88.157 99.3954 87.6245 99.3955 87.2961 99.7189L84.3835 102.587C84.0551 102.91 84.0551 103.434 84.3836 103.758C84.5477 103.919 84.7629 104 84.9781 104Z" fill="#4794EF"/>
<path d="M62.6712 103.758C62.8353 103.919 63.0506 104 63.2658 104C63.481 104 63.6962 103.919 63.8604 103.758C64.1888 103.434 64.1888 102.91 63.8604 102.587L60.9477 99.7188C60.6193 99.3955 60.0868 99.3955 59.7585 99.7188C59.4301 100.042 59.4301 100.566 59.7585 100.89L62.6712 103.758Z" fill="#C4C4C4"/>
<path d="M62.6712 103.758C62.8353 103.919 63.0506 104 63.2658 104C63.481 104 63.6962 103.919 63.8604 103.758C64.1888 103.434 64.1888 102.91 63.8604 102.587L60.9477 99.7188C60.6193 99.3955 60.0868 99.3955 59.7585 99.7188C59.4301 100.042 59.4301 100.566 59.7585 100.89L62.6712 103.758Z" fill="#4794EF"/>
<path d="M55.3971 137.804H64.1429C64.6073 137.804 64.9838 137.433 64.9838 136.976C64.9838 136.519 64.6073 136.148 64.1429 136.148H55.3971C54.9327 136.148 54.5562 136.519 54.5562 136.976C54.5562 137.433 54.9327 137.804 55.3971 137.804Z" fill="#C4C4C4"/>
<path d="M55.3971 137.804H64.1429C64.6073 137.804 64.9838 137.433 64.9838 136.976C64.9838 136.519 64.6073 136.148 64.1429 136.148H55.3971C54.9327 136.148 54.5562 136.519 54.5562 136.976C54.5562 137.433 54.9327 137.804 55.3971 137.804Z" fill="#4794EF"/>
<path d="M55.3971 140.676H64.1429C64.6073 140.676 64.9838 140.305 64.9838 139.848C64.9838 139.39 64.6073 139.02 64.1429 139.02H55.3971C54.9327 139.02 54.5562 139.39 54.5562 139.848C54.5562 140.305 54.9327 140.676 55.3971 140.676Z" fill="#C4C4C4"/>
<path d="M55.3971 140.676H64.1429C64.6073 140.676 64.9838 140.305 64.9838 139.848C64.9838 139.39 64.6073 139.02 64.1429 139.02H55.3971C54.9327 139.02 54.5562 139.39 54.5562 139.848C54.5562 140.305 54.9327 140.676 55.3971 140.676Z" fill="#4794EF"/>
<path d="M94.0243 129.859H92.3739C92.7319 128.693 92.9129 127.485 92.9129 126.252C92.9129 121.544 90.2517 117.437 86.333 115.312C86.4001 114.797 86.4348 114.275 86.4348 113.747C86.4348 111.304 85.6992 108.948 84.3076 106.935C84.0465 106.557 83.5235 106.459 83.1393 106.716C82.7553 106.974 82.6558 107.489 82.9173 107.867C84.1182 109.604 84.753 111.638 84.753 113.747C84.753 116.522 83.6608 119.136 81.6774 121.109C80.1649 122.613 78.9869 124.382 78.2359 126.263H74.963V121.077C78.6997 120.664 81.6141 117.535 81.6141 113.747C81.6141 109.68 78.2532 106.371 74.122 106.371C69.9909 106.371 66.6299 109.68 66.6299 113.747C66.6299 117.535 69.5445 120.664 73.2811 121.077V126.263H70.0049C69.2371 124.34 68.0802 122.591 66.6265 121.168C64.5278 119.114 63.4156 116.376 63.495 113.46C63.5678 110.783 64.6792 108.257 66.6242 106.347C68.5693 104.436 71.1378 103.348 73.8566 103.283C76.2274 103.227 78.4842 103.921 80.3879 105.291C80.7628 105.561 81.2889 105.48 81.563 105.111C81.837 104.742 81.7553 104.224 81.3804 103.954C79.1745 102.367 76.5564 101.561 73.8157 101.628C70.6639 101.703 67.6881 102.963 65.4364 105.174C63.1847 107.386 61.898 110.312 61.8137 113.415C61.7735 114.897 61.9988 116.339 62.4698 117.692C58.3216 119.091 55.3311 122.969 55.3311 127.522C55.3311 128.312 55.4217 129.095 55.6012 129.859H54.2198C49.3665 129.859 45.418 133.747 45.418 138.526C45.418 143.304 49.3665 147.192 54.2198 147.192H60.9019C61.3663 147.192 61.7428 146.821 61.7428 146.364C61.7428 145.907 61.3663 145.536 60.9019 145.536H54.2198C50.2938 145.536 47.0998 142.391 47.0998 138.526C47.0998 134.66 50.2938 131.515 54.2198 131.515H56.7195C56.9922 131.515 57.2479 131.385 57.4056 131.166C57.5634 130.947 57.6033 130.666 57.513 130.413C57.1814 129.482 57.0131 128.509 57.0131 127.522C57.0131 123.653 59.583 120.367 63.1292 119.224C63.7159 120.361 64.4906 121.412 65.4408 122.342C66.6903 123.565 67.693 125.063 68.3753 126.711C67.5725 127.217 67.0387 128.102 67.0387 129.108C67.0387 129.896 67.3657 130.61 67.8928 131.125C67.3657 131.641 67.0387 132.355 67.0387 133.143C67.0387 134.635 68.212 135.862 69.6979 135.978L70.0077 137.392C70.4248 139.295 72.1625 140.676 74.1396 140.676C74.987 140.676 75.788 140.423 76.4607 139.985C77.8158 141.809 80.0041 142.997 82.4699 142.997C85.7971 142.997 88.7445 140.794 89.6375 137.64C89.7622 137.2 89.5006 136.743 89.0532 136.62C88.6056 136.497 88.1421 136.755 88.0174 137.195C87.3264 139.636 85.0451 141.341 82.4699 141.341C79.2936 141.341 76.7095 138.796 76.7095 135.669C76.7095 132.542 79.2936 129.997 82.4699 129.997C84.9277 129.997 87.1163 131.535 87.9162 133.823C88.0675 134.255 88.5458 134.485 88.985 134.336C89.4242 134.188 89.6577 133.716 89.5065 133.284C88.4731 130.328 85.6451 128.341 82.4698 128.341C82.0121 128.341 81.5647 128.384 81.1296 128.463C80.9561 127.729 80.4934 127.103 79.8664 126.709C80.5363 125.095 81.5631 123.576 82.8726 122.274C84.3667 120.788 85.4236 118.987 85.9804 117.026C89.1275 118.933 91.231 122.354 91.231 126.252C91.231 127.675 90.953 129.061 90.405 130.372C90.2981 130.627 90.3277 130.918 90.4837 131.148C90.6399 131.377 90.9019 131.515 91.1825 131.515H94.0243C97.9502 131.515 101.144 134.66 101.144 138.525C101.144 142.391 97.9502 145.536 94.0243 145.536H64.8263C64.3619 145.536 63.9854 145.906 63.9854 146.364C63.9854 146.821 64.3619 147.192 64.8263 147.192H94.0243C98.8776 147.192 102.826 143.304 102.826 138.525C102.826 133.747 98.8776 129.859 94.0243 129.859V129.859ZM74.122 115.774C72.9874 115.774 72.0643 114.865 72.0643 113.747C72.0643 112.63 72.9874 111.721 74.122 111.721C75.2566 111.721 76.1799 112.63 76.1799 113.747C76.1799 114.865 75.2566 115.774 74.122 115.774ZM68.3118 113.747C68.3118 110.593 70.9183 108.027 74.122 108.027C77.3258 108.027 79.9323 110.593 79.9323 113.747C79.9323 116.621 77.7696 119.005 74.963 119.408V117.334C76.6212 116.958 77.8617 115.493 77.8617 113.747C77.8617 111.717 76.1841 110.065 74.122 110.065C72.0601 110.065 70.3824 111.717 70.3824 113.747C70.3824 115.493 71.6229 116.958 73.2811 117.334V119.408C70.4745 119.005 68.3118 116.621 68.3118 113.747ZM74.1396 139.019C72.9492 139.019 71.9029 138.188 71.6517 137.042L71.4206 135.988H75.0359C75.0753 136.891 75.2811 137.753 75.6247 138.543C75.2027 138.844 74.6874 139.019 74.1396 139.019V139.019ZM75.154 134.332H69.9283C69.2624 134.332 68.7205 133.798 68.7205 133.143C68.7205 132.487 69.2624 131.953 69.9283 131.953H76.0592C75.6253 132.676 75.3146 133.478 75.154 134.332V134.332ZM77.415 130.297H69.9282C69.2623 130.297 68.7204 129.764 68.7204 129.108C68.7204 128.452 69.2623 127.919 69.9282 127.919H78.3157C78.9262 127.919 79.4308 128.367 79.5112 128.947C78.735 129.279 78.0275 129.738 77.415 130.297Z" fill="#C4C4C4"/>
<path d="M94.0243 129.859H92.3739C92.7319 128.693 92.9129 127.485 92.9129 126.252C92.9129 121.544 90.2517 117.437 86.333 115.312C86.4001 114.797 86.4348 114.275 86.4348 113.747C86.4348 111.304 85.6992 108.948 84.3076 106.935C84.0465 106.557 83.5235 106.459 83.1393 106.716C82.7553 106.974 82.6558 107.489 82.9173 107.867C84.1182 109.604 84.753 111.638 84.753 113.747C84.753 116.522 83.6608 119.136 81.6774 121.109C80.1649 122.613 78.9869 124.382 78.2359 126.263H74.963V121.077C78.6997 120.664 81.6141 117.535 81.6141 113.747C81.6141 109.68 78.2532 106.371 74.122 106.371C69.9909 106.371 66.6299 109.68 66.6299 113.747C66.6299 117.535 69.5445 120.664 73.2811 121.077V126.263H70.0049C69.2371 124.34 68.0802 122.591 66.6265 121.168C64.5278 119.114 63.4156 116.376 63.495 113.46C63.5678 110.783 64.6792 108.257 66.6242 106.347C68.5693 104.436 71.1378 103.348 73.8566 103.283C76.2274 103.227 78.4842 103.921 80.3879 105.291C80.7628 105.561 81.2889 105.48 81.563 105.111C81.837 104.742 81.7553 104.224 81.3804 103.954C79.1745 102.367 76.5564 101.561 73.8157 101.628C70.6639 101.703 67.6881 102.963 65.4364 105.174C63.1847 107.386 61.898 110.312 61.8137 113.415C61.7735 114.897 61.9988 116.339 62.4698 117.692C58.3216 119.091 55.3311 122.969 55.3311 127.522C55.3311 128.312 55.4217 129.095 55.6012 129.859H54.2198C49.3665 129.859 45.418 133.747 45.418 138.526C45.418 143.304 49.3665 147.192 54.2198 147.192H60.9019C61.3663 147.192 61.7428 146.821 61.7428 146.364C61.7428 145.907 61.3663 145.536 60.9019 145.536H54.2198C50.2938 145.536 47.0998 142.391 47.0998 138.526C47.0998 134.66 50.2938 131.515 54.2198 131.515H56.7195C56.9922 131.515 57.2479 131.385 57.4056 131.166C57.5634 130.947 57.6033 130.666 57.513 130.413C57.1814 129.482 57.0131 128.509 57.0131 127.522C57.0131 123.653 59.583 120.367 63.1292 119.224C63.7159 120.361 64.4906 121.412 65.4408 122.342C66.6903 123.565 67.693 125.063 68.3753 126.711C67.5725 127.217 67.0387 128.102 67.0387 129.108C67.0387 129.896 67.3657 130.61 67.8928 131.125C67.3657 131.641 67.0387 132.355 67.0387 133.143C67.0387 134.635 68.212 135.862 69.6979 135.978L70.0077 137.392C70.4248 139.295 72.1625 140.676 74.1396 140.676C74.987 140.676 75.788 140.423 76.4607 139.985C77.8158 141.809 80.0041 142.997 82.4699 142.997C85.7971 142.997 88.7445 140.794 89.6375 137.64C89.7622 137.2 89.5006 136.743 89.0532 136.62C88.6056 136.497 88.1421 136.755 88.0174 137.195C87.3264 139.636 85.0451 141.341 82.4699 141.341C79.2936 141.341 76.7095 138.796 76.7095 135.669C76.7095 132.542 79.2936 129.997 82.4699 129.997C84.9277 129.997 87.1163 131.535 87.9162 133.823C88.0675 134.255 88.5458 134.485 88.985 134.336C89.4242 134.188 89.6577 133.716 89.5065 133.284C88.4731 130.328 85.6451 128.341 82.4698 128.341C82.0121 128.341 81.5647 128.384 81.1296 128.463C80.9561 127.729 80.4934 127.103 79.8664 126.709C80.5363 125.095 81.5631 123.576 82.8726 122.274C84.3667 120.788 85.4236 118.987 85.9804 117.026C89.1275 118.933 91.231 122.354 91.231 126.252C91.231 127.675 90.953 129.061 90.405 130.372C90.2981 130.627 90.3277 130.918 90.4837 131.148C90.6399 131.377 90.9019 131.515 91.1825 131.515H94.0243C97.9502 131.515 101.144 134.66 101.144 138.525C101.144 142.391 97.9502 145.536 94.0243 145.536H64.8263C64.3619 145.536 63.9854 145.906 63.9854 146.364C63.9854 146.821 64.3619 147.192 64.8263 147.192H94.0243C98.8776 147.192 102.826 143.304 102.826 138.525C102.826 133.747 98.8776 129.859 94.0243 129.859V129.859ZM74.122 115.774C72.9874 115.774 72.0643 114.865 72.0643 113.747C72.0643 112.63 72.9874 111.721 74.122 111.721C75.2566 111.721 76.1799 112.63 76.1799 113.747C76.1799 114.865 75.2566 115.774 74.122 115.774ZM68.3118 113.747C68.3118 110.593 70.9183 108.027 74.122 108.027C77.3258 108.027 79.9323 110.593 79.9323 113.747C79.9323 116.621 77.7696 119.005 74.963 119.408V117.334C76.6212 116.958 77.8617 115.493 77.8617 113.747C77.8617 111.717 76.1841 110.065 74.122 110.065C72.0601 110.065 70.3824 111.717 70.3824 113.747C70.3824 115.493 71.6229 116.958 73.2811 117.334V119.408C70.4745 119.005 68.3118 116.621 68.3118 113.747ZM74.1396 139.019C72.9492 139.019 71.9029 138.188 71.6517 137.042L71.4206 135.988H75.0359C75.0753 136.891 75.2811 137.753 75.6247 138.543C75.2027 138.844 74.6874 139.019 74.1396 139.019V139.019ZM75.154 134.332H69.9283C69.2624 134.332 68.7205 133.798 68.7205 133.143C68.7205 132.487 69.2624 131.953 69.9283 131.953H76.0592C75.6253 132.676 75.3146 133.478 75.154 134.332V134.332ZM77.415 130.297H69.9282C69.2623 130.297 68.7204 129.764 68.7204 129.108C68.7204 128.452 69.2623 127.919 69.9282 127.919H78.3157C78.9262 127.919 79.4308 128.367 79.5112 128.947C78.735 129.279 78.0275 129.738 77.415 130.297Z" fill="#4794EF"/>
<path d="M84.8588 133.571L82.0506 136.336L80.0811 134.397C79.7526 134.073 79.2202 134.073 78.8918 134.397C78.5634 134.72 78.5634 135.244 78.8918 135.568L81.456 138.092C81.6138 138.248 81.8276 138.335 82.0507 138.335C82.2739 138.335 82.4876 138.248 82.6454 138.092L86.0483 134.742C86.3767 134.418 86.3767 133.894 86.0483 133.571C85.7197 133.248 85.1873 133.248 84.8588 133.571Z" fill="#C4C4C4"/>
<path d="M84.8588 133.571L82.0506 136.336L80.0811 134.397C79.7526 134.073 79.2202 134.073 78.8918 134.397C78.5634 134.72 78.5634 135.244 78.8918 135.568L81.456 138.092C81.6138 138.248 81.8276 138.335 82.0507 138.335C82.2739 138.335 82.4876 138.248 82.6454 138.092L86.0483 134.742C86.3767 134.418 86.3767 133.894 86.0483 133.571C85.7197 133.248 85.1873 133.248 84.8588 133.571Z" fill="#4794EF"/>
<path d="M111.459 136.353H136.541V97.5293" stroke="black" stroke-width="0.881657" stroke-dasharray="2.64 4.41"/>
<ellipse cx="137.081" cy="98.0809" rx="4" ry="4.08088" fill="#EA8E70"/>
<ellipse cx="112" cy="136.022" rx="4" ry="4.08088" fill="#EA8E70"/>
<path d="M97.8746 61.2V36.1201L59.8071 36.1201" stroke="black" stroke-width="0.881657" stroke-dasharray="2.64 4.41"/>
<ellipse cx="60.0071" cy="35.9875" rx="4" ry="4.00713" transform="rotate(-90 60.0071 35.9875)" fill="#EA8E70"/>
<ellipse cx="98.0745" cy="61" rx="4" ry="4.00713" transform="rotate(-90 98.0745 61)" fill="#EA8E70"/>
<path d="M157.282 69.1721C157.679 69.1721 158 68.8807 158 68.5213V60.9157C158 60.0784 157.249 59.3971 156.325 59.3971H155.859V52.1106C155.859 51.6082 155.408 51.1995 154.854 51.1995H153.915V45.9111C153.915 45.4087 153.464 45 152.91 45H120.444C119.89 45 119.439 45.4087 119.439 45.9111V48.0997H117.735C117.181 48.0997 116.73 48.5084 116.73 49.0108V54.0907H116.263C115.34 54.0907 114.588 54.772 114.588 55.6093V60.0478V64.5559C112.909 65.737 111.825 67.5827 111.825 69.6545V71.6404H110.675C109.751 71.6404 109 72.3217 109 73.159V83.9291C109 84.7664 109.751 85.4476 110.675 85.4476H127.206C128.058 85.4476 128.762 84.8669 128.866 84.1192H156.325C157.249 84.1192 158 83.4379 158 82.6006V71.5584C158 71.199 157.679 70.9076 157.282 70.9076C156.886 70.9076 156.564 71.199 156.564 71.5584V82.6007C156.564 82.7203 156.457 82.8177 156.325 82.8177H128.881V73.1591C128.881 72.3218 128.129 71.6405 127.206 71.6405H126.056V69.6546C126.056 66.0972 122.864 63.203 118.94 63.203C117.901 63.203 116.915 63.4077 116.024 63.7722V60.6986H156.325C156.457 60.6986 156.564 60.796 156.564 60.9156V68.5213C156.564 68.8807 156.886 69.1721 157.282 69.1721ZM127.445 83.9292C127.445 84.0487 127.338 84.1461 127.206 84.1461H110.675C110.543 84.1461 110.436 84.0487 110.436 83.9292V81.8316H127.445V83.9292ZM127.206 72.9421C127.338 72.9421 127.445 73.0395 127.445 73.1591V75.2566H124.408C124.012 75.2566 123.69 75.548 123.69 75.9074C123.69 76.2668 124.012 76.5582 124.408 76.5582H127.445V80.53H110.436V76.5582H121.059C121.455 76.5582 121.776 76.2668 121.776 75.9074C121.776 75.548 121.455 75.2566 121.059 75.2566H110.436V73.1591C110.436 73.0395 110.543 72.9421 110.675 72.9421H127.206ZM116.132 71.6405V69.6546C116.132 68.2503 117.392 67.1079 118.94 67.1079C120.489 67.1079 121.749 68.2504 121.749 69.6546V71.6405H116.132ZM118.94 64.5047C122.072 64.5047 124.62 66.815 124.62 69.6546V71.6405H123.185V69.6546C123.185 67.5326 121.281 65.8063 118.94 65.8063C116.6 65.8063 114.696 67.5327 114.696 69.6546V71.6405H113.26V69.6546C113.261 66.8149 115.808 64.5047 118.94 64.5047V64.5047ZM118.165 49.4013H143.166C143.562 49.4013 143.884 49.1099 143.884 48.7505C143.884 48.3911 143.562 48.0997 143.166 48.0997H120.875V46.3016H152.479V51.1995H151.205V49.0108C151.205 48.5084 150.755 48.0997 150.2 48.0997H146.516C146.119 48.0997 145.798 48.3911 145.798 48.7505C145.798 49.1099 146.119 49.4013 146.516 49.4013H149.77V51.1995H122.388C121.834 51.1995 121.383 51.6082 121.383 52.1106V54.0907H118.165V49.4013ZM116.024 59.3971V55.6094C116.024 55.4898 116.131 55.3924 116.263 55.3924H131.289C131.38 55.3924 131.461 55.4378 131.502 55.5109L133.685 59.3971H116.024ZM154.423 59.3971H135.296L132.781 54.9201C132.494 54.4085 131.922 54.0907 131.289 54.0907H122.818V52.5011H154.423V59.3971H154.423Z" fill="#C4C4C4"/>
<path d="M157.282 69.1721C157.679 69.1721 158 68.8807 158 68.5213V60.9157C158 60.0784 157.249 59.3971 156.325 59.3971H155.859V52.1106C155.859 51.6082 155.408 51.1995 154.854 51.1995H153.915V45.9111C153.915 45.4087 153.464 45 152.91 45H120.444C119.89 45 119.439 45.4087 119.439 45.9111V48.0997H117.735C117.181 48.0997 116.73 48.5084 116.73 49.0108V54.0907H116.263C115.34 54.0907 114.588 54.772 114.588 55.6093V60.0478V64.5559C112.909 65.737 111.825 67.5827 111.825 69.6545V71.6404H110.675C109.751 71.6404 109 72.3217 109 73.159V83.9291C109 84.7664 109.751 85.4476 110.675 85.4476H127.206C128.058 85.4476 128.762 84.8669 128.866 84.1192H156.325C157.249 84.1192 158 83.4379 158 82.6006V71.5584C158 71.199 157.679 70.9076 157.282 70.9076C156.886 70.9076 156.564 71.199 156.564 71.5584V82.6007C156.564 82.7203 156.457 82.8177 156.325 82.8177H128.881V73.1591C128.881 72.3218 128.129 71.6405 127.206 71.6405H126.056V69.6546C126.056 66.0972 122.864 63.203 118.94 63.203C117.901 63.203 116.915 63.4077 116.024 63.7722V60.6986H156.325C156.457 60.6986 156.564 60.796 156.564 60.9156V68.5213C156.564 68.8807 156.886 69.1721 157.282 69.1721ZM127.445 83.9292C127.445 84.0487 127.338 84.1461 127.206 84.1461H110.675C110.543 84.1461 110.436 84.0487 110.436 83.9292V81.8316H127.445V83.9292ZM127.206 72.9421C127.338 72.9421 127.445 73.0395 127.445 73.1591V75.2566H124.408C124.012 75.2566 123.69 75.548 123.69 75.9074C123.69 76.2668 124.012 76.5582 124.408 76.5582H127.445V80.53H110.436V76.5582H121.059C121.455 76.5582 121.776 76.2668 121.776 75.9074C121.776 75.548 121.455 75.2566 121.059 75.2566H110.436V73.1591C110.436 73.0395 110.543 72.9421 110.675 72.9421H127.206ZM116.132 71.6405V69.6546C116.132 68.2503 117.392 67.1079 118.94 67.1079C120.489 67.1079 121.749 68.2504 121.749 69.6546V71.6405H116.132ZM118.94 64.5047C122.072 64.5047 124.62 66.815 124.62 69.6546V71.6405H123.185V69.6546C123.185 67.5326 121.281 65.8063 118.94 65.8063C116.6 65.8063 114.696 67.5327 114.696 69.6546V71.6405H113.26V69.6546C113.261 66.8149 115.808 64.5047 118.94 64.5047V64.5047ZM118.165 49.4013H143.166C143.562 49.4013 143.884 49.1099 143.884 48.7505C143.884 48.3911 143.562 48.0997 143.166 48.0997H120.875V46.3016H152.479V51.1995H151.205V49.0108C151.205 48.5084 150.755 48.0997 150.2 48.0997H146.516C146.119 48.0997 145.798 48.3911 145.798 48.7505C145.798 49.1099 146.119 49.4013 146.516 49.4013H149.77V51.1995H122.388C121.834 51.1995 121.383 51.6082 121.383 52.1106V54.0907H118.165V49.4013ZM116.024 59.3971V55.6094C116.024 55.4898 116.131 55.3924 116.263 55.3924H131.289C131.38 55.3924 131.461 55.4378 131.502 55.5109L133.685 59.3971H116.024ZM154.423 59.3971H135.296L132.781 54.9201C132.494 54.4085 131.922 54.0907 131.289 54.0907H122.818V52.5011H154.423V59.3971H154.423Z" fill="#4794EF"/>
<path d="M139.77 56.1195H150.464C150.861 56.1195 151.182 55.8281 151.182 55.4687C151.182 55.1093 150.861 54.8179 150.464 54.8179H139.77C139.373 54.8179 139.052 55.1093 139.052 55.4687C139.052 55.8281 139.373 56.1195 139.77 56.1195Z" fill="#C4C4C4"/>
<path d="M139.77 56.1195H150.464C150.861 56.1195 151.182 55.8281 151.182 55.4687C151.182 55.1093 150.861 54.8179 150.464 54.8179H139.77C139.373 54.8179 139.052 55.1093 139.052 55.4687C139.052 55.8281 139.373 56.1195 139.77 56.1195Z" fill="#4794EF"/>
<path d="M140.295 75.1086C139.635 75.1086 139.099 75.5952 139.099 76.1933V78.9618C139.099 79.56 139.635 80.0465 140.295 80.0465H152.305C152.965 80.0465 153.501 79.56 153.501 78.9618V76.1933C153.501 75.5952 152.965 75.1086 152.305 75.1086H140.295ZM152.066 78.7449H140.534V76.4103H152.066V78.7449Z" fill="#C4C4C4"/>
<path d="M140.295 75.1086C139.635 75.1086 139.099 75.5952 139.099 76.1933V78.9618C139.099 79.56 139.635 80.0465 140.295 80.0465H152.305C152.965 80.0465 153.501 79.56 153.501 78.9618V76.1933C153.501 75.5952 152.965 75.1086 152.305 75.1086H140.295ZM152.066 78.7449H140.534V76.4103H152.066V78.7449Z" fill="#4794EF"/>
<defs>
<clipPath id="clip0">
<rect width="51" height="54" fill="white"/>
</clipPath>
</defs>
</svg>
