<svg width="159" height="143" viewBox="0 0 159 143" fill="none" xmlns="http://www.w3.org/2000/svg">
<path d="M56.5431 37.6467L31.462 37.646L31.4609 76.4695" stroke="black" stroke-width="0.881657" stroke-dasharray="2.64 4.41"/>
<ellipse cx="30.9205" cy="75.9178" rx="4" ry="4.08088" transform="rotate(-179.998 30.9205 75.9178)" fill="#EA8E70"/>
<ellipse cx="56.0026" cy="36.9774" rx="4" ry="4.08088" transform="rotate(-179.998 56.0026 36.9774)" fill="#EA8E70"/>
<path d="M65.1269 112.8L65.1262 137.88L103.194 137.881" stroke="black" stroke-width="0.881657" stroke-dasharray="2.64 4.41"/>
<ellipse cx="102.993" cy="138.081" rx="4" ry="4.00712" transform="rotate(90.0016 102.993 138.081)" fill="#EA8E70"/>
<ellipse cx="63.9259" cy="112.999" rx="4" ry="4.00712" transform="rotate(90.0016 63.9259 112.999)" fill="#EA8E70"/>
<g clip-path="url(#clip0)">
<path d="M150.587 126.526H148.684C148.263 126.526 147.922 126.185 147.922 125.764C147.922 125.344 148.263 125.003 148.684 125.003H150.587C151.008 125.003 151.349 125.344 151.349 125.764C151.349 126.185 151.008 126.526 150.587 126.526Z" fill="#4794EF"/>
<path d="M146.213 126.526H141.493C141.072 126.526 140.731 126.185 140.731 125.764C140.731 125.344 141.072 125.003 141.493 125.003H146.213C146.634 125.003 146.975 125.344 146.975 125.764C146.975 126.185 146.634 126.526 146.213 126.526Z" fill="#4794EF"/>
<path d="M113.172 104.995H121.54C123.983 102.639 127.019 101.114 130.302 100.557C130.284 100.326 130.274 100.093 130.274 99.8583C130.274 97.4676 131.212 95.2269 132.915 93.5486C134.618 91.8708 136.873 90.9666 139.265 91.0009C141.548 91.0343 143.708 91.9447 145.349 93.5645C146.989 95.1845 147.927 97.3336 147.988 99.6159C148.05 101.961 147.17 104.23 145.587 105.92C148.252 108.901 149.75 112.687 149.826 116.694C149.86 118.472 149.606 120.222 149.098 121.885H152.828C153.529 121.885 154.099 122.454 154.099 123.155V128.375C154.099 129.075 153.529 129.645 152.828 129.645H144.058C143.75 129.912 143.432 130.17 143.103 130.415C142.254 131.048 141.747 132.046 141.747 133.084V141.222C141.747 142.202 140.95 143 139.969 143H128.233C127.253 143 126.455 142.202 126.455 141.222V140.055C126.455 139.634 126.796 139.293 127.216 139.293C127.637 139.293 127.978 139.634 127.978 140.055V141.222C127.978 141.362 128.093 141.477 128.233 141.477H139.969C140.109 141.477 140.224 141.362 140.224 141.222V133.083C140.224 131.795 140.756 130.553 141.672 129.644H139.252C138.552 129.644 137.982 129.075 137.982 128.374V127.5C136.536 128.15 134.934 128.513 133.248 128.513C126.857 128.513 121.657 123.313 121.657 116.922C121.657 115.453 121.933 114.048 122.433 112.755H118.556C118.181 114.045 117.975 115.393 117.953 116.772C117.948 117.07 117.869 117.364 117.726 117.62L114.324 123.674C114.249 123.808 114.209 123.961 114.209 124.114C114.209 124.61 114.612 125.013 115.108 125.013H117.669C118.65 125.013 119.447 125.811 119.447 126.792V130.04C119.447 132.055 121.087 133.694 123.102 133.694H126.2C127.18 133.694 127.978 134.492 127.978 135.472V136.5C127.978 136.921 127.637 137.262 127.217 137.262C126.796 137.262 126.455 136.921 126.455 136.5V135.472C126.455 135.332 126.34 135.217 126.2 135.217H123.102C120.247 135.217 117.924 132.895 117.924 130.04V126.792C117.924 126.651 117.81 126.537 117.669 126.537H115.108C113.772 126.537 112.686 125.45 112.686 124.114C112.686 123.7 112.793 123.289 112.996 122.928L116.397 116.874C116.418 116.838 116.429 116.794 116.429 116.747C116.451 115.382 116.639 114.044 116.977 112.755H113.172C112.471 112.755 111.902 112.185 111.902 111.485V106.265C111.902 105.565 112.471 104.995 113.172 104.995V104.995ZM123.867 104.995H126.748C127.448 104.995 128.018 105.565 128.018 106.265V106.582C129.296 105.933 130.709 105.514 132.203 105.38C131.421 104.402 130.859 103.274 130.55 102.063C128.117 102.479 125.831 103.477 123.867 104.995V104.995ZM146.465 99.6566C146.414 97.7694 145.638 95.9908 144.278 94.6485C142.919 93.3062 141.131 92.5517 139.243 92.5242C139.206 92.5237 139.169 92.5234 139.132 92.5234C137.192 92.5234 135.368 93.2704 133.984 94.6337C132.574 96.0233 131.798 97.8789 131.798 99.8583C131.798 102.129 132.825 104.235 134.616 105.637C135.318 106.186 135.824 106.906 136.082 107.72L136.379 108.661H138.371V105.26C135.722 104.888 133.677 102.608 133.677 99.8583C133.677 99.2107 133.789 98.5763 134.012 97.9728C134.157 97.5781 134.594 97.3761 134.99 97.5214C135.385 97.6668 135.587 98.1047 135.441 98.4994C135.281 98.9338 135.2 99.3909 135.2 99.8582C135.2 101.766 136.566 103.36 138.371 103.716V102.56C137.192 102.227 136.325 101.142 136.325 99.8582C136.325 98.3101 137.584 97.0506 139.133 97.0506C140.681 97.0506 141.94 98.3101 141.94 99.8582C141.94 101.142 141.073 102.227 139.894 102.56V103.716C141.699 103.36 143.065 101.766 143.065 99.8582C143.065 97.6897 141.301 95.9256 139.133 95.9256C138.547 95.9256 137.982 96.0518 137.455 96.3009C137.075 96.4806 136.621 96.318 136.441 95.9377C136.261 95.5573 136.424 95.1033 136.804 94.9236C137.536 94.5776 138.32 94.4022 139.133 94.4022C142.141 94.4022 144.589 96.8497 144.589 99.8582C144.589 102.608 142.543 104.888 139.894 105.26V108.661H141.886L142.178 107.739C142.442 106.902 142.937 106.186 143.607 105.669C145.459 104.241 146.528 101.994 146.465 99.6566V99.6566ZM137.87 117.229C137.915 117.448 138.11 117.606 138.333 117.606H139.902C140.123 117.606 140.318 117.449 140.365 117.233L140.637 115.969H137.608L137.87 117.229ZM142.093 114.445C142.47 114.445 142.777 114.139 142.777 113.761C142.777 113.384 142.47 113.077 142.093 113.077H136.173C135.796 113.077 135.489 113.384 135.489 113.761C135.489 114.138 135.796 114.445 136.173 114.445H142.093ZM136.173 111.553H142.093C142.47 111.553 142.777 111.247 142.777 110.869C142.777 110.492 142.47 110.185 142.093 110.185H136.173C135.796 110.185 135.489 110.492 135.489 110.869C135.489 111.247 135.796 111.553 136.173 111.553ZM139.133 101.142C139.841 101.142 140.417 100.566 140.417 99.8583C140.417 99.1502 139.841 98.5742 139.133 98.5742C138.425 98.5742 137.849 99.1502 137.849 99.8583C137.849 100.566 138.425 101.142 139.133 101.142ZM148.303 116.723C148.234 113.087 146.875 109.65 144.458 106.942C144.076 107.263 143.79 107.694 143.63 108.199L143.358 109.061C143.927 109.461 144.3 110.122 144.3 110.869C144.3 111.376 144.127 111.841 143.839 112.214C143.929 112.417 144.014 112.622 144.092 112.83C144.149 112.952 144.195 113.079 144.229 113.211C144.624 114.376 144.839 115.624 144.839 116.922C144.839 118.697 144.437 120.379 143.72 121.885H147.497C148.055 120.242 148.337 118.498 148.303 116.723V116.723ZM139.505 128.121H152.575V123.408H139.505V128.121ZM123.181 116.922C123.181 122.473 127.697 126.989 133.248 126.989C134.959 126.989 136.57 126.559 137.982 125.803V123.155C137.982 122.454 138.552 121.885 139.252 121.885H142.003C142.837 120.419 143.316 118.725 143.316 116.922C143.316 116.49 143.288 116.065 143.235 115.648C142.929 115.834 142.576 115.949 142.197 115.966L141.854 117.554C141.657 118.467 140.836 119.13 139.902 119.13H138.929C138.043 121.403 135.832 123.019 133.248 123.019C132.509 123.019 131.784 122.886 131.094 122.624C130.7 122.475 130.502 122.035 130.651 121.642C130.8 121.248 131.24 121.051 131.634 121.2C132.151 121.396 132.694 121.495 133.248 121.495C135.068 121.495 136.642 120.426 137.378 118.883C136.877 118.608 136.5 118.125 136.378 117.539L136.051 115.965C134.89 115.902 133.965 114.938 133.965 113.761C133.965 113.288 134.116 112.85 134.371 112.49C134.011 112.398 133.636 112.348 133.248 112.348C130.726 112.348 128.675 114.4 128.675 116.922C128.675 117.729 128.891 118.525 129.299 119.223C129.511 119.586 129.389 120.052 129.026 120.265C128.663 120.477 128.196 120.355 127.984 119.992C127.439 119.061 127.151 118 127.151 116.922C127.151 113.56 129.887 110.825 133.248 110.825C133.491 110.825 133.73 110.839 133.965 110.867C133.966 110.121 134.339 109.461 134.908 109.061L134.629 108.179C134.469 107.673 134.152 107.221 133.713 106.866C133.559 106.859 133.404 106.854 133.248 106.854C131.334 106.854 129.544 107.393 128.018 108.324V111.485C128.018 112.185 127.449 112.755 126.748 112.755H124.086C123.505 114.025 123.181 115.436 123.181 116.922V116.922ZM113.425 111.231H126.495V106.518H113.425V111.231Z" fill="#4794EF"/>
<path d="M124.507 109.636H122.603C122.183 109.636 121.842 109.295 121.842 108.875C121.842 108.454 122.183 108.113 122.603 108.113H124.507C124.928 108.113 125.269 108.454 125.269 108.875C125.269 109.295 124.928 109.636 124.507 109.636Z" fill="#4794EF"/>
<path d="M120.133 109.636H115.413C114.992 109.636 114.651 109.295 114.651 108.875C114.651 108.454 114.992 108.113 115.413 108.113H120.133C120.554 108.113 120.895 108.454 120.895 108.875C120.895 109.295 120.554 109.636 120.133 109.636Z" fill="#4794EF"/>
</g>
<g clip-path="url(#clip1)">
<path d="M53.209 127.504H50.7287V120.551C50.7287 120.114 50.3746 119.76 49.9377 119.76C49.5007 119.76 49.1466 120.114 49.1466 120.551V127.504H45.6028V99.4665H49.1466V116.859C49.1466 117.296 49.5007 117.65 49.9377 117.65C50.3746 117.65 50.7287 117.296 50.7287 116.859V99.2028C50.7287 98.4758 50.1373 97.8844 49.4103 97.8844H45.3391C44.6121 97.8844 44.0208 98.4758 44.0208 99.2028V127.504H41.8096V107.39C41.8096 106.663 41.2182 106.072 40.4912 106.072H39.6795C41.0777 104.091 41.9002 101.677 41.9002 99.0741C41.9002 92.3692 36.4454 86.9143 29.7405 86.9143C23.8783 86.9143 18.972 91.084 17.8311 96.6132H14.0872C13.7867 96.0005 13.1582 95.5768 12.431 95.5768H3.45273C1.54891 95.5768 0 97.1257 0 99.0295C0 100.933 1.54891 102.482 3.45273 102.482H6.53906C6.97602 102.482 7.33008 102.128 7.33008 101.691C7.33008 101.254 6.97602 100.9 6.53906 100.9H3.45273C2.42125 100.9 1.58203 100.061 1.58203 99.0295C1.58203 97.998 2.42125 97.1588 3.45273 97.1588H12.431C12.5764 97.1588 12.6946 97.277 12.6946 97.4225V100.637C12.6946 100.782 12.5764 100.9 12.431 100.9H10.2305C9.79351 100.9 9.43945 101.254 9.43945 101.691C9.43945 102.128 9.79351 102.482 10.2305 102.482H12.431C13.1582 102.482 13.7867 102.059 14.0872 101.446H17.8137C18.15 103.14 18.8391 104.709 19.8014 106.072H18.5819C17.8549 106.072 17.2635 106.663 17.2635 107.39V127.504H15.0525V114.107C15.0525 113.38 14.4611 112.789 13.7341 112.789H9.66294C8.93595 112.789 8.34458 113.38 8.34458 114.107V127.504H0.791016C0.354059 127.504 0 127.858 0 128.295C0 128.732 0.354059 129.086 0.791016 129.086H53.209C53.6459 129.086 54 128.732 54 128.295C54 127.858 53.6459 127.504 53.209 127.504ZM17.6071 99.8638H14.2767V98.1952H17.6128C17.5919 98.4856 17.5808 98.7786 17.5808 99.0741C17.5807 99.3395 17.5902 99.6026 17.6071 99.8638ZM13.4705 127.504H9.92661V114.371H13.4705V127.504ZM19.1627 99.0741C19.1627 93.2415 23.9079 88.4963 29.7405 88.4963C35.573 88.4963 40.3182 93.2415 40.3182 99.0741C40.3182 104.907 35.573 109.652 29.7405 109.652C23.908 109.652 19.1627 104.907 19.1627 99.0741V99.0741ZM22.3895 127.504H18.8456V107.654H21.1318C21.5251 108.048 21.9455 108.415 22.3895 108.754V127.504ZM31.3086 127.504H27.7648V114.898H31.3086V127.504ZM35.1017 127.504H32.8905V114.634C32.8905 113.907 32.2992 113.316 31.5722 113.316H27.501C26.774 113.316 26.1826 113.907 26.1826 114.634V127.504H23.9715V109.776C25.689 110.706 27.6541 111.234 29.7404 111.234C31.6635 111.234 33.4834 110.784 35.1016 109.986V127.504H35.1017ZM40.2277 127.504H36.6837V109.051C37.2798 108.635 37.8373 108.167 38.3491 107.654H40.2277V127.504Z" fill="#4794EF"/>
<path d="M29.7408 107.819C31.2366 107.819 32.7159 107.431 34.0189 106.697C34.3995 106.483 34.5343 106.001 34.3199 105.62C34.1055 105.239 33.6231 105.104 33.2424 105.319C32.1759 105.919 30.965 106.237 29.7407 106.237C25.791 106.237 22.5776 103.024 22.5776 99.0741C22.5776 95.1244 25.791 91.9111 29.7407 91.9111C33.6902 91.9111 36.9036 95.1244 36.9036 99.0741C36.9036 100.5 36.4834 101.879 35.6885 103.06C35.4446 103.423 35.5409 103.914 35.9034 104.158C36.2659 104.402 36.7574 104.306 37.0012 103.943C37.9723 102.5 38.4856 100.816 38.4856 99.0741C38.4856 94.2521 34.5627 90.3291 29.7407 90.3291C24.9186 90.3291 20.9956 94.2521 20.9956 99.0741C20.9956 103.896 24.9188 107.819 29.7408 107.819V107.819Z" fill="#4794EF"/>
<path d="M30.5315 100.673C30.5315 100.515 30.6315 100.377 30.7803 100.33C32.2921 99.8522 33.2791 98.4107 33.1806 96.8246C33.0732 95.0953 31.6883 93.7104 29.9589 93.6029C28.9959 93.5429 28.0803 93.8728 27.3802 94.531C26.6896 95.1801 26.2935 96.0958 26.2935 97.0431C26.2935 97.48 26.6475 97.8341 27.0845 97.8341C27.5214 97.8341 27.8755 97.48 27.8755 97.0431C27.8755 96.5229 28.0843 96.0402 28.4636 95.6837C28.8424 95.3276 29.3398 95.1499 29.8608 95.1818C30.7799 95.2389 31.5445 96.0035 31.6016 96.9225C31.655 97.7821 31.1211 98.5631 30.3034 98.8216C29.4935 99.0777 28.9494 99.8217 28.9494 100.673V101.293C28.9494 101.729 29.3034 102.084 29.7404 102.084C30.1773 102.084 30.5314 101.729 30.5314 101.293V100.673H30.5315Z" fill="#4794EF"/>
<path d="M29.7407 102.836C29.3038 102.836 28.9497 103.19 28.9497 103.627V103.761C28.9497 104.198 29.3038 104.552 29.7407 104.552C30.1777 104.552 30.5317 104.198 30.5317 103.761V103.627C30.5317 103.19 30.1777 102.836 29.7407 102.836Z" fill="#4794EF"/>
<path d="M1.31836 111.217H13.4677C14.1947 111.217 14.7861 110.625 14.7861 109.898V105.31C14.7861 104.583 14.1947 103.992 13.4677 103.992H1.31836C0.591363 103.992 0 104.583 0 105.31V109.898C0 110.625 0.591363 111.217 1.31836 111.217V111.217ZM1.58203 105.574H13.2041V109.635H1.58203V105.574Z" fill="#4794EF"/>
<path d="M5.00111 106.813H3.27881C2.84185 106.813 2.48779 107.168 2.48779 107.604C2.48779 108.041 2.84185 108.396 3.27881 108.396H5.00111C5.43807 108.396 5.79213 108.041 5.79213 107.604C5.79213 107.168 5.43807 106.813 5.00111 106.813V106.813Z" fill="#4794EF"/>
<path d="M11.5075 106.813H7.23633C6.79937 106.813 6.44531 107.168 6.44531 107.604C6.44531 108.041 6.79937 108.396 7.23633 108.396H11.5075C11.9445 108.396 12.2985 108.041 12.2985 107.604C12.2985 107.168 11.9445 106.813 11.5075 106.813V106.813Z" fill="#4794EF"/>
<path d="M6.43359 115.422H1.79297C1.35601 115.422 1.00195 115.776 1.00195 116.213C1.00195 116.65 1.35601 117.004 1.79297 117.004H6.43359C6.87055 117.004 7.22461 116.65 7.22461 116.213C7.22461 115.776 6.87055 115.422 6.43359 115.422Z" fill="#4794EF"/>
<path d="M6.43359 118.086H1.79297C1.35601 118.086 1.00195 118.44 1.00195 118.877C1.00195 119.314 1.35601 119.668 1.79297 119.668H6.43359C6.87055 119.668 7.22461 119.314 7.22461 118.877C7.22461 118.44 6.87055 118.086 6.43359 118.086Z" fill="#4794EF"/>
<path d="M7.22461 121.566C7.22461 121.129 6.87055 120.775 6.43359 120.775H1.79297C1.35601 120.775 1.00195 121.129 1.00195 121.566C1.00195 122.003 1.35601 122.357 1.79297 122.357H6.43359C6.87055 122.357 7.22461 122.003 7.22461 121.566Z" fill="#4794EF"/>
<path d="M1.79297 123.451C1.35601 123.451 1.00195 123.805 1.00195 124.242C1.00195 124.679 1.35601 125.033 1.79297 125.033H3.87334C4.3103 125.033 4.66436 124.679 4.66436 124.242C4.66436 123.805 4.3103 123.451 3.87334 123.451H1.79297Z" fill="#4794EF"/>
</g>
<g clip-path="url(#clip2)">
<path d="M95.2314 30.9928C95.6546 30.9235 95.9414 30.5244 95.8722 30.1012C95.5095 27.8852 94.3665 25.8558 92.6539 24.3867C90.9218 22.901 88.7097 22.0828 86.4248 22.0828C81.145 22.0828 76.8496 26.3781 76.8496 31.658C76.8496 36.9378 81.145 41.2332 86.4248 41.2332C90.8006 41.2332 94.615 38.2762 95.7003 34.0424C95.8068 33.627 95.5564 33.2041 95.1411 33.0976C94.7257 32.991 94.3027 33.2414 94.1962 33.6567C93.287 37.2034 90.0912 39.6803 86.4248 39.6803C82.0012 39.6803 78.4023 36.0814 78.4023 31.6579C78.4023 27.2343 82.0012 23.6354 86.4248 23.6354C88.339 23.6354 90.1923 24.3208 91.6429 25.5651C93.0784 26.7965 94.0361 28.4964 94.3398 30.3519C94.409 30.7752 94.8079 31.0621 95.2314 30.9928V30.9928Z" fill="#4794EF"/>
<path d="M86.4248 25.5396C83.0513 25.5396 80.3066 28.2842 80.3066 31.6578C80.3066 35.0314 83.0513 37.776 86.4248 37.776C89.7985 37.776 92.5431 35.0314 92.5431 31.6578C92.5431 28.2842 89.7985 25.5396 86.4248 25.5396V25.5396ZM86.4248 36.2233C83.9074 36.2233 81.8594 34.1752 81.8594 31.6578C81.8594 29.1403 83.9074 27.0923 86.4248 27.0923C88.9423 27.0923 90.9904 29.1403 90.9904 31.6578C90.9904 34.1752 88.9423 36.2233 86.4248 36.2233Z" fill="#4794EF"/>
<path d="M86.425 28.6348C84.758 28.6348 83.4019 29.991 83.4019 31.6579C83.4019 33.3249 84.758 34.6811 86.425 34.6811C88.092 34.6811 89.4482 33.3249 89.4482 31.6579C89.4482 29.991 88.092 28.6348 86.425 28.6348ZM86.425 33.1284C85.6142 33.1284 84.9546 32.4687 84.9546 31.6579C84.9546 30.8472 85.6142 30.1875 86.425 30.1875C87.2359 30.1875 87.8955 30.8472 87.8955 31.6579C87.8955 32.4687 87.2359 33.1284 86.425 33.1284Z" fill="#4794EF"/>
<path d="M112.289 32.7588V27.8457C112.289 27.4169 111.941 27.0693 111.512 27.0693C111.083 27.0693 110.736 27.4169 110.736 27.8457V31.7872C109.728 31.2653 108.631 30.8923 107.475 30.6961V18.8502C107.475 18.2508 106.987 17.7633 106.388 17.7633H104.605L109.1 11.6537L113.518 17.7633H111.823C111.223 17.7633 110.736 18.2508 110.736 18.8502V24.2227C110.736 24.6514 111.083 24.999 111.512 24.999C111.941 24.999 112.289 24.6514 112.289 24.2227V19.316H114.43C114.84 19.316 115.211 19.0891 115.398 18.7237C115.584 18.3583 115.551 17.9248 115.311 17.5921L109.984 10.2264C109.781 9.94599 109.454 9.77778 109.108 9.77633C109.106 9.77633 109.105 9.77633 109.103 9.77633C108.759 9.77633 108.432 9.94164 108.228 10.2191L102.808 17.585C102.564 17.9171 102.528 18.3519 102.714 18.7197C102.9 19.0876 103.272 19.316 103.684 19.316H105.922V30.5424C105.812 30.5392 105.701 30.5371 105.59 30.5371C105.269 30.5371 104.951 30.5514 104.636 30.578C104.611 30.1412 104.573 29.7051 104.516 29.2736C104.413 28.4857 103.734 27.8916 102.936 27.8916H99.0985C99.0812 27.8916 99.0664 27.879 99.0606 27.8598C98.8063 27.0118 98.465 26.1872 98.046 25.4089C98.0362 25.3909 98.0379 25.3714 98.0501 25.3592L100.763 22.6466C101.326 22.0828 101.387 21.1823 100.902 20.552C100.637 20.2061 100.358 19.8711 100.068 19.5454V9.53979H102.21C102.62 9.53979 102.991 9.31278 103.178 8.94737C103.364 8.58196 103.331 8.14844 103.09 7.81595L97.7641 0.450086C97.5614 0.169766 97.2338 0.00144922 96.8878 0C96.8863 0 96.8848 0 96.8833 0C96.539 0 96.212 0.165314 96.0078 0.442736L90.5884 7.8087C90.3441 8.14078 90.308 8.57555 90.4939 8.94334C90.6799 9.31123 91.0516 9.53969 91.4638 9.53969H93.7021V19.0543L92.7238 20.0327C92.7116 20.0448 92.692 20.0464 92.674 20.0368C91.896 19.6179 91.0714 19.2765 90.2231 19.0221C90.2038 19.0163 90.1914 19.0015 90.1914 18.9842V15.1465C90.1914 14.349 89.5972 13.6699 88.8094 13.5667C87.235 13.3606 85.6149 13.3606 84.0406 13.5667C83.2528 13.6698 82.6586 14.3489 82.6586 15.1465V18.9842C82.6586 19.0015 82.6462 19.0163 82.6268 19.0221C81.7788 19.2765 80.9542 19.6178 80.176 20.0368C80.158 20.0464 80.1383 20.0449 80.1263 20.0327L77.4138 17.3201C76.8499 16.7562 75.9493 16.6961 75.3191 17.1804C74.0541 18.1523 72.9196 19.2866 71.9476 20.5519C71.4635 21.1822 71.5235 22.0827 72.0874 22.6465L74.7999 25.3591C74.8121 25.3713 74.8138 25.3908 74.804 25.4088C74.3851 26.1871 74.0437 27.0116 73.7895 27.8597C73.7837 27.8789 73.7689 27.8915 73.7516 27.8915H69.9138C69.1164 27.8915 68.4371 28.4856 68.334 29.2735C68.2309 30.0606 68.1787 30.8629 68.1787 31.6579C68.1787 32.4529 68.231 33.2551 68.334 34.0423C68.4371 34.8301 69.1164 35.4243 69.9138 35.4243H73.7516C73.7689 35.4243 73.7837 35.4368 73.7895 35.4561C74.0438 36.3041 74.3851 37.1287 74.8041 37.9069C74.8139 37.9249 74.8122 37.9444 74.8 37.9566L72.0874 40.6692C71.5235 41.2331 71.4635 42.1335 71.9477 42.7639C72.9197 44.0291 74.0542 45.1635 75.3192 46.1354C75.9494 46.6196 76.85 46.5595 77.4139 45.9956L80.1264 43.2831C80.1387 43.2709 80.1582 43.2692 80.1762 43.279C80.9546 43.698 81.7791 44.0394 82.627 44.2935C82.6464 44.2993 82.6588 44.3141 82.6588 44.3314V48.1691C82.6588 48.9666 83.2529 49.6458 84.0408 49.749C84.8281 49.8521 85.6303 49.9043 86.4251 49.9043C87.2199 49.9043 88.0221 49.8521 88.8096 49.749C89.5973 49.6457 90.1915 48.9665 90.1915 48.1691V44.3314C90.1915 44.3141 90.204 44.2993 90.2232 44.2935C91.0712 44.0393 91.8958 43.698 92.674 43.279C92.6921 43.2692 92.7116 43.2708 92.7239 43.2831L95.0272 45.5864C96.5932 49.9057 100.737 53 105.59 53C111.783 53 116.822 47.9616 116.822 41.7686C116.822 38.0838 115.038 34.808 112.289 32.7588V32.7588ZM92.385 7.98706L96.8801 1.87746L101.298 7.98706H99.6029C99.0036 7.98706 98.516 8.47462 98.516 9.07397V17.9947C98.1972 17.7125 97.8693 17.4402 97.5312 17.1805C96.901 16.6962 96.0004 16.7563 95.4366 17.3202L95.2551 17.5017V9.07397C95.2551 8.47462 94.7675 7.98706 94.1682 7.98706H92.385ZM94.4036 42.767L93.8218 42.1852C93.3213 41.6847 92.5644 41.5748 91.938 41.9118C91.2519 42.2812 90.5249 42.5821 89.7772 42.8063C89.0962 43.0105 88.6388 43.6235 88.6388 44.3315V48.1692C88.6388 48.1892 88.6249 48.2073 88.608 48.2095C87.1665 48.3981 85.6837 48.3981 84.2425 48.2095C84.2254 48.2073 84.2116 48.1892 84.2116 48.1692V44.3315C84.2116 43.6235 83.7541 43.0105 83.0731 42.8063C82.3255 42.5822 81.5985 42.2813 80.9123 41.9118C80.6703 41.7815 80.4088 41.718 80.15 41.718C79.7392 41.718 79.3355 41.8781 79.0285 42.1852L76.316 44.8977C76.3018 44.9119 76.2789 44.9147 76.265 44.9041C75.107 44.0145 74.0688 42.9763 73.1789 41.818C73.1683 41.8042 73.1712 41.7814 73.1852 41.7672L75.8978 39.0547C76.3984 38.5541 76.5082 37.797 76.1712 37.1709C75.8018 36.4849 75.5009 35.7579 75.2767 35.0101C75.0724 34.3291 74.4595 33.8716 73.7515 33.8716H69.9138C69.8939 33.8716 69.8758 33.8578 69.8736 33.8407C69.7792 33.1201 69.7313 32.3858 69.7313 31.658C69.7313 30.9302 69.7792 30.1958 69.8736 29.4752C69.8757 29.4582 69.8939 29.4444 69.9138 29.4444H73.7516C74.4596 29.4444 75.0725 28.9869 75.2768 28.3059C75.501 27.5581 75.8019 26.8311 76.1713 26.1451C76.5083 25.519 76.3985 24.762 75.8979 24.2614L73.1853 21.5488C73.1712 21.5347 73.1684 21.5119 73.179 21.4981C74.0689 20.3399 75.1071 19.3015 76.2651 18.412C76.279 18.4014 76.3018 18.4042 76.316 18.4183L79.0285 21.1309C79.5291 21.6315 80.2862 21.7412 80.9123 21.4042C81.5983 21.0349 82.3253 20.734 83.073 20.5098C83.754 20.3056 84.2116 19.6927 84.2116 18.9846V15.1468C84.2116 15.1268 84.2254 15.1088 84.2425 15.1066C85.6836 14.9178 87.1668 14.9178 88.608 15.1066C88.625 15.1087 88.6389 15.1268 88.6389 15.1468V18.9846C88.6389 19.6927 89.0964 20.3056 89.7773 20.5098C90.5253 20.7341 91.2522 21.035 91.9381 21.4042C92.5641 21.7414 93.3213 21.6316 93.8219 21.131L96.5345 18.4183C96.5487 18.4042 96.5713 18.4015 96.5853 18.412C97.7434 19.3016 98.7817 20.34 99.6714 21.4981C99.682 21.512 99.6792 21.5348 99.6651 21.549L96.9525 24.2615C96.4519 24.7621 96.3421 25.5191 96.6792 26.1453C97.0485 26.8312 97.3494 27.5582 97.5736 28.306C97.7779 28.987 98.3908 29.4445 99.0988 29.4445H102.937C102.957 29.4445 102.975 29.4584 102.977 29.4754C103.035 29.9189 103.073 30.3678 103.095 30.817C98.0991 31.9547 94.3588 36.4329 94.3588 41.7688C94.3586 42.105 94.3744 42.4379 94.4036 42.767ZM105.59 51.4473C100.253 51.4473 95.9114 47.1054 95.9114 41.7686C95.9114 36.4317 100.253 32.0898 105.59 32.0898C110.927 32.0898 115.269 36.4317 115.269 41.7686C115.269 47.1054 110.927 51.4473 105.59 51.4473Z" fill="#4794EF"/>
<path d="M112.583 40.6019C112.654 41.0249 113.053 41.3109 113.477 41.2404C113.9 41.1701 114.185 40.7702 114.115 40.3473C113.783 38.3528 112.75 36.5255 111.204 35.2017C109.64 33.8626 107.647 33.125 105.59 33.125C100.824 33.125 96.9468 37.0025 96.9468 41.7686C96.9468 46.5346 100.824 50.4121 105.59 50.4121C107.47 50.4121 109.259 49.8165 110.763 48.6897C112.216 47.601 113.311 46.052 113.847 44.328C113.974 43.9185 113.745 43.4834 113.336 43.3563C112.926 43.2292 112.491 43.458 112.364 43.8674C111.925 45.2817 111.026 46.5528 109.832 47.4471C108.599 48.371 107.132 48.8594 105.59 48.8594C101.68 48.8594 98.4995 45.6784 98.4995 41.7686C98.4995 37.8587 101.68 34.6777 105.59 34.6777C107.277 34.6777 108.912 35.2827 110.194 36.3811C111.463 37.4679 112.312 38.9669 112.583 40.6019V40.6019Z" fill="#4794EF"/>
<path d="M105.59 35.4543C105.162 35.4543 104.814 35.802 104.814 36.2307V41.7687C104.814 42.0534 104.97 42.3152 105.22 42.451C105.336 42.5138 105.463 42.5451 105.59 42.5451C105.738 42.5451 105.885 42.5031 106.013 42.4199L109.542 40.1291C109.902 39.8957 110.004 39.4149 109.771 39.0551C109.537 38.6955 109.056 38.5934 108.697 38.8266L106.367 40.339V36.2307C106.367 35.802 106.019 35.4543 105.59 35.4543Z" fill="#4794EF"/>
</g>
<defs>
<clipPath id="clip0">
<rect width="52" height="52" fill="white" transform="matrix(-1 0 0 1 159 91)"/>
</clipPath>
<clipPath id="clip1">
<rect width="54" height="54" fill="white" transform="translate(0 81)"/>
</clipPath>
<clipPath id="clip2">
<rect width="53" height="53" fill="white" transform="translate(66)"/>
</clipPath>
</defs>
</svg>
