<svg width="134" height="134" viewBox="0 0 134 134" fill="none" xmlns="http://www.w3.org/2000/svg">
<path d="M116.05 75.4608C117.56 72.5916 118.425 69.3327 118.425 65.8658C118.425 57.0556 112.892 49.5552 105.117 46.6003C105.117 46.5925 105.119 46.5821 105.119 46.5717C105.119 31.1396 92.6082 18.6287 77.1761 18.6287C64.1583 18.6287 53.2509 27.5454 50.1478 39.5964C48.1831 38.9492 46.091 38.588 43.9105 38.588C33.6762 38.588 25.2506 46.2963 24.0967 56.2213C17.1733 57.6871 11.9756 63.8282 11.9756 71.1882C11.9756 79.6398 18.8262 86.4904 27.2777 86.4904C27.5142 86.4904 27.7455 86.4748 27.9768 86.4618C27.9716 86.6931 27.9431 86.9218 27.9431 87.1557C27.9431 102.221 40.1552 114.433 55.2208 114.433C63.7867 114.433 71.4222 110.478 76.4224 104.303C79.3201 107.263 83.351 109.111 87.8211 109.111C94.009 109.111 99.3626 105.584 102.013 100.439C103.414 100.883 104.903 101.127 106.45 101.127C114.532 101.127 121.087 94.5729 121.087 86.4904C121.087 82.0853 119.13 78.1428 116.05 75.4608Z" fill="#127B64" fill-opacity="0.2"/>
<path d="M41.9149 107.78H28.6087C28.2422 107.78 27.9434 107.481 27.9434 107.115C27.9434 106.749 28.2422 106.45 28.6087 106.45H41.9149C42.2813 106.45 42.5802 106.749 42.5802 107.115C42.5802 107.481 42.2839 107.78 41.9149 107.78ZM45.9068 107.78H44.5761C44.2097 107.78 43.9108 107.481 43.9108 107.115C43.9108 106.749 44.2097 106.45 44.5761 106.45H45.9068C46.2732 106.45 46.5721 106.749 46.5721 107.115C46.5721 107.481 46.2758 107.78 45.9068 107.78ZM52.5469 110.442H40.5843C40.2178 110.442 39.919 110.143 39.919 109.776C39.919 109.41 40.2178 109.111 40.5843 109.111H52.5469C52.9159 109.111 53.2122 109.41 53.2122 109.776C53.2122 110.143 52.9159 110.442 52.5469 110.442ZM37.923 110.442H36.5924C36.226 110.442 35.9271 110.143 35.9271 109.776C35.9271 109.41 36.226 109.111 36.5924 109.111H37.923C38.2895 109.111 38.5883 109.41 38.5883 109.776C38.5883 110.143 38.2921 110.442 37.923 110.442ZM33.9312 110.442H31.2699C30.9035 110.442 30.6046 110.143 30.6046 109.776C30.6046 109.41 30.9035 109.111 31.2699 109.111H33.9312C34.2976 109.111 34.5965 109.41 34.5965 109.776C34.5965 110.143 34.3002 110.442 33.9312 110.442ZM41.9149 113.103H39.2537C38.8872 113.103 38.5883 112.804 38.5883 112.437C38.5883 112.071 38.8872 111.772 39.2537 111.772H41.9149C42.2813 111.772 42.5802 112.071 42.5802 112.437C42.5802 112.804 42.2813 113.103 41.9149 113.103ZM45.9068 101.127C45.6703 101.127 44.8126 101.127 44.5761 101.127C44.2097 101.127 43.9108 101.426 43.9108 101.792C43.9108 102.159 44.2097 102.458 44.5761 102.458C44.8126 102.458 45.6703 102.458 45.9068 102.458C46.2732 102.458 46.5721 102.159 46.5721 101.792C46.5721 101.426 46.2732 101.127 45.9068 101.127ZM45.9068 103.788C45.6703 103.788 39.4901 103.788 39.2537 103.788C38.8872 103.788 38.5883 104.087 38.5883 104.454C38.5883 104.82 38.8872 105.119 39.2537 105.119C39.4901 105.119 45.6703 105.119 45.9068 105.119C46.2732 105.119 46.5721 104.82 46.5721 104.454C46.5721 104.087 46.2732 103.788 45.9068 103.788ZM52.5599 106.45C52.3234 106.45 48.8045 106.45 48.568 106.45C48.2016 106.45 47.9027 106.749 47.9027 107.115C47.9027 107.481 48.2016 107.78 48.568 107.78C48.8045 107.78 52.3234 107.78 52.5599 107.78C52.9263 107.78 53.2252 107.481 53.2252 107.115C53.2252 106.749 52.9263 106.45 52.5599 106.45ZM116.43 82.4985H103.124C102.757 82.4985 102.458 82.1996 102.458 81.8331C102.458 81.4667 102.757 81.1678 103.124 81.1678H116.43C116.796 81.1678 117.095 81.4667 117.095 81.8331C117.095 82.1996 116.796 82.4985 116.43 82.4985ZM121.752 82.4985H119.091C118.725 82.4985 118.426 82.1996 118.426 81.8331C118.426 81.4667 118.725 81.1678 119.091 81.1678H121.752C122.119 81.1678 122.418 81.4667 122.418 81.8331C122.418 82.1996 122.119 82.4985 121.752 82.4985ZM128.405 85.1597H115.099C114.733 85.1597 114.434 84.8608 114.434 84.4944C114.434 84.128 114.733 83.8291 115.099 83.8291H128.405C128.772 83.8291 129.071 84.128 129.071 84.4944C129.071 84.8608 128.774 85.1597 128.405 85.1597ZM112.438 85.1597H111.107C110.741 85.1597 110.442 84.8608 110.442 84.4944C110.442 84.128 110.741 83.8291 111.107 83.8291H112.438C112.804 83.8291 113.103 84.128 113.103 84.4944C113.103 84.8608 112.804 85.1597 112.438 85.1597ZM108.407 85.1597H105.785C105.418 85.1597 105.119 84.8608 105.119 84.4944C105.119 84.128 105.418 83.8291 105.785 83.8291H108.407C108.773 83.8291 109.072 84.128 109.072 84.4944C109.072 84.8608 108.773 85.1597 108.407 85.1597ZM120.422 79.8372H113.769C113.402 79.8372 113.103 79.5383 113.103 79.1719C113.103 78.8055 113.402 78.5066 113.769 78.5066H120.422C120.788 78.5066 121.087 78.8055 121.087 79.1719C121.087 79.5383 120.791 79.8372 120.422 79.8372ZM116.43 87.8209H113.769C113.402 87.8209 113.103 87.5221 113.103 87.1556C113.103 86.7892 113.402 86.4903 113.769 86.4903H116.43C116.796 86.4903 117.095 86.7892 117.095 87.1556C117.095 87.5221 116.796 87.8209 116.43 87.8209Z" fill="white"/>
<path d="M95.1389 54.2859V54.9512H91.147V54.2859C91.147 54.2859 85.5023 54.2859 83.8286 54.2859C80.5229 54.2859 77.8408 51.6038 77.8408 48.2981C77.8408 45.195 80.211 42.6715 83.2361 42.37C83.2075 42.1283 83.1633 41.8944 83.1633 41.645C83.1633 38.3392 85.8453 35.6572 89.1511 35.6572C91.0639 35.6572 92.7479 36.5694 93.8447 37.9675C94.0318 34.4591 96.9061 31.6653 100.461 31.6653C104.136 31.6653 107.115 34.6436 107.115 38.3184C107.115 38.9109 107.013 39.4749 106.865 40.0233C107.72 38.9915 108.993 38.3184 110.441 38.3184C112.811 38.3184 114.745 40.096 115.038 42.383C115.28 42.3544 115.514 42.3103 115.764 42.3103C119.069 42.3103 121.751 44.9923 121.751 48.2981C121.751 51.6038 119.069 54.2859 115.764 54.2859C112.458 54.2859 103.123 54.2859 103.123 54.2859H95.1389Z" fill="#FDFCEF"/>
<path d="M100.462 31C104.498 31 107.78 34.2824 107.78 38.3184C107.78 38.3392 107.78 38.36 107.78 38.3808C108.581 37.9078 109.495 37.6531 110.441 37.6531C112.876 37.6531 114.979 39.332 115.574 41.6528C115.636 41.6476 115.699 41.645 115.764 41.645C119.433 41.645 122.417 44.6285 122.417 48.2981C122.417 51.9677 119.433 54.9512 115.764 54.9512H95.1392C94.7727 54.9512 94.4739 54.6523 94.4739 54.2859C94.4739 53.9195 94.7727 53.6206 95.1392 53.6206H115.764C118.698 53.6206 121.086 51.2322 121.086 48.2981C121.086 45.364 118.698 42.9756 115.764 42.9756C115.608 42.9756 115.457 42.999 115.306 43.0172L115.119 43.0432C115.091 43.0484 115.065 43.0484 115.036 43.0484C114.709 43.0484 114.423 42.8015 114.379 42.4662C114.124 40.4807 112.432 38.9837 110.441 38.9837C109.264 38.9837 108.149 39.5165 107.38 40.4469C107.25 40.6054 107.058 40.6886 106.865 40.6886C106.761 40.6886 106.657 40.6652 106.564 40.6158C106.286 40.4729 106.145 40.1558 106.223 39.8518C106.377 39.2748 106.449 38.7862 106.449 38.3184C106.449 35.0179 103.762 32.3306 100.462 32.3306C97.2936 32.3306 94.6766 34.8203 94.5077 38.004C94.4947 38.2794 94.3101 38.5185 94.0451 38.6017C93.9775 38.6225 93.9099 38.6329 93.8423 38.6329C93.6422 38.6329 93.4473 38.5419 93.32 38.3782C92.2934 37.071 90.7757 36.3225 89.1514 36.3225C86.2173 36.3225 83.8289 38.7109 83.8289 41.645C83.8289 41.8009 83.8523 41.9516 83.8705 42.1024L83.8965 42.2895C83.9173 42.4662 83.8679 42.6455 83.7561 42.7859C83.6444 42.9262 83.4806 43.0146 83.3039 43.0328C80.5673 43.3031 78.5064 45.5693 78.5064 48.2981C78.5064 51.2322 80.8948 53.6206 83.8289 53.6206H91.1473C91.5138 53.6206 91.8126 53.9195 91.8126 54.2859C91.8126 54.6523 91.5138 54.9512 91.1473 54.9512H83.8289C80.1593 54.9512 77.1758 51.9677 77.1758 48.2981C77.1758 45.1093 79.4238 42.4272 82.5035 41.8087C82.5009 41.7541 82.4983 41.6996 82.4983 41.645C82.4983 37.9754 85.4818 34.9919 89.1514 34.9919C90.7159 34.9919 92.2025 35.5454 93.3875 36.5408C94.1828 33.3416 97.0623 31 100.462 31Z" fill="#472B29"/>
<path d="M102.458 40.3145C104.324 40.3145 105.93 41.6425 106.332 43.4305C106.821 43.1342 107.38 42.9757 107.946 42.9757C109.545 42.9757 110.87 44.1686 111.078 45.7279C111.348 45.6655 111.603 45.6369 111.855 45.6369C113.89 45.6369 115.595 47.2326 115.738 49.2728C115.751 49.4547 115.613 49.6158 115.428 49.6288C115.421 49.6288 115.413 49.6288 115.405 49.6288C115.234 49.6288 115.085 49.4937 115.075 49.3195C114.956 47.6277 113.542 46.3023 111.855 46.3023C111.551 46.3023 111.231 46.3594 110.873 46.4712C110.844 46.4816 110.813 46.4842 110.784 46.4842C110.712 46.4842 110.639 46.4582 110.576 46.4114C110.491 46.3516 110.441 46.2425 110.441 46.1359C110.441 44.7611 109.321 43.641 107.946 43.641C107.351 43.641 106.769 43.8645 106.309 44.2699C106.247 44.3245 106.166 44.3531 106.088 44.3531C106.047 44.3531 106.005 44.3453 105.966 44.3297C105.849 44.2829 105.768 44.1738 105.758 44.0464C105.62 42.326 104.17 40.9798 102.458 40.9798C102.182 40.9798 101.891 41.0239 101.551 41.1227C101.519 41.1305 101.488 41.1357 101.457 41.1357C101.311 41.1357 101.181 41.0395 101.14 40.894C101.088 40.7173 101.192 40.5328 101.369 40.4834C101.769 40.3664 102.117 40.3145 102.458 40.3145ZM83.9848 42.3104C85.7494 42.3104 87.3217 43.5033 87.8077 45.2133C87.8597 45.39 87.7557 45.5746 87.579 45.6239C87.5478 45.6317 87.5166 45.6369 87.488 45.6369C87.3425 45.6369 87.2099 45.5408 87.1684 45.3952C86.7629 43.9711 85.4531 42.9757 83.9848 42.9757C83.8288 42.9757 83.6781 42.9939 83.5299 43.0147C83.5144 43.0173 83.4988 43.0173 83.4832 43.0173C83.322 43.0173 83.1791 42.8951 83.1557 42.7288C83.1297 42.5469 83.2571 42.3806 83.439 42.3546C83.6183 42.3312 83.8002 42.3104 83.9848 42.3104Z" fill="#472B29"/>
<path d="M41.9141 80.5027C41.9141 80.5027 43.9984 80.5027 46.5713 80.5027C49.1442 80.5027 51.2285 78.4184 51.2285 75.8455C51.2285 73.4753 49.4508 71.5418 47.1638 71.2481C47.2002 71.009 47.2366 70.7725 47.2366 70.523C47.2366 67.9501 45.1523 65.8658 42.5794 65.8658C41.2072 65.8658 39.9857 66.4714 39.1333 67.4148C38.6213 65.0108 36.4902 63.2046 33.9304 63.2046C30.991 63.2046 28.6079 65.5878 28.6079 68.5271C28.6079 68.7818 28.6469 69.0235 28.6832 69.2704C28.1141 68.813 27.3994 68.5271 26.6119 68.5271C24.9772 68.5271 23.6258 69.707 23.3452 71.2611C23.1061 71.2247 22.8696 71.1883 22.6201 71.1883C20.0472 71.1883 17.9629 73.2726 17.9629 75.8455C17.9629 78.4184 20.0472 80.5027 22.6201 80.5027C25.193 80.5027 32.5997 80.5027 32.5997 80.5027V81.168H41.9141V80.5027Z" fill="#FDFCEF"/>
<path d="M44.2427 74.5147C44.0582 74.5147 43.9101 74.3666 43.9101 74.1821C43.9101 72.5552 45.2329 71.2297 46.8624 71.2297C46.9066 71.2427 47.8422 71.2297 48.5179 71.4117C48.6946 71.4584 48.7985 71.643 48.7518 71.8197C48.7024 71.9964 48.5205 72.103 48.3437 72.0536C47.7538 71.8924 46.8806 71.8924 46.8624 71.895C45.6019 71.895 44.5754 72.9216 44.5754 74.1821C44.5754 74.3666 44.4272 74.5147 44.2427 74.5147ZM35.261 79.8372C34.8946 79.8372 34.5957 80.1361 34.5957 80.5025C34.5957 80.869 34.8946 81.1678 35.261 81.1678C35.6275 81.1678 35.9263 80.869 35.9263 80.5025C35.9263 80.1361 35.6275 79.8372 35.261 79.8372Z" fill="#472B29"/>
<path d="M46.5715 81.168H41.9144C41.5479 81.168 41.2491 80.8692 41.2491 80.5027C41.2491 80.1363 41.5479 79.8374 41.9144 79.8374H46.5715C48.7728 79.8374 50.5634 78.0468 50.5634 75.8455C50.5634 73.8548 49.0665 72.1629 47.0809 71.9082C46.9016 71.8849 46.7405 71.7913 46.6339 71.6484C46.5248 71.5028 46.4806 71.3235 46.5066 71.1468C46.5378 70.9415 46.5715 70.7361 46.5715 70.523C46.5715 68.3218 44.7809 66.5312 42.5797 66.5312C41.4492 66.5312 40.3992 67.0042 39.6274 67.8618C39.461 68.0463 39.2011 68.1243 38.962 68.0593C38.7204 67.9943 38.5358 67.7994 38.4839 67.5551C38.0291 65.4189 36.1137 63.8699 33.9306 63.8699C31.3629 63.8699 29.2735 65.9594 29.2735 68.5271C29.2735 68.7168 29.302 68.8987 29.328 69.0833C29.367 69.3535 29.2449 69.6654 29.0058 69.8006C28.7667 69.9383 28.4782 69.9591 28.2651 69.7876C27.7817 69.3977 27.2099 69.1924 26.6122 69.1924C25.3258 69.1924 24.2264 70.1124 24.0003 71.3807C23.9354 71.7341 23.6053 71.9732 23.2441 71.9186C23.0388 71.8875 22.8334 71.8537 22.6203 71.8537C20.4191 71.8537 18.6285 73.6443 18.6285 75.8455C18.6285 78.0468 20.4191 79.8374 22.6203 79.8374H32.6C32.9664 79.8374 33.2653 80.1363 33.2653 80.5027C33.2653 80.8692 32.9664 81.168 32.6 81.168H22.6203C19.6862 81.168 17.2979 78.7797 17.2979 75.8455C17.2979 72.9114 19.6862 70.523 22.6203 70.523C22.6983 70.523 22.7737 70.5256 22.8516 70.5308C23.4026 68.9533 24.897 67.8618 26.6122 67.8618C27.0774 67.8618 27.5296 67.9424 27.9584 68.1009C28.1767 64.9978 30.773 62.5393 33.9306 62.5393C36.3658 62.5393 38.5436 64.0389 39.4558 66.2297C40.3602 65.567 41.4544 65.2006 42.5797 65.2006C45.5138 65.2006 47.9022 67.5889 47.9022 70.523C47.9022 70.588 47.8996 70.6504 47.897 70.7128C50.2152 71.3079 51.894 73.4104 51.894 75.8455C51.894 78.7797 49.5057 81.168 46.5715 81.168Z" fill="#472B29"/>
<path d="M39.2528 79.8374C39.0423 79.8374 38.1327 79.8374 37.9221 79.8374C37.5557 79.8374 37.2568 80.1363 37.2568 80.5027C37.2568 80.8692 37.5557 81.168 37.9221 81.168C38.1327 81.168 39.0423 81.168 39.2528 81.168C39.6192 81.168 39.9181 80.8692 39.9181 80.5027C39.9181 80.1363 39.6192 79.8374 39.2528 79.8374Z" fill="#472B29"/>
<path d="M92.612 58.5752C86.864 52.8265 83.5797 49.5429 77.8317 43.7942H64.0968H57.4501H55.382H54.4564C50.9502 43.7942 48.082 46.6631 48.082 50.1685V95.0891C48.082 98.5953 50.9509 101.463 54.4564 101.463H86.2369C89.7431 101.463 92.6113 98.5945 92.6113 95.0891V58.5752H92.612Z" fill="#FFFEFE"/>
<path d="M86.2384 102.194H54.4579C50.5407 102.194 47.3535 99.007 47.3535 95.0898V50.1693C47.3535 46.2514 50.5407 43.0649 54.4579 43.0649H77.8332C78.0274 43.0649 78.2128 43.1416 78.3493 43.2788L93.1296 58.0599C93.2669 58.1971 93.3435 58.3825 93.3435 58.576V95.0906C93.3428 99.007 90.1556 102.194 86.2384 102.194ZM54.4579 44.5242C51.3452 44.5242 48.8135 47.0566 48.8135 50.1686V95.0891C48.8135 98.2018 51.3459 100.733 54.4579 100.733H86.2384C89.3512 100.733 91.8828 98.2011 91.8828 95.0891V58.8775L77.5303 44.5242H54.4579Z" fill="#1F212B"/>
<path d="M77.6475 44.1592V52.179C77.6475 55.7983 80.6083 58.7592 84.2277 58.7592H92.9775" fill="#FFC5AB"/>
<path d="M92.9774 59.1242H84.2284C80.3988 59.1242 77.2824 56.0085 77.2824 52.1782V44.1592C77.2824 43.9577 77.4459 43.7942 77.6474 43.7942C77.8489 43.7942 78.0124 43.9577 78.0124 44.1592V52.1782C78.0124 55.6056 80.8003 58.3942 84.2284 58.3942H92.9774C93.1789 58.3942 93.3424 58.5577 93.3424 58.7592C93.3424 58.9607 93.1796 59.1242 92.9774 59.1242ZM88.5974 72.2642C88.3959 72.2642 88.2324 72.1007 88.2324 71.8992V69.7092C88.2324 69.5077 88.3959 69.3442 88.5974 69.3442C88.7989 69.3442 88.9624 69.5077 88.9624 69.7092V71.8992C88.9624 72.1007 88.7996 72.2642 88.5974 72.2642ZM88.5974 78.1042C88.3959 78.1042 88.2324 77.9407 88.2324 77.7392V73.3592C88.2324 73.1577 88.3959 72.9942 88.5974 72.9942C88.7989 72.9942 88.9624 73.1577 88.9624 73.3592V77.7392C88.9624 77.9407 88.7996 78.1042 88.5974 78.1042ZM83.3721 97.8142H57.3228C54.24 97.8142 51.7324 95.2957 51.7324 92.2012V53.7572C51.7324 51.9629 52.6033 50.2605 54.0633 49.2035C55.0196 48.5107 56.1467 48.1443 57.3228 48.1443C57.5242 48.1443 57.6878 48.3078 57.6878 48.5093C57.6878 48.7107 57.5242 48.8743 57.3228 48.8743C56.3022 48.8743 55.3226 49.1925 54.4911 49.7948C53.2209 50.716 52.4624 52.1972 52.4624 53.758V92.202C52.4624 94.8942 54.6429 97.0849 57.3228 97.0849H83.3721C86.0519 97.0849 88.2324 94.8942 88.2324 92.202V79.1992C88.2324 78.9977 88.3959 78.8342 88.5974 78.8342C88.7989 78.8342 88.9624 78.9977 88.9624 79.1992V92.2012C88.9624 95.2957 86.4549 97.8142 83.3721 97.8142Z" fill="#1F212B"/>
<path d="M71.0778 75.184H55.7478C55.5463 75.184 55.3828 75.0205 55.3828 74.819C55.3828 74.6175 55.5463 74.454 55.7478 74.454H71.0778C71.2793 74.454 71.4428 74.6175 71.4428 74.819C71.4428 75.0205 71.28 75.184 71.0778 75.184ZM65.2378 80.294H55.7478C55.5463 80.294 55.3828 80.1305 55.3828 79.929C55.3828 79.7275 55.5463 79.564 55.7478 79.564H65.2378C65.4393 79.564 65.6028 79.7275 65.6028 79.929C65.6028 80.1305 65.44 80.294 65.2378 80.294ZM84.9478 80.294H67.4278C67.2263 80.294 67.0628 80.1305 67.0628 79.929C67.0628 79.7275 67.2263 79.564 67.4278 79.564H84.9478C85.1493 79.564 85.3128 79.7275 85.3128 79.929C85.3128 80.1305 85.15 80.294 84.9478 80.294ZM78.3778 85.404H70.3478C70.1463 85.404 69.9828 85.2405 69.9828 85.039C69.9828 84.8375 70.1463 84.674 70.3478 84.674H78.3778C78.5793 84.674 78.7428 84.8375 78.7428 85.039C78.7428 85.2405 78.58 85.404 78.3778 85.404ZM85.6778 85.404H79.8378C79.6363 85.404 79.4728 85.2405 79.4728 85.039C79.4728 84.8375 79.6363 84.674 79.8378 84.674H85.6778C85.8793 84.674 86.0428 84.8375 86.0428 85.039C86.0428 85.2405 85.88 85.404 85.6778 85.404ZM68.1578 85.404H55.7478C55.5463 85.404 55.3828 85.2405 55.3828 85.039C55.3828 84.8375 55.5463 84.674 55.7478 84.674H68.1578C68.3593 84.674 68.5228 84.8375 68.5228 85.039C68.5228 85.2405 68.36 85.404 68.1578 85.404ZM84.9478 90.514H74.7278C74.5263 90.514 74.3628 90.3505 74.3628 90.149C74.3628 89.9475 74.5263 89.784 74.7278 89.784H84.9478C85.1493 89.784 85.3128 89.9475 85.3128 90.149C85.3128 90.3505 85.15 90.514 84.9478 90.514ZM73.2678 90.514H55.7478C55.5463 90.514 55.3828 90.3505 55.3828 90.149C55.3828 89.9475 55.5463 89.784 55.7478 89.784H73.2678C73.4693 89.784 73.6328 89.9475 73.6328 90.149C73.6328 90.3505 73.47 90.514 73.2678 90.514ZM71.0778 70.074H55.7478C55.5463 70.074 55.3828 69.9105 55.3828 69.709C55.3828 69.5075 55.5463 69.344 55.7478 69.344H71.0778C71.2793 69.344 71.4428 69.5075 71.4428 69.709C71.4428 69.9105 71.28 70.074 71.0778 70.074Z" fill="#1F212B"/>
<path d="M73.2676 74.8191V64.5991H84.9476V76.2791H76.1876" fill="#FFE27B"/>
<path d="M84.9478 76.6441H76.1878C75.9863 76.6441 75.8228 76.4806 75.8228 76.2791C75.8228 76.0776 75.9863 75.9141 76.1878 75.9141H84.5828V64.9641H73.6328V74.8191C73.6328 75.0206 73.4693 75.1841 73.2678 75.1841C73.0663 75.1841 72.9028 75.0206 72.9028 74.8191V64.5991C72.9028 64.3977 73.0663 64.2341 73.2678 64.2341H84.9478C85.1493 64.2341 85.3128 64.3977 85.3128 64.5991V76.2791C85.3128 76.4806 85.15 76.6441 84.9478 76.6441ZM71.0778 64.9641H55.7478C55.5463 64.9641 55.3828 64.8006 55.3828 64.5991C55.3828 64.3977 55.5463 64.2341 55.7478 64.2341H71.0778C71.2793 64.2341 71.4428 64.3977 71.4428 64.5991C71.4428 64.8006 71.28 64.9641 71.0778 64.9641Z" fill="#1F212B"/>
<g clip-path="url(#clip0)">
<path d="M77.2933 85.2629C75.3119 87.0017 74.1023 89.4564 73.9308 92.087C73.7592 94.7177 74.6397 97.3087 76.3785 99.2902C78.1173 101.272 80.572 102.481 83.2026 102.653C85.8333 102.824 88.4243 101.944 90.4057 100.205C92.3872 98.4662 93.5967 96.0115 93.7683 93.3808C93.9399 90.7502 93.0594 88.1592 91.3206 86.1777C89.5818 84.1963 87.1271 82.9867 84.4964 82.8152C81.8658 82.6436 79.2748 83.5241 77.2933 85.2629Z" fill="#A3A3CD"/>
<path d="M90.7036 100.545C86.3966 104.324 79.8181 103.895 76.0388 99.5882C72.2594 95.2815 72.6882 88.703 76.9952 84.9234C81.3023 81.1437 87.8807 81.5731 91.6601 85.8798C95.4394 90.1865 95.0104 96.7653 90.7036 100.545ZM77.5912 85.6026C73.6591 89.0532 73.267 95.0597 76.718 98.9922C80.1689 102.925 86.1755 103.316 90.1076 99.8655C94.0398 96.4148 94.4318 90.4083 90.9809 86.4758C87.53 82.5433 81.5234 82.1519 77.5912 85.6026Z" fill="#1F212B"/>
<path d="M92.7893 102.922C92.6015 103.087 92.3162 103.068 92.1517 102.88L90.0656 100.503C89.9011 100.316 89.9194 100.03 90.1072 99.8656C90.295 99.7008 90.5803 99.7197 90.7448 99.9071L92.8308 102.284C92.9953 102.472 92.9767 102.757 92.7893 102.922Z" fill="#1F212B"/>
<path d="M101.431 112.77C100.497 113.59 99.0627 113.496 98.2432 112.562L92.283 105.77C91.4635 104.836 91.5571 103.402 92.4909 102.582C93.4248 101.763 94.8594 101.856 95.679 102.79L101.639 109.582C102.459 110.516 102.365 111.951 101.431 112.77Z" fill="#FCBA7F"/>
<path d="M101.729 113.11C100.605 114.096 98.8896 113.984 97.9035 112.86L91.9433 106.068C90.9572 104.945 91.0691 103.229 92.1928 102.243C93.3165 101.257 95.0323 101.368 96.0184 102.492L101.979 109.284C102.965 110.408 102.853 112.124 101.729 113.11ZM92.7889 102.922C92.0397 103.579 91.9651 104.723 92.6225 105.472L98.5827 112.264C99.2401 113.013 100.384 113.088 101.133 112.431C101.882 111.773 101.957 110.629 101.299 109.88L95.3393 103.088C94.6819 102.339 93.538 102.264 92.7889 102.922Z" fill="#1F212B"/>
<path d="M92.7754 102.906C92.0283 103.562 91.9105 104.661 92.5134 105.348L92.623 105.472L92.8947 105.234L95.3398 103.088L95.2301 102.963C94.6272 102.276 93.5225 102.25 92.7754 102.906Z" fill="#FED5B3"/>
<path d="M78.6343 86.7912C77.0581 88.1743 76.096 90.127 75.9595 92.2195C75.823 94.312 76.5234 96.3731 77.9066 97.9492C79.2897 99.5254 81.2423 100.488 83.3349 100.624C85.4274 100.76 87.4885 100.06 89.0646 98.677C90.6408 97.2938 91.6029 95.3412 91.7394 93.2487C91.8759 91.1561 91.1755 89.0951 89.7923 87.5189C88.4092 85.9428 86.4566 84.9806 84.364 84.8441C82.2715 84.7077 80.2104 85.408 78.6343 86.7912Z" fill="#96E2EE"/>
<path d="M89.2131 98.8468C85.8426 101.805 80.694 101.469 77.7362 98.0983C74.7785 94.7278 75.1143 89.5792 78.4848 86.6214C81.8552 83.6637 87.0039 83.9995 89.9616 87.37C92.9193 90.7404 92.5836 95.8891 89.2131 98.8468ZM78.7828 86.961C75.5994 89.7546 75.2823 94.6169 78.0758 97.8003C80.8694 100.984 85.7317 101.301 88.9151 98.5072C92.0984 95.7137 92.4155 90.8513 89.622 87.668C86.8285 84.4846 81.9661 84.1675 78.7828 86.961ZM96.147 102.981L93.0907 105.663C92.9969 105.745 92.8541 105.736 92.7719 105.642C92.6896 105.548 92.6989 105.406 92.7927 105.323L95.849 102.641C95.9427 102.559 96.0855 102.568 96.1678 102.662C96.25 102.756 96.2407 102.899 96.147 102.981ZM97.6024 110.119C97.5087 110.201 97.3658 110.192 97.2836 110.098L94.0055 106.363C93.9232 106.269 93.9326 106.126 94.0263 106.044C94.12 105.962 94.2628 105.971 94.3451 106.065L97.6232 109.8C97.7054 109.894 97.6961 110.037 97.6024 110.119ZM98.7944 111.478C98.7007 111.56 98.5579 111.551 98.4756 111.457L97.8796 110.778C97.7974 110.684 97.8067 110.541 97.9004 110.459C97.9941 110.377 98.137 110.386 98.2192 110.48L98.8152 111.159C98.8975 111.253 98.8882 111.395 98.7944 111.478Z" fill="#1F212B"/>
</g>
<defs>
<clipPath id="clip0">
<rect width="45.1811" height="45.1811" fill="white" transform="translate(57.54 97.187) rotate(-41.2685)"/>
</clipPath>
</defs>
</svg>
