<svg width="133" height="133" viewBox="0 0 133 133" fill="none" xmlns="http://www.w3.org/2000/svg">
<path d="M115.315 74.3258C115.714 73.5065 116.068 72.6446 116.374 71.7416C119.876 61.4075 114.58 49.0278 103.429 46.0393C102.224 30.8986 91.5843 20.5126 79.5677 18.7397C65.8142 16.7115 53.2151 25.4482 49.0229 39.3348C43.9703 37.5446 39.0466 37.7627 34.4062 40.4746C32.3008 41.4481 30.375 42.8846 28.6473 44.7745C26.111 47.5489 24.4618 51.0508 23.7902 54.7428C22.7953 54.8998 21.8178 55.0567 20.8961 55.3866C15.5229 57.3137 12.1327 61.2798 11.203 67.2541C10.6245 70.9742 11.7922 74.6849 12.4439 76.1838C15.0175 82.1089 20.9852 85.4672 27.0487 84.5787C27.3506 84.5348 27.7895 84.6705 28.0488 84.8886C28.3694 94.3582 32.9672 102.733 39.8646 107.517C50.9315 115.194 65.1705 112.829 74.1533 102.302C78.0023 106.239 82.5828 108.152 87.964 107.457C93.3146 106.767 97.4695 103.815 100.501 99.0132C101.901 99.3896 103.228 99.9323 104.601 100.083C109.977 100.67 114.306 98.5078 117.545 93.6985C117.655 93.5336 117.815 93.4073 117.952 93.2623C118.414 92.201 118.877 91.1396 119.34 90.0783C119.546 88.4676 119.911 86.8557 119.929 85.2477C119.981 80.9186 118.211 76.9725 115.315 74.3258Z" fill="#127B64" fill-opacity="0.2"/>
<path d="M104.442 90.5237C104.442 90.5237 119.991 90.5237 120.085 90.5237C123.676 90.5237 126.587 87.6123 126.587 84.0213C126.587 80.8892 124.371 78.2744 121.421 77.6586C121.455 77.3846 121.478 77.1066 121.478 76.8234C121.478 73.1047 118.463 70.0896 114.744 70.0896C112.548 70.0896 110.604 71.1456 109.375 72.7722C109.061 68.6319 105.362 65.4386 101.036 65.9679C97.8718 66.3549 95.2557 68.8008 94.6732 71.9343C94.487 72.9398 94.5056 73.9146 94.6918 74.8297C93.8432 73.916 92.6356 73.3414 91.291 73.3414C88.8305 73.3414 86.8208 75.2579 86.6626 77.6785C85.5454 77.4312 84.3298 77.4471 83.049 77.9286C80.6018 78.8476 78.8595 81.1512 78.7571 83.7633C78.6121 87.4727 81.5767 90.5263 85.2541 90.5263C85.5334 90.5263 86.5149 90.5263 86.741 90.5263H100.242" fill="#FDFCEF"/>
<path d="M120.085 91.1888H104.442C104.075 91.1888 103.777 90.8909 103.777 90.5238C103.777 90.1568 104.075 89.8588 104.442 89.8588H120.085C123.304 89.8588 125.923 87.2401 125.923 84.0215C125.923 81.2737 123.973 78.8704 121.286 78.3091C120.947 78.2386 120.72 77.9208 120.762 77.5776C120.793 77.3289 120.814 77.0789 120.814 76.8235C120.814 73.4772 118.092 70.7547 114.745 70.7547C112.833 70.7547 111.068 71.6365 109.907 73.1727C109.741 73.3934 109.456 73.4905 109.189 73.4094C108.924 73.3309 108.734 73.0982 108.714 72.8229C108.576 70.9915 107.678 69.2704 106.252 68.1027C104.813 66.923 102.99 66.3976 101.118 66.6277C98.2374 66.9802 95.8567 69.2119 95.3287 72.0555C95.1638 72.9426 95.1691 73.831 95.346 74.6968C95.4045 74.9894 95.2635 75.2847 94.9975 75.4204C94.7315 75.556 94.4083 75.5002 94.2062 75.282C93.4414 74.4588 92.4067 74.0066 91.2935 74.0066C89.2067 74.0066 87.4657 75.6385 87.3288 77.7226C87.3155 77.9168 87.2184 78.095 87.0641 78.2107C86.9085 78.3264 86.7076 78.369 86.5214 78.3277C85.4016 78.079 84.3429 78.1522 83.2856 78.5498C81.0658 79.3824 79.515 81.4865 79.4246 83.7874C79.3621 85.3927 79.9393 86.9129 81.0498 88.0673C82.1604 89.2218 83.654 89.8588 85.2566 89.8588H100.244C100.611 89.8588 100.909 90.1568 100.909 90.5238C100.909 90.8909 100.611 91.1888 100.244 91.1888H85.2553C83.2882 91.1888 81.4541 90.4081 80.0896 88.989C78.7263 87.5712 78.0174 85.7052 78.0946 83.7355C78.205 80.9079 80.1029 78.3237 82.8161 77.305C83.8814 76.906 84.9813 76.7743 86.0985 76.9073C86.5999 74.4827 88.7558 72.6752 91.2922 72.6752C92.2019 72.6752 93.093 72.9146 93.8777 73.3535C93.8777 72.8415 93.9242 72.3268 94.0187 71.8121C94.6531 68.4046 97.5046 65.73 100.955 65.307C103.185 65.0344 105.369 65.6608 107.093 67.0733C108.428 68.1679 109.375 69.6681 109.803 71.32C111.149 70.1017 112.887 69.4247 114.743 69.4247C118.822 69.4247 122.142 72.7444 122.142 76.8235C122.142 76.9339 122.139 77.0443 122.132 77.1547C125.13 78.0498 127.25 80.8481 127.25 84.0228C127.251 87.9729 124.037 91.1888 120.085 91.1888Z" fill="#472B29"/>
<path d="M100.674 76.2009C98.2698 76.0426 96.199 77.7038 96.0513 79.9102C96.0327 80.1842 96.0447 80.4542 96.0846 80.7162C95.6204 80.1922 94.9341 79.8371 94.1454 79.7852C92.7024 79.6908 91.4562 80.6431 91.2753 81.9398C91.0133 81.868 90.7393 81.8201 90.456 81.8015C88.352 81.6632 86.5405 83.1169 86.4102 85.048" fill="#FDFCEF"/>
<path d="M86.4104 85.3794C86.4024 85.3794 86.3944 85.3794 86.3878 85.3794C86.2042 85.3675 86.0659 85.2092 86.0779 85.0256C86.2202 82.9163 88.1793 81.3243 90.4775 81.4706C90.6571 81.4825 90.8379 81.5051 91.0201 81.541C91.3846 80.2536 92.6933 79.3652 94.1656 79.4556C94.7322 79.4928 95.2615 79.6697 95.7137 79.9637C95.7137 79.9384 95.7164 79.9145 95.7177 79.8905C95.8786 77.5045 98.1051 75.7156 100.695 75.8712C100.878 75.8832 101.016 76.0415 101.004 76.225C100.992 76.4072 100.849 76.5456 100.651 76.5349C98.4376 76.3873 96.517 77.9155 96.3814 79.9357C96.3654 80.1805 96.3761 80.4278 96.412 80.6699C96.4346 80.8149 96.3574 80.9585 96.2244 81.021C96.0914 81.0835 95.9318 81.0503 95.8347 80.9399C95.4118 80.4624 94.788 80.1632 94.1217 80.1193C92.8715 80.0368 91.761 80.8588 91.6027 81.9879C91.5894 82.0824 91.5362 82.1661 91.4564 82.2193C91.3766 82.2725 91.2795 82.2872 91.1851 82.2632C90.9337 82.1941 90.6797 82.1515 90.4323 82.1356C88.5211 81.9972 86.8573 83.3259 86.7402 85.0722C86.7309 85.2451 86.5846 85.3794 86.4104 85.3794Z" fill="#472B29"/>
<path d="M122.718 78.4207C120.458 77.3554 117.845 78.1095 116.881 80.1058C116.761 80.3532 116.672 80.6099 116.613 80.8692" fill="#FDFCEF"/>
<path d="M116.613 81.2003C116.589 81.2003 116.564 81.1977 116.539 81.1924C116.359 81.1511 116.248 80.9729 116.289 80.7947C116.354 80.5061 116.454 80.2254 116.581 79.9608C117.623 77.8035 120.441 76.9776 122.859 78.1201C123.025 78.1985 123.097 78.3967 123.019 78.5629C122.94 78.7305 122.741 78.7997 122.576 78.7225C120.484 77.737 118.062 78.4206 117.18 80.2507C117.074 80.4702 116.991 80.7029 116.937 80.9436C116.903 81.0966 116.766 81.2003 116.613 81.2003Z" fill="#472B29"/>
<path d="M31.3594 84.8394H18.0195C17.6524 84.8394 17.3545 84.5414 17.3545 84.1744C17.3545 83.8073 17.6524 83.5094 18.0195 83.5094H31.3594C31.7265 83.5094 32.0244 83.8073 32.0244 84.1744C32.0244 84.5414 31.7278 84.8394 31.3594 84.8394ZM35.1925 84.8394H33.2693C32.9022 84.8394 32.6043 84.5414 32.6043 84.1744C32.6043 83.8073 32.9022 83.5094 33.2693 83.5094H35.1925C35.5595 83.5094 35.8575 83.8073 35.8575 84.1744C35.8575 84.5414 35.5595 84.8394 35.1925 84.8394ZM40.5843 84.8394H37.1994C36.8323 84.8394 36.5344 84.5414 36.5344 84.1744C36.5344 83.8073 36.8323 83.5094 37.1994 83.5094H40.5843C40.9514 83.5094 41.2493 83.8073 41.2493 84.1744C41.2493 84.5414 40.9514 84.8394 40.5843 84.8394ZM40.5843 87.3211H27.795C27.4279 87.3211 27.13 87.0232 27.13 86.6561C27.13 86.2891 27.4279 85.9911 27.795 85.9911H40.5843C40.9514 85.9911 41.2493 86.2891 41.2493 86.6561C41.2493 87.0232 40.9514 87.3211 40.5843 87.3211ZM25.4914 87.3211H24.72C24.353 87.3211 24.055 87.0232 24.055 86.6561C24.055 86.2891 24.353 85.9911 24.72 85.9911H25.4914C25.8585 85.9911 26.1564 86.2891 26.1564 86.6561C26.1564 87.0232 25.8598 87.3211 25.4914 87.3211ZM22.33 87.3211H20.3935C20.0265 87.3211 19.7285 87.0232 19.7285 86.6561C19.7285 86.2891 20.0265 85.9911 20.3935 85.9911H22.33C22.6971 85.9911 22.995 86.2891 22.995 86.6561C22.995 87.0232 22.6984 87.3211 22.33 87.3211ZM34.4809 82.3602H27.795C27.4279 82.3602 27.13 82.0623 27.13 81.6952C27.13 81.3282 27.4279 81.0302 27.795 81.0302H34.4809C34.848 81.0302 35.1459 81.3282 35.1459 81.6952C35.1459 82.0623 34.848 82.3602 34.4809 82.3602ZM34.4809 79.8798H32.8091C32.442 79.8798 32.1441 79.5819 32.1441 79.2148C32.1441 78.8477 32.442 78.5498 32.8091 78.5498H34.4809C34.848 78.5498 35.1459 78.8477 35.1459 79.2148C35.1459 79.5819 34.848 79.8798 34.4809 79.8798ZM30.1331 89.8003H27.7937C27.4266 89.8003 27.1287 89.5023 27.1287 89.1353C27.1287 88.7682 27.4266 88.4703 27.7937 88.4703H30.1331C30.5002 88.4703 30.7981 88.7682 30.7981 89.1353C30.7981 89.5023 30.5015 89.8003 30.1331 89.8003Z" fill="white"/>
<path d="M92.4963 28.7852H79.1564C78.7893 28.7852 78.4914 28.4873 78.4914 28.1202C78.4914 27.7531 78.7893 27.4552 79.1564 27.4552H92.4963C92.8634 27.4552 93.1613 27.7531 93.1613 28.1202C93.1613 28.4873 92.8634 28.7852 92.4963 28.7852ZM96.3281 28.7852H94.4049C94.0378 28.7852 93.7399 28.4873 93.7399 28.1202C93.7399 27.7531 94.0378 27.4552 94.4049 27.4552H96.3281C96.6951 27.4552 96.9931 27.7531 96.9931 28.1202C96.9931 28.4873 96.6965 28.7852 96.3281 28.7852ZM101.721 28.7852H98.335C97.9679 28.7852 97.67 28.4873 97.67 28.1202C97.67 27.7531 97.9679 27.4552 98.335 27.4552H101.721C102.088 27.4552 102.386 27.7531 102.386 28.1202C102.386 28.4873 102.088 28.7852 101.721 28.7852ZM99.0266 23.8256H86.2373C85.8703 23.8256 85.5723 23.5277 85.5723 23.1606C85.5723 22.7935 85.8703 22.4956 86.2373 22.4956H99.028C99.395 22.4956 99.693 22.7935 99.693 23.1606C99.693 23.5277 99.395 23.8256 99.0266 23.8256ZM83.9338 23.8256H83.1624C82.7953 23.8256 82.4974 23.5277 82.4974 23.1606C82.4974 22.7935 82.7953 22.4956 83.1624 22.4956H83.9338C84.3009 22.4956 84.5988 22.7935 84.5988 23.1606C84.5988 23.5277 84.3009 23.8256 83.9338 23.8256ZM80.7724 23.8256H78.8359C78.4688 23.8256 78.1709 23.5277 78.1709 23.1606C78.1709 22.7935 78.4688 22.4956 78.8359 22.4956H80.7724C81.1395 22.4956 81.4374 22.7935 81.4374 23.1606C81.4374 23.5277 81.1408 23.8256 80.7724 23.8256ZM95.6178 26.3047H88.9319C88.5648 26.3047 88.2669 26.0068 88.2669 25.6397C88.2669 25.2726 88.5648 24.9747 88.9319 24.9747H95.6178C95.9849 24.9747 96.2828 25.2726 96.2828 25.6397C96.2828 26.0068 95.9849 26.3047 95.6178 26.3047Z" fill="white"/>
<path d="M95.6181 23.8256H93.9463C93.5792 23.8256 93.2813 23.5277 93.2813 23.1606C93.2813 22.7935 93.5792 22.4956 93.9463 22.4956H95.6181C95.9851 22.4956 96.2831 22.7935 96.2831 23.1606C96.2831 23.5277 95.9851 23.8256 95.6181 23.8256ZM86.9957 26.3047H84.6562C84.2891 26.3047 83.9912 26.0068 83.9912 25.6397C83.9912 25.2726 84.2891 24.9747 84.6562 24.9747H86.9957C87.3628 24.9747 87.6607 25.2726 87.6607 25.6397C87.6607 26.0068 87.3641 26.3047 86.9957 26.3047Z" fill="white"/>
<path d="M84.0601 92.4201H54.4601C49.5561 92.4201 45.5801 88.444 45.5801 83.5401V53.9401C45.5801 49.0361 49.5561 45.0601 54.4601 45.0601H84.0601C88.9641 45.0601 92.9401 49.0361 92.9401 53.9401V83.5401C92.9401 88.444 88.9641 92.4201 84.0601 92.4201Z" fill="#BDB4F6"/>
<path d="M87.7596 40.25C87.1468 40.25 86.6496 40.7473 86.6496 41.36C86.6496 41.9727 87.1468 42.47 87.7596 42.47H93.9682L71.4433 64.9949C71.0104 65.4278 71.0097 66.1293 71.4418 66.5629L71.444 66.5651C71.8777 67.0003 72.5814 67.001 73.0158 66.5666L95.5296 44.0388V50.24C95.5296 50.8527 96.0268 51.35 96.6396 51.35C97.2523 51.35 97.7496 50.8527 97.7496 50.24V40.25H87.7596Z" fill="#FFE27B"/>
<path d="M84.0601 92.4201H54.4601C49.5635 92.4201 45.5801 88.4366 45.5801 83.5401V53.9401C45.5801 49.0435 49.5635 45.0601 54.4601 45.0601H84.0601C84.9081 45.0601 85.7488 45.1799 86.5576 45.416C86.949 45.5307 87.1747 45.9421 87.06 46.3343C86.9453 46.7258 86.5406 46.9508 86.1417 46.8368C85.4683 46.64 84.7683 46.5401 84.0601 46.5401H54.4601C50.3797 46.5401 47.0601 49.8597 47.0601 53.9401V83.5401C47.0601 87.6204 50.3797 90.9401 54.4601 90.9401H84.0601C88.1404 90.9401 91.4601 87.6204 91.4601 83.5401V53.9401C91.4601 53.2563 91.3676 52.5807 91.1841 51.9317C91.0738 51.5388 91.3025 51.1295 91.6954 51.0185C92.0898 50.9098 92.4976 51.1377 92.6086 51.5299C92.8291 52.3098 92.9401 53.1209 92.9401 53.9401V83.5401C92.9401 88.4366 88.9567 92.4201 84.0601 92.4201Z" fill="#1F212B"/>
<path d="M72.2309 67.2623C72.2302 67.2623 72.2302 67.2623 72.2294 67.2623C71.8335 67.2616 71.4613 67.1069 71.1823 66.8265C70.6051 66.2463 70.6066 65.3087 71.1823 64.7338L93.0753 42.8401H87.7598C86.9436 42.8401 86.2798 42.1763 86.2798 41.3601C86.2798 40.5439 86.9436 39.8801 87.7598 39.8801H97.7498C97.9541 39.8801 98.1198 40.0459 98.1198 40.2501V50.2401C98.1198 51.0563 97.4561 51.7201 96.6398 51.7201C95.8236 51.7201 95.1598 51.0563 95.1598 50.2401V44.9328L73.278 66.8287C72.9983 67.1084 72.6268 67.2623 72.2309 67.2623ZM87.7598 40.6201C87.3514 40.6201 87.0198 40.9516 87.0198 41.3601C87.0198 41.7686 87.3514 42.1001 87.7598 42.1001H93.9684C94.1179 42.1001 94.2533 42.1904 94.3103 42.3288C94.3673 42.4672 94.3355 42.6263 94.2304 42.7321L71.7055 65.2569C71.4169 65.5448 71.4169 66.0132 71.704 66.3018C71.8461 66.4446 72.0319 66.5223 72.2302 66.5223H72.2309C72.4292 66.5223 72.615 66.4454 72.7548 66.3055L95.2686 43.7777C95.3744 43.6719 95.5335 43.6408 95.6719 43.6978C95.8096 43.754 95.8998 43.8894 95.8998 44.0389V50.2401C95.8998 50.6486 96.2314 50.9801 96.6398 50.9801C97.0483 50.9801 97.3798 50.6486 97.3798 50.2401V40.6201H87.7598Z" fill="#1F212B"/>
<path d="M84.0603 88.72H54.4603C51.6039 88.72 49.2803 86.3957 49.2803 83.54V53.94C49.2803 51.0843 51.6039 48.76 54.4603 48.76H80.7303C80.9345 48.76 81.1003 48.9258 81.1003 49.13C81.1003 49.3342 80.9345 49.5 80.7303 49.5H54.4603C52.0116 49.5 50.0203 51.4913 50.0203 53.94V83.54C50.0203 85.9887 52.0116 87.98 54.4603 87.98H84.0603C86.5089 87.98 88.5003 85.9887 88.5003 83.54V70.22C88.5003 70.0158 88.666 69.85 88.8703 69.85C89.0745 69.85 89.2403 70.0158 89.2403 70.22V83.54C89.2403 86.3957 86.9159 88.72 84.0603 88.72ZM88.8703 68C88.666 68 88.5003 67.8342 88.5003 67.63V64.67C88.5003 64.4658 88.666 64.3 88.8703 64.3C89.0745 64.3 89.2403 64.4658 89.2403 64.67V67.63C89.2403 67.8342 89.0745 68 88.8703 68ZM88.8703 63.56C88.666 63.56 88.5003 63.3942 88.5003 63.19V61.71C88.5003 61.5058 88.666 61.34 88.8703 61.34C89.0745 61.34 89.2403 61.5058 89.2403 61.71V63.19C89.2403 63.3942 89.0745 63.56 88.8703 63.56Z" fill="#1F212B"/>
<path d="M47.2592 67.4956C49.7635 67.4956 51.9368 67.4956 51.9674 67.4956C54.7737 67.4956 57.0493 65.2692 57.0493 62.5227C57.0493 60.126 55.3176 58.1271 53.0127 57.6549C53.0393 57.4448 53.058 57.2333 53.058 57.0165C53.058 54.1716 50.7012 51.8654 47.7951 51.8654C46.0794 51.8654 44.5593 52.6727 43.599 53.9176C43.3529 50.7509 40.4629 48.3077 37.082 48.7133C34.6095 49.0099 32.564 50.8799 32.1091 53.2765C31.9628 54.0453 31.9788 54.7914 32.1238 55.491C31.4614 54.7927 30.5171 54.3525 29.4664 54.3525C27.5432 54.3525 25.9725 55.8182 25.8488 57.6695C24.975 57.4807 24.0254 57.4926 23.0252 57.8597C21.1127 58.562 19.7508 60.3242 19.671 62.3232C19.5579 65.1601 21.8748 67.4956 24.7489 67.4956C24.967 67.4956 25.7344 67.4956 25.9113 67.4956H36.4635H47.2592ZM38.6447 67.4956H39.1235H38.6447Z" fill="#FDFCEF"/>
<path d="M51.9673 68.1604H47.2578C46.8907 68.1604 46.5928 67.8625 46.5928 67.4954C46.5928 67.1283 46.8907 66.8304 47.2578 66.8304H51.9673C54.4025 66.8304 56.3829 64.8979 56.3829 62.5226C56.3829 60.4956 54.9093 58.7227 52.8783 58.3065C52.5379 58.2373 52.3078 57.9168 52.3517 57.571C52.3756 57.3888 52.3902 57.2039 52.3902 57.0164C52.3902 54.5426 50.3274 52.5303 47.7924 52.5303C46.3401 52.5303 45.0021 53.1833 44.123 54.3231C43.9541 54.5412 43.6708 54.6317 43.4061 54.5532C43.1427 54.4747 42.9552 54.242 42.9339 53.968C42.8289 52.6127 42.1825 51.3825 41.1118 50.5047C40.0106 49.6016 38.6061 49.1986 37.1577 49.3715C34.9686 49.6335 33.1598 51.2894 32.7594 53.3988C32.6344 54.0558 32.6384 54.7128 32.7727 55.3552C32.8326 55.6465 32.6929 55.9417 32.4296 56.0787C32.1663 56.217 31.8444 56.1625 31.6383 55.947C31.069 55.3459 30.2963 55.016 29.4624 55.016C27.9076 55.016 26.6095 56.2011 26.5084 57.712C26.4951 57.9048 26.3994 58.083 26.2451 58.1987C26.0908 58.3144 25.8953 58.357 25.7038 58.3171C24.8553 58.1322 24.0533 58.1868 23.2499 58.482C21.5715 59.0991 20.3984 60.6526 20.3306 62.347C20.284 63.5107 20.707 64.6186 21.5209 65.4658C22.3655 66.345 23.5106 66.8278 24.7435 66.8278H36.4582C36.8253 66.8278 37.1232 67.1257 37.1232 67.4928C37.1232 67.8598 36.8253 68.1578 36.4582 68.1578H24.7462C23.1701 68.1578 21.646 67.5127 20.5633 66.3862C19.4967 65.2757 18.9434 63.822 19.0046 62.2938C19.0924 60.0674 20.6152 58.0338 22.7938 57.2332C23.6051 56.9352 24.443 56.8275 25.2942 56.9073C25.7517 55.0506 27.4607 53.6834 29.4637 53.6834C30.1194 53.6834 30.7631 53.8337 31.3443 54.113C31.3563 53.7911 31.3935 53.4692 31.4547 53.1474C31.9614 50.4754 34.2437 48.378 37.0008 48.0482C38.8096 47.834 40.5719 48.3381 41.9564 49.4739C42.9512 50.2892 43.6561 51.3479 44.0126 52.5356C45.0646 51.6738 46.3879 51.1963 47.7938 51.1963C51.0629 51.1963 53.7216 53.8044 53.7216 57.0124C53.7216 57.0576 53.7216 57.1028 53.7202 57.148C56.0664 57.8862 57.7142 60.0581 57.7142 62.5186C57.7142 65.6308 55.1367 68.1604 51.9673 68.1604ZM39.1222 68.1604H38.6447C38.2776 68.1604 37.9797 67.8625 37.9797 67.4954C37.9797 67.1283 38.2776 66.8304 38.6447 66.8304H39.1222C39.4892 66.8304 39.7872 67.1283 39.7872 67.4954C39.7872 67.8625 39.4906 68.1604 39.1222 68.1604Z" fill="#472B29"/>
<path d="M49.696 60.4412C49.6721 60.4412 49.6468 60.4385 49.6229 60.4332C49.4433 60.3933 49.3316 60.2137 49.3728 60.0355C49.4234 59.8134 49.4992 59.6006 49.5976 59.3984C50.4009 57.7705 52.6233 57.1707 54.5478 58.0591C54.7141 58.1363 54.7873 58.3344 54.7101 58.5007C54.6316 58.6669 54.4361 58.7401 54.2685 58.663C52.6712 57.9248 50.8398 58.3863 50.1948 59.6924C50.1176 59.8467 50.0604 60.0116 50.0219 60.1805C49.9859 60.3374 49.849 60.4412 49.696 60.4412Z" fill="#472B29"/>
<path d="M42.8355 68.1606H41.3632C40.9962 68.1606 40.6982 67.8627 40.6982 67.4956C40.6982 67.1285 40.9962 66.8306 41.3632 66.8306H42.8355C43.2026 66.8306 43.5005 67.1285 43.5005 67.4956C43.5005 67.8627 43.2026 68.1606 42.8355 68.1606Z" fill="#472B29"/>
</svg>
