<svg width="133" height="133" viewBox="0 0 133 133" fill="none" xmlns="http://www.w3.org/2000/svg">
<path d="M118.392 74.2021C118.791 73.3828 119.144 72.521 119.45 71.6179C122.952 61.2838 117.656 48.9042 106.505 45.9157C105.299 30.7763 94.6591 20.389 82.6439 18.6174C68.8904 16.5892 56.2913 25.3259 52.0991 39.2125C47.0464 37.4223 42.1228 37.6404 37.4824 40.3523C35.377 41.3258 33.4512 42.7622 31.7235 44.6522C29.1872 47.4265 27.538 50.9284 26.8663 54.6205C25.8715 54.7774 24.894 54.9344 23.9723 55.2642C18.5991 57.1914 15.2089 61.1574 14.2792 67.1318C13.7007 70.8518 14.8684 74.5625 15.5201 76.0614C18.0937 81.9866 24.0614 85.3448 30.1248 84.4564C30.4268 84.4125 30.8657 84.5482 31.125 84.7663C31.4455 94.2359 36.0433 102.611 42.9407 107.395C54.0077 115.072 68.2466 112.707 77.2295 102.18C81.0785 106.117 85.659 108.029 91.0402 107.335C96.3908 106.645 100.546 103.692 103.577 98.8909C104.977 99.2673 106.305 99.8099 107.677 99.9602C113.053 100.548 117.418 98.4107 120.621 93.5762C121.847 91.7262 123.005 89.3282 123.005 85.1254C123.007 80.7949 121.287 76.8488 118.392 74.2021Z" fill="#127B64" fill-opacity="0.2"/>
<path d="M107.992 47.8434C107.992 47.8434 121.316 47.8434 121.397 47.8434C124.474 47.8434 126.968 45.3027 126.968 42.169C126.968 39.4356 125.069 37.1538 122.542 36.6164C122.571 36.3773 122.591 36.1347 122.591 35.8875C122.591 32.6423 120.007 30.0111 116.82 30.0111C114.939 30.0111 113.273 30.9326 112.219 32.3521C111.95 28.739 108.781 25.9522 105.074 26.4142C102.362 26.7519 100.121 28.8864 99.6214 31.6209C99.4619 32.4984 99.4778 33.3491 99.6374 34.1477C98.9103 33.3503 97.8754 32.8489 96.7232 32.8489C94.6148 32.8489 92.8928 34.5214 92.7571 36.6338C91.7998 36.4179 90.7581 36.4318 89.6606 36.852C87.5636 37.654 86.0706 39.6643 85.9829 41.9438C85.8587 45.1809 88.399 47.8457 91.5502 47.8457C91.7896 47.8457 92.6306 47.8457 92.8244 47.8457H104.393" fill="#FDFCEF"/>
<path d="M120.846 48.8222H107.485C107.172 48.8222 106.917 48.5643 106.917 48.2465C106.917 47.9288 107.172 47.6709 107.485 47.6709H120.846C123.595 47.6709 125.832 45.404 125.832 42.6179C125.832 40.2393 124.167 38.1589 121.872 37.6731C121.583 37.6121 121.388 37.3369 121.424 37.0399C121.449 36.8257 121.469 36.6081 121.469 36.3871C121.469 33.4904 119.143 31.1337 116.285 31.1337C114.652 31.1337 113.145 31.897 112.152 33.2268C112.01 33.4179 111.764 33.4985 111.539 33.4317C111.312 33.3638 111.151 33.1623 111.133 32.924C111.015 31.3387 110.249 29.85 109.031 28.8381C107.801 27.8157 106.241 27.3633 104.647 27.5613C102.187 27.8664 100.154 29.7982 99.7018 32.2597C99.5609 33.0276 99.5655 33.7967 99.7165 34.5462C99.7665 34.7995 99.6461 35.055 99.4189 35.1725C99.1951 35.2899 98.9168 35.2415 98.743 35.0527C98.0899 34.3401 97.2061 33.9486 96.2553 33.9486C94.4742 33.9486 92.9861 35.3613 92.8702 37.1654C92.8589 37.3334 92.7771 37.4877 92.6442 37.5879C92.5124 37.688 92.3409 37.7237 92.1807 37.6892C91.2242 37.4739 90.3212 37.5372 89.417 37.8815C87.5211 38.6022 86.1954 40.4247 86.1193 42.4152C86.0659 43.8049 86.5589 45.1208 87.5074 46.1201C88.456 47.1206 89.7328 47.6709 91.1004 47.6709H103.902C104.216 47.6709 104.47 47.9288 104.47 48.2465C104.47 48.5643 104.216 48.8222 103.902 48.8222H91.1004C89.4204 48.8222 87.8539 48.1464 86.6884 46.9191C85.523 45.6918 84.9175 44.0766 84.9834 42.3703C85.0788 39.9227 86.6998 37.6857 89.0182 36.8038C89.9281 36.4585 90.8676 36.3456 91.8218 36.4596C92.25 34.362 94.0902 32.7962 96.2565 32.7962C97.0346 32.7962 97.7945 33.0034 98.4647 33.3834C98.4636 32.9401 98.5045 32.4934 98.5863 32.049C99.127 29.0994 101.561 26.783 104.509 26.418C106.412 26.182 108.28 26.7243 109.751 27.947C110.892 28.8945 111.702 30.1931 112.067 31.623C113.217 30.5684 114.701 29.9813 116.285 29.9813C119.769 29.9813 122.605 32.8549 122.605 36.3859C122.605 36.4815 122.602 36.577 122.597 36.6726C125.157 37.4463 126.968 39.8697 126.968 42.6179C126.968 46.0395 124.222 48.8222 120.846 48.8222Z" fill="#472B29"/>
<path d="M103.974 35.1611C101.951 35.0215 100.209 36.4865 100.085 38.4324C100.07 38.674 100.08 38.9121 100.113 39.1432C99.7228 38.681 99.1456 38.3678 98.4823 38.3221C97.2686 38.2388 96.2205 39.0786 96.0684 40.2222C95.848 40.1589 95.6176 40.1167 95.3793 40.1003C93.6097 39.9783 92.0862 41.2603 91.9766 42.9634" fill="#FDFCEF"/>
<path d="M92.2657 43.9398C92.2599 43.9398 92.2529 43.9398 92.246 43.9398C92.0862 43.9288 91.9658 43.7827 91.9773 43.6133C92.0989 41.6648 93.7989 40.1841 95.8069 40.3315C95.9644 40.3425 96.1218 40.3646 96.2805 40.3965C96.5966 39.2081 97.7257 38.3904 99.0192 38.4714C99.5044 38.5046 99.9699 38.6715 100.366 38.9429C100.367 38.9196 100.368 38.895 100.371 38.8717C100.51 36.6691 102.458 35.0104 104.704 35.1614C104.864 35.1725 104.984 35.3186 104.972 35.488C104.963 35.6562 104.846 35.7974 104.664 35.7741C102.743 35.6378 101.065 37.0485 100.946 38.9134C100.932 39.1418 100.941 39.3701 100.973 39.5899C100.992 39.725 100.926 39.8563 100.809 39.9153C100.692 39.9717 100.554 39.9423 100.469 39.8404C100.102 39.3996 99.5576 39.1246 98.9786 39.0841C97.8924 39.008 96.9243 39.7655 96.7865 40.8091C96.7738 40.8962 96.7275 40.9736 96.6592 41.0227C96.5897 41.0718 96.5017 41.0853 96.4241 41.0632C96.2052 41.0006 95.984 40.9601 95.7663 40.9453C94.093 40.8275 92.6548 42.0454 92.5529 43.6562C92.5436 43.8158 92.4174 43.9398 92.2657 43.9398Z" fill="#472B29"/>
<path d="M123.968 37.5877C121.748 36.5234 119.18 37.2768 118.232 39.2713C118.115 39.5185 118.027 39.775 117.97 40.0341" fill="#FDFCEF"/>
<path d="M118.265 40.0341C118.244 40.0341 118.222 40.0319 118.2 40.0276C118.041 39.995 117.941 39.8498 117.977 39.7035C118.035 39.4683 118.122 39.2385 118.238 39.0228C119.16 37.2658 121.653 36.5927 123.799 37.5237C123.946 37.5877 124.01 37.7492 123.94 37.8847C123.869 38.0213 123.693 38.0776 123.548 38.0148C121.692 37.2116 119.55 37.7698 118.768 39.2602C118.672 39.4401 118.599 39.6287 118.552 39.8238C118.522 39.9484 118.399 40.0341 118.265 40.0341Z" fill="#472B29"/>
<path d="M24.8457 63.6099H11.5058C11.1387 63.6099 10.8408 63.312 10.8408 62.9449C10.8408 62.5778 11.1387 62.2799 11.5058 62.2799H24.8457C25.2128 62.2799 25.5107 62.5778 25.5107 62.9449C25.5107 63.312 25.2128 63.6099 24.8457 63.6099ZM28.6775 63.6099H26.7556C26.3885 63.6099 26.0906 63.312 26.0906 62.9449C26.0906 62.5778 26.3885 62.2799 26.7556 62.2799H28.6775C29.0445 62.2799 29.3425 62.5778 29.3425 62.9449C29.3425 63.312 29.0445 63.6099 28.6775 63.6099ZM34.0706 63.6099H30.6844C30.3173 63.6099 30.0194 63.312 30.0194 62.9449C30.0194 62.5778 30.3173 62.2799 30.6844 62.2799H34.0706C34.4377 62.2799 34.7356 62.5778 34.7356 62.9449C34.7356 63.312 34.4377 63.6099 34.0706 63.6099ZM34.0706 66.0904H21.28C20.9129 66.0904 20.615 65.7924 20.615 65.4254C20.615 65.0583 20.9129 64.7604 21.28 64.7604H34.0693C34.4364 64.7604 34.7343 65.0583 34.7343 65.4254C34.7343 65.7924 34.4377 66.0904 34.0706 66.0904ZM18.9778 66.0904H18.2064C17.8393 66.0904 17.5414 65.7924 17.5414 65.4254C17.5414 65.0583 17.8393 64.7604 18.2064 64.7604H18.9778C19.3448 64.7604 19.6428 65.0583 19.6428 65.4254C19.6428 65.7924 19.3448 66.0904 18.9778 66.0904ZM15.8164 66.0904H13.8799C13.5128 66.0904 13.2149 65.7924 13.2149 65.4254C13.2149 65.0583 13.5128 64.7604 13.8799 64.7604H15.8164C16.1834 64.7604 16.4814 65.0583 16.4814 65.4254C16.4814 65.7924 16.1834 66.0904 15.8164 66.0904ZM27.9672 61.1295H21.28C20.9129 61.1295 20.615 60.8315 20.615 60.4645C20.615 60.0974 20.9129 59.7995 21.28 59.7995H27.9659C28.333 59.7995 28.6309 60.0974 28.6309 60.4645C28.6309 60.8315 28.3343 61.1295 27.9672 61.1295ZM27.9672 58.649H26.2954C25.9283 58.649 25.6304 58.3511 25.6304 57.984C25.6304 57.6169 25.9283 57.319 26.2954 57.319H27.9672C28.3343 57.319 28.6322 57.6169 28.6322 57.984C28.6322 58.3511 28.3343 58.649 27.9672 58.649ZM23.6195 68.5695H21.28C20.9129 68.5695 20.615 68.2715 20.615 67.9045C20.615 67.5374 20.9129 67.2395 21.28 67.2395H23.6195C23.9865 67.2395 24.2845 67.5374 24.2845 67.9045C24.2845 68.2715 23.9879 68.5695 23.6195 68.5695ZM95.5725 28.6615H82.2326C81.8655 28.6615 81.5676 28.3636 81.5676 27.9965C81.5676 27.6294 81.8655 27.3315 82.2326 27.3315H95.5725C95.9395 27.3315 96.2375 27.6294 96.2375 27.9965C96.2375 28.3636 95.9395 28.6615 95.5725 28.6615ZM99.4042 28.6615H97.4823C97.1153 28.6615 96.8173 28.3636 96.8173 27.9965C96.8173 27.6294 97.1153 27.3315 97.4823 27.3315H99.4042C99.7713 27.3315 100.069 27.6294 100.069 27.9965C100.069 28.3636 99.7713 28.6615 99.4042 28.6615ZM104.796 28.6615H101.41C101.043 28.6615 100.745 28.3636 100.745 27.9965C100.745 27.6294 101.043 27.3315 101.41 27.3315H104.796C105.163 27.3315 105.461 27.6294 105.461 27.9965C105.461 28.3636 105.164 28.6615 104.796 28.6615ZM102.103 23.7006H89.3135C88.9464 23.7006 88.6485 23.4027 88.6485 23.0356C88.6485 22.6685 88.9464 22.3706 89.3135 22.3706H102.103C102.47 22.3706 102.768 22.6685 102.768 23.0356C102.768 23.4027 102.47 23.7006 102.103 23.7006ZM87.0099 23.7006H86.2385C85.8714 23.7006 85.5735 23.4027 85.5735 23.0356C85.5735 22.6685 85.8714 22.3706 86.2385 22.3706H87.0099C87.377 22.3706 87.6749 22.6685 87.6749 23.0356C87.6749 23.4027 87.3783 23.7006 87.0099 23.7006ZM83.8485 23.7006H81.912C81.545 23.7006 81.247 23.4027 81.247 23.0356C81.247 22.6685 81.545 22.3706 81.912 22.3706H83.8485C84.2156 22.3706 84.5135 22.6685 84.5135 23.0356C84.5135 23.4027 84.2169 23.7006 83.8485 23.7006ZM98.6926 26.1811H92.0067C91.6397 26.1811 91.3417 25.8831 91.3417 25.5161C91.3417 25.149 91.6397 24.8511 92.0067 24.8511H98.6926C99.0597 24.8511 99.3576 25.149 99.3576 25.5161C99.3576 25.8831 99.0611 26.1811 98.6926 26.1811Z" fill="white"/>
<path d="M96.6929 20.7712H95.0211C94.654 20.7712 94.3561 20.4732 94.3561 20.1062C94.3561 19.7391 94.654 19.4412 95.0211 19.4412H96.6929C97.06 19.4412 97.3579 19.7391 97.3579 20.1062C97.3579 20.4732 97.0613 20.7712 96.6929 20.7712ZM88.0718 23.2516H85.7324C85.3653 23.2516 85.0674 22.9537 85.0674 22.5866C85.0674 22.2195 85.3653 21.9216 85.7324 21.9216H88.0718C88.4389 21.9216 88.7368 22.2195 88.7368 22.5866C88.7368 22.9537 88.4389 23.2516 88.0718 23.2516Z" fill="white"/>
<path d="M43.8706 102.526C45.9469 102.526 47.7486 102.526 47.774 102.526C50.1006 102.526 51.9872 100.679 51.9872 98.3997C51.9872 96.4108 50.5516 94.7519 48.6407 94.3601C48.6627 94.1857 48.6782 94.0102 48.6782 93.8303C48.6782 91.4695 46.7243 89.5557 44.315 89.5557C42.8926 89.5557 41.6322 90.2257 40.8361 91.2587C40.6321 88.6308 38.2361 86.6033 35.4332 86.9399C33.3833 87.1861 31.6875 88.7379 31.3104 90.7267C31.1891 91.3647 31.2023 91.9838 31.3225 92.5644C30.7734 91.9849 29.9905 91.6196 29.1194 91.6196C27.525 91.6196 26.2227 92.8359 26.1202 94.3723C25.3958 94.2155 24.6085 94.2255 23.7793 94.5301C22.1937 95.1128 21.0646 96.5752 20.9984 98.2341C20.9047 100.588 22.8255 102.526 25.2083 102.526C25.3891 102.526 26.0254 102.526 26.172 102.526H34.9204H43.8706ZM36.7288 102.526H37.1257H36.7288Z" fill="#FDFCEF"/>
<path d="M48.0896 103.503H44.0776C43.7648 103.503 43.5109 103.258 43.5109 102.955C43.5109 102.653 43.7648 102.408 44.0776 102.408H48.0896C50.1647 102.408 51.8534 100.817 51.8534 98.8607C51.8534 97.1917 50.5976 95.7319 48.8648 95.3892C48.5735 95.3322 48.3786 95.0672 48.416 94.7825C48.4364 94.6325 48.45 94.4813 48.45 94.3269C48.45 92.29 46.6922 90.6331 44.5321 90.6331C43.2933 90.6331 42.1532 91.1719 41.4041 92.1093C41.2613 92.2889 41.0165 92.3645 40.7943 92.2999C40.5699 92.2353 40.409 92.0436 40.392 91.818C40.3025 90.7021 39.7517 89.6902 38.8393 88.9675C37.9009 88.2228 36.7019 87.8899 35.4699 88.0333C33.6045 88.2491 32.0632 89.6125 31.722 91.3493C31.6144 91.8903 31.6189 92.4313 31.7322 92.9602C31.7844 93.2001 31.6642 93.4432 31.4398 93.556C31.2177 93.6699 30.9423 93.626 30.7655 93.4475C30.2804 92.9526 29.622 92.681 28.9125 92.681C27.5865 92.681 26.4804 93.6567 26.3954 94.9019C26.384 95.0606 26.3024 95.2074 26.171 95.3027C26.0406 95.3979 25.8718 95.4341 25.7108 95.4001C24.9844 95.2468 24.3032 95.2928 23.6176 95.5359C22.1873 96.044 21.1877 97.3231 21.1322 98.7183C21.0925 99.6765 21.4518 100.589 22.1465 101.286C22.8662 102.01 23.8408 102.408 24.8926 102.408H34.875C35.1878 102.408 35.4416 102.653 35.4416 102.955C35.4416 103.258 35.1878 103.503 34.875 103.503H24.8926C23.5496 103.503 22.2508 102.972 21.3294 102.044C20.4193 101.13 19.9479 99.9328 19.9989 98.6734C20.0737 96.8402 21.3725 95.1658 23.2277 94.5065C23.9202 94.2601 24.6387 94.1714 25.3595 94.2382C25.7494 92.7094 27.2057 91.5837 28.9136 91.5837C29.4724 91.5837 30.0209 91.7074 30.515 91.9374C30.5252 91.6724 30.557 91.4074 30.6091 91.1423C31.0409 88.9423 32.9846 87.2164 35.3351 86.9437C36.8809 86.7652 38.3792 87.1824 39.559 88.1187C40.4056 88.79 41.0063 89.6618 41.3111 90.6386C42.2076 89.929 43.3341 89.5358 44.5332 89.5358C47.3189 89.5358 49.5844 91.6844 49.5844 94.3247C49.5844 94.362 49.5833 94.3992 49.5822 94.4375C51.5825 95.0453 52.9867 96.8336 52.9867 98.8596C52.9878 101.42 50.7903 103.503 48.0896 103.503ZM37.1439 103.503H36.737C36.4242 103.503 36.1703 103.258 36.1703 102.955C36.1703 102.653 36.4242 102.408 36.737 102.408H37.1439C37.4567 102.408 37.7105 102.653 37.7105 102.955C37.7105 103.258 37.4578 103.503 37.1439 103.503Z" fill="#472B29"/>
<path d="M45.6779 97.0492C45.6574 97.0492 45.6369 97.047 45.6154 97.0425C45.462 97.0092 45.3654 96.8602 45.4006 96.7101C45.4438 96.5244 45.5086 96.3442 45.5938 96.1763C46.28 94.8176 48.1752 94.3161 49.8216 95.0577C49.9648 95.1222 50.0273 95.2879 49.9602 95.4269C49.8943 95.5659 49.7239 95.627 49.5842 95.5625C48.2139 94.9443 46.6527 95.3302 46.1039 96.4232C46.038 96.5511 45.988 96.6889 45.9562 96.8313C45.9255 96.9614 45.8085 97.0492 45.6779 97.0492ZM39.8161 103.503H38.5583C38.2447 103.503 37.9902 103.254 37.9902 102.947C37.9902 102.64 38.2447 102.391 38.5583 102.391H39.8161C40.1297 102.391 40.3842 102.64 40.3842 102.947C40.3842 103.254 40.1309 103.503 39.8161 103.503Z" fill="#472B29"/>
<path d="M76.518 82.2491C76.518 82.2491 99.0318 82.2491 99.1694 82.2491C104.369 82.2491 108.583 78.1327 108.583 73.0546C108.583 68.6243 105.375 64.9271 101.104 64.0559C101.153 63.6678 101.187 63.2752 101.187 62.8745C101.187 57.6153 96.8216 53.3512 91.4368 53.3512C88.2578 53.3512 85.442 54.8443 83.6625 57.144C83.2074 51.2896 77.853 46.7725 71.5884 47.5213C67.0075 48.0682 63.2191 51.5271 62.3758 55.9582C62.1053 57.3793 62.1334 58.7596 62.4031 60.0538C61.1753 58.7618 59.4269 57.9485 57.4796 57.9485C53.9161 57.9485 51.0075 60.6579 50.7781 64.0819C49.1604 63.7324 47.4 63.7554 45.546 64.4344C42.0031 65.733 39.4798 68.9923 39.3316 72.6857C39.1219 77.9316 43.414 82.2491 48.738 82.2491C49.1422 82.2491 50.563 82.2491 50.8913 82.2491H70.4396" fill="#96E2EE"/>
<path d="M99.1684 82.9912H76.5178C76.0984 82.9912 75.758 82.6588 75.758 82.2491C75.758 81.8395 76.0984 81.507 76.5178 81.507H99.1691C103.941 81.507 107.823 77.7149 107.823 73.0538C107.823 69.0732 104.932 65.5943 100.949 64.7817C100.562 64.703 100.301 64.3475 100.35 63.9639C100.402 63.5476 100.427 63.201 100.427 62.8737C100.427 58.0316 96.3943 54.0925 91.4366 54.0925C88.6017 54.0925 85.9888 55.3674 84.2686 57.5908C84.0786 57.8371 83.7511 57.9418 83.448 57.8549C83.1448 57.7681 82.9283 57.5069 82.9047 57.1989C82.6988 54.5548 81.3737 52.071 79.2675 50.3857C77.1401 48.6826 74.4428 47.9257 71.6801 48.2567C67.4221 48.765 63.9035 51.9872 63.1224 56.0925C62.8785 57.3726 62.8869 58.6549 63.1467 59.9046C63.2143 60.2304 63.0517 60.5606 62.7493 60.7128C62.4454 60.8649 62.0769 60.8018 61.8452 60.5577C60.7001 59.3532 59.1494 58.6898 57.4786 58.6898C54.3504 58.6898 51.7397 61.0793 51.5354 64.1301C51.5202 64.3461 51.41 64.5457 51.233 64.6748C51.0559 64.8054 50.8295 64.8529 50.613 64.8062C48.9778 64.4514 47.3617 64.5605 45.8125 65.129C42.5225 66.3356 40.2226 69.3834 40.0896 72.7147C39.9969 75.0397 40.8525 77.2407 42.499 78.9134C44.1462 80.5861 46.3618 81.5078 48.737 81.5078H70.4386C70.858 81.5078 71.1984 81.8402 71.1984 82.2499C71.1984 82.6595 70.858 82.992 70.4386 82.992H48.7378C45.9447 82.992 43.3401 81.9092 41.4041 79.9427C39.4689 77.9769 38.4621 75.3899 38.5715 72.6575C38.7281 68.737 41.4231 65.1542 45.2776 63.7405C46.8474 63.1654 48.4749 62.9895 50.1214 63.2136C50.755 59.7859 53.8376 57.2071 57.4786 57.2071C58.8819 57.2071 60.2534 57.6004 61.4318 58.3188C61.4045 57.4906 61.4698 56.6565 61.6279 55.8238C62.529 51.0885 66.5864 47.3721 71.4947 46.7858C74.6768 46.4037 77.7783 47.2771 80.2302 49.2407C82.2194 50.8332 83.6045 53.0447 84.1683 55.4698C86.1126 53.6361 88.6838 52.6105 91.4351 52.6105C97.2301 52.6105 101.945 57.216 101.945 62.876C101.945 63.0741 101.938 63.276 101.923 63.4897C106.261 64.68 109.342 68.6012 109.342 73.056C109.342 78.5335 104.778 82.9912 99.1684 82.9912Z" fill="#1F212B"/>
<path d="M50.4084 74.8756C50.4 74.8756 50.3917 74.8756 50.3825 74.8749C50.1736 74.8608 50.0148 74.6841 50.0292 74.4793C50.2306 71.5495 53.035 69.3358 56.2908 69.5436C56.578 69.5622 56.8682 69.6008 57.1577 69.6594C57.6357 67.8361 59.5238 66.5611 61.633 66.6932C62.4984 66.7489 63.3046 67.0287 63.9762 67.4969C63.9778 67.4034 63.9816 67.3092 63.9884 67.2157C64.2163 63.8963 67.3916 61.3924 71.0865 61.624C71.2954 61.6373 71.4542 61.814 71.4406 62.0188C71.4261 62.2236 71.2453 62.3757 71.0364 62.3646C67.7578 62.1509 64.9457 64.3542 64.7459 67.2654C64.7216 67.6186 64.7368 67.9748 64.7915 68.3244C64.8173 68.4869 64.7292 68.6464 64.5772 68.7162C64.4253 68.7852 64.2437 68.7496 64.132 68.6264C63.493 67.9214 62.5873 67.4984 61.5836 67.4339C59.713 67.3107 58.0649 68.5121 57.8302 70.1611C57.815 70.2672 57.7542 70.3614 57.663 70.42C57.5718 70.4787 57.4586 70.4965 57.3538 70.4683C56.9837 70.3696 56.6092 70.308 56.2414 70.2842C53.4058 70.1032 50.9608 72.0074 50.7875 74.5298C50.7738 74.725 50.6067 74.8756 50.4084 74.8756ZM94.1413 68.9655C94.1132 68.9655 94.0851 68.9626 94.0562 68.9559C93.8518 68.9099 93.7234 68.711 93.7705 68.5114C93.864 68.1114 94.0038 67.7225 94.1854 67.3537C95.6693 64.3527 99.6864 63.2054 103.142 64.7964C103.332 64.884 103.412 65.1052 103.324 65.2907C103.235 65.4762 103.008 65.5556 102.818 65.468C99.7388 64.0514 96.173 65.0413 94.8699 67.6765C94.7127 67.9949 94.5919 68.331 94.5113 68.6769C94.4711 68.849 94.3145 68.9655 94.1413 68.9655Z" fill="#1F212B"/>
<path d="M66.9865 90.744L73.055 96.8989C73.1105 96.9575 73.1743 96.9976 73.2412 97.0303C73.2655 97.0429 73.2898 97.0533 73.3157 97.0637C73.359 97.0785 73.4038 97.0867 73.4486 97.0926C73.4813 97.0978 73.5109 97.1134 73.5451 97.1134C73.5808 97.1134 73.612 97.0971 73.6469 97.0919C73.65 97.0911 73.6523 97.0919 73.6553 97.0911C73.868 97.1275 74.0914 97.0718 74.2548 96.8997L80.1364 90.6787C80.4062 90.3937 80.4062 89.9269 80.1364 89.642C79.8667 89.357 79.426 89.357 79.1563 89.642L74.2388 94.8433V72.1827C74.2388 71.7797 73.9265 71.4495 73.5459 71.4495C73.1645 71.4495 72.8529 71.7797 72.7192 72.1827V94.6096L67.9666 89.7073C67.6969 89.4223 67.2562 89.4223 66.9865 89.7073C66.7167 89.9922 66.7167 90.459 66.9865 90.744Z" fill="#FEF6AA"/>
<path d="M73.5444 71.4494C73.9258 71.4494 74.2373 71.7796 74.2373 72.1826V94.8425L79.1548 89.6411C79.2892 89.4986 79.467 89.4274 79.6448 89.4274C79.8226 89.4274 80.0004 89.4986 80.1349 89.6411C80.4046 89.9261 80.4046 90.3929 80.1349 90.6778L74.2533 96.8988C74.1218 97.0383 73.9501 97.1007 73.7776 97.1007C73.7366 97.1007 73.6948 97.097 73.6538 97.0903C73.6507 97.091 73.6484 97.0903 73.6454 97.091C73.6105 97.097 73.5793 97.1126 73.5436 97.1126C73.5094 97.1126 73.4805 97.097 73.4471 97.0918C73.4023 97.0866 73.3574 97.0777 73.3141 97.0628C73.2883 97.0532 73.264 97.0428 73.2397 97.0294C73.1728 96.9968 73.109 96.9567 73.0535 96.8981L66.9849 90.7431C66.7152 90.4582 66.7152 89.9914 66.9849 89.7064C67.1194 89.5639 67.2972 89.4927 67.475 89.4927C67.6528 89.4927 67.8306 89.5639 67.9651 89.7064L72.7162 94.6087V72.1826C72.8514 71.7789 73.1629 71.4494 73.5444 71.4494ZM73.5444 70.7073C72.8537 70.7073 72.2451 71.1971 71.9951 71.9547C71.9708 72.0282 71.9586 72.1054 71.9586 72.1826V92.7461L68.519 89.1966C68.2538 88.9161 67.8716 88.7506 67.4773 88.7506C67.083 88.7506 66.7008 88.9154 66.4288 89.2033C65.887 89.7762 65.887 90.6741 66.4288 91.247L72.5087 97.4131C72.609 97.52 72.742 97.615 72.9023 97.6936C72.9335 97.7107 72.9851 97.7337 73.0406 97.7545C73.1348 97.7864 73.2146 97.8064 73.2967 97.8198C73.3514 97.8346 73.438 97.8539 73.5451 97.8539C73.6044 97.8539 73.6576 97.848 73.7024 97.8398C73.7275 97.8413 73.7533 97.842 73.7784 97.842C74.1765 97.842 74.5443 97.6854 74.8125 97.4012L80.6941 91.1802C81.2359 90.6073 81.2359 89.7094 80.6941 89.1365C80.4221 88.8486 80.0399 88.6838 79.6456 88.6838C79.2513 88.6838 78.8691 88.8486 78.5971 89.1365L74.9979 92.9435V72.1826C74.9979 71.3692 74.346 70.7073 73.5444 70.7073Z" fill="#1F212B"/>
</svg>
