<svg width="132" height="132" viewBox="0 0 132 132" fill="none" xmlns="http://www.w3.org/2000/svg">
<path d="M114.306 74.3253C115.794 71.5009 116.646 68.2899 116.646 64.8757C116.646 56.1981 111.195 48.8114 103.538 45.9005C103.538 45.8914 103.539 45.8822 103.539 45.8717C103.539 30.6711 91.217 18.3486 76.0164 18.3486C63.1933 18.3486 52.4501 27.1311 49.3937 39.0001C47.4592 38.3645 45.3976 38.008 43.2508 38.008C33.1695 38.008 24.872 45.6004 23.7357 55.3763C16.9152 56.8193 11.7959 62.8692 11.7959 70.1182C11.7959 78.442 18.5443 85.1904 26.8681 85.1904C27.1 85.1904 27.3294 85.1747 27.5574 85.1616C27.5522 85.3909 27.5234 85.615 27.5234 85.8457C27.5234 100.685 39.5523 112.713 54.3911 112.713C62.8276 112.713 70.3479 108.818 75.2746 102.734C78.1291 105.651 82.0977 107.471 86.5014 107.471C92.5958 107.471 97.8697 103.998 100.48 98.9283C101.859 99.3674 103.326 99.6072 104.85 99.6072C112.812 99.6072 119.267 93.1524 119.267 85.1904C119.267 80.8509 117.34 76.9688 114.306 74.3253Z" fill="#127B64" fill-opacity="0.2"/>
<path d="M43.0869 105.505C43.0869 105.505 47.8576 105.505 51.1145 105.505C54.3714 105.505 57.0123 102.864 57.0123 99.6074C57.0123 96.5497 54.6767 94.0648 51.6977 93.7686C51.7265 93.5313 51.7698 93.2994 51.7698 93.0543C51.7698 89.7974 49.1289 87.1565 45.872 87.1565C43.9873 87.1565 42.3294 88.0556 41.2494 89.4317C41.0659 85.9769 38.2324 83.2246 34.7317 83.2246C31.1131 83.2246 28.1786 86.1591 28.1786 89.7777C28.1786 90.3623 28.2795 90.918 28.4237 91.4579C27.5822 90.4396 26.3253 89.7777 24.902 89.7777C22.5678 89.7777 20.6635 91.5274 20.3738 93.7817C20.1366 93.7528 19.9046 93.7096 19.6595 93.7096C16.4026 93.7096 13.7617 96.3505 13.7617 99.6074C13.7617 102.864 16.4026 105.505 19.6595 105.505C22.9164 105.505 32.1104 105.505 32.1104 105.505H39.155V106.16H43.0869V105.505Z" fill="#FDFCEF"/>
<path d="M34.7317 82.5693C30.7566 82.5693 27.5233 85.8026 27.5233 89.7778C27.5233 89.7987 27.5233 89.8184 27.5233 89.8394C26.7343 89.3741 25.8326 89.1224 24.902 89.1224C22.5023 89.1224 20.4315 90.7751 19.8457 93.0609C19.7841 93.0569 19.7225 93.0543 19.6596 93.0543C16.0462 93.0543 13.1064 95.994 13.1064 99.6074C13.1064 103.221 16.0462 106.161 19.6596 106.161H39.1551C39.5168 106.161 39.8104 105.867 39.8104 105.505C39.8104 105.143 39.5168 104.85 39.1551 104.85H19.6596C16.7683 104.85 14.4171 102.499 14.4171 99.6074C14.4171 96.7162 16.7683 94.3649 19.6596 94.3649C19.8129 94.3649 19.961 94.3872 20.1091 94.4069L20.2939 94.4318C20.3214 94.4357 20.3476 94.437 20.3752 94.437C20.6976 94.437 20.9807 94.1945 21.0239 93.8643C21.2742 91.9075 22.9414 90.4331 24.902 90.4331C26.0619 90.4331 27.1602 90.9586 27.9178 91.8748C28.0462 92.0294 28.2336 92.1133 28.4237 92.1133C28.5259 92.1133 28.6281 92.0897 28.7225 92.0399C28.9964 91.8997 29.134 91.5864 29.0554 91.2889C28.9047 90.7188 28.8339 90.2391 28.8339 89.7778C28.8339 86.5261 31.4801 83.88 34.7317 83.88C37.8523 83.88 40.429 86.3334 40.5954 89.4671C40.6099 89.7398 40.792 89.9743 41.0528 90.0569C41.1184 90.0779 41.1852 90.0884 41.2521 90.0884C41.4486 90.0884 41.64 89.9979 41.7658 89.8367C42.7763 88.5497 44.2717 87.8118 45.872 87.8118C48.7632 87.8118 51.1145 90.1631 51.1145 93.0543C51.1145 93.2077 51.0922 93.3558 51.0725 93.5039L51.0476 93.6887C51.0267 93.8643 51.0765 94.0399 51.1866 94.1775C51.2967 94.3151 51.4579 94.4029 51.6322 94.42C54.3268 94.6887 56.357 96.9193 56.357 99.6074C56.357 102.499 54.0057 104.85 51.1145 104.85H43.0869C42.7252 104.85 42.4316 105.143 42.4316 105.505C42.4316 105.867 42.7252 106.161 43.0869 106.161H51.1145C54.7279 106.161 57.6676 103.221 57.6676 99.6074C57.6676 96.4659 55.454 93.8237 52.4212 93.2155C52.4238 93.1618 52.4251 93.108 52.4251 93.0543C52.4251 89.4409 49.4854 86.5012 45.872 86.5012C44.3307 86.5012 42.8667 87.0464 41.7003 88.0268C40.9165 84.876 38.0803 82.5693 34.7317 82.5693Z" fill="#472B29"/>
<path d="M32.7656 91.7437C30.9268 91.7437 29.3462 93.053 28.9478 94.8118C28.4668 94.5209 27.9176 94.3649 27.3593 94.3649C25.7839 94.3649 24.4786 95.5405 24.2754 97.0753C24.0094 97.015 23.7564 96.9861 23.5087 96.9861C21.5048 96.9861 19.8245 98.5589 19.6843 100.567C19.6725 100.748 19.8088 100.905 19.9884 100.918C19.9962 100.918 20.0041 100.918 20.012 100.918C20.1823 100.918 20.3265 100.786 20.3383 100.614C20.455 98.9481 21.8468 97.6415 23.5087 97.6415C23.8088 97.6415 24.1247 97.6952 24.4759 97.8079C24.5048 97.8171 24.5349 97.821 24.5638 97.821C24.6358 97.821 24.7079 97.7948 24.7682 97.7502C24.8521 97.6899 24.9019 97.5825 24.9019 97.4776C24.9019 96.1224 26.0041 95.0202 27.3593 95.0202C27.9452 95.0202 28.5192 95.2404 28.9727 95.6401C29.0343 95.6939 29.1116 95.7227 29.1889 95.7227C29.2309 95.7227 29.2715 95.7148 29.3108 95.6978C29.4262 95.6519 29.5048 95.5445 29.514 95.42C29.6503 93.7253 31.0775 92.399 32.7656 92.399C33.0382 92.399 33.3226 92.4435 33.6595 92.5392C33.6896 92.5484 33.7211 92.5523 33.7512 92.5523C33.8941 92.5523 34.0225 92.4566 34.0645 92.3138C34.1143 92.1395 34.0133 91.9586 33.839 91.9088C33.4432 91.7961 33.1011 91.7437 32.7656 91.7437Z" fill="#472B29"/>
<path d="M50.9611 93.7095C49.2232 93.7095 47.674 94.8851 47.1944 96.5692C47.1446 96.7436 47.2455 96.9244 47.4198 96.9742C47.4512 96.9821 47.4814 96.986 47.5102 96.986C47.6531 96.986 47.7841 96.8917 47.8248 96.7475C48.2245 95.3451 49.5142 94.3648 50.9611 94.3648C51.1144 94.3648 51.2625 94.3831 51.4093 94.4028C51.425 94.4054 51.4395 94.4067 51.4552 94.4067C51.6138 94.4067 51.7553 94.2861 51.7776 94.1223C51.8025 93.9428 51.6767 93.7776 51.4971 93.754C51.3215 93.7304 51.1433 93.7095 50.9611 93.7095Z" fill="#472B29"/>
<path d="M21.5013 61.5992H8.51957C8.15784 61.5992 7.86426 61.3056 7.86426 60.9439C7.86426 60.5822 8.15784 60.2886 8.51957 60.2886H21.5013C21.863 60.2886 22.1566 60.5822 22.1566 60.9439C22.1566 61.3056 21.8643 61.5992 21.5013 61.5992Z" fill="white"/>
<path d="M25.5568 61.5992H24.2461C23.8844 61.5992 23.5908 61.3056 23.5908 60.9439C23.5908 60.5822 23.8844 60.2886 24.2461 60.2886H25.5568C25.9185 60.2886 26.2121 60.5822 26.2121 60.9439C26.2121 61.3056 25.9198 61.5992 25.5568 61.5992Z" fill="white"/>
<path d="M32.0983 64.2205H20.3145C19.9528 64.2205 19.6592 63.927 19.6592 63.5652C19.6592 63.2035 19.9528 62.9099 20.3145 62.9099H32.0983C32.46 62.9099 32.7536 63.2035 32.7536 63.5652C32.7536 63.927 32.46 64.2205 32.0983 64.2205Z" fill="white"/>
<path d="M17.6935 64.2205H16.3829C16.0211 64.2205 15.7275 63.927 15.7275 63.5652C15.7275 63.2035 16.0211 62.9099 16.3829 62.9099H17.6935C18.0552 62.9099 18.3488 63.2035 18.3488 63.5652C18.3488 63.927 18.0565 64.2205 17.6935 64.2205Z" fill="white"/>
<path d="M13.7619 64.2205H11.1407C10.7789 64.2205 10.4854 63.927 10.4854 63.5652C10.4854 63.2035 10.7789 62.9099 11.1407 62.9099H13.7619C14.1236 62.9099 14.4172 63.2035 14.4172 63.5652C14.4172 63.927 14.125 64.2205 13.7619 64.2205Z" fill="white"/>
<path d="M21.6252 66.8419H19.0039C18.6422 66.8419 18.3486 66.5483 18.3486 66.1866C18.3486 65.8248 18.6422 65.5312 19.0039 65.5312H21.6252C21.9869 65.5312 22.2805 65.8248 22.2805 66.1866C22.2805 66.5483 21.9869 66.8419 21.6252 66.8419Z" fill="white"/>
<path d="M25.5568 55.0461C25.3248 55.0461 24.4781 55.0461 24.2461 55.0461C23.8844 55.0461 23.5908 55.3397 23.5908 55.7015C23.5908 56.0632 23.8844 56.3568 24.2461 56.3568C24.4781 56.3568 25.3248 56.3568 25.5568 56.3568C25.9185 56.3568 26.2121 56.0632 26.2121 55.7015C26.2121 55.3397 25.9185 55.0461 25.5568 55.0461Z" fill="white"/>
<path d="M25.5571 57.6675C25.3251 57.6675 19.2359 57.6675 19.0039 57.6675C18.6422 57.6675 18.3486 57.9611 18.3486 58.3228C18.3486 58.6845 18.6422 58.9781 19.0039 58.9781C19.2359 58.9781 25.3251 58.9781 25.5571 58.9781C25.9188 58.9781 26.2124 58.6845 26.2124 58.3228C26.2124 57.9611 25.9188 57.6675 25.5571 57.6675Z" fill="white"/>
<path d="M32.1106 60.2886C31.8786 60.2886 28.4107 60.2886 28.1787 60.2886C27.817 60.2886 27.5234 60.5822 27.5234 60.9439C27.5234 61.3056 27.817 61.5992 28.1787 61.5992C28.4107 61.5992 31.8786 61.5992 32.1106 61.5992C32.4723 61.5992 32.7659 61.3056 32.7659 60.9439C32.7659 60.5822 32.4723 60.2886 32.1106 60.2886Z" fill="white"/>
<path d="M113.369 87.8118H100.263C99.901 87.8118 99.6074 87.5183 99.6074 87.1565C99.6074 86.7948 99.901 86.5012 100.263 86.5012H113.369C113.731 86.5012 114.024 86.7948 114.024 87.1565C114.024 87.5183 113.731 87.8118 113.369 87.8118Z" fill="white"/>
<path d="M118.612 87.8118H115.99C115.629 87.8118 115.335 87.5183 115.335 87.1565C115.335 86.7948 115.629 86.5012 115.99 86.5012H118.612C118.973 86.5012 119.267 86.7948 119.267 87.1565C119.267 87.5183 118.973 87.8118 118.612 87.8118Z" fill="white"/>
<path d="M125.165 90.4329H112.059C111.697 90.4329 111.403 90.1394 111.403 89.7776C111.403 89.4159 111.697 89.1223 112.059 89.1223H125.165C125.527 89.1223 125.82 89.4159 125.82 89.7776C125.82 90.1394 125.528 90.4329 125.165 90.4329Z" fill="white"/>
<path d="M109.437 90.4329H108.126C107.764 90.4329 107.471 90.1394 107.471 89.7776C107.471 89.4159 107.764 89.1223 108.126 89.1223H109.437C109.798 89.1223 110.092 89.4159 110.092 89.7776C110.092 90.1394 109.798 90.4329 109.437 90.4329Z" fill="white"/>
<path d="M105.341 90.4329H102.884C102.522 90.4329 102.229 90.1394 102.229 89.7776C102.229 89.4159 102.522 89.1223 102.884 89.1223H105.341C105.703 89.1223 105.997 89.4159 105.997 89.7776C105.997 90.1394 105.703 90.4329 105.341 90.4329Z" fill="white"/>
<path d="M117.301 85.1905H110.748C110.386 85.1905 110.093 84.8969 110.093 84.5352C110.093 84.1735 110.386 83.8799 110.748 83.8799H117.301C117.663 83.8799 117.956 84.1735 117.956 84.5352C117.956 84.8969 117.664 85.1905 117.301 85.1905Z" fill="white"/>
<path d="M113.369 93.0543H110.748C110.386 93.0543 110.093 92.7607 110.093 92.399C110.093 92.0372 110.386 91.7437 110.748 91.7437H113.369C113.731 91.7437 114.025 92.0372 114.025 92.399C114.025 92.7607 113.731 93.0543 113.369 93.0543Z" fill="white"/>
<path d="M117.301 58.3225C117.301 58.3225 119.355 58.3225 121.888 58.3225C124.422 58.3225 126.476 56.2688 126.476 53.7353C126.476 51.4011 124.726 49.4968 122.472 49.2071C122.508 48.9725 122.544 48.7379 122.544 48.4928C122.544 45.9594 120.49 43.9057 117.956 43.9057C116.604 43.9057 115.401 44.502 114.562 45.4325C114.059 43.0629 111.958 41.2844 109.437 41.2844C106.542 41.2844 104.195 43.6317 104.195 46.5269C104.195 46.7772 104.234 47.0171 104.268 47.2582C103.707 46.8074 103.005 46.5269 102.229 46.5269C100.62 46.5269 99.2867 47.6894 99.0114 49.2202C98.7768 49.1835 98.5422 49.1482 98.2971 49.1482C95.7637 49.1482 93.71 51.2019 93.71 53.7353C93.71 56.2688 95.7637 58.3225 98.2971 58.3225C100.831 58.3225 108.127 58.3225 108.127 58.3225V58.9778H117.301V58.3225Z" fill="#FDFCEF"/>
<path d="M119.595 52.4248C119.414 52.4248 119.268 52.278 119.268 52.0971C119.268 50.4943 120.572 49.1902 122.175 49.1902C122.219 49.202 123.14 49.1889 123.805 49.3684C123.979 49.4156 124.083 49.5952 124.036 49.7695C123.988 49.9451 123.809 50.0486 123.635 50.0001C123.053 49.8429 122.193 49.8429 122.176 49.8455C120.933 49.8455 119.923 50.856 119.923 52.0971C119.923 52.278 119.776 52.4248 119.595 52.4248Z" fill="#472B29"/>
<path d="M110.748 58.9779C111.11 58.9779 111.403 58.6845 111.403 58.3225C111.403 57.9606 111.11 57.6672 110.748 57.6672C110.386 57.6672 110.093 57.9606 110.093 58.3225C110.093 58.6845 110.386 58.9779 110.748 58.9779Z" fill="#472B29"/>
<path d="M121.888 58.9779H117.301C116.939 58.9779 116.646 58.6843 116.646 58.3225C116.646 57.9608 116.939 57.6672 117.301 57.6672H121.888C124.056 57.6672 125.82 55.9031 125.82 53.7354C125.82 51.7747 124.346 50.1076 122.389 49.8572C122.213 49.8336 122.055 49.7419 121.949 49.6004C121.842 49.4588 121.798 49.2806 121.825 49.1063C121.856 48.9044 121.888 48.7026 121.888 48.4929C121.888 46.3251 120.124 44.561 117.957 44.561C116.842 44.561 115.81 45.0263 115.048 45.8716C114.884 46.0538 114.628 46.1311 114.393 46.0656C114.154 46.0014 113.972 45.81 113.921 45.5689C113.474 43.4666 111.588 41.9398 109.437 41.9398C106.908 41.9398 104.85 43.9974 104.85 46.5269C104.85 46.7144 104.878 46.8939 104.904 47.0748C104.942 47.3408 104.821 47.6488 104.587 47.7825C104.352 47.9162 104.068 47.9372 103.858 47.7694C103.38 47.3854 102.818 47.1823 102.229 47.1823C100.963 47.1823 99.8804 48.0879 99.6563 49.3369C99.5934 49.6869 99.2683 49.9215 98.9105 49.8677C98.7087 49.8363 98.5069 49.8035 98.2972 49.8035C96.1294 49.8035 94.3653 51.5676 94.3653 53.7354C94.3653 55.9031 96.1294 57.6672 98.2972 57.6672H108.127C108.489 57.6672 108.782 57.9608 108.782 58.3225C108.782 58.6843 108.489 58.9779 108.127 58.9779H98.2972C95.4059 58.9779 93.0547 56.6266 93.0547 53.7354C93.0547 50.8441 95.4059 48.4929 98.2972 48.4929C98.3745 48.4929 98.4492 48.4955 98.5252 48.5007C99.0678 46.9463 100.54 45.8716 102.229 45.8716C102.686 45.8716 103.132 45.9516 103.554 46.1076C103.77 43.0499 106.326 40.6292 109.437 40.6292C111.837 40.6292 113.98 42.1062 114.88 44.2648C115.772 43.6121 116.849 43.2504 117.957 43.2504C120.848 43.2504 123.199 45.6016 123.199 48.4929C123.199 48.5558 123.198 48.6174 123.194 48.679C125.478 49.2661 127.131 51.3356 127.131 53.7354C127.131 56.6266 124.78 58.9779 121.888 58.9779Z" fill="#472B29"/>
<path d="M114.68 57.6672C114.471 57.6672 113.578 57.6672 113.369 57.6672C113.007 57.6672 112.714 57.9608 112.714 58.3225C112.714 58.6843 113.007 58.9779 113.369 58.9779C113.578 58.9779 114.471 58.9779 114.68 58.9779C115.042 58.9779 115.335 58.6843 115.335 58.3225C115.335 57.9608 115.042 57.6672 114.68 57.6672Z" fill="#472B29"/>
<path d="M73.3226 80.529C74.724 79.6479 75.3064 77.6041 74.9938 76.5512L74.6205 73.5048C80.1454 70.6731 84.2239 64.9619 84.2239 58.3269C84.2239 48.8877 76.2827 41.208 66.8435 41.208C57.4043 41.208 49.7529 48.8601 49.7529 58.2986C49.7529 64.9337 53.5417 70.6724 59.0665 73.5041L58.6933 76.5505C58.6933 78.3224 59.8483 79.8377 61.4436 80.3807" fill="#FEF6AA"/>
<path d="M73.3236 81.2191C73.0945 81.2191 72.8703 81.1046 72.7385 80.8962C72.5356 80.5733 72.6329 80.1475 72.9551 79.9447C74.0736 79.2416 74.5614 77.5207 74.3324 76.7472C74.3213 76.7106 74.3144 76.6734 74.3096 76.6354L73.9356 73.5891C73.8997 73.3013 74.0481 73.0226 74.3055 72.8908C79.911 70.0176 83.5335 64.301 83.5335 58.327C83.5335 49.2686 76.0463 41.8981 66.8438 41.8981C57.8007 41.8981 50.4425 49.2555 50.4425 58.2987C50.4425 64.4735 53.8677 70.0652 59.3808 72.8901C59.6381 73.0219 59.7865 73.3013 59.7506 73.5884L59.3821 76.5906C59.3987 78.0099 60.3123 79.2671 61.6653 79.7273C62.0255 79.8501 62.2194 80.2421 62.0959 80.6029C61.9738 80.9638 61.5853 81.1577 61.2203 81.0342C59.2952 80.3794 58.0021 78.5778 58.0021 76.5506C58.0021 76.5223 58.0042 76.494 58.0077 76.4664L58.3237 73.892C52.5988 70.7628 49.0625 64.8323 49.0625 58.2987C49.0625 48.4945 57.0396 40.5181 66.8438 40.5181C76.8074 40.5181 84.9135 48.5069 84.9135 58.327C84.9135 64.6598 81.1806 70.718 75.3625 73.8927L75.6723 76.4153C76.0491 77.8229 75.2949 80.1041 73.6893 81.1135C73.5761 81.1853 73.4485 81.2191 73.3236 81.2191Z" fill="#1F212B"/>
<path d="M64.8044 78.7399C64.7934 78.7399 64.7837 78.7399 64.7734 78.7385C64.5836 78.7219 64.4429 78.5542 64.4601 78.3645C64.8203 74.2935 64.5305 71.0312 63.521 68.2084C62.4446 68.4989 61.3117 68.3422 60.4664 67.7309C59.7143 67.1865 59.2575 66.4461 59.2127 65.6982C59.1754 65.0758 59.4211 64.5017 59.9227 64.0373C60.1801 63.7993 60.454 63.6544 60.7369 63.6075C61.3951 63.4957 62.0927 63.9166 62.5985 64.7287C63.1174 65.5615 63.559 66.424 63.9247 67.3273C64.1117 67.241 64.2938 67.1368 64.4663 67.0154C64.7106 66.8436 64.9293 66.6504 65.1253 66.442C65.1246 66.442 65.1246 66.4413 65.1239 66.4406C64.5112 65.6954 64.3939 64.6459 64.7741 63.3211C64.9383 62.7477 65.4703 62.1992 66.0106 62.0453C66.3638 61.9459 66.6978 62.0143 66.9496 62.244C67.3147 62.5745 67.4044 63.1127 67.2181 63.8434C67.0249 64.5983 66.6819 65.536 66.0761 66.3716C66.624 66.7263 67.4278 66.8788 68.3641 66.8015C69.1328 66.7366 69.847 66.3847 70.399 65.8051C69.4426 65.1703 69.0058 64.3099 69.1894 63.377C69.3081 62.7739 69.8449 62.1371 70.4397 61.8949C70.8302 61.7348 71.2097 61.7617 71.5112 61.968C71.9211 62.2489 71.9701 62.7222 72.0101 63.1031C72.0991 63.9587 71.8921 64.8343 71.436 65.5822C71.7058 65.7002 71.9846 65.7948 72.2626 65.8679C72.9016 64.6583 73.5654 63.7896 74.1912 63.5481C74.4824 63.4363 75.0427 63.3473 75.5326 64.0187C76.2805 65.0413 76.0763 65.6933 75.7734 66.0597C75.2241 66.7242 73.9207 66.8712 72.6401 66.649C70.982 70.1259 69.3715 76.211 69.5744 78.1478C69.5944 78.3376 69.4571 78.5073 69.2674 78.5266C69.0845 78.548 68.9079 78.4093 68.8885 78.2196C68.6836 76.2641 70.1747 70.2052 71.9501 66.4924C71.6237 66.4006 71.3091 66.2854 71.0186 66.1494C70.3369 66.9298 69.4192 67.4045 68.4228 67.488C67.296 67.5846 66.3197 67.3728 65.6366 66.9057C65.4082 67.1499 65.1515 67.3776 64.8631 67.5798C64.643 67.735 64.4111 67.8668 64.1724 67.9752C65.2164 70.8918 65.5179 74.248 65.1481 78.4252C65.1308 78.6046 64.9811 78.7399 64.8044 78.7399ZM60.948 64.2802C60.9156 64.2802 60.8825 64.283 60.8494 64.2885C60.7017 64.3133 60.5478 64.3989 60.3912 64.5445C60.0407 64.8681 59.8758 65.2428 59.9006 65.6575C59.933 66.1984 60.287 66.7497 60.8701 67.172C61.5173 67.6412 62.4143 67.7647 63.2706 67.5556C62.9214 66.6994 62.5033 65.8824 62.012 65.0937C61.7608 64.6887 61.3572 64.2802 60.948 64.2802ZM72.9623 66.0073C74.0063 66.1501 74.9316 65.9942 75.2414 65.6195C75.5084 65.2973 75.2441 64.7922 74.9757 64.4251C74.7542 64.1236 74.5879 64.1346 74.4389 64.1919C73.9883 64.3651 73.4791 65.0378 72.9623 66.0073ZM66.3169 62.6911C66.2838 62.6911 66.2452 62.696 66.1996 62.7091C65.885 62.7988 65.5358 63.1659 65.4372 63.5116C65.1439 64.5341 65.1895 65.3332 65.5717 65.89C66.083 65.1579 66.379 64.3375 66.5494 63.673C66.6309 63.3549 66.6861 62.9375 66.486 62.7553C66.4639 62.7353 66.4156 62.6911 66.3169 62.6911ZM70.9323 62.4807C70.8626 62.4807 70.7854 62.4979 70.7005 62.5331C70.3224 62.6877 69.9401 63.1348 69.8663 63.5102C69.7062 64.3278 70.272 64.9026 70.8247 65.2579C71.218 64.6307 71.3988 63.8938 71.3242 63.179C71.2897 62.8498 71.2573 62.6304 71.1214 62.5366C71.0669 62.4993 71.0034 62.4807 70.9323 62.4807Z" fill="#1F212B"/>
<path d="M71.4874 84.8636H62.0786C60.9932 84.8636 60.1045 83.9321 60.1045 82.7936C60.1045 81.6551 60.9925 80.7236 62.0786 80.7236H71.9628C73.0482 80.7236 73.9369 81.6551 73.9369 82.7936C73.9369 83.4112 73.9369 83.4112 73.5243 83.9804" fill="#8F9EB6"/>
<path d="M71.4873 85.5537H62.0784C60.6094 85.5537 59.415 84.3158 59.415 82.7937C59.415 81.2716 60.6094 80.0337 62.0784 80.0337H71.9627C73.4317 80.0337 74.6261 81.2716 74.6261 82.7937C74.6261 83.5879 74.5647 83.7197 74.0824 84.3855C73.8588 84.694 73.4276 84.763 73.1191 84.5401C72.8107 84.3165 72.7417 83.8853 72.9653 83.5768C73.2461 83.1884 73.2461 83.1884 73.2461 82.7944C73.2461 82.0333 72.6699 81.4144 71.9627 81.4144H62.0784C61.3712 81.4144 60.795 82.0333 60.795 82.7944C60.795 83.5555 61.3712 84.1744 62.0784 84.1744H71.488C71.8695 84.1744 72.178 84.4835 72.178 84.8644C72.178 85.2453 71.8688 85.5537 71.4873 85.5537Z" fill="#1F212B"/>
<path d="M71.801 89.0037H62.8951C61.9284 89.0037 61.1377 88.213 61.1377 87.2463V86.6205C61.1377 85.6538 61.9284 84.863 62.8951 84.863H71.801C72.7676 84.863 73.5584 85.6538 73.5584 86.6205V87.2463C73.5577 88.213 72.767 89.0037 71.801 89.0037Z" fill="#8F9EB6"/>
<path d="M71.7998 89.6936H62.8947C61.5451 89.6936 60.4473 88.5958 60.4473 87.2462V86.621C60.4473 85.2714 61.5451 84.1736 62.8947 84.1736H71.7998C73.1495 84.1736 74.2473 85.2714 74.2473 86.621V87.2462C74.2473 88.5958 73.1502 89.6936 71.7998 89.6936ZM62.8947 85.5536C62.3061 85.5536 61.8273 86.0324 61.8273 86.621V87.2462C61.8273 87.8347 62.3061 88.3136 62.8947 88.3136H71.7998C72.3884 88.3136 72.8673 87.8347 72.8673 87.2462V86.621C72.8673 86.0324 72.3884 85.5536 71.7998 85.5536H62.8947Z" fill="#1F212B"/>
<path d="M71.2433 89.3204C71.2433 91.2751 68.1887 91.7713 67.2793 91.7713C65.1361 91.7713 63.3994 90.6355 63.3994 89.2341" fill="#6474A6"/>
<path d="M67.2789 92.4612C64.7162 92.4612 62.709 91.0439 62.709 89.234C62.709 88.8532 63.0174 88.544 63.399 88.544C63.7806 88.544 64.089 88.8532 64.089 89.234C64.089 90.2352 65.5497 91.0812 67.2789 91.0812C68.0013 91.0812 70.5529 90.6596 70.5529 89.3203C70.5529 88.9394 70.8613 88.6303 71.2429 88.6303C71.6245 88.6303 71.9329 88.9394 71.9329 89.3203C71.9329 91.6932 68.7975 92.4612 67.2789 92.4612ZM80.3709 58.7298C80.1805 58.7298 80.0259 58.5753 80.0259 58.3848C80.0259 57.2243 79.8652 56.0768 79.5484 54.9735C79.496 54.7899 79.6016 54.5995 79.7851 54.5464C79.9673 54.4925 80.1591 54.5995 80.2115 54.7823C80.5462 55.9471 80.7159 57.1594 80.7159 58.3841C80.7159 58.576 80.562 58.7298 80.3709 58.7298ZM79.022 53.0325C78.8957 53.0325 78.775 52.9628 78.7142 52.8428C76.9465 49.3341 73.5848 46.8577 69.7235 46.2174C69.057 46.107 68.3732 46.0511 67.6929 46.0511C67.5024 46.0511 67.3479 45.8965 67.3479 45.7061C67.3479 45.5156 67.5024 45.3611 67.6929 45.3611C68.4111 45.3611 69.1329 45.4204 69.8367 45.537C73.9146 46.2125 77.464 48.8276 79.3304 52.5323C79.416 52.7027 79.3477 52.9097 79.1772 52.9952C79.1282 53.0208 79.0744 53.0325 79.022 53.0325Z" fill="#1F212B"/>
</svg>
