<svg width="110" height="110" viewBox="0 0 110 110" fill="none" xmlns="http://www.w3.org/2000/svg">
<path d="M48.7112 82.5759H30.746C27.2876 82.5759 24.4573 79.7467 24.4573 76.2872V27.7794C24.4573 24.321 27.2865 21.4907 30.746 21.4907H79.2549C82.7133 21.4907 85.5436 24.3199 85.5436 27.7794V76.2883C85.5436 79.7467 82.7144 82.577 79.2549 82.577H75.6612" fill="#EFF9FE"/>
<path d="M47.3639 57.8721H29.3987V38.1095H80.6015V57.8721H72.5176" fill="#A4DEEB"/>
<path d="M32.0937 24.6356C31.8578 24.6356 31.6242 24.6821 31.4063 24.7724C31.1883 24.8626 30.9903 24.9949 30.8235 25.1617C30.6567 25.3285 30.5244 25.5266 30.4341 25.7445C30.3438 25.9624 30.2974 26.196 30.2974 26.4319C30.2974 26.6678 30.3438 26.9014 30.4341 27.1193C30.5244 27.3373 30.6567 27.5353 30.8235 27.7021C30.9903 27.8689 31.1883 28.0012 31.4063 28.0915C31.6242 28.1818 31.8578 28.2282 32.0937 28.2282C32.3296 28.2282 32.5631 28.1818 32.7811 28.0915C32.999 28.0012 33.197 27.8689 33.3638 27.7021C33.5306 27.5353 33.663 27.3373 33.7532 27.1193C33.8435 26.9014 33.89 26.6678 33.89 26.4319C33.89 26.196 33.8435 25.9624 33.7532 25.7445C33.663 25.5266 33.5306 25.3285 33.3638 25.1617C33.197 24.9949 32.999 24.8626 32.7811 24.7724C32.5631 24.6821 32.3296 24.6356 32.0937 24.6356Z" fill="#E63946"/>
<path d="M38.3813 24.6356C38.1454 24.6356 37.9118 24.6821 37.6938 24.7724C37.4759 24.8626 37.2779 24.9949 37.1111 25.1617C36.9443 25.3285 36.812 25.5266 36.7217 25.7445C36.6314 25.9624 36.585 26.196 36.585 26.4319C36.585 26.6678 36.6314 26.9014 36.7217 27.1193C36.812 27.3373 36.9443 27.5353 37.1111 27.7021C37.2779 27.8689 37.4759 28.0012 37.6938 28.0915C37.9118 28.1818 38.1454 28.2282 38.3813 28.2282C38.6172 28.2282 38.8507 28.1818 39.0687 28.0915C39.2866 28.0012 39.4846 27.8689 39.6514 27.7021C39.8182 27.5353 39.9506 27.3373 40.0408 27.1193C40.1311 26.9014 40.1776 26.6678 40.1776 26.4319C40.1776 26.196 40.1311 25.9624 40.0408 25.7445C39.9506 25.5266 39.8182 25.3285 39.6514 25.1617C39.4846 24.9949 39.2866 24.8626 39.0687 24.7724C38.8507 24.6821 38.6172 24.6356 38.3813 24.6356Z" fill="#FFEC00"/>
<path d="M44.6698 24.6356C44.4339 24.6356 44.2004 24.6821 43.9824 24.7724C43.7645 24.8626 43.5665 24.9949 43.3997 25.1617C43.2329 25.3285 43.1005 25.5266 43.0103 25.7445C42.92 25.9624 42.8735 26.196 42.8735 26.4319C42.8735 26.6678 42.92 26.9014 43.0103 27.1193C43.1005 27.3373 43.2329 27.5353 43.3997 27.7021C43.5665 27.8689 43.7645 28.0012 43.9824 28.0915C44.2004 28.1818 44.4339 28.2282 44.6698 28.2282C44.9057 28.2282 45.1393 28.1818 45.3572 28.0915C45.5752 28.0012 45.7732 27.8689 45.94 27.7021C46.1068 27.5353 46.2391 27.3373 46.3294 27.1193C46.4197 26.9014 46.4661 26.6678 46.4661 26.4319C46.4661 26.196 46.4197 25.9624 46.3294 25.7445C46.2391 25.5266 46.1068 25.3285 45.94 25.1617C45.7732 24.9949 45.5752 24.8626 45.3572 24.7724C45.1393 24.6821 44.9057 24.6356 44.6698 24.6356Z" fill="#60BE92"/>
<path d="M54.1013 45.9701L79.3441 69.5299L67.144 70.5815L74.0861 85.9375L69.4584 88.0407L62.7275 72.4746L54.1035 80.6784V45.9701H54.1013Z" fill="#91B6CB"/>
<path d="M55.5039 48.6244L76.9077 68.7225L66.4478 69.8962C66.1926 69.9248 66.0386 70.191 66.1398 70.4264L72.7585 85.7142L71.5672 86.2411L55.5039 48.6244Z" fill="#7783AD"/>
<path d="M79.5125 20.9H30.4877C26.4144 20.9 23.1001 24.2143 23.1001 28.2876V77.3113C23.1001 81.3857 26.4144 84.7 30.4877 84.7H48.4001C49.0073 84.7 49.5001 84.2072 49.5001 83.6C49.5001 82.9928 49.0073 82.5 48.4001 82.5H30.4877C27.6277 82.5 25.3001 80.1724 25.3001 77.3124V77H32.4501C32.7537 77 33.0001 76.7536 33.0001 76.45C33.0001 76.1464 32.7537 75.9 32.4501 75.9H25.3001V31.9H64.3501C64.6537 31.9 64.9001 31.6536 64.9001 31.35C64.9001 31.0464 64.6537 30.8 64.3501 30.8H25.3001V28.2876C25.3001 25.4276 27.6277 23.1 30.4877 23.1H79.5114C82.3725 23.1 84.7001 25.4276 84.7001 28.2876V30.8H77.5501C77.2465 30.8 77.0001 31.0464 77.0001 31.35C77.0001 31.6536 77.2465 31.9 77.5501 31.9H84.7001V75.9H75.3501C75.0465 75.9 74.8001 76.1464 74.8001 76.45C74.8001 76.7536 75.0465 77 75.3501 77H84.7001V77.3124C84.7001 80.1724 82.3725 82.5 79.5125 82.5H75.9001C75.2929 82.5 74.8001 82.9928 74.8001 83.6C74.8001 84.2072 75.2929 84.7 75.9001 84.7H79.5125C83.5858 84.7 86.9001 81.3857 86.9001 77.3124V28.2876C86.9001 24.2143 83.5858 20.9 79.5125 20.9Z" fill="#002950"/>
<path d="M72.0502 31.9001C72.3538 31.9001 72.6002 31.6537 72.6002 31.3501C72.6002 31.0465 72.3538 30.8001 72.0502 30.8001H67.6502C67.3466 30.8001 67.1002 31.0465 67.1002 31.3501C67.1002 31.6537 67.3466 31.9001 67.6502 31.9001H72.0502ZM34.6502 77.0001H48.9502C49.2538 77.0001 49.5002 76.7537 49.5002 76.4501C49.5002 76.1465 49.2538 75.9001 48.9502 75.9001H34.6502C34.3466 75.9001 34.1002 76.1465 34.1002 76.4501C34.1002 76.7537 34.3466 77.0001 34.6502 77.0001ZM29.7002 26.4001C29.7002 27.6134 30.6869 28.6001 31.9002 28.6001C33.1135 28.6001 34.1002 27.6134 34.1002 26.4001C34.1002 25.1868 33.1135 24.2001 31.9002 24.2001C30.6869 24.2001 29.7002 25.1868 29.7002 26.4001ZM33.0002 26.4001C33.0002 27.0062 32.5063 27.5001 31.9002 27.5001C31.2941 27.5001 30.8002 27.0062 30.8002 26.4001C30.8002 25.794 31.2941 25.3001 31.9002 25.3001C32.5063 25.3001 33.0002 25.794 33.0002 26.4001ZM36.3002 26.4001C36.3002 27.6134 37.2869 28.6001 38.5002 28.6001C39.7135 28.6001 40.7002 27.6134 40.7002 26.4001C40.7002 25.1868 39.7135 24.2001 38.5002 24.2001C37.2869 24.2001 36.3002 25.1868 36.3002 26.4001ZM39.6002 26.4001C39.6002 27.0062 39.1063 27.5001 38.5002 27.5001C37.8941 27.5001 37.4002 27.0062 37.4002 26.4001C37.4002 25.794 37.8941 25.3001 38.5002 25.3001C39.1063 25.3001 39.6002 25.794 39.6002 26.4001ZM42.9002 26.4001C42.9002 27.6134 43.8869 28.6001 45.1002 28.6001C46.3135 28.6001 47.3002 27.6134 47.3002 26.4001C47.3002 25.1868 46.3135 24.2001 45.1002 24.2001C43.8869 24.2001 42.9002 25.1868 42.9002 26.4001ZM46.2002 26.4001C46.2002 27.0062 45.7063 27.5001 45.1002 27.5001C44.4941 27.5001 44.0002 27.0062 44.0002 26.4001C44.0002 25.794 44.4941 25.3001 45.1002 25.3001C45.7063 25.3001 46.2002 25.794 46.2002 26.4001ZM68.5852 71.7784L79.2376 70.8599C79.671 70.8225 80.0406 70.5343 80.1825 70.1229C80.3244 69.7126 80.2111 69.2561 79.8932 68.9602L54.6504 45.4004C54.3303 45.1012 53.8628 45.022 53.4613 45.1958C53.0598 45.3707 52.8002 45.7667 52.8002 46.2045V80.9128C52.8002 81.3528 53.062 81.7499 53.4668 81.9237C53.8705 82.0975 54.3391 82.0139 54.6581 81.7103L62.1403 74.5933L68.2464 88.7129C68.363 88.9835 68.5852 89.1958 68.8602 89.3025C68.9878 89.3509 69.122 89.3762 69.2562 89.3762C69.4113 89.3762 69.5675 89.3432 69.7116 89.2772L74.3393 87.174C74.8915 86.9232 75.1368 86.2731 74.8871 85.7198L68.5852 71.7784ZM69.8216 86.8099L63.5351 72.2723C63.3921 71.9423 63.0973 71.7025 62.7453 71.631C62.6727 71.6167 62.599 71.609 62.5253 71.609C62.2459 71.609 61.9742 71.7157 61.7674 71.9115L55.0002 78.3476V49.6673L58.21 56.8701C58.3013 57.0747 58.5026 57.1957 58.7127 57.1957C58.7875 57.1957 58.8634 57.1803 58.936 57.1484C59.2132 57.0252 59.3386 56.6996 59.2143 56.4224L56.351 49.9973L76.5833 68.881L66.8472 69.7214C66.4919 69.7522 66.1729 69.9524 65.9925 70.2604C65.8121 70.5684 65.7923 70.9446 65.9397 71.2702L72.4286 85.6252L69.8216 86.8099Z" fill="#002950"/>
<path d="M59.8489 58.3078C59.729 58.0284 59.4045 57.8997 59.1262 58.0185C58.8468 58.1384 58.717 58.4618 58.8369 58.7412L59.0514 59.2427C59.1416 59.4506 59.344 59.576 59.5574 59.576C59.63 59.576 59.7026 59.5617 59.7741 59.532C60.0535 59.4121 60.1833 59.0887 60.0634 58.8094L59.8489 58.3078Z" fill="#002950"/>
<path d="M28.6001 37.95V57.75C28.6001 58.0536 28.8465 58.3 29.1501 58.3H46.7501C47.0537 58.3 47.3001 58.0536 47.3001 57.75C47.3001 57.4464 47.0537 57.2 46.7501 57.2H29.7001V38.5H80.3001V57.2H73.1501C72.8465 57.2 72.6001 57.4464 72.6001 57.75C72.6001 58.0536 72.8465 58.3 73.1501 58.3H80.8501C81.1537 58.3 81.4001 58.0536 81.4001 57.75V37.95C81.4001 37.6464 81.1537 37.4 80.8501 37.4H29.1501C28.8465 37.4 28.6001 37.6464 28.6001 37.95Z" fill="#002950"/>
</svg>
